<?xml version="1.0" encoding="UTF-8" standalone="no"?>
<svg
   xmlns:dc="http://purl.org/dc/elements/1.1/"
   xmlns:cc="http://creativecommons.org/ns#"
   xmlns:rdf="http://www.w3.org/1999/02/22-rdf-syntax-ns#"
   xmlns:svg="http://www.w3.org/2000/svg"
   xmlns="http://www.w3.org/2000/svg"
   xmlns:sodipodi="http://sodipodi.sourceforge.net/DTD/sodipodi-0.dtd"
   xmlns:inkscape="http://www.inkscape.org/namespaces/inkscape"
   viewBox="0 0 38.5 28.8375"
   height="28.8375"
   width="38.5"
   xml:space="preserve"
   version="1.1"
   id="svg2"
   inkscape:version="0.91 r13725"
   sodipodi:docname="01-002-phone.svg"><sodipodi:namedview
     pagecolor="#ffffff"
     bordercolor="#666666"
     borderopacity="1"
     objecttolerance="10"
     gridtolerance="10"
     guidetolerance="10"
     inkscape:pageopacity="0"
     inkscape:pageshadow="2"
     inkscape:window-width="690"
     inkscape:window-height="480"
     id="namedview37"
     showgrid="false"
     inkscape:zoom="7.4805195"
     inkscape:cx="19.25"
     inkscape:cy="14.41875"
     inkscape:window-x="0"
     inkscape:window-y="0"
     inkscape:window-maximized="0"
     inkscape:current-layer="svg2" /><metadata
     id="metadata8"><rdf:RDF><cc:Work
         rdf:about=""><dc:format>image/svg+xml</dc:format><dc:type
           rdf:resource="http://purl.org/dc/dcmitype/StillImage" /></cc:Work></rdf:RDF></metadata><defs
     id="defs6"><clipPath
       id="clipPath18"
       clipPathUnits="userSpaceOnUse"><path
         id="path20"
         d="m 0,0.652344 308,0 0,229.999996 -308,0 L 0,0.652344 Z" /></clipPath></defs><g
     transform="matrix(1.25,0,0,-1.25,0,28.8375)"
     id="g10"
     style="fill:#000000"><g
       transform="scale(0.1,0.1)"
       id="g12"
       style="fill:#000000"><g
         id="g14"
         style="fill:#000000"><g
           clip-path="url(#clipPath18)"
           id="g16"
           style="fill:#000000"><path
             id="path22"
             style="fill:#000000;fill-opacity:1;fill-rule:nonzero;stroke:none"
             d="m 4.03125,5.82031 209.863,0 0,49.2578 -209.863,0 0,-49.2578 z" /><path
             id="path24"
             style="fill:#000000;stroke:#ffffff;stroke-width:3.99993992;stroke-linecap:butt;stroke-linejoin:miter;stroke-miterlimit:4;stroke-dasharray:none;stroke-opacity:1"
             d="m 4.03125,5.82031 209.863,0 0,49.2578 -209.863,0 0,-49.2578 z" /><path
             id="path26"
             style="fill:#000000;fill-opacity:1;fill-rule:nonzero;stroke:none"
             d="m 213.895,55.0781 -210.08641,0 99.83641,144.9099 200.789,0 -90.539,-144.9099" /><path
             id="path28"
             style="fill:#000000;stroke:#ffffff;stroke-width:3.99993992;stroke-linecap:butt;stroke-linejoin:miter;stroke-miterlimit:4;stroke-dasharray:none;stroke-opacity:1"
             d="m 213.895,55.0781 -210.08641,0 99.83641,144.9099 200.789,0 -90.539,-144.9099 z" /><path
             id="path30"
             style="fill:#000000;fill-opacity:1;fill-rule:nonzero;stroke:none"
             d="m 304.434,199.988 0,-92.644 -90.539,-102.07056 0,49.80466 90.539,144.9099" /><path
             id="path32"
             style="fill:#000000;stroke:#ffffff;stroke-width:3.99993992;stroke-linecap:butt;stroke-linejoin:miter;stroke-miterlimit:4;stroke-dasharray:none;stroke-opacity:1"
             d="m 304.434,199.988 0,-92.644 -90.539,-102.07056 0,49.80466 90.539,144.9099 z" /><path
             id="path34"
             style="fill:#000000;fill-opacity:1;fill-rule:nonzero;stroke:none"
             d="M 213.895,55.0781 304.434,199.988" /><path
             id="path36"
             style="fill:#000000;stroke:#ffffff;stroke-width:3.99993992;stroke-linecap:butt;stroke-linejoin:miter;stroke-miterlimit:4;stroke-dasharray:none;stroke-opacity:1"
             d="M 213.895,55.0781 304.434,199.988" /><path
             id="path38"
             style="fill:#000000;fill-opacity:1;fill-rule:nonzero;stroke:none"
             d="m 170.02,173.633 c -12.903,-14.824 -28.797,-32.11 -39.004,-48.867 l 0.871,-10.887 -31.809,-49.1329 -3.6796,31.9727 C 102.441,120.918 177.52,215.977 194.805,227.215 l 3.679,-31.981 -27.656,-31.816 -0.808,10.215" /><path
             id="path40"
             style="fill:#000000;stroke:#ffffff;stroke-width:3.99993992;stroke-linecap:butt;stroke-linejoin:miter;stroke-miterlimit:4;stroke-dasharray:none;stroke-opacity:1"
             d="m 170.02,173.633 c -12.903,-14.824 -28.797,-32.11 -39.004,-48.867 l 0.871,-10.887 -31.809,-49.1329 -3.6796,31.9727 C 102.441,120.918 177.52,215.977 194.805,227.215 l 3.679,-31.981 -27.656,-31.816 -0.808,10.215 z" /><path
             id="path42"
             style="fill:#000000;fill-opacity:1;fill-rule:nonzero;stroke:none"
             d="m 58.8281,96.7188 -3.6797,-31.9727 44.9296,0 -3.6796,31.9727 -37.5703,0" /><path
             id="path44"
             style="fill:#000000;stroke:#ffffff;stroke-width:3.99993992;stroke-linecap:butt;stroke-linejoin:miter;stroke-miterlimit:4;stroke-dasharray:none;stroke-opacity:1"
             d="m 58.8281,96.7188 -3.6797,-31.9727 44.9296,0 -3.6796,31.9727 -37.5703,0 z" /><path
             id="path46"
             style="fill:#000000;fill-opacity:1;fill-rule:nonzero;stroke:none"
             d="M 194.805,227.215 C 177.52,215.977 102.441,120.918 96.3984,96.7188 l -37.5703,0 C 64.8828,120.918 139.941,215.977 157.227,227.215 l 37.578,0" /><path
             id="path48"
             style="fill:#000000;stroke:#ffffff;stroke-width:3.99993992;stroke-linecap:butt;stroke-linejoin:miter;stroke-miterlimit:4;stroke-dasharray:none;stroke-opacity:1"
             d="M 194.805,227.215 C 177.52,215.977 102.441,120.918 96.3984,96.7188 l -37.5703,0 C 64.8828,120.918 139.941,215.977 157.227,227.215 l 37.578,0 z" /><path
             id="path50"
             style="fill:#000000;fill-opacity:1;fill-rule:nonzero;stroke:none"
             d="m 129.922,71.7383 44.355,63.3007 66.758,0 -39.629,-63.3007 -71.484,0" /><path
             id="path52"
             style="fill:#000000;stroke:#ffffff;stroke-width:3.99993992;stroke-linecap:butt;stroke-linejoin:miter;stroke-miterlimit:4;stroke-dasharray:none;stroke-opacity:1"
             d="m 129.922,71.7383 44.355,63.3007 66.758,0 -39.629,-63.3007 -71.484,0 z" /><path
             id="path54"
             style="fill:#000000;fill-opacity:1;fill-rule:nonzero;stroke:none"
             d="m 177.578,71.7383 41.211,63.3007" /><path
             id="path56"
             style="fill:#000000;stroke:#ffffff;stroke-width:3.99993992;stroke-linecap:butt;stroke-linejoin:miter;stroke-miterlimit:4;stroke-dasharray:none;stroke-opacity:1"
             d="m 177.578,71.7383 41.211,63.3007" /><path
             id="path58"
             style="fill:#000000;fill-opacity:1;fill-rule:nonzero;stroke:none"
             d="m 153.75,71.7383 42.781,63.3007" /><path
             id="path60"
             style="fill:#000000;stroke:#ffffff;stroke-width:3.99993992;stroke-linecap:butt;stroke-linejoin:miter;stroke-miterlimit:4;stroke-dasharray:none;stroke-opacity:1"
             d="m 153.75,71.7383 42.781,63.3007" /><path
             id="path62"
             style="fill:#000000;fill-opacity:1;fill-rule:nonzero;stroke:none"
             d="m 211.316,87.5586 -70.308,0" /><path
             id="path64"
             style="fill:#000000;stroke:#ffffff;stroke-width:3.99993992;stroke-linecap:butt;stroke-linejoin:miter;stroke-miterlimit:4;stroke-dasharray:none;stroke-opacity:1"
             d="m 211.316,87.5586 -70.308,0" /><path
             id="path66"
             style="fill:#000000;fill-opacity:1;fill-rule:nonzero;stroke:none"
             d="m 221.223,103.379 -69.121,0" /><path
             id="path68"
             style="fill:#000000;stroke:#ffffff;stroke-width:3.99993992;stroke-linecap:butt;stroke-linejoin:miter;stroke-miterlimit:4;stroke-dasharray:none;stroke-opacity:1"
             d="m 221.223,103.379 -69.121,0" /><path
             id="path70"
             style="fill:#000000;fill-opacity:1;fill-rule:nonzero;stroke:none"
             d="m 231.133,119.211 -67.949,0" /><path
             id="path72"
             style="fill:#000000;stroke:#ffffff;stroke-width:3.99993992;stroke-linecap:butt;stroke-linejoin:miter;stroke-miterlimit:4;stroke-dasharray:none;stroke-opacity:1"
             d="m 231.133,119.211 -67.949,0" /></g></g></g></g></svg>