<?xml version="1.0" encoding="UTF-8" standalone="no"?>
<svg
   xmlns:dc="http://purl.org/dc/elements/1.1/"
   xmlns:cc="http://creativecommons.org/ns#"
   xmlns:rdf="http://www.w3.org/1999/02/22-rdf-syntax-ns#"
   xmlns:svg="http://www.w3.org/2000/svg"
   xmlns="http://www.w3.org/2000/svg"
   xmlns:sodipodi="http://sodipodi.sourceforge.net/DTD/sodipodi-0.dtd"
   xmlns:inkscape="http://www.inkscape.org/namespaces/inkscape"
   viewBox="0 0 31.737499 29.9125"
   height="29.9125"
   width="31.737499"
   xml:space="preserve"
   version="1.1"
   id="svg2"
   sodipodi:docname="02-001-icon-diskette.svg"
   inkscape:version="0.92.1 r15371"><sodipodi:namedview
     pagecolor="#ffffff"
     bordercolor="#666666"
     borderopacity="1"
     objecttolerance="10"
     gridtolerance="10"
     guidetolerance="10"
     inkscape:pageopacity="0"
     inkscape:pageshadow="2"
     inkscape:window-width="1871"
     inkscape:window-height="1244"
     id="namedview5083"
     showgrid="false"
     inkscape:zoom="22.31538"
     inkscape:cx="4.3622055"
     inkscape:cy="6.6315505"
     inkscape:window-x="686"
     inkscape:window-y="537"
     inkscape:window-maximized="0"
     inkscape:current-layer="svg2" /><metadata
     id="metadata8"><rdf:RDF><cc:Work
         rdf:about=""><dc:format>image/svg+xml</dc:format><dc:type
           rdf:resource="http://purl.org/dc/dcmitype/StillImage" /><dc:title></dc:title></cc:Work></rdf:RDF></metadata><defs
     id="defs6"><clipPath
       id="clipPath18"
       clipPathUnits="userSpaceOnUse"><path
         id="path20"
         d="M 0,0 250,0 250,239 0,239 0,0 Z" /></clipPath></defs><g
     transform="matrix(1.25,0,0,-1.25,0,29.9125)"
     id="g10"><g
       transform="scale(0.1,0.1)"
       id="g12"><g
         id="g14"><g
           clip-path="url(#clipPath18)"
           id="g16"><path
             id="path22"
             style="fill:#02709f;fill-opacity:1;fill-rule:nonzero;stroke:none"
             d="m 246.617,237.129 -6.027,-3.551 -233.56266,0 5.95706,3.692 233.6326,-0.141" /><path
             id="path24"
             style="fill:none;stroke:#ffffff;stroke-width:3.99993992;stroke-linecap:butt;stroke-linejoin:miter;stroke-miterlimit:4;stroke-dasharray:none;stroke-opacity:1"
             d="m 246.617,237.129 -6.027,-3.551 -233.56266,0 5.95706,3.692 233.6326,-0.141 z" /><path
             id="path26"
             style="fill:#000000;fill-opacity:1;fill-rule:nonzero;stroke:none"
             d="m 246.664,5.54688 -0.047,231.58212 -6.027,-4.57 0,-232.559 6.074,5.54688" /><path
             id="path28"
             style="fill:#000000;fill-opacity:1;fill-rule:nonzero;stroke:none"
             d="m 17.6406,0 222.9494,0 0,233.578 -233.56266,0 0,-222.953 L 17.6406,0" /><path
             id="path30"
             style="fill:none;stroke:#ffffff;stroke-width:3.99993992;stroke-linecap:butt;stroke-linejoin:miter;stroke-miterlimit:4;stroke-dasharray:none;stroke-opacity:1"
             d="m 222.895,233.578 0,-134.7421 c 0,-9.7968 -7.957,-7.957 -7.957,-7.957 l -183.145,0 c 0,0 -7.0703,-0.8906 -7.0703,7.0664 l 0,135.6327" /><path
             id="path32"
             style="fill:none;stroke:#ffffff;stroke-width:3.99993992;stroke-linecap:butt;stroke-linejoin:miter;stroke-miterlimit:4;stroke-dasharray:none;stroke-opacity:1"
             d="m 10.6211,209.684 10.625,0 0,10.6172 -10.625,0 0,-10.6172 z" /><path
             id="path34"
             style="fill:none;stroke:#ffffff;stroke-width:3.99993992;stroke-linecap:butt;stroke-linejoin:miter;stroke-miterlimit:4;stroke-dasharray:none;stroke-opacity:1"
             d="m 226.508,209.684 10.6172,0 0,10.6172 -10.6172,0 0,-10.6172 z" /><path
             id="path36"
             style="fill:#fefefe;fill-opacity:1;fill-rule:nonzero;stroke:none"
             d="M 185.113,68.1211 V 2.51953 L 44.179034,2.2660342 V 68.112765 c 0,7.0898 9.996766,7.086435 9.996766,7.086435 H 178.031 c 7.961,0 7.082,-7.0781 7.082,-7.0781"
             inkscape:connector-curvature="0"
             sodipodi:nodetypes="cccscsc" /><path
             id="path40"
             style="fill:none;stroke:#ffffff;stroke-width:3.99993992;stroke-linecap:butt;stroke-linejoin:miter;stroke-miterlimit:4;stroke-dasharray:none;stroke-opacity:1"
             d="m 222.895,0 0,68.1211 c 0,0 0.89,7.0781 -7.079,7.0781 l -161.4644,0 c 0,0 -7.9688,0.8906 -7.9688,-6.1992 l 0,-64.70312" /><path
             id="path42"
             style="fill:#000000;fill-opacity:1;fill-rule:nonzero;stroke:none"
             d="m 72.9336,7.07031 27.4336,0 0,63.7109 -27.4336,0 0,-63.7109 z" /><path
             id="path44"
             style="fill:none;stroke:#ffffff;stroke-width:3.99993992;stroke-linecap:butt;stroke-linejoin:miter;stroke-miterlimit:4;stroke-dasharray:none;stroke-opacity:1"
             d="m 72.9336,7.07031 27.4336,0 0,63.7109 -27.4336,0 0,-63.7109 z" /><path
             id="path46"
             style="fill:none;stroke:#ffffff;stroke-width:3.99993992;stroke-linecap:butt;stroke-linejoin:miter;stroke-miterlimit:4;stroke-dasharray:none;stroke-opacity:1"
             d="m 240.59,232.684 6.203,4.421" /></g></g></g></g></svg>