<?xml version="1.0" encoding="UTF-8"?>
<svg xmlns="http://www.w3.org/2000/svg" xmlns:xlink="http://www.w3.org/1999/xlink" width="46pt" height="45pt" viewBox="0 0 46 45" version="1.1">
<defs>
<linearGradient id="linear0" gradientUnits="userSpaceOnUse" x1="4679" y1="7775" x2="6616" y2="7779" >
<stop offset="0.1" style="stop-color:rgb(70.196078%,70.196078%,70.196078%);stop-opacity:1;"/>
<stop offset="1" style="stop-color:rgb(89.803922%,89.803922%,89.803922%);stop-opacity:1;"/>
</linearGradient>
<linearGradient id="linear1" gradientUnits="userSpaceOnUse" x1="7096" y1="4429" x2="7096" y2="7219" >
<stop offset="0.1" style="stop-color:rgb(70.196078%,70.196078%,70.196078%);stop-opacity:1;"/>
<stop offset="1" style="stop-color:rgb(89.803922%,89.803922%,89.803922%);stop-opacity:1;"/>
</linearGradient>
</defs>
<g id="surface1">
<path style="fill-rule:evenodd;fill:rgb(86.666667%,86.666667%,86.666667%);fill-opacity:1;stroke-width:28.222;stroke-linecap:butt;stroke-linejoin:round;stroke:rgb(86.666667%,86.666667%,86.666667%);stroke-opacity:1;stroke-miterlimit:4;" d="M 6613.822766 9394.999421 C 6878.957314 9394.999421 9896.082069 8000.059742 9896.082069 7832.982716 C 9896.082069 7665.028646 9775.042384 7497.95162 9509.907835 7497.95162 C 9509.907835 7665.028646 6613.822766 9116.09919 6613.822766 9394.999421 Z M 6613.822766 9394.999421 " transform="matrix(0.00881039,0,0,0.00890776,-41.082826,-39.274293)"/>
<path style="fill-rule:evenodd;fill:url(#linear0);stroke-width:40;stroke-linecap:butt;stroke-linejoin:round;stroke:rgb(100%,100%,100%);stroke-opacity:1;stroke-miterlimit:4;" d="M 4682.951596 8335.090837 L 4682.951596 6103.011941 L 6613.822766 7219.051389 L 6613.822766 9451.130285 Z M 4682.951596 8335.090837 " transform="matrix(0.00881039,0,0,0.00890776,-41.082826,-39.274293)"/>
<path style=" stroke:none;fill-rule:evenodd;fill:rgb(70.196078%,70.196078%,70.196078%);fill-opacity:1;" d="M 41.699219 30.589844 L 29.699219 37.601562 L 17.1875 37.601562 L 17.1875 25.03125 L 41.699219 10.707031 Z M 41.699219 30.589844 "/>
<path style=" stroke:none;fill-rule:evenodd;fill:rgb(70.588235%,70.588235%,70.588235%);fill-opacity:1;" d="M 29.699219 37.601562 L 17.1875 44.914062 L 17.1875 37.601562 Z M 41.699219 10.707031 L 42.703125 10.121094 L 42.703125 30 L 41.699219 30.589844 Z M 41.355469 30.785156 L 30.300781 37.253906 L 17.1875 37.253906 L 17.1875 25.03125 L 41.355469 10.902344 Z M 41.355469 30.785156 "/>
<path style=" stroke:none;fill-rule:evenodd;fill:rgb(70.980392%,70.980392%,70.980392%);fill-opacity:1;" d="M 30.300781 37.253906 L 17.1875 44.914062 L 17.1875 37.253906 Z M 41.355469 10.902344 L 42.703125 10.121094 L 42.703125 30 L 41.355469 30.785156 Z M 41.011719 30.988281 L 30.890625 36.90625 L 17.1875 36.90625 L 17.1875 25.03125 L 41.011719 11.109375 Z M 41.011719 30.988281 "/>
<path style=" stroke:none;fill-rule:evenodd;fill:rgb(71.372549%,71.372549%,71.372549%);fill-opacity:1;" d="M 30.890625 36.90625 L 17.1875 44.914062 L 17.1875 36.90625 Z M 41.011719 11.109375 L 42.703125 10.121094 L 42.703125 30 L 41.011719 30.988281 Z M 40.667969 31.195312 L 31.488281 36.558594 L 17.1875 36.558594 L 17.1875 25.03125 L 40.667969 11.3125 Z M 40.667969 31.195312 "/>
<path style=" stroke:none;fill-rule:evenodd;fill:rgb(71.764706%,71.764706%,71.764706%);fill-opacity:1;" d="M 31.488281 36.558594 L 17.1875 44.914062 L 17.1875 36.558594 Z M 40.667969 11.3125 L 42.703125 10.121094 L 42.703125 30 L 40.667969 31.195312 Z M 40.324219 31.390625 L 32.078125 36.210938 L 17.1875 36.210938 L 17.1875 25.03125 L 40.324219 11.507812 Z M 40.324219 31.390625 "/>
<path style=" stroke:none;fill-rule:evenodd;fill:rgb(72.156863%,72.156863%,72.156863%);fill-opacity:1;" d="M 32.078125 36.210938 L 17.1875 44.914062 L 17.1875 36.210938 Z M 40.324219 11.507812 L 42.703125 10.121094 L 42.703125 30 L 40.324219 31.390625 Z M 39.980469 31.597656 L 32.675781 35.863281 L 17.1875 35.863281 L 17.1875 25.03125 L 39.980469 11.714844 Z M 39.980469 31.597656 "/>
<path style=" stroke:none;fill-rule:evenodd;fill:rgb(72.54902%,72.54902%,72.54902%);fill-opacity:1;" d="M 32.675781 35.863281 L 17.1875 44.914062 L 17.1875 35.863281 Z M 39.980469 11.714844 L 42.703125 10.121094 L 42.703125 30 L 39.980469 31.597656 Z M 39.636719 31.792969 L 33.269531 35.515625 L 17.1875 35.515625 L 17.1875 25.03125 L 39.636719 11.910156 Z M 39.636719 31.792969 "/>
<path style=" stroke:none;fill-rule:evenodd;fill:rgb(72.941176%,72.941176%,72.941176%);fill-opacity:1;" d="M 33.269531 35.515625 L 17.1875 44.914062 L 17.1875 35.515625 Z M 39.636719 11.910156 L 42.703125 10.121094 L 42.703125 30 L 39.636719 31.792969 Z M 39.292969 31.996094 L 33.867188 35.167969 L 17.1875 35.167969 L 17.1875 25.03125 L 39.292969 12.113281 Z M 39.292969 31.996094 "/>
<path style=" stroke:none;fill-rule:evenodd;fill:rgb(73.333333%,73.333333%,73.333333%);fill-opacity:1;" d="M 33.867188 35.167969 L 17.1875 44.914062 L 17.1875 35.167969 Z M 39.292969 12.113281 L 42.703125 10.121094 L 42.703125 30 L 39.292969 31.996094 Z M 38.949219 32.191406 L 34.457031 34.820312 L 17.1875 34.820312 L 17.1875 25.03125 L 38.949219 12.308594 Z M 38.949219 32.191406 "/>
<path style=" stroke:none;fill-rule:evenodd;fill:rgb(73.72549%,73.72549%,73.72549%);fill-opacity:1;" d="M 34.457031 34.820312 L 17.1875 44.914062 L 17.1875 34.820312 Z M 38.949219 12.308594 L 42.703125 10.121094 L 42.703125 30 L 38.949219 32.191406 Z M 38.605469 32.398438 L 35.054688 34.472656 L 17.1875 34.472656 L 17.1875 25.03125 L 38.605469 12.515625 Z M 38.605469 32.398438 "/>
<path style=" stroke:none;fill-rule:evenodd;fill:rgb(74.117647%,74.117647%,74.117647%);fill-opacity:1;" d="M 35.054688 34.472656 L 17.1875 44.914062 L 17.1875 34.472656 Z M 38.605469 12.515625 L 42.703125 10.121094 L 42.703125 30 L 38.605469 32.398438 Z M 38.261719 32.59375 L 35.648438 34.125 L 17.1875 34.125 L 17.1875 25.03125 L 38.261719 12.710938 Z M 38.261719 32.59375 "/>
<path style=" stroke:none;fill-rule:evenodd;fill:rgb(74.509804%,74.509804%,74.509804%);fill-opacity:1;" d="M 35.648438 34.125 L 17.1875 44.914062 L 17.1875 34.125 Z M 38.261719 12.710938 L 42.703125 10.121094 L 42.703125 30 L 38.261719 32.59375 Z M 37.910156 32.796875 L 36.253906 33.769531 L 17.1875 33.769531 L 17.1875 25.03125 L 37.910156 12.917969 Z M 37.910156 32.796875 "/>
<path style=" stroke:none;fill-rule:evenodd;fill:rgb(74.901961%,74.901961%,74.901961%);fill-opacity:1;" d="M 36.253906 33.769531 L 17.1875 44.914062 L 17.1875 33.769531 Z M 37.910156 12.917969 L 42.703125 10.121094 L 42.703125 30 L 37.910156 32.796875 Z M 37.566406 33.003906 L 36.855469 33.421875 L 17.1875 33.421875 L 17.1875 25.03125 L 37.566406 13.121094 Z M 37.566406 33.003906 "/>
<path style=" stroke:none;fill-rule:evenodd;fill:rgb(75.294118%,75.294118%,75.294118%);fill-opacity:1;" d="M 36.855469 33.421875 L 17.1875 44.914062 L 17.1875 33.421875 Z M 37.566406 13.121094 L 42.703125 10.121094 L 42.703125 30 L 37.566406 33.003906 Z M 37.222656 33.074219 L 17.1875 33.074219 L 17.1875 25.03125 L 37.222656 13.324219 Z M 37.222656 33.074219 "/>
<path style=" stroke:none;fill-rule:evenodd;fill:rgb(75.686275%,75.686275%,75.686275%);fill-opacity:1;" d="M 37.222656 33.074219 L 37.222656 13.324219 L 42.703125 10.121094 L 42.703125 30 L 17.1875 44.914062 L 17.1875 33.074219 Z M 36.878906 32.726562 L 17.1875 32.726562 L 17.1875 25.03125 L 36.878906 13.523438 Z M 36.878906 32.726562 "/>
<path style=" stroke:none;fill-rule:evenodd;fill:rgb(76.078431%,76.078431%,76.078431%);fill-opacity:1;" d="M 36.878906 32.726562 L 36.878906 13.523438 L 42.703125 10.121094 L 42.703125 30 L 17.1875 44.914062 L 17.1875 32.726562 Z M 36.535156 32.378906 L 17.1875 32.378906 L 17.1875 25.03125 L 36.535156 13.726562 Z M 36.535156 32.378906 "/>
<path style=" stroke:none;fill-rule:evenodd;fill:rgb(76.470588%,76.470588%,76.470588%);fill-opacity:1;" d="M 36.535156 32.378906 L 36.535156 13.726562 L 42.703125 10.121094 L 42.703125 30 L 17.1875 44.914062 L 17.1875 32.378906 Z M 36.191406 32.03125 L 17.1875 32.03125 L 17.1875 25.03125 L 36.191406 13.921875 Z M 36.191406 32.03125 "/>
<path style=" stroke:none;fill-rule:evenodd;fill:rgb(76.862745%,76.862745%,76.862745%);fill-opacity:1;" d="M 36.191406 32.03125 L 36.191406 13.921875 L 42.703125 10.121094 L 42.703125 30 L 17.1875 44.914062 L 17.1875 32.03125 Z M 35.847656 31.683594 L 17.1875 31.683594 L 17.1875 25.03125 L 35.847656 14.128906 Z M 35.847656 31.683594 "/>
<path style=" stroke:none;fill-rule:evenodd;fill:rgb(77.254902%,77.254902%,77.254902%);fill-opacity:1;" d="M 35.847656 31.683594 L 35.847656 14.128906 L 42.703125 10.121094 L 42.703125 30 L 17.1875 44.914062 L 17.1875 31.683594 Z M 35.503906 31.335938 L 17.1875 31.335938 L 17.1875 25.03125 L 35.503906 14.324219 Z M 35.503906 31.335938 "/>
<path style=" stroke:none;fill-rule:evenodd;fill:rgb(77.647059%,77.647059%,77.647059%);fill-opacity:1;" d="M 35.503906 31.335938 L 35.503906 14.324219 L 42.703125 10.121094 L 42.703125 30 L 17.1875 44.914062 L 17.1875 31.335938 Z M 35.164062 30.988281 L 17.1875 30.988281 L 17.1875 25.03125 L 35.164062 14.527344 Z M 35.164062 30.988281 "/>
<path style=" stroke:none;fill-rule:evenodd;fill:rgb(78.039216%,78.039216%,78.039216%);fill-opacity:1;" d="M 35.164062 30.988281 L 35.164062 14.527344 L 42.703125 10.121094 L 42.703125 30 L 17.1875 44.914062 L 17.1875 30.988281 Z M 34.820312 30.644531 L 17.1875 30.644531 L 17.1875 25.03125 L 34.820312 14.722656 Z M 34.820312 30.644531 "/>
<path style=" stroke:none;fill-rule:evenodd;fill:rgb(78.431373%,78.431373%,78.431373%);fill-opacity:1;" d="M 34.820312 30.644531 L 34.820312 14.722656 L 42.703125 10.121094 L 42.703125 30 L 17.1875 44.914062 L 17.1875 30.644531 Z M 34.476562 30.296875 L 17.1875 30.296875 L 17.1875 25.03125 L 34.476562 14.929688 Z M 34.476562 30.296875 "/>
<path style=" stroke:none;fill-rule:evenodd;fill:rgb(78.823529%,78.823529%,78.823529%);fill-opacity:1;" d="M 34.476562 30.296875 L 34.476562 14.929688 L 42.703125 10.121094 L 42.703125 30 L 17.1875 44.914062 L 17.1875 30.296875 Z M 34.121094 29.9375 L 17.1875 29.9375 L 17.1875 25.03125 L 34.121094 15.132812 Z M 34.121094 29.9375 "/>
<path style=" stroke:none;fill-rule:evenodd;fill:rgb(79.215686%,79.215686%,79.215686%);fill-opacity:1;" d="M 34.121094 29.9375 L 34.121094 15.132812 L 42.703125 10.121094 L 42.703125 30 L 17.1875 44.914062 L 17.1875 29.9375 Z M 33.777344 29.589844 L 17.1875 29.589844 L 17.1875 25.03125 L 33.777344 15.339844 Z M 33.777344 29.589844 "/>
<path style=" stroke:none;fill-rule:evenodd;fill:rgb(79.607843%,79.607843%,79.607843%);fill-opacity:1;" d="M 33.777344 29.589844 L 33.777344 15.339844 L 42.703125 10.121094 L 42.703125 30 L 17.1875 44.914062 L 17.1875 29.589844 Z M 33.433594 29.246094 L 17.1875 29.246094 L 17.1875 25.03125 L 33.433594 15.535156 Z M 33.433594 29.246094 "/>
<path style=" stroke:none;fill-rule:evenodd;fill:rgb(80%,80%,80%);fill-opacity:1;" d="M 33.433594 29.246094 L 33.433594 15.535156 L 42.703125 10.121094 L 42.703125 30 L 17.1875 44.914062 L 17.1875 29.246094 Z M 33.09375 28.898438 L 17.1875 28.898438 L 17.1875 25.03125 L 33.09375 15.738281 Z M 33.09375 28.898438 "/>
<path style=" stroke:none;fill-rule:evenodd;fill:rgb(80.392157%,80.392157%,80.392157%);fill-opacity:1;" d="M 33.09375 28.898438 L 33.09375 15.738281 L 42.703125 10.121094 L 42.703125 30 L 17.1875 44.914062 L 17.1875 28.898438 Z M 32.75 28.550781 L 17.1875 28.550781 L 17.1875 25.03125 L 32.75 15.9375 Z M 32.75 28.550781 "/>
<path style=" stroke:none;fill-rule:evenodd;fill:rgb(80.784314%,80.784314%,80.784314%);fill-opacity:1;" d="M 32.75 28.550781 L 32.75 15.9375 L 42.703125 10.121094 L 42.703125 30 L 17.1875 44.914062 L 17.1875 28.550781 Z M 32.40625 28.203125 L 17.257812 28.203125 L 17.257812 24.984375 L 32.40625 16.140625 Z M 32.40625 28.203125 "/>
<path style=" stroke:none;fill-rule:evenodd;fill:rgb(81.176471%,81.176471%,81.176471%);fill-opacity:1;" d="M 17.257812 28.203125 L 32.40625 28.203125 L 32.40625 16.140625 L 42.703125 10.121094 L 42.703125 30 L 17.1875 44.914062 L 17.1875 25.03125 L 17.257812 24.984375 Z M 32.0625 27.855469 L 17.601562 27.855469 L 17.601562 24.789062 L 32.0625 16.335938 Z M 32.0625 27.855469 "/>
<path style=" stroke:none;fill-rule:evenodd;fill:rgb(81.568627%,81.568627%,81.568627%);fill-opacity:1;" d="M 17.601562 27.855469 L 32.0625 27.855469 L 32.0625 16.335938 L 42.703125 10.121094 L 42.703125 30 L 17.1875 44.914062 L 17.1875 25.03125 L 17.601562 24.789062 Z M 31.71875 27.507812 L 17.945312 27.507812 L 17.945312 24.585938 L 31.71875 16.542969 Z M 31.71875 27.507812 "/>
<path style=" stroke:none;fill-rule:evenodd;fill:rgb(81.960784%,81.960784%,81.960784%);fill-opacity:1;" d="M 17.945312 27.507812 L 31.71875 27.507812 L 31.71875 16.542969 L 42.703125 10.121094 L 42.703125 30 L 17.1875 44.914062 L 17.1875 25.03125 L 17.945312 24.585938 Z M 31.375 27.160156 L 18.289062 27.160156 L 18.289062 24.390625 L 31.375 16.738281 Z M 31.375 27.160156 "/>
<path style=" stroke:none;fill-rule:evenodd;fill:rgb(82.352941%,82.352941%,82.352941%);fill-opacity:1;" d="M 18.289062 27.160156 L 31.375 27.160156 L 31.375 16.738281 L 42.703125 10.121094 L 42.703125 30 L 17.1875 44.914062 L 17.1875 25.03125 L 18.289062 24.390625 Z M 31.03125 26.8125 L 18.632812 26.8125 L 18.632812 24.183594 L 31.03125 16.941406 Z M 31.03125 26.8125 "/>
<path style=" stroke:none;fill-rule:evenodd;fill:rgb(82.745098%,82.745098%,82.745098%);fill-opacity:1;" d="M 18.632812 26.8125 L 31.03125 26.8125 L 31.03125 16.941406 L 42.703125 10.121094 L 42.703125 30 L 17.1875 44.914062 L 17.1875 25.03125 L 18.632812 24.183594 Z M 30.6875 26.464844 L 18.976562 26.464844 L 18.976562 23.988281 L 30.6875 17.136719 Z M 30.6875 26.464844 "/>
<path style=" stroke:none;fill-rule:evenodd;fill:rgb(83.137255%,83.137255%,83.137255%);fill-opacity:1;" d="M 18.976562 26.464844 L 30.6875 26.464844 L 30.6875 17.136719 L 42.703125 10.121094 L 42.703125 30 L 17.1875 44.914062 L 17.1875 25.03125 L 18.976562 23.988281 Z M 30.335938 26.109375 L 19.328125 26.109375 L 19.328125 23.785156 L 30.335938 17.351562 Z M 30.335938 26.109375 "/>
<path style=" stroke:none;fill-rule:evenodd;fill:rgb(83.529412%,83.529412%,83.529412%);fill-opacity:1;" d="M 19.328125 26.109375 L 30.335938 26.109375 L 30.335938 17.351562 L 42.703125 10.121094 L 42.703125 30 L 17.1875 44.914062 L 17.1875 25.03125 L 19.328125 23.785156 Z M 29.992188 25.761719 L 19.671875 25.761719 L 19.671875 23.578125 L 29.992188 17.546875 Z M 29.992188 25.761719 "/>
<path style=" stroke:none;fill-rule:evenodd;fill:rgb(83.921569%,83.921569%,83.921569%);fill-opacity:1;" d="M 19.671875 25.761719 L 29.992188 25.761719 L 29.992188 17.546875 L 42.703125 10.121094 L 42.703125 30 L 17.1875 44.914062 L 17.1875 25.03125 L 19.671875 23.578125 Z M 29.648438 25.414062 L 20.015625 25.414062 L 20.015625 23.375 L 29.648438 17.753906 Z M 29.648438 25.414062 "/>
<path style=" stroke:none;fill-rule:evenodd;fill:rgb(84.313725%,84.313725%,84.313725%);fill-opacity:1;" d="M 20.015625 25.414062 L 29.648438 25.414062 L 29.648438 17.753906 L 42.703125 10.121094 L 42.703125 30 L 17.1875 44.914062 L 17.1875 25.03125 L 20.015625 23.375 Z M 29.304688 25.066406 L 20.359375 25.066406 L 20.359375 23.179688 L 29.304688 17.949219 Z M 29.304688 25.066406 "/>
<path style=" stroke:none;fill-rule:evenodd;fill:rgb(84.705882%,84.705882%,84.705882%);fill-opacity:1;" d="M 20.359375 25.066406 L 29.304688 25.066406 L 29.304688 17.949219 L 42.703125 10.121094 L 42.703125 30 L 17.1875 44.914062 L 17.1875 25.03125 L 20.359375 23.179688 Z M 28.960938 24.71875 L 20.703125 24.71875 L 20.703125 22.972656 L 28.960938 18.152344 Z M 28.960938 24.71875 "/>
<path style=" stroke:none;fill-rule:evenodd;fill:rgb(85.098039%,85.098039%,85.098039%);fill-opacity:1;" d="M 20.703125 24.71875 L 28.960938 24.71875 L 28.960938 18.152344 L 42.703125 10.121094 L 42.703125 30 L 17.1875 44.914062 L 17.1875 25.03125 L 20.703125 22.972656 Z M 28.617188 24.371094 L 21.046875 24.371094 L 21.046875 22.777344 L 28.617188 18.351562 Z M 28.617188 24.371094 "/>
<path style=" stroke:none;fill-rule:evenodd;fill:rgb(85.490196%,85.490196%,85.490196%);fill-opacity:1;" d="M 21.046875 24.371094 L 28.617188 24.371094 L 28.617188 18.351562 L 42.703125 10.121094 L 42.703125 30 L 17.1875 44.914062 L 17.1875 25.03125 L 21.046875 22.777344 Z M 28.273438 24.023438 L 21.390625 24.023438 L 21.390625 22.570312 L 28.273438 18.554688 Z M 28.273438 24.023438 "/>
<path style=" stroke:none;fill-rule:evenodd;fill:rgb(85.882353%,85.882353%,85.882353%);fill-opacity:1;" d="M 21.390625 24.023438 L 28.273438 24.023438 L 28.273438 18.554688 L 42.703125 10.121094 L 42.703125 30 L 17.1875 44.914062 L 17.1875 25.03125 L 21.390625 22.570312 Z M 27.929688 23.675781 L 21.734375 23.675781 L 21.734375 22.375 L 27.929688 18.75 Z M 27.929688 23.675781 "/>
<path style=" stroke:none;fill-rule:evenodd;fill:rgb(86.27451%,86.27451%,86.27451%);fill-opacity:1;" d="M 21.734375 23.675781 L 27.929688 23.675781 L 27.929688 18.75 L 42.703125 10.121094 L 42.703125 30 L 17.1875 44.914062 L 17.1875 25.03125 L 21.734375 22.375 Z M 27.585938 23.328125 L 22.078125 23.328125 L 22.078125 22.171875 L 27.585938 18.957031 Z M 27.585938 23.328125 "/>
<path style=" stroke:none;fill-rule:evenodd;fill:rgb(86.666667%,86.666667%,86.666667%);fill-opacity:1;" d="M 22.078125 23.328125 L 27.585938 23.328125 L 27.585938 18.957031 L 42.703125 10.121094 L 42.703125 30 L 17.1875 44.914062 L 17.1875 25.03125 L 22.078125 22.171875 Z M 27.242188 22.980469 L 22.421875 22.980469 L 22.421875 21.976562 L 27.242188 19.152344 Z M 27.242188 22.980469 "/>
<path style=" stroke:none;fill-rule:evenodd;fill:rgb(87.058824%,87.058824%,87.058824%);fill-opacity:1;" d="M 22.421875 22.980469 L 27.242188 22.980469 L 27.242188 19.152344 L 42.703125 10.121094 L 42.703125 30 L 17.1875 44.914062 L 17.1875 25.03125 L 22.421875 21.976562 Z M 26.898438 22.632812 L 22.765625 22.632812 L 22.765625 21.769531 L 26.898438 19.355469 Z M 26.898438 22.632812 "/>
<path style=" stroke:none;fill-rule:evenodd;fill:rgb(87.45098%,87.45098%,87.45098%);fill-opacity:1;" d="M 22.765625 22.632812 L 26.898438 22.632812 L 26.898438 19.355469 L 42.703125 10.121094 L 42.703125 30 L 17.1875 44.914062 L 17.1875 25.03125 L 22.765625 21.769531 Z M 26.546875 22.277344 L 23.117188 22.277344 L 23.117188 21.566406 L 26.546875 19.5625 Z M 26.546875 22.277344 "/>
<path style=" stroke:none;fill-rule:evenodd;fill:rgb(87.843137%,87.843137%,87.843137%);fill-opacity:1;" d="M 23.117188 22.277344 L 26.546875 22.277344 L 26.546875 19.5625 L 42.703125 10.121094 L 42.703125 30 L 17.1875 44.914062 L 17.1875 25.03125 L 23.117188 21.566406 Z M 26.203125 21.929688 L 23.460938 21.929688 L 23.460938 21.359375 L 26.203125 19.765625 Z M 26.203125 21.929688 "/>
<path style=" stroke:none;fill-rule:evenodd;fill:rgb(88.235294%,88.235294%,88.235294%);fill-opacity:1;" d="M 23.460938 21.929688 L 26.203125 21.929688 L 26.203125 19.765625 L 42.703125 10.121094 L 42.703125 30 L 17.1875 44.914062 L 17.1875 25.03125 L 23.460938 21.359375 Z M 25.859375 21.582031 L 23.804688 21.582031 L 23.804688 21.164062 L 25.859375 19.960938 Z M 25.859375 21.582031 "/>
<path style=" stroke:none;fill-rule:evenodd;fill:rgb(88.627451%,88.627451%,88.627451%);fill-opacity:1;" d="M 23.804688 21.582031 L 25.859375 21.582031 L 25.859375 19.960938 L 42.703125 10.121094 L 42.703125 30 L 17.1875 44.914062 L 17.1875 25.03125 L 23.804688 21.164062 Z M 25.515625 21.234375 L 24.148438 21.234375 L 24.148438 20.960938 L 25.515625 20.167969 Z M 25.515625 21.234375 "/>
<path style=" stroke:none;fill-rule:evenodd;fill:rgb(89.019608%,89.019608%,89.019608%);fill-opacity:1;" d="M 24.148438 21.234375 L 25.515625 21.234375 L 25.515625 20.167969 L 42.703125 10.121094 L 42.703125 30 L 17.1875 44.914062 L 17.1875 25.03125 L 24.148438 20.960938 Z M 25.171875 20.890625 L 24.492188 20.890625 L 24.492188 20.765625 L 25.171875 20.363281 Z M 25.171875 20.890625 "/>
<path style=" stroke:none;fill-rule:evenodd;fill:rgb(89.803922%,89.803922%,89.803922%);fill-opacity:1;" d="M 24.492188 20.890625 L 25.171875 20.890625 L 25.171875 20.363281 L 42.703125 10.121094 L 42.703125 30 L 17.1875 44.914062 L 17.1875 25.03125 L 24.492188 20.765625 Z M 24.492188 20.890625 "/>
<path style="fill:none;stroke-width:40;stroke-linecap:butt;stroke-linejoin:round;stroke:rgb(100%,100%,100%);stroke-opacity:1;stroke-miterlimit:4;" d="M 6613.822766 9451.130285 L 6613.822766 7219.051389 L 9509.907835 5545.211478 L 9509.907835 7776.851852 Z M 6613.822766 9451.130285 " transform="matrix(0.00881039,0,0,0.00890776,-41.082826,-39.274293)"/>
<path style="fill-rule:evenodd;fill:url(#linear1);stroke-width:40;stroke-linecap:butt;stroke-linejoin:round;stroke:rgb(100%,100%,100%);stroke-opacity:1;stroke-miterlimit:4;" d="M 6613.822766 7219.051389 L 4682.951596 6103.011941 L 7579.036666 4429.172029 L 9509.907835 5545.211478 Z M 6613.822766 7219.051389 " transform="matrix(0.00881039,0,0,0.00890776,-41.082826,-39.274293)"/>
<path style="fill:none;stroke-width:40;stroke-linecap:butt;stroke-linejoin:round;stroke:rgb(0%,0%,0%);stroke-opacity:1;stroke-miterlimit:4;" d="M 4682.951596 8335.090837 L 4682.951596 6103.011941 L 7579.036666 4429.172029 L 9509.907835 5545.211478 L 9509.907835 7776.851852 L 6613.822766 9451.130285 Z M 4682.951596 8335.090837 " transform="matrix(0.00881039,0,0,0.00890776,-41.082826,-39.274293)"/>
<path style="fill-rule:evenodd;fill:rgb(22.352941%,70.980392%,29.019608%);fill-opacity:1;stroke-width:40;stroke-linecap:butt;stroke-linejoin:round;stroke:rgb(49.803922%,49.803922%,49.803922%);stroke-opacity:1;stroke-miterlimit:4;" d="M 6034.783099 7386.128414 L 6034.783099 7219.051389 L 6131.880869 7275.182253 L 6131.880869 7441.820756 Z M 6034.783099 7386.128414 " transform="matrix(0.00881039,0,0,0.00890776,-41.082826,-39.274293)"/>
<path style="fill-rule:evenodd;fill:rgb(49.803922%,49.803922%,49.803922%);fill-opacity:1;stroke-width:40;stroke-linecap:butt;stroke-linejoin:round;stroke:rgb(0%,0%,0%);stroke-opacity:1;stroke-miterlimit:4;" d="M 6228.091901 7497.95162 L 6228.091901 7219.051389 L 6420.957333 7330.874595 L 6420.957333 7610.213349 Z M 6228.091901 7497.95162 " transform="matrix(0.00881039,0,0,0.00890776,-41.082826,-39.274293)"/>
<path style="fill:none;stroke-width:40;stroke-linecap:butt;stroke-linejoin:round;stroke:rgb(49.803922%,49.803922%,49.803922%);stroke-opacity:1;stroke-miterlimit:4;" d="M 8640.904967 7106.78966 L 9412.810066 6660.812404 " transform="matrix(0.00881039,0,0,0.00890776,-41.082826,-39.274293)"/>
<path style="fill:none;stroke-width:40;stroke-linecap:butt;stroke-linejoin:round;stroke:rgb(100%,100%,100%);stroke-opacity:1;stroke-miterlimit:4;" d="M 5841.030929 8781.945139 L 5648.165497 8670.121933 " transform="matrix(0.00881039,0,0,0.00890776,-41.082826,-39.274293)"/>
<path style="fill:none;stroke-width:40;stroke-linecap:butt;stroke-linejoin:round;stroke:rgb(100%,100%,100%);stroke-opacity:1;stroke-miterlimit:4;" d="M 5648.165497 7497.95162 L 5648.165497 8670.121933 " transform="matrix(0.00881039,0,0,0.00890776,-41.082826,-39.274293)"/>
<path style="fill:none;stroke-width:40;stroke-linecap:butt;stroke-linejoin:round;stroke:rgb(40%,40%,40%);stroke-opacity:1;stroke-miterlimit:4;" d="M 5841.030929 7610.213349 L 5841.030929 8781.945139 " transform="matrix(0.00881039,0,0,0.00890776,-41.082826,-39.274293)"/>
<path style="fill:none;stroke-width:40;stroke-linecap:butt;stroke-linejoin:round;stroke:rgb(40%,40%,40%);stroke-opacity:1;stroke-miterlimit:4;" d="M 5841.030929 7610.213349 L 5648.165497 7497.95162 " transform="matrix(0.00881039,0,0,0.00890776,-41.082826,-39.274293)"/>
<path style="fill:none;stroke-width:40;stroke-linecap:butt;stroke-linejoin:round;stroke:rgb(100%,100%,100%);stroke-opacity:1;stroke-miterlimit:4;" d="M 4972.914798 8279.837018 L 4780.049366 8168.013812 " transform="matrix(0.00881039,0,0,0.00890776,-41.082826,-39.274293)"/>
<path style="fill:none;stroke-width:40;stroke-linecap:butt;stroke-linejoin:round;stroke:rgb(100%,100%,100%);stroke-opacity:1;stroke-miterlimit:4;" d="M 4780.049366 6995.843499 L 4780.049366 8168.013812 " transform="matrix(0.00881039,0,0,0.00890776,-41.082826,-39.274293)"/>
<path style="fill:none;stroke-width:40;stroke-linecap:butt;stroke-linejoin:round;stroke:rgb(40%,40%,40%);stroke-opacity:1;stroke-miterlimit:4;" d="M 4972.914798 7108.105228 L 4972.914798 8279.837018 " transform="matrix(0.00881039,0,0,0.00890776,-41.082826,-39.274293)"/>
<path style="fill:none;stroke-width:40;stroke-linecap:butt;stroke-linejoin:round;stroke:rgb(40%,40%,40%);stroke-opacity:1;stroke-miterlimit:4;" d="M 4972.914798 7108.105228 L 4780.049366 6995.843499 " transform="matrix(0.00881039,0,0,0.00890776,-41.082826,-39.274293)"/>
<path style="fill:none;stroke-width:40;stroke-linecap:butt;stroke-linejoin:round;stroke:rgb(100%,100%,100%);stroke-opacity:1;stroke-miterlimit:4;" d="M 5261.991263 8446.914043 L 5069.12583 8335.090837 " transform="matrix(0.00881039,0,0,0.00890776,-41.082826,-39.274293)"/>
<path style="fill:none;stroke-width:40;stroke-linecap:butt;stroke-linejoin:round;stroke:rgb(100%,100%,100%);stroke-opacity:1;stroke-miterlimit:4;" d="M 5069.12583 7162.920525 L 5069.12583 8335.090837 " transform="matrix(0.00881039,0,0,0.00890776,-41.082826,-39.274293)"/>
<path style="fill:none;stroke-width:40;stroke-linecap:butt;stroke-linejoin:round;stroke:rgb(40%,40%,40%);stroke-opacity:1;stroke-miterlimit:4;" d="M 5261.991263 7275.182253 L 5261.991263 8446.914043 " transform="matrix(0.00881039,0,0,0.00890776,-41.082826,-39.274293)"/>
<path style="fill:none;stroke-width:40;stroke-linecap:butt;stroke-linejoin:round;stroke:rgb(40%,40%,40%);stroke-opacity:1;stroke-miterlimit:4;" d="M 5261.991263 7275.182253 L 5069.12583 7162.920525 " transform="matrix(0.00881039,0,0,0.00890776,-41.082826,-39.274293)"/>
<path style="fill:none;stroke-width:40;stroke-linecap:butt;stroke-linejoin:round;stroke:rgb(100%,100%,100%);stroke-opacity:1;stroke-miterlimit:4;" d="M 5551.954465 8614.868113 L 5359.089032 8503.044907 " transform="matrix(0.00881039,0,0,0.00890776,-41.082826,-39.274293)"/>
<path style="fill:none;stroke-width:40;stroke-linecap:butt;stroke-linejoin:round;stroke:rgb(100%,100%,100%);stroke-opacity:1;stroke-miterlimit:4;" d="M 5359.089032 7330.874595 L 5359.089032 8503.044907 " transform="matrix(0.00881039,0,0,0.00890776,-41.082826,-39.274293)"/>
<path style="fill:none;stroke-width:40;stroke-linecap:butt;stroke-linejoin:round;stroke:rgb(40%,40%,40%);stroke-opacity:1;stroke-miterlimit:4;" d="M 5551.954465 7441.820756 L 5551.954465 8613.991069 " transform="matrix(0.00881039,0,0,0.00890776,-41.082826,-39.274293)"/>
<path style="fill:none;stroke-width:40;stroke-linecap:butt;stroke-linejoin:round;stroke:rgb(40%,40%,40%);stroke-opacity:1;stroke-miterlimit:4;" d="M 5551.954465 7443.136323 L 5359.089032 7330.874595 " transform="matrix(0.00881039,0,0,0.00890776,-41.082826,-39.274293)"/>
<path style="fill:none;stroke-width:40;stroke-linecap:butt;stroke-linejoin:round;stroke:rgb(100%,100%,100%);stroke-opacity:1;stroke-miterlimit:4;" d="M 6130.994131 8949.022164 L 5938.128699 8837.198958 " transform="matrix(0.00881039,0,0,0.00890776,-41.082826,-39.274293)"/>
<path style="fill:none;stroke-width:40;stroke-linecap:butt;stroke-linejoin:round;stroke:rgb(100%,100%,100%);stroke-opacity:1;stroke-miterlimit:4;" d="M 5938.128699 7665.905691 L 5938.128699 8838.076003 " transform="matrix(0.00881039,0,0,0.00890776,-41.082826,-39.274293)"/>
<path style="fill:none;stroke-width:40;stroke-linecap:butt;stroke-linejoin:round;stroke:rgb(40%,40%,40%);stroke-opacity:1;stroke-miterlimit:4;" d="M 6130.994131 7776.851852 L 6130.994131 8949.022164 " transform="matrix(0.00881039,0,0,0.00890776,-41.082826,-39.274293)"/>
<path style="fill:none;stroke-width:40;stroke-linecap:butt;stroke-linejoin:round;stroke:rgb(40%,40%,40%);stroke-opacity:1;stroke-miterlimit:4;" d="M 6130.994131 7778.167419 L 5938.128699 7665.905691 " transform="matrix(0.00881039,0,0,0.00890776,-41.082826,-39.274293)"/>
<path style="fill:none;stroke-width:40;stroke-linecap:butt;stroke-linejoin:round;stroke:rgb(100%,100%,100%);stroke-opacity:1;stroke-miterlimit:4;" d="M 6420.957333 9116.976235 L 6228.091901 9005.153029 " transform="matrix(0.00881039,0,0,0.00890776,-41.082826,-39.274293)"/>
<path style="fill:none;stroke-width:40;stroke-linecap:butt;stroke-linejoin:round;stroke:rgb(100%,100%,100%);stroke-opacity:1;stroke-miterlimit:4;" d="M 6228.091901 7832.982716 L 6228.091901 9005.153029 " transform="matrix(0.00881039,0,0,0.00890776,-41.082826,-39.274293)"/>
<path style="fill:none;stroke-width:40;stroke-linecap:butt;stroke-linejoin:round;stroke:rgb(40%,40%,40%);stroke-opacity:1;stroke-miterlimit:4;" d="M 6420.957333 7944.805922 L 6420.957333 9116.976235 " transform="matrix(0.00881039,0,0,0.00890776,-41.082826,-39.274293)"/>
<path style="fill:none;stroke-width:40;stroke-linecap:butt;stroke-linejoin:round;stroke:rgb(40%,40%,40%);stroke-opacity:1;stroke-miterlimit:4;" d="M 6420.957333 7944.805922 L 6228.091901 7832.982716 " transform="matrix(0.00881039,0,0,0.00890776,-41.082826,-39.274293)"/>
<path style="fill:none;stroke-width:40;stroke-linecap:butt;stroke-linejoin:round;stroke:rgb(49.803922%,49.803922%,49.803922%);stroke-opacity:1;stroke-miterlimit:4;" d="M 8640.904967 7219.051389 L 9412.810066 6773.074132 " transform="matrix(0.00881039,0,0,0.00890776,-41.082826,-39.274293)"/>
<path style="fill:none;stroke-width:40;stroke-linecap:butt;stroke-linejoin:round;stroke:rgb(49.803922%,49.803922%,49.803922%);stroke-opacity:1;stroke-miterlimit:4;" d="M 8640.904967 7329.99755 L 9412.810066 6884.020293 " transform="matrix(0.00881039,0,0,0.00890776,-41.082826,-39.274293)"/>
<path style="fill:none;stroke-width:40;stroke-linecap:butt;stroke-linejoin:round;stroke:rgb(49.803922%,49.803922%,49.803922%);stroke-opacity:1;stroke-miterlimit:4;" d="M 8640.904967 7441.820756 L 9412.810066 6995.843499 " transform="matrix(0.00881039,0,0,0.00890776,-41.082826,-39.274293)"/>
<path style="fill:none;stroke-width:40;stroke-linecap:butt;stroke-linejoin:round;stroke:rgb(49.803922%,49.803922%,49.803922%);stroke-opacity:1;stroke-miterlimit:4;" d="M 8640.904967 7554.082485 L 9412.810066 7108.105228 " transform="matrix(0.00881039,0,0,0.00890776,-41.082826,-39.274293)"/>
<path style="fill:none;stroke-width:40;stroke-linecap:butt;stroke-linejoin:round;stroke:rgb(49.803922%,49.803922%,49.803922%);stroke-opacity:1;stroke-miterlimit:4;" d="M 8640.904967 7665.028646 L 9412.810066 7219.051389 " transform="matrix(0.00881039,0,0,0.00890776,-41.082826,-39.274293)"/>
<path style="fill:none;stroke-width:40;stroke-linecap:butt;stroke-linejoin:round;stroke:rgb(49.803922%,49.803922%,49.803922%);stroke-opacity:1;stroke-miterlimit:4;" d="M 8640.904967 7776.851852 L 9412.810066 7330.874595 " transform="matrix(0.00881039,0,0,0.00890776,-41.082826,-39.274293)"/>
<path style="fill:none;stroke-width:40;stroke-linecap:butt;stroke-linejoin:round;stroke:rgb(49.803922%,49.803922%,49.803922%);stroke-opacity:1;stroke-miterlimit:4;" d="M 8640.904967 7887.798013 L 9412.810066 7441.820756 " transform="matrix(0.00881039,0,0,0.00890776,-41.082826,-39.274293)"/>
<path style="fill:none;stroke-width:40;stroke-linecap:butt;stroke-linejoin:round;stroke:rgb(49.803922%,49.803922%,49.803922%);stroke-opacity:1;stroke-miterlimit:4;" d="M 8640.904967 8000.059742 L 9412.810066 7554.082485 " transform="matrix(0.00881039,0,0,0.00890776,-41.082826,-39.274293)"/>
<path style="fill:none;stroke-width:40;stroke-linecap:butt;stroke-linejoin:round;stroke:rgb(49.803922%,49.803922%,49.803922%);stroke-opacity:1;stroke-miterlimit:4;" d="M 8640.904967 8111.882948 L 9412.810066 7665.905691 " transform="matrix(0.00881039,0,0,0.00890776,-41.082826,-39.274293)"/>
</g>
</svg>
