<?xml version="1.0" encoding="UTF-8"?>
<svg xmlns="http://www.w3.org/2000/svg" xmlns:xlink="http://www.w3.org/1999/xlink" width="62pt" height="43pt" viewBox="0 0 62 43" version="1.1">
<defs>
<linearGradient id="linear0" gradientUnits="userSpaceOnUse" x1="5087" y1="8068" x2="8452" y2="8074" >
<stop offset="0.1" style="stop-color:rgb(70.196078%,70.196078%,70.196078%);stop-opacity:1;"/>
<stop offset="1" style="stop-color:rgb(89.803922%,89.803922%,89.803922%);stop-opacity:1;"/>
</linearGradient>
<linearGradient id="linear1" gradientUnits="userSpaceOnUse" x1="8210" y1="4882" x2="8210" y2="8488" >
<stop offset="0.1" style="stop-color:rgb(70.196078%,70.196078%,70.196078%);stop-opacity:1;"/>
<stop offset="1" style="stop-color:rgb(89.803922%,89.803922%,89.803922%);stop-opacity:1;"/>
</linearGradient>
<linearGradient id="linear2" gradientUnits="userSpaceOnUse" x1="4898" y1="7045" x2="5092" y2="7045" >
<stop offset="0.1" style="stop-color:rgb(70.196078%,70.196078%,70.196078%);stop-opacity:1;"/>
<stop offset="1" style="stop-color:rgb(89.803922%,89.803922%,89.803922%);stop-opacity:1;"/>
</linearGradient>
<linearGradient id="linear3" gradientUnits="userSpaceOnUse" x1="8449" y1="9098" x2="8643" y2="9098" >
<stop offset="0.1" style="stop-color:rgb(70.196078%,70.196078%,70.196078%);stop-opacity:1;"/>
<stop offset="1" style="stop-color:rgb(89.803922%,89.803922%,89.803922%);stop-opacity:1;"/>
</linearGradient>
<linearGradient id="linear4" gradientUnits="userSpaceOnUse" x1="9504" y1="8738" x2="10439" y2="8740" gradientTransform="matrix(0.00893029,0,0,0.00885827,-43.570866,-43.068898)">
<stop offset="0" style="stop-color:rgb(76.470588%,90.980392%,78.431373%);stop-opacity:1;"/>
<stop offset="0.5" style="stop-color:rgb(92.156863%,96.862745%,92.54902%);stop-opacity:1;"/>
<stop offset="1" style="stop-color:rgb(76.470588%,90.980392%,78.431373%);stop-opacity:1;"/>
</linearGradient>
<linearGradient id="linear5" gradientUnits="userSpaceOnUse" x1="9505" y1="8373" x2="10438" y2="8375" gradientTransform="matrix(0.00893029,0,0,0.00885827,-43.570866,-43.068898)">
<stop offset="0" style="stop-color:rgb(76.470588%,90.980392%,78.431373%);stop-opacity:1;"/>
<stop offset="0.5" style="stop-color:rgb(92.156863%,96.862745%,92.54902%);stop-opacity:1;"/>
<stop offset="1" style="stop-color:rgb(76.470588%,90.980392%,78.431373%);stop-opacity:1;"/>
</linearGradient>
<linearGradient id="linear6" gradientUnits="userSpaceOnUse" x1="9972" y1="8048" x2="9972" y2="8485" gradientTransform="matrix(0.00893029,0,0,0.00885827,-43.570866,-43.068898)">
<stop offset="0.1" style="stop-color:rgb(76.470588%,90.980392%,78.431373%);stop-opacity:1;"/>
<stop offset="1" style="stop-color:rgb(92.156863%,96.862745%,92.54902%);stop-opacity:1;"/>
</linearGradient>
</defs>
<g id="surface1">
<path style="fill-rule:evenodd;fill:rgb(86.666667%,86.666667%,86.666667%);fill-opacity:1;stroke-width:28.222;stroke-linecap:butt;stroke-linejoin:round;stroke:rgb(86.666667%,86.666667%,86.666667%);stroke-opacity:1;stroke-miterlimit:4;" d="M 8642.964634 9709.166667 C 8905.851647 9709.166667 11809.856435 8432.993056 11809.856435 8044.055556 C 11809.856435 7656 11402.184728 7656 11137.985467 7656 C 11137.985467 7821.805556 8547.170531 8488.114583 8642.964634 9709.166667 Z M 8642.964634 9709.166667 " transform="matrix(0.00893029,0,0,0.00885827,-43.570866,-43.068898)"/>
<path style="fill-rule:evenodd;fill:url(#linear0);stroke-width:40;stroke-linecap:butt;stroke-linejoin:round;stroke:rgb(100%,100%,100%);stroke-opacity:1;stroke-miterlimit:4;" d="M 5091.146757 7656 L 5091.146757 6546.072917 L 8450.06418 8488.114583 L 8450.06418 9597.159722 Z M 5091.146757 7656 " transform="matrix(0.00893029,0,0,0.00885827,-43.570866,-43.068898)"/>
<path style=" stroke:none;fill-rule:evenodd;fill:rgb(70.196078%,70.196078%,70.196078%);fill-opacity:1;" d="M 52.199219 30.3125 L 40.097656 37.25 L 31.890625 37.25 L 31.890625 32.121094 L 52.199219 20.480469 Z M 52.199219 30.3125 "/>
<path style=" stroke:none;fill-rule:evenodd;fill:rgb(70.588235%,70.588235%,70.588235%);fill-opacity:1;" d="M 40.097656 37.25 L 31.890625 41.953125 L 31.890625 37.25 Z M 52.199219 20.480469 L 57.601562 17.378906 L 57.601562 27.210938 L 52.199219 30.3125 Z M 51.9375 30.453125 L 40.542969 36.992188 L 31.890625 36.992188 L 31.890625 32.121094 L 51.9375 20.621094 Z M 51.9375 30.453125 "/>
<path style=" stroke:none;fill-rule:evenodd;fill:rgb(70.980392%,70.980392%,70.980392%);fill-opacity:1;" d="M 40.542969 36.992188 L 31.890625 41.953125 L 31.890625 36.992188 Z M 51.9375 20.621094 L 57.601562 17.378906 L 57.601562 27.210938 L 51.9375 30.453125 Z M 51.679688 30.605469 L 40.988281 36.734375 L 31.890625 36.734375 L 31.890625 32.121094 L 51.679688 20.773438 Z M 51.679688 30.605469 "/>
<path style=" stroke:none;fill-rule:evenodd;fill:rgb(71.372549%,71.372549%,71.372549%);fill-opacity:1;" d="M 40.988281 36.734375 L 31.890625 41.953125 L 31.890625 36.734375 Z M 51.679688 20.773438 L 57.601562 17.378906 L 57.601562 27.210938 L 51.679688 30.605469 Z M 51.421875 30.757812 L 41.4375 36.476562 L 31.890625 36.476562 L 31.890625 32.121094 L 51.421875 20.921875 Z M 51.421875 30.757812 "/>
<path style=" stroke:none;fill-rule:evenodd;fill:rgb(71.764706%,71.764706%,71.764706%);fill-opacity:1;" d="M 41.4375 36.476562 L 31.890625 41.953125 L 31.890625 36.476562 Z M 51.421875 20.921875 L 57.601562 17.378906 L 57.601562 27.210938 L 51.421875 30.757812 Z M 51.160156 30.90625 L 41.882812 36.222656 L 31.890625 36.222656 L 31.890625 32.121094 L 51.160156 21.074219 Z M 51.160156 30.90625 "/>
<path style=" stroke:none;fill-rule:evenodd;fill:rgb(72.156863%,72.156863%,72.156863%);fill-opacity:1;" d="M 41.882812 36.222656 L 31.890625 41.953125 L 31.890625 36.222656 Z M 51.160156 21.074219 L 57.601562 17.378906 L 57.601562 27.210938 L 51.160156 30.90625 Z M 50.910156 31.046875 L 42.320312 35.972656 L 31.890625 35.972656 L 31.890625 32.121094 L 50.910156 21.214844 Z M 50.910156 31.046875 "/>
<path style=" stroke:none;fill-rule:evenodd;fill:rgb(72.54902%,72.54902%,72.54902%);fill-opacity:1;" d="M 42.320312 35.972656 L 31.890625 41.953125 L 31.890625 35.972656 Z M 50.910156 21.214844 L 57.601562 17.378906 L 57.601562 27.210938 L 50.910156 31.046875 Z M 50.652344 31.199219 L 42.765625 35.714844 L 31.890625 35.714844 L 31.890625 32.121094 L 50.652344 21.367188 Z M 50.652344 31.199219 "/>
<path style=" stroke:none;fill-rule:evenodd;fill:rgb(72.941176%,72.941176%,72.941176%);fill-opacity:1;" d="M 42.765625 35.714844 L 31.890625 41.953125 L 31.890625 35.714844 Z M 50.652344 21.367188 L 57.601562 17.378906 L 57.601562 27.210938 L 50.652344 31.199219 Z M 50.394531 31.339844 L 43.214844 35.460938 L 31.890625 35.460938 L 31.890625 32.121094 L 50.394531 21.507812 Z M 50.394531 31.339844 "/>
<path style=" stroke:none;fill-rule:evenodd;fill:rgb(73.333333%,73.333333%,73.333333%);fill-opacity:1;" d="M 43.214844 35.460938 L 31.890625 41.953125 L 31.890625 35.460938 Z M 50.394531 21.507812 L 57.601562 17.378906 L 57.601562 27.210938 L 50.394531 31.339844 Z M 50.132812 31.492188 L 43.660156 35.203125 L 31.890625 35.203125 L 31.890625 32.121094 L 50.132812 21.660156 Z M 50.132812 31.492188 "/>
<path style=" stroke:none;fill-rule:evenodd;fill:rgb(73.72549%,73.72549%,73.72549%);fill-opacity:1;" d="M 43.660156 35.203125 L 31.890625 41.953125 L 31.890625 35.203125 Z M 50.132812 21.660156 L 57.601562 17.378906 L 57.601562 27.210938 L 50.132812 31.492188 Z M 49.875 31.640625 L 44.117188 34.945312 L 31.890625 34.945312 L 31.890625 32.121094 L 49.875 21.808594 Z M 49.875 31.640625 "/>
<path style=" stroke:none;fill-rule:evenodd;fill:rgb(74.117647%,74.117647%,74.117647%);fill-opacity:1;" d="M 44.117188 34.945312 L 31.890625 41.953125 L 31.890625 34.945312 Z M 49.875 21.808594 L 57.601562 17.378906 L 57.601562 27.210938 L 49.875 31.640625 Z M 49.617188 31.792969 L 44.5625 34.6875 L 31.890625 34.6875 L 31.890625 32.121094 L 49.617188 21.960938 Z M 49.617188 31.792969 "/>
<path style=" stroke:none;fill-rule:evenodd;fill:rgb(74.509804%,74.509804%,74.509804%);fill-opacity:1;" d="M 44.5625 34.6875 L 31.890625 41.953125 L 31.890625 34.6875 Z M 49.617188 21.960938 L 57.601562 17.378906 L 57.601562 27.210938 L 49.617188 31.792969 Z M 49.367188 31.933594 L 44.992188 34.441406 L 31.890625 34.441406 L 31.890625 32.121094 L 49.367188 22.101562 Z M 49.367188 31.933594 "/>
<path style=" stroke:none;fill-rule:evenodd;fill:rgb(74.901961%,74.901961%,74.901961%);fill-opacity:1;" d="M 44.992188 34.441406 L 31.890625 41.953125 L 31.890625 34.441406 Z M 49.367188 22.101562 L 57.601562 17.378906 L 57.601562 27.210938 L 49.367188 31.933594 Z M 49.109375 32.085938 L 45.4375 34.183594 L 31.890625 34.183594 L 31.890625 32.121094 L 49.109375 22.253906 Z M 49.109375 32.085938 "/>
<path style=" stroke:none;fill-rule:evenodd;fill:rgb(75.294118%,75.294118%,75.294118%);fill-opacity:1;" d="M 45.4375 34.183594 L 31.890625 41.953125 L 31.890625 34.183594 Z M 49.109375 22.253906 L 57.601562 17.378906 L 57.601562 27.210938 L 49.109375 32.085938 Z M 48.847656 32.226562 L 45.894531 33.925781 L 31.890625 33.925781 L 31.890625 32.121094 L 48.847656 22.394531 Z M 48.847656 32.226562 "/>
<path style=" stroke:none;fill-rule:evenodd;fill:rgb(75.686275%,75.686275%,75.686275%);fill-opacity:1;" d="M 45.894531 33.925781 L 31.890625 41.953125 L 31.890625 33.925781 Z M 48.847656 22.394531 L 57.601562 17.378906 L 57.601562 27.210938 L 48.847656 32.226562 Z M 48.589844 32.378906 L 46.339844 33.671875 L 31.890625 33.671875 L 31.890625 32.121094 L 48.589844 22.542969 Z M 48.589844 32.378906 "/>
<path style=" stroke:none;fill-rule:evenodd;fill:rgb(76.078431%,76.078431%,76.078431%);fill-opacity:1;" d="M 46.339844 33.671875 L 31.890625 41.953125 L 31.890625 33.671875 Z M 48.589844 22.542969 L 57.601562 17.378906 L 57.601562 27.210938 L 48.589844 32.378906 Z M 48.332031 32.527344 L 46.785156 33.414062 L 31.890625 33.414062 L 31.890625 32.121094 L 48.332031 22.695312 Z M 48.332031 32.527344 "/>
<path style=" stroke:none;fill-rule:evenodd;fill:rgb(76.470588%,76.470588%,76.470588%);fill-opacity:1;" d="M 46.785156 33.414062 L 31.890625 41.953125 L 31.890625 33.414062 Z M 48.332031 22.695312 L 57.601562 17.378906 L 57.601562 27.210938 L 48.332031 32.527344 Z M 48.082031 32.667969 L 47.214844 33.164062 L 31.890625 33.164062 L 31.890625 32.121094 L 48.082031 22.835938 Z M 48.082031 32.667969 "/>
<path style=" stroke:none;fill-rule:evenodd;fill:rgb(76.862745%,76.862745%,76.862745%);fill-opacity:1;" d="M 47.214844 33.164062 L 31.890625 41.953125 L 31.890625 33.164062 Z M 48.082031 22.835938 L 57.601562 17.378906 L 57.601562 27.210938 L 48.082031 32.667969 Z M 47.820312 32.820312 L 47.667969 32.910156 L 31.890625 32.910156 L 31.890625 32.121094 L 47.820312 22.988281 Z M 47.820312 32.820312 "/>
<path style=" stroke:none;fill-rule:evenodd;fill:rgb(77.254902%,77.254902%,77.254902%);fill-opacity:1;" d="M 47.667969 32.910156 L 31.890625 41.953125 L 31.890625 32.910156 Z M 47.820312 22.988281 L 57.601562 17.378906 L 57.601562 27.210938 L 47.820312 32.820312 Z M 47.5625 32.652344 L 31.890625 32.652344 L 31.890625 32.121094 L 47.5625 23.136719 Z M 47.5625 32.652344 "/>
<path style=" stroke:none;fill-rule:evenodd;fill:rgb(77.647059%,77.647059%,77.647059%);fill-opacity:1;" d="M 47.5625 32.652344 L 47.5625 23.136719 L 57.601562 17.378906 L 57.601562 27.210938 L 31.890625 41.953125 L 31.890625 32.652344 Z M 47.304688 32.394531 L 31.890625 32.394531 L 31.890625 32.121094 L 47.304688 23.28125 Z M 47.304688 32.394531 "/>
<path style=" stroke:none;fill-rule:evenodd;fill:rgb(78.039216%,78.039216%,78.039216%);fill-opacity:1;" d="M 47.304688 32.394531 L 47.304688 23.28125 L 57.601562 17.378906 L 57.601562 27.210938 L 31.890625 41.953125 L 31.890625 32.394531 Z M 47.042969 32.136719 L 32.132812 32.136719 L 32.132812 31.976562 L 47.042969 23.429688 Z M 47.042969 32.136719 "/>
<path style=" stroke:none;fill-rule:evenodd;fill:rgb(78.431373%,78.431373%,78.431373%);fill-opacity:1;" d="M 32.132812 32.136719 L 47.042969 32.136719 L 47.042969 23.429688 L 57.601562 17.378906 L 57.601562 27.210938 L 31.890625 41.953125 L 31.890625 32.121094 L 32.132812 31.976562 Z M 46.785156 31.882812 L 32.390625 31.882812 L 32.390625 31.835938 L 46.785156 23.582031 Z M 46.785156 31.882812 "/>
<path style=" stroke:none;fill-rule:evenodd;fill:rgb(78.823529%,78.823529%,78.823529%);fill-opacity:1;" d="M 32.390625 31.882812 L 46.785156 31.882812 L 46.785156 23.582031 L 57.601562 17.378906 L 57.601562 27.210938 L 31.890625 41.953125 L 31.890625 32.121094 L 32.390625 31.835938 Z M 46.535156 31.632812 L 32.738281 31.632812 L 46.535156 23.722656 Z M 46.535156 31.632812 "/>
<path style=" stroke:none;fill-rule:evenodd;fill:rgb(79.215686%,79.215686%,79.215686%);fill-opacity:1;" d="M 46.535156 31.632812 L 46.535156 23.722656 L 57.601562 17.378906 L 57.601562 27.210938 L 31.890625 41.953125 L 31.890625 32.121094 L 32.738281 31.632812 Z M 46.277344 31.375 L 33.183594 31.375 L 46.277344 23.871094 Z M 46.277344 31.375 "/>
<path style=" stroke:none;fill-rule:evenodd;fill:rgb(79.607843%,79.607843%,79.607843%);fill-opacity:1;" d="M 46.277344 31.375 L 46.277344 23.871094 L 57.601562 17.378906 L 57.601562 27.210938 L 31.890625 41.953125 L 31.890625 32.121094 L 33.183594 31.375 Z M 46.019531 31.117188 L 33.640625 31.117188 L 46.019531 24.023438 Z M 46.019531 31.117188 "/>
<path style=" stroke:none;fill-rule:evenodd;fill:rgb(80%,80%,80%);fill-opacity:1;" d="M 46.019531 31.117188 L 46.019531 24.023438 L 57.601562 17.378906 L 57.601562 27.210938 L 31.890625 41.953125 L 31.890625 32.121094 L 33.640625 31.117188 Z M 45.757812 30.863281 L 34.085938 30.863281 L 45.757812 24.164062 Z M 45.757812 30.863281 "/>
<path style=" stroke:none;fill-rule:evenodd;fill:rgb(80.392157%,80.392157%,80.392157%);fill-opacity:1;" d="M 45.757812 30.863281 L 45.757812 24.164062 L 57.601562 17.378906 L 57.601562 27.210938 L 31.890625 41.953125 L 31.890625 32.121094 L 34.085938 30.863281 Z M 45.5 30.605469 L 34.535156 30.605469 L 45.5 24.316406 Z M 45.5 30.605469 "/>
<path style=" stroke:none;fill-rule:evenodd;fill:rgb(80.784314%,80.784314%,80.784314%);fill-opacity:1;" d="M 45.5 30.605469 L 45.5 24.316406 L 57.601562 17.378906 L 57.601562 27.210938 L 31.890625 41.953125 L 31.890625 32.121094 L 34.535156 30.605469 Z M 45.25 30.355469 L 34.960938 30.355469 L 45.25 24.457031 Z M 45.25 30.355469 "/>
<path style=" stroke:none;fill-rule:evenodd;fill:rgb(81.176471%,81.176471%,81.176471%);fill-opacity:1;" d="M 45.25 30.355469 L 45.25 24.457031 L 57.601562 17.378906 L 57.601562 27.210938 L 31.890625 41.953125 L 31.890625 32.121094 L 34.960938 30.355469 Z M 44.992188 30.101562 L 35.410156 30.101562 L 44.992188 24.609375 Z M 44.992188 30.101562 "/>
<path style=" stroke:none;fill-rule:evenodd;fill:rgb(81.568627%,81.568627%,81.568627%);fill-opacity:1;" d="M 44.992188 30.101562 L 44.992188 24.609375 L 57.601562 17.378906 L 57.601562 27.210938 L 31.890625 41.953125 L 31.890625 32.121094 L 35.410156 30.101562 Z M 44.730469 29.84375 L 35.863281 29.84375 L 44.730469 24.757812 Z M 44.730469 29.84375 "/>
<path style=" stroke:none;fill-rule:evenodd;fill:rgb(81.960784%,81.960784%,81.960784%);fill-opacity:1;" d="M 44.730469 29.84375 L 44.730469 24.757812 L 57.601562 17.378906 L 57.601562 27.210938 L 31.890625 41.953125 L 31.890625 32.121094 L 35.863281 29.84375 Z M 44.472656 29.585938 L 36.308594 29.585938 L 44.472656 24.910156 Z M 44.472656 29.585938 "/>
<path style=" stroke:none;fill-rule:evenodd;fill:rgb(82.352941%,82.352941%,82.352941%);fill-opacity:1;" d="M 44.472656 29.585938 L 44.472656 24.910156 L 57.601562 17.378906 L 57.601562 27.210938 L 31.890625 41.953125 L 31.890625 32.121094 L 36.308594 29.585938 Z M 44.214844 29.328125 L 36.757812 29.328125 L 44.214844 25.050781 Z M 44.214844 29.328125 "/>
<path style=" stroke:none;fill-rule:evenodd;fill:rgb(82.745098%,82.745098%,82.745098%);fill-opacity:1;" d="M 44.214844 29.328125 L 44.214844 25.050781 L 57.601562 17.378906 L 57.601562 27.210938 L 31.890625 41.953125 L 31.890625 32.121094 L 36.757812 29.328125 Z M 43.953125 29.074219 L 37.203125 29.074219 L 43.953125 25.203125 Z M 43.953125 29.074219 "/>
<path style=" stroke:none;fill-rule:evenodd;fill:rgb(83.137255%,83.137255%,83.137255%);fill-opacity:1;" d="M 43.953125 29.074219 L 43.953125 25.203125 L 57.601562 17.378906 L 57.601562 27.210938 L 31.890625 41.953125 L 31.890625 32.121094 L 37.203125 29.074219 Z M 43.703125 28.824219 L 37.640625 28.824219 L 43.703125 25.34375 Z M 43.703125 28.824219 "/>
<path style=" stroke:none;fill-rule:evenodd;fill:rgb(83.529412%,83.529412%,83.529412%);fill-opacity:1;" d="M 43.703125 28.824219 L 43.703125 25.34375 L 57.601562 17.378906 L 57.601562 27.210938 L 31.890625 41.953125 L 31.890625 32.121094 L 37.640625 28.824219 Z M 43.445312 28.566406 L 38.085938 28.566406 L 43.445312 25.492188 Z M 43.445312 28.566406 "/>
<path style=" stroke:none;fill-rule:evenodd;fill:rgb(83.921569%,83.921569%,83.921569%);fill-opacity:1;" d="M 43.445312 28.566406 L 43.445312 25.492188 L 57.601562 17.378906 L 57.601562 27.210938 L 31.890625 41.953125 L 31.890625 32.121094 L 38.085938 28.566406 Z M 43.1875 28.3125 L 38.535156 28.3125 L 43.1875 25.644531 Z M 43.1875 28.3125 "/>
<path style=" stroke:none;fill-rule:evenodd;fill:rgb(84.313725%,84.313725%,84.313725%);fill-opacity:1;" d="M 43.1875 28.3125 L 43.1875 25.644531 L 57.601562 17.378906 L 57.601562 27.210938 L 31.890625 41.953125 L 31.890625 32.121094 L 38.535156 28.3125 Z M 42.929688 28.054688 L 38.980469 28.054688 L 42.929688 25.796875 Z M 42.929688 28.054688 "/>
<path style=" stroke:none;fill-rule:evenodd;fill:rgb(84.705882%,84.705882%,84.705882%);fill-opacity:1;" d="M 42.929688 28.054688 L 42.929688 25.796875 L 57.601562 17.378906 L 57.601562 27.210938 L 31.890625 41.953125 L 31.890625 32.121094 L 38.980469 28.054688 Z M 42.667969 27.796875 L 39.425781 27.796875 L 42.667969 25.9375 Z M 42.667969 27.796875 "/>
<path style=" stroke:none;fill-rule:evenodd;fill:rgb(85.098039%,85.098039%,85.098039%);fill-opacity:1;" d="M 42.667969 27.796875 L 42.667969 25.9375 L 57.601562 17.378906 L 57.601562 27.210938 L 31.890625 41.953125 L 31.890625 32.121094 L 39.425781 27.796875 Z M 42.417969 27.550781 L 39.863281 27.550781 L 42.417969 26.085938 Z M 42.417969 27.550781 "/>
<path style=" stroke:none;fill-rule:evenodd;fill:rgb(85.490196%,85.490196%,85.490196%);fill-opacity:1;" d="M 42.417969 27.550781 L 42.417969 26.085938 L 57.601562 17.378906 L 57.601562 27.210938 L 31.890625 41.953125 L 31.890625 32.121094 L 39.863281 27.550781 Z M 42.160156 27.292969 L 40.3125 27.292969 L 42.160156 26.230469 Z M 42.160156 27.292969 "/>
<path style=" stroke:none;fill-rule:evenodd;fill:rgb(85.882353%,85.882353%,85.882353%);fill-opacity:1;" d="M 42.160156 27.292969 L 42.160156 26.230469 L 57.601562 17.378906 L 57.601562 27.210938 L 31.890625 41.953125 L 31.890625 32.121094 L 40.3125 27.292969 Z M 41.902344 27.035156 L 40.757812 27.035156 L 41.902344 26.378906 Z M 41.902344 27.035156 "/>
<path style=" stroke:none;fill-rule:evenodd;fill:rgb(86.27451%,86.27451%,86.27451%);fill-opacity:1;" d="M 41.902344 27.035156 L 41.902344 26.378906 L 57.601562 17.378906 L 57.601562 27.210938 L 31.890625 41.953125 L 31.890625 32.121094 L 40.757812 27.035156 Z M 41.640625 26.777344 L 41.203125 26.777344 L 41.640625 26.53125 Z M 41.640625 26.777344 "/>
<path style=" stroke:none;fill-rule:evenodd;fill:rgb(86.666667%,86.666667%,86.666667%);fill-opacity:1;" d="M 41.640625 26.777344 L 41.640625 26.53125 L 57.601562 17.378906 L 57.601562 27.210938 L 31.890625 41.953125 L 31.890625 32.121094 L 41.203125 26.777344 Z M 41.640625 26.777344 "/>
<path style=" stroke:none;fill-rule:evenodd;fill:rgb(87.058824%,87.058824%,87.058824%);fill-opacity:1;" d="M 31.890625 41.953125 L 31.890625 32.121094 L 57.601562 17.378906 L 57.601562 27.210938 Z M 31.890625 41.953125 "/>
<path style=" stroke:none;fill-rule:evenodd;fill:rgb(87.45098%,87.45098%,87.45098%);fill-opacity:1;" d="M 31.890625 41.953125 L 31.890625 32.121094 L 57.601562 17.378906 L 57.601562 27.210938 Z M 31.890625 41.953125 "/>
<path style=" stroke:none;fill-rule:evenodd;fill:rgb(87.843137%,87.843137%,87.843137%);fill-opacity:1;" d="M 31.890625 41.953125 L 31.890625 32.121094 L 57.601562 17.378906 L 57.601562 27.210938 Z M 31.890625 41.953125 "/>
<path style=" stroke:none;fill-rule:evenodd;fill:rgb(88.235294%,88.235294%,88.235294%);fill-opacity:1;" d="M 31.890625 41.953125 L 31.890625 32.121094 L 57.601562 17.378906 L 57.601562 27.210938 Z M 31.890625 41.953125 "/>
<path style=" stroke:none;fill-rule:evenodd;fill:rgb(88.627451%,88.627451%,88.627451%);fill-opacity:1;" d="M 31.890625 41.953125 L 31.890625 32.121094 L 57.601562 17.378906 L 57.601562 27.210938 Z M 31.890625 41.953125 "/>
<path style=" stroke:none;fill-rule:evenodd;fill:rgb(89.019608%,89.019608%,89.019608%);fill-opacity:1;" d="M 31.890625 41.953125 L 31.890625 32.121094 L 57.601562 17.378906 L 57.601562 27.210938 Z M 31.890625 41.953125 "/>
<path style="fill-rule:evenodd;fill:rgb(89.803922%,89.803922%,89.803922%);fill-opacity:1;stroke-width:40;stroke-linecap:butt;stroke-linejoin:round;stroke:rgb(100%,100%,100%);stroke-opacity:1;stroke-miterlimit:4;" d="M 8450.06418 9598.041667 L 8450.06418 8488.114583 L 11329.136257 6823.885417 L 11329.136257 7933.8125 Z M 8450.06418 9598.041667 " transform="matrix(0.00893029,0,0,0.00885827,-43.570866,-43.068898)"/>
<path style="fill-rule:evenodd;fill:url(#linear1);stroke-width:40;stroke-linecap:butt;stroke-linejoin:round;stroke:rgb(100%,100%,100%);stroke-opacity:1;stroke-miterlimit:4;" d="M 8450.06418 8488.114583 L 5091.146757 6546.072917 L 7969.781418 4881.84375 L 11330.011089 6823.885417 Z M 8450.06418 8488.114583 " transform="matrix(0.00893029,0,0,0.00885827,-43.570866,-43.068898)"/>
<path style="fill:none;stroke-width:40;stroke-linecap:butt;stroke-linejoin:round;stroke:rgb(49.803922%,49.803922%,49.803922%);stroke-opacity:1;stroke-miterlimit:4;" d="M 6242.863071 7434.190972 L 6242.863071 8100.059028 " transform="matrix(0.00893029,0,0,0.00885827,-43.570866,-43.068898)"/>
<path style="fill:none;stroke-width:40;stroke-linecap:butt;stroke-linejoin:round;stroke:rgb(100%,100%,100%);stroke-opacity:1;stroke-miterlimit:4;" d="M 8355.144909 8855.003472 L 6818.939936 7966.885417 " transform="matrix(0.00893029,0,0,0.00885827,-43.570866,-43.068898)"/>
<path style="fill:none;stroke-width:40;stroke-linecap:butt;stroke-linejoin:round;stroke:rgb(100%,100%,100%);stroke-opacity:1;stroke-miterlimit:4;" d="M 6810.191616 7767.125 L 6810.191616 7988.934028 " transform="matrix(0.00893029,0,0,0.00885827,-43.570866,-43.068898)"/>
<path style="fill:none;stroke-width:40;stroke-linecap:butt;stroke-linejoin:round;stroke:rgb(0%,0%,0%);stroke-opacity:1;stroke-miterlimit:4;" d="M 8345.959173 8654.802083 L 8345.959173 8877.052083 " transform="matrix(0.00893029,0,0,0.00885827,-43.570866,-43.068898)"/>
<path style="fill:none;stroke-width:40;stroke-linecap:butt;stroke-linejoin:round;stroke:rgb(0%,0%,0%);stroke-opacity:1;stroke-miterlimit:4;" d="M 8345.959173 8654.802083 L 6810.191616 7767.125 " transform="matrix(0.00893029,0,0,0.00885827,-43.570866,-43.068898)"/>
<path style="fill-rule:evenodd;fill:rgb(22.352941%,70.980392%,29.019608%);fill-opacity:1;stroke-width:40;stroke-linecap:butt;stroke-linejoin:round;stroke:rgb(0%,0%,0%);stroke-opacity:1;stroke-miterlimit:4;" d="M 6434.888693 7767.125 L 6434.888693 7544.875 L 6626.914315 7656 L 6626.914315 7877.809028 Z M 6434.888693 7767.125 " transform="matrix(0.00893029,0,0,0.00885827,-43.570866,-43.068898)"/>
<path style="fill:none;stroke-width:40;stroke-linecap:butt;stroke-linejoin:round;stroke:rgb(49.803922%,49.803922%,49.803922%);stroke-opacity:1;stroke-miterlimit:4;" d="M 6050.83745 7323.065972 L 6050.83745 7988.934028 " transform="matrix(0.00893029,0,0,0.00885827,-43.570866,-43.068898)"/>
<path style="fill:none;stroke-width:40;stroke-linecap:butt;stroke-linejoin:round;stroke:rgb(49.803922%,49.803922%,49.803922%);stroke-opacity:1;stroke-miterlimit:4;" d="M 5858.811828 7211.940972 L 5858.811828 7877.809028 " transform="matrix(0.00893029,0,0,0.00885827,-43.570866,-43.068898)"/>
<path style="fill:none;stroke-width:40;stroke-linecap:butt;stroke-linejoin:round;stroke:rgb(49.803922%,49.803922%,49.803922%);stroke-opacity:1;stroke-miterlimit:4;" d="M 5666.786206 7100.815972 L 5666.786206 7767.125 " transform="matrix(0.00893029,0,0,0.00885827,-43.570866,-43.068898)"/>
<path style="fill:none;stroke-width:40;stroke-linecap:butt;stroke-linejoin:round;stroke:rgb(49.803922%,49.803922%,49.803922%);stroke-opacity:1;stroke-miterlimit:4;" d="M 5475.198001 6990.131944 L 5475.198001 7656 " transform="matrix(0.00893029,0,0,0.00885827,-43.570866,-43.068898)"/>
<path style="fill:none;stroke-width:40;stroke-linecap:butt;stroke-linejoin:round;stroke:rgb(49.803922%,49.803922%,49.803922%);stroke-opacity:1;stroke-miterlimit:4;" d="M 5283.172379 6879.006944 L 5283.172379 7544.875 " transform="matrix(0.00893029,0,0,0.00885827,-43.570866,-43.068898)"/>
<path style="fill-rule:evenodd;fill:url(#linear2);stroke-width:40;stroke-linecap:butt;stroke-linejoin:round;stroke:rgb(100%,100%,100%);stroke-opacity:1;stroke-miterlimit:4;" d="M 4899.121136 7544.875 L 4899.121136 6434.947917 L 5091.146757 6546.072917 L 5091.146757 7656 Z M 4899.121136 7544.875 " transform="matrix(0.00893029,0,0,0.00885827,-43.570866,-43.068898)"/>
<path style="fill-rule:evenodd;fill:url(#linear3);stroke-width:40;stroke-linecap:butt;stroke-linejoin:round;stroke:rgb(100%,100%,100%);stroke-opacity:1;stroke-miterlimit:4;" d="M 8450.06418 9598.041667 L 8450.06418 8488.114583 L 8642.089802 8598.798611 L 8642.089802 9709.166667 Z M 8450.06418 9598.041667 " transform="matrix(0.00893029,0,0,0.00885827,-43.570866,-43.068898)"/>
<path style="fill:none;stroke-width:40;stroke-linecap:butt;stroke-linejoin:round;stroke:rgb(0%,0%,0%);stroke-opacity:1;stroke-miterlimit:4;" d="M 4899.121136 7544.875 L 4899.121136 6434.947917 L 5091.146757 6546.072917 L 7969.781418 4881.84375 L 11330.011089 6823.885417 L 11330.011089 7932.930556 L 8642.089802 9486.916667 L 8642.089802 9709.166667 Z M 4899.121136 7544.875 " transform="matrix(0.00893029,0,0,0.00885827,-43.570866,-43.068898)"/>
<path style=" stroke:none;fill-rule:evenodd;fill:url(#linear4);" d="M 41.320312 30.152344 L 41.328125 30.066406 L 41.347656 29.976562 L 41.375 29.878906 L 41.410156 29.789062 L 41.464844 29.703125 L 41.527344 29.613281 L 41.675781 29.445312 L 41.863281 29.277344 L 42.089844 29.117188 L 42.339844 28.964844 L 42.625 28.832031 L 42.929688 28.699219 L 43.25 28.585938 L 43.597656 28.480469 L 43.953125 28.398438 L 44.320312 28.328125 L 44.703125 28.277344 L 45.089844 28.238281 L 45.480469 28.230469 L 45.875 28.238281 L 46.257812 28.277344 L 46.644531 28.328125 L 47.007812 28.398438 L 47.375 28.480469 L 47.714844 28.585938 L 48.046875 28.699219 L 48.347656 28.832031 L 48.625 28.964844 L 48.882812 29.117188 L 49.109375 29.277344 L 49.296875 29.445312 L 49.445312 29.613281 L 49.507812 29.703125 L 49.554688 29.789062 L 49.597656 29.878906 L 49.625 29.976562 L 49.644531 30.066406 L 49.652344 30.152344 L 49.652344 38.535156 L 49.644531 38.621094 L 49.625 38.710938 L 49.597656 38.808594 L 49.554688 38.898438 L 49.507812 38.984375 L 49.445312 39.074219 L 49.296875 39.242188 L 49.109375 39.410156 L 48.882812 39.570312 L 48.625 39.71875 L 48.347656 39.863281 L 48.046875 39.996094 L 47.714844 40.109375 L 47.375 40.207031 L 47.007812 40.296875 L 46.644531 40.367188 L 46.257812 40.421875 L 45.875 40.457031 L 45.480469 40.464844 L 45.089844 40.457031 L 44.703125 40.421875 L 44.320312 40.367188 L 43.953125 40.296875 L 43.597656 40.207031 L 43.25 40.109375 L 42.929688 39.996094 L 42.625 39.863281 L 42.339844 39.71875 L 42.089844 39.570312 L 41.863281 39.410156 L 41.675781 39.242188 L 41.527344 39.074219 L 41.464844 38.984375 L 41.410156 38.898438 L 41.375 38.808594 L 41.347656 38.710938 L 41.328125 38.621094 L 41.320312 38.535156 Z M 41.320312 30.152344 "/>
<path style="fill:none;stroke-width:40;stroke-linecap:butt;stroke-linejoin:round;stroke:rgb(0%,0%,0%);stroke-opacity:1;stroke-miterlimit:4;" d="M 9505.986391 8265.864583 C 9505.986391 8156.944444 9739.129116 8048.90625 9971.834425 8048.90625 C 10204.977151 8048.90625 10438.994708 8156.944444 10438.994708 8265.864583 L 10438.994708 9212.190972 C 10438.994708 9321.111111 10204.977151 9430.03125 9971.834425 9430.03125 C 9739.129116 9430.03125 9505.986391 9321.111111 9505.986391 9212.190972 Z M 9505.986391 8265.864583 " transform="matrix(0.00893029,0,0,0.00885827,-43.570866,-43.068898)"/>
<path style=" stroke:none;fill-rule:evenodd;fill:url(#linear5);" d="M 41.320312 30.152344 L 41.328125 30.242188 L 41.347656 30.332031 L 41.375 30.417969 L 41.410156 30.507812 L 41.464844 30.597656 L 41.527344 30.683594 L 41.675781 30.851562 L 41.863281 31.023438 L 42.089844 31.179688 L 42.339844 31.332031 L 42.625 31.472656 L 42.929688 31.605469 L 43.25 31.722656 L 43.597656 31.820312 L 43.953125 31.90625 L 44.320312 31.976562 L 44.703125 32.03125 L 45.089844 32.066406 L 45.480469 32.074219 L 45.875 32.066406 L 46.257812 32.03125 L 46.644531 31.976562 L 47.007812 31.90625 L 47.375 31.820312 L 47.714844 31.722656 L 48.046875 31.605469 L 48.347656 31.472656 L 48.625 31.332031 L 48.882812 31.179688 L 49.109375 31.023438 L 49.296875 30.851562 L 49.445312 30.683594 L 49.507812 30.597656 L 49.554688 30.507812 L 49.597656 30.417969 L 49.625 30.332031 L 49.644531 30.242188 L 49.652344 30.152344 Z M 41.320312 30.152344 "/>
<path style="fill:none;stroke-width:40;stroke-linecap:butt;stroke-linejoin:round;stroke:rgb(0%,0%,0%);stroke-opacity:1;stroke-miterlimit:4;" d="M 9505.986391 8265.864583 C 9505.986391 8373.902778 9739.129116 8482.822917 9971.834425 8482.822917 C 10204.977151 8482.822917 10438.994708 8373.902778 10438.994708 8265.864583 " transform="matrix(0.00893029,0,0,0.00885827,-43.570866,-43.068898)"/>
<path style=" stroke:none;fill-rule:evenodd;fill:url(#linear6);" d="M 45.480469 28.222656 L 46.339844 28.257812 L 47.125 28.371094 L 47.492188 28.453125 L 47.832031 28.542969 L 48.152344 28.65625 L 48.445312 28.78125 L 48.714844 28.914062 L 48.945312 29.0625 L 49.152344 29.214844 L 49.320312 29.390625 L 49.464844 29.570312 L 49.519531 29.65625 L 49.5625 29.753906 L 49.597656 29.851562 L 49.625 29.949219 L 49.632812 30.046875 L 49.644531 30.152344 L 49.632812 30.261719 L 49.625 30.355469 L 49.597656 30.453125 L 49.5625 30.550781 L 49.519531 30.648438 L 49.464844 30.738281 L 49.320312 30.925781 L 49.152344 31.09375 L 48.945312 31.253906 L 48.714844 31.402344 L 48.445312 31.535156 L 48.152344 31.660156 L 47.832031 31.765625 L 47.492188 31.863281 L 47.125 31.941406 L 46.339844 32.058594 L 45.480469 32.09375 L 44.625 32.058594 L 43.839844 31.941406 L 43.472656 31.863281 L 43.132812 31.765625 L 42.8125 31.660156 L 42.515625 31.535156 L 42.25 31.402344 L 42.015625 31.253906 L 41.8125 31.09375 L 41.640625 30.925781 L 41.5 30.738281 L 41.445312 30.648438 L 41.402344 30.550781 L 41.363281 30.453125 L 41.339844 30.355469 L 41.328125 30.261719 L 41.320312 30.152344 L 41.328125 30.046875 L 41.339844 29.949219 L 41.363281 29.851562 L 41.402344 29.753906 L 41.445312 29.65625 L 41.5 29.570312 L 41.640625 29.390625 L 41.8125 29.214844 L 42.015625 29.0625 L 42.25 28.914062 L 42.515625 28.78125 L 42.8125 28.65625 L 43.132812 28.542969 L 43.472656 28.453125 L 43.839844 28.371094 L 44.625 28.257812 Z M 45.480469 28.222656 "/>
<path style="fill:none;stroke-width:40;stroke-linecap:butt;stroke-linejoin:round;stroke:rgb(0%,0%,0%);stroke-opacity:1;stroke-miterlimit:4;" d="M 9971.834425 8048.024306 C 10236.033686 8048.024306 10438.119876 8141.951389 10438.119876 8265.864583 C 10438.119876 8390.21875 10236.033686 8485.027778 9971.834425 8485.027778 C 9708.072581 8485.027778 9505.986391 8390.21875 9505.986391 8265.864583 C 9505.986391 8141.951389 9708.072581 8048.024306 9971.834425 8048.024306 Z M 9971.834425 8048.024306 " transform="matrix(0.00893029,0,0,0.00885827,-43.570866,-43.068898)"/>
</g>
</svg>
