<?xml version="1.0" encoding="UTF-8"?>
<svg xmlns="http://www.w3.org/2000/svg" xmlns:xlink="http://www.w3.org/1999/xlink" width="45pt" height="27pt" viewBox="0 0 45 27" version="1.1">
<defs>
<linearGradient id="linear0" gradientUnits="userSpaceOnUse" x1="1867" y1="5600" x2="3809" y2="5604" gradientTransform="matrix(1,0,0,1,0,-0.000000000000454747)">
<stop offset="0.1" style="stop-color:rgb(70.196078%,70.196078%,70.196078%);stop-opacity:1;"/>
<stop offset="1" style="stop-color:rgb(89.803922%,89.803922%,89.803922%);stop-opacity:1;"/>
</linearGradient>
<linearGradient id="linear1" gradientUnits="userSpaceOnUse" x1="4293" y1="3257" x2="4293" y2="6057" gradientTransform="matrix(1,0,0,1,0,-0.000000000000454747)">
<stop offset="0.1" style="stop-color:rgb(70.196078%,70.196078%,70.196078%);stop-opacity:1;"/>
<stop offset="1" style="stop-color:rgb(89.803922%,89.803922%,89.803922%);stop-opacity:1;"/>
</linearGradient>
<linearGradient id="linear2" gradientUnits="userSpaceOnUse" x1="4292" y1="3257" x2="4292" y2="5917" gradientTransform="matrix(1,0,0,1,0,-0.000000000000454747)">
<stop offset="0.1" style="stop-color:rgb(70.196078%,70.196078%,70.196078%);stop-opacity:1;"/>
<stop offset="1" style="stop-color:rgb(89.803922%,89.803922%,89.803922%);stop-opacity:1;"/>
</linearGradient>
</defs>
<g id="surface1">
<path style="fill-rule:evenodd;fill:rgb(86.666667%,86.666667%,86.666667%);fill-opacity:1;stroke-width:28.222;stroke-linecap:butt;stroke-linejoin:round;stroke:rgb(86.666667%,86.666667%,86.666667%);stroke-opacity:1;stroke-miterlimit:4;" d="M 4778.20652 5706.885417 C 5035.180633 5706.885417 6717.790992 4797.159722 6838.823167 4727.045139 C 6959.855343 4656.930556 6905.040046 4447.027778 6717.790992 4447.027778 Z M 4778.20652 5706.885417 " transform="matrix(0.00890776,0,0,0.00885827,-16.461532,-28.674213)"/>
<path style="fill-rule:evenodd;fill:url(#linear0);stroke-width:40;stroke-linecap:butt;stroke-linejoin:round;stroke:rgb(100%,100%,100%);stroke-opacity:1;stroke-miterlimit:4;" d="M 1868.172029 5146.850694 L 1868.172029 4936.947917 L 3808.195023 6057.017361 L 3808.195023 6266.920139 Z M 1868.172029 5146.850694 " transform="matrix(0.00890776,0,0,0.00885827,-16.461532,-28.674213)"/>
<path style="fill-rule:evenodd;fill:url(#linear1);stroke-width:40;stroke-linecap:butt;stroke-linejoin:round;stroke:rgb(100%,100%,100%);stroke-opacity:1;stroke-miterlimit:4;" d="M 3808.195023 6057.017361 L 1868.172029 4936.947917 L 4778.20652 3256.84375 L 6717.790992 4376.913194 Z M 3808.195023 6057.017361 " transform="matrix(0.00890776,0,0,0.00885827,-16.461532,-28.674213)"/>
<path style=" stroke:none;fill-rule:evenodd;fill:rgb(70.196078%,70.196078%,70.196078%);fill-opacity:1;" d="M 37.929688 15.085938 L 17.460938 26.839844 L 17.460938 24.980469 L 37.929688 13.226562 Z M 37.929688 15.085938 "/>
<path style=" stroke:none;fill-rule:evenodd;fill:rgb(70.588235%,70.588235%,70.588235%);fill-opacity:1;" d="M 37.929688 13.226562 L 43.378906 10.097656 L 43.378906 11.957031 L 37.929688 15.085938 Z M 37.671875 15.234375 L 17.460938 26.839844 L 17.460938 24.980469 L 37.671875 13.375 Z M 37.671875 15.234375 "/>
<path style=" stroke:none;fill-rule:evenodd;fill:rgb(70.980392%,70.980392%,70.980392%);fill-opacity:1;" d="M 37.671875 13.375 L 43.378906 10.097656 L 43.378906 11.957031 L 37.671875 15.234375 Z M 37.414062 15.386719 L 17.460938 26.839844 L 17.460938 24.980469 L 37.414062 13.527344 Z M 37.414062 15.386719 "/>
<path style=" stroke:none;fill-rule:evenodd;fill:rgb(71.372549%,71.372549%,71.372549%);fill-opacity:1;" d="M 37.414062 13.527344 L 43.378906 10.097656 L 43.378906 11.957031 L 37.414062 15.386719 Z M 37.152344 15.539062 L 17.460938 26.839844 L 17.460938 24.980469 L 37.152344 13.675781 Z M 37.152344 15.539062 "/>
<path style=" stroke:none;fill-rule:evenodd;fill:rgb(71.764706%,71.764706%,71.764706%);fill-opacity:1;" d="M 37.152344 13.675781 L 43.378906 10.097656 L 43.378906 11.957031 L 37.152344 15.539062 Z M 36.894531 15.679688 L 17.671875 26.714844 L 17.460938 26.714844 L 17.460938 24.980469 L 36.894531 13.820312 Z M 36.894531 15.679688 "/>
<path style=" stroke:none;fill-rule:evenodd;fill:rgb(72.156863%,72.156863%,72.156863%);fill-opacity:1;" d="M 17.671875 26.714844 L 17.460938 26.839844 L 17.460938 26.714844 Z M 36.894531 13.820312 L 43.378906 10.097656 L 43.378906 11.957031 L 36.894531 15.679688 Z M 36.636719 15.828125 L 18.117188 26.460938 L 17.460938 26.460938 L 17.460938 24.980469 L 36.636719 13.96875 Z M 36.636719 15.828125 "/>
<path style=" stroke:none;fill-rule:evenodd;fill:rgb(72.54902%,72.54902%,72.54902%);fill-opacity:1;" d="M 18.117188 26.460938 L 17.460938 26.839844 L 17.460938 26.460938 Z M 36.636719 13.96875 L 43.378906 10.097656 L 43.378906 11.957031 L 36.636719 15.828125 Z M 36.378906 15.980469 L 18.574219 26.203125 L 17.460938 26.203125 L 17.460938 24.980469 L 36.378906 14.121094 Z M 36.378906 15.980469 "/>
<path style=" stroke:none;fill-rule:evenodd;fill:rgb(72.941176%,72.941176%,72.941176%);fill-opacity:1;" d="M 18.574219 26.203125 L 17.460938 26.839844 L 17.460938 26.203125 Z M 36.378906 14.121094 L 43.378906 10.097656 L 43.378906 11.957031 L 36.378906 15.980469 Z M 36.113281 16.132812 L 19.035156 25.9375 L 17.460938 25.9375 L 17.460938 24.980469 L 36.113281 14.269531 Z M 36.113281 16.132812 "/>
<path style=" stroke:none;fill-rule:evenodd;fill:rgb(73.333333%,73.333333%,73.333333%);fill-opacity:1;" d="M 19.035156 25.9375 L 17.460938 26.839844 L 17.460938 25.9375 Z M 36.113281 14.269531 L 43.378906 10.097656 L 43.378906 11.957031 L 36.113281 16.132812 Z M 35.855469 16.28125 L 19.480469 25.679688 L 17.460938 25.679688 L 17.460938 24.980469 L 35.855469 14.421875 Z M 35.855469 16.28125 "/>
<path style=" stroke:none;fill-rule:evenodd;fill:rgb(73.72549%,73.72549%,73.72549%);fill-opacity:1;" d="M 19.480469 25.679688 L 17.460938 26.839844 L 17.460938 25.679688 Z M 35.855469 14.421875 L 43.378906 10.097656 L 43.378906 11.957031 L 35.855469 16.28125 Z M 35.59375 16.433594 L 19.925781 25.421875 L 17.460938 25.421875 L 17.460938 24.980469 L 35.59375 14.570312 Z M 35.59375 16.433594 "/>
<path style=" stroke:none;fill-rule:evenodd;fill:rgb(74.117647%,74.117647%,74.117647%);fill-opacity:1;" d="M 19.925781 25.421875 L 17.460938 26.839844 L 17.460938 25.421875 Z M 35.59375 14.570312 L 43.378906 10.097656 L 43.378906 11.957031 L 35.59375 16.433594 Z M 35.335938 16.574219 L 20.371094 25.167969 L 17.460938 25.167969 L 17.460938 24.980469 L 35.335938 14.714844 Z M 35.335938 16.574219 "/>
<path style=" stroke:none;fill-rule:evenodd;fill:rgb(74.509804%,74.509804%,74.509804%);fill-opacity:1;" d="M 20.371094 25.167969 L 17.460938 26.839844 L 17.460938 25.167969 Z M 35.335938 14.714844 L 43.378906 10.097656 L 43.378906 11.957031 L 35.335938 16.574219 Z M 35.078125 16.722656 L 20.828125 24.910156 L 17.582031 24.910156 L 35.078125 14.863281 Z M 35.078125 16.722656 "/>
<path style=" stroke:none;fill-rule:evenodd;fill:rgb(74.901961%,74.901961%,74.901961%);fill-opacity:1;" d="M 20.828125 24.910156 L 17.460938 26.839844 L 17.460938 24.980469 L 17.582031 24.910156 Z M 35.078125 14.863281 L 43.378906 10.097656 L 43.378906 11.957031 L 35.078125 16.722656 Z M 34.820312 16.875 L 21.273438 24.652344 L 18.027344 24.652344 L 34.820312 15.015625 Z M 34.820312 16.875 "/>
<path style=" stroke:none;fill-rule:evenodd;fill:rgb(75.294118%,75.294118%,75.294118%);fill-opacity:1;" d="M 21.273438 24.652344 L 17.460938 26.839844 L 17.460938 24.980469 L 18.027344 24.652344 Z M 34.820312 15.015625 L 43.378906 10.097656 L 43.378906 11.957031 L 34.820312 16.875 Z M 34.5625 17.027344 L 21.71875 24.394531 L 18.476562 24.394531 L 34.5625 15.164062 Z M 34.5625 17.027344 "/>
<path style=" stroke:none;fill-rule:evenodd;fill:rgb(75.686275%,75.686275%,75.686275%);fill-opacity:1;" d="M 21.71875 24.394531 L 17.460938 26.839844 L 17.460938 24.980469 L 18.476562 24.394531 Z M 34.5625 15.164062 L 43.378906 10.097656 L 43.378906 11.957031 L 34.5625 17.027344 Z M 34.304688 17.167969 L 22.164062 24.140625 L 18.929688 24.140625 L 34.304688 15.308594 Z M 34.304688 17.167969 "/>
<path style=" stroke:none;fill-rule:evenodd;fill:rgb(76.078431%,76.078431%,76.078431%);fill-opacity:1;" d="M 22.164062 24.140625 L 17.460938 26.839844 L 17.460938 24.980469 L 18.929688 24.140625 Z M 34.304688 15.308594 L 43.378906 10.097656 L 43.378906 11.957031 L 34.304688 17.167969 Z M 34.035156 17.328125 L 22.625 23.871094 L 19.390625 23.871094 L 34.035156 15.464844 Z M 34.035156 17.328125 "/>
<path style=" stroke:none;fill-rule:evenodd;fill:rgb(76.470588%,76.470588%,76.470588%);fill-opacity:1;" d="M 22.625 23.871094 L 17.460938 26.839844 L 17.460938 24.980469 L 19.390625 23.871094 Z M 34.035156 15.464844 L 43.378906 10.097656 L 43.378906 11.957031 L 34.035156 17.328125 Z M 33.777344 17.46875 L 23.078125 23.617188 L 19.835938 23.617188 L 33.777344 15.609375 Z M 33.777344 17.46875 "/>
<path style=" stroke:none;fill-rule:evenodd;fill:rgb(76.862745%,76.862745%,76.862745%);fill-opacity:1;" d="M 23.078125 23.617188 L 17.460938 26.839844 L 17.460938 24.980469 L 19.835938 23.617188 Z M 33.777344 15.609375 L 43.378906 10.097656 L 43.378906 11.957031 L 33.777344 17.46875 Z M 33.519531 17.617188 L 23.523438 23.359375 L 20.28125 23.359375 L 33.519531 15.757812 Z M 33.519531 17.617188 "/>
<path style=" stroke:none;fill-rule:evenodd;fill:rgb(77.254902%,77.254902%,77.254902%);fill-opacity:1;" d="M 23.523438 23.359375 L 17.460938 26.839844 L 17.460938 24.980469 L 20.28125 23.359375 Z M 33.519531 15.757812 L 43.378906 10.097656 L 43.378906 11.957031 L 33.519531 17.617188 Z M 33.261719 17.769531 L 23.972656 23.101562 L 20.726562 23.101562 L 33.261719 15.910156 Z M 33.261719 17.769531 "/>
<path style=" stroke:none;fill-rule:evenodd;fill:rgb(77.647059%,77.647059%,77.647059%);fill-opacity:1;" d="M 23.972656 23.101562 L 17.460938 26.839844 L 17.460938 24.980469 L 20.726562 23.101562 Z M 33.261719 15.910156 L 43.378906 10.097656 L 43.378906 11.957031 L 33.261719 17.769531 Z M 33.003906 17.921875 L 24.417969 22.84375 L 21.171875 22.84375 L 33.003906 16.058594 Z M 33.003906 17.921875 "/>
<path style=" stroke:none;fill-rule:evenodd;fill:rgb(78.039216%,78.039216%,78.039216%);fill-opacity:1;" d="M 24.417969 22.84375 L 17.460938 26.839844 L 17.460938 24.980469 L 21.171875 22.84375 Z M 33.003906 16.058594 L 43.378906 10.097656 L 43.378906 11.957031 L 33.003906 17.921875 Z M 32.746094 18.0625 L 24.863281 22.589844 L 21.628906 22.589844 L 32.746094 16.203125 Z M 32.746094 18.0625 "/>
<path style=" stroke:none;fill-rule:evenodd;fill:rgb(78.431373%,78.431373%,78.431373%);fill-opacity:1;" d="M 24.863281 22.589844 L 17.460938 26.839844 L 17.460938 24.980469 L 21.628906 22.589844 Z M 32.746094 16.203125 L 43.378906 10.097656 L 43.378906 11.957031 L 32.746094 18.0625 Z M 32.488281 18.210938 L 25.316406 22.332031 L 22.074219 22.332031 L 32.488281 16.351562 Z M 32.488281 18.210938 "/>
<path style=" stroke:none;fill-rule:evenodd;fill:rgb(78.823529%,78.823529%,78.823529%);fill-opacity:1;" d="M 25.316406 22.332031 L 17.460938 26.839844 L 17.460938 24.980469 L 22.074219 22.332031 Z M 32.488281 16.351562 L 43.378906 10.097656 L 43.378906 11.957031 L 32.488281 18.210938 Z M 32.226562 18.363281 L 25.761719 22.074219 L 22.519531 22.074219 L 32.226562 16.503906 Z M 32.226562 18.363281 "/>
<path style=" stroke:none;fill-rule:evenodd;fill:rgb(79.215686%,79.215686%,79.215686%);fill-opacity:1;" d="M 25.761719 22.074219 L 17.460938 26.839844 L 17.460938 24.980469 L 22.519531 22.074219 Z M 32.226562 16.503906 L 43.378906 10.097656 L 43.378906 11.957031 L 32.226562 18.363281 Z M 31.960938 18.515625 L 26.222656 21.808594 L 22.980469 21.808594 L 31.960938 16.652344 Z M 31.960938 18.515625 "/>
<path style=" stroke:none;fill-rule:evenodd;fill:rgb(79.607843%,79.607843%,79.607843%);fill-opacity:1;" d="M 26.222656 21.808594 L 17.460938 26.839844 L 17.460938 24.980469 L 22.980469 21.808594 Z M 31.960938 16.652344 L 43.378906 10.097656 L 43.378906 11.957031 L 31.960938 18.515625 Z M 31.703125 18.664062 L 26.667969 21.550781 L 23.425781 21.550781 L 31.703125 16.804688 Z M 31.703125 18.664062 "/>
<path style=" stroke:none;fill-rule:evenodd;fill:rgb(80%,80%,80%);fill-opacity:1;" d="M 26.667969 21.550781 L 17.460938 26.839844 L 17.460938 24.980469 L 23.425781 21.550781 Z M 31.703125 16.804688 L 43.378906 10.097656 L 43.378906 11.957031 L 31.703125 18.664062 Z M 31.445312 18.816406 L 27.113281 21.296875 L 23.882812 21.296875 L 31.445312 16.953125 Z M 31.445312 18.816406 "/>
<path style=" stroke:none;fill-rule:evenodd;fill:rgb(80.392157%,80.392157%,80.392157%);fill-opacity:1;" d="M 27.113281 21.296875 L 17.460938 26.839844 L 17.460938 24.980469 L 23.882812 21.296875 Z M 31.445312 16.953125 L 43.378906 10.097656 L 43.378906 11.957031 L 31.445312 18.816406 Z M 31.1875 18.957031 L 27.570312 21.039062 L 24.328125 21.039062 L 31.1875 17.097656 Z M 31.1875 18.957031 "/>
<path style=" stroke:none;fill-rule:evenodd;fill:rgb(80.784314%,80.784314%,80.784314%);fill-opacity:1;" d="M 27.570312 21.039062 L 17.460938 26.839844 L 17.460938 24.980469 L 24.328125 21.039062 Z M 31.1875 17.097656 L 43.378906 10.097656 L 43.378906 11.957031 L 31.1875 18.957031 Z M 30.925781 19.105469 L 28.015625 20.78125 L 24.773438 20.78125 L 30.925781 17.246094 Z M 30.925781 19.105469 "/>
<path style=" stroke:none;fill-rule:evenodd;fill:rgb(81.176471%,81.176471%,81.176471%);fill-opacity:1;" d="M 28.015625 20.78125 L 17.460938 26.839844 L 17.460938 24.980469 L 24.773438 20.78125 Z M 30.925781 17.246094 L 43.378906 10.097656 L 43.378906 11.957031 L 30.925781 19.105469 Z M 30.667969 19.257812 L 28.460938 20.523438 L 25.21875 20.523438 L 30.667969 17.398438 Z M 30.667969 19.257812 "/>
<path style=" stroke:none;fill-rule:evenodd;fill:rgb(81.568627%,81.568627%,81.568627%);fill-opacity:1;" d="M 28.460938 20.523438 L 17.460938 26.839844 L 17.460938 24.980469 L 25.21875 20.523438 Z M 30.667969 17.398438 L 43.378906 10.097656 L 43.378906 11.957031 L 30.667969 19.257812 Z M 30.410156 19.410156 L 28.90625 20.269531 L 25.671875 20.269531 L 30.410156 17.546875 Z M 30.410156 19.410156 "/>
<path style=" stroke:none;fill-rule:evenodd;fill:rgb(81.960784%,81.960784%,81.960784%);fill-opacity:1;" d="M 28.90625 20.269531 L 17.460938 26.839844 L 17.460938 24.980469 L 25.671875 20.269531 Z M 30.410156 17.546875 L 43.378906 10.097656 L 43.378906 11.957031 L 30.410156 19.410156 Z M 30.144531 19.558594 L 29.367188 20.003906 L 26.125 20.003906 L 30.144531 17.699219 Z M 30.144531 19.558594 "/>
<path style=" stroke:none;fill-rule:evenodd;fill:rgb(82.352941%,82.352941%,82.352941%);fill-opacity:1;" d="M 29.367188 20.003906 L 17.460938 26.839844 L 17.460938 24.980469 L 26.125 20.003906 Z M 30.144531 17.699219 L 43.378906 10.097656 L 43.378906 11.957031 L 30.144531 19.558594 Z M 29.886719 19.710938 L 29.8125 19.746094 L 26.582031 19.746094 L 29.886719 17.847656 Z M 29.886719 19.710938 "/>
<path style=" stroke:none;fill-rule:evenodd;fill:rgb(82.745098%,82.745098%,82.745098%);fill-opacity:1;" d="M 29.8125 19.746094 L 17.460938 26.839844 L 17.460938 24.980469 L 26.582031 19.746094 Z M 29.886719 17.847656 L 43.378906 10.097656 L 43.378906 11.957031 L 29.886719 19.710938 Z M 29.628906 19.488281 L 27.027344 19.488281 L 29.628906 17.992188 Z M 29.628906 19.488281 "/>
<path style=" stroke:none;fill-rule:evenodd;fill:rgb(83.137255%,83.137255%,83.137255%);fill-opacity:1;" d="M 29.628906 19.488281 L 29.628906 17.992188 L 43.378906 10.097656 L 43.378906 11.957031 L 17.460938 26.839844 L 17.460938 24.980469 L 27.027344 19.488281 Z M 29.367188 19.230469 L 27.472656 19.230469 L 29.367188 18.140625 Z M 29.367188 19.230469 "/>
<path style=" stroke:none;fill-rule:evenodd;fill:rgb(83.529412%,83.529412%,83.529412%);fill-opacity:1;" d="M 29.367188 19.230469 L 29.367188 18.140625 L 43.378906 10.097656 L 43.378906 11.957031 L 17.460938 26.839844 L 17.460938 24.980469 L 27.472656 19.230469 Z M 29.109375 18.972656 L 27.917969 18.972656 L 29.109375 18.292969 Z M 29.109375 18.972656 "/>
<path style=" stroke:none;fill-rule:evenodd;fill:rgb(83.921569%,83.921569%,83.921569%);fill-opacity:1;" d="M 29.109375 18.972656 L 29.109375 18.292969 L 43.378906 10.097656 L 43.378906 11.957031 L 17.460938 26.839844 L 17.460938 24.980469 L 27.917969 18.972656 Z M 28.851562 18.71875 L 28.371094 18.71875 L 28.851562 18.441406 Z M 28.851562 18.71875 "/>
<path style=" stroke:none;fill-rule:evenodd;fill:rgb(84.313725%,84.313725%,84.313725%);fill-opacity:1;" d="M 28.851562 18.71875 L 28.851562 18.441406 L 43.378906 10.097656 L 43.378906 11.957031 L 17.460938 26.839844 L 17.460938 24.980469 L 28.371094 18.71875 Z M 28.851562 18.71875 "/>
<path style=" stroke:none;fill-rule:evenodd;fill:rgb(84.705882%,84.705882%,84.705882%);fill-opacity:1;" d="M 17.460938 26.839844 L 17.460938 24.980469 L 43.378906 10.097656 L 43.378906 11.957031 Z M 17.460938 26.839844 "/>
<path style=" stroke:none;fill-rule:evenodd;fill:rgb(85.098039%,85.098039%,85.098039%);fill-opacity:1;" d="M 17.460938 26.839844 L 17.460938 24.980469 L 43.378906 10.097656 L 43.378906 11.957031 Z M 17.460938 26.839844 "/>
<path style=" stroke:none;fill-rule:evenodd;fill:rgb(85.490196%,85.490196%,85.490196%);fill-opacity:1;" d="M 17.460938 26.839844 L 17.460938 24.980469 L 43.378906 10.097656 L 43.378906 11.957031 Z M 17.460938 26.839844 "/>
<path style=" stroke:none;fill-rule:evenodd;fill:rgb(85.882353%,85.882353%,85.882353%);fill-opacity:1;" d="M 17.460938 26.839844 L 17.460938 24.980469 L 43.378906 10.097656 L 43.378906 11.957031 Z M 17.460938 26.839844 "/>
<path style=" stroke:none;fill-rule:evenodd;fill:rgb(86.27451%,86.27451%,86.27451%);fill-opacity:1;" d="M 17.460938 26.839844 L 17.460938 24.980469 L 43.378906 10.097656 L 43.378906 11.957031 Z M 17.460938 26.839844 "/>
<path style=" stroke:none;fill-rule:evenodd;fill:rgb(86.666667%,86.666667%,86.666667%);fill-opacity:1;" d="M 17.460938 26.839844 L 17.460938 24.980469 L 43.378906 10.097656 L 43.378906 11.957031 Z M 17.460938 26.839844 "/>
<path style=" stroke:none;fill-rule:evenodd;fill:rgb(87.058824%,87.058824%,87.058824%);fill-opacity:1;" d="M 17.460938 26.839844 L 17.460938 24.980469 L 43.378906 10.097656 L 43.378906 11.957031 Z M 17.460938 26.839844 "/>
<path style=" stroke:none;fill-rule:evenodd;fill:rgb(87.45098%,87.45098%,87.45098%);fill-opacity:1;" d="M 17.460938 26.839844 L 17.460938 24.980469 L 43.378906 10.097656 L 43.378906 11.957031 Z M 17.460938 26.839844 "/>
<path style=" stroke:none;fill-rule:evenodd;fill:rgb(87.843137%,87.843137%,87.843137%);fill-opacity:1;" d="M 17.460938 26.839844 L 17.460938 24.980469 L 43.378906 10.097656 L 43.378906 11.957031 Z M 17.460938 26.839844 "/>
<path style=" stroke:none;fill-rule:evenodd;fill:rgb(88.235294%,88.235294%,88.235294%);fill-opacity:1;" d="M 17.460938 26.839844 L 17.460938 24.980469 L 43.378906 10.097656 L 43.378906 11.957031 Z M 17.460938 26.839844 "/>
<path style=" stroke:none;fill-rule:evenodd;fill:rgb(88.627451%,88.627451%,88.627451%);fill-opacity:1;" d="M 17.460938 26.839844 L 17.460938 24.980469 L 43.378906 10.097656 L 43.378906 11.957031 Z M 17.460938 26.839844 "/>
<path style=" stroke:none;fill-rule:evenodd;fill:rgb(89.019608%,89.019608%,89.019608%);fill-opacity:1;" d="M 17.460938 26.839844 L 17.460938 24.980469 L 43.378906 10.097656 L 43.378906 11.957031 Z M 17.460938 26.839844 "/>
<path style="fill-rule:evenodd;fill:rgb(89.803922%,89.803922%,89.803922%);fill-opacity:1;stroke-width:40;stroke-linecap:butt;stroke-linejoin:round;stroke:rgb(100%,100%,100%);stroke-opacity:1;stroke-miterlimit:4;" d="M 3808.195023 6266.920139 L 3808.195023 6057.017361 L 6717.790992 4376.913194 L 6717.790992 4586.815972 Z M 3808.195023 6266.920139 " transform="matrix(0.00890776,0,0,0.00885827,-16.461532,-28.674213)"/>
<path style="fill-rule:evenodd;fill:url(#linear2);stroke-width:40;stroke-linecap:butt;stroke-linejoin:round;stroke:rgb(100%,100%,100%);stroke-opacity:1;stroke-miterlimit:4;" d="M 3928.788677 5916.788194 L 1989.204205 4797.159722 L 4655.858777 3256.84375 L 6595.881771 4376.913194 Z M 3928.788677 5916.788194 " transform="matrix(0.00890776,0,0,0.00885827,-16.461532,-28.674213)"/>
<path style="fill:none;stroke-width:40;stroke-linecap:butt;stroke-linejoin:round;stroke:rgb(0%,0%,0%);stroke-opacity:1;stroke-miterlimit:4;" d="M 4778.20652 3256.84375 L 6717.790992 4376.913194 L 6717.790992 4586.815972 L 3808.195023 6266.920139 L 1868.172029 5146.850694 L 1868.172029 4936.947917 L 1989.204205 4866.833333 L 1989.204205 4797.159722 L 4655.858777 3256.84375 Z M 4778.20652 3256.84375 " transform="matrix(0.00890776,0,0,0.00885827,-16.461532,-28.674213)"/>
</g>
</svg>
