<?xml version="1.0" encoding="UTF-8"?>
<svg xmlns="http://www.w3.org/2000/svg" xmlns:xlink="http://www.w3.org/1999/xlink" width="31pt" height="33pt" viewBox="0 0 31 33" version="1.1">
<defs>
<linearGradient id="linear0" gradientUnits="userSpaceOnUse" x1="10528" y1="6390" x2="10528" y2="8272" >
<stop offset="0.1" style="stop-color:rgb(70.196078%,70.196078%,70.196078%);stop-opacity:1;"/>
<stop offset="1" style="stop-color:rgb(89.803922%,89.803922%,89.803922%);stop-opacity:1;"/>
</linearGradient>
<linearGradient id="linear1" gradientUnits="userSpaceOnUse" x1="8899" y1="7968" x2="10854" y2="7972" >
<stop offset="0.1" style="stop-color:rgb(70.196078%,70.196078%,70.196078%);stop-opacity:1;"/>
<stop offset="1" style="stop-color:rgb(89.803922%,89.803922%,89.803922%);stop-opacity:1;"/>
</linearGradient>
</defs>
<g id="surface1">
<path style="fill-rule:evenodd;fill:rgb(86.666667%,86.666667%,86.666667%);fill-opacity:1;stroke-width:28.222;stroke-linecap:butt;stroke-linejoin:round;stroke:rgb(86.666667%,86.666667%,86.666667%);stroke-opacity:1;stroke-miterlimit:4;" d="M 10853.81726 8798.135417 C 11212.107191 8798.135417 12416.77929 8421.986111 12416.77929 8120.802083 C 12416.77929 7820.059028 12286.087926 7820.059028 12155.84109 7820.059028 C 12155.84109 8045.836806 10853.81726 8496.951389 10853.81726 8798.135417 Z M 10853.81726 8798.135417 " transform="matrix(0.0087874,0,0,0.00885827,-78.040913,-45.088583)"/>
<path style=" stroke:none;fill-rule:evenodd;fill:rgb(70.196078%,70.196078%,70.196078%);fill-opacity:1;" d="M 26.371094 27.585938 L 21.273438 30.5625 L 17.335938 30.5625 L 17.335938 28.1875 L 26.371094 22.917969 Z M 26.371094 27.585938 "/>
<path style=" stroke:none;fill-rule:evenodd;fill:rgb(70.588235%,70.588235%,70.588235%);fill-opacity:1;" d="M 21.273438 30.5625 L 17.335938 32.855469 L 17.335938 30.5625 Z M 26.371094 22.917969 L 28.777344 21.515625 L 28.777344 26.183594 L 26.371094 27.585938 Z M 26.257812 27.65625 L 21.46875 30.445312 L 17.335938 30.445312 L 17.335938 28.1875 L 26.257812 22.988281 Z M 26.257812 27.65625 "/>
<path style=" stroke:none;fill-rule:evenodd;fill:rgb(70.980392%,70.980392%,70.980392%);fill-opacity:1;" d="M 21.46875 30.445312 L 17.335938 32.855469 L 17.335938 30.445312 Z M 26.257812 22.988281 L 28.777344 21.515625 L 28.777344 26.183594 L 26.257812 27.65625 Z M 26.140625 27.726562 L 21.667969 30.332031 L 17.335938 30.332031 L 17.335938 28.1875 L 26.140625 23.058594 Z M 26.140625 27.726562 "/>
<path style=" stroke:none;fill-rule:evenodd;fill:rgb(71.372549%,71.372549%,71.372549%);fill-opacity:1;" d="M 21.667969 30.332031 L 17.335938 32.855469 L 17.335938 30.332031 Z M 26.140625 23.058594 L 28.777344 21.515625 L 28.777344 26.183594 L 26.140625 27.726562 Z M 26.027344 27.789062 L 21.863281 30.214844 L 17.335938 30.214844 L 17.335938 28.1875 L 26.027344 23.121094 Z M 26.027344 27.789062 "/>
<path style=" stroke:none;fill-rule:evenodd;fill:rgb(71.764706%,71.764706%,71.764706%);fill-opacity:1;" d="M 21.863281 30.214844 L 17.335938 32.855469 L 17.335938 30.214844 Z M 26.027344 23.121094 L 28.777344 21.515625 L 28.777344 26.183594 L 26.027344 27.789062 Z M 25.914062 27.859375 L 22.066406 30.101562 L 17.335938 30.101562 L 17.335938 28.1875 L 25.914062 23.191406 Z M 25.914062 27.859375 "/>
<path style=" stroke:none;fill-rule:evenodd;fill:rgb(72.156863%,72.156863%,72.156863%);fill-opacity:1;" d="M 22.066406 30.101562 L 17.335938 32.855469 L 17.335938 30.101562 Z M 25.914062 23.191406 L 28.777344 21.515625 L 28.777344 26.183594 L 25.914062 27.859375 Z M 25.800781 27.921875 L 22.257812 29.984375 L 17.335938 29.984375 L 17.335938 28.1875 L 25.800781 23.253906 Z M 25.800781 27.921875 "/>
<path style=" stroke:none;fill-rule:evenodd;fill:rgb(72.54902%,72.54902%,72.54902%);fill-opacity:1;" d="M 22.257812 29.984375 L 17.335938 32.855469 L 17.335938 29.984375 Z M 25.800781 23.253906 L 28.777344 21.515625 L 28.777344 26.183594 L 25.800781 27.921875 Z M 25.6875 27.992188 L 22.460938 29.871094 L 17.335938 29.871094 L 17.335938 28.1875 L 25.6875 23.324219 Z M 25.6875 27.992188 "/>
<path style=" stroke:none;fill-rule:evenodd;fill:rgb(72.941176%,72.941176%,72.941176%);fill-opacity:1;" d="M 22.460938 29.871094 L 17.335938 32.855469 L 17.335938 29.871094 Z M 25.6875 23.324219 L 28.777344 21.515625 L 28.777344 26.183594 L 25.6875 27.992188 Z M 25.570312 28.054688 L 22.652344 29.753906 L 17.335938 29.753906 L 17.335938 28.1875 L 25.570312 23.386719 Z M 25.570312 28.054688 "/>
<path style=" stroke:none;fill-rule:evenodd;fill:rgb(73.333333%,73.333333%,73.333333%);fill-opacity:1;" d="M 22.652344 29.753906 L 17.335938 32.855469 L 17.335938 29.753906 Z M 25.570312 23.386719 L 28.777344 21.515625 L 28.777344 26.183594 L 25.570312 28.054688 Z M 25.457031 28.125 L 22.855469 29.640625 L 17.335938 29.640625 L 17.335938 28.1875 L 25.457031 23.457031 Z M 25.457031 28.125 "/>
<path style=" stroke:none;fill-rule:evenodd;fill:rgb(73.72549%,73.72549%,73.72549%);fill-opacity:1;" d="M 22.855469 29.640625 L 17.335938 32.855469 L 17.335938 29.640625 Z M 25.457031 23.457031 L 28.777344 21.515625 L 28.777344 26.183594 L 25.457031 28.125 Z M 25.34375 28.1875 L 23.050781 29.523438 L 17.335938 29.523438 L 17.335938 28.1875 L 25.34375 23.519531 Z M 25.34375 28.1875 "/>
<path style=" stroke:none;fill-rule:evenodd;fill:rgb(74.117647%,74.117647%,74.117647%);fill-opacity:1;" d="M 23.050781 29.523438 L 17.335938 32.855469 L 17.335938 29.523438 Z M 25.34375 23.519531 L 28.777344 21.515625 L 28.777344 26.183594 L 25.34375 28.1875 Z M 25.230469 28.257812 L 23.25 29.410156 L 17.335938 29.410156 L 17.335938 28.1875 L 25.230469 23.589844 Z M 25.230469 28.257812 "/>
<path style=" stroke:none;fill-rule:evenodd;fill:rgb(74.509804%,74.509804%,74.509804%);fill-opacity:1;" d="M 23.25 29.410156 L 17.335938 32.855469 L 17.335938 29.410156 Z M 25.230469 23.589844 L 28.777344 21.515625 L 28.777344 26.183594 L 25.230469 28.257812 Z M 25.113281 28.320312 L 23.445312 29.292969 L 17.335938 29.292969 L 17.335938 28.1875 L 25.113281 23.652344 Z M 25.113281 28.320312 "/>
<path style=" stroke:none;fill-rule:evenodd;fill:rgb(74.901961%,74.901961%,74.901961%);fill-opacity:1;" d="M 23.445312 29.292969 L 17.335938 32.855469 L 17.335938 29.292969 Z M 25.113281 23.652344 L 28.777344 21.515625 L 28.777344 26.183594 L 25.113281 28.320312 Z M 25 28.390625 L 23.648438 29.179688 L 17.335938 29.179688 L 17.335938 28.1875 L 25 23.722656 Z M 25 28.390625 "/>
<path style=" stroke:none;fill-rule:evenodd;fill:rgb(75.294118%,75.294118%,75.294118%);fill-opacity:1;" d="M 23.648438 29.179688 L 17.335938 32.855469 L 17.335938 29.179688 Z M 25 23.722656 L 28.777344 21.515625 L 28.777344 26.183594 L 25 28.390625 Z M 24.886719 28.453125 L 23.839844 29.0625 L 17.335938 29.0625 L 17.335938 28.1875 L 24.886719 23.785156 Z M 24.886719 28.453125 "/>
<path style=" stroke:none;fill-rule:evenodd;fill:rgb(75.686275%,75.686275%,75.686275%);fill-opacity:1;" d="M 23.839844 29.0625 L 17.335938 32.855469 L 17.335938 29.0625 Z M 24.886719 23.785156 L 28.777344 21.515625 L 28.777344 26.183594 L 24.886719 28.453125 Z M 24.773438 28.523438 L 24.042969 28.949219 L 17.335938 28.949219 L 17.335938 28.1875 L 24.773438 23.855469 Z M 24.773438 28.523438 "/>
<path style=" stroke:none;fill-rule:evenodd;fill:rgb(76.078431%,76.078431%,76.078431%);fill-opacity:1;" d="M 24.042969 28.949219 L 17.335938 32.855469 L 17.335938 28.949219 Z M 24.773438 23.855469 L 28.777344 21.515625 L 28.777344 26.183594 L 24.773438 28.523438 Z M 24.65625 28.585938 L 24.234375 28.832031 L 17.335938 28.832031 L 17.335938 28.1875 L 24.65625 23.917969 Z M 24.65625 28.585938 "/>
<path style=" stroke:none;fill-rule:evenodd;fill:rgb(76.470588%,76.470588%,76.470588%);fill-opacity:1;" d="M 24.234375 28.832031 L 17.335938 32.855469 L 17.335938 28.832031 Z M 24.65625 23.917969 L 28.777344 21.515625 L 28.777344 26.183594 L 24.65625 28.585938 Z M 24.542969 28.65625 L 24.429688 28.71875 L 17.335938 28.71875 L 17.335938 28.1875 L 24.542969 23.988281 Z M 24.542969 28.65625 "/>
<path style=" stroke:none;fill-rule:evenodd;fill:rgb(76.862745%,76.862745%,76.862745%);fill-opacity:1;" d="M 24.429688 28.71875 L 17.335938 32.855469 L 17.335938 28.71875 Z M 24.542969 23.988281 L 28.777344 21.515625 L 28.777344 26.183594 L 24.542969 28.65625 Z M 24.429688 28.601562 L 17.335938 28.601562 L 17.335938 28.1875 L 24.429688 24.050781 Z M 24.429688 28.601562 "/>
<path style=" stroke:none;fill-rule:evenodd;fill:rgb(77.254902%,77.254902%,77.254902%);fill-opacity:1;" d="M 24.429688 28.601562 L 24.429688 24.050781 L 28.777344 21.515625 L 28.777344 26.183594 L 17.335938 32.855469 L 17.335938 28.601562 Z M 24.316406 28.488281 L 17.335938 28.488281 L 17.335938 28.1875 L 24.316406 24.121094 Z M 24.316406 28.488281 "/>
<path style=" stroke:none;fill-rule:evenodd;fill:rgb(77.647059%,77.647059%,77.647059%);fill-opacity:1;" d="M 24.316406 28.488281 L 24.316406 24.121094 L 28.777344 21.515625 L 28.777344 26.183594 L 17.335938 32.855469 L 17.335938 28.488281 Z M 24.199219 28.371094 L 17.335938 28.371094 L 17.335938 28.1875 L 24.199219 24.183594 Z M 24.199219 28.371094 "/>
<path style=" stroke:none;fill-rule:evenodd;fill:rgb(78.039216%,78.039216%,78.039216%);fill-opacity:1;" d="M 24.199219 28.371094 L 24.199219 24.183594 L 28.777344 21.515625 L 28.777344 26.183594 L 17.335938 32.855469 L 17.335938 28.371094 Z M 24.078125 28.25 L 17.441406 28.25 L 17.441406 28.125 L 24.078125 24.253906 Z M 24.078125 28.25 "/>
<path style=" stroke:none;fill-rule:evenodd;fill:rgb(78.431373%,78.431373%,78.431373%);fill-opacity:1;" d="M 17.441406 28.25 L 24.078125 28.25 L 24.078125 24.253906 L 28.777344 21.515625 L 28.777344 26.183594 L 17.335938 32.855469 L 17.335938 28.1875 L 17.441406 28.125 Z M 23.964844 28.132812 L 17.558594 28.132812 L 17.558594 28.0625 L 23.964844 24.324219 Z M 23.964844 28.132812 "/>
<path style=" stroke:none;fill-rule:evenodd;fill:rgb(78.823529%,78.823529%,78.823529%);fill-opacity:1;" d="M 17.558594 28.132812 L 23.964844 28.132812 L 23.964844 24.324219 L 28.777344 21.515625 L 28.777344 26.183594 L 17.335938 32.855469 L 17.335938 28.1875 L 17.558594 28.0625 Z M 23.847656 28.019531 L 17.671875 28.019531 L 17.671875 27.992188 L 23.847656 24.386719 Z M 23.847656 28.019531 "/>
<path style=" stroke:none;fill-rule:evenodd;fill:rgb(79.215686%,79.215686%,79.215686%);fill-opacity:1;" d="M 17.671875 28.019531 L 23.847656 28.019531 L 23.847656 24.386719 L 28.777344 21.515625 L 28.777344 26.183594 L 17.335938 32.855469 L 17.335938 28.1875 L 17.671875 27.992188 Z M 23.734375 27.902344 L 17.820312 27.902344 L 23.734375 24.457031 Z M 23.734375 27.902344 "/>
<path style=" stroke:none;fill-rule:evenodd;fill:rgb(79.607843%,79.607843%,79.607843%);fill-opacity:1;" d="M 23.734375 27.902344 L 23.734375 24.457031 L 28.777344 21.515625 L 28.777344 26.183594 L 17.335938 32.855469 L 17.335938 28.1875 L 17.820312 27.902344 Z M 23.621094 27.789062 L 18.023438 27.789062 L 23.621094 24.519531 Z M 23.621094 27.789062 "/>
<path style=" stroke:none;fill-rule:evenodd;fill:rgb(80%,80%,80%);fill-opacity:1;" d="M 23.621094 27.789062 L 23.621094 24.519531 L 28.777344 21.515625 L 28.777344 26.183594 L 17.335938 32.855469 L 17.335938 28.1875 L 18.023438 27.789062 Z M 23.507812 27.671875 L 18.214844 27.671875 L 23.507812 24.589844 Z M 23.507812 27.671875 "/>
<path style=" stroke:none;fill-rule:evenodd;fill:rgb(80.392157%,80.392157%,80.392157%);fill-opacity:1;" d="M 23.507812 27.671875 L 23.507812 24.589844 L 28.777344 21.515625 L 28.777344 26.183594 L 17.335938 32.855469 L 17.335938 28.1875 L 18.214844 27.671875 Z M 23.390625 27.558594 L 18.417969 27.558594 L 23.390625 24.660156 Z M 23.390625 27.558594 "/>
<path style=" stroke:none;fill-rule:evenodd;fill:rgb(80.784314%,80.784314%,80.784314%);fill-opacity:1;" d="M 23.390625 27.558594 L 23.390625 24.660156 L 28.777344 21.515625 L 28.777344 26.183594 L 17.335938 32.855469 L 17.335938 28.1875 L 18.417969 27.558594 Z M 23.277344 27.441406 L 18.613281 27.441406 L 23.277344 24.722656 Z M 23.277344 27.441406 "/>
<path style=" stroke:none;fill-rule:evenodd;fill:rgb(81.176471%,81.176471%,81.176471%);fill-opacity:1;" d="M 23.277344 27.441406 L 23.277344 24.722656 L 28.777344 21.515625 L 28.777344 26.183594 L 17.335938 32.855469 L 17.335938 28.1875 L 18.613281 27.441406 Z M 23.164062 27.328125 L 18.8125 27.328125 L 23.164062 24.792969 Z M 23.164062 27.328125 "/>
<path style=" stroke:none;fill-rule:evenodd;fill:rgb(81.568627%,81.568627%,81.568627%);fill-opacity:1;" d="M 23.164062 27.328125 L 23.164062 24.792969 L 28.777344 21.515625 L 28.777344 26.183594 L 17.335938 32.855469 L 17.335938 28.1875 L 18.8125 27.328125 Z M 23.050781 27.210938 L 19.007812 27.210938 L 23.050781 24.855469 Z M 23.050781 27.210938 "/>
<path style=" stroke:none;fill-rule:evenodd;fill:rgb(81.960784%,81.960784%,81.960784%);fill-opacity:1;" d="M 23.050781 27.210938 L 23.050781 24.855469 L 28.777344 21.515625 L 28.777344 26.183594 L 17.335938 32.855469 L 17.335938 28.1875 L 19.007812 27.210938 Z M 22.933594 27.097656 L 19.210938 27.097656 L 22.933594 24.925781 Z M 22.933594 27.097656 "/>
<path style=" stroke:none;fill-rule:evenodd;fill:rgb(82.352941%,82.352941%,82.352941%);fill-opacity:1;" d="M 22.933594 27.097656 L 22.933594 24.925781 L 28.777344 21.515625 L 28.777344 26.183594 L 17.335938 32.855469 L 17.335938 28.1875 L 19.210938 27.097656 Z M 22.820312 26.980469 L 19.402344 26.980469 L 22.820312 24.988281 Z M 22.820312 26.980469 "/>
<path style=" stroke:none;fill-rule:evenodd;fill:rgb(82.745098%,82.745098%,82.745098%);fill-opacity:1;" d="M 22.820312 26.980469 L 22.820312 24.988281 L 28.777344 21.515625 L 28.777344 26.183594 L 17.335938 32.855469 L 17.335938 28.1875 L 19.402344 26.980469 Z M 22.707031 26.867188 L 19.605469 26.867188 L 22.707031 25.058594 Z M 22.707031 26.867188 "/>
<path style=" stroke:none;fill-rule:evenodd;fill:rgb(83.137255%,83.137255%,83.137255%);fill-opacity:1;" d="M 22.707031 26.867188 L 22.707031 25.058594 L 28.777344 21.515625 L 28.777344 26.183594 L 17.335938 32.855469 L 17.335938 28.1875 L 19.605469 26.867188 Z M 22.59375 26.753906 L 19.796875 26.753906 L 22.59375 25.121094 Z M 22.59375 26.753906 "/>
<path style=" stroke:none;fill-rule:evenodd;fill:rgb(83.529412%,83.529412%,83.529412%);fill-opacity:1;" d="M 22.59375 26.753906 L 22.59375 25.121094 L 28.777344 21.515625 L 28.777344 26.183594 L 17.335938 32.855469 L 17.335938 28.1875 L 19.796875 26.753906 Z M 22.476562 26.636719 L 20 26.636719 L 22.476562 25.191406 Z M 22.476562 26.636719 "/>
<path style=" stroke:none;fill-rule:evenodd;fill:rgb(83.921569%,83.921569%,83.921569%);fill-opacity:1;" d="M 22.476562 26.636719 L 22.476562 25.191406 L 28.777344 21.515625 L 28.777344 26.183594 L 17.335938 32.855469 L 17.335938 28.1875 L 20 26.636719 Z M 22.363281 26.523438 L 20.195312 26.523438 L 22.363281 25.253906 Z M 22.363281 26.523438 "/>
<path style=" stroke:none;fill-rule:evenodd;fill:rgb(84.313725%,84.313725%,84.313725%);fill-opacity:1;" d="M 22.363281 26.523438 L 22.363281 25.253906 L 28.777344 21.515625 L 28.777344 26.183594 L 17.335938 32.855469 L 17.335938 28.1875 L 20.195312 26.523438 Z M 22.25 26.40625 L 20.394531 26.40625 L 22.25 25.324219 Z M 22.25 26.40625 "/>
<path style=" stroke:none;fill-rule:evenodd;fill:rgb(84.705882%,84.705882%,84.705882%);fill-opacity:1;" d="M 22.25 26.40625 L 22.25 25.324219 L 28.777344 21.515625 L 28.777344 26.183594 L 17.335938 32.855469 L 17.335938 28.1875 L 20.394531 26.40625 Z M 22.136719 26.292969 L 20.589844 26.292969 L 22.136719 25.386719 Z M 22.136719 26.292969 "/>
<path style=" stroke:none;fill-rule:evenodd;fill:rgb(85.098039%,85.098039%,85.098039%);fill-opacity:1;" d="M 22.136719 26.292969 L 22.136719 25.386719 L 28.777344 21.515625 L 28.777344 26.183594 L 17.335938 32.855469 L 17.335938 28.1875 L 20.589844 26.292969 Z M 22.019531 26.175781 L 20.789062 26.175781 L 22.019531 25.457031 Z M 22.019531 26.175781 "/>
<path style=" stroke:none;fill-rule:evenodd;fill:rgb(85.490196%,85.490196%,85.490196%);fill-opacity:1;" d="M 22.019531 26.175781 L 22.019531 25.457031 L 28.777344 21.515625 L 28.777344 26.183594 L 17.335938 32.855469 L 17.335938 28.1875 L 20.789062 26.175781 Z M 21.90625 26.0625 L 20.984375 26.0625 L 21.90625 25.519531 Z M 21.90625 26.0625 "/>
<path style=" stroke:none;fill-rule:evenodd;fill:rgb(85.882353%,85.882353%,85.882353%);fill-opacity:1;" d="M 21.90625 26.0625 L 21.90625 25.519531 L 28.777344 21.515625 L 28.777344 26.183594 L 17.335938 32.855469 L 17.335938 28.1875 L 20.984375 26.0625 Z M 21.785156 25.9375 L 21.195312 25.9375 L 21.785156 25.589844 Z M 21.785156 25.9375 "/>
<path style=" stroke:none;fill-rule:evenodd;fill:rgb(86.27451%,86.27451%,86.27451%);fill-opacity:1;" d="M 21.785156 25.9375 L 21.785156 25.589844 L 28.777344 21.515625 L 28.777344 26.183594 L 17.335938 32.855469 L 17.335938 28.1875 L 21.195312 25.9375 Z M 21.667969 25.820312 L 21.398438 25.820312 L 21.667969 25.664062 Z M 21.667969 25.820312 "/>
<path style=" stroke:none;fill-rule:evenodd;fill:rgb(86.666667%,86.666667%,86.666667%);fill-opacity:1;" d="M 21.667969 25.820312 L 21.667969 25.664062 L 28.777344 21.515625 L 28.777344 26.183594 L 17.335938 32.855469 L 17.335938 28.1875 L 21.398438 25.820312 Z M 21.667969 25.820312 "/>
<path style=" stroke:none;fill-rule:evenodd;fill:rgb(87.058824%,87.058824%,87.058824%);fill-opacity:1;" d="M 17.335938 32.855469 L 17.335938 28.1875 L 28.777344 21.515625 L 28.777344 26.183594 Z M 17.335938 32.855469 "/>
<path style=" stroke:none;fill-rule:evenodd;fill:rgb(87.45098%,87.45098%,87.45098%);fill-opacity:1;" d="M 17.335938 32.855469 L 17.335938 28.1875 L 28.777344 21.515625 L 28.777344 26.183594 Z M 17.335938 32.855469 "/>
<path style=" stroke:none;fill-rule:evenodd;fill:rgb(87.843137%,87.843137%,87.843137%);fill-opacity:1;" d="M 17.335938 32.855469 L 17.335938 28.1875 L 28.777344 21.515625 L 28.777344 26.183594 Z M 17.335938 32.855469 "/>
<path style=" stroke:none;fill-rule:evenodd;fill:rgb(88.235294%,88.235294%,88.235294%);fill-opacity:1;" d="M 17.335938 32.855469 L 17.335938 28.1875 L 28.777344 21.515625 L 28.777344 26.183594 Z M 17.335938 32.855469 "/>
<path style=" stroke:none;fill-rule:evenodd;fill:rgb(88.627451%,88.627451%,88.627451%);fill-opacity:1;" d="M 17.335938 32.855469 L 17.335938 28.1875 L 28.777344 21.515625 L 28.777344 26.183594 Z M 17.335938 32.855469 "/>
<path style=" stroke:none;fill-rule:evenodd;fill:rgb(89.019608%,89.019608%,89.019608%);fill-opacity:1;" d="M 17.335938 32.855469 L 17.335938 28.1875 L 28.777344 21.515625 L 28.777344 26.183594 Z M 17.335938 32.855469 "/>
<path style="fill-rule:evenodd;fill:rgb(89.803922%,89.803922%,89.803922%);fill-opacity:1;stroke-width:40;stroke-linecap:butt;stroke-linejoin:round;stroke:rgb(100%,100%,100%);stroke-opacity:1;stroke-miterlimit:4;" d="M 10853.81726 8799.017361 L 10853.81726 8272.055556 L 12155.84109 7518.875 L 12155.84109 8045.836806 Z M 10853.81726 8799.017361 " transform="matrix(0.0087874,0,0,0.00885827,-78.040913,-45.088583)"/>
<path style="fill-rule:evenodd;fill:url(#linear0);stroke-width:40;stroke-linecap:butt;stroke-linejoin:round;stroke:rgb(100%,100%,100%);stroke-opacity:1;stroke-miterlimit:4;" d="M 10853.81726 8272.055556 L 8901.00378 7143.166667 L 10203.02761 6389.986111 L 12155.84109 7518.875 Z M 10853.81726 8272.055556 " transform="matrix(0.0087874,0,0,0.00885827,-78.040913,-45.088583)"/>
<path style="fill-rule:evenodd;fill:url(#linear1);stroke-width:40;stroke-linecap:butt;stroke-linejoin:round;stroke:rgb(100%,100%,100%);stroke-opacity:1;stroke-miterlimit:4;" d="M 8901.00378 7668.805556 L 8901.00378 7141.84375 L 10853.81726 8271.173611 L 10853.81726 8798.135417 Z M 8901.00378 7668.805556 " transform="matrix(0.0087874,0,0,0.00885827,-78.040913,-45.088583)"/>
<path style="fill:none;stroke-width:40;stroke-linecap:butt;stroke-linejoin:round;stroke:rgb(0%,0%,0%);stroke-opacity:1;stroke-miterlimit:4;" d="M 8901.00378 7670.128472 L 8901.00378 7143.166667 L 10203.02761 6389.986111 L 12155.84109 7518.875 L 12155.84109 8045.836806 L 10853.81726 8799.017361 Z M 8901.00378 7670.128472 " transform="matrix(0.0087874,0,0,0.00885827,-78.040913,-45.088583)"/>
<path style="fill-rule:evenodd;fill:rgb(81.960784%,38.039216%,42.352941%);fill-opacity:1;stroke-width:40;stroke-linecap:butt;stroke-linejoin:round;stroke:rgb(49.803922%,49.803922%,49.803922%);stroke-opacity:1;stroke-miterlimit:4;" d="M 10463.96581 8421.986111 L 10463.96581 8196.208333 L 10594.212646 8271.173611 L 10594.212646 8496.951389 Z M 10463.96581 8421.986111 " transform="matrix(0.0087874,0,0,0.00885827,-78.040913,-45.088583)"/>
<path style="fill-rule:evenodd;fill:rgb(80%,80%,80%);fill-opacity:1;stroke-width:40;stroke-linecap:butt;stroke-linejoin:round;stroke:rgb(0%,0%,0%);stroke-opacity:1;stroke-miterlimit:4;" d="M 10332.829917 6464.951389 L 10332.829917 5109.84375 L 10463.076753 5109.84375 L 10463.076753 6539.916667 Z M 10332.829917 6464.951389 " transform="matrix(0.0087874,0,0,0.00885827,-78.040913,-45.088583)"/>
<path style="fill-rule:evenodd;fill:rgb(80%,80%,80%);fill-opacity:1;stroke-width:40;stroke-linecap:butt;stroke-linejoin:round;stroke:rgb(0%,0%,0%);stroke-opacity:1;stroke-miterlimit:4;" d="M 11895.791947 7368.0625 L 11895.791947 6012.954861 L 12026.038782 6012.954861 L 12026.038782 7443.027778 Z M 11895.791947 7368.0625 " transform="matrix(0.0087874,0,0,0.00885827,-78.040913,-45.088583)"/>
</g>
</svg>
