<?xml version="1.0" encoding="UTF-8"?>
<svg xmlns="http://www.w3.org/2000/svg" xmlns:xlink="http://www.w3.org/1999/xlink" width="31pt" height="21pt" viewBox="0 0 31 21" version="1.1">
<defs>
<linearGradient id="linear0" gradientUnits="userSpaceOnUse" x1="7389" y1="8868" x2="9600" y2="8872" >
<stop offset="0.1" style="stop-color:rgb(70.196078%,70.196078%,70.196078%);stop-opacity:1;"/>
<stop offset="1" style="stop-color:rgb(89.803922%,89.803922%,89.803922%);stop-opacity:1;"/>
</linearGradient>
<linearGradient id="linear1" gradientUnits="userSpaceOnUse" x1="8997" y1="7420" x2="8997" y2="9276" >
<stop offset="0.1" style="stop-color:rgb(70.196078%,70.196078%,70.196078%);stop-opacity:1;"/>
<stop offset="1" style="stop-color:rgb(89.803922%,89.803922%,89.803922%);stop-opacity:1;"/>
</linearGradient>
</defs>
<g id="surface1">
<path style="fill-rule:evenodd;fill:rgb(86.666667%,86.666667%,86.666667%);fill-opacity:1;stroke-width:28.222;stroke-linecap:butt;stroke-linejoin:round;stroke:rgb(86.666667%,86.666667%,86.666667%);stroke-opacity:1;stroke-miterlimit:4;" d="M 9599.087534 9739.798611 C 9875.139701 9739.798611 10902.889477 9450.079861 10902.889477 9218.128472 C 10902.889477 8986.177083 10877.995884 8870.201389 10601.943716 8870.201389 C 10601.943716 9043.944444 9599.087534 9506.965278 9599.087534 9739.798611 Z M 9599.087534 9739.798611 " transform="matrix(0.0087874,0,0,0.00885827,-64.780724,-65.551181)"/>
<path style="fill-rule:evenodd;fill:url(#linear0);stroke-width:40;stroke-linecap:butt;stroke-linejoin:round;stroke:rgb(100%,100%,100%);stroke-opacity:1;stroke-miterlimit:4;" d="M 7392.00378 8464.065972 L 7392.00378 8000.163194 L 9599.087534 9275.895833 L 9599.087534 9739.798611 Z M 7392.00378 8464.065972 " transform="matrix(0.0087874,0,0,0.00885827,-64.780724,-65.551181)"/>
<path style=" stroke:none;fill-rule:evenodd;fill:rgb(70.196078%,70.196078%,70.196078%);fill-opacity:1;" d="M 26.703125 16.566406 L 22.898438 18.789062 L 19.570312 18.789062 L 19.570312 16.617188 L 26.703125 12.453125 Z M 26.703125 16.566406 "/>
<path style=" stroke:none;fill-rule:evenodd;fill:rgb(70.588235%,70.588235%,70.588235%);fill-opacity:1;" d="M 22.898438 18.789062 L 19.570312 20.726562 L 19.570312 18.789062 Z M 26.703125 12.453125 L 28.382812 11.480469 L 28.382812 15.589844 L 26.703125 16.566406 Z M 26.617188 16.617188 L 23.050781 18.699219 L 19.570312 18.699219 L 19.570312 16.617188 L 26.617188 12.507812 Z M 26.617188 16.617188 "/>
<path style=" stroke:none;fill-rule:evenodd;fill:rgb(70.980392%,70.980392%,70.980392%);fill-opacity:1;" d="M 23.050781 18.699219 L 19.570312 20.726562 L 19.570312 18.699219 Z M 26.617188 12.507812 L 28.382812 11.480469 L 28.382812 15.589844 L 26.617188 16.617188 Z M 26.519531 16.679688 L 23.214844 18.601562 L 19.570312 18.601562 L 19.570312 16.617188 L 26.519531 12.570312 Z M 26.519531 16.679688 "/>
<path style=" stroke:none;fill-rule:evenodd;fill:rgb(71.372549%,71.372549%,71.372549%);fill-opacity:1;" d="M 23.214844 18.601562 L 19.570312 20.726562 L 19.570312 18.601562 Z M 26.519531 12.570312 L 28.382812 11.480469 L 28.382812 15.589844 L 26.519531 16.679688 Z M 26.433594 16.722656 L 23.367188 18.515625 L 19.570312 18.515625 L 19.570312 16.617188 L 26.433594 12.613281 Z M 26.433594 16.722656 "/>
<path style=" stroke:none;fill-rule:evenodd;fill:rgb(71.764706%,71.764706%,71.764706%);fill-opacity:1;" d="M 23.367188 18.515625 L 19.570312 20.726562 L 19.570312 18.515625 Z M 26.433594 12.613281 L 28.382812 11.480469 L 28.382812 15.589844 L 26.433594 16.722656 Z M 26.335938 16.785156 L 23.53125 18.417969 L 19.570312 18.417969 L 19.570312 16.617188 L 26.335938 12.675781 Z M 26.335938 16.785156 "/>
<path style=" stroke:none;fill-rule:evenodd;fill:rgb(72.156863%,72.156863%,72.156863%);fill-opacity:1;" d="M 23.53125 18.417969 L 19.570312 20.726562 L 19.570312 18.417969 Z M 26.335938 12.675781 L 28.382812 11.480469 L 28.382812 15.589844 L 26.335938 16.785156 Z M 26.246094 16.839844 L 23.691406 18.328125 L 19.570312 18.328125 L 19.570312 16.617188 L 26.246094 12.730469 Z M 26.246094 16.839844 "/>
<path style=" stroke:none;fill-rule:evenodd;fill:rgb(72.54902%,72.54902%,72.54902%);fill-opacity:1;" d="M 23.691406 18.328125 L 19.570312 20.726562 L 19.570312 18.328125 Z M 26.246094 12.730469 L 28.382812 11.480469 L 28.382812 15.589844 L 26.246094 16.839844 Z M 26.152344 16.894531 L 23.859375 18.230469 L 19.570312 18.230469 L 19.570312 16.617188 L 26.152344 12.78125 Z M 26.152344 16.894531 "/>
<path style=" stroke:none;fill-rule:evenodd;fill:rgb(72.941176%,72.941176%,72.941176%);fill-opacity:1;" d="M 23.859375 18.230469 L 19.570312 20.726562 L 19.570312 18.230469 Z M 26.152344 12.78125 L 28.382812 11.480469 L 28.382812 15.589844 L 26.152344 16.894531 Z M 26.0625 16.945312 L 24.007812 18.140625 L 19.570312 18.140625 L 19.570312 16.617188 L 26.0625 12.835938 Z M 26.0625 16.945312 "/>
<path style=" stroke:none;fill-rule:evenodd;fill:rgb(73.333333%,73.333333%,73.333333%);fill-opacity:1;" d="M 24.007812 18.140625 L 19.570312 20.726562 L 19.570312 18.140625 Z M 26.0625 12.835938 L 28.382812 11.480469 L 28.382812 15.589844 L 26.0625 16.945312 Z M 25.964844 17 L 24.175781 18.042969 L 19.570312 18.042969 L 19.570312 16.617188 L 25.964844 12.890625 Z M 25.964844 17 "/>
<path style=" stroke:none;fill-rule:evenodd;fill:rgb(73.72549%,73.72549%,73.72549%);fill-opacity:1;" d="M 24.175781 18.042969 L 19.570312 20.726562 L 19.570312 18.042969 Z M 25.964844 12.890625 L 28.382812 11.480469 L 28.382812 15.589844 L 25.964844 17 Z M 25.878906 17.050781 L 24.324219 17.957031 L 19.570312 17.957031 L 19.570312 16.617188 L 25.878906 12.941406 Z M 25.878906 17.050781 "/>
<path style=" stroke:none;fill-rule:evenodd;fill:rgb(74.117647%,74.117647%,74.117647%);fill-opacity:1;" d="M 24.324219 17.957031 L 19.570312 20.726562 L 19.570312 17.957031 Z M 25.878906 12.941406 L 28.382812 11.480469 L 28.382812 15.589844 L 25.878906 17.050781 Z M 25.78125 17.105469 L 24.492188 17.859375 L 19.570312 17.859375 L 19.570312 16.617188 L 25.78125 12.996094 Z M 25.78125 17.105469 "/>
<path style=" stroke:none;fill-rule:evenodd;fill:rgb(74.509804%,74.509804%,74.509804%);fill-opacity:1;" d="M 24.492188 17.859375 L 19.570312 20.726562 L 19.570312 17.859375 Z M 25.78125 12.996094 L 28.382812 11.480469 L 28.382812 15.589844 L 25.78125 17.105469 Z M 25.695312 17.160156 L 24.648438 17.769531 L 19.570312 17.769531 L 19.570312 16.617188 L 25.695312 13.046875 Z M 25.695312 17.160156 "/>
<path style=" stroke:none;fill-rule:evenodd;fill:rgb(74.901961%,74.901961%,74.901961%);fill-opacity:1;" d="M 24.648438 17.769531 L 19.570312 20.726562 L 19.570312 17.769531 Z M 25.695312 13.046875 L 28.382812 11.480469 L 28.382812 15.589844 L 25.695312 17.160156 Z M 25.597656 17.210938 L 24.816406 17.671875 L 19.570312 17.671875 L 19.570312 16.617188 L 25.597656 13.101562 Z M 25.597656 17.210938 "/>
<path style=" stroke:none;fill-rule:evenodd;fill:rgb(75.294118%,75.294118%,75.294118%);fill-opacity:1;" d="M 24.816406 17.671875 L 19.570312 20.726562 L 19.570312 17.671875 Z M 25.597656 13.101562 L 28.382812 11.480469 L 28.382812 15.589844 L 25.597656 17.210938 Z M 25.511719 17.265625 L 24.964844 17.582031 L 19.570312 17.582031 L 19.570312 16.617188 L 25.511719 13.15625 Z M 25.511719 17.265625 "/>
<path style=" stroke:none;fill-rule:evenodd;fill:rgb(75.686275%,75.686275%,75.686275%);fill-opacity:1;" d="M 24.964844 17.582031 L 19.570312 20.726562 L 19.570312 17.582031 Z M 25.511719 13.15625 L 28.382812 11.480469 L 28.382812 15.589844 L 25.511719 17.265625 Z M 25.414062 17.316406 L 25.132812 17.484375 L 19.570312 17.484375 L 19.570312 16.617188 L 25.414062 13.207031 Z M 25.414062 17.316406 "/>
<path style=" stroke:none;fill-rule:evenodd;fill:rgb(76.078431%,76.078431%,76.078431%);fill-opacity:1;" d="M 25.132812 17.484375 L 19.570312 20.726562 L 19.570312 17.484375 Z M 25.414062 13.207031 L 28.382812 11.480469 L 28.382812 15.589844 L 25.414062 17.316406 Z M 25.324219 17.371094 L 25.28125 17.398438 L 19.570312 17.398438 L 19.570312 16.617188 L 25.324219 13.261719 Z M 25.324219 17.371094 "/>
<path style=" stroke:none;fill-rule:evenodd;fill:rgb(76.470588%,76.470588%,76.470588%);fill-opacity:1;" d="M 25.28125 17.398438 L 19.570312 20.726562 L 19.570312 17.398438 Z M 25.324219 13.261719 L 28.382812 11.480469 L 28.382812 15.589844 L 25.324219 17.371094 Z M 25.238281 17.308594 L 19.570312 17.308594 L 19.570312 16.617188 L 25.238281 13.3125 Z M 25.238281 17.308594 "/>
<path style=" stroke:none;fill-rule:evenodd;fill:rgb(76.862745%,76.862745%,76.862745%);fill-opacity:1;" d="M 25.238281 17.308594 L 25.238281 13.3125 L 28.382812 11.480469 L 28.382812 15.589844 L 19.570312 20.726562 L 19.570312 17.308594 Z M 25.140625 17.210938 L 19.570312 17.210938 L 19.570312 16.617188 L 25.140625 13.367188 Z M 25.140625 17.210938 "/>
<path style=" stroke:none;fill-rule:evenodd;fill:rgb(77.254902%,77.254902%,77.254902%);fill-opacity:1;" d="M 25.140625 17.210938 L 25.140625 13.367188 L 28.382812 11.480469 L 28.382812 15.589844 L 19.570312 20.726562 L 19.570312 17.210938 Z M 25.054688 17.121094 L 19.570312 17.121094 L 19.570312 16.617188 L 25.054688 13.421875 Z M 25.054688 17.121094 "/>
<path style=" stroke:none;fill-rule:evenodd;fill:rgb(77.647059%,77.647059%,77.647059%);fill-opacity:1;" d="M 25.054688 17.121094 L 25.054688 13.421875 L 28.382812 11.480469 L 28.382812 15.589844 L 19.570312 20.726562 L 19.570312 17.121094 Z M 24.957031 17.027344 L 19.570312 17.027344 L 19.570312 16.617188 L 24.957031 13.480469 Z M 24.957031 17.027344 "/>
<path style=" stroke:none;fill-rule:evenodd;fill:rgb(78.039216%,78.039216%,78.039216%);fill-opacity:1;" d="M 24.957031 17.027344 L 24.957031 13.480469 L 28.382812 11.480469 L 28.382812 15.589844 L 19.570312 20.726562 L 19.570312 17.027344 Z M 24.867188 16.9375 L 19.570312 16.9375 L 19.570312 16.617188 L 24.867188 13.527344 Z M 24.867188 16.9375 "/>
<path style=" stroke:none;fill-rule:evenodd;fill:rgb(78.431373%,78.431373%,78.431373%);fill-opacity:1;" d="M 24.867188 16.9375 L 24.867188 13.527344 L 28.382812 11.480469 L 28.382812 15.589844 L 19.570312 20.726562 L 19.570312 16.9375 Z M 24.773438 16.839844 L 19.632812 16.839844 L 19.632812 16.582031 L 24.773438 13.589844 Z M 24.773438 16.839844 "/>
<path style=" stroke:none;fill-rule:evenodd;fill:rgb(78.823529%,78.823529%,78.823529%);fill-opacity:1;" d="M 19.632812 16.839844 L 24.773438 16.839844 L 24.773438 13.589844 L 28.382812 11.480469 L 28.382812 15.589844 L 19.570312 20.726562 L 19.570312 16.617188 L 19.632812 16.582031 Z M 24.683594 16.75 L 19.71875 16.75 L 19.71875 16.53125 L 24.683594 13.632812 Z M 24.683594 16.75 "/>
<path style=" stroke:none;fill-rule:evenodd;fill:rgb(79.215686%,79.215686%,79.215686%);fill-opacity:1;" d="M 19.71875 16.75 L 24.683594 16.75 L 24.683594 13.632812 L 28.382812 11.480469 L 28.382812 15.589844 L 19.570312 20.726562 L 19.570312 16.617188 L 19.71875 16.53125 Z M 24.585938 16.652344 L 19.816406 16.652344 L 19.816406 16.476562 L 24.585938 13.695312 Z M 24.585938 16.652344 "/>
<path style=" stroke:none;fill-rule:evenodd;fill:rgb(79.607843%,79.607843%,79.607843%);fill-opacity:1;" d="M 19.816406 16.652344 L 24.585938 16.652344 L 24.585938 13.695312 L 28.382812 11.480469 L 28.382812 15.589844 L 19.570312 20.726562 L 19.570312 16.617188 L 19.816406 16.476562 Z M 24.5 16.566406 L 19.902344 16.566406 L 19.902344 16.421875 L 24.5 13.746094 Z M 24.5 16.566406 "/>
<path style=" stroke:none;fill-rule:evenodd;fill:rgb(80%,80%,80%);fill-opacity:1;" d="M 19.902344 16.566406 L 24.5 16.566406 L 24.5 13.746094 L 28.382812 11.480469 L 28.382812 15.589844 L 19.570312 20.726562 L 19.570312 16.617188 L 19.902344 16.421875 Z M 24.402344 16.46875 L 20 16.46875 L 20 16.371094 L 24.402344 13.800781 Z M 24.402344 16.46875 "/>
<path style=" stroke:none;fill-rule:evenodd;fill:rgb(80.392157%,80.392157%,80.392157%);fill-opacity:1;" d="M 20 16.46875 L 24.402344 16.46875 L 24.402344 13.800781 L 28.382812 11.480469 L 28.382812 15.589844 L 19.570312 20.726562 L 19.570312 16.617188 L 20 16.371094 Z M 24.316406 16.378906 L 20.089844 16.378906 L 20.089844 16.316406 L 24.316406 13.855469 Z M 24.316406 16.378906 "/>
<path style=" stroke:none;fill-rule:evenodd;fill:rgb(80.784314%,80.784314%,80.784314%);fill-opacity:1;" d="M 20.089844 16.378906 L 24.316406 16.378906 L 24.316406 13.855469 L 28.382812 11.480469 L 28.382812 15.589844 L 19.570312 20.726562 L 19.570312 16.617188 L 20.089844 16.316406 Z M 24.21875 16.28125 L 20.183594 16.28125 L 20.183594 16.265625 L 24.21875 13.90625 Z M 24.21875 16.28125 "/>
<path style=" stroke:none;fill-rule:evenodd;fill:rgb(81.176471%,81.176471%,81.176471%);fill-opacity:1;" d="M 20.183594 16.28125 L 24.21875 16.28125 L 24.21875 13.90625 L 28.382812 11.480469 L 28.382812 15.589844 L 19.570312 20.726562 L 19.570312 16.617188 L 20.183594 16.265625 Z M 24.128906 16.191406 L 20.300781 16.191406 L 24.128906 13.960938 Z M 24.128906 16.191406 "/>
<path style=" stroke:none;fill-rule:evenodd;fill:rgb(81.568627%,81.568627%,81.568627%);fill-opacity:1;" d="M 24.128906 16.191406 L 24.128906 13.960938 L 28.382812 11.480469 L 28.382812 15.589844 L 19.570312 20.726562 L 19.570312 16.617188 L 20.300781 16.191406 Z M 24.035156 16.09375 L 20.464844 16.09375 L 24.035156 14.015625 Z M 24.035156 16.09375 "/>
<path style=" stroke:none;fill-rule:evenodd;fill:rgb(81.960784%,81.960784%,81.960784%);fill-opacity:1;" d="M 24.035156 16.09375 L 24.035156 14.015625 L 28.382812 11.480469 L 28.382812 15.589844 L 19.570312 20.726562 L 19.570312 16.617188 L 20.464844 16.09375 Z M 23.945312 16.007812 L 20.617188 16.007812 L 23.945312 14.066406 Z M 23.945312 16.007812 "/>
<path style=" stroke:none;fill-rule:evenodd;fill:rgb(82.352941%,82.352941%,82.352941%);fill-opacity:1;" d="M 23.945312 16.007812 L 23.945312 14.066406 L 28.382812 11.480469 L 28.382812 15.589844 L 19.570312 20.726562 L 19.570312 16.617188 L 20.617188 16.007812 Z M 23.847656 15.910156 L 20.78125 15.910156 L 23.847656 14.121094 Z M 23.847656 15.910156 "/>
<path style=" stroke:none;fill-rule:evenodd;fill:rgb(82.745098%,82.745098%,82.745098%);fill-opacity:1;" d="M 23.847656 15.910156 L 23.847656 14.121094 L 28.382812 11.480469 L 28.382812 15.589844 L 19.570312 20.726562 L 19.570312 16.617188 L 20.78125 15.910156 Z M 23.761719 15.820312 L 20.941406 15.820312 L 23.761719 14.171875 Z M 23.761719 15.820312 "/>
<path style=" stroke:none;fill-rule:evenodd;fill:rgb(83.137255%,83.137255%,83.137255%);fill-opacity:1;" d="M 23.761719 15.820312 L 23.761719 14.171875 L 28.382812 11.480469 L 28.382812 15.589844 L 19.570312 20.726562 L 19.570312 16.617188 L 20.941406 15.820312 Z M 23.671875 15.730469 L 21.089844 15.730469 L 23.671875 14.226562 Z M 23.671875 15.730469 "/>
<path style=" stroke:none;fill-rule:evenodd;fill:rgb(83.529412%,83.529412%,83.529412%);fill-opacity:1;" d="M 23.671875 15.730469 L 23.671875 14.226562 L 28.382812 11.480469 L 28.382812 15.589844 L 19.570312 20.726562 L 19.570312 16.617188 L 21.089844 15.730469 Z M 23.578125 15.636719 L 21.257812 15.636719 L 23.578125 14.28125 Z M 23.578125 15.636719 "/>
<path style=" stroke:none;fill-rule:evenodd;fill:rgb(83.921569%,83.921569%,83.921569%);fill-opacity:1;" d="M 23.578125 15.636719 L 23.578125 14.28125 L 28.382812 11.480469 L 28.382812 15.589844 L 19.570312 20.726562 L 19.570312 16.617188 L 21.257812 15.636719 Z M 23.488281 15.546875 L 21.40625 15.546875 L 23.488281 14.332031 Z M 23.488281 15.546875 "/>
<path style=" stroke:none;fill-rule:evenodd;fill:rgb(84.313725%,84.313725%,84.313725%);fill-opacity:1;" d="M 23.488281 15.546875 L 23.488281 14.332031 L 28.382812 11.480469 L 28.382812 15.589844 L 19.570312 20.726562 L 19.570312 16.617188 L 21.40625 15.546875 Z M 23.390625 15.449219 L 21.574219 15.449219 L 23.390625 14.386719 Z M 23.390625 15.449219 "/>
<path style=" stroke:none;fill-rule:evenodd;fill:rgb(84.705882%,84.705882%,84.705882%);fill-opacity:1;" d="M 23.390625 15.449219 L 23.390625 14.386719 L 28.382812 11.480469 L 28.382812 15.589844 L 19.570312 20.726562 L 19.570312 16.617188 L 21.574219 15.449219 Z M 23.304688 15.359375 L 21.730469 15.359375 L 23.304688 14.4375 Z M 23.304688 15.359375 "/>
<path style=" stroke:none;fill-rule:evenodd;fill:rgb(85.098039%,85.098039%,85.098039%);fill-opacity:1;" d="M 23.304688 15.359375 L 23.304688 14.4375 L 28.382812 11.480469 L 28.382812 15.589844 L 19.570312 20.726562 L 19.570312 16.617188 L 21.730469 15.359375 Z M 23.207031 15.261719 L 21.898438 15.261719 L 23.207031 14.5 Z M 23.207031 15.261719 "/>
<path style=" stroke:none;fill-rule:evenodd;fill:rgb(85.490196%,85.490196%,85.490196%);fill-opacity:1;" d="M 23.207031 15.261719 L 23.207031 14.5 L 28.382812 11.480469 L 28.382812 15.589844 L 19.570312 20.726562 L 19.570312 16.617188 L 21.898438 15.261719 Z M 23.121094 15.175781 L 22.046875 15.175781 L 23.121094 14.546875 Z M 23.121094 15.175781 "/>
<path style=" stroke:none;fill-rule:evenodd;fill:rgb(85.882353%,85.882353%,85.882353%);fill-opacity:1;" d="M 23.121094 15.175781 L 23.121094 14.546875 L 28.382812 11.480469 L 28.382812 15.589844 L 19.570312 20.726562 L 19.570312 16.617188 L 22.046875 15.175781 Z M 23.023438 15.078125 L 22.214844 15.078125 L 23.023438 14.605469 Z M 23.023438 15.078125 "/>
<path style=" stroke:none;fill-rule:evenodd;fill:rgb(86.27451%,86.27451%,86.27451%);fill-opacity:1;" d="M 23.023438 15.078125 L 23.023438 14.605469 L 28.382812 11.480469 L 28.382812 15.589844 L 19.570312 20.726562 L 19.570312 16.617188 L 22.214844 15.078125 Z M 22.933594 14.988281 L 22.363281 14.988281 L 22.933594 14.660156 Z M 22.933594 14.988281 "/>
<path style=" stroke:none;fill-rule:evenodd;fill:rgb(86.666667%,86.666667%,86.666667%);fill-opacity:1;" d="M 22.933594 14.988281 L 22.933594 14.660156 L 28.382812 11.480469 L 28.382812 15.589844 L 19.570312 20.726562 L 19.570312 16.617188 L 22.363281 14.988281 Z M 22.839844 14.890625 L 22.53125 14.890625 L 22.839844 14.714844 Z M 22.839844 14.890625 "/>
<path style=" stroke:none;fill-rule:evenodd;fill:rgb(87.058824%,87.058824%,87.058824%);fill-opacity:1;" d="M 22.839844 14.890625 L 22.839844 14.714844 L 28.382812 11.480469 L 28.382812 15.589844 L 19.570312 20.726562 L 19.570312 16.617188 L 22.53125 14.890625 Z M 22.75 14.800781 L 22.6875 14.800781 L 22.75 14.765625 Z M 22.75 14.800781 "/>
<path style=" stroke:none;fill-rule:evenodd;fill:rgb(87.45098%,87.45098%,87.45098%);fill-opacity:1;" d="M 22.75 14.800781 L 22.75 14.765625 L 28.382812 11.480469 L 28.382812 15.589844 L 19.570312 20.726562 L 19.570312 16.617188 L 22.6875 14.800781 Z M 22.75 14.800781 "/>
<path style=" stroke:none;fill-rule:evenodd;fill:rgb(87.843137%,87.843137%,87.843137%);fill-opacity:1;" d="M 19.570312 20.726562 L 19.570312 16.617188 L 28.382812 11.480469 L 28.382812 15.589844 Z M 19.570312 20.726562 "/>
<path style=" stroke:none;fill-rule:evenodd;fill:rgb(88.235294%,88.235294%,88.235294%);fill-opacity:1;" d="M 19.570312 20.726562 L 19.570312 16.617188 L 28.382812 11.480469 L 28.382812 15.589844 Z M 19.570312 20.726562 "/>
<path style=" stroke:none;fill-rule:evenodd;fill:rgb(88.627451%,88.627451%,88.627451%);fill-opacity:1;" d="M 19.570312 20.726562 L 19.570312 16.617188 L 28.382812 11.480469 L 28.382812 15.589844 Z M 19.570312 20.726562 "/>
<path style=" stroke:none;fill-rule:evenodd;fill:rgb(89.019608%,89.019608%,89.019608%);fill-opacity:1;" d="M 19.570312 20.726562 L 19.570312 16.617188 L 28.382812 11.480469 L 28.382812 15.589844 Z M 19.570312 20.726562 "/>
<path style="fill-rule:evenodd;fill:rgb(89.803922%,89.803922%,89.803922%);fill-opacity:1;stroke-width:40;stroke-linecap:butt;stroke-linejoin:round;stroke:rgb(100%,100%,100%);stroke-opacity:1;stroke-miterlimit:4;" d="M 9599.087534 9739.798611 L 9599.087534 9275.895833 L 10601.943716 8696.017361 L 10601.943716 9159.920139 Z M 9599.087534 9739.798611 " transform="matrix(0.0087874,0,0,0.00885827,-64.780724,-65.551181)"/>
<path style="fill-rule:evenodd;fill:url(#linear1);stroke-width:40;stroke-linecap:butt;stroke-linejoin:round;stroke:rgb(100%,100%,100%);stroke-opacity:1;stroke-miterlimit:4;" d="M 9599.087534 9275.895833 L 7392.00378 8000.163194 L 8394.859963 7419.84375 L 10602.832773 8696.017361 Z M 9599.087534 9275.895833 " transform="matrix(0.0087874,0,0,0.00885827,-64.780724,-65.551181)"/>
<path style="fill-rule:evenodd;fill:rgb(22.352941%,70.980392%,29.019608%);fill-opacity:1;stroke-width:40;stroke-linecap:butt;stroke-linejoin:round;stroke:rgb(0%,0%,0%);stroke-opacity:1;stroke-miterlimit:4;" d="M 9298.141773 9450.079861 L 9298.141773 9218.128472 L 9499.068632 9334.104167 L 9499.068632 9566.055556 Z M 9298.141773 9450.079861 " transform="matrix(0.0087874,0,0,0.00885827,-64.780724,-65.551181)"/>
<path style="fill:none;stroke-width:40;stroke-linecap:butt;stroke-linejoin:round;stroke:rgb(0%,0%,0%);stroke-opacity:1;stroke-miterlimit:4;" d="M 7392.00378 8464.065972 L 7392.00378 8000.163194 L 8394.859963 7419.84375 L 10602.832773 8696.017361 L 10602.832773 9159.920139 L 9599.087534 9739.798611 Z M 7392.00378 8464.065972 " transform="matrix(0.0087874,0,0,0.00885827,-64.780724,-65.551181)"/>
<path style="fill-rule:evenodd;fill:rgb(49.803922%,49.803922%,49.803922%);fill-opacity:1;stroke-width:40;stroke-linecap:butt;stroke-linejoin:round;stroke:rgb(0%,0%,0%);stroke-opacity:1;stroke-miterlimit:4;" d="M 7592.93064 8405.857639 L 7592.93064 8289.881944 L 7692.949541 8348.090278 L 7692.949541 8464.065972 Z M 7592.93064 8405.857639 " transform="matrix(0.0087874,0,0,0.00885827,-64.780724,-65.551181)"/>
<path style="fill-rule:evenodd;fill:rgb(49.803922%,49.803922%,49.803922%);fill-opacity:1;stroke-width:40;stroke-linecap:butt;stroke-linejoin:round;stroke:rgb(0%,0%,0%);stroke-opacity:1;stroke-miterlimit:4;" d="M 7792.968442 8521.833333 L 7792.968442 8405.857639 L 7892.987343 8464.065972 L 7892.987343 8580.041667 Z M 7792.968442 8521.833333 " transform="matrix(0.0087874,0,0,0.00885827,-64.780724,-65.551181)"/>
<path style="fill-rule:evenodd;fill:rgb(49.803922%,49.803922%,49.803922%);fill-opacity:1;stroke-width:40;stroke-linecap:butt;stroke-linejoin:round;stroke:rgb(0%,0%,0%);stroke-opacity:1;stroke-miterlimit:4;" d="M 7993.895301 8637.809028 L 7993.895301 8521.833333 L 8093.914203 8580.041667 L 8093.914203 8696.017361 Z M 7993.895301 8637.809028 " transform="matrix(0.0087874,0,0,0.00885827,-64.780724,-65.551181)"/>
<path style="fill-rule:evenodd;fill:rgb(49.803922%,49.803922%,49.803922%);fill-opacity:1;stroke-width:40;stroke-linecap:butt;stroke-linejoin:round;stroke:rgb(0%,0%,0%);stroke-opacity:1;stroke-miterlimit:4;" d="M 8194.822161 8753.784722 L 8194.822161 8637.809028 L 8294.841062 8696.017361 L 8294.841062 8811.993056 Z M 8194.822161 8753.784722 " transform="matrix(0.0087874,0,0,0.00885827,-64.780724,-65.551181)"/>
<path style="fill-rule:evenodd;fill:rgb(49.803922%,49.803922%,49.803922%);fill-opacity:1;stroke-width:40;stroke-linecap:butt;stroke-linejoin:round;stroke:rgb(0%,0%,0%);stroke-opacity:1;stroke-miterlimit:4;" d="M 8394.859963 8870.201389 L 8394.859963 8753.784722 L 8494.878864 8811.993056 L 8494.878864 8927.96875 Z M 8394.859963 8870.201389 " transform="matrix(0.0087874,0,0,0.00885827,-64.780724,-65.551181)"/>
<path style="fill-rule:evenodd;fill:rgb(49.803922%,49.803922%,49.803922%);fill-opacity:1;stroke-width:40;stroke-linecap:butt;stroke-linejoin:round;stroke:rgb(0%,0%,0%);stroke-opacity:1;stroke-miterlimit:4;" d="M 8595.786822 8986.177083 L 8595.786822 8870.201389 L 8695.805724 8927.96875 L 8695.805724 9043.944444 Z M 8595.786822 8986.177083 " transform="matrix(0.0087874,0,0,0.00885827,-64.780724,-65.551181)"/>
<path style="fill-rule:evenodd;fill:rgb(49.803922%,49.803922%,49.803922%);fill-opacity:1;stroke-width:40;stroke-linecap:butt;stroke-linejoin:round;stroke:rgb(0%,0%,0%);stroke-opacity:1;stroke-miterlimit:4;" d="M 8797.15821 9102.152778 L 8797.15821 8986.177083 L 8897.177111 9043.944444 L 8897.177111 9159.920139 Z M 8797.15821 9102.152778 " transform="matrix(0.0087874,0,0,0.00885827,-64.780724,-65.551181)"/>
<path style="fill-rule:evenodd;fill:rgb(49.803922%,49.803922%,49.803922%);fill-opacity:1;stroke-width:40;stroke-linecap:butt;stroke-linejoin:round;stroke:rgb(0%,0%,0%);stroke-opacity:1;stroke-miterlimit:4;" d="M 8997.196013 9218.128472 L 8997.196013 9102.152778 L 9097.214914 9159.920139 L 9097.214914 9275.895833 Z M 8997.196013 9218.128472 " transform="matrix(0.0087874,0,0,0.00885827,-64.780724,-65.551181)"/>
</g>
</svg>
