<?xml version="1.0" encoding="UTF-8"?>
<svg xmlns="http://www.w3.org/2000/svg" xmlns:xlink="http://www.w3.org/1999/xlink" width="62pt" height="43pt" viewBox="0 0 62 43" version="1.1">
<defs>
<linearGradient id="linear0" gradientUnits="userSpaceOnUse" x1="4709" y1="9844" x2="8074" y2="9850" gradientTransform="matrix(1,0,0,1,-0.000000000000909495,0)">
<stop offset="0.1" style="stop-color:rgb(70.196078%,70.196078%,70.196078%);stop-opacity:1;"/>
<stop offset="1" style="stop-color:rgb(89.803922%,89.803922%,89.803922%);stop-opacity:1;"/>
</linearGradient>
<linearGradient id="linear1" gradientUnits="userSpaceOnUse" x1="7832" y1="6658" x2="7832" y2="10264" gradientTransform="matrix(1,0,0,1,-0.000000000000909495,0)">
<stop offset="0.1" style="stop-color:rgb(70.196078%,70.196078%,70.196078%);stop-opacity:1;"/>
<stop offset="1" style="stop-color:rgb(89.803922%,89.803922%,89.803922%);stop-opacity:1;"/>
</linearGradient>
<linearGradient id="linear2" gradientUnits="userSpaceOnUse" x1="4520" y1="8821" x2="4714" y2="8821" gradientTransform="matrix(1,0,0,1,-0.000000000000909495,0)">
<stop offset="0.1" style="stop-color:rgb(70.196078%,70.196078%,70.196078%);stop-opacity:1;"/>
<stop offset="1" style="stop-color:rgb(89.803922%,89.803922%,89.803922%);stop-opacity:1;"/>
</linearGradient>
<linearGradient id="linear3" gradientUnits="userSpaceOnUse" x1="8071" y1="10874" x2="8265" y2="10874" gradientTransform="matrix(1,0,0,1,-0.000000000000909495,0)">
<stop offset="0.1" style="stop-color:rgb(70.196078%,70.196078%,70.196078%);stop-opacity:1;"/>
<stop offset="1" style="stop-color:rgb(89.803922%,89.803922%,89.803922%);stop-opacity:1;"/>
</linearGradient>
<linearGradient id="linear4" gradientUnits="userSpaceOnUse" x1="9539" y1="10077" x2="9539" y2="10722" gradientTransform="matrix(1,0,0,1,-0.000000000000909495,0)">
<stop offset="0.1" style="stop-color:rgb(87.058824%,55.686275%,58.823529%);stop-opacity:1;"/>
<stop offset="1" style="stop-color:rgb(97.254902%,90.980392%,91.764706%);stop-opacity:1;"/>
</linearGradient>
<linearGradient id="linear5" gradientUnits="userSpaceOnUse" x1="9182" y1="10211" x2="9895" y2="10213" gradientTransform="matrix(0.00893029,0,0,0.00885827,-40.195218,-58.801181)">
<stop offset="0.1" style="stop-color:rgb(70.196078%,70.196078%,70.196078%);stop-opacity:1;"/>
<stop offset="1" style="stop-color:rgb(89.803922%,89.803922%,89.803922%);stop-opacity:1;"/>
</linearGradient>
<linearGradient id="linear6" gradientUnits="userSpaceOnUse" x1="8980" y1="10868" x2="9794" y2="10870" gradientTransform="matrix(1,0,0,1,-0.000000000000909495,0)">
<stop offset="0.1" style="stop-color:rgb(87.058824%,55.686275%,58.823529%);stop-opacity:1;"/>
<stop offset="1" style="stop-color:rgb(97.254902%,90.980392%,91.764706%);stop-opacity:1;"/>
</linearGradient>
<linearGradient id="linear7" gradientUnits="userSpaceOnUse" x1="9400" y1="10722" x2="9400" y2="11026" gradientTransform="matrix(0.00893029,0,0,0.00885827,-40.195218,-58.801181)">
<stop offset="0.1" style="stop-color:rgb(0%,0%,0%);stop-opacity:1;"/>
<stop offset="1" style="stop-color:rgb(100%,100%,100%);stop-opacity:1;"/>
</linearGradient>
</defs>
<g id="surface1">
<path style="fill-rule:evenodd;fill:rgb(86.666667%,86.666667%,86.666667%);fill-opacity:1;stroke-width:28.222;stroke-linecap:butt;stroke-linejoin:round;stroke:rgb(86.666667%,86.666667%,86.666667%);stroke-opacity:1;stroke-miterlimit:4;" d="M 8264.964634 11485.166667 C 8527.851647 11485.166667 11431.856435 10208.993056 11431.856435 9820.055556 C 11431.856435 9432 11024.184728 9432 10759.985467 9432 C 10759.985467 9597.805556 8169.170531 10264.114583 8264.964634 11485.166667 Z M 8264.964634 11485.166667 " transform="matrix(0.00893029,0,0,0.00885827,-40.195218,-58.801181)"/>
<path style="fill-rule:evenodd;fill:url(#linear0);stroke-width:40;stroke-linecap:butt;stroke-linejoin:round;stroke:rgb(100%,100%,100%);stroke-opacity:1;stroke-miterlimit:4;" d="M 4713.146757 9432 L 4713.146757 8322.072917 L 8072.06418 10264.114583 L 8072.06418 11373.159722 Z M 4713.146757 9432 " transform="matrix(0.00893029,0,0,0.00885827,-40.195218,-58.801181)"/>
<path style=" stroke:none;fill-rule:evenodd;fill:rgb(70.196078%,70.196078%,70.196078%);fill-opacity:1;" d="M 52.199219 30.3125 L 40.097656 37.25 L 31.890625 37.25 L 31.890625 32.121094 L 52.199219 20.480469 Z M 52.199219 30.3125 "/>
<path style=" stroke:none;fill-rule:evenodd;fill:rgb(70.588235%,70.588235%,70.588235%);fill-opacity:1;" d="M 40.097656 37.25 L 31.890625 41.953125 L 31.890625 37.25 Z M 52.199219 20.480469 L 57.601562 17.378906 L 57.601562 27.210938 L 52.199219 30.3125 Z M 51.9375 30.453125 L 40.542969 36.992188 L 31.890625 36.992188 L 31.890625 32.121094 L 51.9375 20.621094 Z M 51.9375 30.453125 "/>
<path style=" stroke:none;fill-rule:evenodd;fill:rgb(70.980392%,70.980392%,70.980392%);fill-opacity:1;" d="M 40.542969 36.992188 L 31.890625 41.953125 L 31.890625 36.992188 Z M 51.9375 20.621094 L 57.601562 17.378906 L 57.601562 27.210938 L 51.9375 30.453125 Z M 51.679688 30.605469 L 40.988281 36.734375 L 31.890625 36.734375 L 31.890625 32.121094 L 51.679688 20.773438 Z M 51.679688 30.605469 "/>
<path style=" stroke:none;fill-rule:evenodd;fill:rgb(71.372549%,71.372549%,71.372549%);fill-opacity:1;" d="M 40.988281 36.734375 L 31.890625 41.953125 L 31.890625 36.734375 Z M 51.679688 20.773438 L 57.601562 17.378906 L 57.601562 27.210938 L 51.679688 30.605469 Z M 51.421875 30.757812 L 41.4375 36.476562 L 31.890625 36.476562 L 31.890625 32.121094 L 51.421875 20.921875 Z M 51.421875 30.757812 "/>
<path style=" stroke:none;fill-rule:evenodd;fill:rgb(71.764706%,71.764706%,71.764706%);fill-opacity:1;" d="M 41.4375 36.476562 L 31.890625 41.953125 L 31.890625 36.476562 Z M 51.421875 20.921875 L 57.601562 17.378906 L 57.601562 27.210938 L 51.421875 30.757812 Z M 51.160156 30.90625 L 41.882812 36.222656 L 31.890625 36.222656 L 31.890625 32.121094 L 51.160156 21.074219 Z M 51.160156 30.90625 "/>
<path style=" stroke:none;fill-rule:evenodd;fill:rgb(72.156863%,72.156863%,72.156863%);fill-opacity:1;" d="M 41.882812 36.222656 L 31.890625 41.953125 L 31.890625 36.222656 Z M 51.160156 21.074219 L 57.601562 17.378906 L 57.601562 27.210938 L 51.160156 30.90625 Z M 50.910156 31.046875 L 42.320312 35.972656 L 31.890625 35.972656 L 31.890625 32.121094 L 50.910156 21.214844 Z M 50.910156 31.046875 "/>
<path style=" stroke:none;fill-rule:evenodd;fill:rgb(72.54902%,72.54902%,72.54902%);fill-opacity:1;" d="M 42.320312 35.972656 L 31.890625 41.953125 L 31.890625 35.972656 Z M 50.910156 21.214844 L 57.601562 17.378906 L 57.601562 27.210938 L 50.910156 31.046875 Z M 50.652344 31.199219 L 42.765625 35.714844 L 31.890625 35.714844 L 31.890625 32.121094 L 50.652344 21.367188 Z M 50.652344 31.199219 "/>
<path style=" stroke:none;fill-rule:evenodd;fill:rgb(72.941176%,72.941176%,72.941176%);fill-opacity:1;" d="M 42.765625 35.714844 L 31.890625 41.953125 L 31.890625 35.714844 Z M 50.652344 21.367188 L 57.601562 17.378906 L 57.601562 27.210938 L 50.652344 31.199219 Z M 50.394531 31.339844 L 43.214844 35.460938 L 31.890625 35.460938 L 31.890625 32.121094 L 50.394531 21.507812 Z M 50.394531 31.339844 "/>
<path style=" stroke:none;fill-rule:evenodd;fill:rgb(73.333333%,73.333333%,73.333333%);fill-opacity:1;" d="M 43.214844 35.460938 L 31.890625 41.953125 L 31.890625 35.460938 Z M 50.394531 21.507812 L 57.601562 17.378906 L 57.601562 27.210938 L 50.394531 31.339844 Z M 50.132812 31.492188 L 43.660156 35.203125 L 31.890625 35.203125 L 31.890625 32.121094 L 50.132812 21.660156 Z M 50.132812 31.492188 "/>
<path style=" stroke:none;fill-rule:evenodd;fill:rgb(73.72549%,73.72549%,73.72549%);fill-opacity:1;" d="M 43.660156 35.203125 L 31.890625 41.953125 L 31.890625 35.203125 Z M 50.132812 21.660156 L 57.601562 17.378906 L 57.601562 27.210938 L 50.132812 31.492188 Z M 49.875 31.640625 L 44.117188 34.945312 L 31.890625 34.945312 L 31.890625 32.121094 L 49.875 21.808594 Z M 49.875 31.640625 "/>
<path style=" stroke:none;fill-rule:evenodd;fill:rgb(74.117647%,74.117647%,74.117647%);fill-opacity:1;" d="M 44.117188 34.945312 L 31.890625 41.953125 L 31.890625 34.945312 Z M 49.875 21.808594 L 57.601562 17.378906 L 57.601562 27.210938 L 49.875 31.640625 Z M 49.617188 31.792969 L 44.5625 34.6875 L 31.890625 34.6875 L 31.890625 32.121094 L 49.617188 21.960938 Z M 49.617188 31.792969 "/>
<path style=" stroke:none;fill-rule:evenodd;fill:rgb(74.509804%,74.509804%,74.509804%);fill-opacity:1;" d="M 44.5625 34.6875 L 31.890625 41.953125 L 31.890625 34.6875 Z M 49.617188 21.960938 L 57.601562 17.378906 L 57.601562 27.210938 L 49.617188 31.792969 Z M 49.367188 31.933594 L 44.992188 34.441406 L 31.890625 34.441406 L 31.890625 32.121094 L 49.367188 22.101562 Z M 49.367188 31.933594 "/>
<path style=" stroke:none;fill-rule:evenodd;fill:rgb(74.901961%,74.901961%,74.901961%);fill-opacity:1;" d="M 44.992188 34.441406 L 31.890625 41.953125 L 31.890625 34.441406 Z M 49.367188 22.101562 L 57.601562 17.378906 L 57.601562 27.210938 L 49.367188 31.933594 Z M 49.109375 32.085938 L 45.4375 34.183594 L 31.890625 34.183594 L 31.890625 32.121094 L 49.109375 22.253906 Z M 49.109375 32.085938 "/>
<path style=" stroke:none;fill-rule:evenodd;fill:rgb(75.294118%,75.294118%,75.294118%);fill-opacity:1;" d="M 45.4375 34.183594 L 31.890625 41.953125 L 31.890625 34.183594 Z M 49.109375 22.253906 L 57.601562 17.378906 L 57.601562 27.210938 L 49.109375 32.085938 Z M 48.847656 32.226562 L 45.894531 33.925781 L 31.890625 33.925781 L 31.890625 32.121094 L 48.847656 22.394531 Z M 48.847656 32.226562 "/>
<path style=" stroke:none;fill-rule:evenodd;fill:rgb(75.686275%,75.686275%,75.686275%);fill-opacity:1;" d="M 45.894531 33.925781 L 31.890625 41.953125 L 31.890625 33.925781 Z M 48.847656 22.394531 L 57.601562 17.378906 L 57.601562 27.210938 L 48.847656 32.226562 Z M 48.589844 32.378906 L 46.339844 33.671875 L 31.890625 33.671875 L 31.890625 32.121094 L 48.589844 22.542969 Z M 48.589844 32.378906 "/>
<path style=" stroke:none;fill-rule:evenodd;fill:rgb(76.078431%,76.078431%,76.078431%);fill-opacity:1;" d="M 46.339844 33.671875 L 31.890625 41.953125 L 31.890625 33.671875 Z M 48.589844 22.542969 L 57.601562 17.378906 L 57.601562 27.210938 L 48.589844 32.378906 Z M 48.332031 32.527344 L 46.785156 33.414062 L 31.890625 33.414062 L 31.890625 32.121094 L 48.332031 22.695312 Z M 48.332031 32.527344 "/>
<path style=" stroke:none;fill-rule:evenodd;fill:rgb(76.470588%,76.470588%,76.470588%);fill-opacity:1;" d="M 46.785156 33.414062 L 31.890625 41.953125 L 31.890625 33.414062 Z M 48.332031 22.695312 L 57.601562 17.378906 L 57.601562 27.210938 L 48.332031 32.527344 Z M 48.082031 32.667969 L 47.214844 33.164062 L 31.890625 33.164062 L 31.890625 32.121094 L 48.082031 22.835938 Z M 48.082031 32.667969 "/>
<path style=" stroke:none;fill-rule:evenodd;fill:rgb(76.862745%,76.862745%,76.862745%);fill-opacity:1;" d="M 47.214844 33.164062 L 31.890625 41.953125 L 31.890625 33.164062 Z M 48.082031 22.835938 L 57.601562 17.378906 L 57.601562 27.210938 L 48.082031 32.667969 Z M 47.820312 32.820312 L 47.667969 32.910156 L 31.890625 32.910156 L 31.890625 32.121094 L 47.820312 22.988281 Z M 47.820312 32.820312 "/>
<path style=" stroke:none;fill-rule:evenodd;fill:rgb(77.254902%,77.254902%,77.254902%);fill-opacity:1;" d="M 47.667969 32.910156 L 31.890625 41.953125 L 31.890625 32.910156 Z M 47.820312 22.988281 L 57.601562 17.378906 L 57.601562 27.210938 L 47.820312 32.820312 Z M 47.5625 32.652344 L 31.890625 32.652344 L 31.890625 32.121094 L 47.5625 23.136719 Z M 47.5625 32.652344 "/>
<path style=" stroke:none;fill-rule:evenodd;fill:rgb(77.647059%,77.647059%,77.647059%);fill-opacity:1;" d="M 47.5625 32.652344 L 47.5625 23.136719 L 57.601562 17.378906 L 57.601562 27.210938 L 31.890625 41.953125 L 31.890625 32.652344 Z M 47.304688 32.394531 L 31.890625 32.394531 L 31.890625 32.121094 L 47.304688 23.28125 Z M 47.304688 32.394531 "/>
<path style=" stroke:none;fill-rule:evenodd;fill:rgb(78.039216%,78.039216%,78.039216%);fill-opacity:1;" d="M 47.304688 32.394531 L 47.304688 23.28125 L 57.601562 17.378906 L 57.601562 27.210938 L 31.890625 41.953125 L 31.890625 32.394531 Z M 47.042969 32.136719 L 32.132812 32.136719 L 32.132812 31.976562 L 47.042969 23.429688 Z M 47.042969 32.136719 "/>
<path style=" stroke:none;fill-rule:evenodd;fill:rgb(78.431373%,78.431373%,78.431373%);fill-opacity:1;" d="M 32.132812 32.136719 L 47.042969 32.136719 L 47.042969 23.429688 L 57.601562 17.378906 L 57.601562 27.210938 L 31.890625 41.953125 L 31.890625 32.121094 L 32.132812 31.976562 Z M 46.785156 31.882812 L 32.390625 31.882812 L 32.390625 31.835938 L 46.785156 23.582031 Z M 46.785156 31.882812 "/>
<path style=" stroke:none;fill-rule:evenodd;fill:rgb(78.823529%,78.823529%,78.823529%);fill-opacity:1;" d="M 32.390625 31.882812 L 46.785156 31.882812 L 46.785156 23.582031 L 57.601562 17.378906 L 57.601562 27.210938 L 31.890625 41.953125 L 31.890625 32.121094 L 32.390625 31.835938 Z M 46.535156 31.632812 L 32.738281 31.632812 L 46.535156 23.722656 Z M 46.535156 31.632812 "/>
<path style=" stroke:none;fill-rule:evenodd;fill:rgb(79.215686%,79.215686%,79.215686%);fill-opacity:1;" d="M 46.535156 31.632812 L 46.535156 23.722656 L 57.601562 17.378906 L 57.601562 27.210938 L 31.890625 41.953125 L 31.890625 32.121094 L 32.738281 31.632812 Z M 46.277344 31.375 L 33.183594 31.375 L 46.277344 23.871094 Z M 46.277344 31.375 "/>
<path style=" stroke:none;fill-rule:evenodd;fill:rgb(79.607843%,79.607843%,79.607843%);fill-opacity:1;" d="M 46.277344 31.375 L 46.277344 23.871094 L 57.601562 17.378906 L 57.601562 27.210938 L 31.890625 41.953125 L 31.890625 32.121094 L 33.183594 31.375 Z M 46.019531 31.117188 L 33.640625 31.117188 L 46.019531 24.023438 Z M 46.019531 31.117188 "/>
<path style=" stroke:none;fill-rule:evenodd;fill:rgb(80%,80%,80%);fill-opacity:1;" d="M 46.019531 31.117188 L 46.019531 24.023438 L 57.601562 17.378906 L 57.601562 27.210938 L 31.890625 41.953125 L 31.890625 32.121094 L 33.640625 31.117188 Z M 45.757812 30.863281 L 34.085938 30.863281 L 45.757812 24.164062 Z M 45.757812 30.863281 "/>
<path style=" stroke:none;fill-rule:evenodd;fill:rgb(80.392157%,80.392157%,80.392157%);fill-opacity:1;" d="M 45.757812 30.863281 L 45.757812 24.164062 L 57.601562 17.378906 L 57.601562 27.210938 L 31.890625 41.953125 L 31.890625 32.121094 L 34.085938 30.863281 Z M 45.5 30.605469 L 34.535156 30.605469 L 45.5 24.316406 Z M 45.5 30.605469 "/>
<path style=" stroke:none;fill-rule:evenodd;fill:rgb(80.784314%,80.784314%,80.784314%);fill-opacity:1;" d="M 45.5 30.605469 L 45.5 24.316406 L 57.601562 17.378906 L 57.601562 27.210938 L 31.890625 41.953125 L 31.890625 32.121094 L 34.535156 30.605469 Z M 45.25 30.355469 L 34.960938 30.355469 L 45.25 24.457031 Z M 45.25 30.355469 "/>
<path style=" stroke:none;fill-rule:evenodd;fill:rgb(81.176471%,81.176471%,81.176471%);fill-opacity:1;" d="M 45.25 30.355469 L 45.25 24.457031 L 57.601562 17.378906 L 57.601562 27.210938 L 31.890625 41.953125 L 31.890625 32.121094 L 34.960938 30.355469 Z M 44.992188 30.101562 L 35.410156 30.101562 L 44.992188 24.609375 Z M 44.992188 30.101562 "/>
<path style=" stroke:none;fill-rule:evenodd;fill:rgb(81.568627%,81.568627%,81.568627%);fill-opacity:1;" d="M 44.992188 30.101562 L 44.992188 24.609375 L 57.601562 17.378906 L 57.601562 27.210938 L 31.890625 41.953125 L 31.890625 32.121094 L 35.410156 30.101562 Z M 44.730469 29.84375 L 35.863281 29.84375 L 44.730469 24.757812 Z M 44.730469 29.84375 "/>
<path style=" stroke:none;fill-rule:evenodd;fill:rgb(81.960784%,81.960784%,81.960784%);fill-opacity:1;" d="M 44.730469 29.84375 L 44.730469 24.757812 L 57.601562 17.378906 L 57.601562 27.210938 L 31.890625 41.953125 L 31.890625 32.121094 L 35.863281 29.84375 Z M 44.472656 29.585938 L 36.308594 29.585938 L 44.472656 24.910156 Z M 44.472656 29.585938 "/>
<path style=" stroke:none;fill-rule:evenodd;fill:rgb(82.352941%,82.352941%,82.352941%);fill-opacity:1;" d="M 44.472656 29.585938 L 44.472656 24.910156 L 57.601562 17.378906 L 57.601562 27.210938 L 31.890625 41.953125 L 31.890625 32.121094 L 36.308594 29.585938 Z M 44.214844 29.328125 L 36.757812 29.328125 L 44.214844 25.050781 Z M 44.214844 29.328125 "/>
<path style=" stroke:none;fill-rule:evenodd;fill:rgb(82.745098%,82.745098%,82.745098%);fill-opacity:1;" d="M 44.214844 29.328125 L 44.214844 25.050781 L 57.601562 17.378906 L 57.601562 27.210938 L 31.890625 41.953125 L 31.890625 32.121094 L 36.757812 29.328125 Z M 43.953125 29.074219 L 37.203125 29.074219 L 43.953125 25.203125 Z M 43.953125 29.074219 "/>
<path style=" stroke:none;fill-rule:evenodd;fill:rgb(83.137255%,83.137255%,83.137255%);fill-opacity:1;" d="M 43.953125 29.074219 L 43.953125 25.203125 L 57.601562 17.378906 L 57.601562 27.210938 L 31.890625 41.953125 L 31.890625 32.121094 L 37.203125 29.074219 Z M 43.703125 28.824219 L 37.640625 28.824219 L 43.703125 25.34375 Z M 43.703125 28.824219 "/>
<path style=" stroke:none;fill-rule:evenodd;fill:rgb(83.529412%,83.529412%,83.529412%);fill-opacity:1;" d="M 43.703125 28.824219 L 43.703125 25.34375 L 57.601562 17.378906 L 57.601562 27.210938 L 31.890625 41.953125 L 31.890625 32.121094 L 37.640625 28.824219 Z M 43.445312 28.566406 L 38.085938 28.566406 L 43.445312 25.492188 Z M 43.445312 28.566406 "/>
<path style=" stroke:none;fill-rule:evenodd;fill:rgb(83.921569%,83.921569%,83.921569%);fill-opacity:1;" d="M 43.445312 28.566406 L 43.445312 25.492188 L 57.601562 17.378906 L 57.601562 27.210938 L 31.890625 41.953125 L 31.890625 32.121094 L 38.085938 28.566406 Z M 43.1875 28.3125 L 38.535156 28.3125 L 43.1875 25.644531 Z M 43.1875 28.3125 "/>
<path style=" stroke:none;fill-rule:evenodd;fill:rgb(84.313725%,84.313725%,84.313725%);fill-opacity:1;" d="M 43.1875 28.3125 L 43.1875 25.644531 L 57.601562 17.378906 L 57.601562 27.210938 L 31.890625 41.953125 L 31.890625 32.121094 L 38.535156 28.3125 Z M 42.929688 28.054688 L 38.980469 28.054688 L 42.929688 25.796875 Z M 42.929688 28.054688 "/>
<path style=" stroke:none;fill-rule:evenodd;fill:rgb(84.705882%,84.705882%,84.705882%);fill-opacity:1;" d="M 42.929688 28.054688 L 42.929688 25.796875 L 57.601562 17.378906 L 57.601562 27.210938 L 31.890625 41.953125 L 31.890625 32.121094 L 38.980469 28.054688 Z M 42.667969 27.796875 L 39.425781 27.796875 L 42.667969 25.9375 Z M 42.667969 27.796875 "/>
<path style=" stroke:none;fill-rule:evenodd;fill:rgb(85.098039%,85.098039%,85.098039%);fill-opacity:1;" d="M 42.667969 27.796875 L 42.667969 25.9375 L 57.601562 17.378906 L 57.601562 27.210938 L 31.890625 41.953125 L 31.890625 32.121094 L 39.425781 27.796875 Z M 42.417969 27.550781 L 39.863281 27.550781 L 42.417969 26.085938 Z M 42.417969 27.550781 "/>
<path style=" stroke:none;fill-rule:evenodd;fill:rgb(85.490196%,85.490196%,85.490196%);fill-opacity:1;" d="M 42.417969 27.550781 L 42.417969 26.085938 L 57.601562 17.378906 L 57.601562 27.210938 L 31.890625 41.953125 L 31.890625 32.121094 L 39.863281 27.550781 Z M 42.160156 27.292969 L 40.3125 27.292969 L 42.160156 26.230469 Z M 42.160156 27.292969 "/>
<path style=" stroke:none;fill-rule:evenodd;fill:rgb(85.882353%,85.882353%,85.882353%);fill-opacity:1;" d="M 42.160156 27.292969 L 42.160156 26.230469 L 57.601562 17.378906 L 57.601562 27.210938 L 31.890625 41.953125 L 31.890625 32.121094 L 40.3125 27.292969 Z M 41.902344 27.035156 L 40.757812 27.035156 L 41.902344 26.378906 Z M 41.902344 27.035156 "/>
<path style=" stroke:none;fill-rule:evenodd;fill:rgb(86.27451%,86.27451%,86.27451%);fill-opacity:1;" d="M 41.902344 27.035156 L 41.902344 26.378906 L 57.601562 17.378906 L 57.601562 27.210938 L 31.890625 41.953125 L 31.890625 32.121094 L 40.757812 27.035156 Z M 41.640625 26.777344 L 41.203125 26.777344 L 41.640625 26.53125 Z M 41.640625 26.777344 "/>
<path style=" stroke:none;fill-rule:evenodd;fill:rgb(86.666667%,86.666667%,86.666667%);fill-opacity:1;" d="M 41.640625 26.777344 L 41.640625 26.53125 L 57.601562 17.378906 L 57.601562 27.210938 L 31.890625 41.953125 L 31.890625 32.121094 L 41.203125 26.777344 Z M 41.640625 26.777344 "/>
<path style=" stroke:none;fill-rule:evenodd;fill:rgb(87.058824%,87.058824%,87.058824%);fill-opacity:1;" d="M 31.890625 41.953125 L 31.890625 32.121094 L 57.601562 17.378906 L 57.601562 27.210938 Z M 31.890625 41.953125 "/>
<path style=" stroke:none;fill-rule:evenodd;fill:rgb(87.45098%,87.45098%,87.45098%);fill-opacity:1;" d="M 31.890625 41.953125 L 31.890625 32.121094 L 57.601562 17.378906 L 57.601562 27.210938 Z M 31.890625 41.953125 "/>
<path style=" stroke:none;fill-rule:evenodd;fill:rgb(87.843137%,87.843137%,87.843137%);fill-opacity:1;" d="M 31.890625 41.953125 L 31.890625 32.121094 L 57.601562 17.378906 L 57.601562 27.210938 Z M 31.890625 41.953125 "/>
<path style=" stroke:none;fill-rule:evenodd;fill:rgb(88.235294%,88.235294%,88.235294%);fill-opacity:1;" d="M 31.890625 41.953125 L 31.890625 32.121094 L 57.601562 17.378906 L 57.601562 27.210938 Z M 31.890625 41.953125 "/>
<path style=" stroke:none;fill-rule:evenodd;fill:rgb(88.627451%,88.627451%,88.627451%);fill-opacity:1;" d="M 31.890625 41.953125 L 31.890625 32.121094 L 57.601562 17.378906 L 57.601562 27.210938 Z M 31.890625 41.953125 "/>
<path style=" stroke:none;fill-rule:evenodd;fill:rgb(89.019608%,89.019608%,89.019608%);fill-opacity:1;" d="M 31.890625 41.953125 L 31.890625 32.121094 L 57.601562 17.378906 L 57.601562 27.210938 Z M 31.890625 41.953125 "/>
<path style="fill-rule:evenodd;fill:rgb(89.803922%,89.803922%,89.803922%);fill-opacity:1;stroke-width:40;stroke-linecap:butt;stroke-linejoin:round;stroke:rgb(100%,100%,100%);stroke-opacity:1;stroke-miterlimit:4;" d="M 8072.06418 11374.041667 L 8072.06418 10264.114583 L 10951.136257 8599.885417 L 10951.136257 9709.8125 Z M 8072.06418 11374.041667 " transform="matrix(0.00893029,0,0,0.00885827,-40.195218,-58.801181)"/>
<path style="fill-rule:evenodd;fill:url(#linear1);stroke-width:40;stroke-linecap:butt;stroke-linejoin:round;stroke:rgb(100%,100%,100%);stroke-opacity:1;stroke-miterlimit:4;" d="M 8072.06418 10264.114583 L 4713.146757 8322.072917 L 7591.781418 6657.84375 L 10952.011089 8599.885417 Z M 8072.06418 10264.114583 " transform="matrix(0.00893029,0,0,0.00885827,-40.195218,-58.801181)"/>
<path style="fill:none;stroke-width:40;stroke-linecap:butt;stroke-linejoin:round;stroke:rgb(49.803922%,49.803922%,49.803922%);stroke-opacity:1;stroke-miterlimit:4;" d="M 5864.863071 9210.190972 L 5864.863071 9876.059028 " transform="matrix(0.00893029,0,0,0.00885827,-40.195218,-58.801181)"/>
<path style="fill:none;stroke-width:40;stroke-linecap:butt;stroke-linejoin:round;stroke:rgb(100%,100%,100%);stroke-opacity:1;stroke-miterlimit:4;" d="M 7977.144909 10631.003472 L 6440.939936 9742.885417 " transform="matrix(0.00893029,0,0,0.00885827,-40.195218,-58.801181)"/>
<path style="fill:none;stroke-width:40;stroke-linecap:butt;stroke-linejoin:round;stroke:rgb(100%,100%,100%);stroke-opacity:1;stroke-miterlimit:4;" d="M 6432.191616 9543.125 L 6432.191616 9764.934028 " transform="matrix(0.00893029,0,0,0.00885827,-40.195218,-58.801181)"/>
<path style="fill:none;stroke-width:40;stroke-linecap:butt;stroke-linejoin:round;stroke:rgb(0%,0%,0%);stroke-opacity:1;stroke-miterlimit:4;" d="M 7967.959173 10430.802083 L 7967.959173 10653.052083 " transform="matrix(0.00893029,0,0,0.00885827,-40.195218,-58.801181)"/>
<path style="fill:none;stroke-width:40;stroke-linecap:butt;stroke-linejoin:round;stroke:rgb(0%,0%,0%);stroke-opacity:1;stroke-miterlimit:4;" d="M 7967.959173 10430.802083 L 6432.191616 9543.125 " transform="matrix(0.00893029,0,0,0.00885827,-40.195218,-58.801181)"/>
<path style="fill-rule:evenodd;fill:rgb(22.352941%,70.980392%,29.019608%);fill-opacity:1;stroke-width:40;stroke-linecap:butt;stroke-linejoin:round;stroke:rgb(0%,0%,0%);stroke-opacity:1;stroke-miterlimit:4;" d="M 6056.888693 9543.125 L 6056.888693 9320.875 L 6248.914315 9432 L 6248.914315 9653.809028 Z M 6056.888693 9543.125 " transform="matrix(0.00893029,0,0,0.00885827,-40.195218,-58.801181)"/>
<path style="fill:none;stroke-width:40;stroke-linecap:butt;stroke-linejoin:round;stroke:rgb(49.803922%,49.803922%,49.803922%);stroke-opacity:1;stroke-miterlimit:4;" d="M 5672.83745 9099.065972 L 5672.83745 9764.934028 " transform="matrix(0.00893029,0,0,0.00885827,-40.195218,-58.801181)"/>
<path style="fill:none;stroke-width:40;stroke-linecap:butt;stroke-linejoin:round;stroke:rgb(49.803922%,49.803922%,49.803922%);stroke-opacity:1;stroke-miterlimit:4;" d="M 5480.811828 8987.940972 L 5480.811828 9653.809028 " transform="matrix(0.00893029,0,0,0.00885827,-40.195218,-58.801181)"/>
<path style="fill:none;stroke-width:40;stroke-linecap:butt;stroke-linejoin:round;stroke:rgb(49.803922%,49.803922%,49.803922%);stroke-opacity:1;stroke-miterlimit:4;" d="M 5288.786206 8876.815972 L 5288.786206 9543.125 " transform="matrix(0.00893029,0,0,0.00885827,-40.195218,-58.801181)"/>
<path style="fill:none;stroke-width:40;stroke-linecap:butt;stroke-linejoin:round;stroke:rgb(49.803922%,49.803922%,49.803922%);stroke-opacity:1;stroke-miterlimit:4;" d="M 5097.198001 8766.131944 L 5097.198001 9432 " transform="matrix(0.00893029,0,0,0.00885827,-40.195218,-58.801181)"/>
<path style="fill:none;stroke-width:40;stroke-linecap:butt;stroke-linejoin:round;stroke:rgb(49.803922%,49.803922%,49.803922%);stroke-opacity:1;stroke-miterlimit:4;" d="M 4905.172379 8655.006944 L 4905.172379 9320.875 " transform="matrix(0.00893029,0,0,0.00885827,-40.195218,-58.801181)"/>
<path style="fill-rule:evenodd;fill:url(#linear2);stroke-width:40;stroke-linecap:butt;stroke-linejoin:round;stroke:rgb(100%,100%,100%);stroke-opacity:1;stroke-miterlimit:4;" d="M 4521.121136 9320.875 L 4521.121136 8210.947917 L 4713.146757 8322.072917 L 4713.146757 9432 Z M 4521.121136 9320.875 " transform="matrix(0.00893029,0,0,0.00885827,-40.195218,-58.801181)"/>
<path style="fill-rule:evenodd;fill:url(#linear3);stroke-width:40;stroke-linecap:butt;stroke-linejoin:round;stroke:rgb(100%,100%,100%);stroke-opacity:1;stroke-miterlimit:4;" d="M 8072.06418 11374.041667 L 8072.06418 10264.114583 L 8264.089802 10374.798611 L 8264.089802 11485.166667 Z M 8072.06418 11374.041667 " transform="matrix(0.00893029,0,0,0.00885827,-40.195218,-58.801181)"/>
<path style="fill:none;stroke-width:40;stroke-linecap:butt;stroke-linejoin:round;stroke:rgb(0%,0%,0%);stroke-opacity:1;stroke-miterlimit:4;" d="M 4521.121136 9320.875 L 4521.121136 8210.947917 L 4713.146757 8322.072917 L 7591.781418 6657.84375 L 10952.011089 8599.885417 L 10952.011089 9708.930556 L 8264.089802 11262.916667 L 8264.089802 11485.166667 Z M 4521.121136 9320.875 " transform="matrix(0.00893029,0,0,0.00885827,-40.195218,-58.801181)"/>
<path style="fill-rule:evenodd;fill:url(#linear4);stroke-width:40;stroke-linecap:butt;stroke-linejoin:round;stroke:rgb(100%,100%,100%);stroke-opacity:1;stroke-miterlimit:4;" d="M 9792.858703 10721.84375 L 10098.175067 10545.895833 L 9285.893565 10077.142361 L 8981.014617 10253.090278 Z M 9792.858703 10721.84375 " transform="matrix(0.00893029,0,0,0.00885827,-40.195218,-58.801181)"/>
<path style=" stroke:none;fill-rule:evenodd;fill:url(#linear5);" d="M 48.171875 34.742188 L 48.097656 33.527344 L 47.894531 32.414062 L 47.582031 31.421875 L 47.179688 30.542969 L 46.695312 29.789062 L 46.160156 29.171875 L 45.875 28.921875 L 45.589844 28.699219 L 45.292969 28.523438 L 45 28.382812 L 44.695312 28.277344 L 44.402344 28.214844 L 44.117188 28.195312 L 43.828125 28.222656 L 43.554688 28.285156 L 43.292969 28.390625 L 43.042969 28.550781 L 42.8125 28.753906 L 42.597656 29.003906 L 42.410156 29.292969 L 42.242188 29.648438 L 42.097656 30.039062 L 41.980469 30.488281 L 41.890625 30.984375 L 41.820312 32.148438 L 42.125 32.316406 L 42.367188 32.4375 L 42.464844 32.484375 L 42.554688 32.519531 L 42.640625 32.535156 L 42.8125 32.535156 L 42.902344 32.519531 L 43 32.484375 L 43.097656 32.4375 L 43.328125 32.316406 L 43.632812 32.148438 L 43.660156 31.535156 L 43.75 31.066406 L 43.8125 30.878906 L 43.882812 30.71875 L 43.964844 30.597656 L 44.0625 30.507812 L 44.160156 30.4375 L 44.265625 30.402344 L 44.375 30.394531 L 44.5 30.410156 L 44.617188 30.453125 L 44.742188 30.515625 L 44.867188 30.605469 L 45 30.71875 L 45.25 31.003906 L 45.492188 31.367188 L 45.722656 31.800781 L 45.929688 32.296875 L 46.105469 32.847656 L 46.242188 33.441406 L 46.332031 34.078125 L 46.355469 34.742188 L 46.660156 34.910156 L 46.894531 35.035156 L 46.992188 35.078125 L 47.089844 35.113281 L 47.179688 35.132812 L 47.347656 35.132812 L 47.4375 35.113281 L 47.527344 35.078125 L 47.625 35.035156 L 47.867188 34.910156 Z M 48.171875 34.742188 "/>
<path style="fill:none;stroke-width:40;stroke-linecap:butt;stroke-linejoin:round;stroke:rgb(100%,100%,100%);stroke-opacity:1;stroke-miterlimit:4;" d="M 9895.214046 10560.006944 C 9895.214046 9798.006944 9183.975638 9503.878472 9183.975638 10267.201389 C 9285.893565 10325.850694 9285.893565 10325.850694 9386.93666 10267.201389 C 9386.93666 9856.215278 9691.815608 10149.902778 9691.815608 10560.006944 C 9792.858703 10619.097222 9792.858703 10619.097222 9895.214046 10560.006944 Z M 9895.214046 10560.006944 " transform="matrix(0.00893029,0,0,0.00885827,-40.195218,-58.801181)"/>
<path style="fill:none;stroke-width:40;stroke-linecap:butt;stroke-linejoin:round;stroke:rgb(100%,100%,100%);stroke-opacity:1;stroke-miterlimit:4;" d="M 9693.127856 10545.895833 C 9691.815608 10018.052083 9287.205813 9783.895833 9285.893565 10194 " transform="matrix(0.00893029,0,0,0.00885827,-40.195218,-58.801181)"/>
<path style="fill-rule:evenodd;fill:url(#linear6);stroke-width:40;stroke-linecap:butt;stroke-linejoin:round;stroke:rgb(100%,100%,100%);stroke-opacity:1;stroke-miterlimit:4;" d="M 9792.858703 11485.166667 L 9792.858703 10721.84375 L 8981.014617 10253.090278 L 8981.014617 11015.972222 Z M 9792.858703 11485.166667 " transform="matrix(0.00893029,0,0,0.00885827,-40.195218,-58.801181)"/>
<path style=" stroke:none;fill-rule:evenodd;fill:url(#linear7);" d="M 43.125 37.3125 L 43 36.886719 L 42.980469 36.71875 L 42.972656 36.566406 L 42.992188 36.453125 L 43.027344 36.355469 L 43.042969 36.308594 L 43.070312 36.273438 L 43.097656 36.246094 L 43.132812 36.222656 L 43.167969 36.203125 L 43.203125 36.195312 L 43.292969 36.175781 L 43.382812 36.175781 L 43.480469 36.195312 L 43.589844 36.230469 L 43.695312 36.273438 L 43.910156 36.40625 L 44.117188 36.566406 L 44.292969 36.753906 L 44.375 36.859375 L 44.4375 36.957031 L 44.480469 37.0625 L 44.515625 37.167969 L 44.535156 37.265625 L 44.535156 37.371094 L 44.515625 37.460938 L 44.464844 37.558594 L 44.402344 37.640625 L 44.304688 37.71875 L 44.179688 37.78125 L 44.027344 37.832031 L 44.027344 38.871094 L 43.125 38.355469 Z M 43.125 37.3125 "/>
<path style="fill:none;stroke-width:40;stroke-linecap:butt;stroke-linejoin:round;stroke:rgb(100%,100%,100%);stroke-opacity:1;stroke-miterlimit:4;" d="M 9330.072581 10850.166667 C 9228.154654 10556.920139 9634.076697 10850.166667 9431.115675 10908.815972 L 9431.115675 11026.114583 L 9330.072581 10967.90625 Z M 9330.072581 10850.166667 " transform="matrix(0.00893029,0,0,0.00885827,-40.195218,-58.801181)"/>
<path style=" stroke:none;fill-rule:evenodd;fill:rgb(87.058824%,55.686275%,58.823529%);fill-opacity:1;" d="M 47.257812 41.171875 L 47.257812 36.175781 L 49.984375 34.617188 L 49.984375 41.171875 Z M 47.257812 41.171875 "/>
<path style=" stroke:none;fill-rule:evenodd;fill:rgb(87.058824%,56.078431%,59.215686%);fill-opacity:1;" d="M 49.984375 41.171875 L 49.984375 41.378906 L 47.257812 42.9375 L 47.257812 41.171875 Z M 47.257812 41.085938 L 47.257812 36.175781 L 49.984375 34.617188 L 49.984375 41.085938 Z M 47.257812 41.085938 "/>
<path style=" stroke:none;fill-rule:evenodd;fill:rgb(87.45098%,56.862745%,60%);fill-opacity:1;" d="M 49.984375 41.085938 L 49.984375 41.378906 L 47.257812 42.9375 L 47.257812 41.085938 Z M 47.257812 40.996094 L 47.257812 36.175781 L 49.984375 34.617188 L 49.984375 40.996094 Z M 47.257812 40.996094 "/>
<path style=" stroke:none;fill-rule:evenodd;fill:rgb(87.45098%,57.647059%,60.784314%);fill-opacity:1;" d="M 49.984375 40.996094 L 49.984375 41.378906 L 47.257812 42.9375 L 47.257812 40.996094 Z M 47.257812 40.90625 L 47.257812 36.175781 L 49.984375 34.617188 L 49.984375 40.90625 Z M 47.257812 40.90625 "/>
<path style=" stroke:none;fill-rule:evenodd;fill:rgb(87.843137%,58.431373%,61.568627%);fill-opacity:1;" d="M 49.984375 40.90625 L 49.984375 41.378906 L 47.257812 42.9375 L 47.257812 40.90625 Z M 47.257812 40.820312 L 47.257812 36.175781 L 49.984375 34.617188 L 49.984375 40.820312 Z M 47.257812 40.820312 "/>
<path style=" stroke:none;fill-rule:evenodd;fill:rgb(87.843137%,59.215686%,61.960784%);fill-opacity:1;" d="M 49.984375 40.820312 L 49.984375 41.378906 L 47.257812 42.9375 L 47.257812 40.820312 Z M 47.257812 40.730469 L 47.257812 36.175781 L 49.984375 34.617188 L 49.984375 40.730469 Z M 47.257812 40.730469 "/>
<path style=" stroke:none;fill-rule:evenodd;fill:rgb(88.235294%,60%,62.745098%);fill-opacity:1;" d="M 49.984375 40.730469 L 49.984375 41.378906 L 47.257812 42.9375 L 47.257812 40.730469 Z M 47.257812 40.640625 L 47.257812 36.175781 L 49.984375 34.617188 L 49.984375 40.640625 Z M 47.257812 40.640625 "/>
<path style=" stroke:none;fill-rule:evenodd;fill:rgb(88.235294%,60.784314%,63.529412%);fill-opacity:1;" d="M 49.984375 40.640625 L 49.984375 41.378906 L 47.257812 42.9375 L 47.257812 40.640625 Z M 47.257812 40.554688 L 47.257812 36.175781 L 49.984375 34.617188 L 49.984375 40.554688 Z M 47.257812 40.554688 "/>
<path style=" stroke:none;fill-rule:evenodd;fill:rgb(88.627451%,61.568627%,64.313725%);fill-opacity:1;" d="M 49.984375 40.554688 L 49.984375 41.378906 L 47.257812 42.9375 L 47.257812 40.554688 Z M 47.257812 40.464844 L 47.257812 36.175781 L 49.984375 34.617188 L 49.984375 40.464844 Z M 47.257812 40.464844 "/>
<path style=" stroke:none;fill-rule:evenodd;fill:rgb(88.627451%,62.352941%,65.098039%);fill-opacity:1;" d="M 49.984375 40.464844 L 49.984375 41.378906 L 47.257812 42.9375 L 47.257812 40.464844 Z M 47.257812 40.375 L 47.257812 36.175781 L 49.984375 34.617188 L 49.984375 40.375 Z M 47.257812 40.375 "/>
<path style=" stroke:none;fill-rule:evenodd;fill:rgb(89.019608%,63.137255%,65.490196%);fill-opacity:1;" d="M 49.984375 40.375 L 49.984375 41.378906 L 47.257812 42.9375 L 47.257812 40.375 Z M 47.257812 40.289062 L 47.257812 36.175781 L 49.984375 34.617188 L 49.984375 40.289062 Z M 47.257812 40.289062 "/>
<path style=" stroke:none;fill-rule:evenodd;fill:rgb(89.411765%,63.921569%,66.27451%);fill-opacity:1;" d="M 49.984375 40.289062 L 49.984375 41.378906 L 47.257812 42.9375 L 47.257812 40.289062 Z M 47.257812 40.199219 L 47.257812 36.175781 L 49.984375 34.617188 L 49.984375 40.199219 Z M 47.257812 40.199219 "/>
<path style=" stroke:none;fill-rule:evenodd;fill:rgb(89.411765%,64.313725%,67.058824%);fill-opacity:1;" d="M 49.984375 40.199219 L 49.984375 41.378906 L 47.257812 42.9375 L 47.257812 40.199219 Z M 47.257812 40.109375 L 47.257812 36.175781 L 49.984375 34.617188 L 49.984375 40.109375 Z M 47.257812 40.109375 "/>
<path style=" stroke:none;fill-rule:evenodd;fill:rgb(89.803922%,65.098039%,67.843137%);fill-opacity:1;" d="M 49.984375 40.109375 L 49.984375 41.378906 L 47.257812 42.9375 L 47.257812 40.109375 Z M 47.257812 40.023438 L 47.257812 36.175781 L 49.984375 34.617188 L 49.984375 40.023438 Z M 47.257812 40.023438 "/>
<path style=" stroke:none;fill-rule:evenodd;fill:rgb(89.803922%,65.882353%,68.627451%);fill-opacity:1;" d="M 49.984375 40.023438 L 49.984375 41.378906 L 47.257812 42.9375 L 47.257812 40.023438 Z M 47.257812 39.933594 L 47.257812 36.175781 L 49.984375 34.617188 L 49.984375 39.933594 Z M 47.257812 39.933594 "/>
<path style=" stroke:none;fill-rule:evenodd;fill:rgb(90.196078%,66.666667%,69.019608%);fill-opacity:1;" d="M 49.984375 39.933594 L 49.984375 41.378906 L 47.257812 42.9375 L 47.257812 39.933594 Z M 47.257812 39.84375 L 47.257812 36.175781 L 49.984375 34.617188 L 49.984375 39.84375 Z M 47.257812 39.84375 "/>
<path style=" stroke:none;fill-rule:evenodd;fill:rgb(90.196078%,67.45098%,69.803922%);fill-opacity:1;" d="M 49.984375 39.84375 L 49.984375 41.378906 L 47.257812 42.9375 L 47.257812 39.84375 Z M 47.257812 39.757812 L 47.257812 36.175781 L 49.984375 34.617188 L 49.984375 39.757812 Z M 47.257812 39.757812 "/>
<path style=" stroke:none;fill-rule:evenodd;fill:rgb(90.588235%,68.235294%,70.588235%);fill-opacity:1;" d="M 49.984375 39.757812 L 49.984375 41.378906 L 47.257812 42.9375 L 47.257812 39.757812 Z M 47.257812 39.667969 L 47.257812 36.175781 L 49.984375 34.617188 L 49.984375 39.667969 Z M 47.257812 39.667969 "/>
<path style=" stroke:none;fill-rule:evenodd;fill:rgb(90.588235%,69.019608%,71.372549%);fill-opacity:1;" d="M 49.984375 39.667969 L 49.984375 41.378906 L 47.257812 42.9375 L 47.257812 39.667969 Z M 47.257812 39.578125 L 47.257812 36.175781 L 49.984375 34.617188 L 49.984375 39.578125 Z M 47.257812 39.578125 "/>
<path style=" stroke:none;fill-rule:evenodd;fill:rgb(90.980392%,69.803922%,71.764706%);fill-opacity:1;" d="M 49.984375 39.578125 L 49.984375 41.378906 L 47.257812 42.9375 L 47.257812 39.578125 Z M 49.984375 34.707031 L 49.984375 39.488281 L 47.257812 39.488281 L 47.257812 36.175781 L 49.832031 34.707031 Z M 49.984375 34.707031 "/>
<path style=" stroke:none;fill-rule:evenodd;fill:rgb(91.372549%,70.588235%,72.54902%);fill-opacity:1;" d="M 49.984375 39.488281 L 49.984375 41.378906 L 47.257812 42.9375 L 47.257812 39.488281 Z M 49.832031 34.707031 L 49.984375 34.617188 L 49.984375 34.707031 Z M 49.984375 34.796875 L 49.984375 39.402344 L 47.257812 39.402344 L 47.257812 36.175781 L 49.671875 34.796875 Z M 49.984375 34.796875 "/>
<path style=" stroke:none;fill-rule:evenodd;fill:rgb(91.372549%,71.372549%,73.333333%);fill-opacity:1;" d="M 49.984375 39.402344 L 49.984375 41.378906 L 47.257812 42.9375 L 47.257812 39.402344 Z M 49.671875 34.796875 L 49.984375 34.617188 L 49.984375 34.796875 Z M 49.984375 34.882812 L 49.984375 39.3125 L 47.257812 39.3125 L 47.257812 36.175781 L 49.519531 34.882812 Z M 49.984375 34.882812 "/>
<path style=" stroke:none;fill-rule:evenodd;fill:rgb(91.764706%,72.156863%,74.117647%);fill-opacity:1;" d="M 49.984375 39.3125 L 49.984375 41.378906 L 47.257812 42.9375 L 47.257812 39.3125 Z M 49.519531 34.882812 L 49.984375 34.617188 L 49.984375 34.882812 Z M 49.984375 34.972656 L 49.984375 39.222656 L 47.257812 39.222656 L 47.257812 36.175781 L 49.367188 34.972656 Z M 49.984375 34.972656 "/>
<path style=" stroke:none;fill-rule:evenodd;fill:rgb(91.764706%,72.941176%,74.901961%);fill-opacity:1;" d="M 49.984375 39.222656 L 49.984375 41.378906 L 47.257812 42.9375 L 47.257812 39.222656 Z M 49.367188 34.972656 L 49.984375 34.617188 L 49.984375 34.972656 Z M 49.984375 35.0625 L 49.984375 39.136719 L 47.257812 39.136719 L 47.257812 36.175781 L 49.207031 35.0625 Z M 49.984375 35.0625 "/>
<path style=" stroke:none;fill-rule:evenodd;fill:rgb(92.156863%,73.333333%,75.294118%);fill-opacity:1;" d="M 49.984375 39.136719 L 49.984375 41.378906 L 47.257812 42.9375 L 47.257812 39.136719 Z M 49.207031 35.0625 L 49.984375 34.617188 L 49.984375 35.0625 Z M 49.984375 35.148438 L 49.984375 39.046875 L 47.257812 39.046875 L 47.257812 36.175781 L 49.054688 35.148438 Z M 49.984375 35.148438 "/>
<path style=" stroke:none;fill-rule:evenodd;fill:rgb(92.156863%,74.117647%,76.078431%);fill-opacity:1;" d="M 49.984375 39.046875 L 49.984375 41.378906 L 47.257812 42.9375 L 47.257812 39.046875 Z M 49.054688 35.148438 L 49.984375 34.617188 L 49.984375 35.148438 Z M 49.9375 35.238281 L 49.9375 38.957031 L 47.257812 38.957031 L 47.257812 36.175781 L 48.902344 35.238281 Z M 49.9375 35.238281 "/>
<path style=" stroke:none;fill-rule:evenodd;fill:rgb(92.54902%,74.901961%,76.862745%);fill-opacity:1;" d="M 49.9375 38.957031 L 49.9375 35.238281 L 48.902344 35.238281 L 49.984375 34.617188 L 49.984375 41.378906 L 47.257812 42.9375 L 47.257812 38.957031 Z M 49.847656 35.328125 L 49.847656 38.871094 L 47.257812 38.871094 L 47.257812 36.175781 L 48.742188 35.328125 Z M 49.847656 35.328125 "/>
<path style=" stroke:none;fill-rule:evenodd;fill:rgb(92.54902%,75.686275%,77.647059%);fill-opacity:1;" d="M 49.847656 38.871094 L 49.847656 35.328125 L 48.742188 35.328125 L 49.984375 34.617188 L 49.984375 41.378906 L 47.257812 42.9375 L 47.257812 38.871094 Z M 49.757812 35.414062 L 49.757812 38.78125 L 47.257812 38.78125 L 47.257812 36.175781 L 48.589844 35.414062 Z M 49.757812 35.414062 "/>
<path style=" stroke:none;fill-rule:evenodd;fill:rgb(92.941176%,76.470588%,78.431373%);fill-opacity:1;" d="M 49.757812 38.78125 L 49.757812 35.414062 L 48.589844 35.414062 L 49.984375 34.617188 L 49.984375 41.378906 L 47.257812 42.9375 L 47.257812 38.78125 Z M 49.671875 35.503906 L 49.671875 38.691406 L 47.257812 38.691406 L 47.257812 36.175781 L 48.4375 35.503906 Z M 49.671875 35.503906 "/>
<path style=" stroke:none;fill-rule:evenodd;fill:rgb(93.333333%,77.254902%,78.823529%);fill-opacity:1;" d="M 49.671875 38.691406 L 49.671875 35.503906 L 48.4375 35.503906 L 49.984375 34.617188 L 49.984375 41.378906 L 47.257812 42.9375 L 47.257812 38.691406 Z M 49.582031 35.59375 L 49.582031 38.605469 L 47.257812 38.605469 L 47.257812 36.175781 L 48.277344 35.59375 Z M 49.582031 35.59375 "/>
<path style=" stroke:none;fill-rule:evenodd;fill:rgb(93.333333%,78.039216%,79.607843%);fill-opacity:1;" d="M 49.582031 38.605469 L 49.582031 35.59375 L 48.277344 35.59375 L 49.984375 34.617188 L 49.984375 41.378906 L 47.257812 42.9375 L 47.257812 38.605469 Z M 49.492188 35.679688 L 49.492188 38.515625 L 47.257812 38.515625 L 47.257812 36.175781 L 48.125 35.679688 Z M 49.492188 35.679688 "/>
<path style=" stroke:none;fill-rule:evenodd;fill:rgb(93.72549%,78.823529%,80.392157%);fill-opacity:1;" d="M 49.492188 38.515625 L 49.492188 35.679688 L 48.125 35.679688 L 49.984375 34.617188 L 49.984375 41.378906 L 47.257812 42.9375 L 47.257812 38.515625 Z M 49.402344 35.769531 L 49.402344 38.425781 L 47.257812 38.425781 L 47.257812 36.175781 L 47.972656 35.769531 Z M 49.402344 35.769531 "/>
<path style=" stroke:none;fill-rule:evenodd;fill:rgb(93.72549%,79.607843%,81.176471%);fill-opacity:1;" d="M 49.402344 38.425781 L 49.402344 35.769531 L 47.972656 35.769531 L 49.984375 34.617188 L 49.984375 41.378906 L 47.257812 42.9375 L 47.257812 38.425781 Z M 49.3125 35.859375 L 49.3125 38.339844 L 47.257812 38.339844 L 47.257812 36.175781 L 47.8125 35.859375 Z M 49.3125 35.859375 "/>
<path style=" stroke:none;fill-rule:evenodd;fill:rgb(94.117647%,80.392157%,81.568627%);fill-opacity:1;" d="M 49.3125 38.339844 L 49.3125 35.859375 L 47.8125 35.859375 L 49.984375 34.617188 L 49.984375 41.378906 L 47.257812 42.9375 L 47.257812 38.339844 Z M 49.222656 35.945312 L 49.222656 38.25 L 47.257812 38.25 L 47.257812 36.175781 L 47.660156 35.945312 Z M 49.222656 35.945312 "/>
<path style=" stroke:none;fill-rule:evenodd;fill:rgb(94.117647%,81.176471%,82.352941%);fill-opacity:1;" d="M 49.222656 38.25 L 49.222656 35.945312 L 47.660156 35.945312 L 49.984375 34.617188 L 49.984375 41.378906 L 47.257812 42.9375 L 47.257812 38.25 Z M 49.132812 36.035156 L 49.132812 38.160156 L 47.257812 38.160156 L 47.257812 36.175781 L 47.507812 36.035156 Z M 49.132812 36.035156 "/>
<path style=" stroke:none;fill-rule:evenodd;fill:rgb(94.509804%,81.960784%,83.137255%);fill-opacity:1;" d="M 49.132812 38.160156 L 49.132812 36.035156 L 47.507812 36.035156 L 49.984375 34.617188 L 49.984375 41.378906 L 47.257812 42.9375 L 47.257812 38.160156 Z M 49.046875 36.125 L 49.046875 38.074219 L 47.257812 38.074219 L 47.257812 36.175781 L 47.347656 36.125 Z M 49.046875 36.125 "/>
<path style=" stroke:none;fill-rule:evenodd;fill:rgb(94.509804%,82.352941%,83.921569%);fill-opacity:1;" d="M 49.046875 38.074219 L 49.046875 36.125 L 47.347656 36.125 L 49.984375 34.617188 L 49.984375 41.378906 L 47.257812 42.9375 L 47.257812 38.074219 Z M 48.957031 36.210938 L 48.957031 37.984375 L 47.257812 37.984375 L 47.257812 36.210938 Z M 48.957031 36.210938 "/>
<path style=" stroke:none;fill-rule:evenodd;fill:rgb(94.901961%,83.137255%,84.705882%);fill-opacity:1;" d="M 48.957031 37.984375 L 48.957031 36.210938 L 47.257812 36.210938 L 47.257812 36.175781 L 49.984375 34.617188 L 49.984375 41.378906 L 47.257812 42.9375 L 47.257812 37.984375 Z M 47.257812 36.300781 L 48.867188 36.300781 L 48.867188 37.894531 L 47.257812 37.894531 Z M 47.257812 36.300781 "/>
<path style=" stroke:none;fill-rule:evenodd;fill:rgb(95.294118%,83.921569%,85.098039%);fill-opacity:1;" d="M 47.257812 36.300781 L 47.257812 36.175781 L 49.984375 34.617188 L 49.984375 41.378906 L 47.257812 42.9375 L 47.257812 37.894531 L 48.867188 37.894531 L 48.867188 36.300781 Z M 47.347656 36.390625 L 48.777344 36.390625 L 48.777344 37.808594 L 47.347656 37.808594 Z M 47.347656 36.390625 "/>
<path style=" stroke:none;fill-rule:evenodd;fill:rgb(95.294118%,84.705882%,85.882353%);fill-opacity:1;" d="M 47.347656 36.390625 L 47.347656 37.808594 L 48.777344 37.808594 L 48.777344 36.390625 Z M 47.4375 36.476562 L 48.6875 36.476562 L 48.6875 37.71875 L 47.4375 37.71875 Z M 47.257812 42.9375 L 47.257812 36.175781 L 49.984375 34.617188 L 49.984375 41.378906 Z M 47.257812 42.9375 "/>
<path style=" stroke:none;fill-rule:evenodd;fill:rgb(95.686275%,85.490196%,86.666667%);fill-opacity:1;" d="M 47.4375 36.476562 L 47.4375 37.71875 L 48.6875 37.71875 L 48.6875 36.476562 Z M 47.527344 36.566406 L 48.597656 36.566406 L 48.597656 37.628906 L 47.527344 37.628906 Z M 47.257812 42.9375 L 47.257812 36.175781 L 49.984375 34.617188 L 49.984375 41.378906 Z M 47.257812 42.9375 "/>
<path style=" stroke:none;fill-rule:evenodd;fill:rgb(95.686275%,86.27451%,87.45098%);fill-opacity:1;" d="M 47.527344 36.566406 L 47.527344 37.628906 L 48.597656 37.628906 L 48.597656 36.566406 Z M 47.617188 36.65625 L 48.507812 36.65625 L 48.507812 37.542969 L 47.617188 37.542969 Z M 47.257812 42.9375 L 47.257812 36.175781 L 49.984375 34.617188 L 49.984375 41.378906 Z M 47.257812 42.9375 "/>
<path style=" stroke:none;fill-rule:evenodd;fill:rgb(96.078431%,87.058824%,88.235294%);fill-opacity:1;" d="M 47.617188 36.65625 L 47.617188 37.542969 L 48.507812 37.542969 L 48.507812 36.65625 Z M 47.707031 36.742188 L 48.421875 36.742188 L 48.421875 37.453125 L 47.707031 37.453125 Z M 47.257812 42.9375 L 47.257812 36.175781 L 49.984375 34.617188 L 49.984375 41.378906 Z M 47.257812 42.9375 "/>
<path style=" stroke:none;fill-rule:evenodd;fill:rgb(96.078431%,87.843137%,88.627451%);fill-opacity:1;" d="M 47.707031 36.742188 L 47.707031 37.453125 L 48.421875 37.453125 L 48.421875 36.742188 Z M 47.792969 36.832031 L 48.332031 36.832031 L 48.332031 37.363281 L 47.792969 37.363281 Z M 47.257812 42.9375 L 47.257812 36.175781 L 49.984375 34.617188 L 49.984375 41.378906 Z M 47.257812 42.9375 "/>
<path style=" stroke:none;fill-rule:evenodd;fill:rgb(96.470588%,88.627451%,89.411765%);fill-opacity:1;" d="M 47.792969 36.832031 L 47.792969 37.363281 L 48.332031 37.363281 L 48.332031 36.832031 Z M 47.882812 36.921875 L 48.242188 36.921875 L 48.242188 37.277344 L 47.882812 37.277344 Z M 47.257812 42.9375 L 47.257812 36.175781 L 49.984375 34.617188 L 49.984375 41.378906 Z M 47.257812 42.9375 "/>
<path style=" stroke:none;fill-rule:evenodd;fill:rgb(96.470588%,89.411765%,90.196078%);fill-opacity:1;" d="M 47.882812 36.921875 L 47.882812 37.277344 L 48.242188 37.277344 L 48.242188 36.921875 Z M 47.972656 37.011719 L 48.152344 37.011719 L 48.152344 37.1875 L 47.972656 37.1875 Z M 47.257812 42.9375 L 47.257812 36.175781 L 49.984375 34.617188 L 49.984375 41.378906 Z M 47.257812 42.9375 "/>
<path style=" stroke:none;fill-rule:evenodd;fill:rgb(97.254902%,90.980392%,91.764706%);fill-opacity:1;" d="M 47.972656 37.011719 L 47.972656 37.1875 L 48.152344 37.1875 L 48.152344 37.011719 Z M 47.257812 42.9375 L 47.257812 36.175781 L 49.984375 34.617188 L 49.984375 41.378906 Z M 47.257812 42.9375 "/>
<path style="fill:none;stroke-width:40;stroke-linecap:butt;stroke-linejoin:round;stroke:rgb(100%,100%,100%);stroke-opacity:1;stroke-miterlimit:4;" d="M 9792.858703 11485.166667 L 9792.858703 10721.84375 L 10098.175067 10545.895833 L 10098.175067 11309.21875 Z M 9792.858703 11485.166667 " transform="matrix(0.00893029,0,0,0.00885827,-40.195218,-58.801181)"/>
<path style="fill:none;stroke-width:40;stroke-linecap:butt;stroke-linejoin:round;stroke:rgb(0%,0%,0%);stroke-opacity:1;stroke-miterlimit:4;" d="M 9183.975638 10134.909722 C 9285.893565 9490.208333 9895.214046 9901.194444 9895.214046 10429.038194 L 10098.175067 10545.895833 L 10098.175067 11309.21875 L 9792.858703 11485.166667 L 8981.014617 11015.090278 L 8981.014617 10253.090278 Z M 9183.975638 10134.909722 " transform="matrix(0.00893029,0,0,0.00885827,-40.195218,-58.801181)"/>
<path style="fill:none;stroke-width:40;stroke-linecap:butt;stroke-linejoin:round;stroke:rgb(50.196078%,50.196078%,50.196078%);stroke-opacity:1;stroke-miterlimit:4;" d="M 9410.99454 10144.170139 C 9459.985131 9993.798611 9599.083417 10153.871528 9613.080729 10269.847222 Z M 9410.99454 10144.170139 " transform="matrix(0.00893029,0,0,0.00885827,-40.195218,-58.801181)"/>
</g>
</svg>
