<?xml version="1.0" encoding="UTF-8"?>
<svg xmlns="http://www.w3.org/2000/svg" xmlns:xlink="http://www.w3.org/1999/xlink" width="62pt" height="43pt" viewBox="0 0 62 43" version="1.1">
<defs>
<linearGradient id="linear0" gradientUnits="userSpaceOnUse" x1="4935" y1="14720" x2="8300" y2="14726" >
<stop offset="0.1" style="stop-color:rgb(70.196078%,70.196078%,70.196078%);stop-opacity:1;"/>
<stop offset="1" style="stop-color:rgb(89.803922%,89.803922%,89.803922%);stop-opacity:1;"/>
</linearGradient>
<linearGradient id="linear1" gradientUnits="userSpaceOnUse" x1="8058" y1="11534" x2="8058" y2="15140" >
<stop offset="0.1" style="stop-color:rgb(70.196078%,70.196078%,70.196078%);stop-opacity:1;"/>
<stop offset="1" style="stop-color:rgb(89.803922%,89.803922%,89.803922%);stop-opacity:1;"/>
</linearGradient>
<linearGradient id="linear2" gradientUnits="userSpaceOnUse" x1="4746" y1="13697" x2="4940" y2="13697" >
<stop offset="0.1" style="stop-color:rgb(70.196078%,70.196078%,70.196078%);stop-opacity:1;"/>
<stop offset="1" style="stop-color:rgb(89.803922%,89.803922%,89.803922%);stop-opacity:1;"/>
</linearGradient>
<linearGradient id="linear3" gradientUnits="userSpaceOnUse" x1="8297" y1="15750" x2="8491" y2="15750" >
<stop offset="0.1" style="stop-color:rgb(70.196078%,70.196078%,70.196078%);stop-opacity:1;"/>
<stop offset="1" style="stop-color:rgb(89.803922%,89.803922%,89.803922%);stop-opacity:1;"/>
</linearGradient>
</defs>
<g id="surface1">
<path style="fill-rule:evenodd;fill:rgb(86.666667%,86.666667%,86.666667%);fill-opacity:1;stroke-width:28.222;stroke-linecap:butt;stroke-linejoin:round;stroke:rgb(86.666667%,86.666667%,86.666667%);stroke-opacity:1;stroke-miterlimit:4;" d="M 8490.964634 16361.166667 C 8753.851647 16361.166667 11657.856435 15084.993056 11657.856435 14696.055556 C 11657.856435 14308 11250.184728 14308 10985.985467 14308 C 10985.985467 14473.805556 8395.170531 15140.114583 8490.964634 16361.166667 Z M 8490.964634 16361.166667 " transform="matrix(0.00893029,0,0,0.00885827,-42.213463,-101.994094)"/>
<path style="fill-rule:evenodd;fill:url(#linear0);stroke-width:40;stroke-linecap:butt;stroke-linejoin:round;stroke:rgb(100%,100%,100%);stroke-opacity:1;stroke-miterlimit:4;" d="M 4939.146757 14308 L 4939.146757 13198.072917 L 8298.06418 15140.114583 L 8298.06418 16249.159722 Z M 4939.146757 14308 " transform="matrix(0.00893029,0,0,0.00885827,-42.213463,-101.994094)"/>
<path style=" stroke:none;fill-rule:evenodd;fill:rgb(70.196078%,70.196078%,70.196078%);fill-opacity:1;" d="M 52.199219 30.3125 L 40.097656 37.25 L 31.890625 37.25 L 31.890625 32.121094 L 52.199219 20.480469 Z M 52.199219 30.3125 "/>
<path style=" stroke:none;fill-rule:evenodd;fill:rgb(70.588235%,70.588235%,70.588235%);fill-opacity:1;" d="M 40.097656 37.25 L 31.890625 41.953125 L 31.890625 37.25 Z M 52.199219 20.480469 L 57.601562 17.378906 L 57.601562 27.210938 L 52.199219 30.3125 Z M 51.9375 30.453125 L 40.542969 36.992188 L 31.890625 36.992188 L 31.890625 32.121094 L 51.9375 20.621094 Z M 51.9375 30.453125 "/>
<path style=" stroke:none;fill-rule:evenodd;fill:rgb(70.980392%,70.980392%,70.980392%);fill-opacity:1;" d="M 40.542969 36.992188 L 31.890625 41.953125 L 31.890625 36.992188 Z M 51.9375 20.621094 L 57.601562 17.378906 L 57.601562 27.210938 L 51.9375 30.453125 Z M 51.679688 30.605469 L 40.988281 36.734375 L 31.890625 36.734375 L 31.890625 32.121094 L 51.679688 20.773438 Z M 51.679688 30.605469 "/>
<path style=" stroke:none;fill-rule:evenodd;fill:rgb(71.372549%,71.372549%,71.372549%);fill-opacity:1;" d="M 40.988281 36.734375 L 31.890625 41.953125 L 31.890625 36.734375 Z M 51.679688 20.773438 L 57.601562 17.378906 L 57.601562 27.210938 L 51.679688 30.605469 Z M 51.421875 30.757812 L 41.4375 36.476562 L 31.890625 36.476562 L 31.890625 32.121094 L 51.421875 20.921875 Z M 51.421875 30.757812 "/>
<path style=" stroke:none;fill-rule:evenodd;fill:rgb(71.764706%,71.764706%,71.764706%);fill-opacity:1;" d="M 41.4375 36.476562 L 31.890625 41.953125 L 31.890625 36.476562 Z M 51.421875 20.921875 L 57.601562 17.378906 L 57.601562 27.210938 L 51.421875 30.757812 Z M 51.160156 30.90625 L 41.882812 36.222656 L 31.890625 36.222656 L 31.890625 32.121094 L 51.160156 21.074219 Z M 51.160156 30.90625 "/>
<path style=" stroke:none;fill-rule:evenodd;fill:rgb(72.156863%,72.156863%,72.156863%);fill-opacity:1;" d="M 41.882812 36.222656 L 31.890625 41.953125 L 31.890625 36.222656 Z M 51.160156 21.074219 L 57.601562 17.378906 L 57.601562 27.210938 L 51.160156 30.90625 Z M 50.910156 31.046875 L 42.320312 35.972656 L 31.890625 35.972656 L 31.890625 32.121094 L 50.910156 21.214844 Z M 50.910156 31.046875 "/>
<path style=" stroke:none;fill-rule:evenodd;fill:rgb(72.54902%,72.54902%,72.54902%);fill-opacity:1;" d="M 42.320312 35.972656 L 31.890625 41.953125 L 31.890625 35.972656 Z M 50.910156 21.214844 L 57.601562 17.378906 L 57.601562 27.210938 L 50.910156 31.046875 Z M 50.652344 31.199219 L 42.765625 35.714844 L 31.890625 35.714844 L 31.890625 32.121094 L 50.652344 21.367188 Z M 50.652344 31.199219 "/>
<path style=" stroke:none;fill-rule:evenodd;fill:rgb(72.941176%,72.941176%,72.941176%);fill-opacity:1;" d="M 42.765625 35.714844 L 31.890625 41.953125 L 31.890625 35.714844 Z M 50.652344 21.367188 L 57.601562 17.378906 L 57.601562 27.210938 L 50.652344 31.199219 Z M 50.394531 31.339844 L 43.214844 35.460938 L 31.890625 35.460938 L 31.890625 32.121094 L 50.394531 21.507812 Z M 50.394531 31.339844 "/>
<path style=" stroke:none;fill-rule:evenodd;fill:rgb(73.333333%,73.333333%,73.333333%);fill-opacity:1;" d="M 43.214844 35.460938 L 31.890625 41.953125 L 31.890625 35.460938 Z M 50.394531 21.507812 L 57.601562 17.378906 L 57.601562 27.210938 L 50.394531 31.339844 Z M 50.132812 31.492188 L 43.660156 35.203125 L 31.890625 35.203125 L 31.890625 32.121094 L 50.132812 21.660156 Z M 50.132812 31.492188 "/>
<path style=" stroke:none;fill-rule:evenodd;fill:rgb(73.72549%,73.72549%,73.72549%);fill-opacity:1;" d="M 43.660156 35.203125 L 31.890625 41.953125 L 31.890625 35.203125 Z M 50.132812 21.660156 L 57.601562 17.378906 L 57.601562 27.210938 L 50.132812 31.492188 Z M 49.875 31.640625 L 44.117188 34.945312 L 31.890625 34.945312 L 31.890625 32.121094 L 49.875 21.808594 Z M 49.875 31.640625 "/>
<path style=" stroke:none;fill-rule:evenodd;fill:rgb(74.117647%,74.117647%,74.117647%);fill-opacity:1;" d="M 44.117188 34.945312 L 31.890625 41.953125 L 31.890625 34.945312 Z M 49.875 21.808594 L 57.601562 17.378906 L 57.601562 27.210938 L 49.875 31.640625 Z M 49.617188 31.792969 L 44.5625 34.6875 L 31.890625 34.6875 L 31.890625 32.121094 L 49.617188 21.960938 Z M 49.617188 31.792969 "/>
<path style=" stroke:none;fill-rule:evenodd;fill:rgb(74.509804%,74.509804%,74.509804%);fill-opacity:1;" d="M 44.5625 34.6875 L 31.890625 41.953125 L 31.890625 34.6875 Z M 49.617188 21.960938 L 57.601562 17.378906 L 57.601562 27.210938 L 49.617188 31.792969 Z M 49.367188 31.933594 L 44.992188 34.441406 L 31.890625 34.441406 L 31.890625 32.121094 L 49.367188 22.101562 Z M 49.367188 31.933594 "/>
<path style=" stroke:none;fill-rule:evenodd;fill:rgb(74.901961%,74.901961%,74.901961%);fill-opacity:1;" d="M 44.992188 34.441406 L 31.890625 41.953125 L 31.890625 34.441406 Z M 49.367188 22.101562 L 57.601562 17.378906 L 57.601562 27.210938 L 49.367188 31.933594 Z M 49.109375 32.085938 L 45.4375 34.183594 L 31.890625 34.183594 L 31.890625 32.121094 L 49.109375 22.253906 Z M 49.109375 32.085938 "/>
<path style=" stroke:none;fill-rule:evenodd;fill:rgb(75.294118%,75.294118%,75.294118%);fill-opacity:1;" d="M 45.4375 34.183594 L 31.890625 41.953125 L 31.890625 34.183594 Z M 49.109375 22.253906 L 57.601562 17.378906 L 57.601562 27.210938 L 49.109375 32.085938 Z M 48.847656 32.226562 L 45.894531 33.925781 L 31.890625 33.925781 L 31.890625 32.121094 L 48.847656 22.394531 Z M 48.847656 32.226562 "/>
<path style=" stroke:none;fill-rule:evenodd;fill:rgb(75.686275%,75.686275%,75.686275%);fill-opacity:1;" d="M 45.894531 33.925781 L 31.890625 41.953125 L 31.890625 33.925781 Z M 48.847656 22.394531 L 57.601562 17.378906 L 57.601562 27.210938 L 48.847656 32.226562 Z M 48.589844 32.378906 L 46.339844 33.671875 L 31.890625 33.671875 L 31.890625 32.121094 L 48.589844 22.542969 Z M 48.589844 32.378906 "/>
<path style=" stroke:none;fill-rule:evenodd;fill:rgb(76.078431%,76.078431%,76.078431%);fill-opacity:1;" d="M 46.339844 33.671875 L 31.890625 41.953125 L 31.890625 33.671875 Z M 48.589844 22.542969 L 57.601562 17.378906 L 57.601562 27.210938 L 48.589844 32.378906 Z M 48.332031 32.527344 L 46.785156 33.414062 L 31.890625 33.414062 L 31.890625 32.121094 L 48.332031 22.695312 Z M 48.332031 32.527344 "/>
<path style=" stroke:none;fill-rule:evenodd;fill:rgb(76.470588%,76.470588%,76.470588%);fill-opacity:1;" d="M 46.785156 33.414062 L 31.890625 41.953125 L 31.890625 33.414062 Z M 48.332031 22.695312 L 57.601562 17.378906 L 57.601562 27.210938 L 48.332031 32.527344 Z M 48.082031 32.667969 L 47.214844 33.164062 L 31.890625 33.164062 L 31.890625 32.121094 L 48.082031 22.835938 Z M 48.082031 32.667969 "/>
<path style=" stroke:none;fill-rule:evenodd;fill:rgb(76.862745%,76.862745%,76.862745%);fill-opacity:1;" d="M 47.214844 33.164062 L 31.890625 41.953125 L 31.890625 33.164062 Z M 48.082031 22.835938 L 57.601562 17.378906 L 57.601562 27.210938 L 48.082031 32.667969 Z M 47.820312 32.820312 L 47.667969 32.910156 L 31.890625 32.910156 L 31.890625 32.121094 L 47.820312 22.988281 Z M 47.820312 32.820312 "/>
<path style=" stroke:none;fill-rule:evenodd;fill:rgb(77.254902%,77.254902%,77.254902%);fill-opacity:1;" d="M 47.667969 32.910156 L 31.890625 41.953125 L 31.890625 32.910156 Z M 47.820312 22.988281 L 57.601562 17.378906 L 57.601562 27.210938 L 47.820312 32.820312 Z M 47.5625 32.652344 L 31.890625 32.652344 L 31.890625 32.121094 L 47.5625 23.136719 Z M 47.5625 32.652344 "/>
<path style=" stroke:none;fill-rule:evenodd;fill:rgb(77.647059%,77.647059%,77.647059%);fill-opacity:1;" d="M 47.5625 32.652344 L 47.5625 23.136719 L 57.601562 17.378906 L 57.601562 27.210938 L 31.890625 41.953125 L 31.890625 32.652344 Z M 47.304688 32.394531 L 31.890625 32.394531 L 31.890625 32.121094 L 47.304688 23.28125 Z M 47.304688 32.394531 "/>
<path style=" stroke:none;fill-rule:evenodd;fill:rgb(78.039216%,78.039216%,78.039216%);fill-opacity:1;" d="M 47.304688 32.394531 L 47.304688 23.28125 L 57.601562 17.378906 L 57.601562 27.210938 L 31.890625 41.953125 L 31.890625 32.394531 Z M 47.042969 32.136719 L 32.132812 32.136719 L 32.132812 31.976562 L 47.042969 23.429688 Z M 47.042969 32.136719 "/>
<path style=" stroke:none;fill-rule:evenodd;fill:rgb(78.431373%,78.431373%,78.431373%);fill-opacity:1;" d="M 32.132812 32.136719 L 47.042969 32.136719 L 47.042969 23.429688 L 57.601562 17.378906 L 57.601562 27.210938 L 31.890625 41.953125 L 31.890625 32.121094 L 32.132812 31.976562 Z M 46.785156 31.882812 L 32.390625 31.882812 L 32.390625 31.835938 L 46.785156 23.582031 Z M 46.785156 31.882812 "/>
<path style=" stroke:none;fill-rule:evenodd;fill:rgb(78.823529%,78.823529%,78.823529%);fill-opacity:1;" d="M 32.390625 31.882812 L 46.785156 31.882812 L 46.785156 23.582031 L 57.601562 17.378906 L 57.601562 27.210938 L 31.890625 41.953125 L 31.890625 32.121094 L 32.390625 31.835938 Z M 46.535156 31.632812 L 32.738281 31.632812 L 46.535156 23.722656 Z M 46.535156 31.632812 "/>
<path style=" stroke:none;fill-rule:evenodd;fill:rgb(79.215686%,79.215686%,79.215686%);fill-opacity:1;" d="M 46.535156 31.632812 L 46.535156 23.722656 L 57.601562 17.378906 L 57.601562 27.210938 L 31.890625 41.953125 L 31.890625 32.121094 L 32.738281 31.632812 Z M 46.277344 31.375 L 33.183594 31.375 L 46.277344 23.871094 Z M 46.277344 31.375 "/>
<path style=" stroke:none;fill-rule:evenodd;fill:rgb(79.607843%,79.607843%,79.607843%);fill-opacity:1;" d="M 46.277344 31.375 L 46.277344 23.871094 L 57.601562 17.378906 L 57.601562 27.210938 L 31.890625 41.953125 L 31.890625 32.121094 L 33.183594 31.375 Z M 46.019531 31.117188 L 33.640625 31.117188 L 46.019531 24.023438 Z M 46.019531 31.117188 "/>
<path style=" stroke:none;fill-rule:evenodd;fill:rgb(80%,80%,80%);fill-opacity:1;" d="M 46.019531 31.117188 L 46.019531 24.023438 L 57.601562 17.378906 L 57.601562 27.210938 L 31.890625 41.953125 L 31.890625 32.121094 L 33.640625 31.117188 Z M 45.757812 30.863281 L 34.085938 30.863281 L 45.757812 24.164062 Z M 45.757812 30.863281 "/>
<path style=" stroke:none;fill-rule:evenodd;fill:rgb(80.392157%,80.392157%,80.392157%);fill-opacity:1;" d="M 45.757812 30.863281 L 45.757812 24.164062 L 57.601562 17.378906 L 57.601562 27.210938 L 31.890625 41.953125 L 31.890625 32.121094 L 34.085938 30.863281 Z M 45.5 30.605469 L 34.535156 30.605469 L 45.5 24.316406 Z M 45.5 30.605469 "/>
<path style=" stroke:none;fill-rule:evenodd;fill:rgb(80.784314%,80.784314%,80.784314%);fill-opacity:1;" d="M 45.5 30.605469 L 45.5 24.316406 L 57.601562 17.378906 L 57.601562 27.210938 L 31.890625 41.953125 L 31.890625 32.121094 L 34.535156 30.605469 Z M 45.25 30.355469 L 34.960938 30.355469 L 45.25 24.457031 Z M 45.25 30.355469 "/>
<path style=" stroke:none;fill-rule:evenodd;fill:rgb(81.176471%,81.176471%,81.176471%);fill-opacity:1;" d="M 45.25 30.355469 L 45.25 24.457031 L 57.601562 17.378906 L 57.601562 27.210938 L 31.890625 41.953125 L 31.890625 32.121094 L 34.960938 30.355469 Z M 44.992188 30.101562 L 35.410156 30.101562 L 44.992188 24.609375 Z M 44.992188 30.101562 "/>
<path style=" stroke:none;fill-rule:evenodd;fill:rgb(81.568627%,81.568627%,81.568627%);fill-opacity:1;" d="M 44.992188 30.101562 L 44.992188 24.609375 L 57.601562 17.378906 L 57.601562 27.210938 L 31.890625 41.953125 L 31.890625 32.121094 L 35.410156 30.101562 Z M 44.730469 29.84375 L 35.863281 29.84375 L 44.730469 24.757812 Z M 44.730469 29.84375 "/>
<path style=" stroke:none;fill-rule:evenodd;fill:rgb(81.960784%,81.960784%,81.960784%);fill-opacity:1;" d="M 44.730469 29.84375 L 44.730469 24.757812 L 57.601562 17.378906 L 57.601562 27.210938 L 31.890625 41.953125 L 31.890625 32.121094 L 35.863281 29.84375 Z M 44.472656 29.585938 L 36.308594 29.585938 L 44.472656 24.910156 Z M 44.472656 29.585938 "/>
<path style=" stroke:none;fill-rule:evenodd;fill:rgb(82.352941%,82.352941%,82.352941%);fill-opacity:1;" d="M 44.472656 29.585938 L 44.472656 24.910156 L 57.601562 17.378906 L 57.601562 27.210938 L 31.890625 41.953125 L 31.890625 32.121094 L 36.308594 29.585938 Z M 44.214844 29.328125 L 36.757812 29.328125 L 44.214844 25.050781 Z M 44.214844 29.328125 "/>
<path style=" stroke:none;fill-rule:evenodd;fill:rgb(82.745098%,82.745098%,82.745098%);fill-opacity:1;" d="M 44.214844 29.328125 L 44.214844 25.050781 L 57.601562 17.378906 L 57.601562 27.210938 L 31.890625 41.953125 L 31.890625 32.121094 L 36.757812 29.328125 Z M 43.953125 29.074219 L 37.203125 29.074219 L 43.953125 25.203125 Z M 43.953125 29.074219 "/>
<path style=" stroke:none;fill-rule:evenodd;fill:rgb(83.137255%,83.137255%,83.137255%);fill-opacity:1;" d="M 43.953125 29.074219 L 43.953125 25.203125 L 57.601562 17.378906 L 57.601562 27.210938 L 31.890625 41.953125 L 31.890625 32.121094 L 37.203125 29.074219 Z M 43.703125 28.824219 L 37.640625 28.824219 L 43.703125 25.34375 Z M 43.703125 28.824219 "/>
<path style=" stroke:none;fill-rule:evenodd;fill:rgb(83.529412%,83.529412%,83.529412%);fill-opacity:1;" d="M 43.703125 28.824219 L 43.703125 25.34375 L 57.601562 17.378906 L 57.601562 27.210938 L 31.890625 41.953125 L 31.890625 32.121094 L 37.640625 28.824219 Z M 43.445312 28.566406 L 38.085938 28.566406 L 43.445312 25.492188 Z M 43.445312 28.566406 "/>
<path style=" stroke:none;fill-rule:evenodd;fill:rgb(83.921569%,83.921569%,83.921569%);fill-opacity:1;" d="M 43.445312 28.566406 L 43.445312 25.492188 L 57.601562 17.378906 L 57.601562 27.210938 L 31.890625 41.953125 L 31.890625 32.121094 L 38.085938 28.566406 Z M 43.1875 28.3125 L 38.535156 28.3125 L 43.1875 25.644531 Z M 43.1875 28.3125 "/>
<path style=" stroke:none;fill-rule:evenodd;fill:rgb(84.313725%,84.313725%,84.313725%);fill-opacity:1;" d="M 43.1875 28.3125 L 43.1875 25.644531 L 57.601562 17.378906 L 57.601562 27.210938 L 31.890625 41.953125 L 31.890625 32.121094 L 38.535156 28.3125 Z M 42.929688 28.054688 L 38.980469 28.054688 L 42.929688 25.796875 Z M 42.929688 28.054688 "/>
<path style=" stroke:none;fill-rule:evenodd;fill:rgb(84.705882%,84.705882%,84.705882%);fill-opacity:1;" d="M 42.929688 28.054688 L 42.929688 25.796875 L 57.601562 17.378906 L 57.601562 27.210938 L 31.890625 41.953125 L 31.890625 32.121094 L 38.980469 28.054688 Z M 42.667969 27.796875 L 39.425781 27.796875 L 42.667969 25.9375 Z M 42.667969 27.796875 "/>
<path style=" stroke:none;fill-rule:evenodd;fill:rgb(85.098039%,85.098039%,85.098039%);fill-opacity:1;" d="M 42.667969 27.796875 L 42.667969 25.9375 L 57.601562 17.378906 L 57.601562 27.210938 L 31.890625 41.953125 L 31.890625 32.121094 L 39.425781 27.796875 Z M 42.417969 27.550781 L 39.863281 27.550781 L 42.417969 26.085938 Z M 42.417969 27.550781 "/>
<path style=" stroke:none;fill-rule:evenodd;fill:rgb(85.490196%,85.490196%,85.490196%);fill-opacity:1;" d="M 42.417969 27.550781 L 42.417969 26.085938 L 57.601562 17.378906 L 57.601562 27.210938 L 31.890625 41.953125 L 31.890625 32.121094 L 39.863281 27.550781 Z M 42.160156 27.292969 L 40.3125 27.292969 L 42.160156 26.230469 Z M 42.160156 27.292969 "/>
<path style=" stroke:none;fill-rule:evenodd;fill:rgb(85.882353%,85.882353%,85.882353%);fill-opacity:1;" d="M 42.160156 27.292969 L 42.160156 26.230469 L 57.601562 17.378906 L 57.601562 27.210938 L 31.890625 41.953125 L 31.890625 32.121094 L 40.3125 27.292969 Z M 41.902344 27.035156 L 40.757812 27.035156 L 41.902344 26.378906 Z M 41.902344 27.035156 "/>
<path style=" stroke:none;fill-rule:evenodd;fill:rgb(86.27451%,86.27451%,86.27451%);fill-opacity:1;" d="M 41.902344 27.035156 L 41.902344 26.378906 L 57.601562 17.378906 L 57.601562 27.210938 L 31.890625 41.953125 L 31.890625 32.121094 L 40.757812 27.035156 Z M 41.640625 26.777344 L 41.203125 26.777344 L 41.640625 26.53125 Z M 41.640625 26.777344 "/>
<path style=" stroke:none;fill-rule:evenodd;fill:rgb(86.666667%,86.666667%,86.666667%);fill-opacity:1;" d="M 41.640625 26.777344 L 41.640625 26.53125 L 57.601562 17.378906 L 57.601562 27.210938 L 31.890625 41.953125 L 31.890625 32.121094 L 41.203125 26.777344 Z M 41.640625 26.777344 "/>
<path style=" stroke:none;fill-rule:evenodd;fill:rgb(87.058824%,87.058824%,87.058824%);fill-opacity:1;" d="M 31.890625 41.953125 L 31.890625 32.121094 L 57.601562 17.378906 L 57.601562 27.210938 Z M 31.890625 41.953125 "/>
<path style=" stroke:none;fill-rule:evenodd;fill:rgb(87.45098%,87.45098%,87.45098%);fill-opacity:1;" d="M 31.890625 41.953125 L 31.890625 32.121094 L 57.601562 17.378906 L 57.601562 27.210938 Z M 31.890625 41.953125 "/>
<path style=" stroke:none;fill-rule:evenodd;fill:rgb(87.843137%,87.843137%,87.843137%);fill-opacity:1;" d="M 31.890625 41.953125 L 31.890625 32.121094 L 57.601562 17.378906 L 57.601562 27.210938 Z M 31.890625 41.953125 "/>
<path style=" stroke:none;fill-rule:evenodd;fill:rgb(88.235294%,88.235294%,88.235294%);fill-opacity:1;" d="M 31.890625 41.953125 L 31.890625 32.121094 L 57.601562 17.378906 L 57.601562 27.210938 Z M 31.890625 41.953125 "/>
<path style=" stroke:none;fill-rule:evenodd;fill:rgb(88.627451%,88.627451%,88.627451%);fill-opacity:1;" d="M 31.890625 41.953125 L 31.890625 32.121094 L 57.601562 17.378906 L 57.601562 27.210938 Z M 31.890625 41.953125 "/>
<path style=" stroke:none;fill-rule:evenodd;fill:rgb(89.019608%,89.019608%,89.019608%);fill-opacity:1;" d="M 31.890625 41.953125 L 31.890625 32.121094 L 57.601562 17.378906 L 57.601562 27.210938 Z M 31.890625 41.953125 "/>
<path style="fill-rule:evenodd;fill:rgb(89.803922%,89.803922%,89.803922%);fill-opacity:1;stroke-width:40;stroke-linecap:butt;stroke-linejoin:round;stroke:rgb(100%,100%,100%);stroke-opacity:1;stroke-miterlimit:4;" d="M 8298.06418 16250.041667 L 8298.06418 15140.114583 L 11177.136257 13475.885417 L 11177.136257 14585.8125 Z M 8298.06418 16250.041667 " transform="matrix(0.00893029,0,0,0.00885827,-42.213463,-101.994094)"/>
<path style="fill-rule:evenodd;fill:url(#linear1);stroke-width:40;stroke-linecap:butt;stroke-linejoin:round;stroke:rgb(100%,100%,100%);stroke-opacity:1;stroke-miterlimit:4;" d="M 8298.06418 15140.114583 L 4939.146757 13198.072917 L 7817.781418 11533.84375 L 11178.011089 13475.885417 Z M 8298.06418 15140.114583 " transform="matrix(0.00893029,0,0,0.00885827,-42.213463,-101.994094)"/>
<path style="fill:none;stroke-width:40;stroke-linecap:butt;stroke-linejoin:round;stroke:rgb(49.803922%,49.803922%,49.803922%);stroke-opacity:1;stroke-miterlimit:4;" d="M 6090.863071 14086.190972 L 6090.863071 14752.059028 " transform="matrix(0.00893029,0,0,0.00885827,-42.213463,-101.994094)"/>
<path style="fill:none;stroke-width:40;stroke-linecap:butt;stroke-linejoin:round;stroke:rgb(100%,100%,100%);stroke-opacity:1;stroke-miterlimit:4;" d="M 8203.144909 15507.003472 L 6666.939936 14618.885417 " transform="matrix(0.00893029,0,0,0.00885827,-42.213463,-101.994094)"/>
<path style="fill:none;stroke-width:40;stroke-linecap:butt;stroke-linejoin:round;stroke:rgb(100%,100%,100%);stroke-opacity:1;stroke-miterlimit:4;" d="M 6658.191616 14419.125 L 6658.191616 14640.934028 " transform="matrix(0.00893029,0,0,0.00885827,-42.213463,-101.994094)"/>
<path style="fill:none;stroke-width:40;stroke-linecap:butt;stroke-linejoin:round;stroke:rgb(0%,0%,0%);stroke-opacity:1;stroke-miterlimit:4;" d="M 8193.959173 15306.802083 L 8193.959173 15529.052083 " transform="matrix(0.00893029,0,0,0.00885827,-42.213463,-101.994094)"/>
<path style="fill:none;stroke-width:40;stroke-linecap:butt;stroke-linejoin:round;stroke:rgb(0%,0%,0%);stroke-opacity:1;stroke-miterlimit:4;" d="M 8193.959173 15306.802083 L 6658.191616 14419.125 " transform="matrix(0.00893029,0,0,0.00885827,-42.213463,-101.994094)"/>
<path style="fill-rule:evenodd;fill:rgb(22.352941%,70.980392%,29.019608%);fill-opacity:1;stroke-width:40;stroke-linecap:butt;stroke-linejoin:round;stroke:rgb(0%,0%,0%);stroke-opacity:1;stroke-miterlimit:4;" d="M 6282.888693 14419.125 L 6282.888693 14196.875 L 6474.914315 14308 L 6474.914315 14529.809028 Z M 6282.888693 14419.125 " transform="matrix(0.00893029,0,0,0.00885827,-42.213463,-101.994094)"/>
<path style="fill:none;stroke-width:40;stroke-linecap:butt;stroke-linejoin:round;stroke:rgb(49.803922%,49.803922%,49.803922%);stroke-opacity:1;stroke-miterlimit:4;" d="M 5898.83745 13975.065972 L 5898.83745 14640.934028 " transform="matrix(0.00893029,0,0,0.00885827,-42.213463,-101.994094)"/>
<path style="fill:none;stroke-width:40;stroke-linecap:butt;stroke-linejoin:round;stroke:rgb(49.803922%,49.803922%,49.803922%);stroke-opacity:1;stroke-miterlimit:4;" d="M 5706.811828 13863.940972 L 5706.811828 14529.809028 " transform="matrix(0.00893029,0,0,0.00885827,-42.213463,-101.994094)"/>
<path style="fill:none;stroke-width:40;stroke-linecap:butt;stroke-linejoin:round;stroke:rgb(49.803922%,49.803922%,49.803922%);stroke-opacity:1;stroke-miterlimit:4;" d="M 5514.786206 13752.815972 L 5514.786206 14419.125 " transform="matrix(0.00893029,0,0,0.00885827,-42.213463,-101.994094)"/>
<path style="fill:none;stroke-width:40;stroke-linecap:butt;stroke-linejoin:round;stroke:rgb(49.803922%,49.803922%,49.803922%);stroke-opacity:1;stroke-miterlimit:4;" d="M 5323.198001 13642.131944 L 5323.198001 14308 " transform="matrix(0.00893029,0,0,0.00885827,-42.213463,-101.994094)"/>
<path style="fill:none;stroke-width:40;stroke-linecap:butt;stroke-linejoin:round;stroke:rgb(49.803922%,49.803922%,49.803922%);stroke-opacity:1;stroke-miterlimit:4;" d="M 5131.172379 13531.006944 L 5131.172379 14196.875 " transform="matrix(0.00893029,0,0,0.00885827,-42.213463,-101.994094)"/>
<path style="fill-rule:evenodd;fill:url(#linear2);stroke-width:40;stroke-linecap:butt;stroke-linejoin:round;stroke:rgb(100%,100%,100%);stroke-opacity:1;stroke-miterlimit:4;" d="M 4747.121136 14196.875 L 4747.121136 13086.947917 L 4939.146757 13198.072917 L 4939.146757 14308 Z M 4747.121136 14196.875 " transform="matrix(0.00893029,0,0,0.00885827,-42.213463,-101.994094)"/>
<path style="fill-rule:evenodd;fill:url(#linear3);stroke-width:40;stroke-linecap:butt;stroke-linejoin:round;stroke:rgb(100%,100%,100%);stroke-opacity:1;stroke-miterlimit:4;" d="M 8298.06418 16250.041667 L 8298.06418 15140.114583 L 8490.089802 15250.798611 L 8490.089802 16361.166667 Z M 8298.06418 16250.041667 " transform="matrix(0.00893029,0,0,0.00885827,-42.213463,-101.994094)"/>
<path style="fill:none;stroke-width:40;stroke-linecap:butt;stroke-linejoin:round;stroke:rgb(0%,0%,0%);stroke-opacity:1;stroke-miterlimit:4;" d="M 4747.121136 14196.875 L 4747.121136 13086.947917 L 4939.146757 13198.072917 L 7817.781418 11533.84375 L 11178.011089 13475.885417 L 11178.011089 14584.930556 L 8490.089802 16138.916667 L 8490.089802 16361.166667 Z M 4747.121136 14196.875 " transform="matrix(0.00893029,0,0,0.00885827,-42.213463,-101.994094)"/>
</g>
</svg>
