<?xml version="1.0" encoding="UTF-8"?>
<svg xmlns="http://www.w3.org/2000/svg" xmlns:xlink="http://www.w3.org/1999/xlink" width="49pt" height="45pt" viewBox="0 0 49 45" version="1.1">
<defs>
<linearGradient id="linear0" gradientUnits="userSpaceOnUse" x1="9639" y1="9202" x2="9639" y2="10793" gradientTransform="matrix(1,0,0,1,0.000000000000909495,0)">
<stop offset="0.1" style="stop-color:rgb(70.196078%,70.196078%,70.196078%);stop-opacity:1;"/>
<stop offset="1" style="stop-color:rgb(89.803922%,89.803922%,89.803922%);stop-opacity:1;"/>
</linearGradient>
<linearGradient id="linear1" gradientUnits="userSpaceOnUse" x1="6593" y1="12125" x2="8561" y2="12129" gradientTransform="matrix(1,0,0,1,0.000000000000909495,0)">
<stop offset="0.1" style="stop-color:rgb(70.196078%,70.196078%,70.196078%);stop-opacity:1;"/>
<stop offset="1" style="stop-color:rgb(89.803922%,89.803922%,89.803922%);stop-opacity:1;"/>
</linearGradient>
<linearGradient id="linear2" gradientUnits="userSpaceOnUse" x1="6593" y1="10904" x2="10231" y2="10910" gradientTransform="matrix(1,0,0,1,0.000000000000909495,0)">
<stop offset="0.1" style="stop-color:rgb(70.196078%,70.196078%,70.196078%);stop-opacity:1;"/>
<stop offset="1" style="stop-color:rgb(89.803922%,89.803922%,89.803922%);stop-opacity:1;"/>
</linearGradient>
<linearGradient id="linear3" gradientUnits="userSpaceOnUse" x1="8263" y1="10592" x2="9443" y2="10594" gradientTransform="matrix(1,0,0,1,0.000000000000909495,0)">
<stop offset="0.1" style="stop-color:rgb(57.647059%,83.137255%,94.117647%);stop-opacity:1;"/>
<stop offset="1" style="stop-color:rgb(91.372549%,96.470588%,98.823529%);stop-opacity:1;"/>
</linearGradient>
<linearGradient id="linear4" gradientUnits="userSpaceOnUse" x1="6103" y1="10906" x2="6496" y2="10906" gradientTransform="matrix(1,0,0,1,0.000000000000909495,0)">
<stop offset="0.1" style="stop-color:rgb(70.196078%,70.196078%,70.196078%);stop-opacity:1;"/>
<stop offset="1" style="stop-color:rgb(89.803922%,89.803922%,89.803922%);stop-opacity:1;"/>
</linearGradient>
<linearGradient id="linear5" gradientUnits="userSpaceOnUse" x1="6102" y1="10337" x2="7479" y2="10339" gradientTransform="matrix(1,0,0,1,0.000000000000909495,0)">
<stop offset="0.1" style="stop-color:rgb(70.196078%,70.196078%,70.196078%);stop-opacity:1;"/>
<stop offset="1" style="stop-color:rgb(89.803922%,89.803922%,89.803922%);stop-opacity:1;"/>
</linearGradient>
<linearGradient id="linear6" gradientUnits="userSpaceOnUse" x1="7528" y1="9543" x2="7528" y2="10055" gradientTransform="matrix(1,0,0,1,0.000000000000909495,0)">
<stop offset="0.1" style="stop-color:rgb(70.196078%,70.196078%,70.196078%);stop-opacity:1;"/>
<stop offset="1" style="stop-color:rgb(89.803922%,89.803922%,89.803922%);stop-opacity:1;"/>
</linearGradient>
</defs>
<g id="surface1">
<path style="fill-rule:evenodd;fill:rgb(86.666667%,86.666667%,86.666667%);fill-opacity:1;stroke-width:40;stroke-linecap:butt;stroke-linejoin:round;stroke:rgb(86.666667%,86.666667%,86.666667%);stroke-opacity:1;stroke-miterlimit:4;" d="M 8561.822917 13236.204167 C 8832.138889 13236.204167 11604.090278 12439.847531 11604.090278 11928.968962 C 11604.090278 11418.090394 11284.826389 11361.082485 11014.951389 11361.082485 C 11014.951389 11530.790644 8463.927083 11985.976871 8561.822917 13236.204167 Z M 8561.822917 13236.204167 " transform="matrix(0.00885827,0,0,0.00890776,-53.893701,-73.186117)"/>
<path style="fill-rule:evenodd;fill:url(#linear0);stroke-width:40;stroke-linecap:butt;stroke-linejoin:round;stroke:rgb(100%,100%,100%);stroke-opacity:1;stroke-miterlimit:4;" d="M 10227.815972 10793.196007 L 8264.166667 9656.984529 L 9049.979167 9201.798302 L 11014.069444 10338.00978 Z M 10227.815972 10793.196007 " transform="matrix(0.00885827,0,0,0.00890776,-53.893701,-73.186117)"/>
<path style=" stroke:none;fill-rule:evenodd;fill:rgb(70.196078%,70.196078%,70.196078%);fill-opacity:1;" d="M 13.960938 18.101562 L 6.644531 24.070312 L 3.660156 24.070312 L 3.660156 23.453125 L 12.355469 16.371094 L 13.960938 15.4375 Z M 13.960938 18.101562 "/>
<path style=" stroke:none;fill-rule:evenodd;fill:rgb(70.588235%,70.588235%,70.588235%);fill-opacity:1;" d="M 6.644531 24.070312 L 3.660156 26.5 L 3.660156 24.070312 Z M 13.960938 15.4375 L 16.707031 13.84375 L 16.707031 15.863281 L 13.960938 18.101562 Z M 13.828125 18.207031 L 6.804688 23.933594 L 3.660156 23.933594 L 3.660156 23.453125 L 12.355469 16.371094 L 13.828125 15.515625 Z M 13.828125 18.207031 "/>
<path style=" stroke:none;fill-rule:evenodd;fill:rgb(70.980392%,70.980392%,70.980392%);fill-opacity:1;" d="M 6.804688 23.933594 L 3.660156 26.5 L 3.660156 23.933594 Z M 13.828125 15.515625 L 16.707031 13.84375 L 16.707031 15.863281 L 13.828125 18.207031 Z M 13.695312 18.324219 L 6.972656 23.800781 L 3.660156 23.800781 L 3.660156 23.453125 L 12.355469 16.371094 L 13.695312 15.597656 Z M 13.695312 18.324219 "/>
<path style=" stroke:none;fill-rule:evenodd;fill:rgb(71.372549%,71.372549%,71.372549%);fill-opacity:1;" d="M 6.972656 23.800781 L 3.660156 26.5 L 3.660156 23.800781 Z M 13.695312 15.597656 L 16.707031 13.84375 L 16.707031 15.863281 L 13.695312 18.324219 Z M 13.5625 18.429688 L 7.132812 23.667969 L 3.660156 23.667969 L 3.660156 23.453125 L 12.355469 16.371094 L 13.5625 15.667969 Z M 13.5625 18.429688 "/>
<path style=" stroke:none;fill-rule:evenodd;fill:rgb(71.764706%,71.764706%,71.764706%);fill-opacity:1;" d="M 7.132812 23.667969 L 3.660156 26.5 L 3.660156 23.667969 Z M 13.5625 15.667969 L 16.707031 13.84375 L 16.707031 15.863281 L 13.5625 18.429688 Z M 13.4375 18.527344 L 7.289062 23.542969 L 3.660156 23.542969 L 3.660156 23.453125 L 12.355469 16.371094 L 13.4375 15.738281 Z M 13.4375 18.527344 "/>
<path style=" stroke:none;fill-rule:evenodd;fill:rgb(72.156863%,72.156863%,72.156863%);fill-opacity:1;" d="M 7.289062 23.542969 L 3.660156 26.5 L 3.660156 23.542969 Z M 13.4375 15.738281 L 16.707031 13.84375 L 16.707031 15.863281 L 13.4375 18.527344 Z M 13.304688 18.636719 L 7.449219 23.410156 L 3.710938 23.410156 L 12.355469 16.371094 L 13.304688 15.820312 Z M 13.304688 18.636719 "/>
<path style=" stroke:none;fill-rule:evenodd;fill:rgb(72.54902%,72.54902%,72.54902%);fill-opacity:1;" d="M 7.449219 23.410156 L 3.660156 26.5 L 3.660156 23.453125 L 3.710938 23.410156 Z M 13.304688 15.820312 L 16.707031 13.84375 L 16.707031 15.863281 L 13.304688 18.636719 Z M 13.171875 18.742188 L 7.617188 23.277344 L 3.878906 23.277344 L 12.355469 16.371094 L 13.171875 15.898438 Z M 13.171875 18.742188 "/>
<path style=" stroke:none;fill-rule:evenodd;fill:rgb(72.941176%,72.941176%,72.941176%);fill-opacity:1;" d="M 7.617188 23.277344 L 3.660156 26.5 L 3.660156 23.453125 L 3.878906 23.277344 Z M 13.171875 15.898438 L 16.707031 13.84375 L 16.707031 15.863281 L 13.171875 18.742188 Z M 13.039062 18.859375 L 7.777344 23.140625 L 4.039062 23.140625 L 12.355469 16.371094 L 13.039062 15.972656 Z M 13.039062 18.859375 "/>
<path style=" stroke:none;fill-rule:evenodd;fill:rgb(73.333333%,73.333333%,73.333333%);fill-opacity:1;" d="M 7.777344 23.140625 L 3.660156 26.5 L 3.660156 23.453125 L 4.039062 23.140625 Z M 13.039062 15.972656 L 16.707031 13.84375 L 16.707031 15.863281 L 13.039062 18.859375 Z M 12.914062 18.957031 L 7.929688 23.019531 L 4.199219 23.019531 L 12.355469 16.371094 L 12.914062 16.050781 Z M 12.914062 18.957031 "/>
<path style=" stroke:none;fill-rule:evenodd;fill:rgb(73.72549%,73.72549%,73.72549%);fill-opacity:1;" d="M 7.929688 23.019531 L 3.660156 26.5 L 3.660156 23.453125 L 4.199219 23.019531 Z M 12.914062 16.050781 L 16.707031 13.84375 L 16.707031 15.863281 L 12.914062 18.957031 Z M 12.78125 19.0625 L 8.097656 22.882812 L 4.359375 22.882812 L 12.355469 16.371094 L 12.78125 16.121094 Z M 12.78125 19.0625 "/>
<path style=" stroke:none;fill-rule:evenodd;fill:rgb(74.117647%,74.117647%,74.117647%);fill-opacity:1;" d="M 8.097656 22.882812 L 3.660156 26.5 L 3.660156 23.453125 L 4.359375 22.882812 Z M 12.78125 16.121094 L 16.707031 13.84375 L 16.707031 15.863281 L 12.78125 19.0625 Z M 12.648438 19.167969 L 8.257812 22.75 L 4.527344 22.75 L 12.355469 16.371094 L 12.648438 16.203125 Z M 12.648438 19.167969 "/>
<path style=" stroke:none;fill-rule:evenodd;fill:rgb(74.509804%,74.509804%,74.509804%);fill-opacity:1;" d="M 8.257812 22.75 L 3.660156 26.5 L 3.660156 23.453125 L 4.527344 22.75 Z M 12.648438 16.203125 L 16.707031 13.84375 L 16.707031 15.863281 L 12.648438 19.167969 Z M 12.515625 19.277344 L 8.425781 22.617188 L 4.6875 22.617188 L 12.355469 16.371094 L 12.515625 16.285156 Z M 12.515625 19.277344 "/>
<path style=" stroke:none;fill-rule:evenodd;fill:rgb(74.901961%,74.901961%,74.901961%);fill-opacity:1;" d="M 8.425781 22.617188 L 3.660156 26.5 L 3.660156 23.453125 L 4.6875 22.617188 Z M 12.515625 16.285156 L 16.707031 13.84375 L 16.707031 15.863281 L 12.515625 19.277344 Z M 12.394531 19.382812 L 8.574219 22.492188 L 4.835938 22.492188 L 12.355469 16.371094 L 12.394531 16.355469 Z M 12.394531 19.382812 "/>
<path style=" stroke:none;fill-rule:evenodd;fill:rgb(75.294118%,75.294118%,75.294118%);fill-opacity:1;" d="M 8.574219 22.492188 L 3.660156 26.5 L 3.660156 23.453125 L 4.835938 22.492188 Z M 12.394531 16.355469 L 16.707031 13.84375 L 16.707031 15.863281 L 12.394531 19.382812 Z M 12.261719 19.488281 L 8.742188 22.359375 L 5.003906 22.359375 L 12.261719 16.453125 Z M 12.261719 19.488281 "/>
<path style=" stroke:none;fill-rule:evenodd;fill:rgb(75.686275%,75.686275%,75.686275%);fill-opacity:1;" d="M 8.742188 22.359375 L 3.660156 26.5 L 3.660156 23.453125 L 5.003906 22.359375 Z M 12.261719 16.453125 L 12.355469 16.371094 L 16.707031 13.84375 L 16.707031 15.863281 L 12.261719 19.488281 Z M 12.128906 19.597656 L 8.902344 22.226562 L 5.164062 22.226562 L 12.128906 16.558594 Z M 12.128906 19.597656 "/>
<path style=" stroke:none;fill-rule:evenodd;fill:rgb(76.078431%,76.078431%,76.078431%);fill-opacity:1;" d="M 8.902344 22.226562 L 3.660156 26.5 L 3.660156 23.453125 L 5.164062 22.226562 Z M 12.128906 16.558594 L 12.355469 16.371094 L 16.707031 13.84375 L 16.707031 15.863281 L 12.128906 19.597656 Z M 11.992188 19.703125 L 9.070312 22.089844 L 5.332031 22.089844 L 11.992188 16.667969 Z M 11.992188 19.703125 "/>
<path style=" stroke:none;fill-rule:evenodd;fill:rgb(76.470588%,76.470588%,76.470588%);fill-opacity:1;" d="M 9.070312 22.089844 L 3.660156 26.5 L 3.660156 23.453125 L 5.332031 22.089844 Z M 11.992188 16.667969 L 12.355469 16.371094 L 16.707031 13.84375 L 16.707031 15.863281 L 11.992188 19.703125 Z M 11.871094 19.8125 L 9.222656 21.964844 L 5.484375 21.964844 L 11.871094 16.773438 Z M 11.871094 19.8125 "/>
<path style=" stroke:none;fill-rule:evenodd;fill:rgb(76.862745%,76.862745%,76.862745%);fill-opacity:1;" d="M 9.222656 21.964844 L 3.660156 26.5 L 3.660156 23.453125 L 5.484375 21.964844 Z M 11.871094 16.773438 L 12.355469 16.371094 L 16.707031 13.84375 L 16.707031 15.863281 L 11.871094 19.8125 Z M 11.738281 19.917969 L 9.382812 21.832031 L 5.652344 21.832031 L 11.738281 16.878906 Z M 11.738281 19.917969 "/>
<path style=" stroke:none;fill-rule:evenodd;fill:rgb(77.254902%,77.254902%,77.254902%);fill-opacity:1;" d="M 9.382812 21.832031 L 3.660156 26.5 L 3.660156 23.453125 L 5.652344 21.832031 Z M 11.738281 16.878906 L 12.355469 16.371094 L 16.707031 13.84375 L 16.707031 15.863281 L 11.738281 19.917969 Z M 11.605469 20.023438 L 9.550781 21.699219 L 5.8125 21.699219 L 11.605469 16.988281 Z M 11.605469 20.023438 "/>
<path style=" stroke:none;fill-rule:evenodd;fill:rgb(77.647059%,77.647059%,77.647059%);fill-opacity:1;" d="M 9.550781 21.699219 L 3.660156 26.5 L 3.660156 23.453125 L 5.8125 21.699219 Z M 11.605469 16.988281 L 12.355469 16.371094 L 16.707031 13.84375 L 16.707031 15.863281 L 11.605469 20.023438 Z M 11.472656 20.132812 L 9.707031 21.566406 L 5.980469 21.566406 L 11.472656 17.09375 Z M 11.472656 20.132812 "/>
<path style=" stroke:none;fill-rule:evenodd;fill:rgb(78.039216%,78.039216%,78.039216%);fill-opacity:1;" d="M 9.707031 21.566406 L 3.660156 26.5 L 3.660156 23.453125 L 5.980469 21.566406 Z M 11.472656 17.09375 L 12.355469 16.371094 L 16.707031 13.84375 L 16.707031 15.863281 L 11.472656 20.132812 Z M 11.347656 20.230469 L 9.867188 21.441406 L 6.128906 21.441406 L 11.347656 17.191406 Z M 11.347656 20.230469 "/>
<path style=" stroke:none;fill-rule:evenodd;fill:rgb(78.431373%,78.431373%,78.431373%);fill-opacity:1;" d="M 9.867188 21.441406 L 3.660156 26.5 L 3.660156 23.453125 L 6.128906 21.441406 Z M 11.347656 17.191406 L 12.355469 16.371094 L 16.707031 13.84375 L 16.707031 15.863281 L 11.347656 20.230469 Z M 11.214844 20.34375 L 10.027344 21.308594 L 6.296875 21.308594 L 11.214844 17.300781 Z M 11.214844 20.34375 "/>
<path style=" stroke:none;fill-rule:evenodd;fill:rgb(78.823529%,78.823529%,78.823529%);fill-opacity:1;" d="M 10.027344 21.308594 L 3.660156 26.5 L 3.660156 23.453125 L 6.296875 21.308594 Z M 11.214844 17.300781 L 12.355469 16.371094 L 16.707031 13.84375 L 16.707031 15.863281 L 11.214844 20.34375 Z M 11.082031 20.453125 L 10.195312 21.171875 L 6.457031 21.171875 L 11.082031 17.414062 Z M 11.082031 20.453125 "/>
<path style=" stroke:none;fill-rule:evenodd;fill:rgb(79.215686%,79.215686%,79.215686%);fill-opacity:1;" d="M 10.195312 21.171875 L 3.660156 26.5 L 3.660156 23.453125 L 6.457031 21.171875 Z M 11.082031 17.414062 L 12.355469 16.371094 L 16.707031 13.84375 L 16.707031 15.863281 L 11.082031 20.453125 Z M 10.949219 20.558594 L 10.355469 21.039062 L 6.625 21.039062 L 10.949219 17.523438 Z M 10.949219 20.558594 "/>
<path style=" stroke:none;fill-rule:evenodd;fill:rgb(79.607843%,79.607843%,79.607843%);fill-opacity:1;" d="M 10.355469 21.039062 L 3.660156 26.5 L 3.660156 23.453125 L 6.625 21.039062 Z M 10.949219 17.523438 L 12.355469 16.371094 L 16.707031 13.84375 L 16.707031 15.863281 L 10.949219 20.558594 Z M 10.824219 20.65625 L 10.515625 20.914062 L 6.777344 20.914062 L 10.824219 17.621094 Z M 10.824219 20.65625 "/>
<path style=" stroke:none;fill-rule:evenodd;fill:rgb(80%,80%,80%);fill-opacity:1;" d="M 10.515625 20.914062 L 3.660156 26.5 L 3.660156 23.453125 L 6.777344 20.914062 Z M 10.824219 17.621094 L 12.355469 16.371094 L 16.707031 13.84375 L 16.707031 15.863281 L 10.824219 20.65625 Z M 10.691406 20.765625 L 10.675781 20.78125 L 6.945312 20.78125 L 10.691406 17.726562 Z M 10.691406 20.765625 "/>
<path style=" stroke:none;fill-rule:evenodd;fill:rgb(80.392157%,80.392157%,80.392157%);fill-opacity:1;" d="M 10.675781 20.78125 L 3.660156 26.5 L 3.660156 23.453125 L 6.945312 20.78125 Z M 10.691406 17.726562 L 12.355469 16.371094 L 16.707031 13.84375 L 16.707031 15.863281 L 10.691406 20.765625 Z M 10.558594 20.648438 L 7.105469 20.648438 L 10.558594 17.832031 Z M 10.558594 20.648438 "/>
<path style=" stroke:none;fill-rule:evenodd;fill:rgb(80.784314%,80.784314%,80.784314%);fill-opacity:1;" d="M 10.558594 20.648438 L 10.558594 17.832031 L 12.355469 16.371094 L 16.707031 13.84375 L 16.707031 15.863281 L 3.660156 26.5 L 3.660156 23.453125 L 7.105469 20.648438 Z M 10.425781 20.515625 L 7.273438 20.515625 L 10.425781 17.941406 Z M 10.425781 20.515625 "/>
<path style=" stroke:none;fill-rule:evenodd;fill:rgb(81.176471%,81.176471%,81.176471%);fill-opacity:1;" d="M 10.425781 20.515625 L 10.425781 17.941406 L 12.355469 16.371094 L 16.707031 13.84375 L 16.707031 15.863281 L 3.660156 26.5 L 3.660156 23.453125 L 7.273438 20.515625 Z M 10.292969 20.382812 L 7.433594 20.382812 L 10.292969 18.054688 Z M 10.292969 20.382812 "/>
<path style=" stroke:none;fill-rule:evenodd;fill:rgb(81.568627%,81.568627%,81.568627%);fill-opacity:1;" d="M 10.292969 20.382812 L 10.292969 18.054688 L 12.355469 16.371094 L 16.707031 13.84375 L 16.707031 15.863281 L 3.660156 26.5 L 3.660156 23.453125 L 7.433594 20.382812 Z M 10.167969 20.257812 L 7.582031 20.257812 L 10.167969 18.152344 Z M 10.167969 20.257812 "/>
<path style=" stroke:none;fill-rule:evenodd;fill:rgb(81.960784%,81.960784%,81.960784%);fill-opacity:1;" d="M 10.167969 20.257812 L 10.167969 18.152344 L 12.355469 16.371094 L 16.707031 13.84375 L 16.707031 15.863281 L 3.660156 26.5 L 3.660156 23.453125 L 7.582031 20.257812 Z M 10.035156 20.121094 L 7.75 20.121094 L 10.035156 18.261719 Z M 10.035156 20.121094 "/>
<path style=" stroke:none;fill-rule:evenodd;fill:rgb(82.352941%,82.352941%,82.352941%);fill-opacity:1;" d="M 10.035156 20.121094 L 10.035156 18.261719 L 12.355469 16.371094 L 16.707031 13.84375 L 16.707031 15.863281 L 3.660156 26.5 L 3.660156 23.453125 L 7.75 20.121094 Z M 9.902344 19.988281 L 7.917969 19.988281 L 9.902344 18.367188 Z M 9.902344 19.988281 "/>
<path style=" stroke:none;fill-rule:evenodd;fill:rgb(82.745098%,82.745098%,82.745098%);fill-opacity:1;" d="M 9.902344 19.988281 L 9.902344 18.367188 L 12.355469 16.371094 L 16.707031 13.84375 L 16.707031 15.863281 L 3.660156 26.5 L 3.660156 23.453125 L 7.917969 19.988281 Z M 9.769531 19.855469 L 8.078125 19.855469 L 9.769531 18.476562 Z M 9.769531 19.855469 "/>
<path style=" stroke:none;fill-rule:evenodd;fill:rgb(83.137255%,83.137255%,83.137255%);fill-opacity:1;" d="M 9.769531 19.855469 L 9.769531 18.476562 L 12.355469 16.371094 L 16.707031 13.84375 L 16.707031 15.863281 L 3.660156 26.5 L 3.660156 23.453125 L 8.078125 19.855469 Z M 9.648438 19.730469 L 8.230469 19.730469 L 9.648438 18.582031 Z M 9.648438 19.730469 "/>
<path style=" stroke:none;fill-rule:evenodd;fill:rgb(83.529412%,83.529412%,83.529412%);fill-opacity:1;" d="M 9.648438 19.730469 L 9.648438 18.582031 L 12.355469 16.371094 L 16.707031 13.84375 L 16.707031 15.863281 L 3.660156 26.5 L 3.660156 23.453125 L 8.230469 19.730469 Z M 9.515625 19.597656 L 8.398438 19.597656 L 9.515625 18.6875 Z M 9.515625 19.597656 "/>
<path style=" stroke:none;fill-rule:evenodd;fill:rgb(83.921569%,83.921569%,83.921569%);fill-opacity:1;" d="M 9.515625 19.597656 L 9.515625 18.6875 L 12.355469 16.371094 L 16.707031 13.84375 L 16.707031 15.863281 L 3.660156 26.5 L 3.660156 23.453125 L 8.398438 19.597656 Z M 9.382812 19.464844 L 8.558594 19.464844 L 9.382812 18.796875 Z M 9.382812 19.464844 "/>
<path style=" stroke:none;fill-rule:evenodd;fill:rgb(84.313725%,84.313725%,84.313725%);fill-opacity:1;" d="M 9.382812 19.464844 L 9.382812 18.796875 L 12.355469 16.371094 L 16.707031 13.84375 L 16.707031 15.863281 L 3.660156 26.5 L 3.660156 23.453125 L 8.558594 19.464844 Z M 9.246094 19.328125 L 8.726562 19.328125 L 9.246094 18.902344 Z M 9.246094 19.328125 "/>
<path style=" stroke:none;fill-rule:evenodd;fill:rgb(84.705882%,84.705882%,84.705882%);fill-opacity:1;" d="M 9.246094 19.328125 L 9.246094 18.902344 L 12.355469 16.371094 L 16.707031 13.84375 L 16.707031 15.863281 L 3.660156 26.5 L 3.660156 23.453125 L 8.726562 19.328125 Z M 9.125 19.207031 L 8.875 19.207031 L 9.125 19 Z M 9.125 19.207031 "/>
<path style=" stroke:none;fill-rule:evenodd;fill:rgb(85.098039%,85.098039%,85.098039%);fill-opacity:1;" d="M 9.125 19.207031 L 9.125 19 L 12.355469 16.371094 L 16.707031 13.84375 L 16.707031 15.863281 L 3.660156 26.5 L 3.660156 23.453125 L 8.875 19.207031 Z M 9.125 19.207031 "/>
<path style=" stroke:none;fill-rule:evenodd;fill:rgb(85.490196%,85.490196%,85.490196%);fill-opacity:1;" d="M 3.660156 26.5 L 3.660156 23.453125 L 12.355469 16.371094 L 16.707031 13.84375 L 16.707031 15.863281 Z M 3.660156 26.5 "/>
<path style=" stroke:none;fill-rule:evenodd;fill:rgb(85.882353%,85.882353%,85.882353%);fill-opacity:1;" d="M 3.660156 26.5 L 3.660156 23.453125 L 12.355469 16.371094 L 16.707031 13.84375 L 16.707031 15.863281 Z M 3.660156 26.5 "/>
<path style=" stroke:none;fill-rule:evenodd;fill:rgb(86.27451%,86.27451%,86.27451%);fill-opacity:1;" d="M 3.660156 26.5 L 3.660156 23.453125 L 12.355469 16.371094 L 16.707031 13.84375 L 16.707031 15.863281 Z M 3.660156 26.5 "/>
<path style=" stroke:none;fill-rule:evenodd;fill:rgb(86.666667%,86.666667%,86.666667%);fill-opacity:1;" d="M 3.660156 26.5 L 3.660156 23.453125 L 12.355469 16.371094 L 16.707031 13.84375 L 16.707031 15.863281 Z M 3.660156 26.5 "/>
<path style=" stroke:none;fill-rule:evenodd;fill:rgb(87.058824%,87.058824%,87.058824%);fill-opacity:1;" d="M 3.660156 26.5 L 3.660156 23.453125 L 12.355469 16.371094 L 16.707031 13.84375 L 16.707031 15.863281 Z M 3.660156 26.5 "/>
<path style=" stroke:none;fill-rule:evenodd;fill:rgb(87.45098%,87.45098%,87.45098%);fill-opacity:1;" d="M 3.660156 26.5 L 3.660156 23.453125 L 12.355469 16.371094 L 16.707031 13.84375 L 16.707031 15.863281 Z M 3.660156 26.5 "/>
<path style=" stroke:none;fill-rule:evenodd;fill:rgb(87.843137%,87.843137%,87.843137%);fill-opacity:1;" d="M 3.660156 26.5 L 3.660156 23.453125 L 12.355469 16.371094 L 16.707031 13.84375 L 16.707031 15.863281 Z M 3.660156 26.5 "/>
<path style=" stroke:none;fill-rule:evenodd;fill:rgb(88.235294%,88.235294%,88.235294%);fill-opacity:1;" d="M 3.660156 26.5 L 3.660156 23.453125 L 12.355469 16.371094 L 16.707031 13.84375 L 16.707031 15.863281 Z M 3.660156 26.5 "/>
<path style=" stroke:none;fill-rule:evenodd;fill:rgb(88.627451%,88.627451%,88.627451%);fill-opacity:1;" d="M 3.660156 26.5 L 3.660156 23.453125 L 12.355469 16.371094 L 16.707031 13.84375 L 16.707031 15.863281 Z M 3.660156 26.5 "/>
<path style=" stroke:none;fill-rule:evenodd;fill:rgb(89.019608%,89.019608%,89.019608%);fill-opacity:1;" d="M 3.660156 26.5 L 3.660156 23.453125 L 12.355469 16.371094 L 16.707031 13.84375 L 16.707031 15.863281 Z M 3.660156 26.5 "/>
<path style="fill-rule:evenodd;fill:rgb(89.803922%,89.803922%,89.803922%);fill-opacity:1;stroke-width:40;stroke-linecap:butt;stroke-linejoin:round;stroke:rgb(100%,100%,100%);stroke-opacity:1;stroke-miterlimit:4;" d="M 6497.190972 11190.935802 L 6497.190972 10848.888349 L 7478.795139 10053.84728 L 7970.038194 9770.123302 L 7970.038194 9996.839371 Z M 6497.190972 11190.935802 " transform="matrix(0.00885827,0,0,0.00890776,-53.893701,-73.186117)"/>
<path style=" stroke:none;fill-rule:evenodd;fill:rgb(70.196078%,70.196078%,70.196078%);fill-opacity:1;" d="M 41.023438 33.601562 L 31.242188 39.292969 L 21.925781 39.292969 L 21.925781 35.097656 L 36.707031 22.957031 L 41.023438 20.441406 Z M 41.023438 33.601562 "/>
<path style=" stroke:none;fill-rule:evenodd;fill:rgb(70.588235%,70.588235%,70.588235%);fill-opacity:1;" d="M 31.242188 39.292969 L 21.925781 44.71875 L 21.925781 39.292969 Z M 41.023438 20.441406 L 43.671875 18.902344 L 43.671875 32.058594 L 41.023438 33.601562 Z M 40.765625 33.75 L 31.6875 39.035156 L 21.925781 39.035156 L 21.925781 35.097656 L 36.707031 22.957031 L 40.765625 20.59375 Z M 40.765625 33.75 "/>
<path style=" stroke:none;fill-rule:evenodd;fill:rgb(70.980392%,70.980392%,70.980392%);fill-opacity:1;" d="M 31.6875 39.035156 L 21.925781 44.71875 L 21.925781 39.035156 Z M 40.765625 20.59375 L 43.671875 18.902344 L 43.671875 32.058594 L 40.765625 33.75 Z M 40.507812 33.902344 L 32.128906 38.777344 L 21.925781 38.777344 L 21.925781 35.097656 L 36.707031 22.957031 L 40.507812 20.746094 Z M 40.507812 33.902344 "/>
<path style=" stroke:none;fill-rule:evenodd;fill:rgb(71.372549%,71.372549%,71.372549%);fill-opacity:1;" d="M 32.128906 38.777344 L 21.925781 44.71875 L 21.925781 38.777344 Z M 40.507812 20.746094 L 43.671875 18.902344 L 43.671875 32.058594 L 40.507812 33.902344 Z M 40.253906 34.046875 L 32.570312 38.515625 L 21.925781 38.515625 L 21.925781 35.097656 L 36.707031 22.957031 L 40.253906 20.890625 Z M 40.253906 34.046875 "/>
<path style=" stroke:none;fill-rule:evenodd;fill:rgb(71.764706%,71.764706%,71.764706%);fill-opacity:1;" d="M 32.570312 38.515625 L 21.925781 44.71875 L 21.925781 38.515625 Z M 40.253906 20.890625 L 43.671875 18.902344 L 43.671875 32.058594 L 40.253906 34.046875 Z M 39.996094 34.195312 L 33.023438 38.257812 L 21.925781 38.257812 L 21.925781 35.097656 L 36.707031 22.957031 L 39.996094 21.039062 Z M 39.996094 34.195312 "/>
<path style=" stroke:none;fill-rule:evenodd;fill:rgb(72.156863%,72.156863%,72.156863%);fill-opacity:1;" d="M 33.023438 38.257812 L 21.925781 44.71875 L 21.925781 38.257812 Z M 39.996094 21.039062 L 43.671875 18.902344 L 43.671875 32.058594 L 39.996094 34.195312 Z M 39.738281 34.347656 L 33.464844 38 L 21.925781 38 L 21.925781 35.097656 L 36.707031 22.957031 L 39.738281 21.191406 Z M 39.738281 34.347656 "/>
<path style=" stroke:none;fill-rule:evenodd;fill:rgb(72.54902%,72.54902%,72.54902%);fill-opacity:1;" d="M 33.464844 38 L 21.925781 44.71875 L 21.925781 38 Z M 39.738281 21.191406 L 43.671875 18.902344 L 43.671875 32.058594 L 39.738281 34.347656 Z M 39.480469 34.5 L 33.910156 37.742188 L 21.925781 37.742188 L 21.925781 35.097656 L 36.707031 22.957031 L 39.480469 21.34375 Z M 39.480469 34.5 "/>
<path style=" stroke:none;fill-rule:evenodd;fill:rgb(72.941176%,72.941176%,72.941176%);fill-opacity:1;" d="M 33.910156 37.742188 L 21.925781 44.71875 L 21.925781 37.742188 Z M 39.480469 21.34375 L 43.671875 18.902344 L 43.671875 32.058594 L 39.480469 34.5 Z M 39.222656 34.652344 L 34.351562 37.484375 L 21.925781 37.484375 L 21.925781 35.097656 L 36.707031 22.957031 L 39.222656 21.496094 Z M 39.222656 34.652344 "/>
<path style=" stroke:none;fill-rule:evenodd;fill:rgb(73.333333%,73.333333%,73.333333%);fill-opacity:1;" d="M 34.351562 37.484375 L 21.925781 44.71875 L 21.925781 37.484375 Z M 39.222656 21.496094 L 43.671875 18.902344 L 43.671875 32.058594 L 39.222656 34.652344 Z M 38.96875 34.792969 L 34.796875 37.226562 L 21.925781 37.226562 L 21.925781 35.097656 L 36.707031 22.957031 L 38.96875 21.636719 Z M 38.96875 34.792969 "/>
<path style=" stroke:none;fill-rule:evenodd;fill:rgb(73.72549%,73.72549%,73.72549%);fill-opacity:1;" d="M 34.796875 37.226562 L 21.925781 44.71875 L 21.925781 37.226562 Z M 38.96875 21.636719 L 43.671875 18.902344 L 43.671875 32.058594 L 38.96875 34.792969 Z M 38.710938 34.945312 L 35.238281 36.96875 L 21.925781 36.96875 L 21.925781 35.097656 L 36.707031 22.957031 L 38.710938 21.789062 Z M 38.710938 34.945312 "/>
<path style=" stroke:none;fill-rule:evenodd;fill:rgb(74.117647%,74.117647%,74.117647%);fill-opacity:1;" d="M 35.238281 36.96875 L 21.925781 44.71875 L 21.925781 36.96875 Z M 38.710938 21.789062 L 43.671875 18.902344 L 43.671875 32.058594 L 38.710938 34.945312 Z M 38.453125 35.097656 L 35.679688 36.707031 L 21.925781 36.707031 L 21.925781 35.097656 L 36.707031 22.957031 L 38.453125 21.941406 Z M 38.453125 35.097656 "/>
<path style=" stroke:none;fill-rule:evenodd;fill:rgb(74.509804%,74.509804%,74.509804%);fill-opacity:1;" d="M 35.679688 36.707031 L 21.925781 44.71875 L 21.925781 36.707031 Z M 38.453125 21.941406 L 43.671875 18.902344 L 43.671875 32.058594 L 38.453125 35.097656 Z M 38.195312 35.246094 L 36.125 36.449219 L 21.925781 36.449219 L 21.925781 35.097656 L 36.707031 22.957031 L 38.195312 22.089844 Z M 38.195312 35.246094 "/>
<path style=" stroke:none;fill-rule:evenodd;fill:rgb(74.901961%,74.901961%,74.901961%);fill-opacity:1;" d="M 36.125 36.449219 L 21.925781 44.71875 L 21.925781 36.449219 Z M 38.195312 22.089844 L 43.671875 18.902344 L 43.671875 32.058594 L 38.195312 35.246094 Z M 37.941406 35.390625 L 36.566406 36.191406 L 21.925781 36.191406 L 21.925781 35.097656 L 36.707031 22.957031 L 37.941406 22.242188 Z M 37.941406 35.390625 "/>
<path style=" stroke:none;fill-rule:evenodd;fill:rgb(75.294118%,75.294118%,75.294118%);fill-opacity:1;" d="M 36.566406 36.191406 L 21.925781 44.71875 L 21.925781 36.191406 Z M 37.941406 22.242188 L 43.671875 18.902344 L 43.671875 32.058594 L 37.941406 35.390625 Z M 37.683594 35.542969 L 37.011719 35.933594 L 21.925781 35.933594 L 21.925781 35.097656 L 36.707031 22.957031 L 37.683594 22.386719 Z M 37.683594 35.542969 "/>
<path style=" stroke:none;fill-rule:evenodd;fill:rgb(75.686275%,75.686275%,75.686275%);fill-opacity:1;" d="M 37.011719 35.933594 L 21.925781 44.71875 L 21.925781 35.933594 Z M 37.683594 22.386719 L 43.671875 18.902344 L 43.671875 32.058594 L 37.683594 35.542969 Z M 37.425781 35.675781 L 21.925781 35.675781 L 21.925781 35.097656 L 36.707031 22.957031 L 37.425781 22.535156 Z M 37.425781 35.675781 "/>
<path style=" stroke:none;fill-rule:evenodd;fill:rgb(76.078431%,76.078431%,76.078431%);fill-opacity:1;" d="M 37.425781 35.675781 L 37.425781 22.535156 L 43.671875 18.902344 L 43.671875 32.058594 L 21.925781 44.71875 L 21.925781 35.675781 Z M 37.167969 35.417969 L 21.925781 35.417969 L 21.925781 35.097656 L 36.707031 22.957031 L 37.167969 22.6875 Z M 37.167969 35.417969 "/>
<path style=" stroke:none;fill-rule:evenodd;fill:rgb(76.470588%,76.470588%,76.470588%);fill-opacity:1;" d="M 37.167969 35.417969 L 37.167969 22.6875 L 43.671875 18.902344 L 43.671875 32.058594 L 21.925781 44.71875 L 21.925781 35.417969 Z M 36.914062 35.160156 L 21.925781 35.160156 L 21.925781 35.097656 L 36.707031 22.957031 L 36.914062 22.839844 Z M 36.914062 35.160156 "/>
<path style=" stroke:none;fill-rule:evenodd;fill:rgb(76.862745%,76.862745%,76.862745%);fill-opacity:1;" d="M 36.914062 35.160156 L 36.914062 22.839844 L 43.671875 18.902344 L 43.671875 32.058594 L 21.925781 44.71875 L 21.925781 35.160156 Z M 36.65625 34.902344 L 22.164062 34.902344 L 36.65625 23 Z M 36.65625 34.902344 "/>
<path style=" stroke:none;fill-rule:evenodd;fill:rgb(77.254902%,77.254902%,77.254902%);fill-opacity:1;" d="M 36.65625 34.902344 L 36.65625 23 L 36.707031 22.957031 L 43.671875 18.902344 L 43.671875 32.058594 L 21.925781 44.71875 L 21.925781 35.097656 L 22.164062 34.902344 Z M 36.398438 34.640625 L 22.472656 34.640625 L 36.398438 23.214844 Z M 36.398438 34.640625 "/>
<path style=" stroke:none;fill-rule:evenodd;fill:rgb(77.647059%,77.647059%,77.647059%);fill-opacity:1;" d="M 36.398438 34.640625 L 36.398438 23.214844 L 36.707031 22.957031 L 43.671875 18.902344 L 43.671875 32.058594 L 21.925781 44.71875 L 21.925781 35.097656 L 22.472656 34.640625 Z M 36.140625 34.382812 L 22.792969 34.382812 L 36.140625 23.417969 Z M 36.140625 34.382812 "/>
<path style=" stroke:none;fill-rule:evenodd;fill:rgb(78.039216%,78.039216%,78.039216%);fill-opacity:1;" d="M 36.140625 34.382812 L 36.140625 23.417969 L 36.707031 22.957031 L 43.671875 18.902344 L 43.671875 32.058594 L 21.925781 44.71875 L 21.925781 35.097656 L 22.792969 34.382812 Z M 35.886719 34.125 L 23.101562 34.125 L 35.886719 23.632812 Z M 35.886719 34.125 "/>
<path style=" stroke:none;fill-rule:evenodd;fill:rgb(78.431373%,78.431373%,78.431373%);fill-opacity:1;" d="M 35.886719 34.125 L 35.886719 23.632812 L 36.707031 22.957031 L 43.671875 18.902344 L 43.671875 32.058594 L 21.925781 44.71875 L 21.925781 35.097656 L 23.101562 34.125 Z M 35.628906 33.867188 L 23.421875 33.867188 L 35.628906 23.847656 Z M 35.628906 33.867188 "/>
<path style=" stroke:none;fill-rule:evenodd;fill:rgb(78.823529%,78.823529%,78.823529%);fill-opacity:1;" d="M 35.628906 33.867188 L 35.628906 23.847656 L 36.707031 22.957031 L 43.671875 18.902344 L 43.671875 32.058594 L 21.925781 44.71875 L 21.925781 35.097656 L 23.421875 33.867188 Z M 35.371094 33.609375 L 23.730469 33.609375 L 35.371094 24.050781 Z M 35.371094 33.609375 "/>
<path style=" stroke:none;fill-rule:evenodd;fill:rgb(79.215686%,79.215686%,79.215686%);fill-opacity:1;" d="M 35.371094 33.609375 L 35.371094 24.050781 L 36.707031 22.957031 L 43.671875 18.902344 L 43.671875 32.058594 L 21.925781 44.71875 L 21.925781 35.097656 L 23.730469 33.609375 Z M 35.113281 33.351562 L 24.050781 33.351562 L 35.113281 24.265625 Z M 35.113281 33.351562 "/>
<path style=" stroke:none;fill-rule:evenodd;fill:rgb(79.607843%,79.607843%,79.607843%);fill-opacity:1;" d="M 35.113281 33.351562 L 35.113281 24.265625 L 36.707031 22.957031 L 43.671875 18.902344 L 43.671875 32.058594 L 21.925781 44.71875 L 21.925781 35.097656 L 24.050781 33.351562 Z M 34.855469 33.09375 L 24.367188 33.09375 L 34.855469 24.476562 Z M 34.855469 33.09375 "/>
<path style=" stroke:none;fill-rule:evenodd;fill:rgb(80%,80%,80%);fill-opacity:1;" d="M 34.855469 33.09375 L 34.855469 24.476562 L 36.707031 22.957031 L 43.671875 18.902344 L 43.671875 32.058594 L 21.925781 44.71875 L 21.925781 35.097656 L 24.367188 33.09375 Z M 34.601562 32.835938 L 24.679688 32.835938 L 34.601562 24.683594 Z M 34.601562 32.835938 "/>
<path style=" stroke:none;fill-rule:evenodd;fill:rgb(80.392157%,80.392157%,80.392157%);fill-opacity:1;" d="M 34.601562 32.835938 L 34.601562 24.683594 L 36.707031 22.957031 L 43.671875 18.902344 L 43.671875 32.058594 L 21.925781 44.71875 L 21.925781 35.097656 L 24.679688 32.835938 Z M 34.34375 32.574219 L 24.996094 32.574219 L 34.34375 24.898438 Z M 34.34375 32.574219 "/>
<path style=" stroke:none;fill-rule:evenodd;fill:rgb(80.784314%,80.784314%,80.784314%);fill-opacity:1;" d="M 34.34375 32.574219 L 34.34375 24.898438 L 36.707031 22.957031 L 43.671875 18.902344 L 43.671875 32.058594 L 21.925781 44.71875 L 21.925781 35.097656 L 24.996094 32.574219 Z M 34.085938 32.316406 L 25.308594 32.316406 L 34.085938 25.109375 Z M 34.085938 32.316406 "/>
<path style=" stroke:none;fill-rule:evenodd;fill:rgb(81.176471%,81.176471%,81.176471%);fill-opacity:1;" d="M 34.085938 32.316406 L 34.085938 25.109375 L 36.707031 22.957031 L 43.671875 18.902344 L 43.671875 32.058594 L 21.925781 44.71875 L 21.925781 35.097656 L 25.308594 32.316406 Z M 33.828125 32.058594 L 25.628906 32.058594 L 33.828125 25.316406 Z M 33.828125 32.058594 "/>
<path style=" stroke:none;fill-rule:evenodd;fill:rgb(81.568627%,81.568627%,81.568627%);fill-opacity:1;" d="M 33.828125 32.058594 L 33.828125 25.316406 L 36.707031 22.957031 L 43.671875 18.902344 L 43.671875 32.058594 L 21.925781 44.71875 L 21.925781 35.097656 L 25.628906 32.058594 Z M 33.574219 31.800781 L 25.9375 31.800781 L 33.574219 25.53125 Z M 33.574219 31.800781 "/>
<path style=" stroke:none;fill-rule:evenodd;fill:rgb(81.960784%,81.960784%,81.960784%);fill-opacity:1;" d="M 33.574219 31.800781 L 33.574219 25.53125 L 36.707031 22.957031 L 43.671875 18.902344 L 43.671875 32.058594 L 21.925781 44.71875 L 21.925781 35.097656 L 25.9375 31.800781 Z M 33.316406 31.542969 L 26.257812 31.542969 L 33.316406 25.742188 Z M 33.316406 31.542969 "/>
<path style=" stroke:none;fill-rule:evenodd;fill:rgb(82.352941%,82.352941%,82.352941%);fill-opacity:1;" d="M 33.316406 31.542969 L 33.316406 25.742188 L 36.707031 22.957031 L 43.671875 18.902344 L 43.671875 32.058594 L 21.925781 44.71875 L 21.925781 35.097656 L 26.257812 31.542969 Z M 33.058594 31.285156 L 26.566406 31.285156 L 33.058594 25.949219 Z M 33.058594 31.285156 "/>
<path style=" stroke:none;fill-rule:evenodd;fill:rgb(82.745098%,82.745098%,82.745098%);fill-opacity:1;" d="M 33.058594 31.285156 L 33.058594 25.949219 L 36.707031 22.957031 L 43.671875 18.902344 L 43.671875 32.058594 L 21.925781 44.71875 L 21.925781 35.097656 L 26.566406 31.285156 Z M 32.800781 31.027344 L 26.886719 31.027344 L 32.800781 26.160156 Z M 32.800781 31.027344 "/>
<path style=" stroke:none;fill-rule:evenodd;fill:rgb(83.137255%,83.137255%,83.137255%);fill-opacity:1;" d="M 32.800781 31.027344 L 32.800781 26.160156 L 36.707031 22.957031 L 43.671875 18.902344 L 43.671875 32.058594 L 21.925781 44.71875 L 21.925781 35.097656 L 26.886719 31.027344 Z M 32.546875 30.765625 L 27.195312 30.765625 L 32.546875 26.375 Z M 32.546875 30.765625 "/>
<path style=" stroke:none;fill-rule:evenodd;fill:rgb(83.529412%,83.529412%,83.529412%);fill-opacity:1;" d="M 32.546875 30.765625 L 32.546875 26.375 L 36.707031 22.957031 L 43.671875 18.902344 L 43.671875 32.058594 L 21.925781 44.71875 L 21.925781 35.097656 L 27.195312 30.765625 Z M 32.289062 30.507812 L 27.515625 30.507812 L 32.289062 26.589844 Z M 32.289062 30.507812 "/>
<path style=" stroke:none;fill-rule:evenodd;fill:rgb(83.921569%,83.921569%,83.921569%);fill-opacity:1;" d="M 32.289062 30.507812 L 32.289062 26.589844 L 36.707031 22.957031 L 43.671875 18.902344 L 43.671875 32.058594 L 21.925781 44.71875 L 21.925781 35.097656 L 27.515625 30.507812 Z M 32.03125 30.25 L 27.824219 30.25 L 32.03125 26.792969 Z M 32.03125 30.25 "/>
<path style=" stroke:none;fill-rule:evenodd;fill:rgb(84.313725%,84.313725%,84.313725%);fill-opacity:1;" d="M 32.03125 30.25 L 32.03125 26.792969 L 36.707031 22.957031 L 43.671875 18.902344 L 43.671875 32.058594 L 21.925781 44.71875 L 21.925781 35.097656 L 27.824219 30.25 Z M 31.773438 29.992188 L 28.144531 29.992188 L 31.773438 27.007812 Z M 31.773438 29.992188 "/>
<path style=" stroke:none;fill-rule:evenodd;fill:rgb(84.705882%,84.705882%,84.705882%);fill-opacity:1;" d="M 31.773438 29.992188 L 31.773438 27.007812 L 36.707031 22.957031 L 43.671875 18.902344 L 43.671875 32.058594 L 21.925781 44.71875 L 21.925781 35.097656 L 28.144531 29.992188 Z M 31.519531 29.734375 L 28.453125 29.734375 L 31.519531 27.222656 Z M 31.519531 29.734375 "/>
<path style=" stroke:none;fill-rule:evenodd;fill:rgb(85.098039%,85.098039%,85.098039%);fill-opacity:1;" d="M 31.519531 29.734375 L 31.519531 27.222656 L 36.707031 22.957031 L 43.671875 18.902344 L 43.671875 32.058594 L 21.925781 44.71875 L 21.925781 35.097656 L 28.453125 29.734375 Z M 31.261719 29.476562 L 28.773438 29.476562 L 31.261719 27.425781 Z M 31.261719 29.476562 "/>
<path style=" stroke:none;fill-rule:evenodd;fill:rgb(85.490196%,85.490196%,85.490196%);fill-opacity:1;" d="M 31.261719 29.476562 L 31.261719 27.425781 L 36.707031 22.957031 L 43.671875 18.902344 L 43.671875 32.058594 L 21.925781 44.71875 L 21.925781 35.097656 L 28.773438 29.476562 Z M 31.003906 29.21875 L 29.082031 29.21875 L 31.003906 27.640625 Z M 31.003906 29.21875 "/>
<path style=" stroke:none;fill-rule:evenodd;fill:rgb(85.882353%,85.882353%,85.882353%);fill-opacity:1;" d="M 31.003906 29.21875 L 31.003906 27.640625 L 36.707031 22.957031 L 43.671875 18.902344 L 43.671875 32.058594 L 21.925781 44.71875 L 21.925781 35.097656 L 29.082031 29.21875 Z M 30.746094 28.960938 L 29.402344 28.960938 L 30.746094 27.855469 Z M 30.746094 28.960938 "/>
<path style=" stroke:none;fill-rule:evenodd;fill:rgb(86.27451%,86.27451%,86.27451%);fill-opacity:1;" d="M 30.746094 28.960938 L 30.746094 27.855469 L 36.707031 22.957031 L 43.671875 18.902344 L 43.671875 32.058594 L 21.925781 44.71875 L 21.925781 35.097656 L 29.402344 28.960938 Z M 30.488281 28.699219 L 29.710938 28.699219 L 30.488281 28.058594 Z M 30.488281 28.699219 "/>
<path style=" stroke:none;fill-rule:evenodd;fill:rgb(86.666667%,86.666667%,86.666667%);fill-opacity:1;" d="M 30.488281 28.699219 L 30.488281 28.058594 L 36.707031 22.957031 L 43.671875 18.902344 L 43.671875 32.058594 L 21.925781 44.71875 L 21.925781 35.097656 L 29.710938 28.699219 Z M 30.234375 28.441406 L 30.03125 28.441406 L 30.234375 28.273438 Z M 30.234375 28.441406 "/>
<path style=" stroke:none;fill-rule:evenodd;fill:rgb(87.058824%,87.058824%,87.058824%);fill-opacity:1;" d="M 30.234375 28.441406 L 30.234375 28.273438 L 36.707031 22.957031 L 43.671875 18.902344 L 43.671875 32.058594 L 21.925781 44.71875 L 21.925781 35.097656 L 30.03125 28.441406 Z M 30.234375 28.441406 "/>
<path style=" stroke:none;fill-rule:evenodd;fill:rgb(87.45098%,87.45098%,87.45098%);fill-opacity:1;" d="M 21.925781 44.71875 L 21.925781 35.097656 L 36.707031 22.957031 L 43.671875 18.902344 L 43.671875 32.058594 Z M 21.925781 44.71875 "/>
<path style=" stroke:none;fill-rule:evenodd;fill:rgb(87.843137%,87.843137%,87.843137%);fill-opacity:1;" d="M 21.925781 44.71875 L 21.925781 35.097656 L 36.707031 22.957031 L 43.671875 18.902344 L 43.671875 32.058594 Z M 21.925781 44.71875 "/>
<path style=" stroke:none;fill-rule:evenodd;fill:rgb(88.235294%,88.235294%,88.235294%);fill-opacity:1;" d="M 21.925781 44.71875 L 21.925781 35.097656 L 36.707031 22.957031 L 43.671875 18.902344 L 43.671875 32.058594 Z M 21.925781 44.71875 "/>
<path style=" stroke:none;fill-rule:evenodd;fill:rgb(88.627451%,88.627451%,88.627451%);fill-opacity:1;" d="M 21.925781 44.71875 L 21.925781 35.097656 L 36.707031 22.957031 L 43.671875 18.902344 L 43.671875 32.058594 Z M 21.925781 44.71875 "/>
<path style=" stroke:none;fill-rule:evenodd;fill:rgb(89.019608%,89.019608%,89.019608%);fill-opacity:1;" d="M 21.925781 44.71875 L 21.925781 35.097656 L 36.707031 22.957031 L 43.671875 18.902344 L 43.671875 32.058594 Z M 21.925781 44.71875 "/>
<path style="fill-rule:evenodd;fill:rgb(89.803922%,89.803922%,89.803922%);fill-opacity:1;stroke-width:40;stroke-linecap:butt;stroke-linejoin:round;stroke:rgb(100%,100%,100%);stroke-opacity:1;stroke-miterlimit:4;" d="M 8559.177083 13236.204167 L 8559.177083 12156.123553 L 10227.815972 10793.196007 L 11014.069444 10338.00978 L 11014.069444 11814.953144 Z M 8559.177083 13236.204167 " transform="matrix(0.00885827,0,0,0.00890776,-53.893701,-73.186117)"/>
<path style="fill-rule:evenodd;fill:url(#linear1);stroke-width:40;stroke-linecap:butt;stroke-linejoin:round;stroke:rgb(100%,100%,100%);stroke-opacity:1;stroke-miterlimit:4;" d="M 6595.086806 12097.800077 L 6595.086806 11019.035031 L 8559.177083 12154.807986 L 8559.177083 13234.8886 Z M 6595.086806 12097.800077 " transform="matrix(0.00885827,0,0,0.00890776,-53.893701,-73.186117)"/>
<path style="fill-rule:evenodd;fill:url(#linear2);stroke-width:40;stroke-linecap:butt;stroke-linejoin:round;stroke:rgb(100%,100%,100%);stroke-opacity:1;stroke-miterlimit:4;" d="M 8559.177083 12157.000598 L 6595.086806 11020.78912 L 8264.166667 9656.984529 L 10229.138889 10793.196007 Z M 8559.177083 12157.000598 " transform="matrix(0.00885827,0,0,0.00890776,-53.893701,-73.186117)"/>
<path style="fill-rule:evenodd;fill:rgb(100%,100%,100%);fill-opacity:1;stroke-width:40;stroke-linecap:butt;stroke-linejoin:round;stroke:rgb(50.196078%,50.196078%,50.196078%);stroke-opacity:1;stroke-miterlimit:4;" d="M 7676.791667 11247.066667 L 7775.128472 11133.927894 L 7873.024306 11190.935802 L 7775.128472 11304.074576 Z M 7676.791667 11247.066667 " transform="matrix(0.00885827,0,0,0.00890776,-53.893701,-73.186117)"/>
<path style="fill-rule:evenodd;fill:url(#linear3);stroke-width:40;stroke-linecap:butt;stroke-linejoin:round;stroke:rgb(50.196078%,50.196078%,50.196078%);stroke-opacity:1;stroke-miterlimit:4;" d="M 8264.166667 10394.140644 L 8459.958333 10223.993962 L 9442.003472 10791.88044 L 9246.211806 10962.904167 Z M 8264.166667 10394.140644 " transform="matrix(0.00885827,0,0,0.00890776,-53.893701,-73.186117)"/>
<path style="fill-rule:evenodd;fill:rgb(100%,100%,100%);fill-opacity:1;stroke-width:40;stroke-linecap:butt;stroke-linejoin:round;stroke:rgb(50.196078%,50.196078%,50.196078%);stroke-opacity:1;stroke-miterlimit:4;" d="M 7873.90625 11076.04294 L 7971.802083 10962.904167 L 8070.138889 11019.912076 L 7971.802083 11133.050849 Z M 7873.90625 11076.04294 " transform="matrix(0.00885827,0,0,0.00890776,-53.893701,-73.186117)"/>
<path style="fill-rule:evenodd;fill:rgb(100%,100%,100%);fill-opacity:1;stroke-width:40;stroke-linecap:butt;stroke-linejoin:round;stroke:rgb(50.196078%,50.196078%,50.196078%);stroke-opacity:1;stroke-miterlimit:4;" d="M 8070.138889 10905.019213 L 8168.034722 10791.88044 L 8265.930556 10848.888349 L 8168.034722 10962.027122 Z M 8070.138889 10905.019213 " transform="matrix(0.00885827,0,0,0.00890776,-53.893701,-73.186117)"/>
<path style="fill-rule:evenodd;fill:rgb(100%,100%,100%);fill-opacity:1;stroke-width:40;stroke-linecap:butt;stroke-linejoin:round;stroke:rgb(50.196078%,50.196078%,50.196078%);stroke-opacity:1;stroke-miterlimit:4;" d="M 8265.930556 10734.872531 L 8363.826389 10622.17228 L 8462.163194 10679.180189 L 8363.826389 10791.88044 Z M 8265.930556 10734.872531 " transform="matrix(0.00885827,0,0,0.00890776,-53.893701,-73.186117)"/>
<path style="fill-rule:evenodd;fill:rgb(100%,100%,100%);fill-opacity:1;stroke-width:40;stroke-linecap:butt;stroke-linejoin:round;stroke:rgb(50.196078%,50.196078%,50.196078%);stroke-opacity:1;stroke-miterlimit:4;" d="M 7873.90625 11360.20544 L 7971.802083 11247.066667 L 8070.138889 11304.074576 L 7971.802083 11417.213349 Z M 7873.90625 11360.20544 " transform="matrix(0.00885827,0,0,0.00890776,-53.893701,-73.186117)"/>
<path style="fill-rule:evenodd;fill:rgb(100%,100%,100%);fill-opacity:1;stroke-width:40;stroke-linecap:butt;stroke-linejoin:round;stroke:rgb(50.196078%,50.196078%,50.196078%);stroke-opacity:1;stroke-miterlimit:4;" d="M 8068.815972 11189.181713 L 8167.152778 11076.04294 L 8265.048611 11133.050849 L 8167.152778 11246.189622 Z M 8068.815972 11189.181713 " transform="matrix(0.00885827,0,0,0.00890776,-53.893701,-73.186117)"/>
<path style="fill-rule:evenodd;fill:rgb(100%,100%,100%);fill-opacity:1;stroke-width:40;stroke-linecap:butt;stroke-linejoin:round;stroke:rgb(50.196078%,50.196078%,50.196078%);stroke-opacity:1;stroke-miterlimit:4;" d="M 8265.930556 11019.035031 L 8363.826389 10905.896258 L 8462.163194 10962.904167 L 8363.826389 11076.04294 Z M 8265.930556 11019.035031 " transform="matrix(0.00885827,0,0,0.00890776,-53.893701,-73.186117)"/>
<path style="fill-rule:evenodd;fill:rgb(100%,100%,100%);fill-opacity:1;stroke-width:40;stroke-linecap:butt;stroke-linejoin:round;stroke:rgb(50.196078%,50.196078%,50.196078%);stroke-opacity:1;stroke-miterlimit:4;" d="M 8460.840278 10848.888349 L 8559.177083 10736.188098 L 8657.072917 10793.196007 L 8559.177083 10905.896258 Z M 8460.840278 10848.888349 " transform="matrix(0.00885827,0,0,0.00890776,-53.893701,-73.186117)"/>
<path style="fill-rule:evenodd;fill:rgb(22.352941%,70.980392%,29.019608%);fill-opacity:1;stroke-width:40;stroke-linecap:butt;stroke-linejoin:round;stroke:rgb(50.196078%,50.196078%,50.196078%);stroke-opacity:1;stroke-miterlimit:4;" d="M 8068.815972 11473.782735 L 8167.152778 11361.082485 L 8265.048611 11418.090394 L 8167.152778 11530.790644 Z M 8068.815972 11473.782735 " transform="matrix(0.00885827,0,0,0.00890776,-53.893701,-73.186117)"/>
<path style="fill-rule:evenodd;fill:rgb(87.058824%,55.686275%,58.823529%);fill-opacity:1;stroke-width:40;stroke-linecap:butt;stroke-linejoin:round;stroke:rgb(50.196078%,50.196078%,50.196078%);stroke-opacity:1;stroke-miterlimit:4;" d="M 8265.930556 11304.074576 L 8363.826389 11190.935802 L 8462.163194 11247.943711 L 8363.826389 11361.082485 Z M 8265.930556 11304.074576 " transform="matrix(0.00885827,0,0,0.00890776,-53.893701,-73.186117)"/>
<path style="fill-rule:evenodd;fill:rgb(0%,0%,0%);fill-opacity:1;stroke-width:40;stroke-linecap:butt;stroke-linejoin:round;stroke:rgb(50.196078%,50.196078%,50.196078%);stroke-opacity:1;stroke-miterlimit:4;" d="M 8462.163194 11132.173804 L 8560.059028 11019.035031 L 8657.954861 11076.04294 L 8560.059028 11189.181713 Z M 8462.163194 11132.173804 " transform="matrix(0.00885827,0,0,0.00890776,-53.893701,-73.186117)"/>
<path style="fill-rule:evenodd;fill:rgb(100%,100%,100%);fill-opacity:1;stroke-width:40;stroke-linecap:butt;stroke-linejoin:round;stroke:rgb(50.196078%,50.196078%,50.196078%);stroke-opacity:1;stroke-miterlimit:4;" d="M 8657.954861 10962.027122 L 8755.850694 10848.888349 L 8854.1875 10905.896258 L 8755.850694 11019.035031 Z M 8657.954861 10962.027122 " transform="matrix(0.00885827,0,0,0.00890776,-53.893701,-73.186117)"/>
<path style="fill:none;stroke-width:40;stroke-linecap:butt;stroke-linejoin:round;stroke:rgb(100%,100%,100%);stroke-opacity:1;stroke-miterlimit:4;" d="M 6790.878472 11757.945235 L 6790.878472 11644.806462 " transform="matrix(0.00885827,0,0,0.00890776,-53.893701,-73.186117)"/>
<path style="fill:none;stroke-width:40;stroke-linecap:butt;stroke-linejoin:round;stroke:rgb(100%,100%,100%);stroke-opacity:1;stroke-miterlimit:4;" d="M 6790.878472 11757.945235 L 8362.0625 12667.002122 " transform="matrix(0.00885827,0,0,0.00890776,-53.893701,-73.186117)"/>
<path style="fill:none;stroke-width:40;stroke-linecap:butt;stroke-linejoin:round;stroke:rgb(40%,40%,40%);stroke-opacity:1;stroke-miterlimit:4;" d="M 6790.878472 11644.806462 L 8362.0625 12553.863349 " transform="matrix(0.00885827,0,0,0.00890776,-53.893701,-73.186117)"/>
<path style="fill:none;stroke-width:40;stroke-linecap:butt;stroke-linejoin:round;stroke:rgb(40%,40%,40%);stroke-opacity:1;stroke-miterlimit:4;" d="M 8362.944444 12667.002122 L 8362.944444 12553.863349 " transform="matrix(0.00885827,0,0,0.00890776,-53.893701,-73.186117)"/>
<path style="fill-rule:evenodd;fill:url(#linear4);stroke-width:40;stroke-linecap:butt;stroke-linejoin:round;stroke:rgb(100%,100%,100%);stroke-opacity:1;stroke-miterlimit:4;" d="M 6103.84375 10962.027122 L 6103.84375 10622.17228 L 6497.190972 10848.888349 L 6497.190972 11190.058758 Z M 6103.84375 10962.027122 " transform="matrix(0.00885827,0,0,0.00890776,-53.893701,-73.186117)"/>
<path style="fill-rule:evenodd;fill:url(#linear5);stroke-width:40;stroke-linecap:butt;stroke-linejoin:round;stroke:rgb(100%,100%,100%);stroke-opacity:1;stroke-miterlimit:4;" d="M 6497.190972 10848.888349 L 6103.84375 10622.17228 L 7085.888889 9827.131211 L 7478.795139 10053.84728 Z M 6497.190972 10848.888349 " transform="matrix(0.00885827,0,0,0.00890776,-53.893701,-73.186117)"/>
<path style="fill-rule:evenodd;fill:url(#linear6);stroke-width:40;stroke-linecap:butt;stroke-linejoin:round;stroke:rgb(100%,100%,100%);stroke-opacity:1;stroke-miterlimit:4;" d="M 7478.795139 10055.162847 L 7085.888889 9827.131211 L 7577.131944 9542.968711 L 7970.038194 9770.123302 Z M 7478.795139 10055.162847 " transform="matrix(0.00885827,0,0,0.00890776,-53.893701,-73.186117)"/>
<path style="fill:none;stroke-width:40;stroke-linecap:butt;stroke-linejoin:round;stroke:rgb(100%,100%,100%);stroke-opacity:1;stroke-miterlimit:4;" d="M 8854.1875 9542.968711 L 8952.083333 9485.960802 " transform="matrix(0.00885827,0,0,0.00890776,-53.893701,-73.186117)"/>
<path style="fill:none;stroke-width:40;stroke-linecap:butt;stroke-linejoin:round;stroke:rgb(40%,40%,40%);stroke-opacity:1;stroke-miterlimit:4;" d="M 8854.1875 9542.968711 L 10424.930556 10452.025598 " transform="matrix(0.00885827,0,0,0.00890776,-53.893701,-73.186117)"/>
<path style="fill:none;stroke-width:40;stroke-linecap:butt;stroke-linejoin:round;stroke:rgb(100%,100%,100%);stroke-opacity:1;stroke-miterlimit:4;" d="M 8952.083333 9485.960802 L 10522.826389 10395.017689 " transform="matrix(0.00885827,0,0,0.00890776,-53.893701,-73.186117)"/>
<path style="fill:none;stroke-width:40;stroke-linecap:butt;stroke-linejoin:round;stroke:rgb(40%,40%,40%);stroke-opacity:1;stroke-miterlimit:4;" d="M 10425.8125 10452.025598 L 10524.149306 10395.017689 " transform="matrix(0.00885827,0,0,0.00890776,-53.893701,-73.186117)"/>
<path style="fill:none;stroke-width:40;stroke-linecap:butt;stroke-linejoin:round;stroke:rgb(0%,0%,0%);stroke-opacity:1;stroke-miterlimit:4;" d="M 6103.84375 10962.904167 L 6103.84375 10623.049325 L 7085.888889 9827.131211 L 7577.131944 9542.091667 L 7970.038194 9770.123302 L 7970.038194 9884.13912 L 8264.166667 9656.984529 L 9050.861111 9201.798302 L 11014.951389 10338.00978 L 11014.951389 11814.953144 L 8559.177083 13236.204167 L 6595.086806 12099.992689 L 6595.086806 11247.066667 Z M 6103.84375 10962.904167 " transform="matrix(0.00885827,0,0,0.00890776,-53.893701,-73.186117)"/>
<path style="fill-rule:evenodd;fill:rgb(100%,100%,100%);fill-opacity:1;stroke-width:40;stroke-linecap:butt;stroke-linejoin:round;stroke:rgb(50.196078%,50.196078%,50.196078%);stroke-opacity:1;stroke-miterlimit:4;" d="M 7480.118056 11132.173804 L 7578.013889 11019.035031 L 7675.909722 11076.04294 L 7578.013889 11189.181713 Z M 7480.118056 11132.173804 " transform="matrix(0.00885827,0,0,0.00890776,-53.893701,-73.186117)"/>
<path style="fill-rule:evenodd;fill:rgb(100%,100%,100%);fill-opacity:1;stroke-width:40;stroke-linecap:butt;stroke-linejoin:round;stroke:rgb(50.196078%,50.196078%,50.196078%);stroke-opacity:1;stroke-miterlimit:4;" d="M 7675.909722 10962.027122 L 7773.805556 10848.888349 L 7872.142361 10905.896258 L 7773.805556 11019.035031 Z M 7675.909722 10962.027122 " transform="matrix(0.00885827,0,0,0.00890776,-53.893701,-73.186117)"/>
<path style="fill-rule:evenodd;fill:rgb(100%,100%,100%);fill-opacity:1;stroke-width:40;stroke-linecap:butt;stroke-linejoin:round;stroke:rgb(50.196078%,50.196078%,50.196078%);stroke-opacity:1;stroke-miterlimit:4;" d="M 7873.024306 10791.88044 L 7970.920139 10679.180189 L 8068.815972 10736.188098 L 7970.920139 10848.888349 Z M 7873.024306 10791.88044 " transform="matrix(0.00885827,0,0,0.00890776,-53.893701,-73.186117)"/>
<path style="fill-rule:evenodd;fill:rgb(100%,100%,100%);fill-opacity:1;stroke-width:40;stroke-linecap:butt;stroke-linejoin:round;stroke:rgb(50.196078%,50.196078%,50.196078%);stroke-opacity:1;stroke-miterlimit:4;" d="M 8068.815972 10622.17228 L 8167.152778 10509.033507 L 8265.048611 10566.041416 L 8167.152778 10679.180189 Z M 8068.815972 10622.17228 " transform="matrix(0.00885827,0,0,0.00890776,-53.893701,-73.186117)"/>
<path style="fill-rule:evenodd;fill:rgb(100%,100%,100%);fill-opacity:1;stroke-width:40;stroke-linecap:butt;stroke-linejoin:round;stroke:rgb(0%,0%,0%);stroke-opacity:1;stroke-miterlimit:4;" d="M 10327.916667 10338.00978 C 9935.010417 10110.855189 9444.208333 9827.131211 9050.861111 9599.97662 C 9345.871528 9314.937076 9476.840278 8236.172029 10130.802083 8236.172029 C 10524.149306 8462.888098 11014.951389 8747.927643 11506.194444 9031.213098 C 10851.791667 9031.213098 10622.045139 9827.131211 10327.916667 10338.00978 Z M 10327.916667 10338.00978 " transform="matrix(0.00885827,0,0,0.00890776,-53.893701,-73.186117)"/>
</g>
</svg>
