<?xml version="1.0" encoding="UTF-8"?>
<svg xmlns="http://www.w3.org/2000/svg" xmlns:xlink="http://www.w3.org/1999/xlink" width="28pt" height="56pt" viewBox="0 0 28 56" version="1.1">
<defs>
<linearGradient id="linear0" gradientUnits="userSpaceOnUse" x1="5783" y1="7585" x2="6911" y2="7587" gradientTransform="matrix(1,0,0,1,0,0.000000000000909495)">
<stop offset="0.1" style="stop-color:rgb(70.196078%,70.196078%,70.196078%);stop-opacity:1;"/>
<stop offset="1" style="stop-color:rgb(89.803922%,89.803922%,89.803922%);stop-opacity:1;"/>
</linearGradient>
<linearGradient id="linear1" gradientUnits="userSpaceOnUse" x1="5876" y1="7585" x2="6815" y2="7587" gradientTransform="matrix(1,0,0,1,0,0.000000000000909495)">
<stop offset="0.1" style="stop-color:rgb(57.647059%,83.137255%,94.117647%);stop-opacity:1;"/>
<stop offset="1" style="stop-color:rgb(91.372549%,96.470588%,98.823529%);stop-opacity:1;"/>
</linearGradient>
<linearGradient id="linear2" gradientUnits="userSpaceOnUse" x1="6399" y1="6019" x2="6399" y2="6721" gradientTransform="matrix(1,0,0,1,0,0.000000000000909495)">
<stop offset="0.1" style="stop-color:rgb(70.196078%,70.196078%,70.196078%);stop-opacity:1;"/>
<stop offset="1" style="stop-color:rgb(89.803922%,89.803922%,89.803922%);stop-opacity:1;"/>
</linearGradient>
</defs>
<g id="surface1">
<path style="fill-rule:evenodd;fill:rgb(86.666667%,86.666667%,86.666667%);fill-opacity:1;stroke-width:40;stroke-linecap:butt;stroke-linejoin:round;stroke:rgb(86.666667%,86.666667%,86.666667%);stroke-opacity:1;stroke-miterlimit:4;" d="M 6911.976562 9099.107561 C 7169.020058 9099.107561 7292.01981 8990.941406 7292.01981 8882.993769 C 7292.01981 8775.046131 7198.903801 8721.072312 7012.022135 8721.072312 C 7012.022135 8882.993769 6814.962674 8558.932338 6911.976562 9099.107561 Z M 6911.976562 9099.107561 " transform="matrix(0.0180387,0,0,0.0178761,-104.01088,-107.238987)"/>
<path style="fill-rule:evenodd;fill:url(#linear0);stroke-width:40;stroke-linecap:butt;stroke-linejoin:round;stroke:rgb(100%,100%,100%);stroke-opacity:1;stroke-miterlimit:4;" d="M 5785.922495 8450.984701 L 5785.922495 6073.077427 L 6908.078683 6720.981771 L 6908.078683 9099.107561 Z M 5785.922495 8450.984701 " transform="matrix(0.0180387,0,0,0.0178761,-104.01088,-107.238987)"/>
<path style="fill-rule:evenodd;fill:url(#linear1);stroke-width:40;stroke-linecap:butt;stroke-linejoin:round;stroke:rgb(49.803922%,49.803922%,49.803922%);stroke-opacity:1;stroke-miterlimit:4;" d="M 5879.038504 8395.918294 L 5879.038504 6234.998884 L 6814.096478 6774.95559 L 6814.096478 8936.967587 Z M 5879.038504 8395.918294 " transform="matrix(0.0180387,0,0,0.0178761,-104.01088,-107.238987)"/>
<path style="fill-rule:evenodd;fill:url(#linear2);stroke-width:40;stroke-linecap:butt;stroke-linejoin:round;stroke:rgb(100%,100%,100%);stroke-opacity:1;stroke-miterlimit:4;" d="M 6908.078683 6720.981771 L 5785.922495 6073.077427 L 5890.082496 6019.103609 L 7012.022135 6667.007952 Z M 6908.078683 6720.981771 " transform="matrix(0.0180387,0,0,0.0178761,-104.01088,-107.238987)"/>
<path style=" stroke:none;fill-rule:evenodd;fill:rgb(70.196078%,70.196078%,70.196078%);fill-opacity:1;" d="M 20.601562 46.28125 L 20.601562 12.90625 L 22.476562 11.941406 L 22.476562 46.28125 Z M 20.601562 46.28125 "/>
<path style=" stroke:none;fill-rule:evenodd;fill:rgb(70.588235%,70.588235%,70.588235%);fill-opacity:1;" d="M 22.476562 46.28125 L 22.476562 54.449219 L 20.601562 55.417969 L 20.601562 46.28125 Z M 20.601562 45.851562 L 20.601562 12.90625 L 22.476562 11.941406 L 22.476562 45.851562 Z M 20.601562 45.851562 "/>
<path style=" stroke:none;fill-rule:evenodd;fill:rgb(70.980392%,70.980392%,70.980392%);fill-opacity:1;" d="M 22.476562 45.851562 L 22.476562 54.449219 L 20.601562 55.417969 L 20.601562 45.851562 Z M 20.601562 45.40625 L 20.601562 12.90625 L 22.476562 11.941406 L 22.476562 45.40625 Z M 20.601562 45.40625 "/>
<path style=" stroke:none;fill-rule:evenodd;fill:rgb(71.372549%,71.372549%,71.372549%);fill-opacity:1;" d="M 22.476562 45.40625 L 22.476562 54.449219 L 20.601562 55.417969 L 20.601562 45.40625 Z M 20.601562 44.976562 L 20.601562 12.90625 L 22.476562 11.941406 L 22.476562 44.976562 Z M 20.601562 44.976562 "/>
<path style=" stroke:none;fill-rule:evenodd;fill:rgb(71.764706%,71.764706%,71.764706%);fill-opacity:1;" d="M 22.476562 44.976562 L 22.476562 54.449219 L 20.601562 55.417969 L 20.601562 44.976562 Z M 20.601562 44.546875 L 20.601562 12.90625 L 22.476562 11.941406 L 22.476562 44.546875 Z M 20.601562 44.546875 "/>
<path style=" stroke:none;fill-rule:evenodd;fill:rgb(72.156863%,72.156863%,72.156863%);fill-opacity:1;" d="M 22.476562 44.546875 L 22.476562 54.449219 L 20.601562 55.417969 L 20.601562 44.546875 Z M 20.601562 44.101562 L 20.601562 12.90625 L 22.476562 11.941406 L 22.476562 44.101562 Z M 20.601562 44.101562 "/>
<path style=" stroke:none;fill-rule:evenodd;fill:rgb(72.54902%,72.54902%,72.54902%);fill-opacity:1;" d="M 22.476562 44.101562 L 22.476562 54.449219 L 20.601562 55.417969 L 20.601562 44.101562 Z M 20.601562 43.671875 L 20.601562 12.90625 L 22.476562 11.941406 L 22.476562 43.671875 Z M 20.601562 43.671875 "/>
<path style=" stroke:none;fill-rule:evenodd;fill:rgb(72.941176%,72.941176%,72.941176%);fill-opacity:1;" d="M 22.476562 43.671875 L 22.476562 54.449219 L 20.601562 55.417969 L 20.601562 43.671875 Z M 20.601562 43.242188 L 20.601562 12.90625 L 22.476562 11.941406 L 22.476562 43.242188 Z M 20.601562 43.242188 "/>
<path style=" stroke:none;fill-rule:evenodd;fill:rgb(73.333333%,73.333333%,73.333333%);fill-opacity:1;" d="M 22.476562 43.242188 L 22.476562 54.449219 L 20.601562 55.417969 L 20.601562 43.242188 Z M 20.601562 42.796875 L 20.601562 12.90625 L 22.476562 11.941406 L 22.476562 42.796875 Z M 20.601562 42.796875 "/>
<path style=" stroke:none;fill-rule:evenodd;fill:rgb(73.72549%,73.72549%,73.72549%);fill-opacity:1;" d="M 22.476562 42.796875 L 22.476562 54.449219 L 20.601562 55.417969 L 20.601562 42.796875 Z M 20.601562 42.367188 L 20.601562 12.90625 L 22.476562 11.941406 L 22.476562 42.367188 Z M 20.601562 42.367188 "/>
<path style=" stroke:none;fill-rule:evenodd;fill:rgb(74.117647%,74.117647%,74.117647%);fill-opacity:1;" d="M 22.476562 42.367188 L 22.476562 54.449219 L 20.601562 55.417969 L 20.601562 42.367188 Z M 20.601562 41.9375 L 20.601562 12.90625 L 22.476562 11.941406 L 22.476562 41.9375 Z M 20.601562 41.9375 "/>
<path style=" stroke:none;fill-rule:evenodd;fill:rgb(74.509804%,74.509804%,74.509804%);fill-opacity:1;" d="M 22.476562 41.9375 L 22.476562 54.449219 L 20.601562 55.417969 L 20.601562 41.9375 Z M 20.601562 41.492188 L 20.601562 12.90625 L 22.476562 11.941406 L 22.476562 41.492188 Z M 20.601562 41.492188 "/>
<path style=" stroke:none;fill-rule:evenodd;fill:rgb(74.901961%,74.901961%,74.901961%);fill-opacity:1;" d="M 22.476562 41.492188 L 22.476562 54.449219 L 20.601562 55.417969 L 20.601562 41.492188 Z M 20.601562 41.0625 L 20.601562 12.90625 L 22.476562 11.941406 L 22.476562 41.0625 Z M 20.601562 41.0625 "/>
<path style=" stroke:none;fill-rule:evenodd;fill:rgb(75.294118%,75.294118%,75.294118%);fill-opacity:1;" d="M 22.476562 41.0625 L 22.476562 54.449219 L 20.601562 55.417969 L 20.601562 41.0625 Z M 20.601562 40.632812 L 20.601562 12.90625 L 22.476562 11.941406 L 22.476562 40.632812 Z M 20.601562 40.632812 "/>
<path style=" stroke:none;fill-rule:evenodd;fill:rgb(75.686275%,75.686275%,75.686275%);fill-opacity:1;" d="M 22.476562 40.632812 L 22.476562 54.449219 L 20.601562 55.417969 L 20.601562 40.632812 Z M 20.601562 40.1875 L 20.601562 12.90625 L 22.476562 11.941406 L 22.476562 40.1875 Z M 20.601562 40.1875 "/>
<path style=" stroke:none;fill-rule:evenodd;fill:rgb(76.078431%,76.078431%,76.078431%);fill-opacity:1;" d="M 22.476562 40.1875 L 22.476562 54.449219 L 20.601562 55.417969 L 20.601562 40.1875 Z M 20.601562 39.757812 L 20.601562 12.90625 L 22.476562 11.941406 L 22.476562 39.757812 Z M 20.601562 39.757812 "/>
<path style=" stroke:none;fill-rule:evenodd;fill:rgb(76.470588%,76.470588%,76.470588%);fill-opacity:1;" d="M 22.476562 39.757812 L 22.476562 54.449219 L 20.601562 55.417969 L 20.601562 39.757812 Z M 20.601562 39.328125 L 20.601562 12.90625 L 22.476562 11.941406 L 22.476562 39.328125 Z M 20.601562 39.328125 "/>
<path style=" stroke:none;fill-rule:evenodd;fill:rgb(76.862745%,76.862745%,76.862745%);fill-opacity:1;" d="M 22.476562 39.328125 L 22.476562 54.449219 L 20.601562 55.417969 L 20.601562 39.328125 Z M 20.601562 38.878906 L 20.601562 12.90625 L 22.476562 11.941406 L 22.476562 38.878906 Z M 20.601562 38.878906 "/>
<path style=" stroke:none;fill-rule:evenodd;fill:rgb(77.254902%,77.254902%,77.254902%);fill-opacity:1;" d="M 22.476562 38.878906 L 22.476562 54.449219 L 20.601562 55.417969 L 20.601562 38.878906 Z M 20.601562 38.453125 L 20.601562 12.90625 L 22.476562 11.941406 L 22.476562 38.453125 Z M 20.601562 38.453125 "/>
<path style=" stroke:none;fill-rule:evenodd;fill:rgb(77.647059%,77.647059%,77.647059%);fill-opacity:1;" d="M 22.476562 38.453125 L 22.476562 54.449219 L 20.601562 55.417969 L 20.601562 38.453125 Z M 20.601562 38.023438 L 20.601562 12.90625 L 22.476562 11.941406 L 22.476562 38.023438 Z M 20.601562 38.023438 "/>
<path style=" stroke:none;fill-rule:evenodd;fill:rgb(78.039216%,78.039216%,78.039216%);fill-opacity:1;" d="M 22.476562 38.023438 L 22.476562 54.449219 L 20.601562 55.417969 L 20.601562 38.023438 Z M 22.476562 12.351562 L 22.476562 37.574219 L 20.601562 37.574219 L 20.601562 12.90625 L 21.683594 12.351562 Z M 22.476562 12.351562 "/>
<path style=" stroke:none;fill-rule:evenodd;fill:rgb(78.431373%,78.431373%,78.431373%);fill-opacity:1;" d="M 22.476562 37.574219 L 22.476562 54.449219 L 20.601562 55.417969 L 20.601562 37.574219 Z M 21.683594 12.351562 L 22.476562 11.941406 L 22.476562 12.351562 Z M 22.476562 12.78125 L 22.476562 37.148438 L 20.601562 37.148438 L 20.601562 12.90625 L 20.835938 12.78125 Z M 22.476562 12.78125 "/>
<path style=" stroke:none;fill-rule:evenodd;fill:rgb(78.823529%,78.823529%,78.823529%);fill-opacity:1;" d="M 22.476562 37.148438 L 22.476562 54.449219 L 20.601562 55.417969 L 20.601562 37.148438 Z M 20.835938 12.78125 L 22.476562 11.941406 L 22.476562 12.78125 Z M 22.476562 13.226562 L 22.476562 36.699219 L 20.601562 36.699219 L 20.601562 13.226562 Z M 22.476562 13.226562 "/>
<path style=" stroke:none;fill-rule:evenodd;fill:rgb(79.215686%,79.215686%,79.215686%);fill-opacity:1;" d="M 22.476562 36.699219 L 22.476562 54.449219 L 20.601562 55.417969 L 20.601562 36.699219 Z M 20.601562 13.226562 L 20.601562 12.90625 L 22.476562 11.941406 L 22.476562 13.226562 Z M 22.476562 13.65625 L 22.476562 36.269531 L 20.601562 36.269531 L 20.601562 13.65625 Z M 22.476562 13.65625 "/>
<path style=" stroke:none;fill-rule:evenodd;fill:rgb(79.607843%,79.607843%,79.607843%);fill-opacity:1;" d="M 22.476562 36.269531 L 22.476562 54.449219 L 20.601562 55.417969 L 20.601562 36.269531 Z M 20.601562 13.65625 L 20.601562 12.90625 L 22.476562 11.941406 L 22.476562 13.65625 Z M 22.476562 14.085938 L 22.476562 35.839844 L 20.601562 35.839844 L 20.601562 14.085938 Z M 22.476562 14.085938 "/>
<path style=" stroke:none;fill-rule:evenodd;fill:rgb(80%,80%,80%);fill-opacity:1;" d="M 22.476562 35.839844 L 22.476562 54.449219 L 20.601562 55.417969 L 20.601562 35.839844 Z M 20.601562 14.085938 L 20.601562 12.90625 L 22.476562 11.941406 L 22.476562 14.085938 Z M 22.476562 14.535156 L 22.476562 35.394531 L 20.601562 35.394531 L 20.601562 14.535156 Z M 22.476562 14.535156 "/>
<path style=" stroke:none;fill-rule:evenodd;fill:rgb(80.392157%,80.392157%,80.392157%);fill-opacity:1;" d="M 22.476562 35.394531 L 22.476562 54.449219 L 20.601562 55.417969 L 20.601562 35.394531 Z M 20.601562 14.535156 L 20.601562 12.90625 L 22.476562 11.941406 L 22.476562 14.535156 Z M 22.476562 14.960938 L 22.476562 34.964844 L 20.601562 34.964844 L 20.601562 14.960938 Z M 22.476562 14.960938 "/>
<path style=" stroke:none;fill-rule:evenodd;fill:rgb(80.784314%,80.784314%,80.784314%);fill-opacity:1;" d="M 22.476562 34.964844 L 22.476562 54.449219 L 20.601562 55.417969 L 20.601562 34.964844 Z M 20.601562 14.960938 L 20.601562 12.90625 L 22.476562 11.941406 L 22.476562 14.960938 Z M 22.476562 15.390625 L 22.476562 34.535156 L 20.601562 34.535156 L 20.601562 15.390625 Z M 22.476562 15.390625 "/>
<path style=" stroke:none;fill-rule:evenodd;fill:rgb(81.176471%,81.176471%,81.176471%);fill-opacity:1;" d="M 22.476562 34.535156 L 22.476562 54.449219 L 20.601562 55.417969 L 20.601562 34.535156 Z M 20.601562 15.390625 L 20.601562 12.90625 L 22.476562 11.941406 L 22.476562 15.390625 Z M 22.476562 15.839844 L 22.476562 34.089844 L 20.601562 34.089844 L 20.601562 15.839844 Z M 22.476562 15.839844 "/>
<path style=" stroke:none;fill-rule:evenodd;fill:rgb(81.568627%,81.568627%,81.568627%);fill-opacity:1;" d="M 22.476562 34.089844 L 22.476562 54.449219 L 20.601562 55.417969 L 20.601562 34.089844 Z M 20.601562 15.839844 L 20.601562 12.90625 L 22.476562 11.941406 L 22.476562 15.839844 Z M 22.476562 16.265625 L 22.476562 33.660156 L 20.601562 33.660156 L 20.601562 16.265625 Z M 22.476562 16.265625 "/>
<path style=" stroke:none;fill-rule:evenodd;fill:rgb(81.960784%,81.960784%,81.960784%);fill-opacity:1;" d="M 22.476562 33.660156 L 22.476562 54.449219 L 20.601562 55.417969 L 20.601562 33.660156 Z M 20.601562 16.265625 L 20.601562 12.90625 L 22.476562 11.941406 L 22.476562 16.265625 Z M 22.476562 16.695312 L 22.476562 33.230469 L 20.601562 33.230469 L 20.601562 16.695312 Z M 22.476562 16.695312 "/>
<path style=" stroke:none;fill-rule:evenodd;fill:rgb(82.352941%,82.352941%,82.352941%);fill-opacity:1;" d="M 22.476562 33.230469 L 22.476562 54.449219 L 20.601562 55.417969 L 20.601562 33.230469 Z M 20.601562 16.695312 L 20.601562 12.90625 L 22.476562 11.941406 L 22.476562 16.695312 Z M 22.476562 17.144531 L 22.476562 32.785156 L 20.601562 32.785156 L 20.601562 17.144531 Z M 22.476562 17.144531 "/>
<path style=" stroke:none;fill-rule:evenodd;fill:rgb(82.745098%,82.745098%,82.745098%);fill-opacity:1;" d="M 22.476562 32.785156 L 22.476562 54.449219 L 20.601562 55.417969 L 20.601562 32.785156 Z M 20.601562 17.144531 L 20.601562 12.90625 L 22.476562 11.941406 L 22.476562 17.144531 Z M 22.476562 17.570312 L 22.476562 32.355469 L 20.601562 32.355469 L 20.601562 17.570312 Z M 22.476562 17.570312 "/>
<path style=" stroke:none;fill-rule:evenodd;fill:rgb(83.137255%,83.137255%,83.137255%);fill-opacity:1;" d="M 22.476562 32.355469 L 22.476562 54.449219 L 20.601562 55.417969 L 20.601562 32.355469 Z M 20.601562 17.570312 L 20.601562 12.90625 L 22.476562 11.941406 L 22.476562 17.570312 Z M 22.476562 18 L 22.476562 31.925781 L 20.601562 31.925781 L 20.601562 18 Z M 22.476562 18 "/>
<path style=" stroke:none;fill-rule:evenodd;fill:rgb(83.529412%,83.529412%,83.529412%);fill-opacity:1;" d="M 22.476562 31.925781 L 22.476562 54.449219 L 20.601562 55.417969 L 20.601562 31.925781 Z M 20.601562 18 L 20.601562 12.90625 L 22.476562 11.941406 L 22.476562 18 Z M 22.476562 18.449219 L 22.476562 31.480469 L 20.601562 31.480469 L 20.601562 18.449219 Z M 22.476562 18.449219 "/>
<path style=" stroke:none;fill-rule:evenodd;fill:rgb(83.921569%,83.921569%,83.921569%);fill-opacity:1;" d="M 22.476562 31.480469 L 22.476562 54.449219 L 20.601562 55.417969 L 20.601562 31.480469 Z M 20.601562 18.449219 L 20.601562 12.90625 L 22.476562 11.941406 L 22.476562 18.449219 Z M 22.476562 18.878906 L 22.476562 31.050781 L 20.601562 31.050781 L 20.601562 18.878906 Z M 22.476562 18.878906 "/>
<path style=" stroke:none;fill-rule:evenodd;fill:rgb(84.313725%,84.313725%,84.313725%);fill-opacity:1;" d="M 22.476562 31.050781 L 22.476562 54.449219 L 20.601562 55.417969 L 20.601562 31.050781 Z M 20.601562 18.878906 L 20.601562 12.90625 L 22.476562 11.941406 L 22.476562 18.878906 Z M 22.476562 19.304688 L 22.476562 30.621094 L 20.601562 30.621094 L 20.601562 19.304688 Z M 22.476562 19.304688 "/>
<path style=" stroke:none;fill-rule:evenodd;fill:rgb(84.705882%,84.705882%,84.705882%);fill-opacity:1;" d="M 22.476562 30.621094 L 22.476562 54.449219 L 20.601562 55.417969 L 20.601562 30.621094 Z M 20.601562 19.304688 L 20.601562 12.90625 L 22.476562 11.941406 L 22.476562 19.304688 Z M 22.476562 19.753906 L 22.476562 30.175781 L 20.601562 30.175781 L 20.601562 19.753906 Z M 22.476562 19.753906 "/>
<path style=" stroke:none;fill-rule:evenodd;fill:rgb(85.098039%,85.098039%,85.098039%);fill-opacity:1;" d="M 22.476562 30.175781 L 22.476562 54.449219 L 20.601562 55.417969 L 20.601562 30.175781 Z M 20.601562 19.753906 L 20.601562 12.90625 L 22.476562 11.941406 L 22.476562 19.753906 Z M 22.476562 20.183594 L 22.476562 29.746094 L 20.601562 29.746094 L 20.601562 20.183594 Z M 22.476562 20.183594 "/>
<path style=" stroke:none;fill-rule:evenodd;fill:rgb(85.490196%,85.490196%,85.490196%);fill-opacity:1;" d="M 22.476562 29.746094 L 22.476562 54.449219 L 20.601562 55.417969 L 20.601562 29.746094 Z M 20.601562 20.183594 L 20.601562 12.90625 L 22.476562 11.941406 L 22.476562 20.183594 Z M 22.476562 20.628906 L 22.476562 29.316406 L 20.601562 29.316406 L 20.601562 20.628906 Z M 22.476562 20.628906 "/>
<path style=" stroke:none;fill-rule:evenodd;fill:rgb(85.882353%,85.882353%,85.882353%);fill-opacity:1;" d="M 22.476562 29.316406 L 22.476562 54.449219 L 20.601562 55.417969 L 20.601562 29.316406 Z M 20.601562 20.628906 L 20.601562 12.90625 L 22.476562 11.941406 L 22.476562 20.628906 Z M 22.476562 21.058594 L 22.476562 28.871094 L 20.601562 28.871094 L 20.601562 21.058594 Z M 22.476562 21.058594 "/>
<path style=" stroke:none;fill-rule:evenodd;fill:rgb(86.27451%,86.27451%,86.27451%);fill-opacity:1;" d="M 22.476562 28.871094 L 22.476562 54.449219 L 20.601562 55.417969 L 20.601562 28.871094 Z M 20.601562 21.058594 L 20.601562 12.90625 L 22.476562 11.941406 L 22.476562 21.058594 Z M 22.476562 21.488281 L 22.476562 28.441406 L 20.601562 28.441406 L 20.601562 21.488281 Z M 22.476562 21.488281 "/>
<path style=" stroke:none;fill-rule:evenodd;fill:rgb(86.666667%,86.666667%,86.666667%);fill-opacity:1;" d="M 22.476562 28.441406 L 22.476562 54.449219 L 20.601562 55.417969 L 20.601562 28.441406 Z M 20.601562 21.488281 L 20.601562 12.90625 L 22.476562 11.941406 L 22.476562 21.488281 Z M 22.476562 21.933594 L 22.476562 27.992188 L 20.601562 27.992188 L 20.601562 21.933594 Z M 22.476562 21.933594 "/>
<path style=" stroke:none;fill-rule:evenodd;fill:rgb(87.058824%,87.058824%,87.058824%);fill-opacity:1;" d="M 22.476562 27.992188 L 22.476562 54.449219 L 20.601562 55.417969 L 20.601562 27.992188 Z M 20.601562 21.933594 L 20.601562 12.90625 L 22.476562 11.941406 L 22.476562 21.933594 Z M 22.476562 22.363281 L 22.476562 27.566406 L 20.601562 27.566406 L 20.601562 22.363281 Z M 22.476562 22.363281 "/>
<path style=" stroke:none;fill-rule:evenodd;fill:rgb(87.45098%,87.45098%,87.45098%);fill-opacity:1;" d="M 22.476562 27.566406 L 22.476562 54.449219 L 20.601562 55.417969 L 20.601562 27.566406 Z M 20.601562 22.363281 L 20.601562 12.90625 L 22.476562 11.941406 L 22.476562 22.363281 Z M 22.476562 22.792969 L 22.476562 27.136719 L 20.601562 27.136719 L 20.601562 22.792969 Z M 22.476562 22.792969 "/>
<path style=" stroke:none;fill-rule:evenodd;fill:rgb(87.843137%,87.843137%,87.843137%);fill-opacity:1;" d="M 22.476562 27.136719 L 22.476562 54.449219 L 20.601562 55.417969 L 20.601562 27.136719 Z M 20.601562 22.792969 L 20.601562 12.90625 L 22.476562 11.941406 L 22.476562 22.792969 Z M 22.476562 23.238281 L 22.476562 26.6875 L 20.601562 26.6875 L 20.601562 23.238281 Z M 22.476562 23.238281 "/>
<path style=" stroke:none;fill-rule:evenodd;fill:rgb(88.235294%,88.235294%,88.235294%);fill-opacity:1;" d="M 22.476562 26.6875 L 22.476562 54.449219 L 20.601562 55.417969 L 20.601562 26.6875 Z M 20.601562 23.238281 L 20.601562 12.90625 L 22.476562 11.941406 L 22.476562 23.238281 Z M 22.457031 23.667969 L 22.457031 26.261719 L 20.601562 26.261719 L 20.601562 23.667969 Z M 22.457031 23.667969 "/>
<path style=" stroke:none;fill-rule:evenodd;fill:rgb(88.627451%,88.627451%,88.627451%);fill-opacity:1;" d="M 22.457031 26.261719 L 22.457031 23.667969 L 20.601562 23.667969 L 20.601562 12.90625 L 22.476562 11.941406 L 22.476562 54.449219 L 20.601562 55.417969 L 20.601562 26.261719 Z M 22.023438 24.097656 L 22.023438 25.832031 L 20.601562 25.832031 L 20.601562 24.097656 Z M 22.023438 24.097656 "/>
<path style=" stroke:none;fill-rule:evenodd;fill:rgb(89.019608%,89.019608%,89.019608%);fill-opacity:1;" d="M 22.023438 25.832031 L 22.023438 24.097656 L 20.601562 24.097656 L 20.601562 12.90625 L 22.476562 11.941406 L 22.476562 54.449219 L 20.601562 55.417969 L 20.601562 25.832031 Z M 20.726562 24.542969 L 21.574219 24.542969 L 21.574219 25.382812 L 20.726562 25.382812 Z M 20.726562 24.542969 "/>
<path style=" stroke:none;fill-rule:evenodd;fill:rgb(89.803922%,89.803922%,89.803922%);fill-opacity:1;" d="M 20.726562 24.542969 L 20.726562 25.382812 L 21.574219 25.382812 L 21.574219 24.542969 Z M 20.601562 55.417969 L 20.601562 12.90625 L 22.476562 11.941406 L 22.476562 54.449219 Z M 20.601562 55.417969 "/>
<path style="fill:none;stroke-width:40;stroke-linecap:butt;stroke-linejoin:round;stroke:rgb(100%,100%,100%);stroke-opacity:1;stroke-miterlimit:4;" d="M 6908.078683 9099.107561 L 6908.078683 6720.981771 L 7012.022135 6667.007952 L 7012.022135 9044.915225 Z M 6908.078683 9099.107561 " transform="matrix(0.0180387,0,0,0.0178761,-104.01088,-107.238987)"/>
<path style="fill:none;stroke-width:40;stroke-linecap:butt;stroke-linejoin:round;stroke:rgb(0%,0%,0%);stroke-opacity:1;stroke-miterlimit:4;" d="M 5890.082496 6019.103609 L 7012.022135 6667.007952 L 7012.022135 9044.915225 L 6908.078683 9099.107561 L 5785.922495 8450.984701 L 5785.922495 6073.077427 Z M 5890.082496 6019.103609 " transform="matrix(0.0180387,0,0,0.0178761,-104.01088,-107.238987)"/>
</g>
</svg>
