<?xml version="1.0" encoding="UTF-8"?>
<svg xmlns="http://www.w3.org/2000/svg" xmlns:xlink="http://www.w3.org/1999/xlink" width="35pt" height="43pt" viewBox="0 0 35 43" version="1.1">
<defs>
<linearGradient id="linear0" gradientUnits="userSpaceOnUse" x1="5923" y1="7815" x2="7384" y2="7817" >
<stop offset="0.1" style="stop-color:rgb(70.196078%,70.196078%,70.196078%);stop-opacity:1;"/>
<stop offset="1" style="stop-color:rgb(89.803922%,89.803922%,89.803922%);stop-opacity:1;"/>
</linearGradient>
<linearGradient id="linear1" gradientUnits="userSpaceOnUse" x1="7685" y1="4806" x2="7685" y2="6836" >
<stop offset="0.1" style="stop-color:rgb(70.196078%,70.196078%,70.196078%);stop-opacity:1;"/>
<stop offset="1" style="stop-color:rgb(89.803922%,89.803922%,89.803922%);stop-opacity:1;"/>
</linearGradient>
</defs>
<g id="surface1">
<path style="fill-rule:evenodd;fill:rgb(86.666667%,86.666667%,86.666667%);fill-opacity:1;stroke-width:28.222;stroke-linecap:butt;stroke-linejoin:round;stroke:rgb(86.666667%,86.666667%,86.666667%);stroke-opacity:1;stroke-miterlimit:4;" d="M 7381.929241 9636.066315 C 8092.080357 9636.066315 9205.050149 9172.127645 9685.146057 8866.087795 C 10164.797842 8560.047945 9685.146057 8166.187964 9443.099554 8166.187964 Z M 7381.929241 9636.066315 " transform="matrix(0.00879544,0,0,0.00880706,-51.954683,-42.150608)"/>
<path style="fill-rule:evenodd;fill:url(#linear0);stroke-width:40;stroke-linecap:butt;stroke-linejoin:round;stroke:rgb(100%,100%,100%);stroke-opacity:1;stroke-miterlimit:4;" d="M 5926.985491 8796.009104 L 5926.985491 5995.966247 L 7381.929241 6836.023458 L 7381.929241 9636.066315 Z M 5926.985491 8796.009104 " transform="matrix(0.00879544,0,0,0.00880706,-51.954683,-42.150608)"/>
<path style=" stroke:none;fill-rule:evenodd;fill:rgb(70.196078%,70.196078%,70.196078%);fill-opacity:1;" d="M 12.972656 35.332031 L 12.972656 18.054688 L 31.101562 7.574219 L 31.101562 32.234375 L 25.734375 35.332031 Z M 12.972656 35.332031 "/>
<path style=" stroke:none;fill-rule:evenodd;fill:rgb(70.588235%,70.588235%,70.588235%);fill-opacity:1;" d="M 25.734375 35.332031 L 12.972656 42.714844 L 12.972656 35.332031 Z M 12.972656 34.980469 L 12.972656 18.054688 L 31.101562 7.574219 L 31.101562 32.234375 L 26.351562 34.980469 Z M 12.972656 34.980469 "/>
<path style=" stroke:none;fill-rule:evenodd;fill:rgb(70.980392%,70.980392%,70.980392%);fill-opacity:1;" d="M 26.351562 34.980469 L 12.972656 42.714844 L 12.972656 34.980469 Z M 12.972656 34.628906 L 12.972656 18.054688 L 31.101562 7.574219 L 31.101562 32.234375 L 26.957031 34.628906 Z M 12.972656 34.628906 "/>
<path style=" stroke:none;fill-rule:evenodd;fill:rgb(71.372549%,71.372549%,71.372549%);fill-opacity:1;" d="M 26.957031 34.628906 L 12.972656 42.714844 L 12.972656 34.628906 Z M 12.972656 34.277344 L 12.972656 18.054688 L 31.101562 7.574219 L 31.101562 32.234375 L 27.566406 34.277344 Z M 12.972656 34.277344 "/>
<path style=" stroke:none;fill-rule:evenodd;fill:rgb(71.764706%,71.764706%,71.764706%);fill-opacity:1;" d="M 27.566406 34.277344 L 12.972656 42.714844 L 12.972656 34.277344 Z M 12.972656 33.925781 L 12.972656 18.054688 L 31.101562 7.574219 L 31.101562 32.234375 L 28.171875 33.925781 Z M 12.972656 33.925781 "/>
<path style=" stroke:none;fill-rule:evenodd;fill:rgb(72.156863%,72.156863%,72.156863%);fill-opacity:1;" d="M 28.171875 33.925781 L 12.972656 42.714844 L 12.972656 33.925781 Z M 12.972656 33.574219 L 12.972656 18.054688 L 31.101562 7.574219 L 31.101562 32.234375 L 28.789062 33.574219 Z M 12.972656 33.574219 "/>
<path style=" stroke:none;fill-rule:evenodd;fill:rgb(72.54902%,72.54902%,72.54902%);fill-opacity:1;" d="M 28.789062 33.574219 L 12.972656 42.714844 L 12.972656 33.574219 Z M 12.972656 33.21875 L 12.972656 18.054688 L 31.101562 7.574219 L 31.101562 32.234375 L 29.394531 33.21875 Z M 12.972656 33.21875 "/>
<path style=" stroke:none;fill-rule:evenodd;fill:rgb(72.941176%,72.941176%,72.941176%);fill-opacity:1;" d="M 29.394531 33.21875 L 12.972656 42.714844 L 12.972656 33.21875 Z M 12.972656 32.867188 L 12.972656 18.054688 L 31.101562 7.574219 L 31.101562 32.234375 L 30 32.867188 Z M 12.972656 32.867188 "/>
<path style=" stroke:none;fill-rule:evenodd;fill:rgb(73.333333%,73.333333%,73.333333%);fill-opacity:1;" d="M 30 32.867188 L 12.972656 42.714844 L 12.972656 32.867188 Z M 12.972656 32.515625 L 12.972656 18.054688 L 31.101562 7.574219 L 31.101562 32.234375 L 30.617188 32.515625 Z M 12.972656 32.515625 "/>
<path style=" stroke:none;fill-rule:evenodd;fill:rgb(73.72549%,73.72549%,73.72549%);fill-opacity:1;" d="M 30.617188 32.515625 L 12.972656 42.714844 L 12.972656 32.515625 Z M 12.972656 32.164062 L 12.972656 18.054688 L 31.101562 7.574219 L 31.101562 32.164062 Z M 12.972656 32.164062 "/>
<path style=" stroke:none;fill-rule:evenodd;fill:rgb(74.117647%,74.117647%,74.117647%);fill-opacity:1;" d="M 31.101562 32.164062 L 31.101562 32.234375 L 12.972656 42.714844 L 12.972656 32.164062 Z M 12.972656 31.8125 L 12.972656 18.054688 L 31.101562 7.574219 L 31.101562 31.8125 Z M 12.972656 31.8125 "/>
<path style=" stroke:none;fill-rule:evenodd;fill:rgb(74.509804%,74.509804%,74.509804%);fill-opacity:1;" d="M 31.101562 31.8125 L 31.101562 32.234375 L 12.972656 42.714844 L 12.972656 31.8125 Z M 12.972656 31.457031 L 12.972656 18.054688 L 31.101562 7.574219 L 31.101562 31.457031 Z M 12.972656 31.457031 "/>
<path style=" stroke:none;fill-rule:evenodd;fill:rgb(74.901961%,74.901961%,74.901961%);fill-opacity:1;" d="M 31.101562 31.457031 L 31.101562 32.234375 L 12.972656 42.714844 L 12.972656 31.457031 Z M 12.972656 31.105469 L 12.972656 18.054688 L 31.101562 7.574219 L 31.101562 31.105469 Z M 12.972656 31.105469 "/>
<path style=" stroke:none;fill-rule:evenodd;fill:rgb(75.294118%,75.294118%,75.294118%);fill-opacity:1;" d="M 31.101562 31.105469 L 31.101562 32.234375 L 12.972656 42.714844 L 12.972656 31.105469 Z M 31.039062 30.753906 L 12.972656 30.753906 L 12.972656 18.054688 L 31.039062 7.609375 Z M 31.039062 30.753906 "/>
<path style=" stroke:none;fill-rule:evenodd;fill:rgb(75.686275%,75.686275%,75.686275%);fill-opacity:1;" d="M 31.039062 30.753906 L 31.039062 7.609375 L 31.101562 7.574219 L 31.101562 32.234375 L 12.972656 42.714844 L 12.972656 30.753906 Z M 30.695312 30.410156 L 12.972656 30.410156 L 12.972656 18.054688 L 30.695312 7.8125 Z M 30.695312 30.410156 "/>
<path style=" stroke:none;fill-rule:evenodd;fill:rgb(76.078431%,76.078431%,76.078431%);fill-opacity:1;" d="M 30.695312 30.410156 L 30.695312 7.8125 L 31.101562 7.574219 L 31.101562 32.234375 L 12.972656 42.714844 L 12.972656 30.410156 Z M 30.34375 30.058594 L 12.972656 30.058594 L 12.972656 18.054688 L 30.34375 8.015625 Z M 30.34375 30.058594 "/>
<path style=" stroke:none;fill-rule:evenodd;fill:rgb(76.470588%,76.470588%,76.470588%);fill-opacity:1;" d="M 30.34375 30.058594 L 30.34375 8.015625 L 31.101562 7.574219 L 31.101562 32.234375 L 12.972656 42.714844 L 12.972656 30.058594 Z M 29.992188 29.707031 L 12.972656 29.707031 L 12.972656 18.054688 L 29.992188 8.21875 Z M 29.992188 29.707031 "/>
<path style=" stroke:none;fill-rule:evenodd;fill:rgb(76.862745%,76.862745%,76.862745%);fill-opacity:1;" d="M 29.992188 29.707031 L 29.992188 8.21875 L 31.101562 7.574219 L 31.101562 32.234375 L 12.972656 42.714844 L 12.972656 29.707031 Z M 29.640625 29.355469 L 12.972656 29.355469 L 12.972656 18.054688 L 29.640625 8.417969 Z M 29.640625 29.355469 "/>
<path style=" stroke:none;fill-rule:evenodd;fill:rgb(77.254902%,77.254902%,77.254902%);fill-opacity:1;" d="M 29.640625 29.355469 L 29.640625 8.417969 L 31.101562 7.574219 L 31.101562 32.234375 L 12.972656 42.714844 L 12.972656 29.355469 Z M 29.289062 29 L 12.972656 29 L 12.972656 18.054688 L 29.289062 8.621094 Z M 29.289062 29 "/>
<path style=" stroke:none;fill-rule:evenodd;fill:rgb(77.647059%,77.647059%,77.647059%);fill-opacity:1;" d="M 29.289062 29 L 29.289062 8.621094 L 31.101562 7.574219 L 31.101562 32.234375 L 12.972656 42.714844 L 12.972656 29 Z M 28.9375 28.648438 L 12.972656 28.648438 L 12.972656 18.054688 L 28.9375 8.824219 Z M 28.9375 28.648438 "/>
<path style=" stroke:none;fill-rule:evenodd;fill:rgb(78.039216%,78.039216%,78.039216%);fill-opacity:1;" d="M 28.9375 28.648438 L 28.9375 8.824219 L 31.101562 7.574219 L 31.101562 32.234375 L 12.972656 42.714844 L 12.972656 28.648438 Z M 28.585938 28.296875 L 12.972656 28.296875 L 12.972656 18.054688 L 28.585938 9.027344 Z M 28.585938 28.296875 "/>
<path style=" stroke:none;fill-rule:evenodd;fill:rgb(78.431373%,78.431373%,78.431373%);fill-opacity:1;" d="M 28.585938 28.296875 L 28.585938 9.027344 L 31.101562 7.574219 L 31.101562 32.234375 L 12.972656 42.714844 L 12.972656 28.296875 Z M 28.234375 27.945312 L 12.972656 27.945312 L 12.972656 18.054688 L 28.234375 9.230469 Z M 28.234375 27.945312 "/>
<path style=" stroke:none;fill-rule:evenodd;fill:rgb(78.823529%,78.823529%,78.823529%);fill-opacity:1;" d="M 28.234375 27.945312 L 28.234375 9.230469 L 31.101562 7.574219 L 31.101562 32.234375 L 12.972656 42.714844 L 12.972656 27.945312 Z M 27.882812 27.59375 L 12.972656 27.59375 L 12.972656 18.054688 L 27.882812 9.433594 Z M 27.882812 27.59375 "/>
<path style=" stroke:none;fill-rule:evenodd;fill:rgb(79.215686%,79.215686%,79.215686%);fill-opacity:1;" d="M 27.882812 27.59375 L 27.882812 9.433594 L 31.101562 7.574219 L 31.101562 32.234375 L 12.972656 42.714844 L 12.972656 27.59375 Z M 27.53125 27.242188 L 12.972656 27.242188 L 12.972656 18.054688 L 27.53125 9.636719 Z M 27.53125 27.242188 "/>
<path style=" stroke:none;fill-rule:evenodd;fill:rgb(79.607843%,79.607843%,79.607843%);fill-opacity:1;" d="M 27.53125 27.242188 L 27.53125 9.636719 L 31.101562 7.574219 L 31.101562 32.234375 L 12.972656 42.714844 L 12.972656 27.242188 Z M 27.179688 26.886719 L 12.972656 26.886719 L 12.972656 18.054688 L 27.179688 9.847656 Z M 27.179688 26.886719 "/>
<path style=" stroke:none;fill-rule:evenodd;fill:rgb(80%,80%,80%);fill-opacity:1;" d="M 27.179688 26.886719 L 27.179688 9.847656 L 31.101562 7.574219 L 31.101562 32.234375 L 12.972656 42.714844 L 12.972656 26.886719 Z M 26.824219 26.535156 L 12.972656 26.535156 L 12.972656 18.054688 L 26.824219 10.050781 Z M 26.824219 26.535156 "/>
<path style=" stroke:none;fill-rule:evenodd;fill:rgb(80.392157%,80.392157%,80.392157%);fill-opacity:1;" d="M 26.824219 26.535156 L 26.824219 10.050781 L 31.101562 7.574219 L 31.101562 32.234375 L 12.972656 42.714844 L 12.972656 26.535156 Z M 26.472656 26.183594 L 12.972656 26.183594 L 12.972656 18.054688 L 26.472656 10.25 Z M 26.472656 26.183594 "/>
<path style=" stroke:none;fill-rule:evenodd;fill:rgb(80.784314%,80.784314%,80.784314%);fill-opacity:1;" d="M 26.472656 26.183594 L 26.472656 10.25 L 31.101562 7.574219 L 31.101562 32.234375 L 12.972656 42.714844 L 12.972656 26.183594 Z M 26.121094 25.832031 L 12.972656 25.832031 L 12.972656 18.054688 L 26.121094 10.453125 Z M 26.121094 25.832031 "/>
<path style=" stroke:none;fill-rule:evenodd;fill:rgb(81.176471%,81.176471%,81.176471%);fill-opacity:1;" d="M 26.121094 25.832031 L 26.121094 10.453125 L 31.101562 7.574219 L 31.101562 32.234375 L 12.972656 42.714844 L 12.972656 25.832031 Z M 25.78125 10.71875 L 25.78125 25.488281 L 12.972656 25.488281 L 12.972656 18.054688 L 25.664062 10.71875 Z M 25.78125 10.71875 "/>
<path style=" stroke:none;fill-rule:evenodd;fill:rgb(81.568627%,81.568627%,81.568627%);fill-opacity:1;" d="M 25.78125 25.488281 L 25.78125 10.71875 L 25.664062 10.71875 L 31.101562 7.574219 L 31.101562 32.234375 L 12.972656 42.714844 L 12.972656 25.488281 Z M 25.425781 11.070312 L 25.425781 25.136719 L 12.972656 25.136719 L 12.972656 18.054688 L 25.050781 11.070312 Z M 25.425781 11.070312 "/>
<path style=" stroke:none;fill-rule:evenodd;fill:rgb(81.960784%,81.960784%,81.960784%);fill-opacity:1;" d="M 25.425781 25.136719 L 25.425781 11.070312 L 25.050781 11.070312 L 31.101562 7.574219 L 31.101562 32.234375 L 12.972656 42.714844 L 12.972656 25.136719 Z M 25.074219 11.421875 L 25.074219 24.78125 L 12.972656 24.78125 L 12.972656 18.054688 L 24.441406 11.421875 Z M 25.074219 11.421875 "/>
<path style=" stroke:none;fill-rule:evenodd;fill:rgb(82.352941%,82.352941%,82.352941%);fill-opacity:1;" d="M 25.074219 24.78125 L 25.074219 11.421875 L 24.441406 11.421875 L 31.101562 7.574219 L 31.101562 32.234375 L 12.972656 42.714844 L 12.972656 24.78125 Z M 24.722656 11.773438 L 24.722656 24.429688 L 12.972656 24.429688 L 12.972656 18.054688 L 23.835938 11.773438 Z M 24.722656 11.773438 "/>
<path style=" stroke:none;fill-rule:evenodd;fill:rgb(82.745098%,82.745098%,82.745098%);fill-opacity:1;" d="M 24.722656 24.429688 L 24.722656 11.773438 L 23.835938 11.773438 L 31.101562 7.574219 L 31.101562 32.234375 L 12.972656 42.714844 L 12.972656 24.429688 Z M 24.371094 12.128906 L 24.371094 24.078125 L 12.972656 24.078125 L 12.972656 18.054688 L 23.230469 12.128906 Z M 24.371094 12.128906 "/>
<path style=" stroke:none;fill-rule:evenodd;fill:rgb(83.137255%,83.137255%,83.137255%);fill-opacity:1;" d="M 24.371094 24.078125 L 24.371094 12.128906 L 23.230469 12.128906 L 31.101562 7.574219 L 31.101562 32.234375 L 12.972656 42.714844 L 12.972656 24.078125 Z M 24.019531 12.480469 L 24.019531 23.726562 L 12.972656 23.726562 L 12.972656 18.054688 L 22.613281 12.480469 Z M 24.019531 12.480469 "/>
<path style=" stroke:none;fill-rule:evenodd;fill:rgb(83.529412%,83.529412%,83.529412%);fill-opacity:1;" d="M 24.019531 23.726562 L 24.019531 12.480469 L 22.613281 12.480469 L 31.101562 7.574219 L 31.101562 32.234375 L 12.972656 42.714844 L 12.972656 23.726562 Z M 23.667969 12.832031 L 23.667969 23.375 L 13.140625 23.375 L 13.140625 17.957031 L 22.007812 12.832031 Z M 23.667969 12.832031 "/>
<path style=" stroke:none;fill-rule:evenodd;fill:rgb(83.921569%,83.921569%,83.921569%);fill-opacity:1;" d="M 13.140625 23.375 L 23.667969 23.375 L 23.667969 12.832031 L 22.007812 12.832031 L 31.101562 7.574219 L 31.101562 32.234375 L 12.972656 42.714844 L 12.972656 18.054688 L 13.140625 17.957031 Z M 23.316406 13.183594 L 23.316406 23.023438 L 13.492188 23.023438 L 13.492188 17.753906 L 21.398438 13.183594 Z M 23.316406 13.183594 "/>
<path style=" stroke:none;fill-rule:evenodd;fill:rgb(84.313725%,84.313725%,84.313725%);fill-opacity:1;" d="M 13.492188 23.023438 L 23.316406 23.023438 L 23.316406 13.183594 L 21.398438 13.183594 L 31.101562 7.574219 L 31.101562 32.234375 L 12.972656 42.714844 L 12.972656 18.054688 L 13.492188 17.753906 Z M 22.964844 13.535156 L 22.964844 22.667969 L 13.84375 22.667969 L 13.84375 17.550781 L 20.785156 13.535156 Z M 22.964844 13.535156 "/>
<path style=" stroke:none;fill-rule:evenodd;fill:rgb(84.705882%,84.705882%,84.705882%);fill-opacity:1;" d="M 13.84375 22.667969 L 22.964844 22.667969 L 22.964844 13.535156 L 20.785156 13.535156 L 31.101562 7.574219 L 31.101562 32.234375 L 12.972656 42.714844 L 12.972656 18.054688 L 13.84375 17.550781 Z M 22.613281 13.890625 L 22.613281 22.316406 L 14.195312 22.316406 L 14.195312 17.351562 L 20.175781 13.890625 Z M 22.613281 13.890625 "/>
<path style=" stroke:none;fill-rule:evenodd;fill:rgb(85.098039%,85.098039%,85.098039%);fill-opacity:1;" d="M 14.195312 22.316406 L 22.613281 22.316406 L 22.613281 13.890625 L 20.175781 13.890625 L 31.101562 7.574219 L 31.101562 32.234375 L 12.972656 42.714844 L 12.972656 18.054688 L 14.195312 17.351562 Z M 22.261719 14.242188 L 22.261719 21.964844 L 14.546875 21.964844 L 14.546875 17.148438 L 19.570312 14.242188 Z M 22.261719 14.242188 "/>
<path style=" stroke:none;fill-rule:evenodd;fill:rgb(85.490196%,85.490196%,85.490196%);fill-opacity:1;" d="M 14.546875 21.964844 L 22.261719 21.964844 L 22.261719 14.242188 L 19.570312 14.242188 L 31.101562 7.574219 L 31.101562 32.234375 L 12.972656 42.714844 L 12.972656 18.054688 L 14.546875 17.148438 Z M 21.910156 14.59375 L 21.910156 21.613281 L 14.898438 21.613281 L 14.898438 16.945312 L 18.964844 14.59375 Z M 21.910156 14.59375 "/>
<path style=" stroke:none;fill-rule:evenodd;fill:rgb(85.882353%,85.882353%,85.882353%);fill-opacity:1;" d="M 14.898438 21.613281 L 21.910156 21.613281 L 21.910156 14.59375 L 18.964844 14.59375 L 31.101562 7.574219 L 31.101562 32.234375 L 12.972656 42.714844 L 12.972656 18.054688 L 14.898438 16.945312 Z M 21.558594 14.945312 L 21.558594 21.261719 L 15.25 21.261719 L 15.25 16.734375 L 18.347656 14.945312 Z M 21.558594 14.945312 "/>
<path style=" stroke:none;fill-rule:evenodd;fill:rgb(86.27451%,86.27451%,86.27451%);fill-opacity:1;" d="M 15.25 21.261719 L 21.558594 21.261719 L 21.558594 14.945312 L 18.347656 14.945312 L 31.101562 7.574219 L 31.101562 32.234375 L 12.972656 42.714844 L 12.972656 18.054688 L 15.25 16.734375 Z M 21.207031 15.296875 L 21.207031 20.90625 L 15.601562 20.90625 L 15.601562 16.53125 L 17.742188 15.296875 Z M 21.207031 15.296875 "/>
<path style=" stroke:none;fill-rule:evenodd;fill:rgb(86.666667%,86.666667%,86.666667%);fill-opacity:1;" d="M 15.601562 20.90625 L 21.207031 20.90625 L 21.207031 15.296875 L 17.742188 15.296875 L 31.101562 7.574219 L 31.101562 32.234375 L 12.972656 42.714844 L 12.972656 18.054688 L 15.601562 16.53125 Z M 20.863281 15.640625 L 20.863281 20.566406 L 15.945312 20.566406 L 15.945312 16.335938 L 17.152344 15.640625 Z M 20.863281 15.640625 "/>
<path style=" stroke:none;fill-rule:evenodd;fill:rgb(87.058824%,87.058824%,87.058824%);fill-opacity:1;" d="M 15.945312 20.566406 L 20.863281 20.566406 L 20.863281 15.640625 L 17.152344 15.640625 L 31.101562 7.574219 L 31.101562 32.234375 L 12.972656 42.714844 L 12.972656 18.054688 L 15.945312 16.335938 Z M 20.511719 15.992188 L 20.511719 20.210938 L 16.296875 20.210938 L 16.296875 16.132812 L 16.535156 15.992188 Z M 20.511719 15.992188 "/>
<path style=" stroke:none;fill-rule:evenodd;fill:rgb(87.45098%,87.45098%,87.45098%);fill-opacity:1;" d="M 16.296875 20.210938 L 20.511719 20.210938 L 20.511719 15.992188 L 16.535156 15.992188 L 31.101562 7.574219 L 31.101562 32.234375 L 12.972656 42.714844 L 12.972656 18.054688 L 16.296875 16.132812 Z M 16.648438 16.347656 L 20.160156 16.347656 L 20.160156 19.859375 L 16.648438 19.859375 Z M 16.648438 16.347656 "/>
<path style=" stroke:none;fill-rule:evenodd;fill:rgb(87.843137%,87.843137%,87.843137%);fill-opacity:1;" d="M 16.648438 16.347656 L 16.648438 19.859375 L 20.160156 19.859375 L 20.160156 16.347656 Z M 17 16.699219 L 19.808594 16.699219 L 19.808594 19.507812 L 17 19.507812 Z M 12.972656 42.714844 L 12.972656 18.054688 L 31.101562 7.574219 L 31.101562 32.234375 Z M 12.972656 42.714844 "/>
<path style=" stroke:none;fill-rule:evenodd;fill:rgb(88.235294%,88.235294%,88.235294%);fill-opacity:1;" d="M 17 16.699219 L 17 19.507812 L 19.808594 19.507812 L 19.808594 16.699219 Z M 17.351562 17.050781 L 19.457031 17.050781 L 19.457031 19.15625 L 17.351562 19.15625 Z M 12.972656 42.714844 L 12.972656 18.054688 L 31.101562 7.574219 L 31.101562 32.234375 Z M 12.972656 42.714844 "/>
<path style=" stroke:none;fill-rule:evenodd;fill:rgb(88.627451%,88.627451%,88.627451%);fill-opacity:1;" d="M 17.351562 17.050781 L 17.351562 19.15625 L 19.457031 19.15625 L 19.457031 17.050781 Z M 17.707031 17.402344 L 19.105469 17.402344 L 19.105469 18.804688 L 17.707031 18.804688 Z M 12.972656 42.714844 L 12.972656 18.054688 L 31.101562 7.574219 L 31.101562 32.234375 Z M 12.972656 42.714844 "/>
<path style=" stroke:none;fill-rule:evenodd;fill:rgb(89.019608%,89.019608%,89.019608%);fill-opacity:1;" d="M 17.707031 17.402344 L 17.707031 18.804688 L 19.105469 18.804688 L 19.105469 17.402344 Z M 18.058594 17.753906 L 18.75 17.753906 L 18.75 18.449219 L 18.058594 18.449219 Z M 12.972656 42.714844 L 12.972656 18.054688 L 31.101562 7.574219 L 31.101562 32.234375 Z M 12.972656 42.714844 "/>
<path style=" stroke:none;fill-rule:evenodd;fill:rgb(89.803922%,89.803922%,89.803922%);fill-opacity:1;" d="M 18.058594 17.753906 L 18.058594 18.449219 L 18.75 18.449219 L 18.75 17.753906 Z M 12.972656 42.714844 L 12.972656 18.054688 L 31.101562 7.574219 L 31.101562 32.234375 Z M 12.972656 42.714844 "/>
<path style="fill:none;stroke-width:40;stroke-linecap:butt;stroke-linejoin:round;stroke:rgb(100%,100%,100%);stroke-opacity:1;stroke-miterlimit:4;" d="M 7381.929241 9636.066315 L 7381.929241 6836.023458 L 9443.099554 5646.016332 L 9443.099554 8446.059189 Z M 7381.929241 9636.066315 " transform="matrix(0.00879544,0,0,0.00880706,-51.954683,-42.150608)"/>
<path style="fill-rule:evenodd;fill:url(#linear1);stroke-width:40;stroke-linecap:butt;stroke-linejoin:round;stroke:rgb(100%,100%,100%);stroke-opacity:1;stroke-miterlimit:4;" d="M 7381.929241 6836.023458 L 5926.985491 5995.966247 L 7988.155804 4805.959121 L 9443.099554 5646.016332 Z M 7381.929241 6836.023458 " transform="matrix(0.00879544,0,0,0.00880706,-51.954683,-42.150608)"/>
<path style="fill:none;stroke-width:40;stroke-linecap:butt;stroke-linejoin:round;stroke:rgb(0%,0%,0%);stroke-opacity:1;stroke-miterlimit:4;" d="M 5926.985491 8796.009104 L 5926.985491 5995.966247 L 7988.155804 4805.959121 L 9443.099554 5646.016332 L 9443.099554 8446.059189 L 7381.929241 9636.066315 Z M 5926.985491 8796.009104 " transform="matrix(0.00879544,0,0,0.00880706,-51.954683,-42.150608)"/>
<path style="fill:none;stroke-width:40;stroke-linecap:butt;stroke-linejoin:round;stroke:rgb(50.196078%,50.196078%,50.196078%);stroke-opacity:1;stroke-miterlimit:4;" d="M 7138.994494 8936.166485 L 6169.031994 8375.980499 " transform="matrix(0.00879544,0,0,0.00880706,-51.954683,-42.150608)"/>
<path style="fill:none;stroke-width:40;stroke-linecap:butt;stroke-linejoin:round;stroke:rgb(50.196078%,50.196078%,50.196078%);stroke-opacity:1;stroke-miterlimit:4;" d="M 7138.994494 9216.03771 L 6169.031994 8655.851724 " transform="matrix(0.00879544,0,0,0.00880706,-51.954683,-42.150608)"/>
<path style="fill:none;stroke-width:40;stroke-linecap:butt;stroke-linejoin:round;stroke:rgb(50.196078%,50.196078%,50.196078%);stroke-opacity:1;stroke-miterlimit:4;" d="M 7138.994494 9075.880329 L 6169.031994 8516.13788 " transform="matrix(0.00879544,0,0,0.00880706,-51.954683,-42.150608)"/>
<path style="fill:none;stroke-width:40;stroke-linecap:butt;stroke-linejoin:round;stroke:rgb(100%,100%,100%);stroke-opacity:1;stroke-miterlimit:4;" d="M 7259.795685 7256.052063 L 6047.786682 6556.152233 L 6047.786682 6415.994852 " transform="matrix(0.00879544,0,0,0.00880706,-51.954683,-42.150608)"/>
<path style="fill:none;stroke-width:40;stroke-linecap:butt;stroke-linejoin:round;stroke:rgb(50.196078%,50.196078%,50.196078%);stroke-opacity:1;stroke-miterlimit:4;" d="M 7259.795685 7256.052063 L 7259.795685 7115.894683 L 6069.104539 6412.8901 " transform="matrix(0.00879544,0,0,0.00880706,-51.954683,-42.150608)"/>
<path style="fill-rule:evenodd;fill:rgb(22.352941%,70.980392%,29.019608%);fill-opacity:1;stroke-width:40;stroke-linecap:butt;stroke-linejoin:round;stroke:rgb(50.196078%,50.196078%,50.196078%);stroke-opacity:1;stroke-miterlimit:4;" d="M 6496.794048 7978.128694 L 6496.794048 7813.133297 L 6638.913095 7895.18746 L 6638.913095 8060.182857 Z M 6496.794048 7978.128694 " transform="matrix(0.00879544,0,0,0.00880706,-51.954683,-42.150608)"/>
<path style="fill:none;stroke-width:40;stroke-linecap:butt;stroke-linejoin:round;stroke:rgb(50.196078%,50.196078%,50.196078%);stroke-opacity:1;stroke-miterlimit:4;" d="M 7138.994494 8796.009104 L 6169.031994 8235.823119 " transform="matrix(0.00879544,0,0,0.00880706,-51.954683,-42.150608)"/>
</g>
</svg>
