<?xml version="1.0" encoding="UTF-8"?>
<svg xmlns="http://www.w3.org/2000/svg" xmlns:xlink="http://www.w3.org/1999/xlink" width="45pt" height="54pt" viewBox="0 0 45 54" version="1.1">
<defs>
<linearGradient id="linear0" gradientUnits="userSpaceOnUse" x1="2187" y1="8582" x2="4129" y2="8586" >
<stop offset="0.1" style="stop-color:rgb(70.196078%,70.196078%,70.196078%);stop-opacity:1;"/>
<stop offset="1" style="stop-color:rgb(89.803922%,89.803922%,89.803922%);stop-opacity:1;"/>
</linearGradient>
<linearGradient id="linear1" gradientUnits="userSpaceOnUse" x1="4613" y1="6239" x2="4613" y2="9039" >
<stop offset="0.1" style="stop-color:rgb(70.196078%,70.196078%,70.196078%);stop-opacity:1;"/>
<stop offset="1" style="stop-color:rgb(89.803922%,89.803922%,89.803922%);stop-opacity:1;"/>
</linearGradient>
<linearGradient id="linear2" gradientUnits="userSpaceOnUse" x1="4612" y1="6449" x2="4612" y2="8829" >
<stop offset="0.1" style="stop-color:rgb(57.647059%,83.137255%,94.117647%);stop-opacity:1;"/>
<stop offset="1" style="stop-color:rgb(91.372549%,96.470588%,98.823529%);stop-opacity:1;"/>
</linearGradient>
<linearGradient id="linear3" gradientUnits="userSpaceOnUse" x1="5094" y1="5257" x2="6920" y2="5261" >
<stop offset="0.1" style="stop-color:rgb(70.196078%,70.196078%,70.196078%);stop-opacity:1;"/>
<stop offset="1" style="stop-color:rgb(89.803922%,89.803922%,89.803922%);stop-opacity:1;"/>
</linearGradient>
</defs>
<g id="surface1">
<path style="fill-rule:evenodd;fill:rgb(86.666667%,86.666667%,86.666667%);fill-opacity:1;stroke-width:28.222;stroke-linecap:butt;stroke-linejoin:round;stroke:rgb(86.666667%,86.666667%,86.666667%);stroke-opacity:1;stroke-miterlimit:4;" d="M 5098.20652 8689.076389 C 5355.180633 8689.076389 7037.790992 7779.126125 7158.823167 7709.129951 C 7279.855343 7639.133777 7225.040046 7429.145255 7037.790992 7429.145255 Z M 5098.20652 8689.076389 " transform="matrix(0.00890776,0,0,0.00881745,-19.312013,-27.677964)"/>
<path style="fill-rule:evenodd;fill:url(#linear0);stroke-width:40;stroke-linecap:butt;stroke-linejoin:round;stroke:rgb(69.803922%,69.803922%,69.803922%);stroke-opacity:1;stroke-miterlimit:4;" d="M 2188.172029 8129.106996 L 2188.172029 7919.118474 L 4128.195023 9039.05726 L 4128.195023 9249.045782 Z M 2188.172029 8129.106996 " transform="matrix(0.00890776,0,0,0.00881745,-19.312013,-27.677964)"/>
<path style="fill-rule:evenodd;fill:url(#linear1);stroke-width:40;stroke-linecap:butt;stroke-linejoin:round;stroke:rgb(100%,100%,100%);stroke-opacity:1;stroke-miterlimit:4;" d="M 4128.195023 9039.05726 L 2188.172029 7919.118474 L 5098.20652 6239.210294 L 7037.790992 7359.149081 Z M 4128.195023 9039.05726 " transform="matrix(0.00890776,0,0,0.00881745,-19.312013,-27.677964)"/>
<path style=" stroke:none;fill-rule:evenodd;fill:rgb(70.196078%,70.196078%,70.196078%);fill-opacity:1;" d="M 37.929688 42.175781 L 17.460938 53.875 L 17.460938 52.023438 L 37.929688 40.320312 Z M 37.929688 42.175781 "/>
<path style=" stroke:none;fill-rule:evenodd;fill:rgb(70.588235%,70.588235%,70.588235%);fill-opacity:1;" d="M 37.929688 40.320312 L 43.378906 37.210938 L 43.378906 39.0625 L 37.929688 42.175781 Z M 37.671875 42.324219 L 17.460938 53.875 L 17.460938 52.023438 L 37.671875 40.472656 Z M 37.671875 42.324219 "/>
<path style=" stroke:none;fill-rule:evenodd;fill:rgb(70.980392%,70.980392%,70.980392%);fill-opacity:1;" d="M 37.671875 40.472656 L 43.378906 37.210938 L 43.378906 39.0625 L 37.671875 42.324219 Z M 37.414062 42.472656 L 17.460938 53.875 L 17.460938 52.023438 L 37.414062 40.621094 Z M 37.414062 42.472656 "/>
<path style=" stroke:none;fill-rule:evenodd;fill:rgb(71.372549%,71.372549%,71.372549%);fill-opacity:1;" d="M 37.414062 40.621094 L 43.378906 37.210938 L 43.378906 39.0625 L 37.414062 42.472656 Z M 37.152344 42.625 L 17.460938 53.875 L 17.460938 52.023438 L 37.152344 40.773438 Z M 37.152344 42.625 "/>
<path style=" stroke:none;fill-rule:evenodd;fill:rgb(71.764706%,71.764706%,71.764706%);fill-opacity:1;" d="M 37.152344 40.773438 L 43.378906 37.210938 L 43.378906 39.0625 L 37.152344 42.625 Z M 36.894531 42.765625 L 17.671875 53.75 L 17.460938 53.75 L 17.460938 52.023438 L 36.894531 40.914062 Z M 36.894531 42.765625 "/>
<path style=" stroke:none;fill-rule:evenodd;fill:rgb(72.156863%,72.156863%,72.156863%);fill-opacity:1;" d="M 17.671875 53.75 L 17.460938 53.875 L 17.460938 53.75 Z M 36.894531 40.914062 L 43.378906 37.210938 L 43.378906 39.0625 L 36.894531 42.765625 Z M 36.636719 42.914062 L 18.117188 53.496094 L 17.460938 53.496094 L 17.460938 52.023438 L 36.636719 41.0625 Z M 36.636719 42.914062 "/>
<path style=" stroke:none;fill-rule:evenodd;fill:rgb(72.54902%,72.54902%,72.54902%);fill-opacity:1;" d="M 18.117188 53.496094 L 17.460938 53.875 L 17.460938 53.496094 Z M 36.636719 41.0625 L 43.378906 37.210938 L 43.378906 39.0625 L 36.636719 42.914062 Z M 36.378906 43.0625 L 18.574219 53.238281 L 17.460938 53.238281 L 17.460938 52.023438 L 36.378906 41.210938 Z M 36.378906 43.0625 "/>
<path style=" stroke:none;fill-rule:evenodd;fill:rgb(72.941176%,72.941176%,72.941176%);fill-opacity:1;" d="M 18.574219 53.238281 L 17.460938 53.875 L 17.460938 53.238281 Z M 36.378906 41.210938 L 43.378906 37.210938 L 43.378906 39.0625 L 36.378906 43.0625 Z M 36.113281 43.214844 L 19.035156 52.976562 L 17.460938 52.976562 L 17.460938 52.023438 L 36.113281 41.363281 Z M 36.113281 43.214844 "/>
<path style=" stroke:none;fill-rule:evenodd;fill:rgb(73.333333%,73.333333%,73.333333%);fill-opacity:1;" d="M 19.035156 52.976562 L 17.460938 53.875 L 17.460938 52.976562 Z M 36.113281 41.363281 L 43.378906 37.210938 L 43.378906 39.0625 L 36.113281 43.214844 Z M 35.855469 43.363281 L 19.480469 52.71875 L 17.460938 52.71875 L 17.460938 52.023438 L 35.855469 41.511719 Z M 35.855469 43.363281 "/>
<path style=" stroke:none;fill-rule:evenodd;fill:rgb(73.72549%,73.72549%,73.72549%);fill-opacity:1;" d="M 19.480469 52.71875 L 17.460938 53.875 L 17.460938 52.71875 Z M 35.855469 41.511719 L 43.378906 37.210938 L 43.378906 39.0625 L 35.855469 43.363281 Z M 35.59375 43.515625 L 19.925781 52.464844 L 17.460938 52.464844 L 17.460938 52.023438 L 35.59375 41.664062 Z M 35.59375 43.515625 "/>
<path style=" stroke:none;fill-rule:evenodd;fill:rgb(74.117647%,74.117647%,74.117647%);fill-opacity:1;" d="M 19.925781 52.464844 L 17.460938 53.875 L 17.460938 52.464844 Z M 35.59375 41.664062 L 43.378906 37.210938 L 43.378906 39.0625 L 35.59375 43.515625 Z M 35.335938 43.65625 L 20.371094 52.207031 L 17.460938 52.207031 L 17.460938 52.023438 L 35.335938 41.804688 Z M 35.335938 43.65625 "/>
<path style=" stroke:none;fill-rule:evenodd;fill:rgb(74.509804%,74.509804%,74.509804%);fill-opacity:1;" d="M 20.371094 52.207031 L 17.460938 53.875 L 17.460938 52.207031 Z M 35.335938 41.804688 L 43.378906 37.210938 L 43.378906 39.0625 L 35.335938 43.65625 Z M 35.078125 43.804688 L 20.828125 51.953125 L 17.582031 51.953125 L 35.078125 41.953125 Z M 35.078125 43.804688 "/>
<path style=" stroke:none;fill-rule:evenodd;fill:rgb(74.901961%,74.901961%,74.901961%);fill-opacity:1;" d="M 20.828125 51.953125 L 17.460938 53.875 L 17.460938 52.023438 L 17.582031 51.953125 Z M 35.078125 41.953125 L 43.378906 37.210938 L 43.378906 39.0625 L 35.078125 43.804688 Z M 34.820312 43.953125 L 21.273438 51.695312 L 18.027344 51.695312 L 34.820312 42.101562 Z M 34.820312 43.953125 "/>
<path style=" stroke:none;fill-rule:evenodd;fill:rgb(75.294118%,75.294118%,75.294118%);fill-opacity:1;" d="M 21.273438 51.695312 L 17.460938 53.875 L 17.460938 52.023438 L 18.027344 51.695312 Z M 34.820312 42.101562 L 43.378906 37.210938 L 43.378906 39.0625 L 34.820312 43.953125 Z M 34.5625 44.105469 L 21.71875 51.441406 L 18.476562 51.441406 L 34.5625 42.253906 Z M 34.5625 44.105469 "/>
<path style=" stroke:none;fill-rule:evenodd;fill:rgb(75.686275%,75.686275%,75.686275%);fill-opacity:1;" d="M 21.71875 51.441406 L 17.460938 53.875 L 17.460938 52.023438 L 18.476562 51.441406 Z M 34.5625 42.253906 L 43.378906 37.210938 L 43.378906 39.0625 L 34.5625 44.105469 Z M 34.304688 44.246094 L 22.164062 51.183594 L 18.929688 51.183594 L 34.304688 42.394531 Z M 34.304688 44.246094 "/>
<path style=" stroke:none;fill-rule:evenodd;fill:rgb(76.078431%,76.078431%,76.078431%);fill-opacity:1;" d="M 22.164062 51.183594 L 17.460938 53.875 L 17.460938 52.023438 L 18.929688 51.183594 Z M 34.304688 42.394531 L 43.378906 37.210938 L 43.378906 39.0625 L 34.304688 44.246094 Z M 34.035156 44.40625 L 22.625 50.921875 L 19.390625 50.921875 L 34.035156 42.554688 Z M 34.035156 44.40625 "/>
<path style=" stroke:none;fill-rule:evenodd;fill:rgb(76.470588%,76.470588%,76.470588%);fill-opacity:1;" d="M 22.625 50.921875 L 17.460938 53.875 L 17.460938 52.023438 L 19.390625 50.921875 Z M 34.035156 42.554688 L 43.378906 37.210938 L 43.378906 39.0625 L 34.035156 44.40625 Z M 33.777344 44.546875 L 23.078125 50.664062 L 19.835938 50.664062 L 33.777344 42.695312 Z M 33.777344 44.546875 "/>
<path style=" stroke:none;fill-rule:evenodd;fill:rgb(76.862745%,76.862745%,76.862745%);fill-opacity:1;" d="M 23.078125 50.664062 L 17.460938 53.875 L 17.460938 52.023438 L 19.835938 50.664062 Z M 33.777344 42.695312 L 43.378906 37.210938 L 43.378906 39.0625 L 33.777344 44.546875 Z M 33.519531 44.695312 L 23.523438 50.410156 L 20.28125 50.410156 L 33.519531 42.84375 Z M 33.519531 44.695312 "/>
<path style=" stroke:none;fill-rule:evenodd;fill:rgb(77.254902%,77.254902%,77.254902%);fill-opacity:1;" d="M 23.523438 50.410156 L 17.460938 53.875 L 17.460938 52.023438 L 20.28125 50.410156 Z M 33.519531 42.84375 L 43.378906 37.210938 L 43.378906 39.0625 L 33.519531 44.695312 Z M 33.261719 44.84375 L 23.972656 50.152344 L 20.726562 50.152344 L 33.261719 42.992188 Z M 33.261719 44.84375 "/>
<path style=" stroke:none;fill-rule:evenodd;fill:rgb(77.647059%,77.647059%,77.647059%);fill-opacity:1;" d="M 23.972656 50.152344 L 17.460938 53.875 L 17.460938 52.023438 L 20.726562 50.152344 Z M 33.261719 42.992188 L 43.378906 37.210938 L 43.378906 39.0625 L 33.261719 44.84375 Z M 33.003906 44.996094 L 24.417969 49.898438 L 21.171875 49.898438 L 33.003906 43.144531 Z M 33.003906 44.996094 "/>
<path style=" stroke:none;fill-rule:evenodd;fill:rgb(78.039216%,78.039216%,78.039216%);fill-opacity:1;" d="M 24.417969 49.898438 L 17.460938 53.875 L 17.460938 52.023438 L 21.171875 49.898438 Z M 33.003906 43.144531 L 43.378906 37.210938 L 43.378906 39.0625 L 33.003906 44.996094 Z M 32.746094 45.136719 L 24.863281 49.640625 L 21.628906 49.640625 L 32.746094 43.285156 Z M 32.746094 45.136719 "/>
<path style=" stroke:none;fill-rule:evenodd;fill:rgb(78.431373%,78.431373%,78.431373%);fill-opacity:1;" d="M 24.863281 49.640625 L 17.460938 53.875 L 17.460938 52.023438 L 21.628906 49.640625 Z M 32.746094 43.285156 L 43.378906 37.210938 L 43.378906 39.0625 L 32.746094 45.136719 Z M 32.488281 45.285156 L 25.316406 49.386719 L 22.074219 49.386719 L 32.488281 43.433594 Z M 32.488281 45.285156 "/>
<path style=" stroke:none;fill-rule:evenodd;fill:rgb(78.823529%,78.823529%,78.823529%);fill-opacity:1;" d="M 25.316406 49.386719 L 17.460938 53.875 L 17.460938 52.023438 L 22.074219 49.386719 Z M 32.488281 43.433594 L 43.378906 37.210938 L 43.378906 39.0625 L 32.488281 45.285156 Z M 32.226562 45.4375 L 25.761719 49.128906 L 22.519531 49.128906 L 32.226562 43.585938 Z M 32.226562 45.4375 "/>
<path style=" stroke:none;fill-rule:evenodd;fill:rgb(79.215686%,79.215686%,79.215686%);fill-opacity:1;" d="M 25.761719 49.128906 L 17.460938 53.875 L 17.460938 52.023438 L 22.519531 49.128906 Z M 32.226562 43.585938 L 43.378906 37.210938 L 43.378906 39.0625 L 32.226562 45.4375 Z M 31.960938 45.585938 L 26.222656 48.867188 L 22.980469 48.867188 L 31.960938 43.734375 Z M 31.960938 45.585938 "/>
<path style=" stroke:none;fill-rule:evenodd;fill:rgb(79.607843%,79.607843%,79.607843%);fill-opacity:1;" d="M 26.222656 48.867188 L 17.460938 53.875 L 17.460938 52.023438 L 22.980469 48.867188 Z M 31.960938 43.734375 L 43.378906 37.210938 L 43.378906 39.0625 L 31.960938 45.585938 Z M 31.703125 45.734375 L 26.667969 48.609375 L 23.425781 48.609375 L 31.703125 43.882812 Z M 31.703125 45.734375 "/>
<path style=" stroke:none;fill-rule:evenodd;fill:rgb(80%,80%,80%);fill-opacity:1;" d="M 26.667969 48.609375 L 17.460938 53.875 L 17.460938 52.023438 L 23.425781 48.609375 Z M 31.703125 43.882812 L 43.378906 37.210938 L 43.378906 39.0625 L 31.703125 45.734375 Z M 31.445312 45.886719 L 27.113281 48.355469 L 23.882812 48.355469 L 31.445312 44.035156 Z M 31.445312 45.886719 "/>
<path style=" stroke:none;fill-rule:evenodd;fill:rgb(80.392157%,80.392157%,80.392157%);fill-opacity:1;" d="M 27.113281 48.355469 L 17.460938 53.875 L 17.460938 52.023438 L 23.882812 48.355469 Z M 31.445312 44.035156 L 43.378906 37.210938 L 43.378906 39.0625 L 31.445312 45.886719 Z M 31.1875 46.027344 L 27.570312 48.097656 L 24.328125 48.097656 L 31.1875 44.175781 Z M 31.1875 46.027344 "/>
<path style=" stroke:none;fill-rule:evenodd;fill:rgb(80.784314%,80.784314%,80.784314%);fill-opacity:1;" d="M 27.570312 48.097656 L 17.460938 53.875 L 17.460938 52.023438 L 24.328125 48.097656 Z M 31.1875 44.175781 L 43.378906 37.210938 L 43.378906 39.0625 L 31.1875 46.027344 Z M 30.925781 46.175781 L 28.015625 47.84375 L 24.773438 47.84375 L 30.925781 44.324219 Z M 30.925781 46.175781 "/>
<path style=" stroke:none;fill-rule:evenodd;fill:rgb(81.176471%,81.176471%,81.176471%);fill-opacity:1;" d="M 28.015625 47.84375 L 17.460938 53.875 L 17.460938 52.023438 L 24.773438 47.84375 Z M 30.925781 44.324219 L 43.378906 37.210938 L 43.378906 39.0625 L 30.925781 46.175781 Z M 30.667969 46.328125 L 28.460938 47.585938 L 25.21875 47.585938 L 30.667969 44.476562 Z M 30.667969 46.328125 "/>
<path style=" stroke:none;fill-rule:evenodd;fill:rgb(81.568627%,81.568627%,81.568627%);fill-opacity:1;" d="M 28.460938 47.585938 L 17.460938 53.875 L 17.460938 52.023438 L 25.21875 47.585938 Z M 30.667969 44.476562 L 43.378906 37.210938 L 43.378906 39.0625 L 30.667969 46.328125 Z M 30.410156 46.476562 L 28.90625 47.332031 L 25.671875 47.332031 L 30.410156 44.625 Z M 30.410156 46.476562 "/>
<path style=" stroke:none;fill-rule:evenodd;fill:rgb(81.960784%,81.960784%,81.960784%);fill-opacity:1;" d="M 28.90625 47.332031 L 17.460938 53.875 L 17.460938 52.023438 L 25.671875 47.332031 Z M 30.410156 44.625 L 43.378906 37.210938 L 43.378906 39.0625 L 30.410156 46.476562 Z M 30.144531 46.625 L 29.367188 47.066406 L 26.125 47.066406 L 30.144531 44.773438 Z M 30.144531 46.625 "/>
<path style=" stroke:none;fill-rule:evenodd;fill:rgb(82.352941%,82.352941%,82.352941%);fill-opacity:1;" d="M 29.367188 47.066406 L 17.460938 53.875 L 17.460938 52.023438 L 26.125 47.066406 Z M 30.144531 44.773438 L 43.378906 37.210938 L 43.378906 39.0625 L 30.144531 46.625 Z M 29.886719 46.777344 L 29.8125 46.8125 L 26.582031 46.8125 L 29.886719 44.925781 Z M 29.886719 46.777344 "/>
<path style=" stroke:none;fill-rule:evenodd;fill:rgb(82.745098%,82.745098%,82.745098%);fill-opacity:1;" d="M 29.8125 46.8125 L 17.460938 53.875 L 17.460938 52.023438 L 26.582031 46.8125 Z M 29.886719 44.925781 L 43.378906 37.210938 L 43.378906 39.0625 L 29.886719 46.777344 Z M 29.628906 46.554688 L 27.027344 46.554688 L 29.628906 45.066406 Z M 29.628906 46.554688 "/>
<path style=" stroke:none;fill-rule:evenodd;fill:rgb(83.137255%,83.137255%,83.137255%);fill-opacity:1;" d="M 29.628906 46.554688 L 29.628906 45.066406 L 43.378906 37.210938 L 43.378906 39.0625 L 17.460938 53.875 L 17.460938 52.023438 L 27.027344 46.554688 Z M 29.367188 46.300781 L 27.472656 46.300781 L 29.367188 45.214844 Z M 29.367188 46.300781 "/>
<path style=" stroke:none;fill-rule:evenodd;fill:rgb(83.529412%,83.529412%,83.529412%);fill-opacity:1;" d="M 29.367188 46.300781 L 29.367188 45.214844 L 43.378906 37.210938 L 43.378906 39.0625 L 17.460938 53.875 L 17.460938 52.023438 L 27.472656 46.300781 Z M 29.109375 46.042969 L 27.917969 46.042969 L 29.109375 45.367188 Z M 29.109375 46.042969 "/>
<path style=" stroke:none;fill-rule:evenodd;fill:rgb(83.921569%,83.921569%,83.921569%);fill-opacity:1;" d="M 29.109375 46.042969 L 29.109375 45.367188 L 43.378906 37.210938 L 43.378906 39.0625 L 17.460938 53.875 L 17.460938 52.023438 L 27.917969 46.042969 Z M 28.851562 45.789062 L 28.371094 45.789062 L 28.851562 45.515625 Z M 28.851562 45.789062 "/>
<path style=" stroke:none;fill-rule:evenodd;fill:rgb(84.313725%,84.313725%,84.313725%);fill-opacity:1;" d="M 28.851562 45.789062 L 28.851562 45.515625 L 43.378906 37.210938 L 43.378906 39.0625 L 17.460938 53.875 L 17.460938 52.023438 L 28.371094 45.789062 Z M 28.851562 45.789062 "/>
<path style=" stroke:none;fill-rule:evenodd;fill:rgb(84.705882%,84.705882%,84.705882%);fill-opacity:1;" d="M 17.460938 53.875 L 17.460938 52.023438 L 43.378906 37.210938 L 43.378906 39.0625 Z M 17.460938 53.875 "/>
<path style=" stroke:none;fill-rule:evenodd;fill:rgb(85.098039%,85.098039%,85.098039%);fill-opacity:1;" d="M 17.460938 53.875 L 17.460938 52.023438 L 43.378906 37.210938 L 43.378906 39.0625 Z M 17.460938 53.875 "/>
<path style=" stroke:none;fill-rule:evenodd;fill:rgb(85.490196%,85.490196%,85.490196%);fill-opacity:1;" d="M 17.460938 53.875 L 17.460938 52.023438 L 43.378906 37.210938 L 43.378906 39.0625 Z M 17.460938 53.875 "/>
<path style=" stroke:none;fill-rule:evenodd;fill:rgb(85.882353%,85.882353%,85.882353%);fill-opacity:1;" d="M 17.460938 53.875 L 17.460938 52.023438 L 43.378906 37.210938 L 43.378906 39.0625 Z M 17.460938 53.875 "/>
<path style=" stroke:none;fill-rule:evenodd;fill:rgb(86.27451%,86.27451%,86.27451%);fill-opacity:1;" d="M 17.460938 53.875 L 17.460938 52.023438 L 43.378906 37.210938 L 43.378906 39.0625 Z M 17.460938 53.875 "/>
<path style=" stroke:none;fill-rule:evenodd;fill:rgb(86.666667%,86.666667%,86.666667%);fill-opacity:1;" d="M 17.460938 53.875 L 17.460938 52.023438 L 43.378906 37.210938 L 43.378906 39.0625 Z M 17.460938 53.875 "/>
<path style=" stroke:none;fill-rule:evenodd;fill:rgb(87.058824%,87.058824%,87.058824%);fill-opacity:1;" d="M 17.460938 53.875 L 17.460938 52.023438 L 43.378906 37.210938 L 43.378906 39.0625 Z M 17.460938 53.875 "/>
<path style=" stroke:none;fill-rule:evenodd;fill:rgb(87.45098%,87.45098%,87.45098%);fill-opacity:1;" d="M 17.460938 53.875 L 17.460938 52.023438 L 43.378906 37.210938 L 43.378906 39.0625 Z M 17.460938 53.875 "/>
<path style=" stroke:none;fill-rule:evenodd;fill:rgb(87.843137%,87.843137%,87.843137%);fill-opacity:1;" d="M 17.460938 53.875 L 17.460938 52.023438 L 43.378906 37.210938 L 43.378906 39.0625 Z M 17.460938 53.875 "/>
<path style=" stroke:none;fill-rule:evenodd;fill:rgb(88.235294%,88.235294%,88.235294%);fill-opacity:1;" d="M 17.460938 53.875 L 17.460938 52.023438 L 43.378906 37.210938 L 43.378906 39.0625 Z M 17.460938 53.875 "/>
<path style=" stroke:none;fill-rule:evenodd;fill:rgb(88.627451%,88.627451%,88.627451%);fill-opacity:1;" d="M 17.460938 53.875 L 17.460938 52.023438 L 43.378906 37.210938 L 43.378906 39.0625 Z M 17.460938 53.875 "/>
<path style=" stroke:none;fill-rule:evenodd;fill:rgb(89.019608%,89.019608%,89.019608%);fill-opacity:1;" d="M 17.460938 53.875 L 17.460938 52.023438 L 43.378906 37.210938 L 43.378906 39.0625 Z M 17.460938 53.875 "/>
<path style="fill-rule:evenodd;fill:rgb(89.803922%,89.803922%,89.803922%);fill-opacity:1;stroke-width:40;stroke-linecap:butt;stroke-linejoin:round;stroke:rgb(100%,100%,100%);stroke-opacity:1;stroke-miterlimit:4;" d="M 4128.195023 9249.045782 L 4128.195023 9039.05726 L 7037.790992 7359.149081 L 7037.790992 7569.137603 Z M 4128.195023 9249.045782 " transform="matrix(0.00890776,0,0,0.00881745,-19.312013,-27.677964)"/>
<path style="fill-rule:evenodd;fill:url(#linear2);stroke-width:40;stroke-linecap:butt;stroke-linejoin:round;stroke:rgb(40%,40%,40%);stroke-opacity:1;stroke-miterlimit:4;" d="M 4248.788677 8829.068737 L 2550.830035 7849.122299 L 4975.858777 6449.198817 L 6673.817419 7429.145255 Z M 4248.788677 8829.068737 " transform="matrix(0.00890776,0,0,0.00881745,-19.312013,-27.677964)"/>
<path style="fill-rule:evenodd;fill:url(#linear3);stroke-width:40;stroke-linecap:butt;stroke-linejoin:round;stroke:rgb(100%,100%,100%);stroke-opacity:1;stroke-miterlimit:4;" d="M 5098.20652 6309.206469 L 5098.20652 3158.935619 L 6915.881771 4208.878231 L 6915.881771 7359.149081 Z M 5098.20652 6309.206469 " transform="matrix(0.00890776,0,0,0.00881745,-19.312013,-27.677964)"/>
<path style="fill-rule:evenodd;fill:rgb(93.333333%,93.333333%,93.333333%);fill-opacity:1;stroke-width:40;stroke-linecap:butt;stroke-linejoin:round;stroke:rgb(60%,60%,60%);stroke-opacity:1;stroke-miterlimit:4;" d="M 5218.800174 6169.21412 L 5218.800174 3438.920316 L 6794.849595 4348.870579 L 6794.849595 7079.164384 Z M 5218.800174 6169.21412 " transform="matrix(0.00890776,0,0,0.00881745,-19.312013,-27.677964)"/>
<path style="fill-rule:evenodd;fill:rgb(100%,100%,100%);fill-opacity:1;stroke-width:40;stroke-linecap:butt;stroke-linejoin:round;stroke:rgb(40%,40%,40%);stroke-opacity:1;stroke-miterlimit:4;" d="M 4733.794425 8549.084041 C 4289.132735 8292.13606 3643.189275 7919.118474 3520.841532 7499.141429 C 3763.782928 7569.137603 3993.130131 7437.119502 4128.195023 7359.149081 C 4639.950637 7064.101916 4832.023438 6959.993682 5339.83235 6659.187339 C 5784.932562 6916.13532 6229.155729 7172.197274 6673.817419 7429.145255 C 6026.996914 7802.162841 5381.053453 8176.066454 4733.794425 8549.084041 Z M 4733.794425 8549.084041 " transform="matrix(0.00890776,0,0,0.00881745,-19.312013,-27.677964)"/>
<path style="fill:none;stroke-width:40;stroke-linecap:butt;stroke-linejoin:round;stroke:rgb(0%,0%,0%);stroke-opacity:1;stroke-miterlimit:4;" d="M 6915.881771 7289.152906 L 7037.790992 7359.149081 L 7037.790992 7569.137603 L 4128.195023 9249.045782 L 2188.172029 8129.106996 L 2188.172029 7919.118474 L 5098.20652 6239.210294 L 5098.20652 3158.935619 L 6915.881771 4208.878231 Z M 6915.881771 7289.152906 " transform="matrix(0.00890776,0,0,0.00881745,-19.312013,-27.677964)"/>
</g>
</svg>
