<?xml version="1.0" encoding="UTF-8"?>
<svg xmlns="http://www.w3.org/2000/svg" xmlns:xlink="http://www.w3.org/1999/xlink" width="42pt" height="44pt" viewBox="0 0 42 44" version="1.1">
<defs>
<linearGradient id="linear0" gradientUnits="userSpaceOnUse" x1="4427" y1="8274" x2="6127" y2="8276" >
<stop offset="0.1" style="stop-color:rgb(87.058824%,55.686275%,58.823529%);stop-opacity:1;"/>
<stop offset="1" style="stop-color:rgb(97.254902%,90.980392%,91.764706%);stop-opacity:1;"/>
</linearGradient>
<linearGradient id="linear1" gradientUnits="userSpaceOnUse" x1="5418" y1="6969" x2="5418" y2="8112" >
<stop offset="0.1" style="stop-color:rgb(87.058824%,55.686275%,58.823529%);stop-opacity:1;"/>
<stop offset="1" style="stop-color:rgb(97.254902%,90.980392%,91.764706%);stop-opacity:1;"/>
</linearGradient>
</defs>
<g id="surface1">
<path style="fill-rule:evenodd;fill:rgb(86.666667%,86.666667%,86.666667%);fill-opacity:1;stroke-width:28.222;stroke-linecap:butt;stroke-linejoin:round;stroke:rgb(86.666667%,86.666667%,86.666667%);stroke-opacity:1;stroke-miterlimit:4;" d="M 6124.003968 9419.105903 C 6278.903336 9419.105903 6745.997913 9287.916667 6745.997913 9158.050347 C 6745.997913 9027.081597 6520.075769 8928.965278 6407.005766 8928.965278 C 6407.005766 9027.081597 6124.003968 9287.916667 6124.003968 9419.105903 Z M 6124.003968 9419.105903 " transform="matrix(0.01793,0,0,0.0177165,-79.053316,-123.112205)"/>
<path style="fill-rule:evenodd;fill:url(#linear0);stroke-width:40;stroke-linecap:butt;stroke-linejoin:round;stroke:rgb(100%,100%,100%);stroke-opacity:1;stroke-miterlimit:4;" d="M 4429.043237 8439.045139 L 4429.043237 7132.003472 L 6125.093275 8112.064236 L 6125.093275 9419.105903 Z M 4429.043237 8439.045139 " transform="matrix(0.01793,0,0,0.0177165,-79.053316,-123.112205)"/>
<path style="fill:none;stroke-width:40;stroke-linecap:butt;stroke-linejoin:round;stroke:rgb(100%,100%,100%);stroke-opacity:1;stroke-miterlimit:4;" d="M 4429.043237 8112.064236 L 6125.093275 9091.904514 " transform="matrix(0.01793,0,0,0.0177165,-79.053316,-123.112205)"/>
<path style="fill:none;stroke-width:40;stroke-linecap:butt;stroke-linejoin:round;stroke:rgb(100%,100%,100%);stroke-opacity:1;stroke-miterlimit:4;" d="M 4429.043237 7785.965278 L 6125.093275 8766.026042 " transform="matrix(0.01793,0,0,0.0177165,-79.053316,-123.112205)"/>
<path style="fill:none;stroke-width:40;stroke-linecap:butt;stroke-linejoin:round;stroke:rgb(100%,100%,100%);stroke-opacity:1;stroke-miterlimit:4;" d="M 4429.043237 7458.984375 L 6125.093275 8439.045139 " transform="matrix(0.01793,0,0,0.0177165,-79.053316,-123.112205)"/>
<path style="fill:none;stroke-width:40;stroke-linecap:butt;stroke-linejoin:round;stroke:rgb(100%,100%,100%);stroke-opacity:1;stroke-miterlimit:4;" d="M 4993.957527 8112.064236 L 4993.957527 8439.045139 " transform="matrix(0.01793,0,0,0.0177165,-79.053316,-123.112205)"/>
<path style="fill:none;stroke-width:40;stroke-linecap:butt;stroke-linejoin:round;stroke:rgb(100%,100%,100%);stroke-opacity:1;stroke-miterlimit:4;" d="M 5559.089678 7785.965278 L 5559.089678 8112.946181 " transform="matrix(0.01793,0,0,0.0177165,-79.053316,-123.112205)"/>
<path style="fill:none;stroke-width:40;stroke-linecap:butt;stroke-linejoin:round;stroke:rgb(100%,100%,100%);stroke-opacity:1;stroke-miterlimit:4;" d="M 5842.091477 8928.965278 L 5842.091477 9255.946181 " transform="matrix(0.01793,0,0,0.0177165,-79.053316,-123.112205)"/>
<path style="fill:none;stroke-width:40;stroke-linecap:butt;stroke-linejoin:round;stroke:rgb(100%,100%,100%);stroke-opacity:1;stroke-miterlimit:4;" d="M 5276.959325 8601.984375 L 5276.959325 8928.965278 " transform="matrix(0.01793,0,0,0.0177165,-79.053316,-123.112205)"/>
<path style="fill:none;stroke-width:40;stroke-linecap:butt;stroke-linejoin:round;stroke:rgb(100%,100%,100%);stroke-opacity:1;stroke-miterlimit:4;" d="M 4712.045036 8276.105903 L 4712.045036 8603.086806 " transform="matrix(0.01793,0,0,0.0177165,-79.053316,-123.112205)"/>
<path style="fill:none;stroke-width:40;stroke-linecap:butt;stroke-linejoin:round;stroke:rgb(100%,100%,100%);stroke-opacity:1;stroke-miterlimit:4;" d="M 4993.957527 7458.984375 L 4993.957527 7785.965278 " transform="matrix(0.01793,0,0,0.0177165,-79.053316,-123.112205)"/>
<path style="fill:none;stroke-width:40;stroke-linecap:butt;stroke-linejoin:round;stroke:rgb(100%,100%,100%);stroke-opacity:1;stroke-miterlimit:4;" d="M 5276.959325 7948.904514 L 5276.959325 8276.105903 " transform="matrix(0.01793,0,0,0.0177165,-79.053316,-123.112205)"/>
<path style="fill:none;stroke-width:40;stroke-linecap:butt;stroke-linejoin:round;stroke:rgb(100%,100%,100%);stroke-opacity:1;stroke-miterlimit:4;" d="M 5559.089678 8439.045139 L 5559.089678 8766.026042 " transform="matrix(0.01793,0,0,0.0177165,-79.053316,-123.112205)"/>
<path style="fill:none;stroke-width:40;stroke-linecap:butt;stroke-linejoin:round;stroke:rgb(100%,100%,100%);stroke-opacity:1;stroke-miterlimit:4;" d="M 5842.091477 8276.105903 L 5842.091477 8603.086806 " transform="matrix(0.01793,0,0,0.0177165,-79.053316,-123.112205)"/>
<path style="fill:none;stroke-width:40;stroke-linecap:butt;stroke-linejoin:round;stroke:rgb(100%,100%,100%);stroke-opacity:1;stroke-miterlimit:4;" d="M 4712.045036 7621.923611 L 4712.045036 7948.904514 " transform="matrix(0.01793,0,0,0.0177165,-79.053316,-123.112205)"/>
<path style=" stroke:none;fill-rule:evenodd;fill:rgb(87.058824%,55.686275%,58.823529%);fill-opacity:1;" d="M 30.75 38.355469 L 30.75 20.605469 L 35.824219 17.714844 L 35.824219 38.355469 Z M 30.75 38.355469 "/>
<path style=" stroke:none;fill-rule:evenodd;fill:rgb(87.058824%,56.078431%,59.215686%);fill-opacity:1;" d="M 35.824219 38.355469 L 35.824219 40.871094 L 30.75 43.761719 L 30.75 38.355469 Z M 30.75 38.179688 L 30.75 20.605469 L 35.824219 17.714844 L 35.824219 38.179688 Z M 30.75 38.179688 "/>
<path style=" stroke:none;fill-rule:evenodd;fill:rgb(87.058824%,56.470588%,59.607843%);fill-opacity:1;" d="M 35.824219 38.179688 L 35.824219 40.871094 L 30.75 43.761719 L 30.75 38.179688 Z M 30.75 38.003906 L 30.75 20.605469 L 35.824219 17.714844 L 35.824219 38.003906 Z M 30.75 38.003906 "/>
<path style=" stroke:none;fill-rule:evenodd;fill:rgb(87.45098%,56.862745%,60%);fill-opacity:1;" d="M 35.824219 38.003906 L 35.824219 40.871094 L 30.75 43.761719 L 30.75 38.003906 Z M 30.75 37.824219 L 30.75 20.605469 L 35.824219 17.714844 L 35.824219 37.824219 Z M 30.75 37.824219 "/>
<path style=" stroke:none;fill-rule:evenodd;fill:rgb(87.45098%,57.254902%,60.392157%);fill-opacity:1;" d="M 35.824219 37.824219 L 35.824219 40.871094 L 30.75 43.761719 L 30.75 37.824219 Z M 30.75 37.648438 L 30.75 20.605469 L 35.824219 17.714844 L 35.824219 37.648438 Z M 30.75 37.648438 "/>
<path style=" stroke:none;fill-rule:evenodd;fill:rgb(87.45098%,58.039216%,60.784314%);fill-opacity:1;" d="M 35.824219 37.648438 L 35.824219 40.871094 L 30.75 43.761719 L 30.75 37.648438 Z M 30.75 37.46875 L 30.75 20.605469 L 35.824219 17.714844 L 35.824219 37.46875 Z M 30.75 37.46875 "/>
<path style=" stroke:none;fill-rule:evenodd;fill:rgb(87.843137%,58.431373%,61.176471%);fill-opacity:1;" d="M 35.824219 37.46875 L 35.824219 40.871094 L 30.75 43.761719 L 30.75 37.46875 Z M 30.75 37.292969 L 30.75 20.605469 L 35.824219 17.714844 L 35.824219 37.292969 Z M 30.75 37.292969 "/>
<path style=" stroke:none;fill-rule:evenodd;fill:rgb(87.843137%,58.823529%,61.960784%);fill-opacity:1;" d="M 35.824219 37.292969 L 35.824219 40.871094 L 30.75 43.761719 L 30.75 37.292969 Z M 30.75 37.117188 L 30.75 20.605469 L 35.824219 17.714844 L 35.824219 37.117188 Z M 30.75 37.117188 "/>
<path style=" stroke:none;fill-rule:evenodd;fill:rgb(87.843137%,59.215686%,62.352941%);fill-opacity:1;" d="M 35.824219 37.117188 L 35.824219 40.871094 L 30.75 43.761719 L 30.75 37.117188 Z M 30.75 36.9375 L 30.75 20.605469 L 35.824219 17.714844 L 35.824219 36.9375 Z M 30.75 36.9375 "/>
<path style=" stroke:none;fill-rule:evenodd;fill:rgb(88.235294%,60%,62.745098%);fill-opacity:1;" d="M 35.824219 36.9375 L 35.824219 40.871094 L 30.75 43.761719 L 30.75 36.9375 Z M 30.75 36.761719 L 30.75 20.605469 L 35.824219 17.714844 L 35.824219 36.761719 Z M 30.75 36.761719 "/>
<path style=" stroke:none;fill-rule:evenodd;fill:rgb(88.235294%,60.392157%,63.137255%);fill-opacity:1;" d="M 35.824219 36.761719 L 35.824219 40.871094 L 30.75 43.761719 L 30.75 36.761719 Z M 30.75 36.585938 L 30.75 20.605469 L 35.824219 17.714844 L 35.824219 36.585938 Z M 30.75 36.585938 "/>
<path style=" stroke:none;fill-rule:evenodd;fill:rgb(88.235294%,60.784314%,63.529412%);fill-opacity:1;" d="M 35.824219 36.585938 L 35.824219 40.871094 L 30.75 43.761719 L 30.75 36.585938 Z M 30.75 36.390625 L 30.75 20.605469 L 35.824219 17.714844 L 35.824219 36.390625 Z M 30.75 36.390625 "/>
<path style=" stroke:none;fill-rule:evenodd;fill:rgb(88.627451%,61.176471%,63.921569%);fill-opacity:1;" d="M 35.824219 36.390625 L 35.824219 40.871094 L 30.75 43.761719 L 30.75 36.390625 Z M 30.75 36.210938 L 30.75 20.605469 L 35.824219 17.714844 L 35.824219 36.210938 Z M 30.75 36.210938 "/>
<path style=" stroke:none;fill-rule:evenodd;fill:rgb(88.627451%,61.960784%,64.313725%);fill-opacity:1;" d="M 35.824219 36.210938 L 35.824219 40.871094 L 30.75 43.761719 L 30.75 36.210938 Z M 30.75 36.035156 L 30.75 20.605469 L 35.824219 17.714844 L 35.824219 36.035156 Z M 30.75 36.035156 "/>
<path style=" stroke:none;fill-rule:evenodd;fill:rgb(88.627451%,62.352941%,65.098039%);fill-opacity:1;" d="M 35.824219 36.035156 L 35.824219 40.871094 L 30.75 43.761719 L 30.75 36.035156 Z M 30.75 35.859375 L 30.75 20.605469 L 35.824219 17.714844 L 35.824219 35.859375 Z M 30.75 35.859375 "/>
<path style=" stroke:none;fill-rule:evenodd;fill:rgb(89.019608%,62.745098%,65.490196%);fill-opacity:1;" d="M 35.824219 35.859375 L 35.824219 40.871094 L 30.75 43.761719 L 30.75 35.859375 Z M 30.75 35.679688 L 30.75 20.605469 L 35.824219 17.714844 L 35.824219 35.679688 Z M 30.75 35.679688 "/>
<path style=" stroke:none;fill-rule:evenodd;fill:rgb(89.019608%,63.137255%,65.882353%);fill-opacity:1;" d="M 35.824219 35.679688 L 35.824219 40.871094 L 30.75 43.761719 L 30.75 35.679688 Z M 30.75 35.503906 L 30.75 20.605469 L 35.824219 17.714844 L 35.824219 35.503906 Z M 30.75 35.503906 "/>
<path style=" stroke:none;fill-rule:evenodd;fill:rgb(89.411765%,63.529412%,66.27451%);fill-opacity:1;" d="M 35.824219 35.503906 L 35.824219 40.871094 L 30.75 43.761719 L 30.75 35.503906 Z M 30.75 35.328125 L 30.75 20.605469 L 35.824219 17.714844 L 35.824219 35.328125 Z M 30.75 35.328125 "/>
<path style=" stroke:none;fill-rule:evenodd;fill:rgb(89.411765%,64.313725%,66.666667%);fill-opacity:1;" d="M 35.824219 35.328125 L 35.824219 40.871094 L 30.75 43.761719 L 30.75 35.328125 Z M 30.75 35.148438 L 30.75 20.605469 L 35.824219 17.714844 L 35.824219 35.148438 Z M 30.75 35.148438 "/>
<path style=" stroke:none;fill-rule:evenodd;fill:rgb(89.411765%,64.705882%,67.058824%);fill-opacity:1;" d="M 35.824219 35.148438 L 35.824219 40.871094 L 30.75 43.761719 L 30.75 35.148438 Z M 30.75 34.972656 L 30.75 20.605469 L 35.824219 17.714844 L 35.824219 34.972656 Z M 30.75 34.972656 "/>
<path style=" stroke:none;fill-rule:evenodd;fill:rgb(89.803922%,65.098039%,67.843137%);fill-opacity:1;" d="M 35.824219 34.972656 L 35.824219 40.871094 L 30.75 43.761719 L 30.75 34.972656 Z M 30.75 34.796875 L 30.75 20.605469 L 35.824219 17.714844 L 35.824219 34.796875 Z M 30.75 34.796875 "/>
<path style=" stroke:none;fill-rule:evenodd;fill:rgb(89.803922%,65.490196%,68.235294%);fill-opacity:1;" d="M 35.824219 34.796875 L 35.824219 40.871094 L 30.75 43.761719 L 30.75 34.796875 Z M 30.75 34.617188 L 30.75 20.605469 L 35.824219 17.714844 L 35.824219 34.617188 Z M 30.75 34.617188 "/>
<path style=" stroke:none;fill-rule:evenodd;fill:rgb(89.803922%,66.27451%,68.627451%);fill-opacity:1;" d="M 35.824219 34.617188 L 35.824219 40.871094 L 30.75 43.761719 L 30.75 34.617188 Z M 30.75 34.421875 L 30.75 20.605469 L 35.824219 17.714844 L 35.824219 34.421875 Z M 30.75 34.421875 "/>
<path style=" stroke:none;fill-rule:evenodd;fill:rgb(90.196078%,66.666667%,69.019608%);fill-opacity:1;" d="M 35.824219 34.421875 L 35.824219 40.871094 L 30.75 43.761719 L 30.75 34.421875 Z M 30.75 34.246094 L 30.75 20.605469 L 35.824219 17.714844 L 35.824219 34.246094 Z M 30.75 34.246094 "/>
<path style=" stroke:none;fill-rule:evenodd;fill:rgb(90.196078%,67.058824%,69.411765%);fill-opacity:1;" d="M 35.824219 34.246094 L 35.824219 40.871094 L 30.75 43.761719 L 30.75 34.246094 Z M 30.75 34.070312 L 30.75 20.605469 L 35.824219 17.714844 L 35.824219 34.070312 Z M 30.75 34.070312 "/>
<path style=" stroke:none;fill-rule:evenodd;fill:rgb(90.196078%,67.45098%,69.803922%);fill-opacity:1;" d="M 35.824219 34.070312 L 35.824219 40.871094 L 30.75 43.761719 L 30.75 34.070312 Z M 30.75 33.890625 L 30.75 20.605469 L 35.824219 17.714844 L 35.824219 33.890625 Z M 30.75 33.890625 "/>
<path style=" stroke:none;fill-rule:evenodd;fill:rgb(90.588235%,68.235294%,70.196078%);fill-opacity:1;" d="M 35.824219 33.890625 L 35.824219 40.871094 L 30.75 43.761719 L 30.75 33.890625 Z M 30.75 33.714844 L 30.75 20.605469 L 35.824219 17.714844 L 35.824219 33.714844 Z M 30.75 33.714844 "/>
<path style=" stroke:none;fill-rule:evenodd;fill:rgb(90.588235%,68.627451%,70.980392%);fill-opacity:1;" d="M 35.824219 33.714844 L 35.824219 40.871094 L 30.75 43.761719 L 30.75 33.714844 Z M 30.75 33.539062 L 30.75 20.605469 L 35.824219 17.714844 L 35.824219 33.539062 Z M 30.75 33.539062 "/>
<path style=" stroke:none;fill-rule:evenodd;fill:rgb(90.588235%,69.019608%,71.372549%);fill-opacity:1;" d="M 35.824219 33.539062 L 35.824219 40.871094 L 30.75 43.761719 L 30.75 33.539062 Z M 30.75 33.359375 L 30.75 20.605469 L 35.824219 17.714844 L 35.824219 33.359375 Z M 30.75 33.359375 "/>
<path style=" stroke:none;fill-rule:evenodd;fill:rgb(90.980392%,69.411765%,71.764706%);fill-opacity:1;" d="M 35.824219 33.359375 L 35.824219 40.871094 L 30.75 43.761719 L 30.75 33.359375 Z M 35.824219 17.824219 L 35.824219 33.183594 L 30.75 33.183594 L 30.75 20.605469 L 35.644531 17.824219 Z M 35.824219 17.824219 "/>
<path style=" stroke:none;fill-rule:evenodd;fill:rgb(90.980392%,69.803922%,72.156863%);fill-opacity:1;" d="M 35.824219 33.183594 L 35.824219 40.871094 L 30.75 43.761719 L 30.75 33.183594 Z M 35.644531 17.824219 L 35.824219 17.714844 L 35.824219 17.824219 Z M 35.824219 18 L 35.824219 33.007812 L 30.75 33.007812 L 30.75 20.605469 L 35.320312 18 Z M 35.824219 18 "/>
<path style=" stroke:none;fill-rule:evenodd;fill:rgb(91.372549%,70.588235%,72.54902%);fill-opacity:1;" d="M 35.824219 33.007812 L 35.824219 40.871094 L 30.75 43.761719 L 30.75 33.007812 Z M 35.320312 18 L 35.824219 17.714844 L 35.824219 18 Z M 35.824219 18.175781 L 35.824219 32.828125 L 30.75 32.828125 L 30.75 20.605469 L 35.015625 18.175781 Z M 35.824219 18.175781 "/>
<path style=" stroke:none;fill-rule:evenodd;fill:rgb(91.372549%,70.980392%,72.941176%);fill-opacity:1;" d="M 35.824219 32.828125 L 35.824219 40.871094 L 30.75 43.761719 L 30.75 32.828125 Z M 35.015625 18.175781 L 35.824219 17.714844 L 35.824219 18.175781 Z M 35.824219 18.355469 L 35.824219 32.652344 L 30.75 32.652344 L 30.75 20.605469 L 34.695312 18.355469 Z M 35.824219 18.355469 "/>
<path style=" stroke:none;fill-rule:evenodd;fill:rgb(91.372549%,71.372549%,73.333333%);fill-opacity:1;" d="M 35.824219 32.652344 L 35.824219 40.871094 L 30.75 43.761719 L 30.75 32.652344 Z M 34.695312 18.355469 L 35.824219 17.714844 L 35.824219 18.355469 Z M 35.824219 18.550781 L 35.824219 32.457031 L 30.75 32.457031 L 30.75 20.605469 L 34.355469 18.550781 Z M 35.824219 18.550781 "/>
<path style=" stroke:none;fill-rule:evenodd;fill:rgb(91.764706%,71.764706%,74.117647%);fill-opacity:1;" d="M 35.824219 32.457031 L 35.824219 40.871094 L 30.75 43.761719 L 30.75 32.457031 Z M 34.355469 18.550781 L 35.824219 17.714844 L 35.824219 18.550781 Z M 35.824219 18.726562 L 35.824219 32.28125 L 30.75 32.28125 L 30.75 20.605469 L 34.050781 18.726562 Z M 35.824219 18.726562 "/>
<path style=" stroke:none;fill-rule:evenodd;fill:rgb(91.764706%,72.54902%,74.509804%);fill-opacity:1;" d="M 35.824219 32.28125 L 35.824219 40.871094 L 30.75 43.761719 L 30.75 32.28125 Z M 34.050781 18.726562 L 35.824219 17.714844 L 35.824219 18.726562 Z M 35.824219 18.902344 L 35.824219 32.101562 L 30.75 32.101562 L 30.75 20.605469 L 33.746094 18.902344 Z M 35.824219 18.902344 "/>
<path style=" stroke:none;fill-rule:evenodd;fill:rgb(91.764706%,72.941176%,74.901961%);fill-opacity:1;" d="M 35.824219 32.101562 L 35.824219 40.871094 L 30.75 43.761719 L 30.75 32.101562 Z M 33.746094 18.902344 L 35.824219 17.714844 L 35.824219 18.902344 Z M 35.824219 19.082031 L 35.824219 31.925781 L 30.75 31.925781 L 30.75 20.605469 L 33.421875 19.082031 Z M 35.824219 19.082031 "/>
<path style=" stroke:none;fill-rule:evenodd;fill:rgb(92.156863%,73.333333%,75.294118%);fill-opacity:1;" d="M 35.824219 31.925781 L 35.824219 40.871094 L 30.75 43.761719 L 30.75 31.925781 Z M 33.421875 19.082031 L 35.824219 17.714844 L 35.824219 19.082031 Z M 35.824219 19.257812 L 35.824219 31.746094 L 30.75 31.746094 L 30.75 20.605469 L 33.117188 19.257812 Z M 35.824219 19.257812 "/>
<path style=" stroke:none;fill-rule:evenodd;fill:rgb(92.156863%,73.72549%,75.686275%);fill-opacity:1;" d="M 35.824219 31.746094 L 35.824219 40.871094 L 30.75 43.761719 L 30.75 31.746094 Z M 33.117188 19.257812 L 35.824219 17.714844 L 35.824219 19.257812 Z M 35.824219 19.433594 L 35.824219 31.570312 L 30.75 31.570312 L 30.75 20.605469 L 32.8125 19.433594 Z M 35.824219 19.433594 "/>
<path style=" stroke:none;fill-rule:evenodd;fill:rgb(92.156863%,74.509804%,76.078431%);fill-opacity:1;" d="M 35.824219 31.570312 L 35.824219 40.871094 L 30.75 43.761719 L 30.75 31.570312 Z M 32.8125 19.433594 L 35.824219 17.714844 L 35.824219 19.433594 Z M 35.824219 19.613281 L 35.824219 31.394531 L 30.75 31.394531 L 30.75 20.605469 L 32.488281 19.613281 Z M 35.824219 19.613281 "/>
<path style=" stroke:none;fill-rule:evenodd;fill:rgb(92.54902%,74.901961%,76.862745%);fill-opacity:1;" d="M 35.824219 31.394531 L 35.824219 40.871094 L 30.75 43.761719 L 30.75 31.394531 Z M 32.488281 19.613281 L 35.824219 17.714844 L 35.824219 19.613281 Z M 35.824219 19.789062 L 35.824219 31.214844 L 30.75 31.214844 L 30.75 20.605469 L 32.183594 19.789062 Z M 35.824219 19.789062 "/>
<path style=" stroke:none;fill-rule:evenodd;fill:rgb(92.54902%,75.294118%,77.254902%);fill-opacity:1;" d="M 35.824219 31.214844 L 35.824219 40.871094 L 30.75 43.761719 L 30.75 31.214844 Z M 32.183594 19.789062 L 35.824219 17.714844 L 35.824219 19.789062 Z M 35.824219 19.964844 L 35.824219 31.039062 L 30.75 31.039062 L 30.75 20.605469 L 31.878906 19.964844 Z M 35.824219 19.964844 "/>
<path style=" stroke:none;fill-rule:evenodd;fill:rgb(92.54902%,75.686275%,77.647059%);fill-opacity:1;" d="M 35.824219 31.039062 L 35.824219 40.871094 L 30.75 43.761719 L 30.75 31.039062 Z M 31.878906 19.964844 L 35.824219 17.714844 L 35.824219 19.964844 Z M 35.824219 20.144531 L 35.824219 30.863281 L 30.75 30.863281 L 30.75 20.605469 L 31.558594 20.144531 Z M 35.824219 20.144531 "/>
<path style=" stroke:none;fill-rule:evenodd;fill:rgb(92.941176%,76.470588%,78.039216%);fill-opacity:1;" d="M 35.824219 30.863281 L 35.824219 40.871094 L 30.75 43.761719 L 30.75 30.863281 Z M 31.558594 20.144531 L 35.824219 17.714844 L 35.824219 20.144531 Z M 35.824219 20.320312 L 35.824219 30.683594 L 30.75 30.683594 L 30.75 20.605469 L 31.253906 20.320312 Z M 35.824219 20.320312 "/>
<path style=" stroke:none;fill-rule:evenodd;fill:rgb(92.941176%,76.862745%,78.431373%);fill-opacity:1;" d="M 35.824219 30.683594 L 35.824219 40.871094 L 30.75 43.761719 L 30.75 30.683594 Z M 31.253906 20.320312 L 35.824219 17.714844 L 35.824219 20.320312 Z M 35.824219 20.515625 L 35.824219 30.488281 L 30.75 30.488281 L 30.75 20.605469 L 30.910156 20.515625 Z M 35.824219 20.515625 "/>
<path style=" stroke:none;fill-rule:evenodd;fill:rgb(93.333333%,77.254902%,78.823529%);fill-opacity:1;" d="M 35.824219 30.488281 L 35.824219 40.871094 L 30.75 43.761719 L 30.75 30.488281 Z M 30.910156 20.515625 L 35.824219 17.714844 L 35.824219 20.515625 Z M 35.824219 20.691406 L 35.824219 30.3125 L 30.75 30.3125 L 30.75 20.691406 Z M 35.824219 20.691406 "/>
<path style=" stroke:none;fill-rule:evenodd;fill:rgb(93.333333%,77.647059%,79.215686%);fill-opacity:1;" d="M 35.824219 30.3125 L 35.824219 40.871094 L 30.75 43.761719 L 30.75 30.3125 Z M 30.75 20.691406 L 30.75 20.605469 L 35.824219 17.714844 L 35.824219 20.691406 Z M 35.824219 20.871094 L 35.824219 30.136719 L 30.75 30.136719 L 30.75 20.871094 Z M 35.824219 20.871094 "/>
<path style=" stroke:none;fill-rule:evenodd;fill:rgb(93.333333%,78.039216%,80%);fill-opacity:1;" d="M 35.824219 30.136719 L 35.824219 40.871094 L 30.75 43.761719 L 30.75 30.136719 Z M 30.75 20.871094 L 30.75 20.605469 L 35.824219 17.714844 L 35.824219 20.871094 Z M 35.824219 21.046875 L 35.824219 29.957031 L 30.75 29.957031 L 30.75 21.046875 Z M 35.824219 21.046875 "/>
<path style=" stroke:none;fill-rule:evenodd;fill:rgb(93.72549%,78.823529%,80.392157%);fill-opacity:1;" d="M 35.824219 29.957031 L 35.824219 40.871094 L 30.75 43.761719 L 30.75 29.957031 Z M 30.75 21.046875 L 30.75 20.605469 L 35.824219 17.714844 L 35.824219 21.046875 Z M 35.824219 21.222656 L 35.824219 29.78125 L 30.75 29.78125 L 30.75 21.222656 Z M 35.824219 21.222656 "/>
<path style=" stroke:none;fill-rule:evenodd;fill:rgb(93.72549%,79.215686%,80.784314%);fill-opacity:1;" d="M 35.824219 29.78125 L 35.824219 40.871094 L 30.75 43.761719 L 30.75 29.78125 Z M 30.75 21.222656 L 30.75 20.605469 L 35.824219 17.714844 L 35.824219 21.222656 Z M 35.824219 21.402344 L 35.824219 29.605469 L 30.75 29.605469 L 30.75 21.402344 Z M 35.824219 21.402344 "/>
<path style=" stroke:none;fill-rule:evenodd;fill:rgb(93.72549%,79.607843%,81.176471%);fill-opacity:1;" d="M 35.824219 29.605469 L 35.824219 40.871094 L 30.75 43.761719 L 30.75 29.605469 Z M 30.75 21.402344 L 30.75 20.605469 L 35.824219 17.714844 L 35.824219 21.402344 Z M 35.824219 21.578125 L 35.824219 29.425781 L 30.75 29.425781 L 30.75 21.578125 Z M 35.824219 21.578125 "/>
<path style=" stroke:none;fill-rule:evenodd;fill:rgb(94.117647%,80%,81.568627%);fill-opacity:1;" d="M 35.824219 29.425781 L 35.824219 40.871094 L 30.75 43.761719 L 30.75 29.425781 Z M 30.75 21.578125 L 30.75 20.605469 L 35.824219 17.714844 L 35.824219 21.578125 Z M 35.824219 21.757812 L 35.824219 29.25 L 30.75 29.25 L 30.75 21.757812 Z M 35.824219 21.757812 "/>
<path style=" stroke:none;fill-rule:evenodd;fill:rgb(94.117647%,80.784314%,81.960784%);fill-opacity:1;" d="M 35.824219 29.25 L 35.824219 40.871094 L 30.75 43.761719 L 30.75 29.25 Z M 30.75 21.757812 L 30.75 20.605469 L 35.824219 17.714844 L 35.824219 21.757812 Z M 35.824219 21.933594 L 35.824219 29.074219 L 30.75 29.074219 L 30.75 21.933594 Z M 35.824219 21.933594 "/>
<path style=" stroke:none;fill-rule:evenodd;fill:rgb(94.117647%,81.176471%,82.352941%);fill-opacity:1;" d="M 35.824219 29.074219 L 35.824219 40.871094 L 30.75 43.761719 L 30.75 29.074219 Z M 30.75 21.933594 L 30.75 20.605469 L 35.824219 17.714844 L 35.824219 21.933594 Z M 35.679688 22.109375 L 35.679688 28.894531 L 30.75 28.894531 L 30.75 22.109375 Z M 35.679688 22.109375 "/>
<path style=" stroke:none;fill-rule:evenodd;fill:rgb(94.509804%,81.568627%,83.137255%);fill-opacity:1;" d="M 35.679688 28.894531 L 35.679688 22.109375 L 30.75 22.109375 L 30.75 20.605469 L 35.824219 17.714844 L 35.824219 40.871094 L 30.75 43.761719 L 30.75 28.894531 Z M 35.5 22.289062 L 35.5 28.71875 L 30.75 28.71875 L 30.75 22.289062 Z M 35.5 22.289062 "/>
<path style=" stroke:none;fill-rule:evenodd;fill:rgb(94.509804%,81.960784%,83.529412%);fill-opacity:1;" d="M 35.5 28.71875 L 35.5 22.289062 L 30.75 22.289062 L 30.75 20.605469 L 35.824219 17.714844 L 35.824219 40.871094 L 30.75 43.761719 L 30.75 28.71875 Z M 35.320312 22.464844 L 35.320312 28.542969 L 30.75 28.542969 L 30.75 22.464844 Z M 35.320312 22.464844 "/>
<path style=" stroke:none;fill-rule:evenodd;fill:rgb(94.509804%,82.745098%,83.921569%);fill-opacity:1;" d="M 35.320312 28.542969 L 35.320312 22.464844 L 30.75 22.464844 L 30.75 20.605469 L 35.824219 17.714844 L 35.824219 40.871094 L 30.75 43.761719 L 30.75 28.542969 Z M 35.125 22.660156 L 35.125 28.347656 L 30.75 28.347656 L 30.75 22.660156 Z M 35.125 22.660156 "/>
<path style=" stroke:none;fill-rule:evenodd;fill:rgb(94.901961%,83.137255%,84.313725%);fill-opacity:1;" d="M 35.125 28.347656 L 35.125 22.660156 L 30.75 22.660156 L 30.75 20.605469 L 35.824219 17.714844 L 35.824219 40.871094 L 30.75 43.761719 L 30.75 28.347656 Z M 34.945312 22.835938 L 34.945312 28.167969 L 30.75 28.167969 L 30.75 22.835938 Z M 34.945312 22.835938 "/>
<path style=" stroke:none;fill-rule:evenodd;fill:rgb(94.901961%,83.529412%,84.705882%);fill-opacity:1;" d="M 34.945312 28.167969 L 34.945312 22.835938 L 30.75 22.835938 L 30.75 20.605469 L 35.824219 17.714844 L 35.824219 40.871094 L 30.75 43.761719 L 30.75 28.167969 Z M 34.765625 23.015625 L 34.765625 27.992188 L 30.75 27.992188 L 30.75 23.015625 Z M 34.765625 23.015625 "/>
<path style=" stroke:none;fill-rule:evenodd;fill:rgb(95.294118%,83.921569%,85.098039%);fill-opacity:1;" d="M 34.765625 27.992188 L 34.765625 23.015625 L 30.75 23.015625 L 30.75 20.605469 L 35.824219 17.714844 L 35.824219 40.871094 L 30.75 43.761719 L 30.75 27.992188 Z M 34.585938 23.191406 L 34.585938 27.816406 L 30.75 27.816406 L 30.75 23.191406 Z M 34.585938 23.191406 "/>
<path style=" stroke:none;fill-rule:evenodd;fill:rgb(95.294118%,84.313725%,85.882353%);fill-opacity:1;" d="M 34.585938 27.816406 L 34.585938 23.191406 L 30.75 23.191406 L 30.75 20.605469 L 35.824219 17.714844 L 35.824219 40.871094 L 30.75 43.761719 L 30.75 27.816406 Z M 34.40625 23.367188 L 34.40625 27.636719 L 30.75 27.636719 L 30.75 23.367188 Z M 34.40625 23.367188 "/>
<path style=" stroke:none;fill-rule:evenodd;fill:rgb(95.294118%,85.098039%,86.27451%);fill-opacity:1;" d="M 34.40625 27.636719 L 34.40625 23.367188 L 30.75 23.367188 L 30.75 20.605469 L 35.824219 17.714844 L 35.824219 40.871094 L 30.75 43.761719 L 30.75 27.636719 Z M 34.226562 23.546875 L 34.226562 27.460938 L 30.75 27.460938 L 30.75 23.546875 Z M 34.226562 23.546875 "/>
<path style=" stroke:none;fill-rule:evenodd;fill:rgb(95.686275%,85.490196%,86.666667%);fill-opacity:1;" d="M 34.226562 27.460938 L 34.226562 23.546875 L 30.75 23.546875 L 30.75 20.605469 L 35.824219 17.714844 L 35.824219 40.871094 L 30.75 43.761719 L 30.75 27.460938 Z M 34.050781 23.722656 L 34.050781 27.285156 L 30.75 27.285156 L 30.75 23.722656 Z M 34.050781 23.722656 "/>
<path style=" stroke:none;fill-rule:evenodd;fill:rgb(95.686275%,85.882353%,87.058824%);fill-opacity:1;" d="M 34.050781 27.285156 L 34.050781 23.722656 L 30.75 23.722656 L 30.75 20.605469 L 35.824219 17.714844 L 35.824219 40.871094 L 30.75 43.761719 L 30.75 27.285156 Z M 33.871094 23.898438 L 33.871094 27.105469 L 30.75 27.105469 L 30.75 23.898438 Z M 33.871094 23.898438 "/>
<path style=" stroke:none;fill-rule:evenodd;fill:rgb(95.686275%,86.27451%,87.45098%);fill-opacity:1;" d="M 33.871094 27.105469 L 33.871094 23.898438 L 30.75 23.898438 L 30.75 20.605469 L 35.824219 17.714844 L 35.824219 40.871094 L 30.75 43.761719 L 30.75 27.105469 Z M 30.804688 24.078125 L 33.691406 24.078125 L 33.691406 26.929688 L 30.804688 26.929688 Z M 30.804688 24.078125 "/>
<path style=" stroke:none;fill-rule:evenodd;fill:rgb(96.078431%,87.058824%,87.843137%);fill-opacity:1;" d="M 30.804688 24.078125 L 30.804688 26.929688 L 33.691406 26.929688 L 33.691406 24.078125 Z M 30.984375 24.253906 L 33.511719 24.253906 L 33.511719 26.753906 L 30.984375 26.753906 Z M 30.75 43.761719 L 30.75 20.605469 L 35.824219 17.714844 L 35.824219 40.871094 Z M 30.75 43.761719 "/>
<path style=" stroke:none;fill-rule:evenodd;fill:rgb(96.078431%,87.45098%,88.235294%);fill-opacity:1;" d="M 30.984375 24.253906 L 30.984375 26.753906 L 33.511719 26.753906 L 33.511719 24.253906 Z M 31.164062 24.429688 L 33.332031 24.429688 L 33.332031 26.574219 L 31.164062 26.574219 Z M 30.75 43.761719 L 30.75 20.605469 L 35.824219 17.714844 L 35.824219 40.871094 Z M 30.75 43.761719 "/>
<path style=" stroke:none;fill-rule:evenodd;fill:rgb(96.078431%,87.843137%,89.019608%);fill-opacity:1;" d="M 31.164062 24.429688 L 31.164062 26.574219 L 33.332031 26.574219 L 33.332031 24.429688 Z M 31.359375 24.625 L 33.132812 24.625 L 33.132812 26.378906 L 31.359375 26.378906 Z M 30.75 43.761719 L 30.75 20.605469 L 35.824219 17.714844 L 35.824219 40.871094 Z M 30.75 43.761719 "/>
<path style=" stroke:none;fill-rule:evenodd;fill:rgb(96.470588%,88.235294%,89.411765%);fill-opacity:1;" d="M 31.359375 24.625 L 31.359375 26.378906 L 33.132812 26.378906 L 33.132812 24.625 Z M 31.539062 24.804688 L 32.957031 24.804688 L 32.957031 26.203125 L 31.539062 26.203125 Z M 30.75 43.761719 L 30.75 20.605469 L 35.824219 17.714844 L 35.824219 40.871094 Z M 30.75 43.761719 "/>
<path style=" stroke:none;fill-rule:evenodd;fill:rgb(96.470588%,89.019608%,89.803922%);fill-opacity:1;" d="M 31.539062 24.804688 L 31.539062 26.203125 L 32.957031 26.203125 L 32.957031 24.804688 Z M 31.71875 24.980469 L 32.777344 24.980469 L 32.777344 26.027344 L 31.71875 26.027344 Z M 30.75 43.761719 L 30.75 20.605469 L 35.824219 17.714844 L 35.824219 40.871094 Z M 30.75 43.761719 "/>
<path style=" stroke:none;fill-rule:evenodd;fill:rgb(96.470588%,89.411765%,90.196078%);fill-opacity:1;" d="M 31.71875 24.980469 L 31.71875 26.027344 L 32.777344 26.027344 L 32.777344 24.980469 Z M 31.898438 25.15625 L 32.597656 25.15625 L 32.597656 25.847656 L 31.898438 25.847656 Z M 30.75 43.761719 L 30.75 20.605469 L 35.824219 17.714844 L 35.824219 40.871094 Z M 30.75 43.761719 "/>
<path style=" stroke:none;fill-rule:evenodd;fill:rgb(96.862745%,89.803922%,90.588235%);fill-opacity:1;" d="M 31.898438 25.15625 L 31.898438 25.847656 L 32.597656 25.847656 L 32.597656 25.15625 Z M 32.078125 25.335938 L 32.417969 25.335938 L 32.417969 25.671875 L 32.078125 25.671875 Z M 30.75 43.761719 L 30.75 20.605469 L 35.824219 17.714844 L 35.824219 40.871094 Z M 30.75 43.761719 "/>
<path style=" stroke:none;fill-rule:evenodd;fill:rgb(97.254902%,90.980392%,91.764706%);fill-opacity:1;" d="M 32.078125 25.335938 L 32.078125 25.671875 L 32.417969 25.671875 L 32.417969 25.335938 Z M 30.75 43.761719 L 30.75 20.605469 L 35.824219 17.714844 L 35.824219 40.871094 Z M 30.75 43.761719 "/>
<path style="fill:none;stroke-width:40;stroke-linecap:butt;stroke-linejoin:round;stroke:rgb(100%,100%,100%);stroke-opacity:1;stroke-miterlimit:4;" d="M 6124.003968 9419.105903 L 6124.003968 8112.064236 L 6407.005766 7948.904514 L 6407.005766 9255.946181 Z M 6124.003968 9419.105903 " transform="matrix(0.01793,0,0,0.0177165,-79.053316,-123.112205)"/>
<path style="fill-rule:evenodd;fill:url(#linear1);stroke-width:40;stroke-linecap:butt;stroke-linejoin:round;stroke:rgb(100%,100%,100%);stroke-opacity:1;stroke-miterlimit:4;" d="M 6125.093275 8112.064236 L 4429.043237 7132.003472 L 4712.045036 6969.064236 L 6407.005766 7948.904514 Z M 6125.093275 8112.064236 " transform="matrix(0.01793,0,0,0.0177165,-79.053316,-123.112205)"/>
<path style="fill:none;stroke-width:40;stroke-linecap:butt;stroke-linejoin:round;stroke:rgb(100%,100%,100%);stroke-opacity:1;stroke-miterlimit:4;" d="M 5559.089678 7785.083333 L 5842.091477 7621.923611 " transform="matrix(0.01793,0,0,0.0177165,-79.053316,-123.112205)"/>
<path style="fill:none;stroke-width:40;stroke-linecap:butt;stroke-linejoin:round;stroke:rgb(100%,100%,100%);stroke-opacity:1;stroke-miterlimit:4;" d="M 6124.003968 8439.045139 L 6407.005766 8276.105903 " transform="matrix(0.01793,0,0,0.0177165,-79.053316,-123.112205)"/>
<path style="fill:none;stroke-width:40;stroke-linecap:butt;stroke-linejoin:round;stroke:rgb(100%,100%,100%);stroke-opacity:1;stroke-miterlimit:4;" d="M 6124.003968 8764.923611 L 6407.005766 8601.984375 " transform="matrix(0.01793,0,0,0.0177165,-79.053316,-123.112205)"/>
<path style="fill:none;stroke-width:40;stroke-linecap:butt;stroke-linejoin:round;stroke:rgb(100%,100%,100%);stroke-opacity:1;stroke-miterlimit:4;" d="M 6124.003968 9091.904514 L 6407.005766 8928.965278 " transform="matrix(0.01793,0,0,0.0177165,-79.053316,-123.112205)"/>
<path style="fill:none;stroke-width:40;stroke-linecap:butt;stroke-linejoin:round;stroke:rgb(100%,100%,100%);stroke-opacity:1;stroke-miterlimit:4;" d="M 4993.957527 7458.984375 L 5276.959325 7296.045139 " transform="matrix(0.01793,0,0,0.0177165,-79.053316,-123.112205)"/>
<path style="fill:none;stroke-width:40;stroke-linecap:butt;stroke-linejoin:round;stroke:rgb(0%,0%,0%);stroke-opacity:1;stroke-miterlimit:4;" d="M 4712.045036 6969.064236 L 6407.005766 7948.904514 L 6407.005766 9255.946181 L 6125.093275 9419.105903 L 4429.043237 8439.045139 L 4429.043237 7132.003472 Z M 4712.045036 6969.064236 " transform="matrix(0.01793,0,0,0.0177165,-79.053316,-123.112205)"/>
</g>
</svg>
