<?xml version="1.0" encoding="UTF-8"?>
<svg xmlns="http://www.w3.org/2000/svg" xmlns:xlink="http://www.w3.org/1999/xlink" width="33pt" height="25pt" viewBox="0 0 33 25" version="1.1">
<defs>
<linearGradient id="linear0" gradientUnits="userSpaceOnUse" x1="12127" y1="12357" x2="13829" y2="12359" gradientTransform="matrix(1,0,0,1,0,0.00000000000181899)">
<stop offset="0.1" style="stop-color:rgb(0%,45.098039%,73.72549%);stop-opacity:1;"/>
<stop offset="1" style="stop-color:rgb(49.803922%,72.54902%,86.666667%);stop-opacity:1;"/>
</linearGradient>
<linearGradient id="linear1" gradientUnits="userSpaceOnUse" x1="13826" y1="10468" x2="13826" y2="12428" gradientTransform="matrix(1,0,0,1,0,0.00000000000181899)">
<stop offset="0.1" style="stop-color:rgb(0%,45.098039%,73.72549%);stop-opacity:1;"/>
<stop offset="1" style="stop-color:rgb(49.803922%,72.54902%,86.666667%);stop-opacity:1;"/>
</linearGradient>
</defs>
<g id="surface1">
<path style="fill-rule:evenodd;fill:rgb(86.666667%,86.666667%,86.666667%);fill-opacity:1;stroke-width:40;stroke-linecap:butt;stroke-linejoin:round;stroke:rgb(86.666667%,86.666667%,86.666667%);stroke-opacity:1;stroke-miterlimit:4;" d="M 13915.215541 13197.788125 C 14389.895412 13197.788125 15612.858375 12637.943021 15734.025516 12428.168125 C 15855.192656 12217.947847 15612.858375 12008.172951 15492.125526 12008.172951 C 15492.125526 12307.915 13915.215541 12698.069583 13915.215541 13197.788125 Z M 13915.215541 13197.788125 " transform="matrix(0.00899455,0,0,0.00877056,-108.914991,-91.634833)"/>
<path style="fill-rule:evenodd;fill:url(#linear0);stroke-width:40;stroke-linecap:butt;stroke-linejoin:round;stroke:rgb(100%,100%,100%);stroke-opacity:1;stroke-miterlimit:4;" d="M 12128.977378 12287.872812 L 12128.977378 11447.882465 L 13827.054503 12428.168125 L 13827.054503 13268.158472 Z M 12128.977378 12287.872812 " transform="matrix(0.00899455,0,0,0.00877056,-108.914991,-91.634833)"/>
<path style=" stroke:none;fill-rule:evenodd;fill:rgb(0%,45.098039%,73.72549%);fill-opacity:1;" d="M 28.125 17.59375 L 21.289062 21.445312 L 15.453125 21.445312 L 15.453125 17.367188 L 28.125 10.226562 Z M 28.125 17.59375 "/>
<path style=" stroke:none;fill-rule:evenodd;fill:rgb(0.392157%,45.098039%,73.72549%);fill-opacity:1;" d="M 21.289062 21.445312 L 15.453125 24.734375 L 15.453125 21.445312 Z M 28.125 10.226562 L 30.714844 8.769531 L 30.714844 16.136719 L 28.125 17.59375 Z M 28.035156 17.644531 L 21.453125 21.355469 L 15.453125 21.355469 L 15.453125 17.367188 L 28.035156 10.277344 Z M 28.035156 17.644531 "/>
<path style=" stroke:none;fill-rule:evenodd;fill:rgb(0.784314%,45.490196%,73.72549%);fill-opacity:1;" d="M 21.453125 21.355469 L 15.453125 24.734375 L 15.453125 21.355469 Z M 28.035156 10.277344 L 30.714844 8.769531 L 30.714844 16.136719 L 28.035156 17.644531 Z M 27.945312 17.699219 L 21.605469 21.269531 L 15.453125 21.269531 L 15.453125 17.367188 L 27.945312 10.332031 Z M 27.945312 17.699219 "/>
<path style=" stroke:none;fill-rule:evenodd;fill:rgb(1.568627%,45.882353%,74.117647%);fill-opacity:1;" d="M 21.605469 21.269531 L 15.453125 24.734375 L 15.453125 21.269531 Z M 27.945312 10.332031 L 30.714844 8.769531 L 30.714844 16.136719 L 27.945312 17.699219 Z M 27.855469 17.75 L 21.757812 21.179688 L 15.453125 21.179688 L 15.453125 17.367188 L 27.855469 10.382812 Z M 27.855469 17.75 "/>
<path style=" stroke:none;fill-rule:evenodd;fill:rgb(1.960784%,46.27451%,74.117647%);fill-opacity:1;" d="M 21.757812 21.179688 L 15.453125 24.734375 L 15.453125 21.179688 Z M 27.855469 10.382812 L 30.714844 8.769531 L 30.714844 16.136719 L 27.855469 17.75 Z M 27.765625 17.796875 L 21.917969 21.09375 L 15.453125 21.09375 L 15.453125 17.367188 L 27.765625 10.429688 Z M 27.765625 17.796875 "/>
<path style=" stroke:none;fill-rule:evenodd;fill:rgb(2.352941%,46.27451%,74.117647%);fill-opacity:1;" d="M 21.917969 21.09375 L 15.453125 24.734375 L 15.453125 21.09375 Z M 27.765625 10.429688 L 30.714844 8.769531 L 30.714844 16.136719 L 27.765625 17.796875 Z M 27.675781 17.847656 L 22.074219 21.003906 L 15.453125 21.003906 L 15.453125 17.367188 L 27.675781 10.480469 Z M 27.675781 17.847656 "/>
<path style=" stroke:none;fill-rule:evenodd;fill:rgb(3.137255%,46.666667%,74.509804%);fill-opacity:1;" d="M 22.074219 21.003906 L 15.453125 24.734375 L 15.453125 21.003906 Z M 27.675781 10.480469 L 30.714844 8.769531 L 30.714844 16.136719 L 27.675781 17.847656 Z M 27.585938 17.902344 L 22.226562 20.917969 L 15.453125 20.917969 L 15.453125 17.367188 L 27.585938 10.535156 Z M 27.585938 17.902344 "/>
<path style=" stroke:none;fill-rule:evenodd;fill:rgb(3.529412%,47.058824%,74.509804%);fill-opacity:1;" d="M 22.226562 20.917969 L 15.453125 24.734375 L 15.453125 20.917969 Z M 27.585938 10.535156 L 30.714844 8.769531 L 30.714844 16.136719 L 27.585938 17.902344 Z M 27.496094 17.953125 L 22.386719 20.832031 L 15.453125 20.832031 L 15.453125 17.367188 L 27.496094 10.585938 Z M 27.496094 17.953125 "/>
<path style=" stroke:none;fill-rule:evenodd;fill:rgb(4.313725%,47.45098%,74.509804%);fill-opacity:1;" d="M 22.386719 20.832031 L 15.453125 24.734375 L 15.453125 20.832031 Z M 27.496094 10.585938 L 30.714844 8.769531 L 30.714844 16.136719 L 27.496094 17.953125 Z M 27.40625 18.007812 L 22.539062 20.742188 L 15.453125 20.742188 L 15.453125 17.367188 L 27.40625 10.640625 Z M 27.40625 18.007812 "/>
<path style=" stroke:none;fill-rule:evenodd;fill:rgb(4.705882%,47.45098%,74.901961%);fill-opacity:1;" d="M 22.539062 20.742188 L 15.453125 24.734375 L 15.453125 20.742188 Z M 27.40625 10.640625 L 30.714844 8.769531 L 30.714844 16.136719 L 27.40625 18.007812 Z M 27.316406 18.050781 L 22.691406 20.65625 L 15.453125 20.65625 L 15.453125 17.367188 L 27.316406 10.683594 Z M 27.316406 18.050781 "/>
<path style=" stroke:none;fill-rule:evenodd;fill:rgb(5.098039%,47.843137%,74.901961%);fill-opacity:1;" d="M 22.691406 20.65625 L 15.453125 24.734375 L 15.453125 20.65625 Z M 27.316406 10.683594 L 30.714844 8.769531 L 30.714844 16.136719 L 27.316406 18.050781 Z M 27.226562 18.101562 L 22.855469 20.566406 L 15.453125 20.566406 L 15.453125 17.367188 L 27.226562 10.734375 Z M 27.226562 18.101562 "/>
<path style=" stroke:none;fill-rule:evenodd;fill:rgb(5.882353%,48.235294%,74.901961%);fill-opacity:1;" d="M 22.855469 20.566406 L 15.453125 24.734375 L 15.453125 20.566406 Z M 27.226562 10.734375 L 30.714844 8.769531 L 30.714844 16.136719 L 27.226562 18.101562 Z M 27.136719 18.15625 L 23.007812 20.480469 L 15.453125 20.480469 L 15.453125 17.367188 L 27.136719 10.789062 Z M 27.136719 18.15625 "/>
<path style=" stroke:none;fill-rule:evenodd;fill:rgb(6.27451%,48.627451%,75.294118%);fill-opacity:1;" d="M 23.007812 20.480469 L 15.453125 24.734375 L 15.453125 20.480469 Z M 27.136719 10.789062 L 30.714844 8.769531 L 30.714844 16.136719 L 27.136719 18.15625 Z M 27.046875 18.207031 L 23.160156 20.390625 L 15.453125 20.390625 L 15.453125 17.367188 L 27.046875 10.839844 Z M 27.046875 18.207031 "/>
<path style=" stroke:none;fill-rule:evenodd;fill:rgb(7.058824%,49.019608%,75.294118%);fill-opacity:1;" d="M 23.160156 20.390625 L 15.453125 24.734375 L 15.453125 20.390625 Z M 27.046875 10.839844 L 30.714844 8.769531 L 30.714844 16.136719 L 27.046875 18.207031 Z M 26.957031 18.25 L 23.3125 20.304688 L 15.453125 20.304688 L 15.453125 17.367188 L 26.957031 10.882812 Z M 26.957031 18.25 "/>
<path style=" stroke:none;fill-rule:evenodd;fill:rgb(7.45098%,49.019608%,75.686275%);fill-opacity:1;" d="M 23.3125 20.304688 L 15.453125 24.734375 L 15.453125 20.304688 Z M 26.957031 10.882812 L 30.714844 8.769531 L 30.714844 16.136719 L 26.957031 18.25 Z M 26.867188 18.304688 L 23.476562 20.214844 L 15.453125 20.214844 L 15.453125 17.367188 L 26.867188 10.9375 Z M 26.867188 18.304688 "/>
<path style=" stroke:none;fill-rule:evenodd;fill:rgb(7.843137%,49.411765%,75.686275%);fill-opacity:1;" d="M 23.476562 20.214844 L 15.453125 24.734375 L 15.453125 20.214844 Z M 26.867188 10.9375 L 30.714844 8.769531 L 30.714844 16.136719 L 26.867188 18.304688 Z M 26.777344 18.355469 L 23.628906 20.128906 L 15.453125 20.128906 L 15.453125 17.367188 L 26.777344 10.988281 Z M 26.777344 18.355469 "/>
<path style=" stroke:none;fill-rule:evenodd;fill:rgb(8.627451%,49.803922%,75.686275%);fill-opacity:1;" d="M 23.628906 20.128906 L 15.453125 24.734375 L 15.453125 20.128906 Z M 26.777344 10.988281 L 30.714844 8.769531 L 30.714844 16.136719 L 26.777344 18.355469 Z M 26.6875 18.410156 L 23.78125 20.039062 L 15.453125 20.039062 L 15.453125 17.367188 L 26.6875 11.042969 Z M 26.6875 18.410156 "/>
<path style=" stroke:none;fill-rule:evenodd;fill:rgb(9.019608%,50.196078%,76.078431%);fill-opacity:1;" d="M 23.78125 20.039062 L 15.453125 24.734375 L 15.453125 20.039062 Z M 26.6875 11.042969 L 30.714844 8.769531 L 30.714844 16.136719 L 26.6875 18.410156 Z M 26.597656 18.453125 L 23.945312 19.953125 L 15.453125 19.953125 L 15.453125 17.367188 L 26.597656 11.085938 Z M 26.597656 18.453125 "/>
<path style=" stroke:none;fill-rule:evenodd;fill:rgb(9.803922%,50.196078%,76.078431%);fill-opacity:1;" d="M 23.945312 19.953125 L 15.453125 24.734375 L 15.453125 19.953125 Z M 26.597656 11.085938 L 30.714844 8.769531 L 30.714844 16.136719 L 26.597656 18.453125 Z M 26.507812 18.507812 L 24.097656 19.867188 L 15.453125 19.867188 L 15.453125 17.367188 L 26.507812 11.136719 Z M 26.507812 18.507812 "/>
<path style=" stroke:none;fill-rule:evenodd;fill:rgb(10.196078%,50.588235%,76.078431%);fill-opacity:1;" d="M 24.097656 19.867188 L 15.453125 24.734375 L 15.453125 19.867188 Z M 26.507812 11.136719 L 30.714844 8.769531 L 30.714844 16.136719 L 26.507812 18.507812 Z M 26.417969 18.558594 L 24.25 19.777344 L 15.453125 19.777344 L 15.453125 17.367188 L 26.417969 11.191406 Z M 26.417969 18.558594 "/>
<path style=" stroke:none;fill-rule:evenodd;fill:rgb(10.588235%,50.980392%,76.470588%);fill-opacity:1;" d="M 24.25 19.777344 L 15.453125 24.734375 L 15.453125 19.777344 Z M 26.417969 11.191406 L 30.714844 8.769531 L 30.714844 16.136719 L 26.417969 18.558594 Z M 26.328125 18.609375 L 24.410156 19.691406 L 15.453125 19.691406 L 15.453125 17.367188 L 26.328125 11.242188 Z M 26.328125 18.609375 "/>
<path style=" stroke:none;fill-rule:evenodd;fill:rgb(11.372549%,51.372549%,76.470588%);fill-opacity:1;" d="M 24.410156 19.691406 L 15.453125 24.734375 L 15.453125 19.691406 Z M 26.328125 11.242188 L 30.714844 8.769531 L 30.714844 16.136719 L 26.328125 18.609375 Z M 26.238281 18.664062 L 24.5625 19.601562 L 15.453125 19.601562 L 15.453125 17.367188 L 26.238281 11.296875 Z M 26.238281 18.664062 "/>
<path style=" stroke:none;fill-rule:evenodd;fill:rgb(11.764706%,51.372549%,76.470588%);fill-opacity:1;" d="M 24.5625 19.601562 L 15.453125 24.734375 L 15.453125 19.601562 Z M 26.238281 11.296875 L 30.714844 8.769531 L 30.714844 16.136719 L 26.238281 18.664062 Z M 26.148438 18.707031 L 24.71875 19.515625 L 15.453125 19.515625 L 15.453125 17.367188 L 26.148438 11.339844 Z M 26.148438 18.707031 "/>
<path style=" stroke:none;fill-rule:evenodd;fill:rgb(12.54902%,51.764706%,76.862745%);fill-opacity:1;" d="M 24.71875 19.515625 L 15.453125 24.734375 L 15.453125 19.515625 Z M 26.148438 11.339844 L 30.714844 8.769531 L 30.714844 16.136719 L 26.148438 18.707031 Z M 26.058594 18.761719 L 24.878906 19.425781 L 15.453125 19.425781 L 15.453125 17.367188 L 26.058594 11.394531 Z M 26.058594 18.761719 "/>
<path style=" stroke:none;fill-rule:evenodd;fill:rgb(12.941176%,52.156863%,76.862745%);fill-opacity:1;" d="M 24.878906 19.425781 L 15.453125 24.734375 L 15.453125 19.425781 Z M 26.058594 11.394531 L 30.714844 8.769531 L 30.714844 16.136719 L 26.058594 18.761719 Z M 25.96875 18.8125 L 25.03125 19.339844 L 15.453125 19.339844 L 15.453125 17.367188 L 25.96875 11.445312 Z M 25.96875 18.8125 "/>
<path style=" stroke:none;fill-rule:evenodd;fill:rgb(13.333333%,52.54902%,77.254902%);fill-opacity:1;" d="M 25.03125 19.339844 L 15.453125 24.734375 L 15.453125 19.339844 Z M 25.96875 11.445312 L 30.714844 8.769531 L 30.714844 16.136719 L 25.96875 18.8125 Z M 25.878906 18.867188 L 25.183594 19.25 L 15.453125 19.25 L 15.453125 17.367188 L 25.878906 11.5 Z M 25.878906 18.867188 "/>
<path style=" stroke:none;fill-rule:evenodd;fill:rgb(14.117647%,52.941176%,77.254902%);fill-opacity:1;" d="M 25.183594 19.25 L 15.453125 24.734375 L 15.453125 19.25 Z M 25.878906 11.5 L 30.714844 8.769531 L 30.714844 16.136719 L 25.878906 18.867188 Z M 25.789062 18.910156 L 25.347656 19.164062 L 15.453125 19.164062 L 15.453125 17.367188 L 25.789062 11.542969 Z M 25.789062 18.910156 "/>
<path style=" stroke:none;fill-rule:evenodd;fill:rgb(14.509804%,52.941176%,77.254902%);fill-opacity:1;" d="M 25.347656 19.164062 L 15.453125 24.734375 L 15.453125 19.164062 Z M 25.789062 11.542969 L 30.714844 8.769531 L 30.714844 16.136719 L 25.789062 18.910156 Z M 25.699219 18.960938 L 25.5 19.074219 L 15.453125 19.074219 L 15.453125 17.367188 L 25.699219 11.59375 Z M 25.699219 18.960938 "/>
<path style=" stroke:none;fill-rule:evenodd;fill:rgb(15.294118%,53.333333%,77.647059%);fill-opacity:1;" d="M 25.5 19.074219 L 15.453125 24.734375 L 15.453125 19.074219 Z M 25.699219 11.59375 L 30.714844 8.769531 L 30.714844 16.136719 L 25.699219 18.960938 Z M 25.609375 18.988281 L 15.453125 18.988281 L 15.453125 17.367188 L 25.609375 11.648438 Z M 25.609375 18.988281 "/>
<path style=" stroke:none;fill-rule:evenodd;fill:rgb(15.686275%,53.72549%,77.647059%);fill-opacity:1;" d="M 25.609375 18.988281 L 25.609375 11.648438 L 30.714844 8.769531 L 30.714844 16.136719 L 15.453125 24.734375 L 15.453125 18.988281 Z M 25.515625 18.902344 L 15.453125 18.902344 L 15.453125 17.367188 L 25.515625 11.699219 Z M 25.515625 18.902344 "/>
<path style=" stroke:none;fill-rule:evenodd;fill:rgb(16.078431%,54.117647%,77.647059%);fill-opacity:1;" d="M 25.515625 18.902344 L 25.515625 11.699219 L 30.714844 8.769531 L 30.714844 16.136719 L 15.453125 24.734375 L 15.453125 18.902344 Z M 25.425781 18.8125 L 15.453125 18.8125 L 15.453125 17.367188 L 25.425781 11.753906 Z M 25.425781 18.8125 "/>
<path style=" stroke:none;fill-rule:evenodd;fill:rgb(16.862745%,54.117647%,78.039216%);fill-opacity:1;" d="M 25.425781 18.8125 L 25.425781 11.753906 L 30.714844 8.769531 L 30.714844 16.136719 L 15.453125 24.734375 L 15.453125 18.8125 Z M 25.335938 18.726562 L 15.453125 18.726562 L 15.453125 17.367188 L 25.335938 11.796875 Z M 25.335938 18.726562 "/>
<path style=" stroke:none;fill-rule:evenodd;fill:rgb(17.254902%,54.509804%,78.039216%);fill-opacity:1;" d="M 25.335938 18.726562 L 25.335938 11.796875 L 30.714844 8.769531 L 30.714844 16.136719 L 15.453125 24.734375 L 15.453125 18.726562 Z M 25.246094 18.636719 L 15.453125 18.636719 L 15.453125 17.367188 L 25.246094 11.847656 Z M 25.246094 18.636719 "/>
<path style=" stroke:none;fill-rule:evenodd;fill:rgb(18.039216%,54.901961%,78.039216%);fill-opacity:1;" d="M 25.246094 18.636719 L 25.246094 11.847656 L 30.714844 8.769531 L 30.714844 16.136719 L 15.453125 24.734375 L 15.453125 18.636719 Z M 25.15625 18.550781 L 15.453125 18.550781 L 15.453125 17.367188 L 25.15625 11.902344 Z M 25.15625 18.550781 "/>
<path style=" stroke:none;fill-rule:evenodd;fill:rgb(18.431373%,55.294118%,78.431373%);fill-opacity:1;" d="M 25.15625 18.550781 L 25.15625 11.902344 L 30.714844 8.769531 L 30.714844 16.136719 L 15.453125 24.734375 L 15.453125 18.550781 Z M 25.066406 18.460938 L 15.453125 18.460938 L 15.453125 17.367188 L 25.066406 11.953125 Z M 25.066406 18.460938 "/>
<path style=" stroke:none;fill-rule:evenodd;fill:rgb(18.823529%,55.294118%,78.431373%);fill-opacity:1;" d="M 25.066406 18.460938 L 25.066406 11.953125 L 30.714844 8.769531 L 30.714844 16.136719 L 15.453125 24.734375 L 15.453125 18.460938 Z M 24.976562 18.375 L 15.453125 18.375 L 15.453125 17.367188 L 24.976562 12 Z M 24.976562 18.375 "/>
<path style=" stroke:none;fill-rule:evenodd;fill:rgb(19.607843%,55.686275%,78.823529%);fill-opacity:1;" d="M 24.976562 18.375 L 24.976562 12 L 30.714844 8.769531 L 30.714844 16.136719 L 15.453125 24.734375 L 15.453125 18.375 Z M 24.886719 18.285156 L 15.453125 18.285156 L 15.453125 17.367188 L 24.886719 12.050781 Z M 24.886719 18.285156 "/>
<path style=" stroke:none;fill-rule:evenodd;fill:rgb(20%,56.078431%,78.823529%);fill-opacity:1;" d="M 24.886719 18.285156 L 24.886719 12.050781 L 30.714844 8.769531 L 30.714844 16.136719 L 15.453125 24.734375 L 15.453125 18.285156 Z M 24.796875 18.199219 L 15.453125 18.199219 L 15.453125 17.367188 L 24.796875 12.101562 Z M 24.796875 18.199219 "/>
<path style=" stroke:none;fill-rule:evenodd;fill:rgb(20.784314%,56.470588%,78.823529%);fill-opacity:1;" d="M 24.796875 18.199219 L 24.796875 12.101562 L 30.714844 8.769531 L 30.714844 16.136719 L 15.453125 24.734375 L 15.453125 18.199219 Z M 24.707031 18.109375 L 15.453125 18.109375 L 15.453125 17.367188 L 24.707031 12.15625 Z M 24.707031 18.109375 "/>
<path style=" stroke:none;fill-rule:evenodd;fill:rgb(21.176471%,56.862745%,79.215686%);fill-opacity:1;" d="M 24.707031 18.109375 L 24.707031 12.15625 L 30.714844 8.769531 L 30.714844 16.136719 L 15.453125 24.734375 L 15.453125 18.109375 Z M 24.617188 18.023438 L 15.453125 18.023438 L 15.453125 17.367188 L 24.617188 12.207031 Z M 24.617188 18.023438 "/>
<path style=" stroke:none;fill-rule:evenodd;fill:rgb(21.568627%,56.862745%,79.215686%);fill-opacity:1;" d="M 24.617188 18.023438 L 24.617188 12.207031 L 30.714844 8.769531 L 30.714844 16.136719 L 15.453125 24.734375 L 15.453125 18.023438 Z M 24.527344 17.9375 L 15.523438 17.9375 L 15.523438 17.320312 L 24.527344 12.253906 Z M 24.527344 17.9375 "/>
<path style=" stroke:none;fill-rule:evenodd;fill:rgb(22.352941%,57.254902%,79.215686%);fill-opacity:1;" d="M 15.523438 17.9375 L 24.527344 17.9375 L 24.527344 12.253906 L 30.714844 8.769531 L 30.714844 16.136719 L 15.453125 24.734375 L 15.453125 17.367188 L 15.523438 17.320312 Z M 24.4375 17.847656 L 15.613281 17.847656 L 15.613281 17.277344 L 24.4375 12.304688 Z M 24.4375 17.847656 "/>
<path style=" stroke:none;fill-rule:evenodd;fill:rgb(22.745098%,57.647059%,79.607843%);fill-opacity:1;" d="M 15.613281 17.847656 L 24.4375 17.847656 L 24.4375 12.304688 L 30.714844 8.769531 L 30.714844 16.136719 L 15.453125 24.734375 L 15.453125 17.367188 L 15.613281 17.277344 Z M 24.347656 17.761719 L 15.703125 17.761719 L 15.703125 17.226562 L 24.347656 12.359375 Z M 24.347656 17.761719 "/>
<path style=" stroke:none;fill-rule:evenodd;fill:rgb(23.529412%,58.039216%,79.607843%);fill-opacity:1;" d="M 15.703125 17.761719 L 24.347656 17.761719 L 24.347656 12.359375 L 30.714844 8.769531 L 30.714844 16.136719 L 15.453125 24.734375 L 15.453125 17.367188 L 15.703125 17.226562 Z M 24.257812 17.671875 L 15.792969 17.671875 L 15.792969 17.171875 L 24.257812 12.410156 Z M 24.257812 17.671875 "/>
<path style=" stroke:none;fill-rule:evenodd;fill:rgb(23.921569%,58.039216%,79.607843%);fill-opacity:1;" d="M 15.792969 17.671875 L 24.257812 17.671875 L 24.257812 12.410156 L 30.714844 8.769531 L 30.714844 16.136719 L 15.453125 24.734375 L 15.453125 17.367188 L 15.792969 17.171875 Z M 24.167969 17.585938 L 15.882812 17.585938 L 15.882812 17.121094 L 24.167969 12.453125 Z M 24.167969 17.585938 "/>
<path style=" stroke:none;fill-rule:evenodd;fill:rgb(24.313725%,58.431373%,80%);fill-opacity:1;" d="M 15.882812 17.585938 L 24.167969 17.585938 L 24.167969 12.453125 L 30.714844 8.769531 L 30.714844 16.136719 L 15.453125 24.734375 L 15.453125 17.367188 L 15.882812 17.121094 Z M 24.078125 17.496094 L 15.972656 17.496094 L 15.972656 17.078125 L 24.078125 12.507812 Z M 24.078125 17.496094 "/>
<path style=" stroke:none;fill-rule:evenodd;fill:rgb(25.098039%,58.823529%,80%);fill-opacity:1;" d="M 15.972656 17.496094 L 24.078125 17.496094 L 24.078125 12.507812 L 30.714844 8.769531 L 30.714844 16.136719 L 15.453125 24.734375 L 15.453125 17.367188 L 15.972656 17.078125 Z M 23.988281 17.410156 L 16.0625 17.410156 L 16.0625 17.023438 L 23.988281 12.558594 Z M 23.988281 17.410156 "/>
<path style=" stroke:none;fill-rule:evenodd;fill:rgb(25.490196%,59.215686%,80.392157%);fill-opacity:1;" d="M 16.0625 17.410156 L 23.988281 17.410156 L 23.988281 12.558594 L 30.714844 8.769531 L 30.714844 16.136719 L 15.453125 24.734375 L 15.453125 17.367188 L 16.0625 17.023438 Z M 23.898438 17.320312 L 16.152344 17.320312 L 16.152344 16.972656 L 23.898438 12.613281 Z M 23.898438 17.320312 "/>
<path style=" stroke:none;fill-rule:evenodd;fill:rgb(25.882353%,59.215686%,80.392157%);fill-opacity:1;" d="M 16.152344 17.320312 L 23.898438 17.320312 L 23.898438 12.613281 L 30.714844 8.769531 L 30.714844 16.136719 L 15.453125 24.734375 L 15.453125 17.367188 L 16.152344 16.972656 Z M 23.808594 17.234375 L 16.246094 17.234375 L 16.246094 16.917969 L 23.808594 12.664062 Z M 23.808594 17.234375 "/>
<path style=" stroke:none;fill-rule:evenodd;fill:rgb(26.666667%,59.607843%,80.392157%);fill-opacity:1;" d="M 16.246094 17.234375 L 23.808594 17.234375 L 23.808594 12.664062 L 30.714844 8.769531 L 30.714844 16.136719 L 15.453125 24.734375 L 15.453125 17.367188 L 16.246094 16.917969 Z M 23.71875 17.144531 L 16.335938 17.144531 L 16.335938 16.867188 L 23.71875 12.707031 Z M 23.71875 17.144531 "/>
<path style=" stroke:none;fill-rule:evenodd;fill:rgb(27.058824%,60%,80.784314%);fill-opacity:1;" d="M 16.335938 17.144531 L 23.71875 17.144531 L 23.71875 12.707031 L 30.714844 8.769531 L 30.714844 16.136719 L 15.453125 24.734375 L 15.453125 17.367188 L 16.335938 16.867188 Z M 23.628906 17.058594 L 16.425781 17.058594 L 16.425781 16.820312 L 23.628906 12.761719 Z M 23.628906 17.058594 "/>
<path style=" stroke:none;fill-rule:evenodd;fill:rgb(27.843137%,60.392157%,80.784314%);fill-opacity:1;" d="M 16.425781 17.058594 L 23.628906 17.058594 L 23.628906 12.761719 L 30.714844 8.769531 L 30.714844 16.136719 L 15.453125 24.734375 L 15.453125 17.367188 L 16.425781 16.820312 Z M 23.539062 16.972656 L 16.515625 16.972656 L 16.515625 16.769531 L 23.539062 12.8125 Z M 23.539062 16.972656 "/>
<path style=" stroke:none;fill-rule:evenodd;fill:rgb(28.235294%,60.784314%,80.784314%);fill-opacity:1;" d="M 16.515625 16.972656 L 23.539062 16.972656 L 23.539062 12.8125 L 30.714844 8.769531 L 30.714844 16.136719 L 15.453125 24.734375 L 15.453125 17.367188 L 16.515625 16.769531 Z M 23.449219 16.882812 L 16.605469 16.882812 L 16.605469 16.714844 L 23.449219 12.867188 Z M 23.449219 16.882812 "/>
<path style=" stroke:none;fill-rule:evenodd;fill:rgb(28.627451%,60.784314%,81.176471%);fill-opacity:1;" d="M 16.605469 16.882812 L 23.449219 16.882812 L 23.449219 12.867188 L 30.714844 8.769531 L 30.714844 16.136719 L 15.453125 24.734375 L 15.453125 17.367188 L 16.605469 16.714844 Z M 23.359375 16.796875 L 16.695312 16.796875 L 16.695312 16.664062 L 23.359375 12.910156 Z M 23.359375 16.796875 "/>
<path style=" stroke:none;fill-rule:evenodd;fill:rgb(29.411765%,61.176471%,81.176471%);fill-opacity:1;" d="M 16.695312 16.796875 L 23.359375 16.796875 L 23.359375 12.910156 L 30.714844 8.769531 L 30.714844 16.136719 L 15.453125 24.734375 L 15.453125 17.367188 L 16.695312 16.664062 Z M 23.269531 16.707031 L 16.785156 16.707031 L 16.785156 16.621094 L 23.269531 12.964844 Z M 23.269531 16.707031 "/>
<path style=" stroke:none;fill-rule:evenodd;fill:rgb(29.803922%,61.568627%,81.176471%);fill-opacity:1;" d="M 16.785156 16.707031 L 23.269531 16.707031 L 23.269531 12.964844 L 30.714844 8.769531 L 30.714844 16.136719 L 15.453125 24.734375 L 15.453125 17.367188 L 16.785156 16.621094 Z M 23.179688 16.621094 L 16.875 16.621094 L 16.875 16.566406 L 23.179688 13.015625 Z M 23.179688 16.621094 "/>
<path style=" stroke:none;fill-rule:evenodd;fill:rgb(30.588235%,61.960784%,81.568627%);fill-opacity:1;" d="M 16.875 16.621094 L 23.179688 16.621094 L 23.179688 13.015625 L 30.714844 8.769531 L 30.714844 16.136719 L 15.453125 24.734375 L 15.453125 17.367188 L 16.875 16.566406 Z M 23.089844 16.53125 L 16.964844 16.53125 L 16.964844 16.515625 L 23.089844 13.066406 Z M 23.089844 16.53125 "/>
<path style=" stroke:none;fill-rule:evenodd;fill:rgb(30.980392%,61.960784%,81.568627%);fill-opacity:1;" d="M 16.964844 16.53125 L 23.089844 16.53125 L 23.089844 13.066406 L 30.714844 8.769531 L 30.714844 16.136719 L 15.453125 24.734375 L 15.453125 17.367188 L 16.964844 16.515625 Z M 23 16.445312 L 17.089844 16.445312 L 23 13.113281 Z M 23 16.445312 "/>
<path style=" stroke:none;fill-rule:evenodd;fill:rgb(31.372549%,62.352941%,81.960784%);fill-opacity:1;" d="M 23 16.445312 L 23 13.113281 L 30.714844 8.769531 L 30.714844 16.136719 L 15.453125 24.734375 L 15.453125 17.367188 L 17.089844 16.445312 Z M 22.910156 16.355469 L 17.242188 16.355469 L 22.910156 13.164062 Z M 22.910156 16.355469 "/>
<path style=" stroke:none;fill-rule:evenodd;fill:rgb(32.156863%,62.745098%,81.960784%);fill-opacity:1;" d="M 22.910156 16.355469 L 22.910156 13.164062 L 30.714844 8.769531 L 30.714844 16.136719 L 15.453125 24.734375 L 15.453125 17.367188 L 17.242188 16.355469 Z M 22.820312 16.269531 L 17.394531 16.269531 L 22.820312 13.21875 Z M 22.820312 16.269531 "/>
<path style=" stroke:none;fill-rule:evenodd;fill:rgb(32.54902%,63.137255%,81.960784%);fill-opacity:1;" d="M 22.820312 16.269531 L 22.820312 13.21875 L 30.714844 8.769531 L 30.714844 16.136719 L 15.453125 24.734375 L 15.453125 17.367188 L 17.394531 16.269531 Z M 22.71875 16.171875 L 17.574219 16.171875 L 22.71875 13.269531 Z M 22.71875 16.171875 "/>
<path style=" stroke:none;fill-rule:evenodd;fill:rgb(33.333333%,63.137255%,82.352941%);fill-opacity:1;" d="M 22.71875 16.171875 L 22.71875 13.269531 L 30.714844 8.769531 L 30.714844 16.136719 L 15.453125 24.734375 L 15.453125 17.367188 L 17.574219 16.171875 Z M 22.628906 16.085938 L 17.726562 16.085938 L 22.628906 13.324219 Z M 22.628906 16.085938 "/>
<path style=" stroke:none;fill-rule:evenodd;fill:rgb(33.72549%,63.529412%,82.352941%);fill-opacity:1;" d="M 22.628906 16.085938 L 22.628906 13.324219 L 30.714844 8.769531 L 30.714844 16.136719 L 15.453125 24.734375 L 15.453125 17.367188 L 17.726562 16.085938 Z M 22.539062 15.996094 L 17.882812 15.996094 L 22.539062 13.375 Z M 22.539062 15.996094 "/>
<path style=" stroke:none;fill-rule:evenodd;fill:rgb(34.117647%,63.921569%,82.352941%);fill-opacity:1;" d="M 22.539062 15.996094 L 22.539062 13.375 L 30.714844 8.769531 L 30.714844 16.136719 L 15.453125 24.734375 L 15.453125 17.367188 L 17.882812 15.996094 Z M 22.449219 15.910156 L 18.035156 15.910156 L 22.449219 13.425781 Z M 22.449219 15.910156 "/>
<path style=" stroke:none;fill-rule:evenodd;fill:rgb(34.901961%,64.313725%,82.745098%);fill-opacity:1;" d="M 22.449219 15.910156 L 22.449219 13.425781 L 30.714844 8.769531 L 30.714844 16.136719 L 15.453125 24.734375 L 15.453125 17.367188 L 18.035156 15.910156 Z M 22.359375 15.820312 L 18.195312 15.820312 L 22.359375 13.472656 Z M 22.359375 15.820312 "/>
<path style=" stroke:none;fill-rule:evenodd;fill:rgb(35.294118%,64.705882%,82.745098%);fill-opacity:1;" d="M 22.359375 15.820312 L 22.359375 13.472656 L 30.714844 8.769531 L 30.714844 16.136719 L 15.453125 24.734375 L 15.453125 17.367188 L 18.195312 15.820312 Z M 22.269531 15.734375 L 18.347656 15.734375 L 22.269531 13.523438 Z M 22.269531 15.734375 "/>
<path style=" stroke:none;fill-rule:evenodd;fill:rgb(36.078431%,64.705882%,82.745098%);fill-opacity:1;" d="M 22.269531 15.734375 L 22.269531 13.523438 L 30.714844 8.769531 L 30.714844 16.136719 L 15.453125 24.734375 L 15.453125 17.367188 L 18.347656 15.734375 Z M 22.179688 15.648438 L 18.5 15.648438 L 22.179688 13.578125 Z M 22.179688 15.648438 "/>
<path style=" stroke:none;fill-rule:evenodd;fill:rgb(36.470588%,65.098039%,83.137255%);fill-opacity:1;" d="M 22.179688 15.648438 L 22.179688 13.578125 L 30.714844 8.769531 L 30.714844 16.136719 L 15.453125 24.734375 L 15.453125 17.367188 L 18.5 15.648438 Z M 22.089844 15.558594 L 18.664062 15.558594 L 22.089844 13.628906 Z M 22.089844 15.558594 "/>
<path style=" stroke:none;fill-rule:evenodd;fill:rgb(36.862745%,65.490196%,83.137255%);fill-opacity:1;" d="M 22.089844 15.558594 L 22.089844 13.628906 L 30.714844 8.769531 L 30.714844 16.136719 L 15.453125 24.734375 L 15.453125 17.367188 L 18.664062 15.558594 Z M 22 15.472656 L 18.816406 15.472656 L 22 13.683594 Z M 22 15.472656 "/>
<path style=" stroke:none;fill-rule:evenodd;fill:rgb(37.647059%,65.882353%,83.529412%);fill-opacity:1;" d="M 22 15.472656 L 22 13.683594 L 30.714844 8.769531 L 30.714844 16.136719 L 15.453125 24.734375 L 15.453125 17.367188 L 18.816406 15.472656 Z M 21.910156 15.382812 L 18.96875 15.382812 L 21.910156 13.726562 Z M 21.910156 15.382812 "/>
<path style=" stroke:none;fill-rule:evenodd;fill:rgb(38.039216%,65.882353%,83.529412%);fill-opacity:1;" d="M 21.910156 15.382812 L 21.910156 13.726562 L 30.714844 8.769531 L 30.714844 16.136719 L 15.453125 24.734375 L 15.453125 17.367188 L 18.96875 15.382812 Z M 21.820312 15.296875 L 19.132812 15.296875 L 21.820312 13.777344 Z M 21.820312 15.296875 "/>
<path style=" stroke:none;fill-rule:evenodd;fill:rgb(38.823529%,66.27451%,83.529412%);fill-opacity:1;" d="M 21.820312 15.296875 L 21.820312 13.777344 L 30.714844 8.769531 L 30.714844 16.136719 L 15.453125 24.734375 L 15.453125 17.367188 L 19.132812 15.296875 Z M 21.730469 15.207031 L 19.285156 15.207031 L 21.730469 13.832031 Z M 21.730469 15.207031 "/>
<path style=" stroke:none;fill-rule:evenodd;fill:rgb(39.215686%,66.666667%,83.921569%);fill-opacity:1;" d="M 21.730469 15.207031 L 21.730469 13.832031 L 30.714844 8.769531 L 30.714844 16.136719 L 15.453125 24.734375 L 15.453125 17.367188 L 19.285156 15.207031 Z M 21.640625 15.121094 L 19.4375 15.121094 L 21.640625 13.882812 Z M 21.640625 15.121094 "/>
<path style=" stroke:none;fill-rule:evenodd;fill:rgb(39.607843%,67.058824%,83.921569%);fill-opacity:1;" d="M 21.640625 15.121094 L 21.640625 13.882812 L 30.714844 8.769531 L 30.714844 16.136719 L 15.453125 24.734375 L 15.453125 17.367188 L 19.4375 15.121094 Z M 21.550781 15.03125 L 19.597656 15.03125 L 21.550781 13.925781 Z M 21.550781 15.03125 "/>
<path style=" stroke:none;fill-rule:evenodd;fill:rgb(40.392157%,67.058824%,83.921569%);fill-opacity:1;" d="M 21.550781 15.03125 L 21.550781 13.925781 L 30.714844 8.769531 L 30.714844 16.136719 L 15.453125 24.734375 L 15.453125 17.367188 L 19.597656 15.03125 Z M 21.460938 14.945312 L 19.753906 14.945312 L 21.460938 13.980469 Z M 21.460938 14.945312 "/>
<path style=" stroke:none;fill-rule:evenodd;fill:rgb(40.784314%,67.45098%,84.313725%);fill-opacity:1;" d="M 21.460938 14.945312 L 21.460938 13.980469 L 30.714844 8.769531 L 30.714844 16.136719 L 15.453125 24.734375 L 15.453125 17.367188 L 19.753906 14.945312 Z M 21.371094 14.855469 L 19.90625 14.855469 L 21.371094 14.03125 Z M 21.371094 14.855469 "/>
<path style=" stroke:none;fill-rule:evenodd;fill:rgb(41.568627%,67.843137%,84.313725%);fill-opacity:1;" d="M 21.371094 14.855469 L 21.371094 14.03125 L 30.714844 8.769531 L 30.714844 16.136719 L 15.453125 24.734375 L 15.453125 17.367188 L 19.90625 14.855469 Z M 21.28125 14.769531 L 20.066406 14.769531 L 21.28125 14.085938 Z M 21.28125 14.769531 "/>
<path style=" stroke:none;fill-rule:evenodd;fill:rgb(41.960784%,68.235294%,84.313725%);fill-opacity:1;" d="M 21.28125 14.769531 L 21.28125 14.085938 L 30.714844 8.769531 L 30.714844 16.136719 L 15.453125 24.734375 L 15.453125 17.367188 L 20.066406 14.769531 Z M 21.191406 14.683594 L 20.21875 14.683594 L 21.191406 14.136719 Z M 21.191406 14.683594 "/>
<path style=" stroke:none;fill-rule:evenodd;fill:rgb(42.352941%,68.627451%,84.705882%);fill-opacity:1;" d="M 21.191406 14.683594 L 21.191406 14.136719 L 30.714844 8.769531 L 30.714844 16.136719 L 15.453125 24.734375 L 15.453125 17.367188 L 20.21875 14.683594 Z M 21.101562 14.59375 L 20.371094 14.59375 L 21.101562 14.183594 Z M 21.101562 14.59375 "/>
<path style=" stroke:none;fill-rule:evenodd;fill:rgb(43.137255%,68.627451%,84.705882%);fill-opacity:1;" d="M 21.101562 14.59375 L 21.101562 14.183594 L 30.714844 8.769531 L 30.714844 16.136719 L 15.453125 24.734375 L 15.453125 17.367188 L 20.371094 14.59375 Z M 21.011719 14.507812 L 20.535156 14.507812 L 21.011719 14.234375 Z M 21.011719 14.507812 "/>
<path style=" stroke:none;fill-rule:evenodd;fill:rgb(43.529412%,69.019608%,85.098039%);fill-opacity:1;" d="M 21.011719 14.507812 L 21.011719 14.234375 L 30.714844 8.769531 L 30.714844 16.136719 L 15.453125 24.734375 L 15.453125 17.367188 L 20.535156 14.507812 Z M 20.921875 14.417969 L 20.6875 14.417969 L 20.921875 14.289062 Z M 20.921875 14.417969 "/>
<path style=" stroke:none;fill-rule:evenodd;fill:rgb(44.313725%,69.411765%,85.098039%);fill-opacity:1;" d="M 20.921875 14.417969 L 20.921875 14.289062 L 30.714844 8.769531 L 30.714844 16.136719 L 15.453125 24.734375 L 15.453125 17.367188 L 20.6875 14.417969 Z M 20.921875 14.417969 "/>
<path style=" stroke:none;fill-rule:evenodd;fill:rgb(44.705882%,69.803922%,85.098039%);fill-opacity:1;" d="M 15.453125 24.734375 L 15.453125 17.367188 L 30.714844 8.769531 L 30.714844 16.136719 Z M 15.453125 24.734375 "/>
<path style=" stroke:none;fill-rule:evenodd;fill:rgb(45.098039%,69.803922%,85.490196%);fill-opacity:1;" d="M 15.453125 24.734375 L 15.453125 17.367188 L 30.714844 8.769531 L 30.714844 16.136719 Z M 15.453125 24.734375 "/>
<path style=" stroke:none;fill-rule:evenodd;fill:rgb(45.882353%,70.196078%,85.490196%);fill-opacity:1;" d="M 15.453125 24.734375 L 15.453125 17.367188 L 30.714844 8.769531 L 30.714844 16.136719 Z M 15.453125 24.734375 "/>
<path style=" stroke:none;fill-rule:evenodd;fill:rgb(46.27451%,70.588235%,85.490196%);fill-opacity:1;" d="M 15.453125 24.734375 L 15.453125 17.367188 L 30.714844 8.769531 L 30.714844 16.136719 Z M 15.453125 24.734375 "/>
<path style=" stroke:none;fill-rule:evenodd;fill:rgb(47.058824%,70.980392%,85.882353%);fill-opacity:1;" d="M 15.453125 24.734375 L 15.453125 17.367188 L 30.714844 8.769531 L 30.714844 16.136719 Z M 15.453125 24.734375 "/>
<path style=" stroke:none;fill-rule:evenodd;fill:rgb(47.45098%,70.980392%,85.882353%);fill-opacity:1;" d="M 15.453125 24.734375 L 15.453125 17.367188 L 30.714844 8.769531 L 30.714844 16.136719 Z M 15.453125 24.734375 "/>
<path style=" stroke:none;fill-rule:evenodd;fill:rgb(47.843137%,71.372549%,85.882353%);fill-opacity:1;" d="M 15.453125 24.734375 L 15.453125 17.367188 L 30.714844 8.769531 L 30.714844 16.136719 Z M 15.453125 24.734375 "/>
<path style=" stroke:none;fill-rule:evenodd;fill:rgb(48.627451%,71.764706%,86.27451%);fill-opacity:1;" d="M 15.453125 24.734375 L 15.453125 17.367188 L 30.714844 8.769531 L 30.714844 16.136719 Z M 15.453125 24.734375 "/>
<path style="fill-rule:evenodd;fill:rgb(49.803922%,72.54902%,86.666667%);fill-opacity:1;stroke-width:40;stroke-linecap:butt;stroke-linejoin:round;stroke:rgb(100%,100%,100%);stroke-opacity:1;stroke-miterlimit:4;" d="M 13827.054503 13268.158472 L 13827.054503 12428.168125 L 15523.828756 11447.882465 L 15523.828756 12287.872812 Z M 13827.054503 13268.158472 " transform="matrix(0.00899455,0,0,0.00877056,-108.914991,-91.634833)"/>
<path style="fill-rule:evenodd;fill:url(#linear1);stroke-width:40;stroke-linecap:butt;stroke-linejoin:round;stroke:rgb(100%,100%,100%);stroke-opacity:1;stroke-miterlimit:4;" d="M 13827.054503 12428.168125 L 12128.977378 11447.882465 L 13827.054503 10468.042187 L 15523.828756 11447.882465 Z M 13827.054503 12428.168125 " transform="matrix(0.00899455,0,0,0.00877056,-108.914991,-91.634833)"/>
<path style="fill:none;stroke-width:40;stroke-linecap:butt;stroke-linejoin:round;stroke:rgb(0%,0%,0%);stroke-opacity:1;stroke-miterlimit:4;" d="M 12128.977378 12287.872812 L 12128.977378 11447.882465 L 13827.054503 10468.042187 L 15523.828756 11447.882465 L 15523.828756 12287.872812 L 13827.054503 13268.158472 Z M 12128.977378 12287.872812 " transform="matrix(0.00899455,0,0,0.00877056,-108.914991,-91.634833)"/>
<path style="fill-rule:evenodd;fill:rgb(100%,100%,100%);fill-opacity:1;stroke-width:40;stroke-linecap:butt;stroke-linejoin:round;stroke:rgb(100%,100%,100%);stroke-opacity:1;stroke-miterlimit:4;" d="M 14917.124474 11517.807431 L 14309.985901 11867.877639 L 14188.818761 11797.952674 L 14795.957334 11447.882465 L 14674.790194 11377.9575 L 15037.857323 11377.9575 L 15037.857323 11588.177778 Z M 14917.124474 11517.807431 " transform="matrix(0.00899455,0,0,0.00877056,-108.914991,-91.634833)"/>
<path style="fill-rule:evenodd;fill:rgb(100%,100%,100%);fill-opacity:1;stroke-width:40;stroke-linecap:butt;stroke-linejoin:round;stroke:rgb(100%,100%,100%);stroke-opacity:1;stroke-miterlimit:4;" d="M 13583.851641 11867.877639 L 13705.018782 11937.802604 L 13341.08307 11937.802604 L 13341.08307 11728.027708 L 13461.81592 11797.952674 L 14068.085911 11447.882465 L 14188.818761 11517.807431 Z M 13583.851641 11867.877639 " transform="matrix(0.00899455,0,0,0.00877056,-108.914991,-91.634833)"/>
<path style="fill-rule:evenodd;fill:rgb(100%,100%,100%);fill-opacity:1;stroke-width:40;stroke-linecap:butt;stroke-linejoin:round;stroke:rgb(100%,100%,100%);stroke-opacity:1;stroke-miterlimit:4;" d="M 14188.818761 11097.812257 L 13582.98306 11447.882465 L 13461.81592 11377.9575 L 14068.085911 11027.887292 L 13946.918771 10957.962326 L 14309.985901 10957.962326 L 14309.985901 11168.182604 Z M 14188.818761 11097.812257 " transform="matrix(0.00899455,0,0,0.00877056,-108.914991,-91.634833)"/>
<path style="fill-rule:evenodd;fill:rgb(100%,100%,100%);fill-opacity:1;stroke-width:40;stroke-linecap:butt;stroke-linejoin:round;stroke:rgb(100%,100%,100%);stroke-opacity:1;stroke-miterlimit:4;" d="M 12855.980219 11447.882465 L 12977.147359 11517.807431 L 12613.211648 11517.807431 L 12613.211648 11308.032535 L 12733.944497 11377.9575 L 13340.214489 11027.887292 L 13460.947338 11097.812257 Z M 12855.980219 11447.882465 " transform="matrix(0.00899455,0,0,0.00877056,-108.914991,-91.634833)"/>
</g>
</svg>
