<?xml version="1.0" encoding="UTF-8"?>
<svg xmlns="http://www.w3.org/2000/svg" xmlns:xlink="http://www.w3.org/1999/xlink" width="42pt" height="44pt" viewBox="0 0 42 44" version="1.1">
<defs>
<linearGradient id="linear0" gradientUnits="userSpaceOnUse" x1="4608" y1="5417" x2="4608" y2="7791" >
<stop offset="0.1" style="stop-color:rgb(70.196078%,70.196078%,70.196078%);stop-opacity:1;"/>
<stop offset="1" style="stop-color:rgb(89.803922%,89.803922%,89.803922%);stop-opacity:1;"/>
</linearGradient>
<linearGradient id="linear1" gradientUnits="userSpaceOnUse" x1="4211" y1="5011" x2="6664" y2="5015" >
<stop offset="0.1" style="stop-color:rgb(70.196078%,70.196078%,70.196078%);stop-opacity:1;"/>
<stop offset="1" style="stop-color:rgb(89.803922%,89.803922%,89.803922%);stop-opacity:1;"/>
</linearGradient>
<linearGradient id="linear2" gradientUnits="userSpaceOnUse" x1="4300" y1="4935" x2="6578" y2="4939" >
<stop offset="0.1" style="stop-color:rgb(57.647059%,83.137255%,94.117647%);stop-opacity:1;"/>
<stop offset="1" style="stop-color:rgb(91.372549%,96.470588%,98.823529%);stop-opacity:1;"/>
</linearGradient>
<linearGradient id="linear3" gradientUnits="userSpaceOnUse" x1="5482" y1="3144" x2="5482" y2="4609" >
<stop offset="0.1" style="stop-color:rgb(70.196078%,70.196078%,70.196078%);stop-opacity:1;"/>
<stop offset="1" style="stop-color:rgb(89.803922%,89.803922%,89.803922%);stop-opacity:1;"/>
</linearGradient>
<linearGradient id="linear4" gradientUnits="userSpaceOnUse" x1="2553" y1="7208" x2="5002" y2="7212" >
<stop offset="0.1" style="stop-color:rgb(70.196078%,70.196078%,70.196078%);stop-opacity:1;"/>
<stop offset="1" style="stop-color:rgb(89.803922%,89.803922%,89.803922%);stop-opacity:1;"/>
</linearGradient>
</defs>
<g id="surface1">
<path style="fill-rule:evenodd;fill:rgb(86.666667%,86.666667%,86.666667%);fill-opacity:1;stroke-width:40;stroke-linecap:butt;stroke-linejoin:round;stroke:rgb(86.666667%,86.666667%,86.666667%);stroke-opacity:1;stroke-miterlimit:4;" d="M 5004.948413 8043.157887 C 5244.047226 8043.157887 7273.947359 7538.044251 7273.947359 7083.792752 C 7273.947359 6629.102786 6727.879382 6629.102786 6487.893374 6629.102786 C 6487.893374 6780.812263 4917.116195 6932.083274 5004.948413 8043.157887 Z M 5004.948413 8043.157887 " transform="matrix(0.00880585,0,0,0.00890889,-22.322835,-27.831361)"/>
<path style="fill-rule:evenodd;fill:url(#linear0);stroke-width:40;stroke-linecap:butt;stroke-linejoin:round;stroke:rgb(100%,100%,100%);stroke-opacity:1;stroke-miterlimit:4;" d="M 5001.843233 7791.039536 L 2554.961868 6376.984434 L 4214.902054 5417.180832 L 6661.78342 6830.797467 Z M 5001.843233 7791.039536 " transform="matrix(0.00880585,0,0,0.00890889,-22.322835,-27.831361)"/>
<path style="fill-rule:evenodd;fill:rgb(49.803922%,49.803922%,49.803922%);fill-opacity:1;stroke-width:40;stroke-linecap:butt;stroke-linejoin:round;stroke:rgb(100%,100%,100%);stroke-opacity:1;stroke-miterlimit:4;" d="M 3515.793093 6074.003946 L 4214.902054 5670.176117 L 6224.840319 6832.112867 L 5526.174955 7235.940696 Z M 3515.793093 6074.003946 " transform="matrix(0.00880585,0,0,0.00890889,-22.322835,-27.831361)"/>
<path style="fill-rule:evenodd;fill:url(#linear1);stroke-width:40;stroke-linecap:butt;stroke-linejoin:round;stroke:rgb(100%,100%,100%);stroke-opacity:1;stroke-miterlimit:4;" d="M 4214.902054 5418.057765 L 4214.902054 3195.031605 L 6661.78342 4609.086707 L 6661.78342 6832.112867 Z M 4214.902054 5418.057765 " transform="matrix(0.00880585,0,0,0.00890889,-22.322835,-27.831361)"/>
<path style="fill-rule:evenodd;fill:url(#linear2);stroke-width:40;stroke-linecap:butt;stroke-linejoin:round;stroke:rgb(49.803922%,49.803922%,49.803922%);stroke-opacity:1;stroke-miterlimit:4;" d="M 4303.177869 5215.047684 L 4303.177869 3345.864149 L 6574.838397 4659.071911 L 6574.838397 6527.816978 Z M 4303.177869 5215.047684 " transform="matrix(0.00880585,0,0,0.00890889,-22.322835,-27.831361)"/>
<path style="fill-rule:evenodd;fill:url(#linear3);stroke-width:40;stroke-linecap:butt;stroke-linejoin:round;stroke:rgb(100%,100%,100%);stroke-opacity:1;stroke-miterlimit:4;" d="M 6661.78342 4609.086707 L 4214.902054 3195.031605 L 4301.847078 3144.169468 L 6749.17204 4557.786103 Z M 6661.78342 4609.086707 " transform="matrix(0.00880585,0,0,0.00890889,-22.322835,-27.831361)"/>
<path style=" stroke:none;fill-rule:evenodd;fill:rgb(70.196078%,70.196078%,70.196078%);fill-opacity:1;" d="M 36.339844 28.765625 L 36.339844 13.230469 L 37.109375 12.773438 L 37.109375 28.765625 Z M 36.339844 28.765625 "/>
<path style=" stroke:none;fill-rule:evenodd;fill:rgb(70.588235%,70.588235%,70.588235%);fill-opacity:1;" d="M 37.109375 28.765625 L 37.109375 32.578125 L 36.339844 33.023438 L 36.339844 28.765625 Z M 36.339844 28.5625 L 36.339844 13.230469 L 37.109375 12.773438 L 37.109375 28.5625 Z M 36.339844 28.5625 "/>
<path style=" stroke:none;fill-rule:evenodd;fill:rgb(70.980392%,70.980392%,70.980392%);fill-opacity:1;" d="M 37.109375 28.5625 L 37.109375 32.578125 L 36.339844 33.023438 L 36.339844 28.5625 Z M 36.339844 28.355469 L 36.339844 13.230469 L 37.109375 12.773438 L 37.109375 28.355469 Z M 36.339844 28.355469 "/>
<path style=" stroke:none;fill-rule:evenodd;fill:rgb(71.372549%,71.372549%,71.372549%);fill-opacity:1;" d="M 37.109375 28.355469 L 37.109375 32.578125 L 36.339844 33.023438 L 36.339844 28.355469 Z M 36.339844 28.152344 L 36.339844 13.230469 L 37.109375 12.773438 L 37.109375 28.152344 Z M 36.339844 28.152344 "/>
<path style=" stroke:none;fill-rule:evenodd;fill:rgb(71.764706%,71.764706%,71.764706%);fill-opacity:1;" d="M 37.109375 28.152344 L 37.109375 32.578125 L 36.339844 33.023438 L 36.339844 28.152344 Z M 36.339844 27.957031 L 36.339844 13.230469 L 37.109375 12.773438 L 37.109375 27.957031 Z M 36.339844 27.957031 "/>
<path style=" stroke:none;fill-rule:evenodd;fill:rgb(72.156863%,72.156863%,72.156863%);fill-opacity:1;" d="M 37.109375 27.957031 L 37.109375 32.578125 L 36.339844 33.023438 L 36.339844 27.957031 Z M 36.339844 27.75 L 36.339844 13.230469 L 37.109375 12.773438 L 37.109375 27.75 Z M 36.339844 27.75 "/>
<path style=" stroke:none;fill-rule:evenodd;fill:rgb(72.54902%,72.54902%,72.54902%);fill-opacity:1;" d="M 37.109375 27.75 L 37.109375 32.578125 L 36.339844 33.023438 L 36.339844 27.75 Z M 36.339844 27.546875 L 36.339844 13.230469 L 37.109375 12.773438 L 37.109375 27.546875 Z M 36.339844 27.546875 "/>
<path style=" stroke:none;fill-rule:evenodd;fill:rgb(72.941176%,72.941176%,72.941176%);fill-opacity:1;" d="M 37.109375 27.546875 L 37.109375 32.578125 L 36.339844 33.023438 L 36.339844 27.546875 Z M 36.339844 27.339844 L 36.339844 13.230469 L 37.109375 12.773438 L 37.109375 27.339844 Z M 36.339844 27.339844 "/>
<path style=" stroke:none;fill-rule:evenodd;fill:rgb(73.333333%,73.333333%,73.333333%);fill-opacity:1;" d="M 37.109375 27.339844 L 37.109375 32.578125 L 36.339844 33.023438 L 36.339844 27.339844 Z M 36.339844 27.144531 L 36.339844 13.230469 L 37.109375 12.773438 L 37.109375 27.144531 Z M 36.339844 27.144531 "/>
<path style=" stroke:none;fill-rule:evenodd;fill:rgb(73.72549%,73.72549%,73.72549%);fill-opacity:1;" d="M 37.109375 27.144531 L 37.109375 32.578125 L 36.339844 33.023438 L 36.339844 27.144531 Z M 36.339844 26.941406 L 36.339844 13.230469 L 37.109375 12.773438 L 37.109375 26.941406 Z M 36.339844 26.941406 "/>
<path style=" stroke:none;fill-rule:evenodd;fill:rgb(74.117647%,74.117647%,74.117647%);fill-opacity:1;" d="M 37.109375 26.941406 L 37.109375 32.578125 L 36.339844 33.023438 L 36.339844 26.941406 Z M 36.339844 26.734375 L 36.339844 13.230469 L 37.109375 12.773438 L 37.109375 26.734375 Z M 36.339844 26.734375 "/>
<path style=" stroke:none;fill-rule:evenodd;fill:rgb(74.509804%,74.509804%,74.509804%);fill-opacity:1;" d="M 37.109375 26.734375 L 37.109375 32.578125 L 36.339844 33.023438 L 36.339844 26.734375 Z M 36.339844 26.53125 L 36.339844 13.230469 L 37.109375 12.773438 L 37.109375 26.53125 Z M 36.339844 26.53125 "/>
<path style=" stroke:none;fill-rule:evenodd;fill:rgb(74.901961%,74.901961%,74.901961%);fill-opacity:1;" d="M 37.109375 26.53125 L 37.109375 32.578125 L 36.339844 33.023438 L 36.339844 26.53125 Z M 36.339844 26.335938 L 36.339844 13.230469 L 37.109375 12.773438 L 37.109375 26.335938 Z M 36.339844 26.335938 "/>
<path style=" stroke:none;fill-rule:evenodd;fill:rgb(75.294118%,75.294118%,75.294118%);fill-opacity:1;" d="M 37.109375 26.335938 L 37.109375 32.578125 L 36.339844 33.023438 L 36.339844 26.335938 Z M 36.339844 26.128906 L 36.339844 13.230469 L 37.109375 12.773438 L 37.109375 26.128906 Z M 36.339844 26.128906 "/>
<path style=" stroke:none;fill-rule:evenodd;fill:rgb(75.686275%,75.686275%,75.686275%);fill-opacity:1;" d="M 37.109375 26.128906 L 37.109375 32.578125 L 36.339844 33.023438 L 36.339844 26.128906 Z M 36.339844 25.925781 L 36.339844 13.230469 L 37.109375 12.773438 L 37.109375 25.925781 Z M 36.339844 25.925781 "/>
<path style=" stroke:none;fill-rule:evenodd;fill:rgb(76.078431%,76.078431%,76.078431%);fill-opacity:1;" d="M 37.109375 25.925781 L 37.109375 32.578125 L 36.339844 33.023438 L 36.339844 25.925781 Z M 36.339844 25.71875 L 36.339844 13.230469 L 37.109375 12.773438 L 37.109375 25.71875 Z M 36.339844 25.71875 "/>
<path style=" stroke:none;fill-rule:evenodd;fill:rgb(76.470588%,76.470588%,76.470588%);fill-opacity:1;" d="M 37.109375 25.71875 L 37.109375 32.578125 L 36.339844 33.023438 L 36.339844 25.71875 Z M 36.339844 25.523438 L 36.339844 13.230469 L 37.109375 12.773438 L 37.109375 25.523438 Z M 36.339844 25.523438 "/>
<path style=" stroke:none;fill-rule:evenodd;fill:rgb(76.862745%,76.862745%,76.862745%);fill-opacity:1;" d="M 37.109375 25.523438 L 37.109375 32.578125 L 36.339844 33.023438 L 36.339844 25.523438 Z M 36.339844 25.320312 L 36.339844 13.230469 L 37.109375 12.773438 L 37.109375 25.320312 Z M 36.339844 25.320312 "/>
<path style=" stroke:none;fill-rule:evenodd;fill:rgb(77.254902%,77.254902%,77.254902%);fill-opacity:1;" d="M 37.109375 25.320312 L 37.109375 32.578125 L 36.339844 33.023438 L 36.339844 25.320312 Z M 36.339844 25.113281 L 36.339844 13.230469 L 37.109375 12.773438 L 37.109375 25.113281 Z M 36.339844 25.113281 "/>
<path style=" stroke:none;fill-rule:evenodd;fill:rgb(77.647059%,77.647059%,77.647059%);fill-opacity:1;" d="M 37.109375 25.113281 L 37.109375 32.578125 L 36.339844 33.023438 L 36.339844 25.113281 Z M 36.339844 24.910156 L 36.339844 13.230469 L 37.109375 12.773438 L 37.109375 24.910156 Z M 36.339844 24.910156 "/>
<path style=" stroke:none;fill-rule:evenodd;fill:rgb(78.039216%,78.039216%,78.039216%);fill-opacity:1;" d="M 37.109375 24.910156 L 37.109375 32.578125 L 36.339844 33.023438 L 36.339844 24.910156 Z M 37.109375 12.953125 L 37.109375 24.714844 L 36.339844 24.714844 L 36.339844 13.230469 L 36.808594 12.953125 Z M 37.109375 12.953125 "/>
<path style=" stroke:none;fill-rule:evenodd;fill:rgb(78.431373%,78.431373%,78.431373%);fill-opacity:1;" d="M 37.109375 24.714844 L 37.109375 32.578125 L 36.339844 33.023438 L 36.339844 24.714844 Z M 36.808594 12.953125 L 37.109375 12.773438 L 37.109375 12.953125 Z M 37.109375 13.160156 L 37.109375 24.507812 L 36.339844 24.507812 L 36.339844 13.230469 L 36.464844 13.160156 Z M 37.109375 13.160156 "/>
<path style=" stroke:none;fill-rule:evenodd;fill:rgb(78.823529%,78.823529%,78.823529%);fill-opacity:1;" d="M 37.109375 24.507812 L 37.109375 32.578125 L 36.339844 33.023438 L 36.339844 24.507812 Z M 36.464844 13.160156 L 37.109375 12.773438 L 37.109375 13.160156 Z M 37.109375 13.363281 L 37.109375 24.304688 L 36.339844 24.304688 L 36.339844 13.363281 Z M 37.109375 13.363281 "/>
<path style=" stroke:none;fill-rule:evenodd;fill:rgb(79.215686%,79.215686%,79.215686%);fill-opacity:1;" d="M 37.109375 24.304688 L 37.109375 32.578125 L 36.339844 33.023438 L 36.339844 24.304688 Z M 36.339844 13.363281 L 36.339844 13.230469 L 37.109375 12.773438 L 37.109375 13.363281 Z M 37.109375 13.566406 L 37.109375 24.097656 L 36.339844 24.097656 L 36.339844 13.566406 Z M 37.109375 13.566406 "/>
<path style=" stroke:none;fill-rule:evenodd;fill:rgb(79.607843%,79.607843%,79.607843%);fill-opacity:1;" d="M 37.109375 24.097656 L 37.109375 32.578125 L 36.339844 33.023438 L 36.339844 24.097656 Z M 36.339844 13.566406 L 36.339844 13.230469 L 37.109375 12.773438 L 37.109375 13.566406 Z M 37.109375 13.765625 L 37.109375 23.902344 L 36.339844 23.902344 L 36.339844 13.765625 Z M 37.109375 13.765625 "/>
<path style=" stroke:none;fill-rule:evenodd;fill:rgb(80%,80%,80%);fill-opacity:1;" d="M 37.109375 23.902344 L 37.109375 32.578125 L 36.339844 33.023438 L 36.339844 23.902344 Z M 36.339844 13.765625 L 36.339844 13.230469 L 37.109375 12.773438 L 37.109375 13.765625 Z M 37.109375 13.96875 L 37.109375 23.699219 L 36.339844 23.699219 L 36.339844 13.96875 Z M 37.109375 13.96875 "/>
<path style=" stroke:none;fill-rule:evenodd;fill:rgb(80.392157%,80.392157%,80.392157%);fill-opacity:1;" d="M 37.109375 23.699219 L 37.109375 32.578125 L 36.339844 33.023438 L 36.339844 23.699219 Z M 36.339844 13.96875 L 36.339844 13.230469 L 37.109375 12.773438 L 37.109375 13.96875 Z M 37.109375 14.175781 L 37.109375 23.492188 L 36.339844 23.492188 L 36.339844 14.175781 Z M 37.109375 14.175781 "/>
<path style=" stroke:none;fill-rule:evenodd;fill:rgb(80.784314%,80.784314%,80.784314%);fill-opacity:1;" d="M 37.109375 23.492188 L 37.109375 32.578125 L 36.339844 33.023438 L 36.339844 23.492188 Z M 36.339844 14.175781 L 36.339844 13.230469 L 37.109375 12.773438 L 37.109375 14.175781 Z M 37.109375 14.378906 L 37.109375 23.289062 L 36.339844 23.289062 L 36.339844 14.378906 Z M 37.109375 14.378906 "/>
<path style=" stroke:none;fill-rule:evenodd;fill:rgb(81.176471%,81.176471%,81.176471%);fill-opacity:1;" d="M 37.109375 23.289062 L 37.109375 32.578125 L 36.339844 33.023438 L 36.339844 23.289062 Z M 36.339844 14.378906 L 36.339844 13.230469 L 37.109375 12.773438 L 37.109375 14.378906 Z M 37.109375 14.582031 L 37.109375 23.082031 L 36.339844 23.082031 L 36.339844 14.582031 Z M 37.109375 14.582031 "/>
<path style=" stroke:none;fill-rule:evenodd;fill:rgb(81.568627%,81.568627%,81.568627%);fill-opacity:1;" d="M 37.109375 23.082031 L 37.109375 32.578125 L 36.339844 33.023438 L 36.339844 23.082031 Z M 36.339844 14.582031 L 36.339844 13.230469 L 37.109375 12.773438 L 37.109375 14.582031 Z M 37.109375 14.78125 L 37.109375 22.886719 L 36.339844 22.886719 L 36.339844 14.78125 Z M 37.109375 14.78125 "/>
<path style=" stroke:none;fill-rule:evenodd;fill:rgb(81.960784%,81.960784%,81.960784%);fill-opacity:1;" d="M 37.109375 22.886719 L 37.109375 32.578125 L 36.339844 33.023438 L 36.339844 22.886719 Z M 36.339844 14.78125 L 36.339844 13.230469 L 37.109375 12.773438 L 37.109375 14.78125 Z M 37.109375 14.984375 L 37.109375 22.683594 L 36.339844 22.683594 L 36.339844 14.984375 Z M 37.109375 14.984375 "/>
<path style=" stroke:none;fill-rule:evenodd;fill:rgb(82.352941%,82.352941%,82.352941%);fill-opacity:1;" d="M 37.109375 22.683594 L 37.109375 32.578125 L 36.339844 33.023438 L 36.339844 22.683594 Z M 36.339844 14.984375 L 36.339844 13.230469 L 37.109375 12.773438 L 37.109375 14.984375 Z M 37.109375 15.191406 L 37.109375 22.476562 L 36.339844 22.476562 L 36.339844 15.191406 Z M 37.109375 15.191406 "/>
<path style=" stroke:none;fill-rule:evenodd;fill:rgb(82.745098%,82.745098%,82.745098%);fill-opacity:1;" d="M 37.109375 22.476562 L 37.109375 32.578125 L 36.339844 33.023438 L 36.339844 22.476562 Z M 36.339844 15.191406 L 36.339844 13.230469 L 37.109375 12.773438 L 37.109375 15.191406 Z M 37.109375 15.394531 L 37.109375 22.273438 L 36.339844 22.273438 L 36.339844 15.394531 Z M 37.109375 15.394531 "/>
<path style=" stroke:none;fill-rule:evenodd;fill:rgb(83.137255%,83.137255%,83.137255%);fill-opacity:1;" d="M 37.109375 22.273438 L 37.109375 32.578125 L 36.339844 33.023438 L 36.339844 22.273438 Z M 36.339844 15.394531 L 36.339844 13.230469 L 37.109375 12.773438 L 37.109375 15.394531 Z M 37.109375 15.589844 L 37.109375 22.078125 L 36.339844 22.078125 L 36.339844 15.589844 Z M 37.109375 15.589844 "/>
<path style=" stroke:none;fill-rule:evenodd;fill:rgb(83.529412%,83.529412%,83.529412%);fill-opacity:1;" d="M 37.109375 22.078125 L 37.109375 32.578125 L 36.339844 33.023438 L 36.339844 22.078125 Z M 36.339844 15.589844 L 36.339844 13.230469 L 37.109375 12.773438 L 37.109375 15.589844 Z M 37.109375 15.796875 L 37.109375 21.871094 L 36.339844 21.871094 L 36.339844 15.796875 Z M 37.109375 15.796875 "/>
<path style=" stroke:none;fill-rule:evenodd;fill:rgb(83.921569%,83.921569%,83.921569%);fill-opacity:1;" d="M 37.109375 21.871094 L 37.109375 32.578125 L 36.339844 33.023438 L 36.339844 21.871094 Z M 36.339844 15.796875 L 36.339844 13.230469 L 37.109375 12.773438 L 37.109375 15.796875 Z M 37.109375 16 L 37.109375 21.667969 L 36.339844 21.667969 L 36.339844 16 Z M 37.109375 16 "/>
<path style=" stroke:none;fill-rule:evenodd;fill:rgb(84.313725%,84.313725%,84.313725%);fill-opacity:1;" d="M 37.109375 21.667969 L 37.109375 32.578125 L 36.339844 33.023438 L 36.339844 21.667969 Z M 36.339844 16 L 36.339844 13.230469 L 37.109375 12.773438 L 37.109375 16 Z M 37.109375 16.207031 L 37.109375 21.460938 L 36.339844 21.460938 L 36.339844 16.207031 Z M 37.109375 16.207031 "/>
<path style=" stroke:none;fill-rule:evenodd;fill:rgb(84.705882%,84.705882%,84.705882%);fill-opacity:1;" d="M 37.109375 21.460938 L 37.109375 32.578125 L 36.339844 33.023438 L 36.339844 21.460938 Z M 36.339844 16.207031 L 36.339844 13.230469 L 37.109375 12.773438 L 37.109375 16.207031 Z M 37.109375 16.402344 L 37.109375 21.265625 L 36.339844 21.265625 L 36.339844 16.402344 Z M 37.109375 16.402344 "/>
<path style=" stroke:none;fill-rule:evenodd;fill:rgb(85.098039%,85.098039%,85.098039%);fill-opacity:1;" d="M 37.109375 21.265625 L 37.109375 32.578125 L 36.339844 33.023438 L 36.339844 21.265625 Z M 36.339844 16.402344 L 36.339844 13.230469 L 37.109375 12.773438 L 37.109375 16.402344 Z M 37.109375 16.605469 L 37.109375 21.0625 L 36.339844 21.0625 L 36.339844 16.605469 Z M 37.109375 16.605469 "/>
<path style=" stroke:none;fill-rule:evenodd;fill:rgb(85.490196%,85.490196%,85.490196%);fill-opacity:1;" d="M 37.109375 21.0625 L 37.109375 32.578125 L 36.339844 33.023438 L 36.339844 21.0625 Z M 36.339844 16.605469 L 36.339844 13.230469 L 37.109375 12.773438 L 37.109375 16.605469 Z M 37.109375 16.8125 L 37.109375 20.855469 L 36.339844 20.855469 L 36.339844 16.8125 Z M 37.109375 16.8125 "/>
<path style=" stroke:none;fill-rule:evenodd;fill:rgb(85.882353%,85.882353%,85.882353%);fill-opacity:1;" d="M 37.109375 20.855469 L 37.109375 32.578125 L 36.339844 33.023438 L 36.339844 20.855469 Z M 36.339844 16.8125 L 36.339844 13.230469 L 37.109375 12.773438 L 37.109375 16.8125 Z M 37.109375 17.015625 L 37.109375 20.652344 L 36.339844 20.652344 L 36.339844 17.015625 Z M 37.109375 17.015625 "/>
<path style=" stroke:none;fill-rule:evenodd;fill:rgb(86.27451%,86.27451%,86.27451%);fill-opacity:1;" d="M 37.109375 20.652344 L 37.109375 32.578125 L 36.339844 33.023438 L 36.339844 20.652344 Z M 36.339844 17.015625 L 36.339844 13.230469 L 37.109375 12.773438 L 37.109375 17.015625 Z M 37.109375 17.210938 L 37.109375 20.453125 L 36.339844 20.453125 L 36.339844 17.210938 Z M 37.109375 17.210938 "/>
<path style=" stroke:none;fill-rule:evenodd;fill:rgb(86.666667%,86.666667%,86.666667%);fill-opacity:1;" d="M 37.109375 20.453125 L 37.109375 32.578125 L 36.339844 33.023438 L 36.339844 20.453125 Z M 36.339844 17.210938 L 36.339844 13.230469 L 37.109375 12.773438 L 37.109375 17.210938 Z M 37.109375 17.417969 L 37.109375 20.25 L 36.339844 20.25 L 36.339844 17.417969 Z M 37.109375 17.417969 "/>
<path style=" stroke:none;fill-rule:evenodd;fill:rgb(87.058824%,87.058824%,87.058824%);fill-opacity:1;" d="M 37.109375 20.25 L 37.109375 32.578125 L 36.339844 33.023438 L 36.339844 20.25 Z M 36.339844 17.417969 L 36.339844 13.230469 L 37.109375 12.773438 L 37.109375 17.417969 Z M 37.109375 17.621094 L 37.109375 20.046875 L 36.339844 20.046875 L 36.339844 17.621094 Z M 37.109375 17.621094 "/>
<path style=" stroke:none;fill-rule:evenodd;fill:rgb(87.45098%,87.45098%,87.45098%);fill-opacity:1;" d="M 37.109375 20.046875 L 37.109375 32.578125 L 36.339844 33.023438 L 36.339844 20.046875 Z M 36.339844 17.621094 L 36.339844 13.230469 L 37.109375 12.773438 L 37.109375 17.621094 Z M 37.109375 17.828125 L 37.109375 19.839844 L 36.339844 19.839844 L 36.339844 17.828125 Z M 37.109375 17.828125 "/>
<path style=" stroke:none;fill-rule:evenodd;fill:rgb(87.843137%,87.843137%,87.843137%);fill-opacity:1;" d="M 37.109375 19.839844 L 37.109375 32.578125 L 36.339844 33.023438 L 36.339844 19.839844 Z M 36.339844 17.828125 L 36.339844 13.230469 L 37.109375 12.773438 L 37.109375 17.828125 Z M 37.109375 18.023438 L 37.109375 19.644531 L 36.339844 19.644531 L 36.339844 18.023438 Z M 37.109375 18.023438 "/>
<path style=" stroke:none;fill-rule:evenodd;fill:rgb(88.235294%,88.235294%,88.235294%);fill-opacity:1;" d="M 37.109375 19.644531 L 37.109375 32.578125 L 36.339844 33.023438 L 36.339844 19.644531 Z M 36.339844 18.023438 L 36.339844 13.230469 L 37.109375 12.773438 L 37.109375 18.023438 Z M 37.109375 18.226562 L 37.109375 19.4375 L 36.339844 19.4375 L 36.339844 18.226562 Z M 37.109375 18.226562 "/>
<path style=" stroke:none;fill-rule:evenodd;fill:rgb(88.627451%,88.627451%,88.627451%);fill-opacity:1;" d="M 37.109375 19.4375 L 37.109375 32.578125 L 36.339844 33.023438 L 36.339844 19.4375 Z M 36.339844 18.226562 L 36.339844 13.230469 L 37.109375 12.773438 L 37.109375 18.226562 Z M 36.957031 18.433594 L 36.957031 19.234375 L 36.339844 19.234375 L 36.339844 18.433594 Z M 36.957031 18.433594 "/>
<path style=" stroke:none;fill-rule:evenodd;fill:rgb(89.019608%,89.019608%,89.019608%);fill-opacity:1;" d="M 36.957031 19.234375 L 36.957031 18.433594 L 36.339844 18.433594 L 36.339844 13.230469 L 37.109375 12.773438 L 37.109375 32.578125 L 36.339844 33.023438 L 36.339844 19.234375 Z M 36.367188 18.636719 L 36.753906 18.636719 L 36.753906 19.03125 L 36.367188 19.03125 Z M 36.367188 18.636719 "/>
<path style=" stroke:none;fill-rule:evenodd;fill:rgb(89.803922%,89.803922%,89.803922%);fill-opacity:1;" d="M 36.367188 18.636719 L 36.367188 19.03125 L 36.753906 19.03125 L 36.753906 18.636719 Z M 36.339844 33.023438 L 36.339844 13.230469 L 37.109375 12.773438 L 37.109375 32.578125 Z M 36.339844 33.023438 "/>
<path style="fill:none;stroke-width:40;stroke-linecap:butt;stroke-linejoin:round;stroke:rgb(100%,100%,100%);stroke-opacity:1;stroke-miterlimit:4;" d="M 6661.78342 6830.797467 L 6661.78342 4609.086707 L 6749.17204 4557.786103 L 6749.17204 6780.812263 Z M 6661.78342 6830.797467 " transform="matrix(0.00880585,0,0,0.00890889,-22.322835,-27.831361)"/>
<path style=" stroke:none;fill-rule:evenodd;fill:rgb(70.196078%,70.196078%,70.196078%);fill-opacity:1;" d="M 33.269531 37.078125 L 22.261719 43.511719 L 21.722656 43.511719 L 21.722656 41.578125 L 33.269531 34.824219 Z M 33.269531 37.078125 "/>
<path style=" stroke:none;fill-rule:evenodd;fill:rgb(70.588235%,70.588235%,70.588235%);fill-opacity:1;" d="M 22.261719 43.511719 L 21.722656 43.824219 L 21.722656 43.511719 Z M 33.269531 34.824219 L 36.339844 33.023438 L 36.339844 35.277344 L 33.269531 37.078125 Z M 33.117188 37.160156 L 22.515625 43.359375 L 21.722656 43.359375 L 21.722656 41.578125 L 33.117188 34.914062 Z M 33.117188 37.160156 "/>
<path style=" stroke:none;fill-rule:evenodd;fill:rgb(70.980392%,70.980392%,70.980392%);fill-opacity:1;" d="M 22.515625 43.359375 L 21.722656 43.824219 L 21.722656 43.359375 Z M 33.117188 34.914062 L 36.339844 33.023438 L 36.339844 35.277344 L 33.117188 37.160156 Z M 32.976562 37.25 L 22.761719 43.21875 L 21.722656 43.21875 L 21.722656 41.578125 L 32.976562 34.992188 Z M 32.976562 37.25 "/>
<path style=" stroke:none;fill-rule:evenodd;fill:rgb(71.372549%,71.372549%,71.372549%);fill-opacity:1;" d="M 22.761719 43.21875 L 21.722656 43.824219 L 21.722656 43.21875 Z M 32.976562 34.992188 L 36.339844 33.023438 L 36.339844 35.277344 L 32.976562 37.25 Z M 32.828125 37.335938 L 23.019531 43.066406 L 21.722656 43.066406 L 21.722656 41.578125 L 32.828125 35.082031 Z M 32.828125 37.335938 "/>
<path style=" stroke:none;fill-rule:evenodd;fill:rgb(71.764706%,71.764706%,71.764706%);fill-opacity:1;" d="M 23.019531 43.066406 L 21.722656 43.824219 L 21.722656 43.066406 Z M 32.828125 35.082031 L 36.339844 33.023438 L 36.339844 35.277344 L 32.828125 37.335938 Z M 32.679688 37.417969 L 23.28125 42.914062 L 21.722656 42.914062 L 21.722656 41.578125 L 32.679688 35.171875 Z M 32.679688 37.417969 "/>
<path style=" stroke:none;fill-rule:evenodd;fill:rgb(72.156863%,72.156863%,72.156863%);fill-opacity:1;" d="M 23.28125 42.914062 L 21.722656 43.824219 L 21.722656 42.914062 Z M 32.679688 35.171875 L 36.339844 33.023438 L 36.339844 35.277344 L 32.679688 37.417969 Z M 32.539062 37.507812 L 23.519531 42.773438 L 21.722656 42.773438 L 21.722656 41.578125 L 32.539062 35.253906 Z M 32.539062 37.507812 "/>
<path style=" stroke:none;fill-rule:evenodd;fill:rgb(72.54902%,72.54902%,72.54902%);fill-opacity:1;" d="M 23.519531 42.773438 L 21.722656 43.824219 L 21.722656 42.773438 Z M 32.539062 35.253906 L 36.339844 33.023438 L 36.339844 35.277344 L 32.539062 37.507812 Z M 32.386719 37.585938 L 23.785156 42.621094 L 21.722656 42.621094 L 21.722656 41.578125 L 32.386719 35.339844 Z M 32.386719 37.585938 "/>
<path style=" stroke:none;fill-rule:evenodd;fill:rgb(72.941176%,72.941176%,72.941176%);fill-opacity:1;" d="M 23.785156 42.621094 L 21.722656 43.824219 L 21.722656 42.621094 Z M 32.386719 35.339844 L 36.339844 33.023438 L 36.339844 35.277344 L 32.386719 37.585938 Z M 32.238281 37.675781 L 24.039062 42.46875 L 21.722656 42.46875 L 21.722656 41.578125 L 32.238281 35.421875 Z M 32.238281 37.675781 "/>
<path style=" stroke:none;fill-rule:evenodd;fill:rgb(73.333333%,73.333333%,73.333333%);fill-opacity:1;" d="M 24.039062 42.46875 L 21.722656 43.824219 L 21.722656 42.46875 Z M 32.238281 35.421875 L 36.339844 33.023438 L 36.339844 35.277344 L 32.238281 37.675781 Z M 32.097656 37.757812 L 24.285156 42.324219 L 21.722656 42.324219 L 21.722656 41.578125 L 32.097656 35.511719 Z M 32.097656 37.757812 "/>
<path style=" stroke:none;fill-rule:evenodd;fill:rgb(73.72549%,73.72549%,73.72549%);fill-opacity:1;" d="M 24.285156 42.324219 L 21.722656 43.824219 L 21.722656 42.324219 Z M 32.097656 35.511719 L 36.339844 33.023438 L 36.339844 35.277344 L 32.097656 37.757812 Z M 31.949219 37.84375 L 24.542969 42.175781 L 21.722656 42.175781 L 21.722656 41.578125 L 31.949219 35.601562 Z M 31.949219 37.84375 "/>
<path style=" stroke:none;fill-rule:evenodd;fill:rgb(74.117647%,74.117647%,74.117647%);fill-opacity:1;" d="M 24.542969 42.175781 L 21.722656 43.824219 L 21.722656 42.175781 Z M 31.949219 35.601562 L 36.339844 33.023438 L 36.339844 35.277344 L 31.949219 37.84375 Z M 31.808594 37.933594 L 24.789062 42.03125 L 21.722656 42.03125 L 21.722656 41.578125 L 31.808594 35.679688 Z M 31.808594 37.933594 "/>
<path style=" stroke:none;fill-rule:evenodd;fill:rgb(74.509804%,74.509804%,74.509804%);fill-opacity:1;" d="M 24.789062 42.03125 L 21.722656 43.824219 L 21.722656 42.03125 Z M 31.808594 35.679688 L 36.339844 33.023438 L 36.339844 35.277344 L 31.808594 37.933594 Z M 31.65625 38.015625 L 25.042969 41.878906 L 21.722656 41.878906 L 21.722656 41.578125 L 31.65625 35.769531 Z M 31.65625 38.015625 "/>
<path style=" stroke:none;fill-rule:evenodd;fill:rgb(74.901961%,74.901961%,74.901961%);fill-opacity:1;" d="M 25.042969 41.878906 L 21.722656 43.824219 L 21.722656 41.878906 Z M 31.65625 35.769531 L 36.339844 33.023438 L 36.339844 35.277344 L 31.65625 38.015625 Z M 31.507812 38.101562 L 25.308594 41.730469 L 21.722656 41.730469 L 21.722656 41.578125 L 31.507812 35.847656 Z M 31.507812 38.101562 "/>
<path style=" stroke:none;fill-rule:evenodd;fill:rgb(75.294118%,75.294118%,75.294118%);fill-opacity:1;" d="M 25.308594 41.730469 L 21.722656 43.824219 L 21.722656 41.730469 Z M 31.507812 35.847656 L 36.339844 33.023438 L 36.339844 35.277344 L 31.507812 38.101562 Z M 31.367188 38.183594 L 25.546875 41.585938 L 21.722656 41.585938 L 21.722656 41.578125 L 31.367188 35.9375 Z M 31.367188 38.183594 "/>
<path style=" stroke:none;fill-rule:evenodd;fill:rgb(75.686275%,75.686275%,75.686275%);fill-opacity:1;" d="M 25.546875 41.585938 L 21.722656 43.824219 L 21.722656 41.585938 Z M 31.367188 35.9375 L 36.339844 33.023438 L 36.339844 35.277344 L 31.367188 38.183594 Z M 31.214844 38.273438 L 25.808594 41.433594 L 21.96875 41.433594 L 31.214844 36.027344 Z M 31.214844 38.273438 "/>
<path style=" stroke:none;fill-rule:evenodd;fill:rgb(76.078431%,76.078431%,76.078431%);fill-opacity:1;" d="M 25.808594 41.433594 L 21.722656 43.824219 L 21.722656 41.578125 L 21.96875 41.433594 Z M 31.214844 36.027344 L 36.339844 33.023438 L 36.339844 35.277344 L 31.214844 38.273438 Z M 31.066406 38.363281 L 26.066406 41.285156 L 22.226562 41.285156 L 31.066406 36.109375 Z M 31.066406 38.363281 "/>
<path style=" stroke:none;fill-rule:evenodd;fill:rgb(76.470588%,76.470588%,76.470588%);fill-opacity:1;" d="M 26.066406 41.285156 L 21.722656 43.824219 L 21.722656 41.578125 L 22.226562 41.285156 Z M 31.066406 36.109375 L 36.339844 33.023438 L 36.339844 35.277344 L 31.066406 38.363281 Z M 30.925781 38.441406 L 26.3125 41.140625 L 22.472656 41.140625 L 30.925781 36.195312 Z M 30.925781 38.441406 "/>
<path style=" stroke:none;fill-rule:evenodd;fill:rgb(76.862745%,76.862745%,76.862745%);fill-opacity:1;" d="M 26.3125 41.140625 L 21.722656 43.824219 L 21.722656 41.578125 L 22.472656 41.140625 Z M 30.925781 36.195312 L 36.339844 33.023438 L 36.339844 35.277344 L 30.925781 38.441406 Z M 30.777344 38.53125 L 26.566406 40.988281 L 22.726562 40.988281 L 30.777344 36.277344 Z M 30.777344 38.53125 "/>
<path style=" stroke:none;fill-rule:evenodd;fill:rgb(77.254902%,77.254902%,77.254902%);fill-opacity:1;" d="M 26.566406 40.988281 L 21.722656 43.824219 L 21.722656 41.578125 L 22.726562 40.988281 Z M 30.777344 36.277344 L 36.339844 33.023438 L 36.339844 35.277344 L 30.777344 38.53125 Z M 30.636719 38.609375 L 26.8125 40.847656 L 22.972656 40.847656 L 30.636719 36.367188 Z M 30.636719 38.609375 "/>
<path style=" stroke:none;fill-rule:evenodd;fill:rgb(77.647059%,77.647059%,77.647059%);fill-opacity:1;" d="M 26.8125 40.847656 L 21.722656 43.824219 L 21.722656 41.578125 L 22.972656 40.847656 Z M 30.636719 36.367188 L 36.339844 33.023438 L 36.339844 35.277344 L 30.636719 38.609375 Z M 30.484375 38.699219 L 27.078125 40.695312 L 23.230469 40.695312 L 30.484375 36.457031 Z M 30.484375 38.699219 "/>
<path style=" stroke:none;fill-rule:evenodd;fill:rgb(78.039216%,78.039216%,78.039216%);fill-opacity:1;" d="M 27.078125 40.695312 L 21.722656 43.824219 L 21.722656 41.578125 L 23.230469 40.695312 Z M 30.484375 36.457031 L 36.339844 33.023438 L 36.339844 35.277344 L 30.484375 38.699219 Z M 30.335938 38.789062 L 27.332031 40.542969 L 23.492188 40.542969 L 30.335938 36.535156 Z M 30.335938 38.789062 "/>
<path style=" stroke:none;fill-rule:evenodd;fill:rgb(78.431373%,78.431373%,78.431373%);fill-opacity:1;" d="M 27.332031 40.542969 L 21.722656 43.824219 L 21.722656 41.578125 L 23.492188 40.542969 Z M 30.335938 36.535156 L 36.339844 33.023438 L 36.339844 35.277344 L 30.335938 38.789062 Z M 30.195312 38.871094 L 27.578125 40.402344 L 23.730469 40.402344 L 30.195312 36.625 Z M 30.195312 38.871094 "/>
<path style=" stroke:none;fill-rule:evenodd;fill:rgb(78.823529%,78.823529%,78.823529%);fill-opacity:1;" d="M 27.578125 40.402344 L 21.722656 43.824219 L 21.722656 41.578125 L 23.730469 40.402344 Z M 30.195312 36.625 L 36.339844 33.023438 L 36.339844 35.277344 L 30.195312 38.871094 Z M 30.046875 38.957031 L 27.835938 40.25 L 23.996094 40.25 L 30.046875 36.703125 Z M 30.046875 38.957031 "/>
<path style=" stroke:none;fill-rule:evenodd;fill:rgb(79.215686%,79.215686%,79.215686%);fill-opacity:1;" d="M 27.835938 40.25 L 21.722656 43.824219 L 21.722656 41.578125 L 23.996094 40.25 Z M 30.046875 36.703125 L 36.339844 33.023438 L 36.339844 35.277344 L 30.046875 38.957031 Z M 29.894531 39.046875 L 28.097656 40.097656 L 24.25 40.097656 L 29.894531 36.792969 Z M 29.894531 39.046875 "/>
<path style=" stroke:none;fill-rule:evenodd;fill:rgb(79.607843%,79.607843%,79.607843%);fill-opacity:1;" d="M 28.097656 40.097656 L 21.722656 43.824219 L 21.722656 41.578125 L 24.25 40.097656 Z M 29.894531 36.792969 L 36.339844 33.023438 L 36.339844 35.277344 L 29.894531 39.046875 Z M 29.753906 39.128906 L 28.335938 39.957031 L 24.496094 39.957031 L 29.753906 36.882812 Z M 29.753906 39.128906 "/>
<path style=" stroke:none;fill-rule:evenodd;fill:rgb(80%,80%,80%);fill-opacity:1;" d="M 28.335938 39.957031 L 21.722656 43.824219 L 21.722656 41.578125 L 24.496094 39.957031 Z M 29.753906 36.882812 L 36.339844 33.023438 L 36.339844 35.277344 L 29.753906 39.128906 Z M 29.605469 39.21875 L 28.601562 39.804688 L 24.753906 39.804688 L 29.605469 36.964844 Z M 29.605469 39.21875 "/>
<path style=" stroke:none;fill-rule:evenodd;fill:rgb(80.392157%,80.392157%,80.392157%);fill-opacity:1;" d="M 28.601562 39.804688 L 21.722656 43.824219 L 21.722656 41.578125 L 24.753906 39.804688 Z M 29.605469 36.964844 L 36.339844 33.023438 L 36.339844 35.277344 L 29.605469 39.21875 Z M 29.457031 39.304688 L 28.855469 39.652344 L 25.015625 39.652344 L 29.457031 37.050781 Z M 29.457031 39.304688 "/>
<path style=" stroke:none;fill-rule:evenodd;fill:rgb(80.784314%,80.784314%,80.784314%);fill-opacity:1;" d="M 28.855469 39.652344 L 21.722656 43.824219 L 21.722656 41.578125 L 25.015625 39.652344 Z M 29.457031 37.050781 L 36.339844 33.023438 L 36.339844 35.277344 L 29.457031 39.304688 Z M 29.316406 39.386719 L 29.101562 39.511719 L 25.253906 39.511719 L 29.316406 37.132812 Z M 29.316406 39.386719 "/>
<path style=" stroke:none;fill-rule:evenodd;fill:rgb(81.176471%,81.176471%,81.176471%);fill-opacity:1;" d="M 29.101562 39.511719 L 21.722656 43.824219 L 21.722656 41.578125 L 25.253906 39.511719 Z M 29.316406 37.132812 L 36.339844 33.023438 L 36.339844 35.277344 L 29.316406 39.386719 Z M 29.164062 39.359375 L 25.519531 39.359375 L 29.164062 37.222656 Z M 29.164062 39.359375 "/>
<path style=" stroke:none;fill-rule:evenodd;fill:rgb(81.568627%,81.568627%,81.568627%);fill-opacity:1;" d="M 29.164062 39.359375 L 29.164062 37.222656 L 36.339844 33.023438 L 36.339844 35.277344 L 21.722656 43.824219 L 21.722656 41.578125 L 25.519531 39.359375 Z M 29.023438 39.21875 L 25.757812 39.21875 L 29.023438 37.308594 Z M 29.023438 39.21875 "/>
<path style=" stroke:none;fill-rule:evenodd;fill:rgb(81.960784%,81.960784%,81.960784%);fill-opacity:1;" d="M 29.023438 39.21875 L 29.023438 37.308594 L 36.339844 33.023438 L 36.339844 35.277344 L 21.722656 43.824219 L 21.722656 41.578125 L 25.757812 39.21875 Z M 28.875 39.066406 L 26.019531 39.066406 L 28.875 37.390625 Z M 28.875 39.066406 "/>
<path style=" stroke:none;fill-rule:evenodd;fill:rgb(82.352941%,82.352941%,82.352941%);fill-opacity:1;" d="M 28.875 39.066406 L 28.875 37.390625 L 36.339844 33.023438 L 36.339844 35.277344 L 21.722656 43.824219 L 21.722656 41.578125 L 26.019531 39.066406 Z M 28.726562 38.914062 L 26.277344 38.914062 L 28.726562 37.480469 Z M 28.726562 38.914062 "/>
<path style=" stroke:none;fill-rule:evenodd;fill:rgb(82.745098%,82.745098%,82.745098%);fill-opacity:1;" d="M 28.726562 38.914062 L 28.726562 37.480469 L 36.339844 33.023438 L 36.339844 35.277344 L 21.722656 43.824219 L 21.722656 41.578125 L 26.277344 38.914062 Z M 28.582031 38.769531 L 26.523438 38.769531 L 28.582031 37.558594 Z M 28.582031 38.769531 "/>
<path style=" stroke:none;fill-rule:evenodd;fill:rgb(83.137255%,83.137255%,83.137255%);fill-opacity:1;" d="M 28.582031 38.769531 L 28.582031 37.558594 L 36.339844 33.023438 L 36.339844 35.277344 L 21.722656 43.824219 L 21.722656 41.578125 L 26.523438 38.769531 Z M 28.433594 38.621094 L 26.777344 38.621094 L 28.433594 37.648438 Z M 28.433594 38.621094 "/>
<path style=" stroke:none;fill-rule:evenodd;fill:rgb(83.529412%,83.529412%,83.529412%);fill-opacity:1;" d="M 28.433594 38.621094 L 28.433594 37.648438 L 36.339844 33.023438 L 36.339844 35.277344 L 21.722656 43.824219 L 21.722656 41.578125 L 26.777344 38.621094 Z M 28.285156 38.46875 L 27.035156 38.46875 L 28.285156 37.738281 Z M 28.285156 38.46875 "/>
<path style=" stroke:none;fill-rule:evenodd;fill:rgb(83.921569%,83.921569%,83.921569%);fill-opacity:1;" d="M 28.285156 38.46875 L 28.285156 37.738281 L 36.339844 33.023438 L 36.339844 35.277344 L 21.722656 43.824219 L 21.722656 41.578125 L 27.035156 38.46875 Z M 28.144531 38.324219 L 27.28125 38.324219 L 28.144531 37.816406 Z M 28.144531 38.324219 "/>
<path style=" stroke:none;fill-rule:evenodd;fill:rgb(84.313725%,84.313725%,84.313725%);fill-opacity:1;" d="M 28.144531 38.324219 L 28.144531 37.816406 L 36.339844 33.023438 L 36.339844 35.277344 L 21.722656 43.824219 L 21.722656 41.578125 L 27.28125 38.324219 Z M 27.992188 38.175781 L 27.542969 38.175781 L 27.992188 37.90625 Z M 27.992188 38.175781 "/>
<path style=" stroke:none;fill-rule:evenodd;fill:rgb(84.705882%,84.705882%,84.705882%);fill-opacity:1;" d="M 27.992188 38.175781 L 27.992188 37.90625 L 36.339844 33.023438 L 36.339844 35.277344 L 21.722656 43.824219 L 21.722656 41.578125 L 27.542969 38.175781 Z M 27.851562 38.03125 L 27.78125 38.03125 L 27.851562 37.988281 Z M 27.851562 38.03125 "/>
<path style=" stroke:none;fill-rule:evenodd;fill:rgb(85.098039%,85.098039%,85.098039%);fill-opacity:1;" d="M 27.851562 38.03125 L 27.851562 37.988281 L 36.339844 33.023438 L 36.339844 35.277344 L 21.722656 43.824219 L 21.722656 41.578125 L 27.78125 38.03125 Z M 27.851562 38.03125 "/>
<path style=" stroke:none;fill-rule:evenodd;fill:rgb(85.490196%,85.490196%,85.490196%);fill-opacity:1;" d="M 21.722656 43.824219 L 21.722656 41.578125 L 36.339844 33.023438 L 36.339844 35.277344 Z M 21.722656 43.824219 "/>
<path style=" stroke:none;fill-rule:evenodd;fill:rgb(85.882353%,85.882353%,85.882353%);fill-opacity:1;" d="M 21.722656 43.824219 L 21.722656 41.578125 L 36.339844 33.023438 L 36.339844 35.277344 Z M 21.722656 43.824219 "/>
<path style=" stroke:none;fill-rule:evenodd;fill:rgb(86.27451%,86.27451%,86.27451%);fill-opacity:1;" d="M 21.722656 43.824219 L 21.722656 41.578125 L 36.339844 33.023438 L 36.339844 35.277344 Z M 21.722656 43.824219 "/>
<path style=" stroke:none;fill-rule:evenodd;fill:rgb(86.666667%,86.666667%,86.666667%);fill-opacity:1;" d="M 21.722656 43.824219 L 21.722656 41.578125 L 36.339844 33.023438 L 36.339844 35.277344 Z M 21.722656 43.824219 "/>
<path style=" stroke:none;fill-rule:evenodd;fill:rgb(87.058824%,87.058824%,87.058824%);fill-opacity:1;" d="M 21.722656 43.824219 L 21.722656 41.578125 L 36.339844 33.023438 L 36.339844 35.277344 Z M 21.722656 43.824219 "/>
<path style=" stroke:none;fill-rule:evenodd;fill:rgb(87.45098%,87.45098%,87.45098%);fill-opacity:1;" d="M 21.722656 43.824219 L 21.722656 41.578125 L 36.339844 33.023438 L 36.339844 35.277344 Z M 21.722656 43.824219 "/>
<path style=" stroke:none;fill-rule:evenodd;fill:rgb(87.843137%,87.843137%,87.843137%);fill-opacity:1;" d="M 21.722656 43.824219 L 21.722656 41.578125 L 36.339844 33.023438 L 36.339844 35.277344 Z M 21.722656 43.824219 "/>
<path style=" stroke:none;fill-rule:evenodd;fill:rgb(88.235294%,88.235294%,88.235294%);fill-opacity:1;" d="M 21.722656 43.824219 L 21.722656 41.578125 L 36.339844 33.023438 L 36.339844 35.277344 Z M 21.722656 43.824219 "/>
<path style=" stroke:none;fill-rule:evenodd;fill:rgb(88.627451%,88.627451%,88.627451%);fill-opacity:1;" d="M 21.722656 43.824219 L 21.722656 41.578125 L 36.339844 33.023438 L 36.339844 35.277344 Z M 21.722656 43.824219 "/>
<path style=" stroke:none;fill-rule:evenodd;fill:rgb(89.019608%,89.019608%,89.019608%);fill-opacity:1;" d="M 21.722656 43.824219 L 21.722656 41.578125 L 36.339844 33.023438 L 36.339844 35.277344 Z M 21.722656 43.824219 "/>
<path style="fill-rule:evenodd;fill:rgb(89.803922%,89.803922%,89.803922%);fill-opacity:1;stroke-width:40;stroke-linecap:butt;stroke-linejoin:round;stroke:rgb(100%,100%,100%);stroke-opacity:1;stroke-miterlimit:4;" d="M 5001.843233 8043.157887 L 5001.843233 7791.039536 L 6661.78342 6830.797467 L 6661.78342 7083.792752 Z M 5001.843233 8043.157887 " transform="matrix(0.00880585,0,0,0.00890889,-22.322835,-27.831361)"/>
<path style="fill:none;stroke-width:40;stroke-linecap:butt;stroke-linejoin:round;stroke:rgb(89.803922%,89.803922%,89.803922%);stroke-opacity:1;stroke-miterlimit:4;" d="M 3691.01393 5973.156605 L 5700.952195 7135.093355 " transform="matrix(0.00880585,0,0,0.00890889,-22.322835,-27.831361)"/>
<path style="fill:none;stroke-width:40;stroke-linecap:butt;stroke-linejoin:round;stroke:rgb(89.803922%,89.803922%,89.803922%);stroke-opacity:1;stroke-miterlimit:4;" d="M 3865.791171 5871.870798 L 5876.173032 7033.807548 " transform="matrix(0.00880585,0,0,0.00890889,-22.322835,-27.831361)"/>
<path style="fill:none;stroke-width:40;stroke-linecap:butt;stroke-linejoin:round;stroke:rgb(89.803922%,89.803922%,89.803922%);stroke-opacity:1;stroke-miterlimit:4;" d="M 4041.012008 5771.023457 L 6050.950273 6932.960208 " transform="matrix(0.00880585,0,0,0.00890889,-22.322835,-27.831361)"/>
<path style="fill:none;stroke-width:40;stroke-linecap:butt;stroke-linejoin:round;stroke:rgb(89.803922%,89.803922%,89.803922%);stroke-opacity:1;stroke-miterlimit:4;" d="M 5787.897218 6780.812263 L 5963.118056 6679.964923 " transform="matrix(0.00880585,0,0,0.00890889,-22.322835,-27.831361)"/>
<path style="fill:none;stroke-width:40;stroke-linecap:butt;stroke-linejoin:round;stroke:rgb(89.803922%,89.803922%,89.803922%);stroke-opacity:1;stroke-miterlimit:4;" d="M 5614.007172 6679.964923 L 5788.784412 6579.117582 " transform="matrix(0.00880585,0,0,0.00890889,-22.322835,-27.831361)"/>
<path style="fill:none;stroke-width:40;stroke-linecap:butt;stroke-linejoin:round;stroke:rgb(89.803922%,89.803922%,89.803922%);stroke-opacity:1;stroke-miterlimit:4;" d="M 5438.786334 6579.117582 L 5614.007172 6477.831775 " transform="matrix(0.00880585,0,0,0.00890889,-22.322835,-27.831361)"/>
<path style="fill:none;stroke-width:40;stroke-linecap:butt;stroke-linejoin:round;stroke:rgb(89.803922%,89.803922%,89.803922%);stroke-opacity:1;stroke-miterlimit:4;" d="M 5526.174955 6830.797467 L 5700.952195 6729.950126 " transform="matrix(0.00880585,0,0,0.00890889,-22.322835,-27.831361)"/>
<path style="fill:none;stroke-width:40;stroke-linecap:butt;stroke-linejoin:round;stroke:rgb(89.803922%,89.803922%,89.803922%);stroke-opacity:1;stroke-miterlimit:4;" d="M 5350.954117 6729.950126 L 5526.174955 6629.102786 " transform="matrix(0.00880585,0,0,0.00890889,-22.322835,-27.831361)"/>
<path style="fill:none;stroke-width:40;stroke-linecap:butt;stroke-linejoin:round;stroke:rgb(89.803922%,89.803922%,89.803922%);stroke-opacity:1;stroke-miterlimit:4;" d="M 5177.064071 6629.102786 L 5351.841311 6527.816978 " transform="matrix(0.00880585,0,0,0.00890889,-22.322835,-27.831361)"/>
<path style="fill:none;stroke-width:40;stroke-linecap:butt;stroke-linejoin:round;stroke:rgb(89.803922%,89.803922%,89.803922%);stroke-opacity:1;stroke-miterlimit:4;" d="M 5264.009094 6477.831775 L 5438.786334 6376.984434 " transform="matrix(0.00880585,0,0,0.00890889,-22.322835,-27.831361)"/>
<path style="fill:none;stroke-width:40;stroke-linecap:butt;stroke-linejoin:round;stroke:rgb(89.803922%,89.803922%,89.803922%);stroke-opacity:1;stroke-miterlimit:4;" d="M 5001.843233 6527.816978 L 5177.064071 6426.969638 " transform="matrix(0.00880585,0,0,0.00890889,-22.322835,-27.831361)"/>
<path style="fill:none;stroke-width:40;stroke-linecap:butt;stroke-linejoin:round;stroke:rgb(89.803922%,89.803922%,89.803922%);stroke-opacity:1;stroke-miterlimit:4;" d="M 5088.788256 6376.984434 L 5264.009094 6276.137094 " transform="matrix(0.00880585,0,0,0.00890889,-22.322835,-27.831361)"/>
<path style="fill:none;stroke-width:40;stroke-linecap:butt;stroke-linejoin:round;stroke:rgb(89.803922%,89.803922%,89.803922%);stroke-opacity:1;stroke-miterlimit:4;" d="M 4914.011016 6276.137094 L 5088.788256 6174.851286 " transform="matrix(0.00880585,0,0,0.00890889,-22.322835,-27.831361)"/>
<path style="fill:none;stroke-width:40;stroke-linecap:butt;stroke-linejoin:round;stroke:rgb(89.803922%,89.803922%,89.803922%);stroke-opacity:1;stroke-miterlimit:4;" d="M 4740.12097 6174.851286 L 4914.89821 6074.003946 " transform="matrix(0.00880585,0,0,0.00890889,-22.322835,-27.831361)"/>
<path style="fill:none;stroke-width:40;stroke-linecap:butt;stroke-linejoin:round;stroke:rgb(89.803922%,89.803922%,89.803922%);stroke-opacity:1;stroke-miterlimit:4;" d="M 4827.065993 6426.969638 L 5001.843233 6326.122297 " transform="matrix(0.00880585,0,0,0.00890889,-22.322835,-27.831361)"/>
<path style="fill:none;stroke-width:40;stroke-linecap:butt;stroke-linejoin:round;stroke:rgb(89.803922%,89.803922%,89.803922%);stroke-opacity:1;stroke-miterlimit:4;" d="M 4651.845155 6326.122297 L 4827.065993 6224.83649 " transform="matrix(0.00880585,0,0,0.00890889,-22.322835,-27.831361)"/>
<path style="fill:none;stroke-width:40;stroke-linecap:butt;stroke-linejoin:round;stroke:rgb(89.803922%,89.803922%,89.803922%);stroke-opacity:1;stroke-miterlimit:4;" d="M 4477.955109 6224.83649 L 4653.175947 6123.989149 " transform="matrix(0.00880585,0,0,0.00890889,-22.322835,-27.831361)"/>
<path style="fill:none;stroke-width:40;stroke-linecap:butt;stroke-linejoin:round;stroke:rgb(89.803922%,89.803922%,89.803922%);stroke-opacity:1;stroke-miterlimit:4;" d="M 4564.900132 6074.003946 L 4740.12097 5973.156605 " transform="matrix(0.00880585,0,0,0.00890889,-22.322835,-27.831361)"/>
<path style="fill:none;stroke-width:40;stroke-linecap:butt;stroke-linejoin:round;stroke:rgb(89.803922%,89.803922%,89.803922%);stroke-opacity:1;stroke-miterlimit:4;" d="M 4303.177869 6123.989149 L 4477.955109 6023.141809 " transform="matrix(0.00880585,0,0,0.00890889,-22.322835,-27.831361)"/>
<path style="fill:none;stroke-width:40;stroke-linecap:butt;stroke-linejoin:round;stroke:rgb(89.803922%,89.803922%,89.803922%);stroke-opacity:1;stroke-miterlimit:4;" d="M 4390.122892 5973.156605 L 4564.900132 5871.870798 " transform="matrix(0.00880585,0,0,0.00890889,-22.322835,-27.831361)"/>
<path style="fill:none;stroke-width:40;stroke-linecap:butt;stroke-linejoin:round;stroke:rgb(89.803922%,89.803922%,89.803922%);stroke-opacity:1;stroke-miterlimit:4;" d="M 4214.902054 5871.870798 L 4390.122892 5771.023457 " transform="matrix(0.00880585,0,0,0.00890889,-22.322835,-27.831361)"/>
<path style="fill:none;stroke-width:40;stroke-linecap:butt;stroke-linejoin:round;stroke:rgb(89.803922%,89.803922%,89.803922%);stroke-opacity:1;stroke-miterlimit:4;" d="M 4127.957031 6023.141809 L 4303.177869 5921.856001 " transform="matrix(0.00880585,0,0,0.00890889,-22.322835,-27.831361)"/>
<path style="fill:none;stroke-width:40;stroke-linecap:butt;stroke-linejoin:round;stroke:rgb(89.803922%,89.803922%,89.803922%);stroke-opacity:1;stroke-miterlimit:4;" d="M 5264.009094 6882.098071 L 5438.786334 6780.812263 " transform="matrix(0.00880585,0,0,0.00890889,-22.322835,-27.831361)"/>
<path style="fill:none;stroke-width:40;stroke-linecap:butt;stroke-linejoin:round;stroke:rgb(89.803922%,89.803922%,89.803922%);stroke-opacity:1;stroke-miterlimit:4;" d="M 5088.788256 6780.812263 L 5264.009094 6679.964923 " transform="matrix(0.00880585,0,0,0.00890889,-22.322835,-27.831361)"/>
<path style="fill:none;stroke-width:40;stroke-linecap:butt;stroke-linejoin:round;stroke:rgb(89.803922%,89.803922%,89.803922%);stroke-opacity:1;stroke-miterlimit:4;" d="M 4914.011016 6679.964923 L 5088.788256 6579.117582 " transform="matrix(0.00880585,0,0,0.00890889,-22.322835,-27.831361)"/>
<path style="fill:none;stroke-width:40;stroke-linecap:butt;stroke-linejoin:round;stroke:rgb(89.803922%,89.803922%,89.803922%);stroke-opacity:1;stroke-miterlimit:4;" d="M 4827.065993 6830.797467 L 5001.843233 6729.950126 " transform="matrix(0.00880585,0,0,0.00890889,-22.322835,-27.831361)"/>
<path style="fill:none;stroke-width:40;stroke-linecap:butt;stroke-linejoin:round;stroke:rgb(89.803922%,89.803922%,89.803922%);stroke-opacity:1;stroke-miterlimit:4;" d="M 4651.845155 6729.950126 L 4827.065993 6629.102786 " transform="matrix(0.00880585,0,0,0.00890889,-22.322835,-27.831361)"/>
<path style="fill:none;stroke-width:40;stroke-linecap:butt;stroke-linejoin:round;stroke:rgb(89.803922%,89.803922%,89.803922%);stroke-opacity:1;stroke-miterlimit:4;" d="M 4740.12097 6579.117582 L 4914.89821 6477.831775 " transform="matrix(0.00880585,0,0,0.00890889,-22.322835,-27.831361)"/>
<path style="fill:none;stroke-width:40;stroke-linecap:butt;stroke-linejoin:round;stroke:rgb(89.803922%,89.803922%,89.803922%);stroke-opacity:1;stroke-miterlimit:4;" d="M 4564.900132 6477.831775 L 4740.12097 6376.984434 " transform="matrix(0.00880585,0,0,0.00890889,-22.322835,-27.831361)"/>
<path style="fill:none;stroke-width:40;stroke-linecap:butt;stroke-linejoin:round;stroke:rgb(89.803922%,89.803922%,89.803922%);stroke-opacity:1;stroke-miterlimit:4;" d="M 4390.122892 6376.984434 L 4564.900132 6276.137094 " transform="matrix(0.00880585,0,0,0.00890889,-22.322835,-27.831361)"/>
<path style="fill:none;stroke-width:40;stroke-linecap:butt;stroke-linejoin:round;stroke:rgb(89.803922%,89.803922%,89.803922%);stroke-opacity:1;stroke-miterlimit:4;" d="M 4214.902054 6276.137094 L 4390.122892 6174.851286 " transform="matrix(0.00880585,0,0,0.00890889,-22.322835,-27.831361)"/>
<path style="fill:none;stroke-width:40;stroke-linecap:butt;stroke-linejoin:round;stroke:rgb(89.803922%,89.803922%,89.803922%);stroke-opacity:1;stroke-miterlimit:4;" d="M 3953.179791 6326.122297 L 4127.957031 6224.83649 " transform="matrix(0.00880585,0,0,0.00890889,-22.322835,-27.831361)"/>
<path style="fill:none;stroke-width:40;stroke-linecap:butt;stroke-linejoin:round;stroke:rgb(89.803922%,89.803922%,89.803922%);stroke-opacity:1;stroke-miterlimit:4;" d="M 4041.012008 6174.851286 L 4215.789249 6074.003946 " transform="matrix(0.00880585,0,0,0.00890889,-22.322835,-27.831361)"/>
<path style="fill:none;stroke-width:40;stroke-linecap:butt;stroke-linejoin:round;stroke:rgb(89.803922%,89.803922%,89.803922%);stroke-opacity:1;stroke-miterlimit:4;" d="M 3777.958953 6224.83649 L 3953.179791 6123.989149 " transform="matrix(0.00880585,0,0,0.00890889,-22.322835,-27.831361)"/>
<path style="fill:none;stroke-width:40;stroke-linecap:butt;stroke-linejoin:round;stroke:rgb(89.803922%,89.803922%,89.803922%);stroke-opacity:1;stroke-miterlimit:4;" d="M 5177.064071 7033.807548 L 5351.841311 6932.960208 " transform="matrix(0.00880585,0,0,0.00890889,-22.322835,-27.831361)"/>
<path style="fill:none;stroke-width:40;stroke-linecap:butt;stroke-linejoin:round;stroke:rgb(89.803922%,89.803922%,89.803922%);stroke-opacity:1;stroke-miterlimit:4;" d="M 5001.843233 6932.083274 L 5177.064071 6830.797467 " transform="matrix(0.00880585,0,0,0.00890889,-22.322835,-27.831361)"/>
<path style="fill-rule:evenodd;fill:url(#linear4);stroke-width:40;stroke-linecap:butt;stroke-linejoin:round;stroke:rgb(100%,100%,100%);stroke-opacity:1;stroke-miterlimit:4;" d="M 2554.961868 6629.979719 L 2554.961868 6376.984434 L 5001.843233 7791.039536 L 5001.843233 8044.034821 Z M 2554.961868 6629.979719 " transform="matrix(0.00880585,0,0,0.00890889,-22.322835,-27.831361)"/>
<path style="fill:none;stroke-width:40;stroke-linecap:butt;stroke-linejoin:round;stroke:rgb(0%,0%,0%);stroke-opacity:1;stroke-miterlimit:4;" d="M 4303.177869 3144.169468 L 6750.059234 4557.786103 L 6750.059234 6780.812263 L 6661.78342 6830.797467 L 6661.78342 7083.792752 L 5001.843233 8044.034821 L 2554.961868 6629.102786 L 2554.961868 6376.984434 L 4214.902054 5417.180832 L 4214.902054 3195.031605 Z M 4303.177869 3144.169468 " transform="matrix(0.00880585,0,0,0.00890889,-22.322835,-27.831361)"/>
<path style="fill-rule:evenodd;fill:rgb(70.196078%,70.196078%,70.196078%);fill-opacity:1;stroke-width:40;stroke-linecap:butt;stroke-linejoin:round;stroke:rgb(100%,100%,100%);stroke-opacity:1;stroke-miterlimit:4;" d="M 3604.068907 6780.812263 L 4041.012008 6527.816978 L 4653.175947 6882.098071 L 4215.789249 7134.216422 Z M 3604.068907 6780.812263 " transform="matrix(0.00880585,0,0,0.00890889,-22.322835,-27.831361)"/>
<path style="fill:none;stroke-width:40;stroke-linecap:butt;stroke-linejoin:round;stroke:rgb(89.803922%,89.803922%,89.803922%);stroke-opacity:1;stroke-miterlimit:4;" d="M 5700.952195 6932.083274 L 5876.173032 6830.797467 " transform="matrix(0.00880585,0,0,0.00890889,-22.322835,-27.831361)"/>
<path style="fill:none;stroke-width:40;stroke-linecap:butt;stroke-linejoin:round;stroke:rgb(89.803922%,89.803922%,89.803922%);stroke-opacity:1;stroke-miterlimit:4;" d="M 5438.786334 6982.945411 L 5614.007172 6882.098071 " transform="matrix(0.00880585,0,0,0.00890889,-22.322835,-27.831361)"/>
</g>
</svg>
