<?xml version="1.0" encoding="UTF-8"?>
<svg xmlns="http://www.w3.org/2000/svg" xmlns:xlink="http://www.w3.org/1999/xlink" width="29pt" height="25pt" viewBox="0 0 29 25" version="1.1">
<defs>
<linearGradient id="linear0" gradientUnits="userSpaceOnUse" x1="1492" y1="5952" x2="2273" y2="5954" gradientTransform="matrix(1,0,0,1,0,0)">
<stop offset="0.1" style="stop-color:rgb(70.196078%,70.196078%,70.196078%);stop-opacity:1;"/>
<stop offset="1" style="stop-color:rgb(89.803922%,89.803922%,89.803922%);stop-opacity:1;"/>
</linearGradient>
<linearGradient id="linear1" gradientUnits="userSpaceOnUse" x1="2370" y1="4602" x2="2370" y2="5615" gradientTransform="matrix(1,0,0,1,0,0)">
<stop offset="0.1" style="stop-color:rgb(70.196078%,70.196078%,70.196078%);stop-opacity:1;"/>
<stop offset="1" style="stop-color:rgb(89.803922%,89.803922%,89.803922%);stop-opacity:1;"/>
</linearGradient>
<linearGradient id="linear2" gradientUnits="userSpaceOnUse" x1="3148" y1="6768" x2="3442" y2="6768" gradientTransform="matrix(1,0,0,1,0,0)">
<stop offset="0.1" style="stop-color:rgb(70.196078%,70.196078%,70.196078%);stop-opacity:1;"/>
<stop offset="1" style="stop-color:rgb(89.803922%,89.803922%,89.803922%);stop-opacity:1;"/>
</linearGradient>
<linearGradient id="linear3" gradientUnits="userSpaceOnUse" x1="2856" y1="6600" x2="3150" y2="6600" gradientTransform="matrix(1,0,0,1,0,0)">
<stop offset="0.1" style="stop-color:rgb(70.196078%,70.196078%,70.196078%);stop-opacity:1;"/>
<stop offset="1" style="stop-color:rgb(89.803922%,89.803922%,89.803922%);stop-opacity:1;"/>
</linearGradient>
<linearGradient id="linear4" gradientUnits="userSpaceOnUse" x1="2564" y1="6431" x2="2858" y2="6431" gradientTransform="matrix(1,0,0,1,0,0)">
<stop offset="0.1" style="stop-color:rgb(70.196078%,70.196078%,70.196078%);stop-opacity:1;"/>
<stop offset="1" style="stop-color:rgb(89.803922%,89.803922%,89.803922%);stop-opacity:1;"/>
</linearGradient>
<linearGradient id="linear5" gradientUnits="userSpaceOnUse" x1="2272" y1="6262" x2="2566" y2="6262" gradientTransform="matrix(1,0,0,1,0,0)">
<stop offset="0.1" style="stop-color:rgb(70.196078%,70.196078%,70.196078%);stop-opacity:1;"/>
<stop offset="1" style="stop-color:rgb(89.803922%,89.803922%,89.803922%);stop-opacity:1;"/>
</linearGradient>
<linearGradient id="linear6" gradientUnits="userSpaceOnUse" x1="2906" y1="5052" x2="2906" y2="5784" gradientTransform="matrix(1,0,0,1,0,0)">
<stop offset="0.1" style="stop-color:rgb(70.196078%,70.196078%,70.196078%);stop-opacity:1;"/>
<stop offset="1" style="stop-color:rgb(89.803922%,89.803922%,89.803922%);stop-opacity:1;"/>
</linearGradient>
<linearGradient id="linear7" gradientUnits="userSpaceOnUse" x1="3198" y1="5221" x2="3198" y2="5953" gradientTransform="matrix(1,0,0,1,0,0)">
<stop offset="0.1" style="stop-color:rgb(70.196078%,70.196078%,70.196078%);stop-opacity:1;"/>
<stop offset="1" style="stop-color:rgb(89.803922%,89.803922%,89.803922%);stop-opacity:1;"/>
</linearGradient>
<linearGradient id="linear8" gradientUnits="userSpaceOnUse" x1="3490" y1="5390" x2="3490" y2="6122" gradientTransform="matrix(1,0,0,1,0,0)">
<stop offset="0.1" style="stop-color:rgb(70.196078%,70.196078%,70.196078%);stop-opacity:1;"/>
<stop offset="1" style="stop-color:rgb(89.803922%,89.803922%,89.803922%);stop-opacity:1;"/>
</linearGradient>
<linearGradient id="linear9" gradientUnits="userSpaceOnUse" x1="3782" y1="5559" x2="3782" y2="6291" gradientTransform="matrix(1,0,0,1,0,0)">
<stop offset="0.1" style="stop-color:rgb(70.196078%,70.196078%,70.196078%);stop-opacity:1;"/>
<stop offset="1" style="stop-color:rgb(89.803922%,89.803922%,89.803922%);stop-opacity:1;"/>
</linearGradient>
</defs>
<g id="surface1">
<path style="fill-rule:evenodd;fill:rgb(86.666667%,86.666667%,86.666667%);fill-opacity:1;stroke-width:28.222;stroke-linecap:butt;stroke-linejoin:round;stroke:rgb(86.666667%,86.666667%,86.666667%);stroke-opacity:1;stroke-miterlimit:4;" d="M 3440.831148 7415.965312 C 3707.942469 7415.965312 4706.877604 7134.929306 4706.877604 6910.011424 C 4706.877604 6685.093542 4681.958872 6571.966528 4414.847551 6571.966528 C 4414.847551 6741.211667 3440.831148 7190.156667 3440.831148 7415.965312 Z M 3440.831148 7415.965312 " transform="matrix(0.0089353,0,0,0.00877056,-13.170626,-40.186716)"/>
<path style="fill-rule:evenodd;fill:url(#linear0);stroke-width:40;stroke-linecap:butt;stroke-linejoin:round;stroke:rgb(100%,100%,100%);stroke-opacity:1;stroke-miterlimit:4;" d="M 1494.109854 6290.930521 L 1494.109854 5165.004965 L 2273.148108 5614.840729 L 2273.148108 6741.211667 Z M 1494.109854 6290.930521 " transform="matrix(0.0089353,0,0,0.00877056,-13.170626,-40.186716)"/>
<path style=" stroke:none;fill-rule:evenodd;fill:rgb(70.196078%,70.196078%,70.196078%);fill-opacity:1;" d="M 17.574219 21.75 L 17.574219 14.988281 L 26.277344 10.050781 L 26.277344 19.925781 L 23.0625 21.75 Z M 17.574219 21.75 "/>
<path style=" stroke:none;fill-rule:evenodd;fill:rgb(70.588235%,70.588235%,70.588235%);fill-opacity:1;" d="M 23.0625 21.75 L 17.574219 24.855469 L 17.574219 21.75 Z M 17.574219 21.601562 L 17.574219 14.988281 L 26.277344 10.050781 L 26.277344 19.925781 L 23.320312 21.601562 Z M 17.574219 21.601562 "/>
<path style=" stroke:none;fill-rule:evenodd;fill:rgb(70.980392%,70.980392%,70.980392%);fill-opacity:1;" d="M 23.320312 21.601562 L 17.574219 24.855469 L 17.574219 21.601562 Z M 17.574219 21.453125 L 17.574219 14.988281 L 26.277344 10.050781 L 26.277344 19.925781 L 23.582031 21.453125 Z M 17.574219 21.453125 "/>
<path style=" stroke:none;fill-rule:evenodd;fill:rgb(71.372549%,71.372549%,71.372549%);fill-opacity:1;" d="M 23.582031 21.453125 L 17.574219 24.855469 L 17.574219 21.453125 Z M 17.574219 21.304688 L 17.574219 14.988281 L 26.277344 10.050781 L 26.277344 19.925781 L 23.847656 21.304688 Z M 17.574219 21.304688 "/>
<path style=" stroke:none;fill-rule:evenodd;fill:rgb(71.764706%,71.764706%,71.764706%);fill-opacity:1;" d="M 23.847656 21.304688 L 17.574219 24.855469 L 17.574219 21.304688 Z M 17.574219 21.15625 L 17.574219 14.988281 L 26.277344 10.050781 L 26.277344 19.925781 L 24.109375 21.15625 Z M 17.574219 21.15625 "/>
<path style=" stroke:none;fill-rule:evenodd;fill:rgb(72.156863%,72.156863%,72.156863%);fill-opacity:1;" d="M 24.109375 21.15625 L 17.574219 24.855469 L 17.574219 21.15625 Z M 17.574219 21.003906 L 17.574219 14.988281 L 26.277344 10.050781 L 26.277344 19.925781 L 24.375 21.003906 Z M 17.574219 21.003906 "/>
<path style=" stroke:none;fill-rule:evenodd;fill:rgb(72.54902%,72.54902%,72.54902%);fill-opacity:1;" d="M 24.375 21.003906 L 17.574219 24.855469 L 17.574219 21.003906 Z M 17.574219 20.855469 L 17.574219 14.988281 L 26.277344 10.050781 L 26.277344 19.925781 L 24.632812 20.855469 Z M 17.574219 20.855469 "/>
<path style=" stroke:none;fill-rule:evenodd;fill:rgb(72.941176%,72.941176%,72.941176%);fill-opacity:1;" d="M 24.632812 20.855469 L 17.574219 24.855469 L 17.574219 20.855469 Z M 17.574219 20.707031 L 17.574219 14.988281 L 26.277344 10.050781 L 26.277344 19.925781 L 24.902344 20.707031 Z M 17.574219 20.707031 "/>
<path style=" stroke:none;fill-rule:evenodd;fill:rgb(73.333333%,73.333333%,73.333333%);fill-opacity:1;" d="M 24.902344 20.707031 L 17.574219 24.855469 L 17.574219 20.707031 Z M 17.574219 20.558594 L 17.574219 14.988281 L 26.277344 10.050781 L 26.277344 19.925781 L 25.160156 20.558594 Z M 17.574219 20.558594 "/>
<path style=" stroke:none;fill-rule:evenodd;fill:rgb(73.72549%,73.72549%,73.72549%);fill-opacity:1;" d="M 25.160156 20.558594 L 17.574219 24.855469 L 17.574219 20.558594 Z M 26.214844 19.960938 L 25.429688 20.410156 L 17.574219 20.410156 L 17.574219 14.988281 L 26.214844 10.085938 Z M 26.214844 19.960938 "/>
<path style=" stroke:none;fill-rule:evenodd;fill:rgb(74.117647%,74.117647%,74.117647%);fill-opacity:1;" d="M 25.429688 20.410156 L 17.574219 24.855469 L 17.574219 20.410156 Z M 26.214844 10.085938 L 26.277344 10.050781 L 26.277344 19.925781 L 26.214844 19.960938 Z M 26.0625 20.050781 L 25.6875 20.261719 L 17.574219 20.261719 L 17.574219 14.988281 L 26.0625 10.175781 Z M 26.0625 20.050781 "/>
<path style=" stroke:none;fill-rule:evenodd;fill:rgb(74.509804%,74.509804%,74.509804%);fill-opacity:1;" d="M 25.6875 20.261719 L 17.574219 24.855469 L 17.574219 20.261719 Z M 26.0625 10.175781 L 26.277344 10.050781 L 26.277344 19.925781 L 26.0625 20.050781 Z M 25.921875 20.121094 L 17.574219 20.121094 L 17.574219 14.988281 L 25.921875 10.253906 Z M 25.921875 20.121094 "/>
<path style=" stroke:none;fill-rule:evenodd;fill:rgb(74.901961%,74.901961%,74.901961%);fill-opacity:1;" d="M 25.921875 20.121094 L 25.921875 10.253906 L 26.277344 10.050781 L 26.277344 19.925781 L 17.574219 24.855469 L 17.574219 20.121094 Z M 25.769531 19.96875 L 17.574219 19.96875 L 17.574219 14.988281 L 25.769531 10.339844 Z M 25.769531 19.96875 "/>
<path style=" stroke:none;fill-rule:evenodd;fill:rgb(75.294118%,75.294118%,75.294118%);fill-opacity:1;" d="M 25.769531 19.96875 L 25.769531 10.339844 L 26.277344 10.050781 L 26.277344 19.925781 L 17.574219 24.855469 L 17.574219 19.96875 Z M 25.617188 19.820312 L 17.574219 19.820312 L 17.574219 14.988281 L 25.617188 10.429688 Z M 25.617188 19.820312 "/>
<path style=" stroke:none;fill-rule:evenodd;fill:rgb(75.686275%,75.686275%,75.686275%);fill-opacity:1;" d="M 25.617188 19.820312 L 25.617188 10.429688 L 26.277344 10.050781 L 26.277344 19.925781 L 17.574219 24.855469 L 17.574219 19.820312 Z M 25.464844 19.671875 L 17.574219 19.671875 L 17.574219 14.988281 L 25.464844 10.515625 Z M 25.464844 19.671875 "/>
<path style=" stroke:none;fill-rule:evenodd;fill:rgb(76.078431%,76.078431%,76.078431%);fill-opacity:1;" d="M 25.464844 19.671875 L 25.464844 10.515625 L 26.277344 10.050781 L 26.277344 19.925781 L 17.574219 24.855469 L 17.574219 19.671875 Z M 25.3125 19.523438 L 17.574219 19.523438 L 17.574219 14.988281 L 25.3125 10.59375 Z M 25.3125 19.523438 "/>
<path style=" stroke:none;fill-rule:evenodd;fill:rgb(76.470588%,76.470588%,76.470588%);fill-opacity:1;" d="M 25.3125 19.523438 L 25.3125 10.59375 L 26.277344 10.050781 L 26.277344 19.925781 L 17.574219 24.855469 L 17.574219 19.523438 Z M 25.160156 19.375 L 17.574219 19.375 L 17.574219 14.988281 L 25.160156 10.683594 Z M 25.160156 19.375 "/>
<path style=" stroke:none;fill-rule:evenodd;fill:rgb(76.862745%,76.862745%,76.862745%);fill-opacity:1;" d="M 25.160156 19.375 L 25.160156 10.683594 L 26.277344 10.050781 L 26.277344 19.925781 L 17.574219 24.855469 L 17.574219 19.375 Z M 25.011719 19.226562 L 17.574219 19.226562 L 17.574219 14.988281 L 25.011719 10.769531 Z M 25.011719 19.226562 "/>
<path style=" stroke:none;fill-rule:evenodd;fill:rgb(77.254902%,77.254902%,77.254902%);fill-opacity:1;" d="M 25.011719 19.226562 L 25.011719 10.769531 L 26.277344 10.050781 L 26.277344 19.925781 L 17.574219 24.855469 L 17.574219 19.226562 Z M 24.859375 19.074219 L 17.574219 19.074219 L 17.574219 14.988281 L 24.859375 10.859375 Z M 24.859375 19.074219 "/>
<path style=" stroke:none;fill-rule:evenodd;fill:rgb(77.647059%,77.647059%,77.647059%);fill-opacity:1;" d="M 24.859375 19.074219 L 24.859375 10.859375 L 26.277344 10.050781 L 26.277344 19.925781 L 17.574219 24.855469 L 17.574219 19.074219 Z M 24.707031 18.925781 L 17.574219 18.925781 L 17.574219 14.988281 L 24.707031 10.945312 Z M 24.707031 18.925781 "/>
<path style=" stroke:none;fill-rule:evenodd;fill:rgb(78.039216%,78.039216%,78.039216%);fill-opacity:1;" d="M 24.707031 18.925781 L 24.707031 10.945312 L 26.277344 10.050781 L 26.277344 19.925781 L 17.574219 24.855469 L 17.574219 18.925781 Z M 24.554688 18.777344 L 17.574219 18.777344 L 17.574219 14.988281 L 24.554688 11.035156 Z M 24.554688 18.777344 "/>
<path style=" stroke:none;fill-rule:evenodd;fill:rgb(78.431373%,78.431373%,78.431373%);fill-opacity:1;" d="M 24.554688 18.777344 L 24.554688 11.035156 L 26.277344 10.050781 L 26.277344 19.925781 L 17.574219 24.855469 L 17.574219 18.777344 Z M 24.402344 18.628906 L 17.574219 18.628906 L 17.574219 14.988281 L 24.402344 11.113281 Z M 24.402344 18.628906 "/>
<path style=" stroke:none;fill-rule:evenodd;fill:rgb(78.823529%,78.823529%,78.823529%);fill-opacity:1;" d="M 24.402344 18.628906 L 24.402344 11.113281 L 26.277344 10.050781 L 26.277344 19.925781 L 17.574219 24.855469 L 17.574219 18.628906 Z M 24.257812 18.488281 L 17.574219 18.488281 L 17.574219 14.988281 L 24.257812 11.199219 Z M 24.257812 18.488281 "/>
<path style=" stroke:none;fill-rule:evenodd;fill:rgb(79.215686%,79.215686%,79.215686%);fill-opacity:1;" d="M 24.257812 18.488281 L 24.257812 11.199219 L 26.277344 10.050781 L 26.277344 19.925781 L 17.574219 24.855469 L 17.574219 18.488281 Z M 24.109375 18.339844 L 17.574219 18.339844 L 17.574219 14.988281 L 24.109375 11.277344 Z M 24.109375 18.339844 "/>
<path style=" stroke:none;fill-rule:evenodd;fill:rgb(79.607843%,79.607843%,79.607843%);fill-opacity:1;" d="M 24.109375 18.339844 L 24.109375 11.277344 L 26.277344 10.050781 L 26.277344 19.925781 L 17.574219 24.855469 L 17.574219 18.339844 Z M 23.957031 18.191406 L 17.574219 18.191406 L 17.574219 14.988281 L 23.957031 11.367188 Z M 23.957031 18.191406 "/>
<path style=" stroke:none;fill-rule:evenodd;fill:rgb(80%,80%,80%);fill-opacity:1;" d="M 23.957031 18.191406 L 23.957031 11.367188 L 26.277344 10.050781 L 26.277344 19.925781 L 17.574219 24.855469 L 17.574219 18.191406 Z M 23.804688 18.042969 L 17.574219 18.042969 L 17.574219 14.988281 L 23.804688 11.453125 Z M 23.804688 18.042969 "/>
<path style=" stroke:none;fill-rule:evenodd;fill:rgb(80.392157%,80.392157%,80.392157%);fill-opacity:1;" d="M 23.804688 18.042969 L 23.804688 11.453125 L 26.277344 10.050781 L 26.277344 19.925781 L 17.574219 24.855469 L 17.574219 18.042969 Z M 23.652344 17.890625 L 17.574219 17.890625 L 17.574219 14.988281 L 23.652344 11.542969 Z M 23.652344 17.890625 "/>
<path style=" stroke:none;fill-rule:evenodd;fill:rgb(80.784314%,80.784314%,80.784314%);fill-opacity:1;" d="M 23.652344 17.890625 L 23.652344 11.542969 L 26.277344 10.050781 L 26.277344 19.925781 L 17.574219 24.855469 L 17.574219 17.890625 Z M 23.5 17.742188 L 17.574219 17.742188 L 17.574219 14.988281 L 23.5 11.628906 Z M 23.5 17.742188 "/>
<path style=" stroke:none;fill-rule:evenodd;fill:rgb(81.176471%,81.176471%,81.176471%);fill-opacity:1;" d="M 23.5 17.742188 L 23.5 11.628906 L 26.277344 10.050781 L 26.277344 19.925781 L 17.574219 24.855469 L 17.574219 17.742188 Z M 23.347656 17.59375 L 17.574219 17.59375 L 17.574219 14.988281 L 23.347656 11.71875 Z M 23.347656 17.59375 "/>
<path style=" stroke:none;fill-rule:evenodd;fill:rgb(81.568627%,81.568627%,81.568627%);fill-opacity:1;" d="M 23.347656 17.59375 L 23.347656 11.71875 L 26.277344 10.050781 L 26.277344 19.925781 L 17.574219 24.855469 L 17.574219 17.59375 Z M 23.195312 17.445312 L 17.574219 17.445312 L 17.574219 14.988281 L 23.195312 11.796875 Z M 23.195312 17.445312 "/>
<path style=" stroke:none;fill-rule:evenodd;fill:rgb(81.960784%,81.960784%,81.960784%);fill-opacity:1;" d="M 23.195312 17.445312 L 23.195312 11.796875 L 26.277344 10.050781 L 26.277344 19.925781 L 17.574219 24.855469 L 17.574219 17.445312 Z M 23.042969 17.296875 L 17.574219 17.296875 L 17.574219 14.988281 L 23.042969 11.882812 Z M 23.042969 17.296875 "/>
<path style=" stroke:none;fill-rule:evenodd;fill:rgb(82.352941%,82.352941%,82.352941%);fill-opacity:1;" d="M 23.042969 17.296875 L 23.042969 11.882812 L 26.277344 10.050781 L 26.277344 19.925781 L 17.574219 24.855469 L 17.574219 17.296875 Z M 22.890625 17.144531 L 17.574219 17.144531 L 17.574219 14.988281 L 22.890625 11.972656 Z M 22.890625 17.144531 "/>
<path style=" stroke:none;fill-rule:evenodd;fill:rgb(82.745098%,82.745098%,82.745098%);fill-opacity:1;" d="M 22.890625 17.144531 L 22.890625 11.972656 L 26.277344 10.050781 L 26.277344 19.925781 L 17.574219 24.855469 L 17.574219 17.144531 Z M 22.742188 16.996094 L 17.621094 16.996094 L 17.621094 14.960938 L 22.742188 12.058594 Z M 22.742188 16.996094 "/>
<path style=" stroke:none;fill-rule:evenodd;fill:rgb(83.137255%,83.137255%,83.137255%);fill-opacity:1;" d="M 17.621094 16.996094 L 22.742188 16.996094 L 22.742188 12.058594 L 26.277344 10.050781 L 26.277344 19.925781 L 17.574219 24.855469 L 17.574219 14.988281 L 17.621094 14.960938 Z M 22.597656 16.855469 L 17.761719 16.855469 L 17.761719 14.882812 L 22.597656 12.136719 Z M 22.597656 16.855469 "/>
<path style=" stroke:none;fill-rule:evenodd;fill:rgb(83.529412%,83.529412%,83.529412%);fill-opacity:1;" d="M 17.761719 16.855469 L 22.597656 16.855469 L 22.597656 12.136719 L 26.277344 10.050781 L 26.277344 19.925781 L 17.574219 24.855469 L 17.574219 14.988281 L 17.761719 14.882812 Z M 22.445312 12.261719 L 22.445312 16.707031 L 17.914062 16.707031 L 17.914062 14.796875 L 22.382812 12.261719 Z M 22.445312 12.261719 "/>
<path style=" stroke:none;fill-rule:evenodd;fill:rgb(83.921569%,83.921569%,83.921569%);fill-opacity:1;" d="M 17.914062 16.707031 L 22.445312 16.707031 L 22.445312 12.261719 L 22.382812 12.261719 L 26.277344 10.050781 L 26.277344 19.925781 L 17.574219 24.855469 L 17.574219 14.988281 L 17.914062 14.796875 Z M 22.292969 12.410156 L 22.292969 16.558594 L 18.066406 16.558594 L 18.066406 14.707031 L 22.125 12.410156 Z M 22.292969 12.410156 "/>
<path style=" stroke:none;fill-rule:evenodd;fill:rgb(84.313725%,84.313725%,84.313725%);fill-opacity:1;" d="M 18.066406 16.558594 L 22.292969 16.558594 L 22.292969 12.410156 L 22.125 12.410156 L 26.277344 10.050781 L 26.277344 19.925781 L 17.574219 24.855469 L 17.574219 14.988281 L 18.066406 14.707031 Z M 22.140625 12.558594 L 22.140625 16.410156 L 18.21875 16.410156 L 18.21875 14.621094 L 21.855469 12.558594 Z M 22.140625 12.558594 "/>
<path style=" stroke:none;fill-rule:evenodd;fill:rgb(84.705882%,84.705882%,84.705882%);fill-opacity:1;" d="M 18.21875 16.410156 L 22.140625 16.410156 L 22.140625 12.558594 L 21.855469 12.558594 L 26.277344 10.050781 L 26.277344 19.925781 L 17.574219 24.855469 L 17.574219 14.988281 L 18.21875 14.621094 Z M 21.988281 12.707031 L 21.988281 16.261719 L 18.371094 16.261719 L 18.371094 14.542969 L 21.597656 12.707031 Z M 21.988281 12.707031 "/>
<path style=" stroke:none;fill-rule:evenodd;fill:rgb(85.098039%,85.098039%,85.098039%);fill-opacity:1;" d="M 18.371094 16.261719 L 21.988281 16.261719 L 21.988281 12.707031 L 21.597656 12.707031 L 26.277344 10.050781 L 26.277344 19.925781 L 17.574219 24.855469 L 17.574219 14.988281 L 18.371094 14.542969 Z M 21.835938 12.859375 L 21.835938 16.113281 L 18.523438 16.113281 L 18.523438 14.453125 L 21.328125 12.859375 Z M 21.835938 12.859375 "/>
<path style=" stroke:none;fill-rule:evenodd;fill:rgb(85.490196%,85.490196%,85.490196%);fill-opacity:1;" d="M 18.523438 16.113281 L 21.835938 16.113281 L 21.835938 12.859375 L 21.328125 12.859375 L 26.277344 10.050781 L 26.277344 19.925781 L 17.574219 24.855469 L 17.574219 14.988281 L 18.523438 14.453125 Z M 21.6875 13.007812 L 21.6875 15.960938 L 18.675781 15.960938 L 18.675781 14.367188 L 21.070312 13.007812 Z M 21.6875 13.007812 "/>
<path style=" stroke:none;fill-rule:evenodd;fill:rgb(85.882353%,85.882353%,85.882353%);fill-opacity:1;" d="M 18.675781 15.960938 L 21.6875 15.960938 L 21.6875 13.007812 L 21.070312 13.007812 L 26.277344 10.050781 L 26.277344 19.925781 L 17.574219 24.855469 L 17.574219 14.988281 L 18.675781 14.367188 Z M 21.535156 13.15625 L 21.535156 15.8125 L 18.828125 15.8125 L 18.828125 14.277344 L 20.808594 13.15625 Z M 21.535156 13.15625 "/>
<path style=" stroke:none;fill-rule:evenodd;fill:rgb(86.27451%,86.27451%,86.27451%);fill-opacity:1;" d="M 18.828125 15.8125 L 21.535156 15.8125 L 21.535156 13.15625 L 20.808594 13.15625 L 26.277344 10.050781 L 26.277344 19.925781 L 17.574219 24.855469 L 17.574219 14.988281 L 18.828125 14.277344 Z M 21.382812 13.304688 L 21.382812 15.664062 L 18.980469 15.664062 L 18.980469 14.191406 L 20.542969 13.304688 Z M 21.382812 13.304688 "/>
<path style=" stroke:none;fill-rule:evenodd;fill:rgb(86.666667%,86.666667%,86.666667%);fill-opacity:1;" d="M 18.980469 15.664062 L 21.382812 15.664062 L 21.382812 13.304688 L 20.542969 13.304688 L 26.277344 10.050781 L 26.277344 19.925781 L 17.574219 24.855469 L 17.574219 14.988281 L 18.980469 14.191406 Z M 21.230469 13.453125 L 21.230469 15.515625 L 19.128906 15.515625 L 19.128906 14.101562 L 20.28125 13.453125 Z M 21.230469 13.453125 "/>
<path style=" stroke:none;fill-rule:evenodd;fill:rgb(87.058824%,87.058824%,87.058824%);fill-opacity:1;" d="M 19.128906 15.515625 L 21.230469 15.515625 L 21.230469 13.453125 L 20.28125 13.453125 L 26.277344 10.050781 L 26.277344 19.925781 L 17.574219 24.855469 L 17.574219 14.988281 L 19.128906 14.101562 Z M 21.078125 13.601562 L 21.078125 15.367188 L 19.28125 15.367188 L 19.28125 14.023438 L 20.015625 13.601562 Z M 21.078125 13.601562 "/>
<path style=" stroke:none;fill-rule:evenodd;fill:rgb(87.45098%,87.45098%,87.45098%);fill-opacity:1;" d="M 19.28125 15.367188 L 21.078125 15.367188 L 21.078125 13.601562 L 20.015625 13.601562 L 26.277344 10.050781 L 26.277344 19.925781 L 17.574219 24.855469 L 17.574219 14.988281 L 19.28125 14.023438 Z M 20.933594 13.742188 L 20.933594 15.226562 L 19.425781 15.226562 L 19.425781 13.9375 L 19.773438 13.742188 Z M 20.933594 13.742188 "/>
<path style=" stroke:none;fill-rule:evenodd;fill:rgb(87.843137%,87.843137%,87.843137%);fill-opacity:1;" d="M 19.425781 15.226562 L 20.933594 15.226562 L 20.933594 13.742188 L 19.773438 13.742188 L 26.277344 10.050781 L 26.277344 19.925781 L 17.574219 24.855469 L 17.574219 14.988281 L 19.425781 13.9375 Z M 19.578125 13.890625 L 20.785156 13.890625 L 20.785156 15.078125 L 19.578125 15.078125 Z M 19.578125 13.890625 "/>
<path style=" stroke:none;fill-rule:evenodd;fill:rgb(88.235294%,88.235294%,88.235294%);fill-opacity:1;" d="M 19.578125 13.890625 L 19.578125 15.078125 L 20.785156 15.078125 L 20.785156 13.890625 Z M 19.730469 14.042969 L 20.632812 14.042969 L 20.632812 14.925781 L 19.730469 14.925781 Z M 17.574219 24.855469 L 17.574219 14.988281 L 26.277344 10.050781 L 26.277344 19.925781 Z M 17.574219 24.855469 "/>
<path style=" stroke:none;fill-rule:evenodd;fill:rgb(88.627451%,88.627451%,88.627451%);fill-opacity:1;" d="M 19.730469 14.042969 L 19.730469 14.925781 L 20.632812 14.925781 L 20.632812 14.042969 Z M 19.882812 14.191406 L 20.480469 14.191406 L 20.480469 14.777344 L 19.882812 14.777344 Z M 17.574219 24.855469 L 17.574219 14.988281 L 26.277344 10.050781 L 26.277344 19.925781 Z M 17.574219 24.855469 "/>
<path style=" stroke:none;fill-rule:evenodd;fill:rgb(89.019608%,89.019608%,89.019608%);fill-opacity:1;" d="M 19.882812 14.191406 L 19.882812 14.777344 L 20.480469 14.777344 L 20.480469 14.191406 Z M 20.03125 14.339844 L 20.328125 14.339844 L 20.328125 14.628906 L 20.03125 14.628906 Z M 17.574219 24.855469 L 17.574219 14.988281 L 26.277344 10.050781 L 26.277344 19.925781 Z M 17.574219 24.855469 "/>
<path style=" stroke:none;fill-rule:evenodd;fill:rgb(89.803922%,89.803922%,89.803922%);fill-opacity:1;" d="M 20.03125 14.339844 L 20.03125 14.628906 L 20.328125 14.628906 L 20.328125 14.339844 Z M 17.574219 24.855469 L 17.574219 14.988281 L 26.277344 10.050781 L 26.277344 19.925781 Z M 17.574219 24.855469 "/>
<path style="fill:none;stroke-width:40;stroke-linecap:butt;stroke-linejoin:round;stroke:rgb(100%,100%,100%);stroke-opacity:1;stroke-miterlimit:4;" d="M 3440.831148 7415.965312 L 3440.831148 6290.930521 L 4414.847551 5727.967743 L 4414.847551 6853.893299 Z M 3440.831148 7415.965312 " transform="matrix(0.0089353,0,0,0.00877056,-13.170626,-40.186716)"/>
<path style="fill-rule:evenodd;fill:url(#linear1);stroke-width:40;stroke-linecap:butt;stroke-linejoin:round;stroke:rgb(100%,100%,100%);stroke-opacity:1;stroke-miterlimit:4;" d="M 2273.148108 5614.840729 L 1494.109854 5165.004965 L 2468.126257 4602.042188 L 3245.852999 5051.877951 Z M 2273.148108 5614.840729 " transform="matrix(0.0089353,0,0,0.00877056,-13.170626,-40.186716)"/>
<path style="fill-rule:evenodd;fill:rgb(49.803922%,49.803922%,49.803922%);fill-opacity:1;stroke-width:40;stroke-linecap:butt;stroke-linejoin:round;stroke:rgb(0%,0%,0%);stroke-opacity:1;stroke-miterlimit:4;" d="M 1981.118056 6346.157882 L 1981.118056 6065.121875 L 2078.169959 6120.794618 L 2078.169959 6403.166771 Z M 1981.118056 6346.157882 " transform="matrix(0.0089353,0,0,0.00877056,-13.170626,-40.186716)"/>
<path style="fill-rule:evenodd;fill:rgb(49.803922%,49.803922%,49.803922%);fill-opacity:1;stroke-width:40;stroke-linecap:butt;stroke-linejoin:round;stroke:rgb(0%,0%,0%);stroke-opacity:1;stroke-miterlimit:4;" d="M 1786.139907 6233.921632 L 1786.139907 5952.885625 L 1883.19181 6009.00375 L 1883.19181 6290.930521 Z M 1786.139907 6233.921632 " transform="matrix(0.0089353,0,0,0.00877056,-13.170626,-40.186716)"/>
<path style="fill-rule:evenodd;fill:url(#linear2);stroke-width:40;stroke-linecap:butt;stroke-linejoin:round;stroke:rgb(100%,100%,100%);stroke-opacity:1;stroke-miterlimit:4;" d="M 3148.801096 7247.165556 L 3148.801096 6120.794618 L 3440.831148 6290.039757 L 3440.831148 7415.074549 Z M 3148.801096 7247.165556 " transform="matrix(0.0089353,0,0,0.00877056,-13.170626,-40.186716)"/>
<path style="fill-rule:evenodd;fill:rgb(22.352941%,70.980392%,29.019608%);fill-opacity:1;stroke-width:40;stroke-linecap:butt;stroke-linejoin:round;stroke:rgb(49.803922%,49.803922%,49.803922%);stroke-opacity:1;stroke-miterlimit:4;" d="M 1981.118056 5840.203993 L 1981.118056 5670.958854 L 2078.169959 5727.076979 L 2078.169959 5895.876736 Z M 1981.118056 5840.203993 " transform="matrix(0.0089353,0,0,0.00877056,-13.170626,-40.186716)"/>
<path style="fill-rule:evenodd;fill:url(#linear3);stroke-width:40;stroke-linecap:butt;stroke-linejoin:round;stroke:rgb(100%,100%,100%);stroke-opacity:1;stroke-miterlimit:4;" d="M 2857.208214 7078.811181 L 2857.208214 5952.885625 L 3148.801096 6122.130764 L 3148.801096 7247.165556 Z M 2857.208214 7078.811181 " transform="matrix(0.0089353,0,0,0.00877056,-13.170626,-40.186716)"/>
<path style="fill-rule:evenodd;fill:url(#linear4);stroke-width:40;stroke-linecap:butt;stroke-linejoin:round;stroke:rgb(100%,100%,100%);stroke-opacity:1;stroke-miterlimit:4;" d="M 2565.178161 6910.011424 L 2565.178161 5784.085868 L 2857.208214 5952.885625 L 2857.208214 7077.920417 Z M 2565.178161 6910.011424 " transform="matrix(0.0089353,0,0,0.00877056,-13.170626,-40.186716)"/>
<path style="fill-rule:evenodd;fill:url(#linear5);stroke-width:40;stroke-linecap:butt;stroke-linejoin:round;stroke:rgb(100%,100%,100%);stroke-opacity:1;stroke-miterlimit:4;" d="M 2273.148108 6741.211667 L 2273.148108 5614.840729 L 2565.178161 5784.085868 L 2565.178161 6909.12066 Z M 2273.148108 6741.211667 " transform="matrix(0.0089353,0,0,0.00877056,-13.170626,-40.186716)"/>
<path style="fill-rule:evenodd;fill:url(#linear6);stroke-width:40;stroke-linecap:butt;stroke-linejoin:round;stroke:rgb(100%,100%,100%);stroke-opacity:1;stroke-miterlimit:4;" d="M 2565.178161 5784.085868 L 2273.148108 5614.840729 L 3247.164511 5051.877951 L 3539.194564 5221.12309 Z M 2565.178161 5784.085868 " transform="matrix(0.0089353,0,0,0.00877056,-13.170626,-40.186716)"/>
<path style="fill-rule:evenodd;fill:url(#linear7);stroke-width:40;stroke-linecap:butt;stroke-linejoin:round;stroke:rgb(100%,100%,100%);stroke-opacity:1;stroke-miterlimit:4;" d="M 2857.208214 5952.885625 L 2565.178161 5784.085868 L 3539.194564 5221.12309 L 3830.787446 5389.922847 Z M 2857.208214 5952.885625 " transform="matrix(0.0089353,0,0,0.00877056,-13.170626,-40.186716)"/>
<path style="fill-rule:evenodd;fill:url(#linear8);stroke-width:40;stroke-linecap:butt;stroke-linejoin:round;stroke:rgb(100%,100%,100%);stroke-opacity:1;stroke-miterlimit:4;" d="M 3148.801096 6122.130764 L 2857.208214 5952.885625 L 3830.787446 5389.922847 L 4122.817499 5559.167986 Z M 3148.801096 6122.130764 " transform="matrix(0.0089353,0,0,0.00877056,-13.170626,-40.186716)"/>
<path style="fill-rule:evenodd;fill:url(#linear9);stroke-width:40;stroke-linecap:butt;stroke-linejoin:round;stroke:rgb(100%,100%,100%);stroke-opacity:1;stroke-miterlimit:4;" d="M 3440.831148 6290.930521 L 3148.801096 6122.130764 L 4122.817499 5559.167986 L 4414.847551 5727.967743 Z M 3440.831148 6290.930521 " transform="matrix(0.0089353,0,0,0.00877056,-13.170626,-40.186716)"/>
<path style="fill-rule:evenodd;fill:rgb(49.803922%,49.803922%,49.803922%);fill-opacity:1;stroke-width:40;stroke-linecap:butt;stroke-linejoin:round;stroke:rgb(0%,0%,0%);stroke-opacity:1;stroke-miterlimit:4;" d="M 2370.200012 5952.885625 L 2370.200012 5784.085868 L 2466.814745 5840.203993 L 2466.814745 6009.00375 Z M 2370.200012 5952.885625 " transform="matrix(0.0089353,0,0,0.00877056,-13.170626,-40.186716)"/>
<path style="fill-rule:evenodd;fill:rgb(49.803922%,49.803922%,49.803922%);fill-opacity:1;stroke-width:40;stroke-linecap:butt;stroke-linejoin:round;stroke:rgb(0%,0%,0%);stroke-opacity:1;stroke-miterlimit:4;" d="M 2370.200012 6290.039757 L 2370.200012 6120.794618 L 2466.814745 6176.912743 L 2466.814745 6346.157882 Z M 2370.200012 6290.039757 " transform="matrix(0.0089353,0,0,0.00877056,-13.170626,-40.186716)"/>
<path style="fill-rule:evenodd;fill:rgb(49.803922%,49.803922%,49.803922%);fill-opacity:1;stroke-width:40;stroke-linecap:butt;stroke-linejoin:round;stroke:rgb(0%,0%,0%);stroke-opacity:1;stroke-miterlimit:4;" d="M 2370.200012 6628.084653 L 2370.200012 6458.839514 L 2466.814745 6514.957639 L 2466.814745 6684.202778 Z M 2370.200012 6628.084653 " transform="matrix(0.0089353,0,0,0.00877056,-13.170626,-40.186716)"/>
<path style="fill-rule:evenodd;fill:rgb(49.803922%,49.803922%,49.803922%);fill-opacity:1;stroke-width:40;stroke-linecap:butt;stroke-linejoin:round;stroke:rgb(0%,0%,0%);stroke-opacity:1;stroke-miterlimit:4;" d="M 2661.792894 6122.130764 L 2661.792894 5952.885625 L 2758.844798 6009.00375 L 2758.844798 6177.803507 Z M 2661.792894 6122.130764 " transform="matrix(0.0089353,0,0,0.00877056,-13.170626,-40.186716)"/>
<path style="fill-rule:evenodd;fill:rgb(49.803922%,49.803922%,49.803922%);fill-opacity:1;stroke-width:40;stroke-linecap:butt;stroke-linejoin:round;stroke:rgb(0%,0%,0%);stroke-opacity:1;stroke-miterlimit:4;" d="M 2953.822947 6347.048646 L 2953.822947 6177.803507 L 3050.87485 6233.921632 L 3050.87485 6403.166771 Z M 2953.822947 6347.048646 " transform="matrix(0.0089353,0,0,0.00877056,-13.170626,-40.186716)"/>
<path style="fill-rule:evenodd;fill:rgb(49.803922%,49.803922%,49.803922%);fill-opacity:1;stroke-width:40;stroke-linecap:butt;stroke-linejoin:round;stroke:rgb(0%,0%,0%);stroke-opacity:1;stroke-miterlimit:4;" d="M 2953.822947 6966.129549 L 2953.822947 6796.88441 L 3050.87485 6853.002535 L 3050.87485 7021.802292 Z M 2953.822947 6966.129549 " transform="matrix(0.0089353,0,0,0.00877056,-13.170626,-40.186716)"/>
<path style="fill:none;stroke-width:40;stroke-linecap:butt;stroke-linejoin:round;stroke:rgb(0%,0%,0%);stroke-opacity:1;stroke-miterlimit:4;" d="M 1494.109854 6290.039757 L 1494.109854 5165.004965 L 2468.126257 4602.042188 L 4414.847551 5727.967743 L 4414.847551 6853.002535 L 3440.831148 7415.965312 Z M 1494.109854 6290.039757 " transform="matrix(0.0089353,0,0,0.00877056,-13.170626,-40.186716)"/>
</g>
</svg>
