<?xml version="1.0" encoding="UTF-8"?>
<svg xmlns="http://www.w3.org/2000/svg" xmlns:xlink="http://www.w3.org/1999/xlink" width="27pt" height="23pt" viewBox="0 0 27 23" version="1.1">
<defs>
<linearGradient id="linear0" gradientUnits="userSpaceOnUse" x1="8652" y1="18901" x2="11321" y2="18905" gradientTransform="matrix(0.008777,0,0,0.00895561,-75.771834,-154.063382)">
<stop offset="0" style="stop-color:rgb(0%,45.098039%,73.72549%);stop-opacity:1;"/>
<stop offset="0.5" style="stop-color:rgb(49.803922%,72.54902%,86.666667%);stop-opacity:1;"/>
<stop offset="1" style="stop-color:rgb(0%,45.098039%,73.72549%);stop-opacity:1;"/>
</linearGradient>
<linearGradient id="linear1" gradientUnits="userSpaceOnUse" x1="9986" y1="17223" x2="9986" y2="18902" gradientTransform="matrix(0.008777,0,0,0.00895561,-75.771834,-154.063382)">
<stop offset="0.1" style="stop-color:rgb(0%,45.098039%,73.72549%);stop-opacity:1;"/>
<stop offset="1" style="stop-color:rgb(49.803922%,72.54902%,86.666667%);stop-opacity:1;"/>
</linearGradient>
</defs>
<g id="surface1">
<path style="fill-rule:evenodd;fill:rgb(86.666667%,86.666667%,86.666667%);fill-opacity:1;stroke-width:40;stroke-linecap:butt;stroke-linejoin:round;stroke:rgb(86.666667%,86.666667%,86.666667%);stroke-opacity:1;stroke-miterlimit:4;" d="M 10593.023534 19673.081937 C 11067.897537 19673.081937 11683.85407 19393.054989 11683.85407 19113.028042 C 11683.85407 18833.001095 11666.051858 18692.987621 11319.798836 18692.987621 C 11319.798836 18993.078804 10593.023534 19271.797215 10593.023534 19673.081937 Z M 10593.023534 19673.081937 " transform="matrix(0.008777,0,0,0.00895561,-75.771834,-154.063382)"/>
<path style=" stroke:none;fill-rule:evenodd;fill:url(#linear0);" d="M 23.59375 7.703125 L 23.59375 15.109375 L 23.582031 15.628906 L 23.582031 15.222656 L 23.53125 16.03125 L 23.355469 16.808594 L 23.082031 17.554688 L 22.699219 18.261719 L 22.214844 18.921875 L 21.644531 19.542969 L 20.984375 20.113281 L 20.238281 20.644531 L 19.414062 21.117188 L 18.519531 21.527344 L 17.554688 21.894531 L 16.527344 22.199219 L 15.449219 22.433594 L 14.304688 22.613281 L 13.128906 22.71875 L 11.902344 22.757812 L 10.671875 22.71875 L 9.496094 22.613281 L 8.355469 22.433594 L 7.277344 22.199219 L 6.25 21.894531 L 5.285156 21.527344 L 4.378906 21.117188 L 3.554688 20.644531 L 2.808594 20.113281 L 2.148438 19.542969 L 1.570312 18.921875 L 1.089844 18.261719 L 0.703125 17.554688 L 0.421875 16.808594 L 0.246094 16.03125 L 0.183594 15.222656 L 0.183594 7.703125 L 0.246094 8.507812 L 0.421875 9.285156 L 0.71875 10.019531 L 1.113281 10.730469 L 1.613281 11.390625 L 2.203125 12.007812 L 2.878906 12.582031 L 3.640625 13.109375 L 4.476562 13.585938 L 5.378906 13.996094 L 6.347656 14.363281 L 7.363281 14.667969 L 8.445312 14.902344 L 9.558594 15.082031 L 10.707031 15.1875 L 11.894531 15.222656 L 13.078125 15.1875 L 14.226562 15.082031 L 15.34375 14.902344 L 16.414062 14.667969 L 17.441406 14.363281 L 18.40625 13.996094 L 19.308594 13.585938 L 20.144531 13.109375 L 20.898438 12.582031 L 21.574219 12.007812 L 22.160156 11.390625 L 22.664062 10.730469 L 23.058594 10.019531 L 23.355469 9.285156 L 23.53125 8.507812 Z M 23.59375 7.703125 "/>
<path style="fill:none;stroke-width:40;stroke-linecap:butt;stroke-linejoin:round;stroke:rgb(100%,100%,100%);stroke-opacity:1;stroke-miterlimit:4;" d="M 11321.134002 18063.145079 C 11321.134002 18063.145079 11321.134002 19184.125226 11319.798836 18902.789742 C 11322.024113 19393.927348 10744.787391 19744.179121 9989.083494 19744.179121 C 9232.934542 19744.179121 8654.80771 19393.927348 8653.917599 18902.789742 C 8654.80771 18904.098279 8653.917599 18552.974147 8653.917599 18063.145079 C 8653.917599 18552.974147 9260.082915 18902.789742 9988.193383 18902.789742 C 10715.858796 18902.789742 11321.134002 18552.974147 11321.134002 18063.145079 Z M 11321.134002 18063.145079 " transform="matrix(0.008777,0,0,0.00895561,-75.771834,-154.063382)"/>
<path style=" stroke:none;fill-rule:evenodd;fill:url(#linear1);" d="M 11.875 0.179688 L 13.105469 0.214844 L 14.28125 0.332031 L 15.421875 0.511719 L 16.5 0.753906 L 17.527344 1.066406 L 18.492188 1.433594 L 19.386719 1.863281 L 20.214844 2.335938 L 20.960938 2.867188 L 21.625 3.4375 L 22.195312 4.058594 L 22.679688 4.71875 L 23.066406 5.417969 L 23.347656 6.144531 L 23.511719 6.90625 L 23.574219 7.691406 L 23.511719 8.480469 L 23.347656 9.242188 L 23.066406 9.96875 L 22.679688 10.667969 L 22.195312 11.328125 L 21.625 11.945312 L 20.960938 12.519531 L 20.214844 13.058594 L 19.386719 13.53125 L 18.492188 13.960938 L 17.527344 14.328125 L 16.5 14.640625 L 15.421875 14.882812 L 14.28125 15.0625 L 13.105469 15.179688 L 11.875 15.214844 L 10.648438 15.179688 L 9.46875 15.0625 L 8.328125 14.882812 L 7.25 14.640625 L 6.222656 14.328125 L 5.257812 13.960938 L 4.363281 13.53125 L 3.539062 13.058594 L 2.792969 12.519531 L 2.125 11.945312 L 1.554688 11.328125 L 1.070312 10.667969 L 0.683594 9.96875 L 0.402344 9.242188 L 0.238281 8.480469 L 0.175781 7.691406 L 0.238281 6.90625 L 0.402344 6.144531 L 0.683594 5.417969 L 1.070312 4.71875 L 1.554688 4.058594 L 2.125 3.4375 L 2.792969 2.867188 L 3.539062 2.335938 L 4.363281 1.863281 L 5.257812 1.433594 L 6.222656 1.066406 L 7.25 0.753906 L 8.328125 0.511719 L 9.46875 0.332031 L 10.648438 0.214844 Z M 11.875 0.179688 "/>
<path style="fill:none;stroke-width:40;stroke-linecap:butt;stroke-linejoin:round;stroke:rgb(100%,100%,100%);stroke-opacity:1;stroke-miterlimit:4;" d="M 9985.968107 17223.064236 C 10742.117059 17223.064236 11318.908726 17585.965202 11318.908726 18061.836541 C 11318.908726 18538.144059 10742.117059 18901.917384 9985.968107 18901.917384 C 9229.819155 18901.917384 8653.027488 18538.144059 8653.027488 18061.836541 C 8653.027488 17585.965202 9229.819155 17223.064236 9985.968107 17223.064236 Z M 9985.968107 17223.064236 " transform="matrix(0.008777,0,0,0.00895561,-75.771834,-154.063382)"/>
<path style="fill-rule:evenodd;fill:rgb(100%,100%,100%);fill-opacity:1;stroke-width:40;stroke-linecap:butt;stroke-linejoin:round;stroke:rgb(100%,100%,100%);stroke-opacity:1;stroke-miterlimit:4;" d="M 10471.968493 18132.933726 L 10350.913452 18203.158552 L 10836.023727 18483.1855 L 10714.078575 18552.974147 L 10228.9683 18272.9472 L 10107.913259 18343.172026 L 10107.913259 18132.933726 Z M 10471.968493 18132.933726 " transform="matrix(0.008777,0,0,0.00895561,-75.771834,-154.063382)"/>
<path style="fill-rule:evenodd;fill:rgb(100%,100%,100%);fill-opacity:1;stroke-width:40;stroke-linecap:butt;stroke-linejoin:round;stroke:rgb(100%,100%,100%);stroke-opacity:1;stroke-miterlimit:4;" d="M 9743.858025 17852.906778 L 9864.913066 17783.118131 L 9864.913066 17992.920252 L 9500.857832 17992.920252 L 9621.912873 17923.131605 L 9138.137764 17643.104657 L 9259.192805 17572.879831 Z M 9743.858025 17852.906778 " transform="matrix(0.008777,0,0,0.00895561,-75.771834,-154.063382)"/>
<path style="fill-rule:evenodd;fill:rgb(100%,100%,100%);fill-opacity:1;stroke-width:40;stroke-linecap:butt;stroke-linejoin:round;stroke:rgb(100%,100%,100%);stroke-opacity:1;stroke-miterlimit:4;" d="M 9259.192805 18412.960673 L 9745.193191 18132.933726 L 9865.803176 18203.158552 L 9379.802791 18483.1855 L 9500.857832 18552.974147 L 9138.137764 18552.974147 L 9138.137764 18343.172026 Z M 9259.192805 18412.960673 " transform="matrix(0.008777,0,0,0.00895561,-75.771834,-154.063382)"/>
<path style="fill-rule:evenodd;fill:rgb(100%,100%,100%);fill-opacity:1;stroke-width:40;stroke-linecap:butt;stroke-linejoin:round;stroke:rgb(100%,100%,100%);stroke-opacity:1;stroke-miterlimit:4;" d="M 10592.133423 17643.104657 L 10471.078382 17572.879831 L 10835.133616 17572.879831 L 10835.133616 17783.118131 L 10714.078575 17712.893305 L 10228.9683 17992.920252 L 10107.913259 17923.131605 Z M 10592.133423 17643.104657 " transform="matrix(0.008777,0,0,0.00895561,-75.771834,-154.063382)"/>
<path style="fill:none;stroke-width:40;stroke-linecap:butt;stroke-linejoin:round;stroke:rgb(0%,0%,0%);stroke-opacity:1;stroke-miterlimit:4;" d="M 9985.968107 17223.064236 C 10742.117059 17223.064236 11321.134002 17586.83756 11321.134002 18063.145079 L 11319.798836 18902.789742 C 11319.798836 19393.054989 10714.078575 19742.870584 9986.858218 19742.870584 C 9260.082915 19742.870584 8653.027488 19393.054989 8653.027488 18902.789742 C 8653.027488 18902.789742 8653.917599 18063.145079 8653.027488 18061.836541 C 8653.027488 17585.965202 9229.819155 17223.064236 9985.968107 17223.064236 Z M 9985.968107 17223.064236 " transform="matrix(0.008777,0,0,0.00895561,-75.771834,-154.063382)"/>
</g>
</svg>
