<?xml version="1.0" encoding="UTF-8"?>
<svg xmlns="http://www.w3.org/2000/svg" xmlns:xlink="http://www.w3.org/1999/xlink" width="24pt" height="18pt" viewBox="0 0 24 18" version="1.1">
<defs>
<linearGradient id="linear0" gradientUnits="userSpaceOnUse" x1="5103" y1="7488" x2="5103" y2="8152" >
<stop offset="0.1" style="stop-color:rgb(20%,20%,20%);stop-opacity:1;"/>
<stop offset="1" style="stop-color:rgb(60%,60%,60%);stop-opacity:1;"/>
</linearGradient>
<linearGradient id="linear1" gradientUnits="userSpaceOnUse" x1="4527" y1="8195" x2="4911" y2="8195" >
<stop offset="0.1" style="stop-color:rgb(20%,20%,20%);stop-opacity:1;"/>
<stop offset="1" style="stop-color:rgb(60%,60%,60%);stop-opacity:1;"/>
</linearGradient>
<linearGradient id="linear2" gradientUnits="userSpaceOnUse" x1="4372" y1="8329" x2="4603" y2="8329" >
<stop offset="0.1" style="stop-color:rgb(70.196078%,70.196078%,70.196078%);stop-opacity:1;"/>
<stop offset="1" style="stop-color:rgb(89.803922%,89.803922%,89.803922%);stop-opacity:1;"/>
</linearGradient>
<linearGradient id="linear3" gradientUnits="userSpaceOnUse" x1="4603" y1="8063" x2="4603" y2="8329" >
<stop offset="0.1" style="stop-color:rgb(70.196078%,70.196078%,70.196078%);stop-opacity:1;"/>
<stop offset="1" style="stop-color:rgb(89.803922%,89.803922%,89.803922%);stop-opacity:1;"/>
</linearGradient>
</defs>
<g id="surface1">
<path style=" stroke:none;fill-rule:evenodd;fill:rgb(20%,20%,20%);fill-opacity:1;" d="M 20.691406 11.375 L 14.386719 15.007812 L 9.851562 15.007812 L 9.851562 12.117188 L 20.691406 5.898438 Z M 20.691406 11.375 "/>
<path style=" stroke:none;fill-rule:evenodd;fill:rgb(20.392157%,20.392157%,20.392157%);fill-opacity:1;" d="M 14.386719 15.007812 L 9.851562 17.609375 L 9.851562 15.007812 Z M 20.691406 5.898438 L 23.527344 4.269531 L 23.492188 9.761719 L 20.691406 11.375 Z M 20.605469 11.425781 L 14.527344 14.917969 L 9.851562 14.917969 L 9.851562 12.117188 L 20.605469 5.953125 Z M 20.605469 11.425781 "/>
<path style=" stroke:none;fill-rule:evenodd;fill:rgb(20.784314%,20.784314%,20.784314%);fill-opacity:1;" d="M 14.527344 14.917969 L 9.851562 17.609375 L 9.851562 14.917969 Z M 20.605469 5.953125 L 23.527344 4.269531 L 23.492188 9.761719 L 20.605469 11.425781 Z M 20.515625 11.480469 L 14.6875 14.828125 L 9.851562 14.828125 L 9.851562 12.117188 L 20.515625 6.007812 Z M 20.515625 11.480469 "/>
<path style=" stroke:none;fill-rule:evenodd;fill:rgb(21.176471%,21.176471%,21.176471%);fill-opacity:1;" d="M 14.6875 14.828125 L 9.851562 17.609375 L 9.851562 14.828125 Z M 20.515625 6.007812 L 23.527344 4.269531 L 23.492188 9.761719 L 20.515625 11.480469 Z M 20.425781 11.535156 L 14.847656 14.738281 L 9.851562 14.738281 L 9.851562 12.117188 L 20.425781 6.042969 Z M 20.425781 11.535156 "/>
<path style=" stroke:none;fill-rule:evenodd;fill:rgb(21.960784%,21.960784%,21.960784%);fill-opacity:1;" d="M 14.847656 14.738281 L 9.851562 17.609375 L 9.851562 14.738281 Z M 20.425781 6.042969 L 23.527344 4.269531 L 23.492188 9.761719 L 20.425781 11.535156 Z M 20.339844 11.570312 L 14.988281 14.652344 L 9.851562 14.652344 L 9.851562 12.117188 L 20.339844 6.09375 Z M 20.339844 11.570312 "/>
<path style=" stroke:none;fill-rule:evenodd;fill:rgb(22.352941%,22.352941%,22.352941%);fill-opacity:1;" d="M 14.988281 14.652344 L 9.851562 17.609375 L 9.851562 14.652344 Z M 20.339844 6.09375 L 23.527344 4.269531 L 23.492188 9.761719 L 20.339844 11.570312 Z M 20.25 11.621094 L 15.148438 14.5625 L 9.851562 14.5625 L 9.851562 12.117188 L 20.25 6.148438 Z M 20.25 11.621094 "/>
<path style=" stroke:none;fill-rule:evenodd;fill:rgb(22.745098%,22.745098%,22.745098%);fill-opacity:1;" d="M 15.148438 14.5625 L 9.851562 17.609375 L 9.851562 14.5625 Z M 20.25 6.148438 L 23.527344 4.269531 L 23.492188 9.761719 L 20.25 11.621094 Z M 20.160156 11.675781 L 15.308594 14.472656 L 9.851562 14.472656 L 9.851562 12.117188 L 20.160156 6.199219 Z M 20.160156 11.675781 "/>
<path style=" stroke:none;fill-rule:evenodd;fill:rgb(23.529412%,23.529412%,23.529412%);fill-opacity:1;" d="M 15.308594 14.472656 L 9.851562 17.609375 L 9.851562 14.472656 Z M 20.160156 6.199219 L 23.527344 4.269531 L 23.492188 9.761719 L 20.160156 11.675781 Z M 20.074219 11.726562 L 15.449219 14.386719 L 9.851562 14.386719 L 9.851562 12.117188 L 20.074219 6.253906 Z M 20.074219 11.726562 "/>
<path style=" stroke:none;fill-rule:evenodd;fill:rgb(23.921569%,23.921569%,23.921569%);fill-opacity:1;" d="M 15.449219 14.386719 L 9.851562 17.609375 L 9.851562 14.386719 Z M 20.074219 6.253906 L 23.527344 4.269531 L 23.492188 9.761719 L 20.074219 11.726562 Z M 19.984375 11.78125 L 15.609375 14.296875 L 9.851562 14.296875 L 9.851562 12.117188 L 19.984375 6.308594 Z M 19.984375 11.78125 "/>
<path style=" stroke:none;fill-rule:evenodd;fill:rgb(24.313725%,24.313725%,24.313725%);fill-opacity:1;" d="M 15.609375 14.296875 L 9.851562 17.609375 L 9.851562 14.296875 Z M 19.984375 6.308594 L 23.527344 4.269531 L 23.492188 9.761719 L 19.984375 11.78125 Z M 19.894531 11.835938 L 15.769531 14.207031 L 9.851562 14.207031 L 9.851562 12.117188 L 19.894531 6.359375 Z M 19.894531 11.835938 "/>
<path style=" stroke:none;fill-rule:evenodd;fill:rgb(25.098039%,25.098039%,25.098039%);fill-opacity:1;" d="M 15.769531 14.207031 L 9.851562 17.609375 L 9.851562 14.207031 Z M 19.894531 6.359375 L 23.527344 4.269531 L 23.492188 9.761719 L 19.894531 11.835938 Z M 19.808594 11.886719 L 15.910156 14.121094 L 9.851562 14.121094 L 9.851562 12.117188 L 19.808594 6.414062 Z M 19.808594 11.886719 "/>
<path style=" stroke:none;fill-rule:evenodd;fill:rgb(25.490196%,25.490196%,25.490196%);fill-opacity:1;" d="M 15.910156 14.121094 L 9.851562 17.609375 L 9.851562 14.121094 Z M 19.808594 6.414062 L 23.527344 4.269531 L 23.492188 9.761719 L 19.808594 11.886719 Z M 19.71875 11.941406 L 16.070312 14.03125 L 9.851562 14.03125 L 9.851562 12.117188 L 19.71875 6.449219 Z M 19.71875 11.941406 "/>
<path style=" stroke:none;fill-rule:evenodd;fill:rgb(25.882353%,25.882353%,25.882353%);fill-opacity:1;" d="M 16.070312 14.03125 L 9.851562 17.609375 L 9.851562 14.03125 Z M 19.71875 6.449219 L 23.527344 4.269531 L 23.492188 9.761719 L 19.71875 11.941406 Z M 19.628906 11.976562 L 16.226562 13.941406 L 9.851562 13.941406 L 9.851562 12.117188 L 19.628906 6.503906 Z M 19.628906 11.976562 "/>
<path style=" stroke:none;fill-rule:evenodd;fill:rgb(26.666667%,26.666667%,26.666667%);fill-opacity:1;" d="M 16.226562 13.941406 L 9.851562 17.609375 L 9.851562 13.941406 Z M 19.628906 6.503906 L 23.527344 4.269531 L 23.492188 9.761719 L 19.628906 11.976562 Z M 19.542969 12.03125 L 16.371094 13.855469 L 9.851562 13.855469 L 9.851562 12.117188 L 19.542969 6.554688 Z M 19.542969 12.03125 "/>
<path style=" stroke:none;fill-rule:evenodd;fill:rgb(27.058824%,27.058824%,27.058824%);fill-opacity:1;" d="M 16.371094 13.855469 L 9.851562 17.609375 L 9.851562 13.855469 Z M 19.542969 6.554688 L 23.527344 4.269531 L 23.492188 9.761719 L 19.542969 12.03125 Z M 19.453125 12.082031 L 16.53125 13.765625 L 9.851562 13.765625 L 9.851562 12.117188 L 19.453125 6.609375 Z M 19.453125 12.082031 "/>
<path style=" stroke:none;fill-rule:evenodd;fill:rgb(27.45098%,27.45098%,27.45098%);fill-opacity:1;" d="M 16.53125 13.765625 L 9.851562 17.609375 L 9.851562 13.765625 Z M 19.453125 6.609375 L 23.527344 4.269531 L 23.492188 9.761719 L 19.453125 12.082031 Z M 19.363281 12.136719 L 16.6875 13.675781 L 9.851562 13.675781 L 9.851562 12.117188 L 19.363281 6.660156 Z M 19.363281 12.136719 "/>
<path style=" stroke:none;fill-rule:evenodd;fill:rgb(28.235294%,28.235294%,28.235294%);fill-opacity:1;" d="M 16.6875 13.675781 L 9.851562 17.609375 L 9.851562 13.675781 Z M 19.363281 6.660156 L 23.527344 4.269531 L 23.492188 9.761719 L 19.363281 12.136719 Z M 19.277344 12.1875 L 16.847656 13.589844 L 9.851562 13.589844 L 9.851562 12.117188 L 19.277344 6.714844 Z M 19.277344 12.1875 "/>
<path style=" stroke:none;fill-rule:evenodd;fill:rgb(28.627451%,28.627451%,28.627451%);fill-opacity:1;" d="M 16.847656 13.589844 L 9.851562 17.609375 L 9.851562 13.589844 Z M 19.277344 6.714844 L 23.527344 4.269531 L 23.492188 9.761719 L 19.277344 12.1875 Z M 19.1875 12.242188 L 16.988281 13.5 L 9.851562 13.5 L 9.851562 12.117188 L 19.1875 6.769531 Z M 19.1875 12.242188 "/>
<path style=" stroke:none;fill-rule:evenodd;fill:rgb(29.019608%,29.019608%,29.019608%);fill-opacity:1;" d="M 16.988281 13.5 L 9.851562 17.609375 L 9.851562 13.5 Z M 19.1875 6.769531 L 23.527344 4.269531 L 23.492188 9.761719 L 19.1875 12.242188 Z M 19.097656 12.296875 L 17.148438 13.410156 L 9.851562 13.410156 L 9.851562 12.117188 L 19.097656 6.804688 Z M 19.097656 12.296875 "/>
<path style=" stroke:none;fill-rule:evenodd;fill:rgb(29.803922%,29.803922%,29.803922%);fill-opacity:1;" d="M 17.148438 13.410156 L 9.851562 17.609375 L 9.851562 13.410156 Z M 19.097656 6.804688 L 23.527344 4.269531 L 23.492188 9.761719 L 19.097656 12.296875 Z M 19.011719 12.347656 L 17.308594 13.324219 L 9.851562 13.324219 L 9.851562 12.117188 L 19.011719 6.855469 Z M 19.011719 12.347656 "/>
<path style=" stroke:none;fill-rule:evenodd;fill:rgb(30.196078%,30.196078%,30.196078%);fill-opacity:1;" d="M 17.308594 13.324219 L 9.851562 17.609375 L 9.851562 13.324219 Z M 19.011719 6.855469 L 23.527344 4.269531 L 23.492188 9.761719 L 19.011719 12.347656 Z M 18.921875 12.382812 L 17.449219 13.234375 L 9.851562 13.234375 L 9.851562 12.117188 L 18.921875 6.910156 Z M 18.921875 12.382812 "/>
<path style=" stroke:none;fill-rule:evenodd;fill:rgb(30.588235%,30.588235%,30.588235%);fill-opacity:1;" d="M 17.449219 13.234375 L 9.851562 17.609375 L 9.851562 13.234375 Z M 18.921875 6.910156 L 23.527344 4.269531 L 23.492188 9.761719 L 18.921875 12.382812 Z M 18.832031 12.4375 L 17.609375 13.144531 L 9.851562 13.144531 L 9.851562 12.117188 L 18.832031 6.960938 Z M 18.832031 12.4375 "/>
<path style=" stroke:none;fill-rule:evenodd;fill:rgb(31.372549%,31.372549%,31.372549%);fill-opacity:1;" d="M 17.609375 13.144531 L 9.851562 17.609375 L 9.851562 13.144531 Z M 18.832031 6.960938 L 23.527344 4.269531 L 23.492188 9.761719 L 18.832031 12.4375 Z M 18.742188 12.488281 L 17.769531 13.058594 L 9.851562 13.058594 L 9.851562 12.117188 L 18.742188 7.015625 Z M 18.742188 12.488281 "/>
<path style=" stroke:none;fill-rule:evenodd;fill:rgb(31.764706%,31.764706%,31.764706%);fill-opacity:1;" d="M 17.769531 13.058594 L 9.851562 17.609375 L 9.851562 13.058594 Z M 18.742188 7.015625 L 23.527344 4.269531 L 23.492188 9.761719 L 18.742188 12.488281 Z M 18.65625 12.542969 L 17.910156 12.96875 L 9.851562 12.96875 L 9.851562 12.117188 L 18.65625 7.070312 Z M 18.65625 12.542969 "/>
<path style=" stroke:none;fill-rule:evenodd;fill:rgb(32.156863%,32.156863%,32.156863%);fill-opacity:1;" d="M 17.910156 12.96875 L 9.851562 17.609375 L 9.851562 12.96875 Z M 18.65625 7.070312 L 23.527344 4.269531 L 23.492188 9.761719 L 18.65625 12.542969 Z M 18.566406 12.597656 L 18.070312 12.878906 L 9.851562 12.878906 L 9.851562 12.117188 L 18.566406 7.121094 Z M 18.566406 12.597656 "/>
<path style=" stroke:none;fill-rule:evenodd;fill:rgb(32.941176%,32.941176%,32.941176%);fill-opacity:1;" d="M 18.070312 12.878906 L 9.851562 17.609375 L 9.851562 12.878906 Z M 18.566406 7.121094 L 23.527344 4.269531 L 23.492188 9.761719 L 18.566406 12.597656 Z M 18.476562 12.648438 L 18.230469 12.792969 L 9.851562 12.792969 L 9.851562 12.117188 L 18.476562 7.175781 Z M 18.476562 12.648438 "/>
<path style=" stroke:none;fill-rule:evenodd;fill:rgb(33.333333%,33.333333%,33.333333%);fill-opacity:1;" d="M 18.230469 12.792969 L 9.851562 17.609375 L 9.851562 12.792969 Z M 18.476562 7.175781 L 23.527344 4.269531 L 23.492188 9.761719 L 18.476562 12.648438 Z M 18.390625 12.703125 L 9.851562 12.703125 L 9.851562 12.117188 L 18.390625 7.210938 Z M 18.390625 12.703125 "/>
<path style=" stroke:none;fill-rule:evenodd;fill:rgb(33.72549%,33.72549%,33.72549%);fill-opacity:1;" d="M 18.371094 12.703125 L 9.851562 17.609375 L 9.851562 12.703125 Z M 18.390625 7.210938 L 23.527344 4.269531 L 23.492188 9.761719 L 18.390625 12.703125 Z M 18.300781 12.613281 L 9.851562 12.613281 L 9.851562 12.117188 L 18.300781 7.265625 Z M 18.300781 12.613281 "/>
<path style=" stroke:none;fill-rule:evenodd;fill:rgb(34.509804%,34.509804%,34.509804%);fill-opacity:1;" d="M 18.300781 12.613281 L 18.300781 7.265625 L 23.527344 4.269531 L 23.492188 9.761719 L 9.851562 17.609375 L 9.851562 12.613281 Z M 18.210938 12.527344 L 9.851562 12.527344 L 9.851562 12.117188 L 18.210938 7.316406 Z M 18.210938 12.527344 "/>
<path style=" stroke:none;fill-rule:evenodd;fill:rgb(34.901961%,34.901961%,34.901961%);fill-opacity:1;" d="M 18.210938 12.527344 L 18.210938 7.316406 L 23.527344 4.269531 L 23.492188 9.761719 L 9.851562 17.609375 L 9.851562 12.527344 Z M 18.125 12.4375 L 9.851562 12.4375 L 9.851562 12.117188 L 18.125 7.371094 Z M 18.125 12.4375 "/>
<path style=" stroke:none;fill-rule:evenodd;fill:rgb(35.294118%,35.294118%,35.294118%);fill-opacity:1;" d="M 18.125 12.4375 L 18.125 7.371094 L 23.527344 4.269531 L 23.492188 9.761719 L 9.851562 17.609375 L 9.851562 12.4375 Z M 18.019531 12.332031 L 9.851562 12.332031 L 9.851562 12.117188 L 18.019531 7.421875 Z M 18.019531 12.332031 "/>
<path style=" stroke:none;fill-rule:evenodd;fill:rgb(36.078431%,36.078431%,36.078431%);fill-opacity:1;" d="M 18.019531 12.332031 L 18.019531 7.421875 L 23.527344 4.269531 L 23.492188 9.761719 L 9.851562 17.609375 L 9.851562 12.332031 Z M 17.929688 12.242188 L 9.9375 12.242188 L 9.9375 12.066406 L 17.929688 7.476562 Z M 17.929688 12.242188 "/>
<path style=" stroke:none;fill-rule:evenodd;fill:rgb(36.470588%,36.470588%,36.470588%);fill-opacity:1;" d="M 9.9375 12.242188 L 17.929688 12.242188 L 17.929688 7.476562 L 23.527344 4.269531 L 23.492188 9.761719 L 9.851562 17.609375 L 9.851562 12.117188 L 9.9375 12.066406 Z M 17.839844 12.152344 L 10.027344 12.152344 L 10.027344 12.011719 L 17.839844 7.53125 Z M 17.839844 12.152344 "/>
<path style=" stroke:none;fill-rule:evenodd;fill:rgb(36.862745%,36.862745%,36.862745%);fill-opacity:1;" d="M 10.027344 12.152344 L 17.839844 12.152344 L 17.839844 7.53125 L 23.527344 4.269531 L 23.492188 9.761719 L 9.851562 17.609375 L 9.851562 12.117188 L 10.027344 12.011719 Z M 17.753906 12.066406 L 10.117188 12.066406 L 10.117188 11.957031 L 17.753906 7.582031 Z M 17.753906 12.066406 "/>
<path style=" stroke:none;fill-rule:evenodd;fill:rgb(37.647059%,37.647059%,37.647059%);fill-opacity:1;" d="M 10.117188 12.066406 L 17.753906 12.066406 L 17.753906 7.582031 L 23.527344 4.269531 L 23.492188 9.761719 L 9.851562 17.609375 L 9.851562 12.117188 L 10.117188 11.957031 Z M 17.664062 11.976562 L 10.203125 11.976562 L 10.203125 11.921875 L 17.664062 7.636719 Z M 17.664062 11.976562 "/>
<path style=" stroke:none;fill-rule:evenodd;fill:rgb(38.039216%,38.039216%,38.039216%);fill-opacity:1;" d="M 10.203125 11.976562 L 17.664062 11.976562 L 17.664062 7.636719 L 23.527344 4.269531 L 23.492188 9.761719 L 9.851562 17.609375 L 9.851562 12.117188 L 10.203125 11.921875 Z M 17.574219 11.886719 L 10.292969 11.886719 L 10.292969 11.871094 L 17.574219 7.6875 Z M 17.574219 11.886719 "/>
<path style=" stroke:none;fill-rule:evenodd;fill:rgb(38.431373%,38.431373%,38.431373%);fill-opacity:1;" d="M 10.292969 11.886719 L 17.574219 11.886719 L 17.574219 7.6875 L 23.527344 4.269531 L 23.492188 9.761719 L 9.851562 17.609375 L 9.851562 12.117188 L 10.292969 11.871094 Z M 17.484375 11.800781 L 10.398438 11.800781 L 17.484375 7.742188 Z M 17.484375 11.800781 "/>
<path style=" stroke:none;fill-rule:evenodd;fill:rgb(39.215686%,39.215686%,39.215686%);fill-opacity:1;" d="M 17.484375 11.800781 L 17.484375 7.742188 L 23.527344 4.269531 L 23.492188 9.761719 L 9.851562 17.609375 L 9.851562 12.117188 L 10.398438 11.800781 Z M 17.398438 11.710938 L 10.558594 11.710938 L 17.398438 7.796875 Z M 17.398438 11.710938 "/>
<path style=" stroke:none;fill-rule:evenodd;fill:rgb(39.607843%,39.607843%,39.607843%);fill-opacity:1;" d="M 17.398438 11.710938 L 17.398438 7.796875 L 23.527344 4.269531 L 23.492188 9.761719 L 9.851562 17.609375 L 9.851562 12.117188 L 10.558594 11.710938 Z M 17.308594 11.621094 L 10.71875 11.621094 L 17.308594 7.832031 Z M 17.308594 11.621094 "/>
<path style=" stroke:none;fill-rule:evenodd;fill:rgb(40%,40%,40%);fill-opacity:1;" d="M 17.308594 11.621094 L 17.308594 7.832031 L 23.527344 4.269531 L 23.492188 9.761719 L 9.851562 17.609375 L 9.851562 12.117188 L 10.71875 11.621094 Z M 17.21875 11.535156 L 10.878906 11.535156 L 17.21875 7.882812 Z M 17.21875 11.535156 "/>
<path style=" stroke:none;fill-rule:evenodd;fill:rgb(40.392157%,40.392157%,40.392157%);fill-opacity:1;" d="M 17.21875 11.535156 L 17.21875 7.882812 L 23.527344 4.269531 L 23.492188 9.761719 L 9.851562 17.609375 L 9.851562 12.117188 L 10.878906 11.535156 Z M 17.132812 11.445312 L 11.019531 11.445312 L 17.132812 7.9375 Z M 17.132812 11.445312 "/>
<path style=" stroke:none;fill-rule:evenodd;fill:rgb(41.176471%,41.176471%,41.176471%);fill-opacity:1;" d="M 17.132812 11.445312 L 17.132812 7.9375 L 23.527344 4.269531 L 23.492188 9.761719 L 9.851562 17.609375 L 9.851562 12.117188 L 11.019531 11.445312 Z M 17.042969 11.355469 L 11.179688 11.355469 L 17.042969 7.988281 Z M 17.042969 11.355469 "/>
<path style=" stroke:none;fill-rule:evenodd;fill:rgb(41.568627%,41.568627%,41.568627%);fill-opacity:1;" d="M 17.042969 11.355469 L 17.042969 7.988281 L 23.527344 4.269531 L 23.492188 9.761719 L 9.851562 17.609375 L 9.851562 12.117188 L 11.179688 11.355469 Z M 16.953125 11.269531 L 11.339844 11.269531 L 16.953125 8.042969 Z M 16.953125 11.269531 "/>
<path style=" stroke:none;fill-rule:evenodd;fill:rgb(41.960784%,41.960784%,41.960784%);fill-opacity:1;" d="M 16.953125 11.269531 L 16.953125 8.042969 L 23.527344 4.269531 L 23.492188 9.761719 L 9.851562 17.609375 L 9.851562 12.117188 L 11.339844 11.269531 Z M 16.867188 11.179688 L 11.480469 11.179688 L 16.867188 8.097656 Z M 16.867188 11.179688 "/>
<path style=" stroke:none;fill-rule:evenodd;fill:rgb(42.745098%,42.745098%,42.745098%);fill-opacity:1;" d="M 16.867188 11.179688 L 16.867188 8.097656 L 23.527344 4.269531 L 23.492188 9.761719 L 9.851562 17.609375 L 9.851562 12.117188 L 11.480469 11.179688 Z M 16.777344 11.089844 L 11.640625 11.089844 L 16.777344 8.148438 Z M 16.777344 11.089844 "/>
<path style=" stroke:none;fill-rule:evenodd;fill:rgb(43.137255%,43.137255%,43.137255%);fill-opacity:1;" d="M 16.777344 11.089844 L 16.777344 8.148438 L 23.527344 4.269531 L 23.492188 9.761719 L 9.851562 17.609375 L 9.851562 12.117188 L 11.640625 11.089844 Z M 16.6875 11.003906 L 11.800781 11.003906 L 16.6875 8.203125 Z M 16.6875 11.003906 "/>
<path style=" stroke:none;fill-rule:evenodd;fill:rgb(43.529412%,43.529412%,43.529412%);fill-opacity:1;" d="M 16.6875 11.003906 L 16.6875 8.203125 L 23.527344 4.269531 L 23.492188 9.761719 L 9.851562 17.609375 L 9.851562 12.117188 L 11.800781 11.003906 Z M 16.601562 10.914062 L 11.957031 10.914062 L 16.601562 8.238281 Z M 16.601562 10.914062 "/>
<path style=" stroke:none;fill-rule:evenodd;fill:rgb(44.313725%,44.313725%,44.313725%);fill-opacity:1;" d="M 16.601562 10.914062 L 16.601562 8.238281 L 23.527344 4.269531 L 23.492188 9.761719 L 9.851562 17.609375 L 9.851562 12.117188 L 11.957031 10.914062 Z M 16.511719 10.824219 L 12.101562 10.824219 L 16.511719 8.292969 Z M 16.511719 10.824219 "/>
<path style=" stroke:none;fill-rule:evenodd;fill:rgb(44.705882%,44.705882%,44.705882%);fill-opacity:1;" d="M 16.511719 10.824219 L 16.511719 8.292969 L 23.527344 4.269531 L 23.492188 9.761719 L 9.851562 17.609375 L 9.851562 12.117188 L 12.101562 10.824219 Z M 16.421875 10.734375 L 12.261719 10.734375 L 16.421875 8.34375 Z M 16.421875 10.734375 "/>
<path style=" stroke:none;fill-rule:evenodd;fill:rgb(45.098039%,45.098039%,45.098039%);fill-opacity:1;" d="M 16.421875 10.734375 L 16.421875 8.34375 L 23.527344 4.269531 L 23.492188 9.761719 L 9.851562 17.609375 L 9.851562 12.117188 L 12.261719 10.734375 Z M 16.335938 10.648438 L 12.417969 10.648438 L 16.335938 8.398438 Z M 16.335938 10.648438 "/>
<path style=" stroke:none;fill-rule:evenodd;fill:rgb(45.882353%,45.882353%,45.882353%);fill-opacity:1;" d="M 16.335938 10.648438 L 16.335938 8.398438 L 23.527344 4.269531 L 23.492188 9.761719 L 9.851562 17.609375 L 9.851562 12.117188 L 12.417969 10.648438 Z M 16.246094 10.558594 L 12.5625 10.558594 L 16.246094 8.449219 Z M 16.246094 10.558594 "/>
<path style=" stroke:none;fill-rule:evenodd;fill:rgb(46.27451%,46.27451%,46.27451%);fill-opacity:1;" d="M 16.246094 10.558594 L 16.246094 8.449219 L 23.527344 4.269531 L 23.492188 9.761719 L 9.851562 17.609375 L 9.851562 12.117188 L 12.5625 10.558594 Z M 16.15625 10.46875 L 12.71875 10.46875 L 16.15625 8.503906 Z M 16.15625 10.46875 "/>
<path style=" stroke:none;fill-rule:evenodd;fill:rgb(46.666667%,46.666667%,46.666667%);fill-opacity:1;" d="M 16.15625 10.46875 L 16.15625 8.503906 L 23.527344 4.269531 L 23.492188 9.761719 L 9.851562 17.609375 L 9.851562 12.117188 L 12.71875 10.46875 Z M 16.070312 10.382812 L 12.878906 10.382812 L 16.070312 8.558594 Z M 16.070312 10.382812 "/>
<path style=" stroke:none;fill-rule:evenodd;fill:rgb(47.45098%,47.45098%,47.45098%);fill-opacity:1;" d="M 16.070312 10.382812 L 16.070312 8.558594 L 23.527344 4.269531 L 23.492188 9.761719 L 9.851562 17.609375 L 9.851562 12.117188 L 12.878906 10.382812 Z M 15.980469 10.292969 L 13.023438 10.292969 L 15.980469 8.59375 Z M 15.980469 10.292969 "/>
<path style=" stroke:none;fill-rule:evenodd;fill:rgb(47.843137%,47.843137%,47.843137%);fill-opacity:1;" d="M 15.980469 10.292969 L 15.980469 8.59375 L 23.527344 4.269531 L 23.492188 9.761719 L 9.851562 17.609375 L 9.851562 12.117188 L 13.023438 10.292969 Z M 15.890625 10.203125 L 13.179688 10.203125 L 15.890625 8.644531 Z M 15.890625 10.203125 "/>
<path style=" stroke:none;fill-rule:evenodd;fill:rgb(48.235294%,48.235294%,48.235294%);fill-opacity:1;" d="M 15.890625 10.203125 L 15.890625 8.644531 L 23.527344 4.269531 L 23.492188 9.761719 L 9.851562 17.609375 L 9.851562 12.117188 L 13.179688 10.203125 Z M 15.804688 10.117188 L 13.339844 10.117188 L 15.804688 8.699219 Z M 15.804688 10.117188 "/>
<path style=" stroke:none;fill-rule:evenodd;fill:rgb(49.019608%,49.019608%,49.019608%);fill-opacity:1;" d="M 15.804688 10.117188 L 15.804688 8.699219 L 23.527344 4.269531 L 23.492188 9.761719 L 9.851562 17.609375 L 9.851562 12.117188 L 13.339844 10.117188 Z M 15.714844 10.027344 L 13.5 10.027344 L 15.714844 8.753906 Z M 15.714844 10.027344 "/>
<path style=" stroke:none;fill-rule:evenodd;fill:rgb(49.411765%,49.411765%,49.411765%);fill-opacity:1;" d="M 15.714844 10.027344 L 15.714844 8.753906 L 23.527344 4.269531 L 23.492188 9.761719 L 9.851562 17.609375 L 9.851562 12.117188 L 13.5 10.027344 Z M 15.625 9.9375 L 13.640625 9.9375 L 15.625 8.804688 Z M 15.625 9.9375 "/>
<path style=" stroke:none;fill-rule:evenodd;fill:rgb(49.803922%,49.803922%,49.803922%);fill-opacity:1;" d="M 15.625 9.9375 L 15.625 8.804688 L 23.527344 4.269531 L 23.492188 9.761719 L 9.851562 17.609375 L 9.851562 12.117188 L 13.640625 9.9375 Z M 15.539062 9.851562 L 13.800781 9.851562 L 15.539062 8.859375 Z M 15.539062 9.851562 "/>
<path style=" stroke:none;fill-rule:evenodd;fill:rgb(50.588235%,50.588235%,50.588235%);fill-opacity:1;" d="M 15.539062 9.851562 L 15.539062 8.859375 L 23.527344 4.269531 L 23.492188 9.761719 L 9.851562 17.609375 L 9.851562 12.117188 L 13.800781 9.851562 Z M 15.449219 9.761719 L 13.960938 9.761719 L 15.449219 8.910156 Z M 15.449219 9.761719 "/>
<path style=" stroke:none;fill-rule:evenodd;fill:rgb(50.980392%,50.980392%,50.980392%);fill-opacity:1;" d="M 15.449219 9.761719 L 15.449219 8.910156 L 23.527344 4.269531 L 23.492188 9.761719 L 9.851562 17.609375 L 9.851562 12.117188 L 13.960938 9.761719 Z M 15.359375 9.671875 L 14.101562 9.671875 L 15.359375 8.964844 Z M 15.359375 9.671875 "/>
<path style=" stroke:none;fill-rule:evenodd;fill:rgb(51.372549%,51.372549%,51.372549%);fill-opacity:1;" d="M 15.359375 9.671875 L 15.359375 8.964844 L 23.527344 4.269531 L 23.492188 9.761719 L 9.851562 17.609375 L 9.851562 12.117188 L 14.101562 9.671875 Z M 15.253906 9.566406 L 14.296875 9.566406 L 15.253906 9.019531 Z M 15.253906 9.566406 "/>
<path style=" stroke:none;fill-rule:evenodd;fill:rgb(52.156863%,52.156863%,52.156863%);fill-opacity:1;" d="M 15.253906 9.566406 L 15.253906 9.019531 L 23.527344 4.269531 L 23.492188 9.761719 L 9.851562 17.609375 L 9.851562 12.117188 L 14.296875 9.566406 Z M 15.164062 9.476562 L 14.457031 9.476562 L 15.164062 9.070312 Z M 15.164062 9.476562 "/>
<path style=" stroke:none;fill-rule:evenodd;fill:rgb(52.54902%,52.54902%,52.54902%);fill-opacity:1;" d="M 15.164062 9.476562 L 15.164062 9.070312 L 23.527344 4.269531 L 23.492188 9.761719 L 9.851562 17.609375 L 9.851562 12.117188 L 14.457031 9.476562 Z M 15.078125 9.390625 L 14.597656 9.390625 L 15.078125 9.125 Z M 15.078125 9.390625 "/>
<path style=" stroke:none;fill-rule:evenodd;fill:rgb(52.941176%,52.941176%,52.941176%);fill-opacity:1;" d="M 15.078125 9.390625 L 15.078125 9.125 L 23.527344 4.269531 L 23.492188 9.761719 L 9.851562 17.609375 L 9.851562 12.117188 L 14.597656 9.390625 Z M 14.988281 9.300781 L 14.757812 9.300781 L 14.988281 9.175781 Z M 14.988281 9.300781 "/>
<path style=" stroke:none;fill-rule:evenodd;fill:rgb(53.72549%,53.72549%,53.72549%);fill-opacity:1;" d="M 14.988281 9.300781 L 14.988281 9.175781 L 23.527344 4.269531 L 23.492188 9.761719 L 9.851562 17.609375 L 9.851562 12.117188 L 14.757812 9.300781 Z M 14.988281 9.300781 "/>
<path style=" stroke:none;fill-rule:evenodd;fill:rgb(54.117647%,54.117647%,54.117647%);fill-opacity:1;" d="M 9.851562 17.609375 L 9.851562 12.117188 L 23.527344 4.269531 L 23.492188 9.761719 Z M 9.851562 17.609375 "/>
<path style=" stroke:none;fill-rule:evenodd;fill:rgb(54.509804%,54.509804%,54.509804%);fill-opacity:1;" d="M 9.851562 17.609375 L 9.851562 12.117188 L 23.527344 4.269531 L 23.492188 9.761719 Z M 9.851562 17.609375 "/>
<path style=" stroke:none;fill-rule:evenodd;fill:rgb(55.294118%,55.294118%,55.294118%);fill-opacity:1;" d="M 9.851562 17.609375 L 9.851562 12.117188 L 23.527344 4.269531 L 23.492188 9.761719 Z M 9.851562 17.609375 "/>
<path style=" stroke:none;fill-rule:evenodd;fill:rgb(55.686275%,55.686275%,55.686275%);fill-opacity:1;" d="M 9.851562 17.609375 L 9.851562 12.117188 L 23.527344 4.269531 L 23.492188 9.761719 Z M 9.851562 17.609375 "/>
<path style=" stroke:none;fill-rule:evenodd;fill:rgb(56.078431%,56.078431%,56.078431%);fill-opacity:1;" d="M 9.851562 17.609375 L 9.851562 12.117188 L 23.527344 4.269531 L 23.492188 9.761719 Z M 9.851562 17.609375 "/>
<path style=" stroke:none;fill-rule:evenodd;fill:rgb(56.862745%,56.862745%,56.862745%);fill-opacity:1;" d="M 9.851562 17.609375 L 9.851562 12.117188 L 23.527344 4.269531 L 23.492188 9.761719 Z M 9.851562 17.609375 "/>
<path style=" stroke:none;fill-rule:evenodd;fill:rgb(57.254902%,57.254902%,57.254902%);fill-opacity:1;" d="M 9.851562 17.609375 L 9.851562 12.117188 L 23.527344 4.269531 L 23.492188 9.761719 Z M 9.851562 17.609375 "/>
<path style=" stroke:none;fill-rule:evenodd;fill:rgb(57.647059%,57.647059%,57.647059%);fill-opacity:1;" d="M 9.851562 17.609375 L 9.851562 12.117188 L 23.527344 4.269531 L 23.492188 9.761719 Z M 9.851562 17.609375 "/>
<path style=" stroke:none;fill-rule:evenodd;fill:rgb(58.431373%,58.431373%,58.431373%);fill-opacity:1;" d="M 9.851562 17.609375 L 9.851562 12.117188 L 23.527344 4.269531 L 23.492188 9.761719 Z M 9.851562 17.609375 "/>
<path style=" stroke:none;fill-rule:evenodd;fill:rgb(58.823529%,58.823529%,58.823529%);fill-opacity:1;" d="M 9.851562 17.609375 L 9.851562 12.117188 L 23.527344 4.269531 L 23.492188 9.761719 Z M 9.851562 17.609375 "/>
<path style="fill-rule:evenodd;fill:rgb(60%,60%,60%);fill-opacity:1;stroke-width:40;stroke-linecap:butt;stroke-linejoin:round;stroke:rgb(69.803922%,69.803922%,69.803922%);stroke-opacity:1;stroke-miterlimit:4;" d="M 4909.065972 8461.951389 L 4909.065972 8151.947917 L 5680.987847 7708.991319 L 5679.003472 8018.994792 Z M 4909.065972 8461.951389 " transform="matrix(0.0177165,0,0,0.0177165,-77.120079,-132.307087)"/>
<path style="fill-rule:evenodd;fill:url(#linear0);stroke-width:40;stroke-linecap:butt;stroke-linejoin:round;stroke:rgb(69.803922%,69.803922%,69.803922%);stroke-opacity:1;stroke-miterlimit:4;" d="M 4911.050347 8151.947917 L 4528.065972 7931.020833 L 5296.019097 7488.064236 L 5679.003472 7708.991319 Z M 4911.050347 8151.947917 " transform="matrix(0.0177165,0,0,0.0177165,-77.120079,-132.307087)"/>
<path style="fill-rule:evenodd;fill:url(#linear1);stroke-width:40;stroke-linecap:butt;stroke-linejoin:round;stroke:rgb(69.803922%,69.803922%,69.803922%);stroke-opacity:1;stroke-miterlimit:4;" d="M 4526.963542 8239.921875 L 4528.065972 7929.918403 L 4911.050347 8151.065972 L 4911.050347 8461.069444 Z M 4526.963542 8239.921875 " transform="matrix(0.0177165,0,0,0.0177165,-77.120079,-132.307087)"/>
<path style="fill-rule:evenodd;fill:url(#linear2);stroke-width:40;stroke-linecap:butt;stroke-linejoin:round;stroke:rgb(100%,100%,100%);stroke-opacity:1;stroke-miterlimit:4;" d="M 4373.064236 8328.998264 L 4373.064236 8196.045139 L 4603.913194 8328.998264 L 4603.03125 8461.951389 Z M 4373.064236 8328.998264 " transform="matrix(0.0177165,0,0,0.0177165,-77.120079,-132.307087)"/>
<path style=" stroke:none;fill-rule:evenodd;fill:rgb(70.196078%,70.196078%,70.196078%);fill-opacity:1;" d="M 7.917969 15.589844 L 6.234375 16.566406 L 4.429688 16.566406 L 4.429688 15.253906 L 7.917969 13.253906 Z M 7.917969 15.589844 "/>
<path style=" stroke:none;fill-rule:evenodd;fill:rgb(70.588235%,70.588235%,70.588235%);fill-opacity:1;" d="M 6.234375 16.566406 L 4.429688 17.609375 L 4.429688 16.566406 Z M 7.917969 13.253906 L 8.539062 12.898438 L 8.503906 15.253906 L 7.917969 15.589844 Z M 7.832031 15.644531 L 6.394531 16.476562 L 4.429688 16.476562 L 4.429688 15.253906 L 7.832031 13.304688 Z M 7.832031 15.644531 "/>
<path style=" stroke:none;fill-rule:evenodd;fill:rgb(71.372549%,71.372549%,71.372549%);fill-opacity:1;" d="M 6.394531 16.476562 L 4.429688 17.609375 L 4.429688 16.476562 Z M 7.832031 13.304688 L 8.539062 12.898438 L 8.503906 15.253906 L 7.832031 15.644531 Z M 7.742188 15.695312 L 6.539062 16.386719 L 4.429688 16.386719 L 4.429688 15.253906 L 7.742188 13.359375 Z M 7.742188 15.695312 "/>
<path style=" stroke:none;fill-rule:evenodd;fill:rgb(72.156863%,72.156863%,72.156863%);fill-opacity:1;" d="M 6.539062 16.386719 L 4.429688 17.609375 L 4.429688 16.386719 Z M 7.742188 13.359375 L 8.539062 12.898438 L 8.503906 15.253906 L 7.742188 15.695312 Z M 7.652344 15.75 L 6.695312 16.300781 L 4.429688 16.300781 L 4.429688 15.253906 L 7.652344 13.410156 Z M 7.652344 15.75 "/>
<path style=" stroke:none;fill-rule:evenodd;fill:rgb(72.941176%,72.941176%,72.941176%);fill-opacity:1;" d="M 6.695312 16.300781 L 4.429688 17.609375 L 4.429688 16.300781 Z M 7.652344 13.410156 L 8.539062 12.898438 L 8.503906 15.253906 L 7.652344 15.75 Z M 7.566406 15.804688 L 6.855469 16.210938 L 4.429688 16.210938 L 4.429688 15.253906 L 7.566406 13.464844 Z M 7.566406 15.804688 "/>
<path style=" stroke:none;fill-rule:evenodd;fill:rgb(73.72549%,73.72549%,73.72549%);fill-opacity:1;" d="M 6.855469 16.210938 L 4.429688 17.609375 L 4.429688 16.210938 Z M 7.566406 13.464844 L 8.539062 12.898438 L 8.503906 15.253906 L 7.566406 15.804688 Z M 7.457031 15.855469 L 7.035156 16.105469 L 4.429688 16.105469 L 4.429688 15.253906 L 7.457031 13.519531 Z M 7.457031 15.855469 "/>
<path style=" stroke:none;fill-rule:evenodd;fill:rgb(74.509804%,74.509804%,74.509804%);fill-opacity:1;" d="M 7.035156 16.105469 L 4.429688 17.609375 L 4.429688 16.105469 Z M 7.457031 13.519531 L 8.539062 12.898438 L 8.503906 15.253906 L 7.457031 15.855469 Z M 7.371094 15.910156 L 7.191406 16.015625 L 4.429688 16.015625 L 4.429688 15.253906 L 7.371094 13.570312 Z M 7.371094 15.910156 "/>
<path style=" stroke:none;fill-rule:evenodd;fill:rgb(75.294118%,75.294118%,75.294118%);fill-opacity:1;" d="M 7.191406 16.015625 L 4.429688 17.609375 L 4.429688 16.015625 Z M 7.371094 13.570312 L 8.539062 12.898438 L 8.503906 15.253906 L 7.371094 15.910156 Z M 7.28125 15.925781 L 4.429688 15.925781 L 4.429688 15.253906 L 7.28125 13.625 Z M 7.28125 15.925781 "/>
<path style=" stroke:none;fill-rule:evenodd;fill:rgb(76.078431%,76.078431%,76.078431%);fill-opacity:1;" d="M 7.28125 15.925781 L 7.28125 13.625 L 8.539062 12.898438 L 8.503906 15.253906 L 4.429688 17.609375 L 4.429688 15.925781 Z M 7.191406 15.839844 L 4.429688 15.839844 L 4.429688 15.253906 L 7.191406 13.675781 Z M 7.191406 15.839844 "/>
<path style=" stroke:none;fill-rule:evenodd;fill:rgb(76.862745%,76.862745%,76.862745%);fill-opacity:1;" d="M 7.191406 15.839844 L 7.191406 13.675781 L 8.539062 12.898438 L 8.503906 15.253906 L 4.429688 17.609375 L 4.429688 15.839844 Z M 7.105469 15.75 L 4.429688 15.75 L 4.429688 15.253906 L 7.105469 13.710938 Z M 7.105469 15.75 "/>
<path style=" stroke:none;fill-rule:evenodd;fill:rgb(77.647059%,77.647059%,77.647059%);fill-opacity:1;" d="M 7.105469 15.75 L 7.105469 13.710938 L 8.539062 12.898438 L 8.503906 15.253906 L 4.429688 17.609375 L 4.429688 15.75 Z M 7.015625 15.660156 L 4.429688 15.660156 L 4.429688 15.253906 L 7.015625 13.765625 Z M 7.015625 15.660156 "/>
<path style=" stroke:none;fill-rule:evenodd;fill:rgb(78.431373%,78.431373%,78.431373%);fill-opacity:1;" d="M 7.015625 15.660156 L 7.015625 13.765625 L 8.539062 12.898438 L 8.503906 15.253906 L 4.429688 17.609375 L 4.429688 15.660156 Z M 6.910156 15.554688 L 4.429688 15.554688 L 4.429688 15.253906 L 6.910156 13.835938 Z M 6.910156 15.554688 "/>
<path style=" stroke:none;fill-rule:evenodd;fill:rgb(79.215686%,79.215686%,79.215686%);fill-opacity:1;" d="M 6.910156 15.554688 L 6.910156 13.835938 L 8.539062 12.898438 L 8.503906 15.253906 L 4.429688 17.609375 L 4.429688 15.554688 Z M 6.820312 15.464844 L 4.464844 15.464844 L 4.464844 15.234375 L 6.820312 13.890625 Z M 6.820312 15.464844 "/>
<path style=" stroke:none;fill-rule:evenodd;fill:rgb(80%,80%,80%);fill-opacity:1;" d="M 4.464844 15.464844 L 6.820312 15.464844 L 6.820312 13.890625 L 8.539062 12.898438 L 8.503906 15.253906 L 4.429688 17.609375 L 4.429688 15.253906 L 4.464844 15.234375 Z M 6.730469 15.378906 L 4.554688 15.378906 L 4.554688 15.183594 L 6.730469 13.925781 Z M 6.730469 15.378906 "/>
<path style=" stroke:none;fill-rule:evenodd;fill:rgb(80.392157%,80.392157%,80.392157%);fill-opacity:1;" d="M 4.554688 15.378906 L 6.730469 15.378906 L 6.730469 13.925781 L 8.539062 12.898438 L 8.503906 15.253906 L 4.429688 17.609375 L 4.429688 15.253906 L 4.554688 15.183594 Z M 6.644531 15.289062 L 4.640625 15.289062 L 4.640625 15.128906 L 6.644531 13.976562 Z M 6.644531 15.289062 "/>
<path style=" stroke:none;fill-rule:evenodd;fill:rgb(81.176471%,81.176471%,81.176471%);fill-opacity:1;" d="M 4.640625 15.289062 L 6.644531 15.289062 L 6.644531 13.976562 L 8.539062 12.898438 L 8.503906 15.253906 L 4.429688 17.609375 L 4.429688 15.253906 L 4.640625 15.128906 Z M 6.554688 15.199219 L 4.730469 15.199219 L 4.730469 15.078125 L 6.554688 14.03125 Z M 6.554688 15.199219 "/>
<path style=" stroke:none;fill-rule:evenodd;fill:rgb(81.960784%,81.960784%,81.960784%);fill-opacity:1;" d="M 4.730469 15.199219 L 6.554688 15.199219 L 6.554688 14.03125 L 8.539062 12.898438 L 8.503906 15.253906 L 4.429688 17.609375 L 4.429688 15.253906 L 4.730469 15.078125 Z M 6.464844 15.113281 L 4.820312 15.113281 L 4.820312 15.023438 L 6.464844 14.085938 Z M 6.464844 15.113281 "/>
<path style=" stroke:none;fill-rule:evenodd;fill:rgb(82.745098%,82.745098%,82.745098%);fill-opacity:1;" d="M 4.820312 15.113281 L 6.464844 15.113281 L 6.464844 14.085938 L 8.539062 12.898438 L 8.503906 15.253906 L 4.429688 17.609375 L 4.429688 15.253906 L 4.820312 15.023438 Z M 6.359375 15.007812 L 4.925781 15.007812 L 4.925781 14.96875 L 6.359375 14.15625 Z M 6.359375 15.007812 "/>
<path style=" stroke:none;fill-rule:evenodd;fill:rgb(83.529412%,83.529412%,83.529412%);fill-opacity:1;" d="M 4.925781 15.007812 L 6.359375 15.007812 L 6.359375 14.15625 L 8.539062 12.898438 L 8.503906 15.253906 L 4.429688 17.609375 L 4.429688 15.253906 L 4.925781 14.96875 Z M 6.273438 14.917969 L 5.015625 14.917969 L 6.273438 14.191406 Z M 6.273438 14.917969 "/>
<path style=" stroke:none;fill-rule:evenodd;fill:rgb(84.313725%,84.313725%,84.313725%);fill-opacity:1;" d="M 6.273438 14.917969 L 6.273438 14.191406 L 8.539062 12.898438 L 8.503906 15.253906 L 4.429688 17.609375 L 4.429688 15.253906 L 5.015625 14.917969 Z M 6.183594 14.828125 L 5.171875 14.828125 L 6.183594 14.242188 Z M 6.183594 14.828125 "/>
<path style=" stroke:none;fill-rule:evenodd;fill:rgb(85.098039%,85.098039%,85.098039%);fill-opacity:1;" d="M 6.183594 14.828125 L 6.183594 14.242188 L 8.539062 12.898438 L 8.503906 15.253906 L 4.429688 17.609375 L 4.429688 15.253906 L 5.171875 14.828125 Z M 6.09375 14.738281 L 5.332031 14.738281 L 6.09375 14.296875 Z M 6.09375 14.738281 "/>
<path style=" stroke:none;fill-rule:evenodd;fill:rgb(85.882353%,85.882353%,85.882353%);fill-opacity:1;" d="M 6.09375 14.738281 L 6.09375 14.296875 L 8.539062 12.898438 L 8.503906 15.253906 L 4.429688 17.609375 L 4.429688 15.253906 L 5.332031 14.738281 Z M 6.007812 14.652344 L 5.472656 14.652344 L 6.007812 14.351562 Z M 6.007812 14.652344 "/>
<path style=" stroke:none;fill-rule:evenodd;fill:rgb(86.666667%,86.666667%,86.666667%);fill-opacity:1;" d="M 6.007812 14.652344 L 6.007812 14.351562 L 8.539062 12.898438 L 8.503906 15.253906 L 4.429688 17.609375 L 4.429688 15.253906 L 5.472656 14.652344 Z M 5.917969 14.5625 L 5.632812 14.5625 L 5.917969 14.402344 Z M 5.917969 14.5625 "/>
<path style=" stroke:none;fill-rule:evenodd;fill:rgb(87.45098%,87.45098%,87.45098%);fill-opacity:1;" d="M 5.917969 14.5625 L 5.917969 14.402344 L 8.539062 12.898438 L 8.503906 15.253906 L 4.429688 17.609375 L 4.429688 15.253906 L 5.632812 14.5625 Z M 5.917969 14.5625 "/>
<path style=" stroke:none;fill-rule:evenodd;fill:rgb(88.235294%,88.235294%,88.235294%);fill-opacity:1;" d="M 4.429688 17.609375 L 4.429688 15.253906 L 8.539062 12.898438 L 8.503906 15.253906 Z M 4.429688 17.609375 "/>
<path style="fill-rule:evenodd;fill:rgb(89.803922%,89.803922%,89.803922%);fill-opacity:1;stroke-width:40;stroke-linecap:butt;stroke-linejoin:round;stroke:rgb(100%,100%,100%);stroke-opacity:1;stroke-miterlimit:4;" d="M 4603.03125 8461.951389 L 4603.03125 8328.998264 L 4834.982639 8196.045139 L 4832.998264 8328.998264 Z M 4603.03125 8461.951389 " transform="matrix(0.0177165,0,0,0.0177165,-77.120079,-132.307087)"/>
<path style="fill-rule:evenodd;fill:url(#linear3);stroke-width:40;stroke-linecap:butt;stroke-linejoin:round;stroke:rgb(100%,100%,100%);stroke-opacity:1;stroke-miterlimit:4;" d="M 4603.03125 8328.998264 L 4373.064236 8196.045139 L 4603.03125 8063.092014 L 4832.998264 8196.045139 Z M 4603.03125 8328.998264 " transform="matrix(0.0177165,0,0,0.0177165,-77.120079,-132.307087)"/>
<path style="fill:none;stroke-width:40;stroke-linecap:butt;stroke-linejoin:round;stroke:rgb(0%,0%,0%);stroke-opacity:1;stroke-miterlimit:4;" d="M 4756.930556 8373.977431 L 4603.03125 8461.951389 L 4373.064236 8328.998264 L 4373.064236 8196.927083 L 4526.963542 8108.071181 L 4526.963542 7931.020833 L 5296.019097 7488.064236 L 5677.019097 7708.991319 L 5679.003472 8018.994792 L 4909.947917 8461.951389 Z M 4756.930556 8373.977431 " transform="matrix(0.0177165,0,0,0.0177165,-77.120079,-132.307087)"/>
</g>
</svg>
