<?xml version="1.0" encoding="UTF-8"?>
<svg xmlns="http://www.w3.org/2000/svg" xmlns:xlink="http://www.w3.org/1999/xlink" width="57pt" height="40pt" viewBox="0 0 57 40" version="1.1">
<defs>
<linearGradient id="linear0" gradientUnits="userSpaceOnUse" x1="4226" y1="8358" x2="7692" y2="8364" >
<stop offset="0.1" style="stop-color:rgb(70.196078%,70.196078%,70.196078%);stop-opacity:1;"/>
<stop offset="1" style="stop-color:rgb(89.803922%,89.803922%,89.803922%);stop-opacity:1;"/>
</linearGradient>
<linearGradient id="linear1" gradientUnits="userSpaceOnUse" x1="6824" y1="5611" x2="6824" y2="8611" >
<stop offset="0.1" style="stop-color:rgb(70.196078%,70.196078%,70.196078%);stop-opacity:1;"/>
<stop offset="1" style="stop-color:rgb(89.803922%,89.803922%,89.803922%);stop-opacity:1;"/>
</linearGradient>
<linearGradient id="linear2" gradientUnits="userSpaceOnUse" x1="5094" y1="8061" x2="5094" y2="9761" >
<stop offset="0.1" style="stop-color:rgb(70.196078%,70.196078%,70.196078%);stop-opacity:1;"/>
<stop offset="1" style="stop-color:rgb(89.803922%,89.803922%,89.803922%);stop-opacity:1;"/>
</linearGradient>
<linearGradient id="linear3" gradientUnits="userSpaceOnUse" x1="3363" y1="9384" x2="5095" y2="9388" >
<stop offset="0.1" style="stop-color:rgb(70.196078%,70.196078%,70.196078%);stop-opacity:1;"/>
<stop offset="1" style="stop-color:rgb(89.803922%,89.803922%,89.803922%);stop-opacity:1;"/>
</linearGradient>
<linearGradient id="linear4" gradientUnits="userSpaceOnUse" x1="6737" y1="6211" x2="6737" y2="8111" >
<stop offset="0.1" style="stop-color:rgb(70.196078%,70.196078%,70.196078%);stop-opacity:1;"/>
<stop offset="1" style="stop-color:rgb(89.803922%,89.803922%,89.803922%);stop-opacity:1;"/>
</linearGradient>
<linearGradient id="linear5" gradientUnits="userSpaceOnUse" x1="5093" y1="7859" x2="6825" y2="7863" >
<stop offset="0.1" style="stop-color:rgb(70.196078%,70.196078%,70.196078%);stop-opacity:1;"/>
<stop offset="1" style="stop-color:rgb(89.803922%,89.803922%,89.803922%);stop-opacity:1;"/>
</linearGradient>
</defs>
<g id="surface1">
<path style="fill-rule:evenodd;fill:rgb(86.666667%,86.666667%,86.666667%);fill-opacity:1;stroke-width:40;stroke-linecap:butt;stroke-linejoin:round;stroke:rgb(86.666667%,86.666667%,86.666667%);stroke-opacity:1;stroke-miterlimit:4;" d="M 7691.873934 10110.81645 C 7930.095638 10110.81645 9260.203247 9616.059397 9581.037616 9368.015278 C 9856.850268 9155.025694 9657.09372 8910.97513 9418.872015 8910.97513 C 9418.872015 9060.955295 7606.201541 9010.813997 7691.873934 10110.81645 Z M 7691.873934 10110.81645 " transform="matrix(0.00893666,0,0,0.00880325,-29.884189,-49.218956)"/>
<path style="fill-rule:evenodd;fill:url(#linear0);stroke-width:40;stroke-linecap:butt;stroke-linejoin:round;stroke:rgb(100%,100%,100%);stroke-opacity:1;stroke-miterlimit:4;" d="M 4229.135691 8110.933008 L 4229.135691 6611.131359 L 7688.814206 8611.0148 L 7688.814206 10110.81645 Z M 4229.135691 8110.933008 " transform="matrix(0.00893666,0,0,0.00880325,-29.884189,-49.218956)"/>
<path style=" stroke:none;fill-rule:evenodd;fill:rgb(70.196078%,70.196078%,70.196078%);fill-opacity:1;" d="M 38.828125 35.160156 L 38.828125 26.585938 L 54.289062 17.78125 L 54.289062 30.988281 L 46.960938 35.160156 Z M 38.828125 35.160156 "/>
<path style=" stroke:none;fill-rule:evenodd;fill:rgb(70.588235%,70.588235%,70.588235%);fill-opacity:1;" d="M 46.960938 35.160156 L 38.828125 39.789062 L 38.828125 35.160156 Z M 54.183594 31.050781 L 47.347656 34.941406 L 38.828125 34.941406 L 38.828125 26.585938 L 54.183594 17.84375 Z M 54.183594 31.050781 "/>
<path style=" stroke:none;fill-rule:evenodd;fill:rgb(70.980392%,70.980392%,70.980392%);fill-opacity:1;" d="M 47.347656 34.941406 L 38.828125 39.789062 L 38.828125 34.941406 Z M 54.183594 17.84375 L 54.289062 17.78125 L 54.289062 30.988281 L 54.183594 31.050781 Z M 53.960938 31.171875 L 47.730469 34.71875 L 38.828125 34.71875 L 38.828125 26.585938 L 53.960938 17.96875 Z M 53.960938 31.171875 "/>
<path style=" stroke:none;fill-rule:evenodd;fill:rgb(71.372549%,71.372549%,71.372549%);fill-opacity:1;" d="M 47.730469 34.71875 L 38.828125 39.789062 L 38.828125 34.71875 Z M 53.960938 17.96875 L 54.289062 17.78125 L 54.289062 30.988281 L 53.960938 31.171875 Z M 53.734375 31.304688 L 48.125 34.5 L 38.828125 34.5 L 38.828125 26.585938 L 53.734375 18.097656 Z M 53.734375 31.304688 "/>
<path style=" stroke:none;fill-rule:evenodd;fill:rgb(71.764706%,71.764706%,71.764706%);fill-opacity:1;" d="M 48.125 34.5 L 38.828125 39.789062 L 38.828125 34.5 Z M 53.734375 18.097656 L 54.289062 17.78125 L 54.289062 30.988281 L 53.734375 31.304688 Z M 53.511719 31.425781 L 48.507812 34.28125 L 38.828125 34.28125 L 38.828125 26.585938 L 53.511719 18.222656 Z M 53.511719 31.425781 "/>
<path style=" stroke:none;fill-rule:evenodd;fill:rgb(72.156863%,72.156863%,72.156863%);fill-opacity:1;" d="M 48.507812 34.28125 L 38.828125 39.789062 L 38.828125 34.28125 Z M 53.511719 18.222656 L 54.289062 17.78125 L 54.289062 30.988281 L 53.511719 31.425781 Z M 53.289062 31.558594 L 48.890625 34.058594 L 38.828125 34.058594 L 38.828125 26.585938 L 53.289062 18.355469 Z M 53.289062 31.558594 "/>
<path style=" stroke:none;fill-rule:evenodd;fill:rgb(72.54902%,72.54902%,72.54902%);fill-opacity:1;" d="M 48.890625 34.058594 L 38.828125 39.789062 L 38.828125 34.058594 Z M 53.289062 18.355469 L 54.289062 17.78125 L 54.289062 30.988281 L 53.289062 31.558594 Z M 53.066406 31.683594 L 49.277344 33.839844 L 38.828125 33.839844 L 38.828125 26.585938 L 53.066406 18.476562 Z M 53.066406 31.683594 "/>
<path style=" stroke:none;fill-rule:evenodd;fill:rgb(72.941176%,72.941176%,72.941176%);fill-opacity:1;" d="M 49.277344 33.839844 L 38.828125 39.789062 L 38.828125 33.839844 Z M 53.066406 18.476562 L 54.289062 17.78125 L 54.289062 30.988281 L 53.066406 31.683594 Z M 52.84375 31.816406 L 49.671875 33.621094 L 38.828125 33.621094 L 38.828125 26.585938 L 52.84375 18.609375 Z M 52.84375 31.816406 "/>
<path style=" stroke:none;fill-rule:evenodd;fill:rgb(73.333333%,73.333333%,73.333333%);fill-opacity:1;" d="M 49.671875 33.621094 L 38.828125 39.789062 L 38.828125 33.621094 Z M 52.84375 18.609375 L 54.289062 17.78125 L 54.289062 30.988281 L 52.84375 31.816406 Z M 52.617188 31.9375 L 50.054688 33.398438 L 38.828125 33.398438 L 38.828125 26.585938 L 52.617188 18.734375 Z M 52.617188 31.9375 "/>
<path style=" stroke:none;fill-rule:evenodd;fill:rgb(73.72549%,73.72549%,73.72549%);fill-opacity:1;" d="M 50.054688 33.398438 L 38.828125 39.789062 L 38.828125 33.398438 Z M 52.617188 18.734375 L 54.289062 17.78125 L 54.289062 30.988281 L 52.617188 31.9375 Z M 52.394531 32.070312 L 50.4375 33.179688 L 38.828125 33.179688 L 38.828125 26.585938 L 52.394531 18.867188 Z M 52.394531 32.070312 "/>
<path style=" stroke:none;fill-rule:evenodd;fill:rgb(74.117647%,74.117647%,74.117647%);fill-opacity:1;" d="M 50.4375 33.179688 L 38.828125 39.789062 L 38.828125 33.179688 Z M 52.394531 18.867188 L 54.289062 17.78125 L 54.289062 30.988281 L 52.394531 32.070312 Z M 52.171875 32.195312 L 50.824219 32.960938 L 38.828125 32.960938 L 38.828125 26.585938 L 52.171875 18.988281 Z M 52.171875 32.195312 "/>
<path style=" stroke:none;fill-rule:evenodd;fill:rgb(74.509804%,74.509804%,74.509804%);fill-opacity:1;" d="M 50.824219 32.960938 L 38.828125 39.789062 L 38.828125 32.960938 Z M 52.171875 18.988281 L 54.289062 17.78125 L 54.289062 30.988281 L 52.171875 32.195312 Z M 51.949219 32.316406 L 51.214844 32.738281 L 38.828125 32.738281 L 38.828125 26.585938 L 51.949219 19.113281 Z M 51.949219 32.316406 "/>
<path style=" stroke:none;fill-rule:evenodd;fill:rgb(74.901961%,74.901961%,74.901961%);fill-opacity:1;" d="M 51.214844 32.738281 L 38.828125 39.789062 L 38.828125 32.738281 Z M 51.949219 19.113281 L 54.289062 17.78125 L 54.289062 30.988281 L 51.949219 32.316406 Z M 51.726562 32.449219 L 51.601562 32.519531 L 38.828125 32.519531 L 38.828125 26.585938 L 51.726562 19.242188 Z M 51.726562 32.449219 "/>
<path style=" stroke:none;fill-rule:evenodd;fill:rgb(75.294118%,75.294118%,75.294118%);fill-opacity:1;" d="M 51.601562 32.519531 L 38.828125 39.789062 L 38.828125 32.519531 Z M 51.726562 19.242188 L 54.289062 17.78125 L 54.289062 30.988281 L 51.726562 32.449219 Z M 51.503906 32.300781 L 38.828125 32.300781 L 38.828125 26.585938 L 51.503906 19.367188 Z M 51.503906 32.300781 "/>
<path style=" stroke:none;fill-rule:evenodd;fill:rgb(75.686275%,75.686275%,75.686275%);fill-opacity:1;" d="M 51.503906 32.300781 L 51.503906 19.367188 L 54.289062 17.78125 L 54.289062 30.988281 L 38.828125 39.789062 L 38.828125 32.300781 Z M 51.277344 32.078125 L 38.828125 32.078125 L 38.828125 26.585938 L 51.277344 19.5 Z M 51.277344 32.078125 "/>
<path style=" stroke:none;fill-rule:evenodd;fill:rgb(76.078431%,76.078431%,76.078431%);fill-opacity:1;" d="M 51.277344 32.078125 L 51.277344 19.5 L 54.289062 17.78125 L 54.289062 30.988281 L 38.828125 39.789062 L 38.828125 32.078125 Z M 51.054688 31.859375 L 38.828125 31.859375 L 38.828125 26.585938 L 51.054688 19.621094 Z M 51.054688 31.859375 "/>
<path style=" stroke:none;fill-rule:evenodd;fill:rgb(76.470588%,76.470588%,76.470588%);fill-opacity:1;" d="M 51.054688 31.859375 L 51.054688 19.621094 L 54.289062 17.78125 L 54.289062 30.988281 L 38.828125 39.789062 L 38.828125 31.859375 Z M 50.832031 31.640625 L 38.828125 31.640625 L 38.828125 26.585938 L 50.832031 19.753906 Z M 50.832031 31.640625 "/>
<path style=" stroke:none;fill-rule:evenodd;fill:rgb(76.862745%,76.862745%,76.862745%);fill-opacity:1;" d="M 50.832031 31.640625 L 50.832031 19.753906 L 54.289062 17.78125 L 54.289062 30.988281 L 38.828125 39.789062 L 38.828125 31.640625 Z M 50.609375 31.417969 L 38.828125 31.417969 L 38.828125 26.585938 L 50.609375 19.878906 Z M 50.609375 31.417969 "/>
<path style=" stroke:none;fill-rule:evenodd;fill:rgb(77.254902%,77.254902%,77.254902%);fill-opacity:1;" d="M 50.609375 31.417969 L 50.609375 19.878906 L 54.289062 17.78125 L 54.289062 30.988281 L 38.828125 39.789062 L 38.828125 31.417969 Z M 50.386719 31.199219 L 38.828125 31.199219 L 38.828125 26.585938 L 50.386719 20.011719 Z M 50.386719 31.199219 "/>
<path style=" stroke:none;fill-rule:evenodd;fill:rgb(77.647059%,77.647059%,77.647059%);fill-opacity:1;" d="M 50.386719 31.199219 L 50.386719 20.011719 L 54.289062 17.78125 L 54.289062 30.988281 L 38.828125 39.789062 L 38.828125 31.199219 Z M 50.160156 30.980469 L 38.828125 30.980469 L 38.828125 26.585938 L 50.160156 20.132812 Z M 50.160156 30.980469 "/>
<path style=" stroke:none;fill-rule:evenodd;fill:rgb(78.039216%,78.039216%,78.039216%);fill-opacity:1;" d="M 50.160156 30.980469 L 50.160156 20.132812 L 54.289062 17.78125 L 54.289062 30.988281 L 38.828125 39.789062 L 38.828125 30.980469 Z M 49.9375 30.757812 L 38.828125 30.757812 L 38.828125 26.585938 L 49.9375 20.265625 Z M 49.9375 30.757812 "/>
<path style=" stroke:none;fill-rule:evenodd;fill:rgb(78.431373%,78.431373%,78.431373%);fill-opacity:1;" d="M 49.9375 30.757812 L 49.9375 20.265625 L 54.289062 17.78125 L 54.289062 30.988281 L 38.828125 39.789062 L 38.828125 30.757812 Z M 49.714844 30.539062 L 38.828125 30.539062 L 38.828125 26.585938 L 49.714844 20.386719 Z M 49.714844 30.539062 "/>
<path style=" stroke:none;fill-rule:evenodd;fill:rgb(78.823529%,78.823529%,78.823529%);fill-opacity:1;" d="M 49.714844 30.539062 L 49.714844 20.386719 L 54.289062 17.78125 L 54.289062 30.988281 L 38.828125 39.789062 L 38.828125 30.539062 Z M 49.492188 30.320312 L 38.828125 30.320312 L 38.828125 26.585938 L 49.492188 20.511719 Z M 49.492188 30.320312 "/>
<path style=" stroke:none;fill-rule:evenodd;fill:rgb(79.215686%,79.215686%,79.215686%);fill-opacity:1;" d="M 49.492188 30.320312 L 49.492188 20.511719 L 54.289062 17.78125 L 54.289062 30.988281 L 38.828125 39.789062 L 38.828125 30.320312 Z M 49.269531 30.097656 L 38.828125 30.097656 L 38.828125 26.585938 L 49.269531 20.644531 Z M 49.269531 30.097656 "/>
<path style=" stroke:none;fill-rule:evenodd;fill:rgb(79.607843%,79.607843%,79.607843%);fill-opacity:1;" d="M 49.269531 30.097656 L 49.269531 20.644531 L 54.289062 17.78125 L 54.289062 30.988281 L 38.828125 39.789062 L 38.828125 30.097656 Z M 49.042969 29.878906 L 38.828125 29.878906 L 38.828125 26.585938 L 49.042969 20.765625 Z M 49.042969 29.878906 "/>
<path style=" stroke:none;fill-rule:evenodd;fill:rgb(80%,80%,80%);fill-opacity:1;" d="M 49.042969 29.878906 L 49.042969 20.765625 L 54.289062 17.78125 L 54.289062 30.988281 L 38.828125 39.789062 L 38.828125 29.878906 Z M 48.820312 29.65625 L 38.828125 29.65625 L 38.828125 26.585938 L 48.820312 20.898438 Z M 48.820312 29.65625 "/>
<path style=" stroke:none;fill-rule:evenodd;fill:rgb(80.392157%,80.392157%,80.392157%);fill-opacity:1;" d="M 48.820312 29.65625 L 48.820312 20.898438 L 54.289062 17.78125 L 54.289062 30.988281 L 38.828125 39.789062 L 38.828125 29.65625 Z M 48.597656 29.4375 L 38.828125 29.4375 L 38.828125 26.585938 L 48.597656 21.023438 Z M 48.597656 29.4375 "/>
<path style=" stroke:none;fill-rule:evenodd;fill:rgb(80.784314%,80.784314%,80.784314%);fill-opacity:1;" d="M 48.597656 29.4375 L 48.597656 21.023438 L 54.289062 17.78125 L 54.289062 30.988281 L 38.828125 39.789062 L 38.828125 29.4375 Z M 48.375 29.21875 L 38.828125 29.21875 L 38.828125 26.585938 L 48.375 21.152344 Z M 48.375 29.21875 "/>
<path style=" stroke:none;fill-rule:evenodd;fill:rgb(81.176471%,81.176471%,81.176471%);fill-opacity:1;" d="M 48.375 29.21875 L 48.375 21.152344 L 54.289062 17.78125 L 54.289062 30.988281 L 38.828125 39.789062 L 38.828125 29.21875 Z M 48.152344 28.996094 L 38.828125 28.996094 L 38.828125 26.585938 L 48.152344 21.277344 Z M 48.152344 28.996094 "/>
<path style=" stroke:none;fill-rule:evenodd;fill:rgb(81.568627%,81.568627%,81.568627%);fill-opacity:1;" d="M 48.152344 28.996094 L 48.152344 21.277344 L 54.289062 17.78125 L 54.289062 30.988281 L 38.828125 39.789062 L 38.828125 28.996094 Z M 47.925781 28.777344 L 38.980469 28.777344 L 38.980469 26.496094 L 47.925781 21.410156 Z M 47.925781 28.777344 "/>
<path style=" stroke:none;fill-rule:evenodd;fill:rgb(81.960784%,81.960784%,81.960784%);fill-opacity:1;" d="M 38.980469 28.777344 L 47.925781 28.777344 L 47.925781 21.410156 L 54.289062 17.78125 L 54.289062 30.988281 L 38.828125 39.789062 L 38.828125 26.585938 L 38.980469 26.496094 Z M 47.703125 28.558594 L 39.207031 28.558594 L 39.207031 26.375 L 47.703125 21.53125 Z M 47.703125 28.558594 "/>
<path style=" stroke:none;fill-rule:evenodd;fill:rgb(82.352941%,82.352941%,82.352941%);fill-opacity:1;" d="M 39.207031 28.558594 L 47.703125 28.558594 L 47.703125 21.53125 L 54.289062 17.78125 L 54.289062 30.988281 L 38.828125 39.789062 L 38.828125 26.585938 L 39.207031 26.375 Z M 47.480469 28.335938 L 39.429688 28.335938 L 39.429688 26.242188 L 47.480469 21.65625 Z M 47.480469 28.335938 "/>
<path style=" stroke:none;fill-rule:evenodd;fill:rgb(82.745098%,82.745098%,82.745098%);fill-opacity:1;" d="M 39.429688 28.335938 L 47.480469 28.335938 L 47.480469 21.65625 L 54.289062 17.78125 L 54.289062 30.988281 L 38.828125 39.789062 L 38.828125 26.585938 L 39.429688 26.242188 Z M 47.257812 28.117188 L 39.652344 28.117188 L 39.652344 26.121094 L 47.257812 21.789062 Z M 47.257812 28.117188 "/>
<path style=" stroke:none;fill-rule:evenodd;fill:rgb(83.137255%,83.137255%,83.137255%);fill-opacity:1;" d="M 39.652344 28.117188 L 47.257812 28.117188 L 47.257812 21.789062 L 54.289062 17.78125 L 54.289062 30.988281 L 38.828125 39.789062 L 38.828125 26.585938 L 39.652344 26.121094 Z M 47.023438 27.890625 L 39.882812 27.890625 L 39.882812 25.988281 L 47.023438 21.921875 Z M 47.023438 27.890625 "/>
<path style=" stroke:none;fill-rule:evenodd;fill:rgb(83.529412%,83.529412%,83.529412%);fill-opacity:1;" d="M 39.882812 27.890625 L 47.023438 27.890625 L 47.023438 21.921875 L 54.289062 17.78125 L 54.289062 30.988281 L 38.828125 39.789062 L 38.828125 26.585938 L 39.882812 25.988281 Z M 46.800781 27.667969 L 40.109375 27.667969 L 40.109375 25.855469 L 46.800781 22.042969 Z M 46.800781 27.667969 "/>
<path style=" stroke:none;fill-rule:evenodd;fill:rgb(83.921569%,83.921569%,83.921569%);fill-opacity:1;" d="M 40.109375 27.667969 L 46.800781 27.667969 L 46.800781 22.042969 L 54.289062 17.78125 L 54.289062 30.988281 L 38.828125 39.789062 L 38.828125 26.585938 L 40.109375 25.855469 Z M 46.578125 27.449219 L 40.332031 27.449219 L 40.332031 25.730469 L 46.578125 22.175781 Z M 46.578125 27.449219 "/>
<path style=" stroke:none;fill-rule:evenodd;fill:rgb(84.313725%,84.313725%,84.313725%);fill-opacity:1;" d="M 40.332031 27.449219 L 46.578125 27.449219 L 46.578125 22.175781 L 54.289062 17.78125 L 54.289062 30.988281 L 38.828125 39.789062 L 38.828125 26.585938 L 40.332031 25.730469 Z M 46.355469 27.226562 L 40.554688 27.226562 L 40.554688 25.601562 L 46.355469 22.296875 Z M 46.355469 27.226562 "/>
<path style=" stroke:none;fill-rule:evenodd;fill:rgb(84.705882%,84.705882%,84.705882%);fill-opacity:1;" d="M 40.554688 27.226562 L 46.355469 27.226562 L 46.355469 22.296875 L 54.289062 17.78125 L 54.289062 30.988281 L 38.828125 39.789062 L 38.828125 26.585938 L 40.554688 25.601562 Z M 46.132812 27.007812 L 40.777344 27.007812 L 40.777344 25.476562 L 46.132812 22.429688 Z M 46.132812 27.007812 "/>
<path style=" stroke:none;fill-rule:evenodd;fill:rgb(85.098039%,85.098039%,85.098039%);fill-opacity:1;" d="M 40.777344 27.007812 L 46.132812 27.007812 L 46.132812 22.429688 L 54.289062 17.78125 L 54.289062 30.988281 L 38.828125 39.789062 L 38.828125 26.585938 L 40.777344 25.476562 Z M 45.90625 26.789062 L 41 26.789062 L 41 25.351562 L 45.90625 22.554688 Z M 45.90625 26.789062 "/>
<path style=" stroke:none;fill-rule:evenodd;fill:rgb(85.490196%,85.490196%,85.490196%);fill-opacity:1;" d="M 41 26.789062 L 45.90625 26.789062 L 45.90625 22.554688 L 54.289062 17.78125 L 54.289062 30.988281 L 38.828125 39.789062 L 38.828125 26.585938 L 41 25.351562 Z M 45.683594 26.566406 L 41.226562 26.566406 L 41.226562 25.222656 L 45.683594 22.6875 Z M 45.683594 26.566406 "/>
<path style=" stroke:none;fill-rule:evenodd;fill:rgb(85.882353%,85.882353%,85.882353%);fill-opacity:1;" d="M 41.226562 26.566406 L 45.683594 26.566406 L 45.683594 22.6875 L 54.289062 17.78125 L 54.289062 30.988281 L 38.828125 39.789062 L 38.828125 26.585938 L 41.226562 25.222656 Z M 45.460938 26.347656 L 41.449219 26.347656 L 41.449219 25.097656 L 45.460938 22.808594 Z M 45.460938 26.347656 "/>
<path style=" stroke:none;fill-rule:evenodd;fill:rgb(86.27451%,86.27451%,86.27451%);fill-opacity:1;" d="M 41.449219 26.347656 L 45.460938 26.347656 L 45.460938 22.808594 L 54.289062 17.78125 L 54.289062 30.988281 L 38.828125 39.789062 L 38.828125 26.585938 L 41.449219 25.097656 Z M 45.238281 26.128906 L 41.671875 26.128906 L 41.671875 24.964844 L 45.238281 22.941406 Z M 45.238281 26.128906 "/>
<path style=" stroke:none;fill-rule:evenodd;fill:rgb(86.666667%,86.666667%,86.666667%);fill-opacity:1;" d="M 41.671875 26.128906 L 45.238281 26.128906 L 45.238281 22.941406 L 54.289062 17.78125 L 54.289062 30.988281 L 38.828125 39.789062 L 38.828125 26.585938 L 41.671875 24.964844 Z M 45.015625 25.90625 L 41.894531 25.90625 L 41.894531 24.84375 L 45.015625 23.066406 Z M 45.015625 25.90625 "/>
<path style=" stroke:none;fill-rule:evenodd;fill:rgb(87.058824%,87.058824%,87.058824%);fill-opacity:1;" d="M 41.894531 25.90625 L 45.015625 25.90625 L 45.015625 23.066406 L 54.289062 17.78125 L 54.289062 30.988281 L 38.828125 39.789062 L 38.828125 26.585938 L 41.894531 24.84375 Z M 44.789062 25.6875 L 42.117188 25.6875 L 42.117188 24.710938 L 44.789062 23.1875 Z M 44.789062 25.6875 "/>
<path style=" stroke:none;fill-rule:evenodd;fill:rgb(87.45098%,87.45098%,87.45098%);fill-opacity:1;" d="M 42.117188 25.6875 L 44.789062 25.6875 L 44.789062 23.1875 L 54.289062 17.78125 L 54.289062 30.988281 L 38.828125 39.789062 L 38.828125 26.585938 L 42.117188 24.710938 Z M 44.566406 25.46875 L 42.34375 25.46875 L 42.34375 24.585938 L 44.566406 23.320312 Z M 44.566406 25.46875 "/>
<path style=" stroke:none;fill-rule:evenodd;fill:rgb(87.843137%,87.843137%,87.843137%);fill-opacity:1;" d="M 42.34375 25.46875 L 44.566406 25.46875 L 44.566406 23.320312 L 54.289062 17.78125 L 54.289062 30.988281 L 38.828125 39.789062 L 38.828125 26.585938 L 42.34375 24.585938 Z M 44.34375 23.496094 L 44.34375 25.246094 L 42.566406 25.246094 L 42.566406 24.457031 L 44.253906 23.496094 Z M 44.34375 23.496094 "/>
<path style=" stroke:none;fill-rule:evenodd;fill:rgb(88.235294%,88.235294%,88.235294%);fill-opacity:1;" d="M 42.566406 25.246094 L 44.34375 25.246094 L 44.34375 23.496094 L 44.253906 23.496094 L 54.289062 17.78125 L 54.289062 30.988281 L 38.828125 39.789062 L 38.828125 26.585938 L 42.566406 24.457031 Z M 44.121094 23.714844 L 44.121094 25.027344 L 42.789062 25.027344 L 42.789062 24.332031 L 43.871094 23.714844 Z M 44.121094 23.714844 "/>
<path style=" stroke:none;fill-rule:evenodd;fill:rgb(88.627451%,88.627451%,88.627451%);fill-opacity:1;" d="M 42.789062 25.027344 L 44.121094 25.027344 L 44.121094 23.714844 L 43.871094 23.714844 L 54.289062 17.78125 L 54.289062 30.988281 L 38.828125 39.789062 L 38.828125 26.585938 L 42.789062 24.332031 Z M 43.898438 23.9375 L 43.898438 24.808594 L 43.011719 24.808594 L 43.011719 24.199219 L 43.484375 23.9375 Z M 43.898438 23.9375 "/>
<path style=" stroke:none;fill-rule:evenodd;fill:rgb(89.019608%,89.019608%,89.019608%);fill-opacity:1;" d="M 43.011719 24.808594 L 43.898438 24.808594 L 43.898438 23.9375 L 43.484375 23.9375 L 54.289062 17.78125 L 54.289062 30.988281 L 38.828125 39.789062 L 38.828125 26.585938 L 43.011719 24.199219 Z M 43.234375 24.15625 L 43.671875 24.15625 L 43.671875 24.585938 L 43.234375 24.585938 Z M 43.234375 24.15625 "/>
<path style=" stroke:none;fill-rule:evenodd;fill:rgb(89.803922%,89.803922%,89.803922%);fill-opacity:1;" d="M 43.234375 24.15625 L 43.234375 24.585938 L 43.671875 24.585938 L 43.671875 24.15625 Z M 38.828125 39.789062 L 38.828125 26.585938 L 54.289062 17.78125 L 54.289062 30.988281 Z M 38.828125 39.789062 "/>
<path style="fill:none;stroke-width:40;stroke-linecap:butt;stroke-linejoin:round;stroke:rgb(100%,100%,100%);stroke-opacity:1;stroke-miterlimit:4;" d="M 7688.814206 10110.81645 L 7688.814206 8611.0148 L 9418.872015 7610.851215 L 9418.872015 9111.096593 Z M 7688.814206 10110.81645 " transform="matrix(0.00893666,0,0,0.00880325,-29.884189,-49.218956)"/>
<path style="fill-rule:evenodd;fill:url(#linear1);stroke-width:40;stroke-linecap:butt;stroke-linejoin:round;stroke:rgb(100%,100%,100%);stroke-opacity:1;stroke-miterlimit:4;" d="M 7688.814206 8611.0148 L 4229.135691 6611.131359 L 5959.1935 5610.967773 L 9418.872015 7610.851215 Z M 7688.814206 8611.0148 " transform="matrix(0.00893666,0,0,0.00880325,-29.884189,-49.218956)"/>
<path style="fill-rule:evenodd;fill:rgb(22.352941%,70.980392%,29.019608%);fill-opacity:1;stroke-width:40;stroke-linecap:butt;stroke-linejoin:round;stroke:rgb(0%,0%,0%);stroke-opacity:1;stroke-miterlimit:4;" d="M 7343.064906 8860.833832 L 7343.064906 8661.156098 L 7516.158108 8760.994965 L 7516.158108 8961.116428 Z M 7343.064906 8860.833832 " transform="matrix(0.00893666,0,0,0.00880325,-29.884189,-49.218956)"/>
<path style=" stroke:none;fill-rule:evenodd;fill:rgb(70.196078%,70.196078%,70.196078%);fill-opacity:1;" d="M 27.847656 35.089844 L 15.640625 38.910156 L 15.640625 36.710938 L 27.847656 31.839844 Z M 27.847656 35.089844 "/>
<path style=" stroke:none;fill-rule:evenodd;fill:rgb(70.588235%,70.588235%,70.588235%);fill-opacity:1;" d="M 27.847656 31.839844 L 31.097656 30.546875 L 31.097656 34.070312 L 27.847656 35.089844 Z M 27.695312 35.132812 L 15.640625 38.910156 L 15.640625 36.710938 L 27.695312 31.902344 Z M 27.695312 35.132812 "/>
<path style=" stroke:none;fill-rule:evenodd;fill:rgb(70.980392%,70.980392%,70.980392%);fill-opacity:1;" d="M 27.695312 31.902344 L 31.097656 30.546875 L 31.097656 34.070312 L 27.695312 35.132812 Z M 27.542969 35.1875 L 15.640625 38.910156 L 15.640625 36.710938 L 27.542969 31.964844 Z M 27.542969 35.1875 "/>
<path style=" stroke:none;fill-rule:evenodd;fill:rgb(71.372549%,71.372549%,71.372549%);fill-opacity:1;" d="M 27.542969 31.964844 L 31.097656 30.546875 L 31.097656 34.070312 L 27.542969 35.1875 Z M 27.382812 35.230469 L 15.640625 38.910156 L 15.640625 36.710938 L 27.382812 32.027344 Z M 27.382812 35.230469 "/>
<path style=" stroke:none;fill-rule:evenodd;fill:rgb(71.764706%,71.764706%,71.764706%);fill-opacity:1;" d="M 27.382812 32.027344 L 31.097656 30.546875 L 31.097656 34.070312 L 27.382812 35.230469 Z M 27.230469 35.285156 L 15.640625 38.910156 L 15.640625 36.710938 L 27.230469 32.085938 Z M 27.230469 35.285156 "/>
<path style=" stroke:none;fill-rule:evenodd;fill:rgb(72.156863%,72.156863%,72.156863%);fill-opacity:1;" d="M 27.230469 32.085938 L 31.097656 30.546875 L 31.097656 34.070312 L 27.230469 35.285156 Z M 27.078125 35.328125 L 15.640625 38.910156 L 15.640625 36.710938 L 27.078125 32.148438 Z M 27.078125 35.328125 "/>
<path style=" stroke:none;fill-rule:evenodd;fill:rgb(72.54902%,72.54902%,72.54902%);fill-opacity:1;" d="M 27.078125 32.148438 L 31.097656 30.546875 L 31.097656 34.070312 L 27.078125 35.328125 Z M 26.917969 35.378906 L 15.640625 38.910156 L 15.640625 36.710938 L 26.917969 32.210938 Z M 26.917969 35.378906 "/>
<path style=" stroke:none;fill-rule:evenodd;fill:rgb(72.941176%,72.941176%,72.941176%);fill-opacity:1;" d="M 26.917969 32.210938 L 31.097656 30.546875 L 31.097656 34.070312 L 26.917969 35.378906 Z M 26.765625 35.425781 L 15.640625 38.910156 L 15.640625 36.710938 L 26.765625 32.273438 Z M 26.765625 35.425781 "/>
<path style=" stroke:none;fill-rule:evenodd;fill:rgb(73.333333%,73.333333%,73.333333%);fill-opacity:1;" d="M 26.765625 32.273438 L 31.097656 30.546875 L 31.097656 34.070312 L 26.765625 35.425781 Z M 26.613281 35.476562 L 15.640625 38.910156 L 15.640625 36.710938 L 26.613281 32.335938 Z M 26.613281 35.476562 "/>
<path style=" stroke:none;fill-rule:evenodd;fill:rgb(73.72549%,73.72549%,73.72549%);fill-opacity:1;" d="M 26.613281 32.335938 L 31.097656 30.546875 L 31.097656 34.070312 L 26.613281 35.476562 Z M 26.453125 35.519531 L 15.640625 38.910156 L 15.640625 36.710938 L 26.453125 32.394531 Z M 26.453125 35.519531 "/>
<path style=" stroke:none;fill-rule:evenodd;fill:rgb(74.117647%,74.117647%,74.117647%);fill-opacity:1;" d="M 26.453125 32.394531 L 31.097656 30.546875 L 31.097656 34.070312 L 26.453125 35.519531 Z M 26.300781 35.574219 L 15.640625 38.910156 L 15.640625 36.710938 L 26.300781 32.457031 Z M 26.300781 35.574219 "/>
<path style=" stroke:none;fill-rule:evenodd;fill:rgb(74.509804%,74.509804%,74.509804%);fill-opacity:1;" d="M 26.300781 32.457031 L 31.097656 30.546875 L 31.097656 34.070312 L 26.300781 35.574219 Z M 26.148438 35.617188 L 15.863281 38.839844 L 15.640625 38.839844 L 15.640625 36.710938 L 26.148438 32.519531 Z M 26.148438 35.617188 "/>
<path style=" stroke:none;fill-rule:evenodd;fill:rgb(74.901961%,74.901961%,74.901961%);fill-opacity:1;" d="M 15.863281 38.839844 L 15.640625 38.910156 L 15.640625 38.839844 Z M 26.148438 32.519531 L 31.097656 30.546875 L 31.097656 34.070312 L 26.148438 35.617188 Z M 25.988281 35.671875 L 16.371094 38.679688 L 15.640625 38.679688 L 15.640625 36.710938 L 25.988281 32.582031 Z M 25.988281 35.671875 "/>
<path style=" stroke:none;fill-rule:evenodd;fill:rgb(75.294118%,75.294118%,75.294118%);fill-opacity:1;" d="M 16.371094 38.679688 L 15.640625 38.910156 L 15.640625 38.679688 Z M 25.988281 32.582031 L 31.097656 30.546875 L 31.097656 34.070312 L 25.988281 35.671875 Z M 25.835938 35.714844 L 16.84375 38.53125 L 15.640625 38.53125 L 15.640625 36.710938 L 25.835938 32.640625 Z M 25.835938 35.714844 "/>
<path style=" stroke:none;fill-rule:evenodd;fill:rgb(75.686275%,75.686275%,75.686275%);fill-opacity:1;" d="M 16.84375 38.53125 L 15.640625 38.910156 L 15.640625 38.53125 Z M 25.835938 32.640625 L 31.097656 30.546875 L 31.097656 34.070312 L 25.835938 35.714844 Z M 25.683594 35.769531 L 17.328125 38.382812 L 15.640625 38.382812 L 15.640625 36.710938 L 25.683594 32.703125 Z M 25.683594 35.769531 "/>
<path style=" stroke:none;fill-rule:evenodd;fill:rgb(76.078431%,76.078431%,76.078431%);fill-opacity:1;" d="M 17.328125 38.382812 L 15.640625 38.910156 L 15.640625 38.382812 Z M 25.683594 32.703125 L 31.097656 30.546875 L 31.097656 34.070312 L 25.683594 35.769531 Z M 25.523438 35.8125 L 17.828125 38.222656 L 15.640625 38.222656 L 15.640625 36.710938 L 25.523438 32.765625 Z M 25.523438 35.8125 "/>
<path style=" stroke:none;fill-rule:evenodd;fill:rgb(76.470588%,76.470588%,76.470588%);fill-opacity:1;" d="M 17.828125 38.222656 L 15.640625 38.910156 L 15.640625 38.222656 Z M 25.523438 32.765625 L 31.097656 30.546875 L 31.097656 34.070312 L 25.523438 35.8125 Z M 25.371094 35.863281 L 18.3125 38.074219 L 15.640625 38.074219 L 15.640625 36.710938 L 25.371094 32.828125 Z M 25.371094 35.863281 "/>
<path style=" stroke:none;fill-rule:evenodd;fill:rgb(76.862745%,76.862745%,76.862745%);fill-opacity:1;" d="M 18.3125 38.074219 L 15.640625 38.910156 L 15.640625 38.074219 Z M 25.371094 32.828125 L 31.097656 30.546875 L 31.097656 34.070312 L 25.371094 35.863281 Z M 25.21875 35.910156 L 18.785156 37.925781 L 15.640625 37.925781 L 15.640625 36.710938 L 25.21875 32.890625 Z M 25.21875 35.910156 "/>
<path style=" stroke:none;fill-rule:evenodd;fill:rgb(77.254902%,77.254902%,77.254902%);fill-opacity:1;" d="M 18.785156 37.925781 L 15.640625 38.910156 L 15.640625 37.925781 Z M 25.21875 32.890625 L 31.097656 30.546875 L 31.097656 34.070312 L 25.21875 35.910156 Z M 25.058594 35.960938 L 19.292969 37.765625 L 15.640625 37.765625 L 15.640625 36.710938 L 25.058594 32.960938 Z M 25.058594 35.960938 "/>
<path style=" stroke:none;fill-rule:evenodd;fill:rgb(77.647059%,77.647059%,77.647059%);fill-opacity:1;" d="M 19.292969 37.765625 L 15.640625 38.910156 L 15.640625 37.765625 Z M 25.058594 32.960938 L 31.097656 30.546875 L 31.097656 34.070312 L 25.058594 35.960938 Z M 24.90625 36.003906 L 19.769531 37.617188 L 15.640625 37.617188 L 15.640625 36.710938 L 24.90625 33.011719 Z M 24.90625 36.003906 "/>
<path style=" stroke:none;fill-rule:evenodd;fill:rgb(78.039216%,78.039216%,78.039216%);fill-opacity:1;" d="M 19.769531 37.617188 L 15.640625 38.910156 L 15.640625 37.617188 Z M 24.90625 33.011719 L 31.097656 30.546875 L 31.097656 34.070312 L 24.90625 36.003906 Z M 24.753906 36.058594 L 20.25 37.464844 L 15.773438 37.464844 L 15.773438 36.65625 L 24.753906 33.074219 Z M 24.753906 36.058594 "/>
<path style=" stroke:none;fill-rule:evenodd;fill:rgb(78.431373%,78.431373%,78.431373%);fill-opacity:1;" d="M 15.773438 37.464844 L 20.25 37.464844 L 15.640625 38.910156 L 15.640625 36.710938 L 15.773438 36.65625 Z M 24.753906 33.074219 L 31.097656 30.546875 L 31.097656 34.070312 L 24.753906 36.058594 Z M 24.59375 36.101562 L 20.75 37.308594 L 15.933594 37.308594 L 15.933594 36.59375 L 24.59375 33.144531 Z M 24.59375 36.101562 "/>
<path style=" stroke:none;fill-rule:evenodd;fill:rgb(78.823529%,78.823529%,78.823529%);fill-opacity:1;" d="M 15.933594 37.308594 L 20.75 37.308594 L 15.640625 38.910156 L 15.640625 36.710938 L 15.933594 36.59375 Z M 24.59375 33.144531 L 31.097656 30.546875 L 31.097656 34.070312 L 24.59375 36.101562 Z M 24.441406 36.15625 L 21.234375 37.160156 L 16.085938 37.160156 L 16.085938 36.535156 L 24.441406 33.195312 Z M 24.441406 36.15625 "/>
<path style=" stroke:none;fill-rule:evenodd;fill:rgb(79.215686%,79.215686%,79.215686%);fill-opacity:1;" d="M 16.085938 37.160156 L 21.234375 37.160156 L 15.640625 38.910156 L 15.640625 36.710938 L 16.085938 36.535156 Z M 24.441406 33.195312 L 31.097656 30.546875 L 31.097656 34.070312 L 24.441406 36.15625 Z M 24.289062 36.199219 L 21.707031 37.007812 L 16.238281 37.007812 L 16.238281 36.472656 L 24.289062 33.257812 Z M 24.289062 36.199219 "/>
<path style=" stroke:none;fill-rule:evenodd;fill:rgb(79.607843%,79.607843%,79.607843%);fill-opacity:1;" d="M 16.238281 37.007812 L 21.707031 37.007812 L 15.640625 38.910156 L 15.640625 36.710938 L 16.238281 36.472656 Z M 24.289062 33.257812 L 31.097656 30.546875 L 31.097656 34.070312 L 24.289062 36.199219 Z M 24.128906 36.25 L 22.214844 36.851562 L 16.398438 36.851562 L 16.398438 36.410156 L 24.128906 33.328125 Z M 24.128906 36.25 "/>
<path style=" stroke:none;fill-rule:evenodd;fill:rgb(80%,80%,80%);fill-opacity:1;" d="M 16.398438 36.851562 L 22.214844 36.851562 L 15.640625 38.910156 L 15.640625 36.710938 L 16.398438 36.410156 Z M 24.128906 33.328125 L 31.097656 30.546875 L 31.097656 34.070312 L 24.128906 36.25 Z M 23.976562 36.296875 L 22.699219 36.699219 L 16.550781 36.699219 L 16.550781 36.347656 L 23.976562 33.382812 Z M 23.976562 36.296875 "/>
<path style=" stroke:none;fill-rule:evenodd;fill:rgb(80.392157%,80.392157%,80.392157%);fill-opacity:1;" d="M 16.550781 36.699219 L 22.699219 36.699219 L 15.640625 38.910156 L 15.640625 36.710938 L 16.550781 36.347656 Z M 23.976562 33.382812 L 31.097656 30.546875 L 31.097656 34.070312 L 23.976562 36.296875 Z M 23.824219 36.347656 L 23.171875 36.550781 L 16.703125 36.550781 L 16.703125 36.285156 L 23.824219 33.445312 Z M 23.824219 36.347656 "/>
<path style=" stroke:none;fill-rule:evenodd;fill:rgb(80.784314%,80.784314%,80.784314%);fill-opacity:1;" d="M 16.703125 36.550781 L 23.171875 36.550781 L 15.640625 38.910156 L 15.640625 36.710938 L 16.703125 36.285156 Z M 23.824219 33.445312 L 31.097656 30.546875 L 31.097656 34.070312 L 23.824219 36.347656 Z M 23.664062 36.394531 L 16.863281 36.394531 L 16.863281 36.226562 L 23.664062 33.515625 Z M 23.664062 36.394531 "/>
<path style=" stroke:none;fill-rule:evenodd;fill:rgb(81.176471%,81.176471%,81.176471%);fill-opacity:1;" d="M 16.863281 36.394531 L 23.664062 36.394531 L 23.664062 33.515625 L 31.097656 30.546875 L 31.097656 34.070312 L 15.640625 38.910156 L 15.640625 36.710938 L 16.863281 36.226562 Z M 23.511719 36.242188 L 17.015625 36.242188 L 17.015625 36.164062 L 23.511719 33.574219 Z M 23.511719 36.242188 "/>
<path style=" stroke:none;fill-rule:evenodd;fill:rgb(81.568627%,81.568627%,81.568627%);fill-opacity:1;" d="M 17.015625 36.242188 L 23.511719 36.242188 L 23.511719 33.574219 L 31.097656 30.546875 L 31.097656 34.070312 L 15.640625 38.910156 L 15.640625 36.710938 L 17.015625 36.164062 Z M 23.359375 36.09375 L 17.183594 36.09375 L 23.359375 33.628906 Z M 23.359375 36.09375 "/>
<path style=" stroke:none;fill-rule:evenodd;fill:rgb(81.960784%,81.960784%,81.960784%);fill-opacity:1;" d="M 23.359375 36.09375 L 23.359375 33.628906 L 31.097656 30.546875 L 31.097656 34.070312 L 15.640625 38.910156 L 15.640625 36.710938 L 17.183594 36.09375 Z M 23.199219 35.933594 L 17.578125 35.933594 L 23.199219 33.699219 Z M 23.199219 35.933594 "/>
<path style=" stroke:none;fill-rule:evenodd;fill:rgb(82.352941%,82.352941%,82.352941%);fill-opacity:1;" d="M 23.199219 35.933594 L 23.199219 33.699219 L 31.097656 30.546875 L 31.097656 34.070312 L 15.640625 38.910156 L 15.640625 36.710938 L 17.578125 35.933594 Z M 23.046875 35.785156 L 17.960938 35.785156 L 23.046875 33.761719 Z M 23.046875 35.785156 "/>
<path style=" stroke:none;fill-rule:evenodd;fill:rgb(82.745098%,82.745098%,82.745098%);fill-opacity:1;" d="M 23.046875 35.785156 L 23.046875 33.761719 L 31.097656 30.546875 L 31.097656 34.070312 L 15.640625 38.910156 L 15.640625 36.710938 L 17.960938 35.785156 Z M 22.894531 35.636719 L 18.339844 35.636719 L 22.894531 33.8125 Z M 22.894531 35.636719 "/>
<path style=" stroke:none;fill-rule:evenodd;fill:rgb(83.137255%,83.137255%,83.137255%);fill-opacity:1;" d="M 22.894531 35.636719 L 22.894531 33.8125 L 31.097656 30.546875 L 31.097656 34.070312 L 15.640625 38.910156 L 15.640625 36.710938 L 18.339844 35.636719 Z M 22.734375 35.476562 L 18.730469 35.476562 L 22.734375 33.882812 Z M 22.734375 35.476562 "/>
<path style=" stroke:none;fill-rule:evenodd;fill:rgb(83.529412%,83.529412%,83.529412%);fill-opacity:1;" d="M 22.734375 35.476562 L 22.734375 33.882812 L 31.097656 30.546875 L 31.097656 34.070312 L 15.640625 38.910156 L 15.640625 36.710938 L 18.730469 35.476562 Z M 22.582031 35.328125 L 19.105469 35.328125 L 22.582031 33.945312 Z M 22.582031 35.328125 "/>
<path style=" stroke:none;fill-rule:evenodd;fill:rgb(83.921569%,83.921569%,83.921569%);fill-opacity:1;" d="M 22.582031 35.328125 L 22.582031 33.945312 L 31.097656 30.546875 L 31.097656 34.070312 L 15.640625 38.910156 L 15.640625 36.710938 L 19.105469 35.328125 Z M 22.429688 35.179688 L 19.480469 35.179688 L 22.429688 34 Z M 22.429688 35.179688 "/>
<path style=" stroke:none;fill-rule:evenodd;fill:rgb(84.313725%,84.313725%,84.313725%);fill-opacity:1;" d="M 22.429688 35.179688 L 22.429688 34 L 31.097656 30.546875 L 31.097656 34.070312 L 15.640625 38.910156 L 15.640625 36.710938 L 19.480469 35.179688 Z M 22.269531 35.019531 L 19.882812 35.019531 L 22.269531 34.070312 Z M 22.269531 35.019531 "/>
<path style=" stroke:none;fill-rule:evenodd;fill:rgb(84.705882%,84.705882%,84.705882%);fill-opacity:1;" d="M 22.269531 35.019531 L 22.269531 34.070312 L 31.097656 30.546875 L 31.097656 34.070312 L 15.640625 38.910156 L 15.640625 36.710938 L 19.882812 35.019531 Z M 22.117188 34.871094 L 20.257812 34.871094 L 22.117188 34.128906 Z M 22.117188 34.871094 "/>
<path style=" stroke:none;fill-rule:evenodd;fill:rgb(85.098039%,85.098039%,85.098039%);fill-opacity:1;" d="M 22.117188 34.871094 L 22.117188 34.128906 L 31.097656 30.546875 L 31.097656 34.070312 L 15.640625 38.910156 L 15.640625 36.710938 L 20.257812 34.871094 Z M 21.964844 34.71875 L 20.632812 34.71875 L 21.964844 34.191406 Z M 21.964844 34.71875 "/>
<path style=" stroke:none;fill-rule:evenodd;fill:rgb(85.490196%,85.490196%,85.490196%);fill-opacity:1;" d="M 21.964844 34.71875 L 21.964844 34.191406 L 31.097656 30.546875 L 31.097656 34.070312 L 15.640625 38.910156 L 15.640625 36.710938 L 20.632812 34.71875 Z M 21.804688 34.5625 L 21.027344 34.5625 L 21.804688 34.253906 Z M 21.804688 34.5625 "/>
<path style=" stroke:none;fill-rule:evenodd;fill:rgb(85.882353%,85.882353%,85.882353%);fill-opacity:1;" d="M 21.804688 34.5625 L 21.804688 34.253906 L 31.097656 30.546875 L 31.097656 34.070312 L 15.640625 38.910156 L 15.640625 36.710938 L 21.027344 34.5625 Z M 21.652344 34.410156 L 21.402344 34.410156 L 21.652344 34.316406 Z M 21.652344 34.410156 "/>
<path style=" stroke:none;fill-rule:evenodd;fill:rgb(86.27451%,86.27451%,86.27451%);fill-opacity:1;" d="M 21.652344 34.410156 L 21.652344 34.316406 L 31.097656 30.546875 L 31.097656 34.070312 L 15.640625 38.910156 L 15.640625 36.710938 L 21.402344 34.410156 Z M 21.652344 34.410156 "/>
<path style=" stroke:none;fill-rule:evenodd;fill:rgb(86.666667%,86.666667%,86.666667%);fill-opacity:1;" d="M 15.640625 36.710938 L 31.097656 30.546875 L 31.097656 34.070312 L 15.640625 38.910156 Z M 15.640625 36.710938 "/>
<path style=" stroke:none;fill-rule:evenodd;fill:rgb(87.058824%,87.058824%,87.058824%);fill-opacity:1;" d="M 15.640625 36.710938 L 31.097656 30.546875 L 31.097656 34.070312 L 15.640625 38.910156 Z M 15.640625 36.710938 "/>
<path style=" stroke:none;fill-rule:evenodd;fill:rgb(87.45098%,87.45098%,87.45098%);fill-opacity:1;" d="M 15.640625 36.710938 L 31.097656 30.546875 L 31.097656 34.070312 L 15.640625 38.910156 Z M 15.640625 36.710938 "/>
<path style=" stroke:none;fill-rule:evenodd;fill:rgb(87.843137%,87.843137%,87.843137%);fill-opacity:1;" d="M 15.640625 36.710938 L 31.097656 30.546875 L 31.097656 34.070312 L 15.640625 38.910156 Z M 15.640625 36.710938 "/>
<path style=" stroke:none;fill-rule:evenodd;fill:rgb(88.235294%,88.235294%,88.235294%);fill-opacity:1;" d="M 15.640625 36.710938 L 31.097656 30.546875 L 31.097656 34.070312 L 15.640625 38.910156 Z M 15.640625 36.710938 "/>
<path style=" stroke:none;fill-rule:evenodd;fill:rgb(88.627451%,88.627451%,88.627451%);fill-opacity:1;" d="M 15.640625 36.710938 L 31.097656 30.546875 L 31.097656 34.070312 L 15.640625 38.910156 Z M 15.640625 36.710938 "/>
<path style=" stroke:none;fill-rule:evenodd;fill:rgb(89.019608%,89.019608%,89.019608%);fill-opacity:1;" d="M 15.640625 36.710938 L 31.097656 30.546875 L 31.097656 34.070312 L 15.640625 38.910156 Z M 15.640625 36.710938 "/>
<path style="fill-rule:evenodd;fill:rgb(89.803922%,89.803922%,89.803922%);fill-opacity:1;stroke-width:40;stroke-linecap:butt;stroke-linejoin:round;stroke:rgb(100%,100%,100%);stroke-opacity:1;stroke-miterlimit:4;" d="M 5094.164596 9761.15855 L 6823.785301 9060.955295 L 6823.785301 9461.19822 L 5094.164596 10010.977582 Z M 5094.164596 9761.15855 " transform="matrix(0.00893666,0,0,0.00880325,-29.884189,-49.218956)"/>
<path style="fill-rule:evenodd;fill:url(#linear2);stroke-width:40;stroke-linecap:butt;stroke-linejoin:round;stroke:rgb(100%,100%,100%);stroke-opacity:1;stroke-miterlimit:4;" d="M 5094.164596 9761.15855 L 3364.106786 8760.994965 L 5094.164596 8060.79171 L 6823.785301 9060.955295 Z M 5094.164596 9761.15855 " transform="matrix(0.00893666,0,0,0.00880325,-29.884189,-49.218956)"/>
<path style="fill-rule:evenodd;fill:url(#linear3);stroke-width:40;stroke-linecap:butt;stroke-linejoin:round;stroke:rgb(100%,100%,100%);stroke-opacity:1;stroke-miterlimit:4;" d="M 3364.106786 9010.813997 L 3364.106786 8760.994965 L 5094.164596 9761.15855 L 5094.164596 10010.977582 Z M 3364.106786 9010.813997 " transform="matrix(0.00893666,0,0,0.00880325,-29.884189,-49.218956)"/>
<path style="fill:none;stroke-width:40;stroke-linecap:butt;stroke-linejoin:round;stroke:rgb(0%,0%,0%);stroke-opacity:1;stroke-miterlimit:4;" d="M 4229.135691 8110.933008 L 4229.135691 6611.131359 L 5959.1935 5610.967773 L 9418.872015 7610.851215 L 9418.872015 9111.096593 L 7688.814206 10110.81645 L 6651.129203 9510.89579 L 5094.164596 10010.977582 L 3364.106786 9010.813997 L 3364.106786 8760.994965 L 4574.88499 8260.913173 Z M 4229.135691 8110.933008 " transform="matrix(0.00893666,0,0,0.00880325,-29.884189,-49.218956)"/>
<path style="fill-rule:evenodd;fill:rgb(100%,100%,100%);fill-opacity:1;stroke-width:40;stroke-linecap:butt;stroke-linejoin:round;stroke:rgb(50.196078%,50.196078%,50.196078%);stroke-opacity:1;stroke-miterlimit:4;" d="M 4661.868695 9660.875955 C 4316.119396 9461.19822 3796.83979 9160.794162 3451.090491 8961.116428 C 3882.949287 8710.853668 4748.8524 8361.195768 5353.804398 8211.215603 C 5699.990802 8410.893338 6131.849598 8661.156098 6565.019706 8910.97513 C 6046.177205 9060.955295 5181.1483 9411.056923 4661.868695 9660.875955 Z M 4661.868695 9660.875955 " transform="matrix(0.00893666,0,0,0.00880325,-29.884189,-49.218956)"/>
<path style="fill:none;stroke-width:40;stroke-linecap:butt;stroke-linejoin:round;stroke:rgb(49.803922%,49.803922%,49.803922%);stroke-opacity:1;stroke-miterlimit:4;" d="M 5094.164596 8060.79171 L 5094.164596 7861.113976 L 6823.785301 8860.833832 L 6823.785301 9010.813997 " transform="matrix(0.00893666,0,0,0.00880325,-29.884189,-49.218956)"/>
<path style="fill-rule:evenodd;fill:url(#linear4);stroke-width:40;stroke-linecap:butt;stroke-linejoin:round;stroke:rgb(100%,100%,100%);stroke-opacity:1;stroke-miterlimit:4;" d="M 6823.785301 8110.933008 L 5094.164596 7111.213151 L 6651.129203 6210.888433 L 8381.187013 7211.052018 Z M 6823.785301 8110.933008 " transform="matrix(0.00893666,0,0,0.00880325,-29.884189,-49.218956)"/>
<path style="fill-rule:evenodd;fill:url(#linear5);stroke-width:40;stroke-linecap:butt;stroke-linejoin:round;stroke:rgb(100%,100%,100%);stroke-opacity:1;stroke-miterlimit:4;" d="M 5094.164596 7610.851215 L 5094.164596 7111.213151 L 6823.785301 8110.933008 L 6823.785301 8611.0148 Z M 5094.164596 7610.851215 " transform="matrix(0.00893666,0,0,0.00880325,-29.884189,-49.218956)"/>
</g>
</svg>
