<?xml version="1.0" encoding="UTF-8"?>
<svg xmlns="http://www.w3.org/2000/svg" xmlns:xlink="http://www.w3.org/1999/xlink" width="21pt" height="29pt" viewBox="0 0 21 29" version="1.1">
<defs>
<linearGradient id="linear0" gradientUnits="userSpaceOnUse" x1="2848" y1="6942" x2="3479" y2="6944" >
<stop offset="0.1" style="stop-color:rgb(70.196078%,70.196078%,70.196078%);stop-opacity:1;"/>
<stop offset="1" style="stop-color:rgb(89.803922%,89.803922%,89.803922%);stop-opacity:1;"/>
</linearGradient>
<linearGradient id="linear1" gradientUnits="userSpaceOnUse" x1="2938" y1="6865" x2="3389" y2="6865" >
<stop offset="0.1" style="stop-color:rgb(57.647059%,83.137255%,94.117647%);stop-opacity:1;"/>
<stop offset="1" style="stop-color:rgb(91.372549%,96.470588%,98.823529%);stop-opacity:1;"/>
</linearGradient>
<linearGradient id="linear2" gradientUnits="userSpaceOnUse" x1="3209" y1="6112" x2="3209" y2="6527" >
<stop offset="0.1" style="stop-color:rgb(70.196078%,70.196078%,70.196078%);stop-opacity:1;"/>
<stop offset="1" style="stop-color:rgb(89.803922%,89.803922%,89.803922%);stop-opacity:1;"/>
</linearGradient>
</defs>
<g id="surface1">
<path style="fill-rule:evenodd;fill:rgb(86.666667%,86.666667%,86.666667%);fill-opacity:1;stroke-width:40;stroke-linecap:butt;stroke-linejoin:round;stroke:rgb(86.666667%,86.666667%,86.666667%);stroke-opacity:1;stroke-miterlimit:4;" d="M 3506.057664 7722.053819 C 3752.072917 7722.053819 4028.006035 7670.019097 3938.037202 7462.982639 C 3848.929315 7255.064236 3814.921958 7255.064236 3568.906705 7255.064236 C 3568.906705 7410.947917 3411.999339 7203.029514 3506.057664 7722.053819 Z M 3506.057664 7722.053819 " transform="matrix(0.0181486,0,0,0.0177165,-51.360668,-107.929134)"/>
<path style="fill-rule:evenodd;fill:url(#linear0);stroke-width:40;stroke-linecap:butt;stroke-linejoin:round;stroke:rgb(100%,100%,100%);stroke-opacity:1;stroke-miterlimit:4;" d="M 2850.016989 7358.913194 L 2850.016989 6164.098958 L 3478.937872 6527.901042 L 3478.937872 7722.053819 Z M 2850.016989 7358.913194 " transform="matrix(0.0181486,0,0,0.0177165,-51.360668,-107.929134)"/>
<path style="fill-rule:evenodd;fill:url(#linear1);stroke-width:40;stroke-linecap:butt;stroke-linejoin:round;stroke:rgb(49.803922%,49.803922%,49.803922%);stroke-opacity:1;stroke-miterlimit:4;" d="M 2939.985822 7150.994792 L 2939.985822 6319.982639 L 3388.969039 6579.935764 L 3388.969039 7410.947917 Z M 2939.985822 7150.994792 " transform="matrix(0.0181486,0,0,0.0177165,-51.360668,-107.929134)"/>
<path style="fill-rule:evenodd;fill:url(#linear2);stroke-width:40;stroke-linecap:butt;stroke-linejoin:round;stroke:rgb(100%,100%,100%);stroke-opacity:1;stroke-miterlimit:4;" d="M 3478.937872 6527.019097 L 2850.016989 6164.098958 L 2939.985822 6112.064236 L 3568.906705 6476.086806 Z M 3478.937872 6527.019097 " transform="matrix(0.0181486,0,0,0.0177165,-51.360668,-107.929134)"/>
<path style=" stroke:none;fill-rule:evenodd;fill:rgb(70.196078%,70.196078%,70.196078%);fill-opacity:1;" d="M 11.777344 24.234375 L 11.777344 7.722656 L 13.410156 6.804688 L 13.410156 24.234375 Z M 11.777344 24.234375 "/>
<path style=" stroke:none;fill-rule:evenodd;fill:rgb(70.588235%,70.588235%,70.588235%);fill-opacity:1;" d="M 13.410156 24.234375 L 13.410156 27.972656 L 11.777344 28.878906 L 11.777344 24.234375 Z M 11.777344 24.023438 L 11.777344 7.722656 L 13.410156 6.804688 L 13.410156 24.023438 Z M 11.777344 24.023438 "/>
<path style=" stroke:none;fill-rule:evenodd;fill:rgb(70.980392%,70.980392%,70.980392%);fill-opacity:1;" d="M 13.410156 24.023438 L 13.410156 27.972656 L 11.777344 28.878906 L 11.777344 24.023438 Z M 11.777344 23.792969 L 11.777344 7.722656 L 13.410156 6.804688 L 13.410156 23.792969 Z M 11.777344 23.792969 "/>
<path style=" stroke:none;fill-rule:evenodd;fill:rgb(71.372549%,71.372549%,71.372549%);fill-opacity:1;" d="M 13.410156 23.792969 L 13.410156 27.972656 L 11.777344 28.878906 L 11.777344 23.792969 Z M 11.777344 23.582031 L 11.777344 7.722656 L 13.410156 6.804688 L 13.410156 23.582031 Z M 11.777344 23.582031 "/>
<path style=" stroke:none;fill-rule:evenodd;fill:rgb(71.764706%,71.764706%,71.764706%);fill-opacity:1;" d="M 13.410156 23.582031 L 13.410156 27.972656 L 11.777344 28.878906 L 11.777344 23.582031 Z M 11.777344 23.351562 L 11.777344 7.722656 L 13.410156 6.804688 L 13.410156 23.351562 Z M 11.777344 23.351562 "/>
<path style=" stroke:none;fill-rule:evenodd;fill:rgb(72.156863%,72.156863%,72.156863%);fill-opacity:1;" d="M 13.410156 23.351562 L 13.410156 27.972656 L 11.777344 28.878906 L 11.777344 23.351562 Z M 11.777344 23.136719 L 11.777344 7.722656 L 13.410156 6.804688 L 13.410156 23.136719 Z M 11.777344 23.136719 "/>
<path style=" stroke:none;fill-rule:evenodd;fill:rgb(72.54902%,72.54902%,72.54902%);fill-opacity:1;" d="M 13.410156 23.136719 L 13.410156 27.972656 L 11.777344 28.878906 L 11.777344 23.136719 Z M 11.777344 22.90625 L 11.777344 7.722656 L 13.410156 6.804688 L 13.410156 22.90625 Z M 11.777344 22.90625 "/>
<path style=" stroke:none;fill-rule:evenodd;fill:rgb(72.941176%,72.941176%,72.941176%);fill-opacity:1;" d="M 13.410156 22.90625 L 13.410156 27.972656 L 11.777344 28.878906 L 11.777344 22.90625 Z M 11.777344 22.695312 L 11.777344 7.722656 L 13.410156 6.804688 L 13.410156 22.695312 Z M 11.777344 22.695312 "/>
<path style=" stroke:none;fill-rule:evenodd;fill:rgb(73.333333%,73.333333%,73.333333%);fill-opacity:1;" d="M 13.410156 22.695312 L 13.410156 27.972656 L 11.777344 28.878906 L 11.777344 22.695312 Z M 11.777344 22.464844 L 11.777344 7.722656 L 13.410156 6.804688 L 13.410156 22.464844 Z M 11.777344 22.464844 "/>
<path style=" stroke:none;fill-rule:evenodd;fill:rgb(73.72549%,73.72549%,73.72549%);fill-opacity:1;" d="M 13.410156 22.464844 L 13.410156 27.972656 L 11.777344 28.878906 L 11.777344 22.464844 Z M 11.777344 22.253906 L 11.777344 7.722656 L 13.410156 6.804688 L 13.410156 22.253906 Z M 11.777344 22.253906 "/>
<path style=" stroke:none;fill-rule:evenodd;fill:rgb(74.117647%,74.117647%,74.117647%);fill-opacity:1;" d="M 13.410156 22.253906 L 13.410156 27.972656 L 11.777344 28.878906 L 11.777344 22.253906 Z M 11.777344 22.023438 L 11.777344 7.722656 L 13.410156 6.804688 L 13.410156 22.023438 Z M 11.777344 22.023438 "/>
<path style=" stroke:none;fill-rule:evenodd;fill:rgb(74.509804%,74.509804%,74.509804%);fill-opacity:1;" d="M 13.410156 22.023438 L 13.410156 27.972656 L 11.777344 28.878906 L 11.777344 22.023438 Z M 11.777344 21.808594 L 11.777344 7.722656 L 13.410156 6.804688 L 13.410156 21.808594 Z M 11.777344 21.808594 "/>
<path style=" stroke:none;fill-rule:evenodd;fill:rgb(74.901961%,74.901961%,74.901961%);fill-opacity:1;" d="M 13.410156 21.808594 L 13.410156 27.972656 L 11.777344 28.878906 L 11.777344 21.808594 Z M 11.777344 21.578125 L 11.777344 7.722656 L 13.410156 6.804688 L 13.410156 21.578125 Z M 11.777344 21.578125 "/>
<path style=" stroke:none;fill-rule:evenodd;fill:rgb(75.294118%,75.294118%,75.294118%);fill-opacity:1;" d="M 13.410156 21.578125 L 13.410156 27.972656 L 11.777344 28.878906 L 11.777344 21.578125 Z M 11.777344 21.367188 L 11.777344 7.722656 L 13.410156 6.804688 L 13.410156 21.367188 Z M 11.777344 21.367188 "/>
<path style=" stroke:none;fill-rule:evenodd;fill:rgb(75.686275%,75.686275%,75.686275%);fill-opacity:1;" d="M 13.410156 21.367188 L 13.410156 27.972656 L 11.777344 28.878906 L 11.777344 21.367188 Z M 11.777344 21.136719 L 11.777344 7.722656 L 13.410156 6.804688 L 13.410156 21.136719 Z M 11.777344 21.136719 "/>
<path style=" stroke:none;fill-rule:evenodd;fill:rgb(76.078431%,76.078431%,76.078431%);fill-opacity:1;" d="M 13.410156 21.136719 L 13.410156 27.972656 L 11.777344 28.878906 L 11.777344 21.136719 Z M 11.777344 20.921875 L 11.777344 7.722656 L 13.410156 6.804688 L 13.410156 20.921875 Z M 11.777344 20.921875 "/>
<path style=" stroke:none;fill-rule:evenodd;fill:rgb(76.470588%,76.470588%,76.470588%);fill-opacity:1;" d="M 13.410156 20.921875 L 13.410156 27.972656 L 11.777344 28.878906 L 11.777344 20.921875 Z M 11.777344 20.691406 L 11.777344 7.722656 L 13.410156 6.804688 L 13.410156 20.691406 Z M 11.777344 20.691406 "/>
<path style=" stroke:none;fill-rule:evenodd;fill:rgb(76.862745%,76.862745%,76.862745%);fill-opacity:1;" d="M 13.410156 20.691406 L 13.410156 27.972656 L 11.777344 28.878906 L 11.777344 20.691406 Z M 11.777344 20.480469 L 11.777344 7.722656 L 13.410156 6.804688 L 13.410156 20.480469 Z M 11.777344 20.480469 "/>
<path style=" stroke:none;fill-rule:evenodd;fill:rgb(77.254902%,77.254902%,77.254902%);fill-opacity:1;" d="M 13.410156 20.480469 L 13.410156 27.972656 L 11.777344 28.878906 L 11.777344 20.480469 Z M 11.777344 20.25 L 11.777344 7.722656 L 13.410156 6.804688 L 13.410156 20.25 Z M 11.777344 20.25 "/>
<path style=" stroke:none;fill-rule:evenodd;fill:rgb(77.647059%,77.647059%,77.647059%);fill-opacity:1;" d="M 13.410156 20.25 L 13.410156 27.972656 L 11.777344 28.878906 L 11.777344 20.25 Z M 11.777344 20.039062 L 11.777344 7.722656 L 13.410156 6.804688 L 13.410156 20.039062 Z M 11.777344 20.039062 "/>
<path style=" stroke:none;fill-rule:evenodd;fill:rgb(78.039216%,78.039216%,78.039216%);fill-opacity:1;" d="M 13.410156 20.039062 L 13.410156 27.972656 L 11.777344 28.878906 L 11.777344 20.039062 Z M 13.410156 6.996094 L 13.410156 19.808594 L 11.777344 19.808594 L 11.777344 7.722656 L 13.066406 6.996094 Z M 13.410156 6.996094 "/>
<path style=" stroke:none;fill-rule:evenodd;fill:rgb(78.431373%,78.431373%,78.431373%);fill-opacity:1;" d="M 13.410156 19.808594 L 13.410156 27.972656 L 11.777344 28.878906 L 11.777344 19.808594 Z M 13.066406 6.996094 L 13.410156 6.804688 L 13.410156 6.996094 Z M 13.410156 7.210938 L 13.410156 19.59375 L 11.777344 19.59375 L 11.777344 7.722656 L 12.6875 7.210938 Z M 13.410156 7.210938 "/>
<path style=" stroke:none;fill-rule:evenodd;fill:rgb(78.823529%,78.823529%,78.823529%);fill-opacity:1;" d="M 13.410156 19.59375 L 13.410156 27.972656 L 11.777344 28.878906 L 11.777344 19.59375 Z M 12.6875 7.210938 L 13.410156 6.804688 L 13.410156 7.210938 Z M 13.410156 7.441406 L 13.410156 19.363281 L 11.777344 19.363281 L 11.777344 7.722656 L 12.285156 7.441406 Z M 13.410156 7.441406 "/>
<path style=" stroke:none;fill-rule:evenodd;fill:rgb(79.215686%,79.215686%,79.215686%);fill-opacity:1;" d="M 13.410156 19.363281 L 13.410156 27.972656 L 11.777344 28.878906 L 11.777344 19.363281 Z M 12.285156 7.441406 L 13.410156 6.804688 L 13.410156 7.441406 Z M 13.410156 7.652344 L 13.410156 19.152344 L 11.777344 19.152344 L 11.777344 7.722656 L 11.90625 7.652344 Z M 13.410156 7.652344 "/>
<path style=" stroke:none;fill-rule:evenodd;fill:rgb(79.607843%,79.607843%,79.607843%);fill-opacity:1;" d="M 13.410156 19.152344 L 13.410156 27.972656 L 11.777344 28.878906 L 11.777344 19.152344 Z M 11.90625 7.652344 L 13.410156 6.804688 L 13.410156 7.652344 Z M 13.410156 7.882812 L 13.410156 18.921875 L 11.777344 18.921875 L 11.777344 7.882812 Z M 13.410156 7.882812 "/>
<path style=" stroke:none;fill-rule:evenodd;fill:rgb(80%,80%,80%);fill-opacity:1;" d="M 13.410156 18.921875 L 13.410156 27.972656 L 11.777344 28.878906 L 11.777344 18.921875 Z M 11.777344 7.882812 L 11.777344 7.722656 L 13.410156 6.804688 L 13.410156 7.882812 Z M 13.410156 8.097656 L 13.410156 18.707031 L 11.777344 18.707031 L 11.777344 8.097656 Z M 13.410156 8.097656 "/>
<path style=" stroke:none;fill-rule:evenodd;fill:rgb(80.392157%,80.392157%,80.392157%);fill-opacity:1;" d="M 13.410156 18.707031 L 13.410156 27.972656 L 11.777344 28.878906 L 11.777344 18.707031 Z M 11.777344 8.097656 L 11.777344 7.722656 L 13.410156 6.804688 L 13.410156 8.097656 Z M 13.410156 8.328125 L 13.410156 18.476562 L 11.777344 18.476562 L 11.777344 8.328125 Z M 13.410156 8.328125 "/>
<path style=" stroke:none;fill-rule:evenodd;fill:rgb(80.784314%,80.784314%,80.784314%);fill-opacity:1;" d="M 13.410156 18.476562 L 13.410156 27.972656 L 11.777344 28.878906 L 11.777344 18.476562 Z M 11.777344 8.328125 L 11.777344 7.722656 L 13.410156 6.804688 L 13.410156 8.328125 Z M 13.410156 8.539062 L 13.410156 18.265625 L 11.777344 18.265625 L 11.777344 8.539062 Z M 13.410156 8.539062 "/>
<path style=" stroke:none;fill-rule:evenodd;fill:rgb(81.176471%,81.176471%,81.176471%);fill-opacity:1;" d="M 13.410156 18.265625 L 13.410156 27.972656 L 11.777344 28.878906 L 11.777344 18.265625 Z M 11.777344 8.539062 L 11.777344 7.722656 L 13.410156 6.804688 L 13.410156 8.539062 Z M 13.410156 8.769531 L 13.410156 18.035156 L 11.777344 18.035156 L 11.777344 8.769531 Z M 13.410156 8.769531 "/>
<path style=" stroke:none;fill-rule:evenodd;fill:rgb(81.568627%,81.568627%,81.568627%);fill-opacity:1;" d="M 13.410156 18.035156 L 13.410156 27.972656 L 11.777344 28.878906 L 11.777344 18.035156 Z M 11.777344 8.769531 L 11.777344 7.722656 L 13.410156 6.804688 L 13.410156 8.769531 Z M 13.410156 8.980469 L 13.410156 17.824219 L 11.777344 17.824219 L 11.777344 8.980469 Z M 13.410156 8.980469 "/>
<path style=" stroke:none;fill-rule:evenodd;fill:rgb(81.960784%,81.960784%,81.960784%);fill-opacity:1;" d="M 13.410156 17.824219 L 13.410156 27.972656 L 11.777344 28.878906 L 11.777344 17.824219 Z M 11.777344 8.980469 L 11.777344 7.722656 L 13.410156 6.804688 L 13.410156 8.980469 Z M 13.410156 9.210938 L 13.410156 17.59375 L 11.777344 17.59375 L 11.777344 9.210938 Z M 13.410156 9.210938 "/>
<path style=" stroke:none;fill-rule:evenodd;fill:rgb(82.352941%,82.352941%,82.352941%);fill-opacity:1;" d="M 13.410156 17.59375 L 13.410156 27.972656 L 11.777344 28.878906 L 11.777344 17.59375 Z M 11.777344 9.210938 L 11.777344 7.722656 L 13.410156 6.804688 L 13.410156 9.210938 Z M 13.410156 9.425781 L 13.410156 17.378906 L 11.777344 17.378906 L 11.777344 9.425781 Z M 13.410156 9.425781 "/>
<path style=" stroke:none;fill-rule:evenodd;fill:rgb(82.745098%,82.745098%,82.745098%);fill-opacity:1;" d="M 13.410156 17.378906 L 13.410156 27.972656 L 11.777344 28.878906 L 11.777344 17.378906 Z M 11.777344 9.425781 L 11.777344 7.722656 L 13.410156 6.804688 L 13.410156 9.425781 Z M 13.410156 9.65625 L 13.410156 17.148438 L 11.777344 17.148438 L 11.777344 9.65625 Z M 13.410156 9.65625 "/>
<path style=" stroke:none;fill-rule:evenodd;fill:rgb(83.137255%,83.137255%,83.137255%);fill-opacity:1;" d="M 13.410156 17.148438 L 13.410156 27.972656 L 11.777344 28.878906 L 11.777344 17.148438 Z M 11.777344 9.65625 L 11.777344 7.722656 L 13.410156 6.804688 L 13.410156 9.65625 Z M 13.410156 9.867188 L 13.410156 16.9375 L 11.777344 16.9375 L 11.777344 9.867188 Z M 13.410156 9.867188 "/>
<path style=" stroke:none;fill-rule:evenodd;fill:rgb(83.529412%,83.529412%,83.529412%);fill-opacity:1;" d="M 13.410156 16.9375 L 13.410156 27.972656 L 11.777344 28.878906 L 11.777344 16.9375 Z M 11.777344 9.867188 L 11.777344 7.722656 L 13.410156 6.804688 L 13.410156 9.867188 Z M 13.410156 10.097656 L 13.410156 16.707031 L 11.777344 16.707031 L 11.777344 10.097656 Z M 13.410156 10.097656 "/>
<path style=" stroke:none;fill-rule:evenodd;fill:rgb(83.921569%,83.921569%,83.921569%);fill-opacity:1;" d="M 13.410156 16.707031 L 13.410156 27.972656 L 11.777344 28.878906 L 11.777344 16.707031 Z M 11.777344 10.097656 L 11.777344 7.722656 L 13.410156 6.804688 L 13.410156 10.097656 Z M 13.410156 10.3125 L 13.410156 16.492188 L 11.777344 16.492188 L 11.777344 10.3125 Z M 13.410156 10.3125 "/>
<path style=" stroke:none;fill-rule:evenodd;fill:rgb(84.313725%,84.313725%,84.313725%);fill-opacity:1;" d="M 13.410156 16.492188 L 13.410156 27.972656 L 11.777344 28.878906 L 11.777344 16.492188 Z M 11.777344 10.3125 L 11.777344 7.722656 L 13.410156 6.804688 L 13.410156 10.3125 Z M 13.410156 10.542969 L 13.410156 16.265625 L 11.777344 16.265625 L 11.777344 10.542969 Z M 13.410156 10.542969 "/>
<path style=" stroke:none;fill-rule:evenodd;fill:rgb(84.705882%,84.705882%,84.705882%);fill-opacity:1;" d="M 13.410156 16.265625 L 13.410156 27.972656 L 11.777344 28.878906 L 11.777344 16.265625 Z M 11.777344 10.542969 L 11.777344 7.722656 L 13.410156 6.804688 L 13.410156 10.542969 Z M 13.410156 10.753906 L 13.410156 16.050781 L 11.777344 16.050781 L 11.777344 10.753906 Z M 13.410156 10.753906 "/>
<path style=" stroke:none;fill-rule:evenodd;fill:rgb(85.098039%,85.098039%,85.098039%);fill-opacity:1;" d="M 13.410156 16.050781 L 13.410156 27.972656 L 11.777344 28.878906 L 11.777344 16.050781 Z M 11.777344 10.753906 L 11.777344 7.722656 L 13.410156 6.804688 L 13.410156 10.753906 Z M 13.410156 10.984375 L 13.410156 15.820312 L 11.777344 15.820312 L 11.777344 10.984375 Z M 13.410156 10.984375 "/>
<path style=" stroke:none;fill-rule:evenodd;fill:rgb(85.490196%,85.490196%,85.490196%);fill-opacity:1;" d="M 13.410156 15.820312 L 13.410156 27.972656 L 11.777344 28.878906 L 11.777344 15.820312 Z M 11.777344 10.984375 L 11.777344 7.722656 L 13.410156 6.804688 L 13.410156 10.984375 Z M 13.410156 11.195312 L 13.410156 15.609375 L 11.777344 15.609375 L 11.777344 11.195312 Z M 13.410156 11.195312 "/>
<path style=" stroke:none;fill-rule:evenodd;fill:rgb(85.882353%,85.882353%,85.882353%);fill-opacity:1;" d="M 13.410156 15.609375 L 13.410156 27.972656 L 11.777344 28.878906 L 11.777344 15.609375 Z M 11.777344 11.195312 L 11.777344 7.722656 L 13.410156 6.804688 L 13.410156 11.195312 Z M 13.410156 11.425781 L 13.410156 15.378906 L 11.777344 15.378906 L 11.777344 11.425781 Z M 13.410156 11.425781 "/>
<path style=" stroke:none;fill-rule:evenodd;fill:rgb(86.27451%,86.27451%,86.27451%);fill-opacity:1;" d="M 13.410156 15.378906 L 13.410156 27.972656 L 11.777344 28.878906 L 11.777344 15.378906 Z M 11.777344 11.425781 L 11.777344 7.722656 L 13.410156 6.804688 L 13.410156 11.425781 Z M 13.410156 11.640625 L 13.410156 15.164062 L 11.777344 15.164062 L 11.777344 11.640625 Z M 13.410156 11.640625 "/>
<path style=" stroke:none;fill-rule:evenodd;fill:rgb(86.666667%,86.666667%,86.666667%);fill-opacity:1;" d="M 13.410156 15.164062 L 13.410156 27.972656 L 11.777344 28.878906 L 11.777344 15.164062 Z M 11.777344 11.640625 L 11.777344 7.722656 L 13.410156 6.804688 L 13.410156 11.640625 Z M 13.410156 11.871094 L 13.410156 14.933594 L 11.777344 14.933594 L 11.777344 11.871094 Z M 13.410156 11.871094 "/>
<path style=" stroke:none;fill-rule:evenodd;fill:rgb(87.058824%,87.058824%,87.058824%);fill-opacity:1;" d="M 13.410156 14.933594 L 13.410156 27.972656 L 11.777344 28.878906 L 11.777344 14.933594 Z M 11.777344 11.871094 L 11.777344 7.722656 L 13.410156 6.804688 L 13.410156 11.871094 Z M 13.410156 12.082031 L 13.410156 14.722656 L 11.777344 14.722656 L 11.777344 12.082031 Z M 13.410156 12.082031 "/>
<path style=" stroke:none;fill-rule:evenodd;fill:rgb(87.45098%,87.45098%,87.45098%);fill-opacity:1;" d="M 13.410156 14.722656 L 13.410156 27.972656 L 11.777344 28.878906 L 11.777344 14.722656 Z M 11.777344 12.082031 L 11.777344 7.722656 L 13.410156 6.804688 L 13.410156 12.082031 Z M 13.355469 12.3125 L 13.355469 14.492188 L 11.777344 14.492188 L 11.777344 12.3125 Z M 13.355469 12.3125 "/>
<path style=" stroke:none;fill-rule:evenodd;fill:rgb(87.843137%,87.843137%,87.843137%);fill-opacity:1;" d="M 13.355469 14.492188 L 13.355469 12.3125 L 11.777344 12.3125 L 11.777344 7.722656 L 13.410156 6.804688 L 13.410156 27.972656 L 11.777344 28.878906 L 11.777344 14.492188 Z M 13.140625 12.527344 L 13.140625 14.28125 L 11.777344 14.28125 L 11.777344 12.527344 Z M 13.140625 12.527344 "/>
<path style=" stroke:none;fill-rule:evenodd;fill:rgb(88.235294%,88.235294%,88.235294%);fill-opacity:1;" d="M 13.140625 14.28125 L 13.140625 12.527344 L 11.777344 12.527344 L 11.777344 7.722656 L 13.410156 6.804688 L 13.410156 27.972656 L 11.777344 28.878906 L 11.777344 14.28125 Z M 12.902344 12.757812 L 12.902344 14.050781 L 11.777344 14.050781 L 11.777344 12.757812 Z M 12.902344 12.757812 "/>
<path style=" stroke:none;fill-rule:evenodd;fill:rgb(88.627451%,88.627451%,88.627451%);fill-opacity:1;" d="M 12.902344 14.050781 L 12.902344 12.757812 L 11.777344 12.757812 L 11.777344 7.722656 L 13.410156 6.804688 L 13.410156 27.972656 L 11.777344 28.878906 L 11.777344 14.050781 Z M 11.796875 12.96875 L 12.6875 12.96875 L 12.6875 13.835938 L 11.796875 13.835938 Z M 11.796875 12.96875 "/>
<path style=" stroke:none;fill-rule:evenodd;fill:rgb(89.019608%,89.019608%,89.019608%);fill-opacity:1;" d="M 11.796875 12.96875 L 11.796875 13.835938 L 12.6875 13.835938 L 12.6875 12.96875 Z M 12.03125 13.199219 L 12.449219 13.199219 L 12.449219 13.605469 L 12.03125 13.605469 Z M 11.777344 28.878906 L 11.777344 7.722656 L 13.410156 6.804688 L 13.410156 27.972656 Z M 11.777344 28.878906 "/>
<path style=" stroke:none;fill-rule:evenodd;fill:rgb(89.803922%,89.803922%,89.803922%);fill-opacity:1;" d="M 12.03125 13.199219 L 12.03125 13.605469 L 12.449219 13.605469 L 12.449219 13.199219 Z M 11.777344 28.878906 L 11.777344 7.722656 L 13.410156 6.804688 L 13.410156 27.972656 Z M 11.777344 28.878906 "/>
<path style="fill:none;stroke-width:40;stroke-linecap:butt;stroke-linejoin:round;stroke:rgb(100%,100%,100%);stroke-opacity:1;stroke-miterlimit:4;" d="M 3478.937872 7722.053819 L 3478.937872 6527.901042 L 3568.906705 6476.086806 L 3568.906705 7670.901042 Z M 3478.937872 7722.053819 " transform="matrix(0.0181486,0,0,0.0177165,-51.360668,-107.929134)"/>
<path style="fill:none;stroke-width:40;stroke-linecap:butt;stroke-linejoin:round;stroke:rgb(0%,0%,0%);stroke-opacity:1;stroke-miterlimit:4;" d="M 2939.985822 6112.064236 L 3568.906705 6476.086806 L 3568.906705 7670.019097 L 3478.937872 7722.053819 L 2850.016989 7358.03125 L 2850.016989 6164.098958 Z M 2939.985822 6112.064236 " transform="matrix(0.0181486,0,0,0.0177165,-51.360668,-107.929134)"/>
<path style="fill:none;stroke-width:40;stroke-linecap:butt;stroke-linejoin:round;stroke:rgb(49.803922%,49.803922%,49.803922%);stroke-opacity:1;stroke-miterlimit:4;" d="M 3029.954654 7307.098958 L 3300.076389 7462.982639 " transform="matrix(0.0181486,0,0,0.0177165,-51.360668,-107.929134)"/>
</g>
</svg>
