<?xml version="1.0" encoding="UTF-8"?>
<svg xmlns="http://www.w3.org/2000/svg" xmlns:xlink="http://www.w3.org/1999/xlink" width="42pt" height="10pt" viewBox="0 0 42 10" version="1.1">
<g id="surface1">
<path style=" stroke:none;fill-rule:nonzero;fill:rgb(24.705882%,41.960784%,63.921569%);fill-opacity:1;" d="M 40.28125 0 L 1.71875 0 C 0.769531 0 0 0.804688 0 1.789062 L 0 8.210938 C 0 9.195312 0.769531 10 1.71875 10 L 40.28125 10 C 41.230469 10 42 9.195312 42 8.210938 L 42 1.789062 C 42 0.804688 41.230469 0 40.28125 0 Z M 40.28125 0 "/>
<path style=" stroke:none;fill-rule:nonzero;fill:rgb(100%,100%,100%);fill-opacity:0.929412;" d="M 40.28125 1.097656 L 38.21875 1.097656 L 38.21875 8.902344 L 3.78125 8.902344 L 3.78125 1.097656 L 1.71875 1.097656 C 1.351562 1.097656 1.054688 1.410156 1.054688 1.789062 L 1.054688 8.210938 C 1.054688 8.589844 1.351562 8.902344 1.71875 8.902344 L 40.28125 8.902344 C 40.648438 8.902344 40.945312 8.589844 40.945312 8.210938 L 40.945312 1.789062 C 40.945312 1.410156 40.648438 1.097656 40.28125 1.097656 Z M 2.394531 7.988281 C 2.050781 7.988281 1.773438 7.695312 1.773438 7.335938 C 1.773438 6.980469 2.050781 6.6875 2.394531 6.6875 C 2.742188 6.6875 3.019531 6.980469 3.019531 7.335938 C 3.019531 7.695312 2.742188 7.988281 2.394531 7.988281 Z M 2.394531 3.222656 C 2.050781 3.222656 1.773438 2.933594 1.773438 2.574219 C 1.773438 2.214844 2.050781 1.925781 2.394531 1.925781 C 2.742188 1.925781 3.019531 2.214844 3.019531 2.574219 C 3.019531 2.933594 2.742188 3.222656 2.394531 3.222656 Z M 39.589844 7.988281 C 39.246094 7.988281 38.964844 7.695312 38.964844 7.335938 C 38.964844 6.980469 39.246094 6.6875 39.589844 6.6875 C 39.933594 6.6875 40.214844 6.980469 40.214844 7.335938 C 40.214844 7.695312 39.933594 7.988281 39.589844 7.988281 Z M 39.589844 3.222656 C 39.246094 3.222656 38.964844 2.933594 38.964844 2.574219 C 38.964844 2.214844 39.246094 1.925781 39.589844 1.925781 C 39.933594 1.925781 40.214844 2.214844 40.214844 2.574219 C 40.214844 2.933594 39.933594 3.222656 39.589844 3.222656 Z M 39.589844 3.222656 "/>
<path style=" stroke:none;fill-rule:nonzero;fill:rgb(100%,100%,100%);fill-opacity:0.701961;" d="M 38.21875 8.902344 L 38.21875 1.097656 L 3.78125 1.097656 L 3.78125 8.902344 Z M 33.300781 2.574219 L 37.25 2.574219 L 37.25 7.335938 L 33.300781 7.335938 Z M 23.894531 3.09375 L 32.207031 3.09375 L 32.207031 6.816406 L 23.894531 6.816406 Z M 14.40625 3.09375 L 22.71875 3.09375 L 22.71875 6.816406 L 14.40625 6.816406 Z M 4.929688 3.09375 L 13.242188 3.09375 L 13.242188 6.816406 L 4.929688 6.816406 Z M 4.929688 3.09375 "/>
<path style=" stroke:none;fill-rule:nonzero;fill:rgb(100%,100%,100%);fill-opacity:0.25098;" d="M 13.242188 3.09375 L 4.929688 3.09375 L 4.929688 6.816406 L 13.242188 6.816406 Z M 12.589844 6.144531 L 5.554688 6.144531 L 5.554688 5.425781 L 12.589844 5.425781 Z M 12.589844 4.578125 L 5.554688 4.578125 L 5.554688 3.855469 L 12.589844 3.855469 Z M 12.589844 4.578125 "/>
<path style=" stroke:none;fill-rule:nonzero;fill:rgb(100%,100%,100%);fill-opacity:0.25098;" d="M 22.71875 3.09375 L 14.40625 3.09375 L 14.40625 6.816406 L 22.71875 6.816406 Z M 22.082031 6.144531 L 15.042969 6.144531 L 15.042969 5.425781 L 22.082031 5.425781 Z M 22.082031 4.578125 L 15.042969 4.578125 L 15.042969 3.855469 L 22.082031 3.855469 Z M 22.082031 4.578125 "/>
<path style=" stroke:none;fill-rule:nonzero;fill:rgb(100%,100%,100%);fill-opacity:0.25098;" d="M 32.207031 3.09375 L 23.894531 3.09375 L 23.894531 6.816406 L 32.207031 6.816406 Z M 31.570312 6.144531 L 24.53125 6.144531 L 24.53125 5.425781 L 31.570312 5.425781 Z M 31.570312 4.578125 L 24.53125 4.578125 L 24.53125 3.855469 L 31.570312 3.855469 Z M 31.570312 4.578125 "/>
<path style=" stroke:none;fill-rule:nonzero;fill:rgb(100%,100%,100%);fill-opacity:0.301961;" d="M 3.019531 2.574219 C 3.019531 2.214844 2.742188 1.925781 2.398438 1.925781 C 2.050781 1.925781 1.773438 2.214844 1.773438 2.574219 C 1.773438 2.933594 2.050781 3.222656 2.394531 3.222656 C 2.738281 3.222656 3.019531 2.933594 3.019531 2.574219 Z M 3.019531 2.574219 "/>
<path style=" stroke:none;fill-rule:nonzero;fill:rgb(100%,100%,100%);fill-opacity:0.301961;" d="M 3.019531 7.335938 C 3.019531 6.980469 2.742188 6.6875 2.398438 6.6875 C 2.050781 6.6875 1.773438 6.980469 1.773438 7.335938 C 1.773438 7.695312 2.050781 7.988281 2.394531 7.988281 C 2.738281 7.988281 3.019531 7.695312 3.019531 7.339844 Z M 3.019531 7.335938 "/>
<path style=" stroke:none;fill-rule:nonzero;fill:rgb(100%,100%,100%);fill-opacity:0.301961;" d="M 40.214844 2.574219 C 40.214844 2.214844 39.933594 1.925781 39.589844 1.925781 C 39.246094 1.925781 38.964844 2.214844 38.964844 2.574219 C 38.964844 2.933594 39.246094 3.222656 39.589844 3.222656 C 39.933594 3.222656 40.210938 2.933594 40.214844 2.574219 Z M 40.214844 2.574219 "/>
<path style=" stroke:none;fill-rule:nonzero;fill:rgb(100%,100%,100%);fill-opacity:0.301961;" d="M 40.214844 7.335938 C 40.214844 6.980469 39.933594 6.6875 39.589844 6.6875 C 39.246094 6.6875 38.964844 6.980469 38.964844 7.335938 C 38.964844 7.695312 39.246094 7.988281 39.589844 7.988281 C 39.933594 7.988281 40.210938 7.695312 40.214844 7.339844 Z M 40.214844 7.335938 "/>
</g>
</svg>
