<?xml version="1.0" encoding="UTF-8"?>
<svg xmlns="http://www.w3.org/2000/svg" xmlns:xlink="http://www.w3.org/1999/xlink" width="42pt" height="24pt" viewBox="0 0 42 24" version="1.1">
<g id="surface1">
<path style=" stroke:none;fill-rule:nonzero;fill:rgb(24.705882%,41.960784%,63.921569%);fill-opacity:1;" d="M 36.148438 11.53125 C 35.90625 5.121094 30.582031 0 24.101562 0 C 20.878906 0 17.792969 1.289062 15.554688 3.554688 C 14.675781 2.890625 13.589844 2.542969 12.46875 2.542969 C 9.738281 2.542969 7.496094 4.632812 7.285156 7.28125 C 3.1875 7.835938 0 11.355469 0 15.535156 L 0 15.605469 C 0 20.203125 3.78125 23.964844 8.40625 23.964844 L 35.730469 24 L 36.78125 23.859375 C 39.757812 23.371094 42 20.796875 42 17.695312 C 42.035156 14.457031 39.40625 11.738281 36.148438 11.53125 Z M 36.148438 11.53125 "/>
<path style=" stroke:none;fill-rule:nonzero;fill:rgb(100%,100%,100%);fill-opacity:1;" d="M 40.457031 15.605469 C 39.617188 13.828125 37.832031 12.609375 35.730469 12.609375 C 35.484375 12.609375 35.273438 12.644531 35.0625 12.644531 C 35.0625 12.855469 35.027344 13.0625 35.027344 13.269531 C 34.539062 17.972656 31.210938 21.699219 26.902344 22.953125 L 35.730469 22.953125 C 35.871094 22.953125 36.042969 22.953125 36.183594 22.917969 Z M 40.457031 15.605469 "/>
<path style=" stroke:none;fill-rule:nonzero;fill:rgb(100%,100%,100%);fill-opacity:1;" d="M 34.75 9.40625 C 33.558594 4.632812 29.25 1.078125 24.066406 1.078125 C 20.667969 1.078125 17.621094 2.613281 15.585938 5.050781 C 14.816406 4.179688 13.695312 3.585938 12.433594 3.585938 C 10.160156 3.585938 8.265625 5.433594 8.265625 7.734375 C 8.265625 7.90625 8.265625 8.082031 8.300781 8.253906 C 4.308594 8.289062 1.050781 11.5625 1.050781 15.570312 L 1.050781 15.640625 C 1.050781 19.679688 4.34375 22.953125 8.40625 22.953125 L 26.902344 22.953125 Z M 9.421875 22.78125 L 14.605469 13.828125 C 14.851562 14.558594 15.027344 15.328125 15.027344 16.128906 C 15.027344 19.472656 12.609375 22.222656 9.421875 22.78125 Z M 12.890625 11.84375 L 16.21875 6.09375 C 16.429688 6.617188 16.570312 7.175781 16.570312 7.769531 C 16.570312 9.859375 14.957031 11.597656 12.890625 11.84375 Z M 12.890625 11.84375 "/>
<path style=" stroke:none;fill-rule:nonzero;fill:rgb(100%,100%,100%);fill-opacity:0.74902;" d="M 36.21875 22.953125 C 38.882812 22.710938 40.984375 20.480469 40.984375 17.765625 C 40.984375 16.964844 40.808594 16.230469 40.492188 15.570312 Z M 36.21875 22.953125 "/>
<path style=" stroke:none;fill-rule:nonzero;fill:rgb(100%,100%,100%);fill-opacity:0.74902;" d="M 12.890625 11.84375 C 14.957031 11.632812 16.605469 9.859375 16.605469 7.734375 C 16.605469 7.140625 16.464844 6.582031 16.253906 6.0625 Z M 12.890625 11.84375 "/>
<path style=" stroke:none;fill-rule:nonzero;fill:rgb(100%,100%,100%);fill-opacity:0.74902;" d="M 9.421875 22.78125 C 12.609375 22.222656 15.027344 19.472656 15.027344 16.128906 C 15.027344 15.324219 14.886719 14.558594 14.605469 13.828125 Z M 9.421875 22.78125 "/>
<path style=" stroke:none;fill-rule:nonzero;fill:rgb(100%,100%,100%);fill-opacity:0.74902;" d="M 26.902344 22.953125 C 31.210938 21.699219 34.539062 17.972656 35.027344 13.269531 C 35.167969 11.949219 35.0625 10.625 34.785156 9.40625 Z M 26.902344 22.953125 "/>
</g>
</svg>
