<?xml version="1.0" encoding="UTF-8"?>
<svg xmlns="http://www.w3.org/2000/svg" xmlns:xlink="http://www.w3.org/1999/xlink" width="49pt" height="29pt" viewBox="0 0 49 29" version="1.1">
<g id="surface1">
<path style=" stroke:none;fill-rule:nonzero;fill:rgb(24.705882%,41.960784%,63.921569%);fill-opacity:1;" d="M 48.753906 0.691406 C 48.546875 0.382812 48.160156 0.171875 47.742188 0.171875 L 17.136719 0.171875 C 16.472656 0.171875 15.914062 0.726562 15.914062 1.386719 L 15.914062 23.769531 C 15.914062 24.011719 15.984375 24.253906 16.125 24.425781 L 16.160156 24.460938 C 16.296875 24.667969 16.542969 24.808594 16.789062 24.910156 C 16.894531 24.945312 17.03125 24.980469 17.136719 24.980469 L 28.925781 24.980469 L 28.925781 25.917969 L 25.183594 25.917969 C 24.515625 25.917969 23.957031 26.472656 23.957031 27.128906 L 23.957031 27.753906 C 23.957031 28.410156 24.515625 28.964844 25.183594 28.964844 L 39.800781 28.964844 C 39.976562 28.964844 40.117188 28.929688 40.292969 28.863281 C 40.710938 28.6875 41.027344 28.238281 41.027344 27.753906 L 41.027344 27.128906 C 41.027344 26.644531 40.710938 26.195312 40.292969 26.019531 C 40.152344 25.949219 39.976562 25.917969 39.800781 25.917969 L 35.988281 25.917969 L 35.988281 24.945312 L 47.777344 24.945312 C 48.441406 24.945312 49 24.390625 49 23.734375 L 49 1.351562 C 48.964844 1.109375 48.894531 0.867188 48.753906 0.691406 Z M 48.753906 0.691406 "/>
<path style=" stroke:none;fill-rule:nonzero;fill:rgb(24.705882%,41.960784%,63.921569%);fill-opacity:1;" d="M 11.960938 0 L 1.257812 0 C 0.558594 0 0 0.554688 0 1.246094 L 0 27.753906 C 0 28.445312 0.558594 29 1.257812 29 L 11.996094 29 C 12.695312 29 13.253906 28.445312 13.253906 27.753906 L 13.253906 1.246094 C 13.253906 1.074219 13.21875 0.902344 13.152344 0.761719 C 12.941406 0.3125 12.484375 0 11.960938 0 Z M 11.960938 0 "/>
<path style=" stroke:none;fill-rule:nonzero;fill:rgb(100%,100%,100%);fill-opacity:0.929412;" d="M 1.050781 9.078125 L 12.136719 9.078125 L 12.136719 12.023438 L 1.050781 12.023438 Z M 1.050781 9.078125 "/>
<path style=" stroke:none;fill-rule:nonzero;fill:rgb(100%,100%,100%);fill-opacity:0.929412;" d="M 12.171875 4.019531 L 12.171875 1.246094 C 12.171875 1.144531 12.101562 1.074219 11.996094 1.074219 L 1.257812 1.074219 C 1.152344 1.074219 1.085938 1.144531 1.085938 1.246094 L 1.085938 4.019531 Z M 12.171875 4.019531 "/>
<path style=" stroke:none;fill-rule:nonzero;fill:rgb(100%,100%,100%);fill-opacity:0.929412;" d="M 6.679688 19.472656 C 5.839844 19.472656 5.140625 20.164062 5.140625 20.996094 C 5.140625 21.828125 5.839844 22.519531 6.679688 22.519531 C 7.519531 22.519531 8.21875 21.828125 8.21875 20.996094 C 8.21875 20.164062 7.519531 19.472656 6.679688 19.472656 Z M 6.679688 19.472656 "/>
<path style=" stroke:none;fill-rule:nonzero;fill:rgb(100%,100%,100%);fill-opacity:0.929412;" d="M 1.050781 5.058594 L 12.136719 5.058594 L 12.136719 8.003906 L 1.050781 8.003906 Z M 1.050781 5.058594 "/>
<path style=" stroke:none;fill-rule:nonzero;fill:rgb(100%,100%,100%);fill-opacity:0.929412;" d="M 1.050781 13.097656 L 1.050781 27.71875 C 1.050781 27.820312 1.121094 27.890625 1.222656 27.890625 L 11.960938 27.890625 C 12.066406 27.890625 12.136719 27.820312 12.136719 27.71875 L 12.136719 13.097656 Z M 6.679688 23.558594 C 5.246094 23.558594 4.09375 22.417969 4.09375 20.996094 C 4.09375 19.574219 5.246094 18.433594 6.679688 18.433594 C 8.113281 18.433594 9.269531 19.574219 9.269531 20.996094 C 9.269531 22.417969 8.113281 23.558594 6.679688 23.558594 Z M 11.015625 16.597656 L 9.410156 16.597656 L 9.410156 15.800781 L 11.015625 15.800781 Z M 11.015625 14.96875 L 9.410156 14.96875 L 9.410156 14.171875 L 11.015625 14.171875 C 11.015625 14.171875 11.015625 14.96875 11.015625 14.96875 Z M 11.015625 14.96875 "/>
<path style=" stroke:none;fill-rule:nonzero;fill:rgb(100%,100%,100%);fill-opacity:0.25098;" d="M 1.050781 4.019531 L 12.136719 4.019531 L 12.136719 5.058594 L 1.050781 5.058594 Z M 1.050781 4.019531 "/>
<path style=" stroke:none;fill-rule:nonzero;fill:rgb(100%,100%,100%);fill-opacity:0.25098;" d="M 1.050781 8.039062 L 12.136719 8.039062 L 12.136719 9.078125 L 1.050781 9.078125 Z M 1.050781 8.039062 "/>
<path style=" stroke:none;fill-rule:nonzero;fill:rgb(100%,100%,100%);fill-opacity:0.25098;" d="M 1.050781 12.058594 L 12.136719 12.058594 L 12.136719 13.097656 L 1.050781 13.097656 Z M 1.050781 12.058594 "/>
<path style=" stroke:none;fill-rule:nonzero;fill:rgb(100%,100%,100%);fill-opacity:0.501961;" d="M 9.410156 15.800781 L 11.015625 15.800781 L 11.015625 16.597656 L 9.410156 16.597656 Z M 9.410156 15.800781 "/>
<path style=" stroke:none;fill-rule:nonzero;fill:rgb(100%,100%,100%);fill-opacity:0.929412;" d="M 47.742188 1.210938 L 17.136719 1.210938 C 17.066406 1.210938 16.996094 1.28125 16.996094 1.351562 L 16.996094 23.734375 C 16.996094 23.804688 17.066406 23.871094 17.136719 23.871094 L 47.742188 23.871094 C 47.8125 23.871094 47.878906 23.804688 47.878906 23.734375 L 47.878906 1.386719 C 47.914062 1.28125 47.847656 1.210938 47.742188 1.210938 Z M 46.445312 20.441406 L 18.46875 20.441406 L 18.46875 2.632812 L 46.445312 2.632812 Z M 46.445312 20.441406 "/>
<path style=" stroke:none;fill-rule:nonzero;fill:rgb(100%,100%,100%);fill-opacity:0.929412;" d="M 39.800781 27.023438 L 25.183594 27.023438 C 25.113281 27.023438 25.042969 27.09375 25.042969 27.164062 L 25.042969 27.789062 C 25.042969 27.855469 25.113281 27.925781 25.183594 27.925781 L 39.800781 27.925781 C 39.871094 27.925781 39.941406 27.855469 39.941406 27.789062 L 39.941406 27.164062 C 39.941406 27.09375 39.90625 27.023438 39.800781 27.023438 Z M 39.800781 27.023438 "/>
<path style=" stroke:none;fill-rule:nonzero;fill:rgb(100%,100%,100%);fill-opacity:0.101961;" d="M 18.46875 2.632812 L 18.46875 20.441406 L 22.242188 20.441406 L 32.632812 2.632812 Z M 18.46875 2.632812 "/>
<path style=" stroke:none;fill-rule:nonzero;fill:rgb(100%,100%,100%);fill-opacity:0.701961;" d="M 33.890625 25.917969 L 34.90625 25.917969 L 34.90625 24.945312 L 31.023438 24.945312 "/>
<path style=" stroke:none;fill-rule:nonzero;fill:rgb(100%,100%,100%);fill-opacity:0.85098;" d="M 31.023438 24.945312 L 29.972656 24.945312 L 29.972656 25.917969 L 33.855469 25.917969 "/>
</g>
</svg>
