<?xml version="1.0" encoding="UTF-8"?>
<svg xmlns="http://www.w3.org/2000/svg" xmlns:xlink="http://www.w3.org/1999/xlink" width="42pt" height="40pt" viewBox="0 0 42 40" version="1.1">
<g id="surface1">
<path style=" stroke:none;fill-rule:nonzero;fill:rgb(24.705882%,41.960784%,63.921569%);fill-opacity:1;" d="M 40.789062 20.652344 L 34.792969 20.652344 L 34.792969 18.285156 L 40.886719 18.285156 L 40.886719 15.304688 L 34.792969 15.304688 L 34.792969 10.738281 L 16.097656 10.738281 L 32.207031 3.96875 C 32.285156 3.9375 32.355469 3.894531 32.421875 3.851562 C 32.753906 3.621094 32.949219 3.242188 32.953125 2.84375 C 32.953125 2.6875 32.921875 2.523438 32.859375 2.371094 L 32.191406 0.753906 C 32.003906 0.296875 31.566406 0 31.074219 0 C 30.914062 0 30.757812 0.03125 30.609375 0.09375 L 22.839844 3.359375 L 22.027344 1.390625 L 14.074219 4.734375 L 13.101562 7.453125 L 12.703125 7.621094 C 12.40625 7.746094 12.175781 7.980469 12.050781 8.28125 C 11.929688 8.585938 11.929688 8.917969 12.050781 9.21875 L 12.414062 10.097656 C 12.230469 10.277344 12.085938 10.496094 12.003906 10.738281 L 10.566406 10.738281 C 8.738281 10.738281 8.644531 8.835938 8.640625 8.621094 L 8.632812 8.097656 L 5.671875 8.097656 L 5.671875 15.519531 L 1.0625 13.730469 L 0 16.511719 L 5.671875 18.714844 L 5.671875 20.839844 L 1.0625 19.050781 L 0 21.828125 L 5.671875 24.03125 L 5.671875 38.609375 C 5.671875 39.375 6.289062 40 7.050781 40 L 40.789062 40 C 41.378906 40 41.988281 39.542969 41.988281 38.777344 L 42 33.011719 L 42 21.871094 C 42 21.199219 41.457031 20.652344 40.789062 20.652344 Z M 40.789062 20.652344 "/>
<path style=" stroke:none;fill-rule:nonzero;fill:rgb(100%,100%,100%);fill-opacity:0.929412;" d="M 25.652344 29.894531 L 22.382812 29.894531 L 21.828125 28.824219 L 14.035156 28.824219 L 14.042969 34.300781 L 33.742188 34.300781 L 33.742188 28.824219 L 26.195312 28.824219 Z M 25.652344 29.894531 "/>
<path style=" stroke:none;fill-rule:nonzero;fill:rgb(100%,100%,100%);fill-opacity:0.929412;" d="M 26.195312 34.644531 L 25.652344 35.714844 L 22.382812 35.714844 L 21.839844 34.644531 L 14.042969 34.644531 L 14.050781 38.9375 L 33.742188 38.9375 L 33.742188 34.644531 Z M 26.195312 34.644531 "/>
<path style=" stroke:none;fill-rule:nonzero;fill:rgb(100%,100%,100%);fill-opacity:0.74902;" d="M 21.460938 2.78125 L 14.90625 5.535156 L 14.417969 6.898438 L 21.867188 3.769531 Z M 21.460938 2.78125 "/>
<path style=" stroke:none;fill-rule:nonzero;fill:rgb(100%,100%,100%);fill-opacity:0.929412;" d="M 33.742188 15.597656 L 33.742188 11.800781 L 14.042969 11.800781 L 14.042969 11.796875 C 14.03125 11.800781 14.019531 11.800781 14.007812 11.800781 L 14.023438 22.566406 L 33.742188 22.566406 Z M 27.257812 15.597656 C 26.6875 15.597656 26.230469 15.132812 26.230469 14.558594 C 26.230469 13.984375 26.691406 13.519531 27.257812 13.519531 C 27.824219 13.519531 28.285156 13.984375 28.285156 14.558594 C 28.285156 15.132812 27.824219 15.597656 27.257812 15.597656 Z M 30.6875 15.597656 C 30.117188 15.597656 29.65625 15.132812 29.65625 14.558594 C 29.65625 13.984375 30.117188 13.519531 30.6875 13.519531 C 31.253906 13.519531 31.714844 13.984375 31.714844 14.558594 C 31.714844 15.132812 31.253906 15.597656 30.6875 15.597656 Z M 30.6875 15.597656 "/>
<path style=" stroke:none;fill-rule:nonzero;fill:rgb(100%,100%,100%);fill-opacity:0.929412;" d="M 33.742188 28.480469 L 33.742188 22.910156 L 26.308594 22.910156 L 25.769531 23.980469 L 22.5 23.980469 L 21.957031 22.910156 L 14.027344 22.910156 L 14.035156 28.480469 Z M 33.742188 28.480469 "/>
<path style=" stroke:none;fill-rule:nonzero;fill:rgb(100%,100%,100%);fill-opacity:0.501961;" d="M 13.898438 10.515625 L 31.804688 2.988281 C 31.828125 2.976562 31.84375 2.964844 31.855469 2.949219 C 31.871094 2.933594 31.878906 2.917969 31.886719 2.902344 C 31.886719 2.898438 31.886719 2.898438 31.886719 2.898438 C 31.894531 2.882812 31.898438 2.863281 31.898438 2.847656 C 31.898438 2.824219 31.898438 2.800781 31.886719 2.777344 L 31.222656 1.160156 C 31.207031 1.128906 31.183594 1.105469 31.160156 1.089844 C 31.15625 1.089844 31.152344 1.085938 31.148438 1.082031 C 31.125 1.070312 31.101562 1.0625 31.078125 1.0625 C 31.074219 1.0625 31.074219 1.0625 31.070312 1.0625 C 31.050781 1.0625 31.03125 1.066406 31.011719 1.074219 L 13.109375 8.601562 C 13.058594 8.621094 13.035156 8.664062 13.023438 8.6875 C 13.019531 8.699219 13.015625 8.714844 13.011719 8.738281 C 13.011719 8.757812 13.011719 8.785156 13.023438 8.808594 L 13.691406 10.425781 C 13.730469 10.519531 13.828125 10.542969 13.898438 10.515625 Z M 13.898438 10.515625 "/>
<path style=" stroke:none;fill-rule:nonzero;fill:rgb(100%,100%,100%);fill-opacity:0.74902;" d="M 34.792969 16.367188 L 39.835938 16.367188 L 39.835938 17.222656 L 34.792969 17.222656 Z M 34.792969 16.367188 "/>
<path style=" stroke:none;fill-rule:nonzero;fill:rgb(100%,100%,100%);fill-opacity:0.74902;" d="M 1.664062 15.101562 L 1.359375 15.902344 L 5.671875 17.574219 L 5.671875 16.65625 Z M 1.664062 15.101562 "/>
<path style=" stroke:none;fill-rule:nonzero;fill:rgb(100%,100%,100%);fill-opacity:0.8;" d="M 6.722656 25.097656 L 6.722656 38.609375 C 6.722656 38.789062 6.875 38.9375 7.050781 38.9375 L 11.675781 38.9375 L 11.675781 25.097656 Z M 6.722656 25.097656 "/>
<path style=" stroke:none;fill-rule:nonzero;fill:rgb(100%,100%,100%);fill-opacity:0.8;" d="M 13 38.9375 L 12.957031 12.1875 C 12.800781 12.089844 12.675781 11.957031 12.585938 11.800781 L 12.015625 11.800781 L 12.015625 38.9375 Z M 13 38.9375 "/>
<path style=" stroke:none;fill-rule:nonzero;fill:rgb(100%,100%,100%);fill-opacity:0.8;" d="M 11.675781 11.800781 L 10.566406 11.800781 C 8.578125 11.800781 7.824219 10.28125 7.636719 9.160156 L 6.722656 9.160156 L 6.722656 24.753906 L 11.675781 24.753906 Z M 11.675781 11.800781 "/>
<path style=" stroke:none;fill-rule:nonzero;fill:rgb(100%,100%,100%);fill-opacity:0.8;" d="M 35.902344 29.582031 L 35.902344 21.710938 L 34.792969 21.710938 L 34.792969 38.9375 L 40.789062 38.9375 C 40.824219 38.9375 40.933594 38.925781 40.933594 38.777344 L 40.949219 33.007812 L 40.949219 21.871094 C 40.949219 21.785156 40.875 21.710938 40.789062 21.710938 L 39.796875 21.710938 L 39.796875 29.582031 Z M 35.902344 29.582031 "/>
<path style=" stroke:none;fill-rule:nonzero;fill:rgb(100%,100%,100%);fill-opacity:0.25098;" d="M 39.457031 29.234375 L 36.246094 29.234375 L 36.246094 21.710938 L 35.902344 21.710938 L 35.902344 29.582031 L 39.796875 29.582031 L 39.796875 21.710938 L 39.457031 21.710938 Z M 39.457031 29.234375 "/>
<path style=" stroke:none;fill-rule:nonzero;fill:rgb(100%,100%,100%);fill-opacity:0.8;" d="M 36.246094 21.710938 L 39.457031 21.710938 L 39.457031 29.234375 L 36.246094 29.234375 Z M 36.246094 21.710938 "/>
<path style=" stroke:none;fill-rule:nonzero;fill:rgb(100%,100%,100%);fill-opacity:0.74902;" d="M 1.664062 20.421875 L 1.359375 21.21875 L 5.671875 22.894531 L 5.671875 21.976562 Z M 1.664062 20.421875 "/>
<path style=" stroke:none;fill-rule:nonzero;fill:rgb(100%,100%,100%);fill-opacity:0.25098;" d="M 11.675781 11.796875 L 11.675781 24.75 L 6.722656 24.75 L 6.722656 25.097656 L 11.675781 25.097656 L 11.675781 38.9375 L 12.015625 38.9375 L 12.015625 11.796875 Z M 11.675781 11.796875 "/>
<path style=" stroke:none;fill-rule:nonzero;fill:rgb(100%,100%,100%);fill-opacity:0.501961;" d="M 28.285156 14.558594 C 28.285156 13.984375 27.824219 13.519531 27.257812 13.519531 C 26.691406 13.519531 26.230469 13.984375 26.230469 14.558594 C 26.226562 15.132812 26.6875 15.597656 27.257812 15.597656 C 27.824219 15.597656 28.285156 15.132812 28.285156 14.558594 Z M 28.285156 14.558594 "/>
<path style=" stroke:none;fill-rule:nonzero;fill:rgb(100%,100%,100%);fill-opacity:0.501961;" d="M 24.0625 22.910156 L 23.617188 23.980469 L 22.5 23.980469 L 21.957031 22.910156 "/>
<path style=" stroke:none;fill-rule:nonzero;fill:rgb(100%,100%,100%);fill-opacity:0.501961;" d="M 23.945312 28.824219 L 23.5 29.894531 L 22.382812 29.894531 L 21.828125 28.824219 "/>
<path style=" stroke:none;fill-rule:nonzero;fill:rgb(100%,100%,100%);fill-opacity:0.501961;" d="M 23.945312 34.644531 L 23.5 35.714844 L 24.019531 35.714844 L 22.382812 35.714844 L 21.839844 34.644531 "/>
<path style=" stroke:none;fill-rule:nonzero;fill:rgb(100%,100%,100%);fill-opacity:0.25098;" d="M 14.007812 28.824219 L 23.945312 28.824219 L 23.5 29.894531 L 25.652344 29.894531 L 26.195312 28.824219 L 33.742188 28.824219 L 33.742188 28.480469 L 14.007812 28.480469 Z M 14.007812 28.824219 "/>
<path style=" stroke:none;fill-rule:nonzero;fill:rgb(100%,100%,100%);fill-opacity:0.25098;" d="M 14.007812 34.644531 L 23.945312 34.644531 L 23.5 35.714844 L 25.652344 35.714844 L 26.195312 34.644531 L 33.742188 34.644531 L 33.742188 34.300781 L 14.007812 34.300781 Z M 14.007812 34.644531 "/>
<path style=" stroke:none;fill-rule:nonzero;fill:rgb(100%,100%,100%);fill-opacity:0.25098;" d="M 14.007812 22.566406 L 14.007812 22.910156 L 24.0625 22.910156 L 23.617188 23.980469 L 25.769531 23.980469 L 26.308594 22.910156 L 33.742188 22.910156 L 33.742188 22.566406 Z M 14.007812 22.566406 "/>
</g>
</svg>
