<?xml version="1.0" encoding="UTF-8"?>
<svg xmlns="http://www.w3.org/2000/svg" xmlns:xlink="http://www.w3.org/1999/xlink" width="25pt" height="35pt" viewBox="0 0 25 35" version="1.1">
<g id="surface1">
<path style=" stroke:none;fill-rule:nonzero;fill:rgb(24.705882%,41.960784%,63.921569%);fill-opacity:1;" d="M 24.9375 11.230469 L 25 11.113281 L 25 3.429688 C 25 3.296875 24.976562 3.167969 24.933594 3.042969 C 24.207031 0.820312 17.257812 0 12.5 0 C 9.261719 0 6.210938 0.308594 3.910156 0.863281 C 1.640625 1.414062 0.347656 2.144531 0.0625 3.039062 C 0.0195312 3.167969 0 3.296875 0 3.429688 L 0 11.117188 L 0.0625 11.234375 C 0.1875 11.472656 0.5 11.714844 0.976562 11.949219 C 0.519531 12.25 0.226562 12.578125 0.0898438 12.933594 C 0.03125 13.082031 0 13.238281 0 13.394531 L 0 21.347656 L 0.0625 21.464844 C 0.1875 21.703125 0.503906 21.945312 0.980469 22.183594 C 0.449219 22.53125 0.136719 22.914062 0.0390625 23.335938 C 0.015625 23.433594 0 23.527344 0 23.628906 L 0 31.570312 C 0 32.644531 1.316406 33.503906 3.910156 34.136719 C 6.210938 34.691406 9.261719 35 12.5 35 C 15.738281 35 18.785156 34.691406 21.085938 34.136719 C 23.683594 33.507812 25 32.644531 25 31.570312 L 25 23.628906 C 25 23.527344 24.984375 23.429688 24.960938 23.335938 C 24.863281 22.914062 24.550781 22.53125 24.019531 22.179688 C 24.496094 21.945312 24.8125 21.703125 24.9375 21.460938 L 25 21.347656 L 25 13.394531 C 25 13.238281 24.96875 13.082031 24.910156 12.933594 C 24.773438 12.578125 24.476562 12.25 24.019531 11.949219 C 24.496094 11.714844 24.8125 11.46875 24.9375 11.230469 Z M 24.9375 11.230469 "/>
<path style=" stroke:none;fill-rule:nonzero;fill:rgb(100%,100%,100%);fill-opacity:0.929412;" d="M 3.234375 25.652344 C 2.390625 25.460938 1.671875 25.25 1.070312 25.011719 L 1.070312 31.570312 C 1.070312 32.375 5.105469 33.941406 12.5 33.941406 C 19.894531 33.941406 23.929688 32.375 23.929688 31.570312 L 23.929688 25.011719 C 23.328125 25.25 22.609375 25.460938 21.765625 25.652344 C 19.277344 26.222656 15.984375 26.535156 12.5 26.535156 C 9.015625 26.535156 5.722656 26.222656 3.234375 25.652344 Z M 3.234375 25.652344 "/>
<path style=" stroke:none;fill-rule:nonzero;fill:rgb(100%,100%,100%);fill-opacity:0.929412;" d="M 2.3125 22.6875 C 1.492188 23.027344 1.070312 23.367188 1.070312 23.628906 C 1.589844 24.0625 3.921875 24.847656 7.933594 25.210938 C 8.269531 25.242188 8.613281 25.269531 8.972656 25.292969 C 9.6875 25.34375 10.449219 25.378906 11.253906 25.394531 C 11.660156 25.402344 12.074219 25.410156 12.5 25.410156 C 19.324219 25.410156 23.242188 24.207031 23.929688 23.628906 C 23.929688 23.367188 23.507812 23.027344 22.6875 22.6875 C 20.5 23.355469 16.902344 23.863281 12.5 23.863281 C 8.097656 23.863281 4.5 23.355469 2.3125 22.6875 Z M 2.3125 22.6875 "/>
<path style=" stroke:none;fill-rule:nonzero;fill:rgb(100%,100%,100%);fill-opacity:0.929412;" d="M 2.308594 12.457031 C 1.492188 12.796875 1.070312 13.136719 1.070312 13.394531 C 1.070312 13.398438 1.070312 13.398438 1.070312 13.398438 C 1.101562 13.425781 1.148438 13.457031 1.195312 13.484375 C 1.796875 13.746094 2.558594 13.980469 3.476562 14.191406 C 5.886719 14.742188 9.09375 15.046875 12.5 15.046875 C 15.90625 15.046875 19.113281 14.742188 21.523438 14.191406 C 22.4375 13.984375 23.199219 13.746094 23.796875 13.488281 C 23.847656 13.457031 23.894531 13.425781 23.929688 13.398438 L 23.929688 13.394531 C 23.929688 13.136719 23.507812 12.796875 22.691406 12.457031 C 20.5 13.125 16.902344 13.632812 12.5 13.632812 C 8.09375 13.632812 4.496094 13.125 2.308594 12.457031 Z M 2.308594 12.457031 "/>
<path style=" stroke:none;fill-rule:nonzero;fill:rgb(100%,100%,100%);fill-opacity:0.929412;" d="M 23.929688 3.429688 C 23.929688 2.625 19.894531 1.058594 12.5 1.058594 C 11.574219 1.058594 10.703125 1.085938 9.886719 1.128906 C 9.476562 1.152344 9.082031 1.179688 8.699219 1.210938 C 8.507812 1.226562 8.320312 1.242188 8.136719 1.261719 C 3.53125 1.707031 1.070312 2.800781 1.070312 3.429688 C 1.070312 3.429688 1.070312 3.433594 1.070312 3.433594 C 1.324219 3.644531 2.015625 3.9375 3.117188 4.226562 C 3.234375 4.257812 3.351562 4.285156 3.472656 4.3125 C 5.886719 4.863281 9.09375 5.167969 12.5 5.167969 C 15.90625 5.167969 19.113281 4.863281 21.523438 4.3125 C 21.648438 4.285156 21.765625 4.257812 21.882812 4.226562 C 22.988281 3.9375 23.675781 3.644531 23.929688 3.429688 Z M 12.5 4.089844 C 8.851562 4.089844 5.898438 3.636719 5.898438 3.078125 C 5.898438 2.515625 8.851562 2.0625 12.5 2.0625 C 16.148438 2.0625 19.101562 2.515625 19.101562 3.078125 C 19.101562 3.636719 16.144531 4.089844 12.5 4.089844 Z M 12.5 4.089844 "/>
<path style=" stroke:none;fill-rule:nonzero;fill:rgb(100%,100%,100%);fill-opacity:0.701961;" d="M 12.5 2.0625 C 16.148438 2.0625 19.101562 2.515625 19.101562 3.078125 C 19.101562 3.636719 16.148438 4.089844 12.5 4.089844 C 8.851562 4.089844 5.898438 3.636719 5.898438 3.078125 C 5.898438 2.515625 8.851562 2.0625 12.5 2.0625 Z M 12.5 2.0625 "/>
<path style=" stroke:none;fill-rule:nonzero;fill:rgb(100%,100%,100%);fill-opacity:0.929412;" d="M 22.257812 5.226562 C 20.035156 5.828125 16.601562 6.269531 12.5 6.269531 C 8.394531 6.269531 4.953125 5.824219 2.730469 5.222656 C 2.101562 5.0625 1.546875 4.890625 1.070312 4.703125 L 1.070312 10.804688 C 1.234375 10.945312 1.632812 11.132812 2.238281 11.335938 C 2.753906 11.503906 3.429688 11.683594 4.253906 11.851562 C 6.1875 12.242188 8.953125 12.574219 12.5 12.574219 C 16.042969 12.574219 18.804688 12.242188 20.742188 11.847656 C 21.566406 11.679688 22.238281 11.503906 22.753906 11.332031 C 23.359375 11.132812 23.757812 10.941406 23.929688 10.796875 L 23.929688 4.703125 C 23.449219 4.894531 22.890625 5.066406 22.257812 5.226562 Z M 22.257812 5.226562 "/>
<path style=" stroke:none;fill-rule:nonzero;fill:rgb(100%,100%,100%);fill-opacity:0.929412;" d="M 12.5 16.238281 C 7.15625 16.238281 2.9375 15.480469 1.070312 14.609375 L 1.070312 21.035156 C 1.234375 21.175781 1.632812 21.367188 2.238281 21.566406 C 2.757812 21.734375 3.433594 21.914062 4.253906 22.082031 C 6.191406 22.472656 8.957031 22.804688 12.5 22.804688 C 16.042969 22.804688 18.800781 22.472656 20.738281 22.078125 C 21.5625 21.914062 22.238281 21.734375 22.753906 21.5625 C 23.359375 21.363281 23.757812 21.171875 23.929688 21.027344 L 23.929688 14.609375 C 22.0625 15.480469 17.847656 16.238281 12.5 16.238281 Z M 12.5 16.238281 "/>
</g>
</svg>
