<?xml version="1.0" encoding="UTF-8"?>
<svg xmlns="http://www.w3.org/2000/svg" xmlns:xlink="http://www.w3.org/1999/xlink" width="37pt" height="24pt" viewBox="0 0 37 24" version="1.1">
<g id="surface1">
<path style=" stroke:none;fill-rule:nonzero;fill:rgb(24.705882%,41.960784%,63.921569%);fill-opacity:1;" d="M 37 7.578125 L 37 7.5625 C 37 6.59375 36.21875 5.808594 35.253906 5.808594 L 35.0625 5.808594 C 34.601562 4.824219 33.441406 4.144531 32.042969 4.144531 C 31.445312 4.144531 30.890625 4.269531 30.414062 4.492188 L 30.414062 3.238281 L 27.753906 3.238281 L 27.753906 0 L 4.382812 0 L 4.382812 3.238281 L 1.722656 3.238281 L 1.722656 5.804688 C 0.769531 5.816406 0 6.601562 0 7.5625 L 0 18.695312 C 0 19.664062 0.78125 20.449219 1.746094 20.449219 L 4.382812 20.449219 L 4.378906 22.898438 L 4.378906 24 L 27.746094 24 L 27.746094 23.984375 L 27.75 23.984375 L 27.75 22.890625 L 27.753906 20.449219 L 35.253906 20.449219 C 36.21875 20.449219 37 19.664062 37 18.695312 Z M 37 7.578125 "/>
<path style=" stroke:none;fill-rule:nonzero;fill:rgb(100%,100%,100%);fill-opacity:0.85098;" d="M 32.046875 5.21875 C 30.839844 5.21875 29.863281 5.917969 29.863281 6.773438 C 29.863281 6.8125 29.867188 6.847656 29.871094 6.882812 L 29.859375 6.882812 L 30.179688 15.386719 C 30.179688 15.492188 30.195312 15.589844 30.210938 15.6875 C 30.226562 15.777344 30.253906 15.863281 30.28125 15.945312 C 30.289062 15.964844 30.296875 15.988281 30.300781 16.007812 C 30.332031 16.078125 30.367188 16.148438 30.40625 16.21875 C 30.421875 16.246094 30.4375 16.273438 30.453125 16.300781 C 30.488281 16.359375 30.53125 16.417969 30.578125 16.472656 C 30.601562 16.503906 30.628906 16.535156 30.65625 16.5625 C 30.699219 16.609375 30.746094 16.65625 30.796875 16.699219 C 30.832031 16.730469 30.871094 16.757812 30.910156 16.789062 C 30.960938 16.824219 31.007812 16.855469 31.054688 16.886719 C 31.105469 16.917969 31.160156 16.941406 31.214844 16.96875 C 31.261719 16.992188 31.304688 17.015625 31.355469 17.03125 C 31.421875 17.058594 31.492188 17.078125 31.566406 17.09375 C 31.605469 17.105469 31.644531 17.121094 31.683594 17.128906 C 31.800781 17.148438 31.917969 17.160156 32.039062 17.160156 L 32.042969 17.160156 C 32.386719 17.160156 32.703125 17.066406 32.980469 16.910156 C 33.117188 16.835938 33.246094 16.746094 33.359375 16.640625 C 33.441406 16.5625 33.519531 16.472656 33.585938 16.378906 C 33.785156 16.097656 33.902344 15.753906 33.902344 15.386719 L 34.011719 12.441406 L 34.128906 9.316406 C 34.128906 9.316406 34.128906 9.316406 34.128906 9.3125 L 34.128906 9.316406 C 34.128906 9.3125 34.128906 9.3125 34.128906 9.3125 C 34.132812 9.316406 34.132812 9.316406 34.132812 9.316406 C 34.160156 9.316406 34.210938 6.8125 34.21875 6.8125 C 34.21875 6.8125 34.21875 6.8125 34.21875 6.816406 C 34.21875 6.800781 34.222656 6.785156 34.222656 6.769531 C 34.222656 6.503906 34.128906 6.253906 33.960938 6.03125 C 33.59375 5.546875 32.871094 5.21875 32.046875 5.21875 Z M 32.046875 5.21875 "/>
<path style=" stroke:none;fill-rule:nonzero;fill:rgb(100%,100%,100%);fill-opacity:0.929412;" d="M 35.265625 7.027344 C 35.265625 7.027344 35.265625 7.03125 35.265625 7.035156 L 35.261719 7.035156 C 35.261719 7.109375 35.253906 7.328125 35.246094 7.605469 C 35.238281 7.976562 35.226562 8.449219 35.210938 8.828125 C 35.207031 9.023438 35.199219 9.195312 35.195312 9.320312 C 35.191406 9.382812 35.1875 9.441406 35.179688 9.496094 L 35.179688 9.5 L 35.175781 9.519531 L 35.058594 12.625 L 34.949219 15.550781 C 34.945312 16.121094 34.769531 16.667969 34.4375 17.132812 C 34.332031 17.28125 34.210938 17.421875 34.078125 17.550781 C 33.914062 17.707031 33.722656 17.84375 33.492188 17.972656 C 33.042969 18.226562 32.542969 18.359375 32.039062 18.359375 C 31.863281 18.359375 31.683594 18.339844 31.492188 18.304688 C 31.433594 18.296875 31.375 18.28125 31.308594 18.261719 C 31.230469 18.238281 31.113281 18.210938 30.984375 18.160156 C 30.917969 18.136719 30.851562 18.105469 30.789062 18.074219 L 30.765625 18.066406 C 30.691406 18.027344 30.609375 17.988281 30.519531 17.933594 C 30.429688 17.882812 30.355469 17.828125 30.296875 17.78125 C 30.234375 17.738281 30.171875 17.691406 30.109375 17.636719 C 30.035156 17.570312 29.960938 17.5 29.894531 17.429688 C 29.851562 17.382812 29.808594 17.332031 29.765625 17.28125 C 29.6875 17.183594 29.625 17.097656 29.570312 17.007812 C 29.546875 16.972656 29.523438 16.929688 29.492188 16.875 C 29.445312 16.789062 29.382812 16.671875 29.328125 16.535156 C 29.316406 16.5 29.300781 16.464844 29.292969 16.425781 C 29.253906 16.320312 29.210938 16.183594 29.183594 16.019531 C 29.160156 15.898438 29.136719 15.738281 29.132812 15.554688 L 28.8125 7.058594 L 28.8125 7.039062 L 2.296875 7.039062 L 2.296875 7.027344 L 1.746094 7.027344 C 1.359375 7.027344 1.046875 7.34375 1.046875 7.726562 L 1.046875 18.84375 C 1.046875 19.230469 1.359375 19.546875 1.746094 19.546875 L 5.425781 19.546875 L 5.425781 18.316406 L 4.492188 18.316406 L 4.492188 17.261719 L 27.765625 17.261719 L 27.765625 18.316406 L 26.730469 18.316406 L 26.730469 19.546875 L 35.253906 19.546875 C 35.640625 19.546875 35.953125 19.230469 35.953125 18.84375 L 35.953125 7.726562 C 35.953125 7.34375 35.644531 7.03125 35.265625 7.027344 Z M 8.773438 13.78125 L 6.632812 13.78125 L 6.632812 12.828125 L 8.773438 12.828125 Z M 12.039062 13.78125 L 9.898438 13.78125 L 9.898438 12.828125 L 12.039062 12.828125 Z M 15.53125 13.78125 L 13.390625 13.78125 L 13.390625 12.828125 L 15.53125 12.828125 Z M 15.53125 11.730469 L 6.632812 11.730469 L 6.632812 8.722656 L 15.53125 8.722656 Z M 18.960938 15.835938 L 16.824219 15.835938 L 16.824219 14.878906 L 18.960938 14.878906 Z M 18.960938 13.78125 L 16.824219 13.78125 L 16.824219 12.828125 L 18.960938 12.828125 Z M 18.960938 11.730469 L 16.824219 11.730469 L 16.824219 10.773438 L 18.960938 10.773438 Z M 18.960938 9.679688 L 16.824219 9.679688 L 16.824219 8.722656 L 18.960938 8.722656 Z M 22.28125 15.816406 L 20.140625 15.816406 L 20.140625 14.863281 L 22.28125 14.863281 Z M 22.28125 13.78125 L 20.140625 13.78125 L 20.140625 12.828125 L 22.28125 12.828125 Z M 22.28125 11.730469 L 20.140625 11.730469 L 20.140625 10.773438 L 22.28125 10.773438 Z M 22.292969 9.679688 L 20.152344 9.679688 L 20.152344 8.722656 L 22.292969 8.722656 Z M 25.613281 15.816406 L 23.472656 15.816406 L 23.472656 14.863281 L 25.613281 14.863281 Z M 25.613281 13.78125 L 23.472656 13.78125 L 23.472656 12.828125 L 25.613281 12.828125 Z M 25.625 11.730469 L 23.484375 11.730469 L 23.484375 10.773438 L 25.625 10.773438 Z M 25.625 9.679688 L 23.484375 9.679688 L 23.484375 8.722656 L 25.625 8.722656 Z M 25.625 9.679688 "/>
<path style=" stroke:none;fill-rule:nonzero;fill:rgb(100%,100%,100%);fill-opacity:0.929412;" d="M 2.773438 4.453125 L 5.425781 4.453125 L 5.425781 5.984375 L 2.773438 5.984375 Z M 2.773438 4.453125 "/>
<path style=" stroke:none;fill-rule:nonzero;fill:rgb(100%,100%,100%);fill-opacity:0.929412;" d="M 26.707031 4.453125 L 29.367188 4.453125 L 29.367188 5.984375 L 26.707031 5.984375 Z M 26.707031 4.453125 "/>
<path style=" stroke:none;fill-rule:nonzero;fill:rgb(100%,100%,100%);fill-opacity:0.74902;" d="M 20.160156 8.722656 L 22.300781 8.722656 L 22.300781 9.679688 L 20.160156 9.679688 Z M 20.160156 8.722656 "/>
<path style=" stroke:none;fill-rule:nonzero;fill:rgb(100%,100%,100%);fill-opacity:0.74902;" d="M 23.492188 8.722656 L 25.632812 8.722656 L 25.632812 9.679688 L 23.492188 9.679688 Z M 23.492188 8.722656 "/>
<path style=" stroke:none;fill-rule:nonzero;fill:rgb(100%,100%,100%);fill-opacity:0.74902;" d="M 16.828125 8.722656 L 18.96875 8.722656 L 18.96875 9.679688 L 16.828125 9.679688 Z M 16.828125 8.722656 "/>
<path style=" stroke:none;fill-rule:nonzero;fill:rgb(100%,100%,100%);fill-opacity:0.74902;" d="M 20.148438 10.777344 L 22.289062 10.777344 L 22.289062 11.730469 L 20.148438 11.730469 Z M 20.148438 10.777344 "/>
<path style=" stroke:none;fill-rule:nonzero;fill:rgb(100%,100%,100%);fill-opacity:0.74902;" d="M 23.492188 10.777344 L 25.632812 10.777344 L 25.632812 11.730469 L 23.492188 11.730469 Z M 23.492188 10.777344 "/>
<path style=" stroke:none;fill-rule:nonzero;fill:rgb(100%,100%,100%);fill-opacity:0.74902;" d="M 16.828125 10.777344 L 18.96875 10.777344 L 18.96875 11.730469 L 16.828125 11.730469 Z M 16.828125 10.777344 "/>
<path style=" stroke:none;fill-rule:nonzero;fill:rgb(100%,100%,100%);fill-opacity:0.74902;" d="M 20.148438 12.828125 L 22.289062 12.828125 L 22.289062 13.785156 L 20.148438 13.785156 Z M 20.148438 12.828125 "/>
<path style=" stroke:none;fill-rule:nonzero;fill:rgb(100%,100%,100%);fill-opacity:0.74902;" d="M 23.480469 12.828125 L 25.617188 12.828125 L 25.617188 13.785156 L 23.480469 13.785156 Z M 23.480469 12.828125 "/>
<path style=" stroke:none;fill-rule:nonzero;fill:rgb(100%,100%,100%);fill-opacity:0.74902;" d="M 16.828125 12.828125 L 18.96875 12.828125 L 18.96875 13.785156 L 16.828125 13.785156 Z M 16.828125 12.828125 "/>
<path style=" stroke:none;fill-rule:nonzero;fill:rgb(100%,100%,100%);fill-opacity:0.74902;" d="M 20.148438 14.863281 L 22.289062 14.863281 L 22.289062 15.816406 L 20.148438 15.816406 Z M 20.148438 14.863281 "/>
<path style=" stroke:none;fill-rule:nonzero;fill:rgb(100%,100%,100%);fill-opacity:0.74902;" d="M 23.480469 14.863281 L 25.617188 14.863281 L 25.617188 15.816406 L 23.480469 15.816406 Z M 23.480469 14.863281 "/>
<path style=" stroke:none;fill-rule:nonzero;fill:rgb(100%,100%,100%);fill-opacity:0.74902;" d="M 16.828125 14.878906 L 18.96875 14.878906 L 18.96875 15.835938 L 16.828125 15.835938 Z M 16.828125 14.878906 "/>
<path style=" stroke:none;fill-rule:nonzero;fill:rgb(100%,100%,100%);fill-opacity:0.74902;" d="M 13.394531 12.828125 L 15.535156 12.828125 L 15.535156 13.785156 L 13.394531 13.785156 Z M 13.394531 12.828125 "/>
<path style=" stroke:none;fill-rule:nonzero;fill:rgb(100%,100%,100%);fill-opacity:0.74902;" d="M 6.640625 8.722656 L 15.535156 8.722656 L 15.535156 11.730469 L 6.640625 11.730469 Z M 6.640625 8.722656 "/>
<path style=" stroke:none;fill-rule:nonzero;fill:rgb(100%,100%,100%);fill-opacity:0.74902;" d="M 9.90625 12.828125 L 12.042969 12.828125 L 12.042969 13.785156 L 9.90625 13.785156 Z M 9.90625 12.828125 "/>
<path style=" stroke:none;fill-rule:nonzero;fill:rgb(100%,100%,100%);fill-opacity:0.74902;" d="M 6.640625 12.828125 L 8.777344 12.828125 L 8.777344 13.785156 L 6.640625 13.785156 Z M 6.640625 12.828125 "/>
<path style=" stroke:none;fill-rule:nonzero;fill:rgb(100%,100%,100%);fill-opacity:0.25098;" d="M 27.765625 18.316406 L 26.730469 18.316406 L 26.726562 17.792969 L 5.425781 17.792969 L 5.429688 18.316406 L 4.496094 18.316406 L 4.496094 17.265625 L 27.765625 17.265625 Z M 27.765625 18.316406 "/>
<path style=" stroke:none;fill-rule:nonzero;fill:rgb(100%,100%,100%);fill-opacity:0.85098;" d="M 5.421875 17.792969 L 5.421875 23.082031 L 26.730469 23.082031 L 26.730469 17.792969 Z M 24.910156 21.390625 L 7.242188 21.390625 L 7.242188 21.039062 L 24.910156 21.039062 Z M 24.910156 19.597656 L 7.242188 19.597656 L 7.242188 19.246094 L 24.910156 19.246094 Z M 24.910156 19.597656 "/>
<path style=" stroke:none;fill-rule:nonzero;fill:rgb(100%,100%,100%);fill-opacity:0.74902;" d="M 5.425781 1.136719 L 5.425781 5.984375 L 26.703125 5.984375 L 26.703125 1.136719 Z M 7.242188 2.589844 L 19.902344 2.589844 L 19.902344 2.941406 L 7.242188 2.941406 Z M 24.882812 4.734375 L 7.242188 4.734375 L 7.242188 4.382812 L 24.882812 4.382812 Z M 24.882812 4.734375 "/>
</g>
</svg>
