<?xml version="1.0" encoding="UTF-8"?>
<svg xmlns="http://www.w3.org/2000/svg" xmlns:xlink="http://www.w3.org/1999/xlink" width="22pt" height="29pt" viewBox="0 0 22 29" version="1.1">
<g id="surface1">
<path style=" stroke:none;fill-rule:nonzero;fill:rgb(24.705882%,41.960784%,63.921569%);fill-opacity:1;" d="M 21.992188 25.667969 C 21.976562 20.832031 19.535156 17.5 15.28125 16.21875 C 16.394531 15.585938 17.371094 14.707031 18.125 13.617188 L 20.566406 13.046875 C 20.707031 13.015625 20.828125 12.925781 20.902344 12.800781 C 20.976562 12.675781 20.996094 12.527344 20.957031 12.386719 L 19.203125 5.867188 C 19.199219 5.855469 19.199219 5.84375 19.195312 5.832031 C 17.996094 2.34375 14.734375 0 11.070312 0 C 7.121094 0 3.695312 2.695312 2.734375 6.546875 L 1.210938 12.390625 C 1.144531 12.648438 1.277344 12.917969 1.523438 13.023438 L 4.511719 14.265625 C 5.175781 15.058594 5.964844 15.710938 6.835938 16.207031 C 2.554688 17.488281 0.0234375 20.875 0.0078125 25.667969 C -0.015625 25.859375 -0.015625 26.28125 0.355469 26.761719 C 1.488281 28.246094 5.070312 29 11 29 C 16.929688 29 20.511719 28.246094 21.648438 26.761719 C 22.015625 26.28125 22.015625 25.859375 21.992188 25.667969 Z M 21.992188 25.667969 "/>
<path style=" stroke:none;fill-rule:nonzero;fill:rgb(100%,100%,100%);fill-opacity:0.929412;" d="M 18.1875 6.164062 C 17.132812 3.117188 14.277344 1.070312 11.070312 1.070312 C 7.609375 1.070312 4.605469 3.433594 3.765625 6.816406 L 2.355469 12.210938 L 5.039062 13.328125 C 5.117188 13.359375 5.191406 13.414062 5.246094 13.480469 C 6.128906 14.566406 7.269531 15.367188 8.542969 15.820312 C 9.34375 16.109375 10.195312 16.261719 11.070312 16.261719 C 11.9375 16.261719 12.777344 16.109375 13.566406 15.832031 C 15.097656 15.289062 16.4375 14.257812 17.359375 12.847656 C 17.4375 12.734375 17.550781 12.652344 17.683594 12.621094 L 19.792969 12.132812 Z M 18.1875 6.164062 "/>
<path style=" stroke:none;fill-rule:nonzero;fill:rgb(100%,100%,100%);fill-opacity:0.929412;" d="M 1.070312 25.714844 L 1.0625 25.835938 C 1.070312 25.890625 1.105469 26.019531 1.265625 26.195312 C 1.75 26.71875 3.664062 27.929688 11 27.929688 C 18.335938 27.929688 20.25 26.71875 20.734375 26.195312 C 20.902344 26.011719 20.933594 25.878906 20.9375 25.828125 L 20.898438 25.742188 L 20.929688 25.714844 C 20.929688 20.851562 18.316406 17.753906 13.664062 16.929688 C 12.839844 17.191406 11.964844 17.332031 11.070312 17.332031 C 10.167969 17.332031 9.289062 17.1875 8.453125 16.917969 C 3.78125 17.738281 1.070312 20.894531 1.070312 25.714844 Z M 1.070312 25.714844 "/>
</g>
</svg>
