<?xml version="1.0" encoding="UTF-8"?>
<svg xmlns="http://www.w3.org/2000/svg" xmlns:xlink="http://www.w3.org/1999/xlink" width="36pt" height="36pt" viewBox="0 0 36 36" version="1.1">
<g id="surface1">
<path style=" stroke:none;fill-rule:nonzero;fill:rgb(24.705882%,41.960784%,63.921569%);fill-opacity:1;" d="M 36 10.3125 L 36 1.222656 C 36 0.546875 35.445312 0 34.765625 0 L 28.78125 0 C 28.191406 0 27.699219 0.414062 27.578125 0.960938 L 26.9375 0.960938 C 26.816406 0.414062 26.320312 0 25.730469 0 L 10.269531 0 C 9.679688 0 9.1875 0.414062 9.0625 0.960938 L 8.425781 0.960938 C 8.300781 0.414062 7.808594 0 7.21875 0 L 1.234375 0 C 0.554688 0 0 0.546875 0 1.222656 L 0 10.3125 C 0 10.789062 0.277344 11.203125 0.683594 11.40625 L 0.683594 12.363281 C 0.277344 12.5625 0 12.976562 0 13.457031 L 0 22.542969 C 0 23.023438 0.277344 23.4375 0.683594 23.636719 L 0.683594 24.59375 C 0.277344 24.792969 0 25.210938 0 25.6875 L 0 34.777344 C 0 35.453125 0.554688 36 1.234375 36 L 7.21875 36 C 7.808594 36 8.300781 35.585938 8.425781 35.039062 L 9.0625 35.039062 C 9.1875 35.585938 9.679688 36 10.269531 36 L 25.730469 36 C 26.320312 36 26.816406 35.585938 26.9375 35.039062 L 27.574219 35.039062 C 27.699219 35.585938 28.191406 36 28.78125 36 L 34.765625 36 C 35.445312 36 36 35.453125 36 34.777344 L 36 25.6875 C 36 25.210938 35.722656 24.792969 35.316406 24.59375 L 35.316406 23.636719 C 35.722656 23.4375 36 23.023438 36 22.542969 L 36 13.457031 C 36 12.976562 35.722656 12.5625 35.316406 12.363281 L 35.316406 11.40625 C 35.722656 11.203125 36 10.789062 36 10.3125 Z M 36 10.3125 "/>
<path style=" stroke:none;fill-rule:nonzero;fill:rgb(100%,100%,100%);fill-opacity:0.929412;" d="M 34.773438 10.484375 C 34.871094 10.480469 34.953125 10.402344 34.953125 10.3125 L 34.953125 1.222656 C 34.953125 1.128906 34.867188 1.046875 34.765625 1.046875 L 28.785156 1.046875 C 28.679688 1.046875 28.597656 1.128906 28.597656 1.222656 L 28.597656 2.007812 L 25.917969 2.007812 L 25.917969 1.222656 C 25.917969 1.128906 25.832031 1.046875 25.730469 1.046875 L 10.269531 1.046875 C 10.167969 1.046875 10.085938 1.128906 10.085938 1.222656 L 10.085938 2.007812 L 7.40625 2.007812 L 7.40625 1.222656 C 7.40625 1.128906 7.320312 1.046875 7.21875 1.046875 L 1.234375 1.046875 C 1.132812 1.046875 1.046875 1.128906 1.046875 1.222656 L 1.046875 10.3125 C 1.046875 10.402344 1.128906 10.480469 1.226562 10.484375 L 1.730469 10.503906 L 1.730469 13.265625 L 1.226562 13.285156 C 1.128906 13.289062 1.046875 13.363281 1.046875 13.457031 L 1.046875 22.542969 C 1.046875 22.636719 1.128906 22.710938 1.226562 22.714844 L 1.730469 22.734375 L 1.730469 25.496094 L 1.226562 25.515625 C 1.128906 25.519531 1.046875 25.597656 1.046875 25.6875 L 1.046875 34.777344 C 1.046875 34.871094 1.132812 34.953125 1.234375 34.953125 L 7.21875 34.953125 C 7.320312 34.953125 7.402344 34.871094 7.402344 34.777344 L 7.402344 33.992188 L 10.082031 33.992188 L 10.082031 34.777344 C 10.082031 34.871094 10.167969 34.953125 10.269531 34.953125 L 25.730469 34.953125 C 25.832031 34.953125 25.914062 34.871094 25.914062 34.777344 L 25.914062 33.992188 L 28.597656 33.992188 L 28.597656 34.777344 C 28.597656 34.871094 28.679688 34.953125 28.78125 34.953125 L 34.765625 34.953125 C 34.867188 34.953125 34.949219 34.871094 34.949219 34.777344 L 34.949219 25.6875 C 34.949219 25.597656 34.871094 25.519531 34.769531 25.515625 L 34.265625 25.496094 L 34.265625 22.734375 L 34.769531 22.714844 C 34.871094 22.710938 34.949219 22.636719 34.949219 22.542969 L 34.949219 13.457031 C 34.949219 13.363281 34.871094 13.289062 34.769531 13.285156 L 34.265625 13.265625 L 34.265625 10.503906 Z M 25.90625 30.566406 C 25.175781 30.566406 24.484375 30.386719 23.863281 30.074219 C 22.398438 31.152344 20.585938 31.796875 18.613281 31.796875 C 16.578125 31.796875 14.707031 31.109375 13.214844 29.964844 C 12.484375 30.347656 11.667969 30.566406 10.796875 30.566406 C 7.726562 30.566406 5.238281 27.890625 5.238281 24.59375 C 5.238281 23.835938 5.375 23.113281 5.613281 22.445312 L 5.609375 22.445312 L 5.625 22.40625 C 5.757812 22.046875 5.921875 21.703125 6.113281 21.378906 L 10.800781 11.523438 L 12.71875 15.5625 L 18.613281 4.203125 L 24.828125 16.175781 L 25.90625 13.902344 L 29.996094 22.527344 C 30.164062 22.808594 30.308594 23.109375 30.421875 23.425781 L 30.4375 23.460938 L 30.433594 23.460938 C 30.640625 24.042969 30.761719 24.675781 30.761719 25.339844 C 30.761719 28.226562 28.589844 30.566406 25.90625 30.566406 Z M 25.90625 30.566406 "/>
<path style=" stroke:none;fill-rule:nonzero;fill:rgb(100%,100%,100%);fill-opacity:0.929412;" d="M 26.421875 23.957031 L 26.414062 23.941406 C 26.34375 23.792969 26.257812 23.65625 26.152344 23.523438 L 23.648438 19.550781 L 22.378906 21.558594 C 22.347656 21.503906 22.316406 21.445312 22.28125 21.390625 L 18.410156 13.9375 L 14.730469 21.027344 L 12.867188 17.992188 L 9.929688 22.773438 C 9.808594 22.929688 9.703125 23.097656 9.621094 23.273438 L 9.609375 23.289062 L 9.613281 23.289062 C 9.464844 23.613281 9.378906 23.964844 9.378906 24.332031 C 9.378906 25.933594 10.941406 27.230469 12.867188 27.230469 C 13.613281 27.230469 14.300781 27.035156 14.871094 26.703125 C 15.710938 27.703125 16.984375 28.339844 18.410156 28.339844 C 19.804688 28.339844 21.050781 27.726562 21.894531 26.765625 C 22.386719 27.054688 22.992188 27.230469 23.648438 27.230469 C 25.289062 27.230469 26.621094 26.152344 26.621094 24.820312 C 26.621094 24.515625 26.546875 24.222656 26.421875 23.957031 Z M 26.421875 23.957031 "/>
</g>
</svg>
