<?xml version="1.0" encoding="UTF-8"?>
<svg xmlns="http://www.w3.org/2000/svg" xmlns:xlink="http://www.w3.org/1999/xlink" width="36pt" height="18pt" viewBox="0 0 36 18" version="1.1">
<g id="surface1">
<path style=" stroke:none;fill-rule:nonzero;fill:rgb(24.705882%,41.960784%,63.921569%);fill-opacity:1;" d="M 34.425781 0 L 1.574219 0 C 0.707031 0 0 0.730469 0 1.628906 L 0 13.554688 C 0 14.449219 0.707031 15.179688 1.574219 15.179688 L 2.769531 15.179688 L 2.769531 18 L 33.320312 18 L 33.320312 15.179688 L 34.425781 15.179688 C 35.292969 15.179688 36 14.449219 36 13.554688 L 36 1.628906 C 36 0.730469 35.292969 0 34.425781 0 Z M 34.425781 0 "/>
<path style=" stroke:none;fill-rule:nonzero;fill:rgb(100%,100%,100%);fill-opacity:0.929412;" d="M 34.425781 1.085938 L 1.574219 1.085938 C 1.285156 1.085938 1.046875 1.328125 1.046875 1.628906 L 1.046875 13.554688 C 1.046875 13.851562 1.285156 14.09375 1.574219 14.09375 L 34.425781 14.09375 C 34.714844 14.09375 34.953125 13.851562 34.953125 13.554688 L 34.953125 1.628906 C 34.953125 1.328125 34.714844 1.085938 34.425781 1.085938 Z M 6.921875 12.304688 L 3.039062 12.304688 L 3.039062 8.324219 L 6.921875 8.324219 Z M 6.921875 6.898438 L 3.039062 6.898438 L 3.039062 2.917969 L 6.921875 2.917969 Z M 12.15625 12.308594 L 8.273438 12.308594 L 8.273438 8.328125 L 12.15625 8.328125 Z M 12.15625 6.902344 L 8.273438 6.902344 L 8.273438 2.921875 L 12.15625 2.921875 Z M 13.492188 2.921875 L 17.378906 2.921875 L 17.378906 6.902344 L 13.492188 6.902344 Z M 17.390625 12.3125 L 13.507812 12.3125 L 13.507812 8.332031 L 17.390625 8.332031 Z M 22.597656 12.3125 L 18.714844 12.3125 L 18.714844 8.332031 L 22.597656 8.332031 Z M 22.597656 6.90625 L 18.714844 6.90625 L 18.714844 2.925781 L 22.597656 2.925781 Z M 26.808594 8.605469 C 26.183594 8.605469 25.675781 8.078125 25.675781 7.429688 C 25.675781 6.78125 26.183594 6.257812 26.808594 6.257812 C 27.4375 6.257812 27.945312 6.78125 27.945312 7.429688 C 27.945312 8.078125 27.4375 8.605469 26.808594 8.605469 Z M 31.09375 8.605469 C 30.464844 8.605469 29.957031 8.078125 29.957031 7.429688 C 29.957031 6.78125 30.464844 6.257812 31.09375 6.257812 C 31.71875 6.257812 32.226562 6.78125 32.226562 7.429688 C 32.226562 8.078125 31.71875 8.605469 31.09375 8.605469 Z M 31.09375 8.605469 "/>
<path style=" stroke:none;fill-rule:nonzero;fill:rgb(100%,100%,100%);fill-opacity:0.501961;" d="M 27.945312 7.429688 C 27.945312 6.78125 27.4375 6.257812 26.808594 6.257812 C 26.183594 6.257812 25.675781 6.78125 25.675781 7.429688 C 25.675781 8.078125 26.183594 8.605469 26.808594 8.605469 C 27.433594 8.605469 27.945312 8.082031 27.945312 7.433594 Z M 27.945312 7.429688 "/>
<path style=" stroke:none;fill-rule:nonzero;fill:rgb(100%,100%,100%);fill-opacity:0.65098;" d="M 3.039062 6.898438 L 6.921875 6.898438 L 6.921875 2.917969 L 3.039062 2.917969 Z M 3.617188 3.484375 L 6.375 3.484375 L 6.375 5.511719 L 5.574219 5.511719 L 5.574219 6.339844 L 4.414062 6.339844 L 4.414062 5.511719 L 3.617188 5.511719 Z M 3.617188 3.484375 "/>
<path style=" stroke:none;fill-rule:nonzero;fill:rgb(100%,100%,100%);fill-opacity:0.65098;" d="M 8.273438 6.902344 L 12.15625 6.902344 L 12.15625 2.921875 L 8.273438 2.921875 Z M 8.851562 3.488281 L 11.609375 3.488281 L 11.609375 5.515625 L 10.808594 5.515625 L 10.808594 6.339844 L 9.648438 6.339844 L 9.648438 5.515625 L 8.851562 5.515625 Z M 8.851562 3.488281 "/>
<path style=" stroke:none;fill-rule:nonzero;fill:rgb(100%,100%,100%);fill-opacity:0.65098;" d="M 17.378906 2.921875 L 13.492188 2.921875 L 13.492188 6.902344 L 17.378906 6.902344 Z M 16.828125 5.511719 L 16.03125 5.511719 L 16.03125 6.339844 L 14.867188 6.339844 L 14.867188 5.511719 L 14.070312 5.511719 L 14.070312 3.484375 L 16.828125 3.484375 Z M 16.828125 5.511719 "/>
<path style=" stroke:none;fill-rule:nonzero;fill:rgb(100%,100%,100%);fill-opacity:0.65098;" d="M 18.714844 6.90625 L 22.597656 6.90625 L 22.597656 2.925781 L 18.714844 2.925781 Z M 19.289062 3.484375 L 22.046875 3.484375 L 22.046875 5.511719 L 21.25 5.511719 L 21.25 6.339844 L 20.089844 6.339844 L 20.089844 5.511719 L 19.292969 5.511719 L 19.292969 3.484375 Z M 19.289062 3.484375 "/>
<path style=" stroke:none;fill-rule:nonzero;fill:rgb(100%,100%,100%);fill-opacity:0.65098;" d="M 3.039062 12.304688 L 6.921875 12.304688 L 6.921875 8.324219 L 3.039062 8.324219 Z M 3.617188 8.886719 L 6.375 8.886719 L 6.375 10.914062 L 5.574219 10.914062 L 5.574219 11.742188 L 4.414062 11.742188 L 4.414062 10.914062 L 3.617188 10.914062 Z M 3.617188 8.886719 "/>
<path style=" stroke:none;fill-rule:nonzero;fill:rgb(100%,100%,100%);fill-opacity:0.65098;" d="M 8.273438 12.308594 L 12.15625 12.308594 L 12.15625 8.328125 L 8.273438 8.328125 Z M 8.851562 8.894531 L 11.609375 8.894531 L 11.609375 10.921875 L 10.808594 10.921875 L 10.808594 11.746094 L 9.648438 11.746094 L 9.648438 10.921875 L 8.851562 10.921875 Z M 8.851562 8.894531 "/>
<path style=" stroke:none;fill-rule:nonzero;fill:rgb(100%,100%,100%);fill-opacity:0.65098;" d="M 13.507812 12.3125 L 17.390625 12.3125 L 17.390625 8.332031 L 13.507812 8.332031 Z M 14.070312 8.890625 L 16.828125 8.890625 L 16.828125 10.917969 L 16.03125 10.917969 L 16.03125 11.746094 L 14.867188 11.746094 L 14.867188 10.917969 L 14.070312 10.917969 Z M 14.070312 8.890625 "/>
<path style=" stroke:none;fill-rule:nonzero;fill:rgb(100%,100%,100%);fill-opacity:0.65098;" d="M 18.714844 12.3125 L 22.597656 12.3125 L 22.597656 8.332031 L 18.714844 8.332031 Z M 19.289062 8.890625 L 22.046875 8.890625 L 22.046875 10.917969 L 21.25 10.917969 L 21.25 11.746094 L 20.089844 11.746094 L 20.089844 10.917969 L 19.292969 10.917969 L 19.292969 8.890625 Z M 19.289062 8.890625 "/>
<path style=" stroke:none;fill-rule:nonzero;fill:rgb(100%,100%,100%);fill-opacity:0.701961;" d="M 3.816406 15.179688 L 32.273438 15.179688 L 32.273438 16.914062 L 3.816406 16.914062 Z M 3.816406 15.179688 "/>
</g>
</svg>
