<?xml version="1.0" encoding="UTF-8"?>
<svg xmlns="http://www.w3.org/2000/svg" xmlns:xlink="http://www.w3.org/1999/xlink" width="44pt" height="26pt" viewBox="0 0 44 26" version="1.1">
<g id="surface1">
<path style=" stroke:none;fill-rule:nonzero;fill:rgb(24.705882%,41.960784%,63.921569%);fill-opacity:1;" d="M 42.953125 21.691406 L 39.113281 21.691406 L 39.113281 1.742188 C 39.113281 0.78125 38.332031 0 37.367188 0 L 6.632812 0 C 5.667969 0 4.886719 0.78125 4.886719 1.742188 L 4.886719 21.691406 L 0 21.691406 L 0 23.847656 C 0 25.054688 0.8125 26 1.851562 26 L 42.148438 26 C 43.1875 26 44 25.054688 44 23.847656 L 44 21.691406 Z M 42.953125 21.691406 "/>
<path style=" stroke:none;fill-rule:nonzero;fill:rgb(100%,100%,100%);fill-opacity:0.929412;" d="M 37.375 1.042969 L 6.640625 1.042969 C 6.253906 1.042969 5.941406 1.359375 5.941406 1.742188 L 5.941406 21.691406 L 38.074219 21.691406 L 38.074219 1.742188 C 38.074219 1.359375 37.757812 1.042969 37.375 1.042969 Z M 36.0625 21.070312 L 7.949219 21.070312 L 7.949219 3.046875 L 36.0625 3.046875 Z M 36.0625 21.070312 "/>
<path style=" stroke:none;fill-rule:nonzero;fill:rgb(100%,100%,100%);fill-opacity:0.85098;" d="M 39.324219 22.738281 L 24.953125 22.738281 L 24.953125 22.945312 C 24.953125 23.25 24.773438 23.5 24.550781 23.5 L 19.597656 23.5 C 19.375 23.5 19.195312 23.25 19.195312 22.945312 L 19.195312 22.738281 L 1.054688 22.738281 L 1.054688 23.847656 C 1.054688 24.457031 1.417969 24.953125 1.859375 24.953125 L 42.15625 24.953125 C 42.597656 24.953125 42.960938 24.457031 42.960938 23.847656 L 42.960938 22.738281 Z M 39.324219 22.738281 "/>
<path style=" stroke:none;fill-rule:nonzero;fill:rgb(100%,100%,100%);fill-opacity:0.101961;" d="M 22.171875 3.046875 L 7.949219 3.046875 L 7.949219 21.070312 L 11.738281 21.070312 Z M 22.171875 3.046875 "/>
</g>
</svg>
