<?xml version="1.0" encoding="UTF-8"?>
<svg xmlns="http://www.w3.org/2000/svg" xmlns:xlink="http://www.w3.org/1999/xlink" width="25pt" height="38pt" viewBox="0 0 25 38" version="1.1">
<g id="surface1">
<path style=" stroke:none;fill-rule:nonzero;fill:rgb(24.705882%,41.960784%,63.921569%);fill-opacity:1;" d="M 24.839844 15.546875 C 24.589844 15.085938 24.058594 14.839844 23.386719 14.839844 L 12.320312 14.910156 C 12 14.910156 11.71875 14.804688 11.539062 14.59375 C 11.363281 14.382812 11.292969 14.101562 11.328125 13.78125 L 13.066406 1.375 C 13.136719 0.777344 13.101562 0.421875 12.886719 0.210938 C 12.78125 0.0703125 12.605469 0 12.425781 0 C 12 0 11.683594 0.421875 11.46875 0.847656 L 0.261719 21.007812 C -0.0546875 21.574219 -0.0898438 22.171875 0.191406 22.628906 C 0.476562 23.089844 1.007812 23.335938 1.644531 23.335938 L 11.1875 23.371094 C 11.503906 23.371094 11.789062 23.476562 12 23.722656 C 12.214844 23.933594 12.285156 24.253906 12.25 24.570312 L 10.972656 36.625 C 10.902344 37.1875 10.972656 37.578125 11.1875 37.789062 C 11.328125 37.929688 11.503906 38 11.683594 38 C 12.144531 38 12.464844 37.578125 12.675781 37.1875 L 24.699219 17.132812 C 25.050781 16.566406 25.089844 16.003906 24.839844 15.546875 Z M 24.839844 15.546875 "/>
<path style=" stroke:none;fill-rule:nonzero;fill:rgb(100%,100%,100%);fill-opacity:0.929412;" d="M 23.386719 15.898438 L 12.320312 15.96875 C 11.683594 15.96875 11.117188 15.722656 10.726562 15.261719 C 10.335938 14.804688 10.15625 14.242188 10.265625 13.605469 L 11.824219 2.292969 L 1.183594 21.539062 C 1.042969 21.785156 1.007812 21.996094 1.078125 22.101562 C 1.148438 22.207031 1.363281 22.3125 1.609375 22.3125 L 11.152344 22.347656 C 11.789062 22.347656 12.355469 22.59375 12.746094 23.054688 C 13.136719 23.511719 13.347656 24.074219 13.277344 24.710938 L 12.074219 36.167969 L 23.777344 16.671875 C 23.917969 16.460938 23.953125 16.25 23.882812 16.144531 C 23.847656 15.96875 23.632812 15.898438 23.386719 15.898438 Z M 23.386719 15.898438 "/>
</g>
</svg>
