<?xml version="1.0" encoding="UTF-8"?>
<svg xmlns="http://www.w3.org/2000/svg" xmlns:xlink="http://www.w3.org/1999/xlink" width="36pt" height="13pt" viewBox="0 0 36 13" version="1.1">
<g id="surface1">
<path style=" stroke:none;fill-rule:nonzero;fill:rgb(24.705882%,41.960784%,63.921569%);fill-opacity:1;" d="M 34.425781 0 L 1.574219 0 C 0.707031 0 0 0.738281 0 1.648438 L 0 8.976562 C 0 9.882812 0.707031 10.621094 1.574219 10.621094 L 1.710938 10.621094 L 1.710938 13 L 9.765625 13 L 9.765625 10.621094 L 26.183594 10.621094 L 26.183594 13 L 34.238281 13 L 34.238281 10.621094 L 34.425781 10.621094 C 35.292969 10.621094 36 9.882812 36 8.976562 L 36 1.648438 C 36 0.738281 35.292969 0 34.425781 0 Z M 34.425781 0 "/>
<path style=" stroke:none;fill-rule:nonzero;fill:rgb(100%,100%,100%);fill-opacity:0.929412;" d="M 1.574219 9.507812 L 34.425781 9.507812 C 34.714844 9.507812 34.953125 9.261719 34.953125 8.957031 L 34.953125 1.648438 C 34.953125 1.34375 34.714844 1.097656 34.425781 1.097656 L 1.574219 1.097656 C 1.285156 1.097656 1.046875 1.34375 1.046875 1.648438 L 1.046875 8.960938 C 1.046875 9.261719 1.285156 9.507812 1.574219 9.507812 Z M 31.527344 4.113281 C 32.15625 4.113281 32.664062 4.648438 32.664062 5.304688 C 32.664062 5.960938 32.15625 6.492188 31.527344 6.492188 C 30.902344 6.492188 30.394531 5.960938 30.394531 5.304688 C 30.394531 4.648438 30.902344 4.113281 31.527344 4.113281 Z M 26.890625 4.113281 C 27.515625 4.113281 28.023438 4.648438 28.023438 5.304688 C 28.023438 5.960938 27.515625 6.492188 26.890625 6.492188 C 26.261719 6.492188 25.753906 5.960938 25.753906 5.304688 C 25.753906 4.648438 26.261719 4.113281 26.890625 4.113281 Z M 22.25 4.113281 C 22.875 4.113281 23.382812 4.648438 23.382812 5.304688 C 23.382812 5.960938 22.875 6.492188 22.25 6.492188 C 21.621094 6.492188 21.113281 5.960938 21.113281 5.304688 C 21.113281 4.648438 21.621094 4.113281 22.25 4.113281 Z M 17.609375 4.113281 C 18.234375 4.113281 18.742188 4.648438 18.742188 5.304688 C 18.742188 5.960938 18.234375 6.492188 17.609375 6.492188 C 16.980469 6.492188 16.472656 5.960938 16.472656 5.304688 C 16.472656 4.648438 16.980469 4.113281 17.609375 4.113281 Z M 9.84375 3.054688 L 10.890625 3.054688 L 10.890625 7.550781 L 9.84375 7.550781 Z M 7.585938 3.054688 L 8.632812 3.054688 L 8.632812 7.550781 L 7.585938 7.550781 Z M 5.328125 3.054688 L 6.375 3.054688 L 6.375 7.550781 L 5.328125 7.550781 Z M 3.070312 3.054688 L 4.121094 3.054688 L 4.121094 7.550781 L 3.070312 7.550781 Z M 3.070312 3.054688 "/>
<path style=" stroke:none;fill-rule:nonzero;fill:rgb(100%,100%,100%);fill-opacity:0.701961;" d="M 2.757812 10.605469 L 8.714844 10.605469 L 8.714844 11.886719 L 2.757812 11.886719 Z M 2.757812 10.605469 "/>
<path style=" stroke:none;fill-rule:nonzero;fill:rgb(100%,100%,100%);fill-opacity:0.701961;" d="M 27.234375 10.605469 L 33.191406 10.605469 L 33.191406 11.886719 L 27.234375 11.886719 Z M 27.234375 10.605469 "/>
<path style=" stroke:none;fill-rule:nonzero;fill:rgb(100%,100%,100%);fill-opacity:0.501961;" d="M 28.023438 5.304688 C 28.023438 4.648438 27.515625 4.113281 26.890625 4.113281 C 26.261719 4.113281 25.753906 4.648438 25.753906 5.304688 C 25.753906 5.960938 26.261719 6.492188 26.886719 6.492188 C 27.515625 6.492188 28.023438 5.960938 28.023438 5.304688 Z M 28.023438 5.304688 "/>
<path style=" stroke:none;fill-rule:nonzero;fill:rgb(100%,100%,100%);fill-opacity:0.501961;" d="M 23.382812 5.304688 C 23.382812 4.648438 22.875 4.113281 22.25 4.113281 C 21.621094 4.113281 21.113281 4.648438 21.113281 5.304688 C 21.113281 5.960938 21.621094 6.492188 22.246094 6.492188 C 22.875 6.492188 23.382812 5.960938 23.382812 5.304688 Z M 23.382812 5.304688 "/>
<path style=" stroke:none;fill-rule:nonzero;fill:rgb(100%,100%,100%);fill-opacity:0.501961;" d="M 18.742188 5.304688 C 18.742188 4.648438 18.234375 4.113281 17.609375 4.113281 C 16.984375 4.113281 16.472656 4.648438 16.472656 5.304688 C 16.472656 5.960938 16.980469 6.492188 17.609375 6.492188 C 18.234375 6.492188 18.742188 5.960938 18.742188 5.304688 Z M 18.742188 5.304688 "/>
</g>
</svg>
