<?xml version="1.0" encoding="UTF-8"?>
<svg xmlns="http://www.w3.org/2000/svg" xmlns:xlink="http://www.w3.org/1999/xlink" width="33pt" height="21pt" viewBox="0 0 33 21" version="1.1">
<g id="surface1">
<path style=" stroke:none;fill-rule:nonzero;fill:rgb(24.705882%,41.960784%,63.921569%);fill-opacity:1;" d="M 31.402344 0 L 1.597656 0 C 0.714844 0 0 0.714844 0 1.589844 L 0 17.648438 C 0 18.492188 0.667969 19.179688 1.507812 19.226562 L 1.507812 21 L 31.492188 21 L 31.492188 19.226562 C 32.332031 19.179688 33 18.492188 33 17.648438 L 33 1.589844 C 33 0.714844 32.285156 0 31.402344 0 Z M 31.402344 0 "/>
<path style=" stroke:none;fill-rule:nonzero;fill:rgb(100%,100%,100%);fill-opacity:0.74902;" d="M 31.933594 17.648438 L 31.933594 1.589844 C 31.933594 1.296875 31.695312 1.058594 31.402344 1.058594 L 1.597656 1.058594 C 1.304688 1.058594 1.066406 1.296875 1.066406 1.589844 L 1.066406 17.648438 C 1.066406 17.9375 1.304688 18.175781 1.597656 18.175781 L 31.402344 18.175781 C 31.695312 18.175781 31.933594 17.941406 31.933594 17.648438 Z M 4.921875 15.21875 C 4.332031 15.21875 3.855469 14.742188 3.855469 14.15625 C 3.855469 13.570312 4.332031 13.09375 4.921875 13.09375 C 5.511719 13.09375 5.988281 13.570312 5.988281 14.15625 C 5.988281 14.742188 5.507812 15.21875 4.921875 15.21875 Z M 8.472656 15.21875 C 7.886719 15.21875 7.40625 14.742188 7.40625 14.15625 C 7.40625 13.570312 7.886719 13.09375 8.472656 13.09375 C 9.0625 13.09375 9.539062 13.570312 9.539062 14.15625 C 9.539062 14.742188 9.0625 15.21875 8.472656 15.21875 Z M 10.96875 11.089844 L 2.425781 11.089844 L 2.425781 2.582031 L 10.96875 2.582031 Z M 30.042969 16.851562 L 12.332031 16.851562 L 12.332031 2.40625 L 30.042969 2.40625 Z M 30.042969 16.851562 "/>
<path style=" stroke:none;fill-rule:nonzero;fill:rgb(100%,100%,100%);fill-opacity:0.501961;" d="M 2.574219 19.238281 L 30.425781 19.238281 L 30.425781 19.941406 L 2.574219 19.941406 Z M 2.574219 19.238281 "/>
<path style=" stroke:none;fill-rule:nonzero;fill:rgb(100%,100%,100%);fill-opacity:0.929412;" d="M 27.175781 8.203125 L 28.238281 8.203125 L 28.238281 16.5 L 29.6875 16.5 L 29.6875 2.757812 L 25.726562 2.757812 L 25.726562 16.5 L 27.175781 16.5 Z M 26.878906 4.613281 L 28.535156 4.613281 L 28.535156 6.261719 L 26.878906 6.261719 Z M 26.878906 4.613281 "/>
<path style=" stroke:none;fill-rule:nonzero;fill:rgb(100%,100%,100%);fill-opacity:0.929412;" d="M 21.410156 16.5 L 22.859375 16.5 L 22.859375 8.203125 L 23.921875 8.203125 L 23.921875 16.5 L 25.371094 16.5 L 25.371094 2.757812 L 21.410156 2.757812 Z M 22.5625 4.613281 L 24.21875 4.613281 L 24.21875 6.261719 L 22.5625 6.261719 Z M 22.5625 4.613281 "/>
<path style=" stroke:none;fill-rule:nonzero;fill:rgb(100%,100%,100%);fill-opacity:0.929412;" d="M 18.453125 16.5 L 18.453125 8.203125 L 19.515625 8.203125 L 19.515625 16.5 L 20.964844 16.5 L 20.964844 2.757812 L 17.003906 2.757812 L 17.003906 16.5 Z M 18.15625 4.613281 L 19.8125 4.613281 L 19.8125 6.261719 L 18.15625 6.261719 Z M 18.15625 4.613281 "/>
<path style=" stroke:none;fill-rule:nonzero;fill:rgb(100%,100%,100%);fill-opacity:0.929412;" d="M 12.683594 16.5 L 14.132812 16.5 L 14.132812 8.203125 L 15.199219 8.203125 L 15.199219 16.5 L 16.648438 16.5 L 16.648438 2.757812 L 12.683594 2.757812 Z M 13.839844 4.613281 L 15.496094 4.613281 L 15.496094 6.261719 L 13.839844 6.261719 Z M 13.839844 4.613281 "/>
<path style=" stroke:none;fill-rule:nonzero;fill:rgb(100%,100%,100%);fill-opacity:0.25098;" d="M 14.132812 8.203125 L 15.199219 8.203125 L 15.199219 16.5 L 14.132812 16.5 Z M 14.132812 8.203125 "/>
<path style=" stroke:none;fill-rule:nonzero;fill:rgb(100%,100%,100%);fill-opacity:0.25098;" d="M 18.453125 8.203125 L 19.515625 8.203125 L 19.515625 16.5 L 18.453125 16.5 Z M 18.453125 8.203125 "/>
<path style=" stroke:none;fill-rule:nonzero;fill:rgb(100%,100%,100%);fill-opacity:0.25098;" d="M 22.859375 8.203125 L 23.921875 8.203125 L 23.921875 16.5 L 22.859375 16.5 Z M 22.859375 8.203125 "/>
<path style=" stroke:none;fill-rule:nonzero;fill:rgb(100%,100%,100%);fill-opacity:0.25098;" d="M 27.175781 8.203125 L 28.238281 8.203125 L 28.238281 16.5 L 27.175781 16.5 Z M 27.175781 8.203125 "/>
<path style=" stroke:none;fill-rule:nonzero;fill:rgb(100%,100%,100%);fill-opacity:0.25098;" d="M 2.425781 2.582031 L 10.96875 2.582031 L 10.96875 11.089844 L 2.425781 11.089844 Z M 2.425781 2.582031 "/>
<path style=" stroke:none;fill-rule:nonzero;fill:rgb(100%,100%,100%);fill-opacity:0.501961;" d="M 5.988281 14.15625 C 5.988281 13.570312 5.511719 13.09375 4.921875 13.09375 C 4.332031 13.09375 3.855469 13.570312 3.855469 14.15625 C 3.855469 14.742188 4.332031 15.214844 4.921875 15.21875 C 5.507812 15.21875 5.988281 14.742188 5.988281 14.15625 Z M 5.988281 14.15625 "/>
</g>
</svg>
