<?xml version="1.0" encoding="UTF-8"?>
<svg xmlns="http://www.w3.org/2000/svg" xmlns:xlink="http://www.w3.org/1999/xlink" width="37pt" height="35pt" viewBox="0 0 37 35" version="1.1">
<g id="surface1">
<path style=" stroke:none;fill-rule:nonzero;fill:rgb(24.705882%,41.960784%,63.921569%);fill-opacity:1;" d="M 35.371094 0 L 1.628906 0 C 0.730469 0 0 0.726562 0 1.621094 L 0 28.707031 C 0 29.601562 0.730469 30.332031 1.628906 30.332031 L 12.179688 30.332031 L 10.910156 31.09375 C 10.367188 31.371094 10.019531 31.929688 10.019531 32.539062 L 10.019531 33.378906 C 10.019531 34.273438 10.75 35 11.648438 35 L 25.46875 35 C 26.367188 35 27.097656 34.273438 27.097656 33.378906 L 27.097656 32.539062 C 27.097656 31.949219 26.769531 31.40625 26.246094 31.117188 L 24.851562 30.332031 L 35.371094 30.332031 C 36.269531 30.332031 37 29.601562 37 28.707031 L 37 1.621094 C 37 0.726562 36.269531 0 35.371094 0 Z M 35.371094 0 "/>
<path style=" stroke:none;fill-rule:nonzero;fill:rgb(100%,100%,100%);fill-opacity:0.929412;" d="M 35.371094 1.042969 L 1.628906 1.042969 C 1.308594 1.042969 1.046875 1.304688 1.046875 1.621094 L 1.046875 24.835938 L 35.953125 24.835938 L 35.953125 1.621094 C 35.953125 1.304688 35.691406 1.042969 35.371094 1.042969 Z M 33.769531 22.769531 L 3.230469 22.769531 L 3.230469 3.214844 L 33.769531 3.214844 Z M 33.769531 22.769531 "/>
<path style=" stroke:none;fill-rule:nonzero;fill:rgb(100%,100%,100%);fill-opacity:0.701961;" d="M 1.046875 25.183594 L 1.046875 28.707031 C 1.046875 29.027344 1.308594 29.289062 1.628906 29.289062 L 35.371094 29.289062 C 35.691406 29.289062 35.953125 29.027344 35.953125 28.707031 L 35.953125 25.183594 Z M 1.046875 25.183594 "/>
<path style=" stroke:none;fill-rule:nonzero;fill:rgb(100%,100%,100%);fill-opacity:0.929412;" d="M 25.78125 32.0625 L 21.273438 32.0625 L 17.941406 30.332031 L 14.203125 30.332031 L 11.410156 32.011719 C 11.210938 32.101562 11.066406 32.304688 11.066406 32.539062 L 11.066406 33.378906 C 11.066406 33.695312 11.328125 33.957031 11.648438 33.957031 L 25.46875 33.957031 C 25.785156 33.957031 26.046875 33.695312 26.046875 33.378906 L 26.046875 32.539062 C 26.046875 32.335938 25.941406 32.164062 25.78125 32.0625 Z M 25.78125 32.0625 "/>
<path style=" stroke:none;fill-rule:nonzero;fill:rgb(100%,100%,100%);fill-opacity:0.101961;" d="M 18.527344 3.210938 L 3.078125 3.210938 L 3.078125 22.765625 L 7.191406 22.765625 Z M 18.527344 3.210938 "/>
<path style=" stroke:none;fill-rule:nonzero;fill:rgb(100%,100%,100%);fill-opacity:0.85098;" d="M 22.71875 30.328125 L 17.933594 30.328125 L 21.261719 32.054688 L 25.777344 32.054688 Z M 22.71875 30.328125 "/>
</g>
</svg>
