<?xml version="1.0" encoding="UTF-8"?>
<svg xmlns="http://www.w3.org/2000/svg" xmlns:xlink="http://www.w3.org/1999/xlink" width="31pt" height="33pt" viewBox="0 0 31 33" version="1.1">
<g id="surface1">
<path style=" stroke:none;fill-rule:nonzero;fill:rgb(24.705882%,41.960784%,63.921569%);fill-opacity:1;" d="M 29.441406 2.6875 L 27.46875 2.6875 C 27.105469 1.519531 25.949219 0.59375 24.410156 0.203125 C 24.402344 0.203125 24.398438 0.199219 24.390625 0.199219 C 24.28125 0.171875 24.171875 0.148438 24.054688 0.125 C 24.015625 0.117188 23.976562 0.109375 23.9375 0.101562 C 23.84375 0.0859375 23.753906 0.0703125 23.65625 0.0585938 C 23.582031 0.0507812 23.507812 0.0429688 23.433594 0.0351562 C 23.363281 0.0273438 23.296875 0.0195312 23.226562 0.015625 C 23.074219 0.0078125 22.921875 0 22.769531 0 C 22.769531 0 22.765625 0 22.765625 0 C 22.613281 0 22.460938 0.0078125 22.308594 0.015625 C 22.238281 0.0195312 22.167969 0.0273438 22.097656 0.0351562 C 22.023438 0.0429688 21.953125 0.0507812 21.878906 0.0585938 C 21.785156 0.0703125 21.691406 0.0859375 21.597656 0.101562 C 21.558594 0.109375 21.519531 0.117188 21.480469 0.125 C 21.367188 0.144531 21.253906 0.171875 21.144531 0.199219 C 21.136719 0.199219 21.132812 0.203125 21.128906 0.203125 C 19.621094 0.582031 18.484375 1.476562 18.09375 2.613281 C 18.085938 2.636719 18.074219 2.660156 18.066406 2.6875 L 1.558594 2.6875 C 0.699219 2.6875 0 3.398438 0 4.273438 L 0 31.410156 C 0 32.285156 0.699219 33 1.558594 33 L 29.441406 33 C 30.300781 33 31 32.285156 31 31.410156 L 31 4.277344 C 31 3.398438 30.300781 2.6875 29.441406 2.6875 Z M 29.441406 2.6875 "/>
<path style=" stroke:none;fill-rule:nonzero;fill:rgb(100%,100%,100%);fill-opacity:0.85098;" d="M 22.769531 1.058594 C 20.714844 1.058594 18.980469 2.164062 18.980469 3.472656 L 19.613281 25.609375 C 19.613281 25.757812 19.644531 25.902344 19.71875 26.082031 C 20.070312 26.964844 21.355469 27.605469 22.769531 27.605469 C 24.476562 27.605469 25.921875 26.699219 25.921875 25.625 L 26.554688 3.457031 C 26.554688 2.164062 24.820312 1.058594 22.769531 1.058594 Z M 22.769531 1.058594 "/>
<path style=" stroke:none;fill-rule:nonzero;fill:rgb(100%,100%,100%);fill-opacity:0.929412;" d="M 29.441406 3.746094 L 27.585938 3.746094 L 26.960938 25.640625 C 26.960938 27.328125 25.121094 28.664062 22.769531 28.664062 C 20.890625 28.664062 19.28125 27.789062 18.757812 26.484375 C 18.632812 26.171875 18.574219 25.898438 18.574219 25.625 L 17.949219 3.746094 L 1.558594 3.746094 C 1.273438 3.746094 1.039062 3.984375 1.039062 4.277344 L 1.039062 29.300781 L 29.960938 29.300781 L 29.960938 4.277344 C 29.960938 3.984375 29.730469 3.746094 29.441406 3.746094 Z M 6.941406 24.761719 L 4.257812 24.761719 L 4.257812 23.238281 L 6.941406 23.238281 Z M 6.941406 21.492188 L 4.257812 21.492188 L 4.257812 19.96875 L 6.941406 19.96875 Z M 6.941406 18.21875 L 4.257812 18.21875 L 4.257812 16.695312 L 6.941406 16.695312 Z M 6.941406 14.945312 L 4.257812 14.945312 L 4.257812 13.421875 L 6.941406 13.421875 Z M 11.105469 24.734375 L 8.417969 24.734375 L 8.417969 23.210938 L 11.105469 23.210938 Z M 11.105469 21.492188 L 8.417969 21.492188 L 8.417969 19.96875 L 11.105469 19.96875 Z M 11.105469 18.21875 L 8.417969 18.21875 L 8.417969 16.695312 L 11.105469 16.695312 Z M 11.121094 14.945312 L 8.4375 14.945312 L 8.4375 13.421875 L 11.121094 13.421875 Z M 15.28125 24.734375 L 12.597656 24.734375 L 12.597656 23.210938 L 15.28125 23.210938 Z M 15.28125 21.492188 L 12.597656 21.492188 L 12.597656 19.96875 L 15.28125 19.96875 Z M 15.300781 18.21875 L 12.617188 18.21875 L 12.617188 16.695312 L 15.300781 16.695312 Z M 15.300781 14.945312 L 12.617188 14.945312 L 12.617188 13.421875 L 15.300781 13.421875 Z M 15.300781 10.542969 L 4.257812 10.542969 L 4.257812 5.925781 L 15.300781 5.925781 Z M 15.300781 10.542969 "/>
<path style=" stroke:none;fill-rule:nonzero;fill:rgb(100%,100%,100%);fill-opacity:0.501961;" d="M 8.4375 13.421875 L 11.121094 13.421875 L 11.121094 14.945312 L 8.4375 14.945312 Z M 8.4375 13.421875 "/>
<path style=" stroke:none;fill-rule:nonzero;fill:rgb(100%,100%,100%);fill-opacity:0.501961;" d="M 12.617188 13.421875 L 15.300781 13.421875 L 15.300781 14.945312 L 12.617188 14.945312 Z M 12.617188 13.421875 "/>
<path style=" stroke:none;fill-rule:nonzero;fill:rgb(100%,100%,100%);fill-opacity:0.501961;" d="M 4.257812 13.421875 L 6.941406 13.421875 L 6.941406 14.945312 L 4.257812 14.945312 Z M 4.257812 13.421875 "/>
<path style=" stroke:none;fill-rule:nonzero;fill:rgb(100%,100%,100%);fill-opacity:0.501961;" d="M 8.417969 16.695312 L 11.105469 16.695312 L 11.105469 18.21875 L 8.417969 18.21875 Z M 8.417969 16.695312 "/>
<path style=" stroke:none;fill-rule:nonzero;fill:rgb(100%,100%,100%);fill-opacity:0.501961;" d="M 12.617188 16.695312 L 15.300781 16.695312 L 15.300781 18.21875 L 12.617188 18.21875 Z M 12.617188 16.695312 "/>
<path style=" stroke:none;fill-rule:nonzero;fill:rgb(100%,100%,100%);fill-opacity:0.501961;" d="M 4.257812 16.695312 L 6.941406 16.695312 L 6.941406 18.21875 L 4.257812 18.21875 Z M 4.257812 16.695312 "/>
<path style=" stroke:none;fill-rule:nonzero;fill:rgb(100%,100%,100%);fill-opacity:0.501961;" d="M 8.417969 19.96875 L 11.105469 19.96875 L 11.105469 21.492188 L 8.417969 21.492188 Z M 8.417969 19.96875 "/>
<path style=" stroke:none;fill-rule:nonzero;fill:rgb(100%,100%,100%);fill-opacity:0.501961;" d="M 12.597656 19.96875 L 15.28125 19.96875 L 15.28125 21.492188 L 12.597656 21.492188 Z M 12.597656 19.96875 "/>
<path style=" stroke:none;fill-rule:nonzero;fill:rgb(100%,100%,100%);fill-opacity:0.501961;" d="M 4.257812 19.96875 L 6.941406 19.96875 L 6.941406 21.492188 L 4.257812 21.492188 Z M 4.257812 19.96875 "/>
<path style=" stroke:none;fill-rule:nonzero;fill:rgb(100%,100%,100%);fill-opacity:0.501961;" d="M 8.417969 23.210938 L 11.105469 23.210938 L 11.105469 24.734375 L 8.417969 24.734375 Z M 8.417969 23.210938 "/>
<path style=" stroke:none;fill-rule:nonzero;fill:rgb(100%,100%,100%);fill-opacity:0.501961;" d="M 12.597656 23.210938 L 15.28125 23.210938 L 15.28125 24.734375 L 12.597656 24.734375 Z M 12.597656 23.210938 "/>
<path style=" stroke:none;fill-rule:nonzero;fill:rgb(100%,100%,100%);fill-opacity:0.501961;" d="M 4.257812 23.238281 L 6.941406 23.238281 L 6.941406 24.761719 L 4.257812 24.761719 Z M 4.257812 23.238281 "/>
<path style=" stroke:none;fill-rule:nonzero;fill:rgb(100%,100%,100%);fill-opacity:0.501961;" d="M 4.257812 5.925781 L 15.300781 5.925781 L 15.300781 10.542969 L 4.257812 10.542969 Z M 4.257812 5.925781 "/>
<path style=" stroke:none;fill-rule:nonzero;fill:rgb(100%,100%,100%);fill-opacity:0.701961;" d="M 25.8125 29.300781 L 1.039062 29.300781 L 1.039062 31.261719 C 1.039062 31.554688 1.273438 31.792969 1.558594 31.792969 L 29.441406 31.792969 C 29.726562 31.792969 29.960938 31.554688 29.960938 31.261719 L 29.960938 29.300781 Z M 25.8125 29.300781 "/>
</g>
</svg>
