<?xml version="1.0" encoding="UTF-8"?>
<svg xmlns="http://www.w3.org/2000/svg" xmlns:xlink="http://www.w3.org/1999/xlink" width="42pt" height="16pt" viewBox="0 0 42 16" version="1.1">
<g id="surface1">
<path style=" stroke:none;fill-rule:nonzero;fill:rgb(24.705882%,41.960784%,63.921569%);fill-opacity:1;" d="M 40.792969 1.816406 L 31.46875 1.816406 C 30.148438 0.644531 28.476562 0 26.730469 0 C 24.988281 0 23.3125 0.644531 21.992188 1.816406 L 1.207031 1.816406 C 0.542969 1.816406 0 2.375 0 3.054688 L 0 11.78125 C 0 12.460938 0.542969 13.019531 1.207031 13.019531 L 1.476562 13.019531 L 1.476562 16 L 40.523438 16 L 40.523438 13.019531 L 40.792969 13.019531 C 41.457031 13.019531 42 12.460938 42 11.78125 L 42 3.054688 C 42 2.375 41.457031 1.816406 40.792969 1.816406 Z M 40.792969 1.816406 "/>
<path style=" stroke:none;fill-rule:nonzero;fill:rgb(100%,100%,100%);fill-opacity:0.929412;" d="M 3.640625 11.957031 L 21.695312 11.957031 C 21.355469 11.566406 21.058594 11.140625 20.816406 10.679688 C 20.796875 10.644531 20.78125 10.605469 20.761719 10.570312 L 13.480469 10.570312 L 13.480469 4.160156 L 20.8125 4.160156 C 21.054688 3.703125 21.351562 3.28125 21.683594 2.894531 L 3.640625 2.894531 Z M 6.039062 4.160156 L 10.984375 4.160156 C 11.171875 4.160156 11.324219 4.316406 11.324219 4.507812 C 11.324219 4.703125 11.171875 4.859375 10.984375 4.859375 L 6.039062 4.859375 C 5.851562 4.859375 5.699219 4.703125 5.699219 4.507812 C 5.699219 4.316406 5.851562 4.160156 6.039062 4.160156 Z M 6.039062 6.097656 L 10.984375 6.097656 C 11.171875 6.097656 11.324219 6.253906 11.324219 6.449219 C 11.324219 6.640625 11.171875 6.796875 10.984375 6.796875 L 6.039062 6.796875 C 5.851562 6.796875 5.699219 6.640625 5.699219 6.449219 C 5.699219 6.253906 5.851562 6.097656 6.039062 6.097656 Z M 6.039062 8.039062 L 10.984375 8.039062 C 11.171875 8.039062 11.324219 8.195312 11.324219 8.386719 C 11.324219 8.582031 11.171875 8.738281 10.984375 8.738281 L 6.039062 8.738281 C 5.851562 8.738281 5.699219 8.582031 5.699219 8.386719 C 5.699219 8.195312 5.851562 8.039062 6.039062 8.039062 Z M 6.039062 9.980469 L 10.984375 9.980469 C 11.171875 9.980469 11.324219 10.136719 11.324219 10.328125 C 11.324219 10.421875 11.289062 10.507812 11.230469 10.570312 L 5.796875 10.570312 C 5.738281 10.507812 5.699219 10.421875 5.699219 10.328125 C 5.699219 10.136719 5.851562 9.980469 6.039062 9.980469 Z M 6.039062 9.980469 "/>
<path style=" stroke:none;fill-rule:nonzero;fill:rgb(100%,100%,100%);fill-opacity:0.929412;" d="M 2.957031 10.570312 L 2.957031 2.894531 L 1.207031 2.894531 C 1.125 2.894531 1.050781 2.96875 1.050781 3.054688 L 1.050781 11.78125 C 1.050781 11.867188 1.125 11.941406 1.207031 11.941406 L 2.53125 11.941406 L 2.53125 11.957031 L 2.957031 11.957031 Z M 2.957031 10.570312 "/>
<path style=" stroke:none;fill-rule:nonzero;fill:rgb(100%,100%,100%);fill-opacity:0.929412;" d="M 32.699219 10.570312 C 32.445312 11.070312 32.128906 11.535156 31.765625 11.957031 L 38.277344 11.957031 L 38.277344 2.894531 L 31.78125 2.894531 C 32.816406 4.105469 33.449219 5.683594 33.449219 7.417969 C 33.449219 8.554688 33.175781 9.625 32.699219 10.570312 Z M 35.824219 4.179688 C 36.425781 4.179688 36.910156 4.675781 36.910156 5.289062 C 36.910156 5.90625 36.425781 6.402344 35.824219 6.402344 C 35.226562 6.402344 34.742188 5.90625 34.742188 5.289062 C 34.742188 4.675781 35.226562 4.179688 35.824219 4.179688 Z M 35.824219 4.179688 "/>
<path style=" stroke:none;fill-rule:nonzero;fill:rgb(100%,100%,100%);fill-opacity:0.929412;" d="M 14.160156 9.980469 L 20.5 9.980469 C 20.1875 9.1875 20.011719 8.324219 20.011719 7.417969 C 20.011719 6.511719 20.1875 5.648438 20.5 4.855469 L 14.160156 4.855469 Z M 14.160156 9.980469 "/>
<path style=" stroke:none;fill-rule:nonzero;fill:rgb(100%,100%,100%);fill-opacity:0.929412;" d="M 38.957031 11.957031 L 39.46875 11.957031 L 39.46875 11.941406 L 40.792969 11.941406 C 40.878906 11.941406 40.949219 11.867188 40.949219 11.78125 L 40.949219 3.054688 C 40.949219 2.96875 40.878906 2.894531 40.792969 2.894531 L 38.957031 2.894531 Z M 38.957031 11.957031 "/>
<path style=" stroke:none;fill-rule:nonzero;fill:rgb(100%,100%,100%);fill-opacity:0.701961;" d="M 26.730469 14.296875 C 25.273438 14.296875 23.929688 13.8125 22.832031 13.003906 L 2.53125 13.003906 L 2.53125 14.921875 L 39.46875 14.921875 L 39.46875 13.003906 L 30.632812 13.003906 C 29.53125 13.8125 28.1875 14.296875 26.730469 14.296875 Z M 26.730469 14.296875 "/>
<path style=" stroke:none;fill-rule:nonzero;fill:rgb(100%,100%,100%);fill-opacity:0.701961;" d="M 22.0625 6.28125 C 22.054688 6.320312 22.046875 6.359375 22.039062 6.398438 C 22.023438 6.46875 22.011719 6.542969 22 6.613281 C 21.992188 6.675781 21.984375 6.742188 21.976562 6.808594 C 21.972656 6.859375 21.964844 6.914062 21.960938 6.96875 C 21.953125 7.089844 21.945312 7.210938 21.945312 7.335938 C 21.945312 7.335938 21.945312 7.339844 21.945312 7.339844 C 21.945312 7.804688 22.011719 8.253906 22.128906 8.679688 C 22.328125 9.386719 22.675781 10.03125 23.140625 10.570312 C 23.90625 11.464844 24.984375 12.070312 26.199219 12.210938 C 26.375 12.230469 26.550781 12.238281 26.730469 12.238281 C 27.269531 12.238281 27.785156 12.148438 28.265625 11.980469 C 29.070312 11.699219 29.773438 11.207031 30.324219 10.570312 C 30.644531 10.191406 30.910156 9.761719 31.109375 9.292969 C 31.367188 8.695312 31.515625 8.035156 31.515625 7.339844 C 31.515625 4.632812 29.371094 2.441406 26.730469 2.441406 C 26.46875 2.441406 26.210938 2.460938 25.960938 2.503906 C 25.710938 2.546875 25.46875 2.609375 25.230469 2.6875 L 25.230469 2.691406 C 25.078125 2.742188 24.929688 2.804688 24.78125 2.871094 C 24.746094 2.886719 24.710938 2.90625 24.675781 2.921875 C 24.542969 2.988281 24.414062 3.054688 24.289062 3.132812 C 24.277344 3.136719 24.265625 3.144531 24.253906 3.152344 C 24.109375 3.242188 23.972656 3.339844 23.839844 3.441406 C 23.828125 3.453125 23.816406 3.460938 23.804688 3.472656 C 23.671875 3.578125 23.546875 3.6875 23.425781 3.804688 C 23.425781 3.804688 23.425781 3.804688 23.421875 3.804688 C 23.320312 3.910156 23.21875 4.015625 23.125 4.128906 C 23.09375 4.164062 23.066406 4.203125 23.035156 4.242188 C 23.039062 4.234375 23.042969 4.230469 23.046875 4.226562 C 23.027344 4.253906 23.003906 4.28125 22.980469 4.3125 C 23 4.289062 23.015625 4.265625 23.035156 4.242188 C 23.011719 4.273438 22.988281 4.304688 22.964844 4.335938 C 22.925781 4.382812 22.890625 4.429688 22.855469 4.476562 C 22.800781 4.554688 22.75 4.632812 22.699219 4.714844 C 22.679688 4.746094 22.660156 4.773438 22.640625 4.804688 L 22.644531 4.808594 C 22.425781 5.171875 22.253906 5.566406 22.136719 5.984375 C 22.132812 5.996094 22.128906 6.007812 22.125 6.019531 C 22.101562 6.105469 22.082031 6.191406 22.0625 6.28125 Z M 23.769531 4.34375 C 24.375 3.722656 25.363281 3.722656 25.96875 4.34375 C 26.113281 4.492188 26.222656 4.664062 26.300781 4.847656 C 26.4375 4.816406 26.582031 4.800781 26.730469 4.800781 C 28.097656 4.800781 29.210938 5.9375 29.210938 7.339844 C 29.210938 7.816406 29.078125 8.261719 28.855469 8.640625 C 29.125 8.621094 29.402344 8.714844 29.609375 8.925781 C 29.988281 9.3125 29.988281 9.941406 29.609375 10.324219 C 29.230469 10.710938 28.617188 10.710938 28.242188 10.324219 C 28.03125 10.109375 27.941406 9.820312 27.964844 9.539062 C 27.601562 9.753906 27.179688 9.878906 26.730469 9.878906 C 25.359375 9.878906 24.25 8.742188 24.25 7.339844 C 24.25 7.207031 24.261719 7.078125 24.28125 6.949219 C 24.097656 6.871094 23.921875 6.753906 23.769531 6.597656 C 23.160156 5.976562 23.160156 4.96875 23.769531 4.34375 Z M 23.769531 4.34375 "/>
<path style=" stroke:none;fill-rule:nonzero;fill:rgb(100%,100%,100%);fill-opacity:0.25098;" d="M 26.730469 4.800781 C 26.582031 4.800781 26.4375 4.816406 26.300781 4.847656 C 26.542969 5.425781 26.433594 6.125 25.972656 6.597656 C 25.515625 7.066406 24.847656 7.183594 24.285156 6.949219 C 24.265625 7.078125 24.25 7.207031 24.25 7.339844 C 24.25 8.742188 25.359375 9.878906 26.730469 9.878906 C 27.183594 9.878906 27.601562 9.753906 27.96875 9.539062 C 27.988281 9.316406 28.074219 9.097656 28.242188 8.925781 C 28.414062 8.75 28.632812 8.660156 28.855469 8.640625 C 29.078125 8.261719 29.210938 7.816406 29.210938 7.339844 C 29.210938 5.9375 28.101562 4.800781 26.730469 4.800781 Z M 26.730469 4.800781 "/>
<path style=" stroke:none;fill-rule:nonzero;fill:rgb(100%,100%,100%);fill-opacity:1;" d="M 26.300781 4.847656 C 26.222656 4.664062 26.113281 4.492188 25.96875 4.34375 C 25.363281 3.722656 24.375 3.722656 23.769531 4.34375 C 23.160156 4.96875 23.160156 5.976562 23.769531 6.601562 C 23.921875 6.753906 24.097656 6.871094 24.285156 6.949219 C 24.847656 7.183594 25.515625 7.066406 25.96875 6.601562 C 26.433594 6.125 26.542969 5.425781 26.300781 4.847656 Z M 26.300781 4.847656 "/>
<path style=" stroke:none;fill-rule:nonzero;fill:rgb(100%,100%,100%);fill-opacity:1;" d="M 29.609375 8.925781 C 29.402344 8.714844 29.125 8.621094 28.855469 8.640625 C 28.632812 8.660156 28.414062 8.75 28.242188 8.925781 C 28.074219 9.097656 27.988281 9.316406 27.96875 9.539062 C 27.941406 9.820312 28.03125 10.109375 28.242188 10.328125 C 28.621094 10.714844 29.230469 10.714844 29.609375 10.328125 C 29.988281 9.941406 29.988281 9.3125 29.609375 8.925781 Z M 29.609375 8.925781 "/>
<path style=" stroke:none;fill-rule:nonzero;fill:rgb(100%,100%,100%);fill-opacity:0.501961;" d="M 36.910156 5.289062 C 36.910156 4.675781 36.425781 4.179688 35.824219 4.179688 C 35.226562 4.179688 34.742188 4.675781 34.742188 5.289062 C 34.738281 5.902344 35.226562 6.402344 35.824219 6.402344 C 36.421875 6.402344 36.910156 5.90625 36.910156 5.292969 Z M 36.910156 5.289062 "/>
<path style=" stroke:none;fill-rule:nonzero;fill:rgb(100%,100%,100%);fill-opacity:0.25098;" d="M 38.277344 10.570312 L 38.277344 11.957031 L 38.957031 11.957031 L 38.957031 2.894531 L 38.277344 2.894531 Z M 38.277344 10.570312 "/>
<path style=" stroke:none;fill-rule:nonzero;fill:rgb(100%,100%,100%);fill-opacity:0.25098;" d="M 2.957031 11.957031 L 3.640625 11.957031 L 3.640625 2.894531 L 2.957031 2.894531 Z M 2.957031 11.957031 "/>
<path style=" stroke:none;fill-rule:nonzero;fill:rgb(100%,100%,100%);fill-opacity:0.25098;" d="M 6.039062 4.855469 L 10.984375 4.855469 C 11.171875 4.855469 11.324219 4.699219 11.324219 4.507812 C 11.324219 4.316406 11.171875 4.15625 10.984375 4.15625 L 6.039062 4.15625 C 5.851562 4.15625 5.699219 4.316406 5.699219 4.507812 C 5.699219 4.699219 5.851562 4.855469 6.039062 4.855469 Z M 6.039062 4.855469 "/>
<path style=" stroke:none;fill-rule:nonzero;fill:rgb(100%,100%,100%);fill-opacity:0.25098;" d="M 6.039062 6.796875 L 10.984375 6.796875 C 11.171875 6.796875 11.324219 6.640625 11.324219 6.449219 C 11.324219 6.253906 11.171875 6.097656 10.984375 6.097656 L 6.039062 6.097656 C 5.851562 6.097656 5.699219 6.253906 5.699219 6.449219 C 5.699219 6.640625 5.851562 6.796875 6.039062 6.796875 Z M 6.039062 6.796875 "/>
<path style=" stroke:none;fill-rule:nonzero;fill:rgb(100%,100%,100%);fill-opacity:0.25098;" d="M 6.039062 8.738281 L 10.984375 8.738281 C 11.171875 8.738281 11.324219 8.582031 11.324219 8.386719 C 11.324219 8.195312 11.171875 8.039062 10.984375 8.039062 L 6.039062 8.039062 C 5.851562 8.039062 5.699219 8.195312 5.699219 8.386719 C 5.699219 8.582031 5.851562 8.738281 6.039062 8.738281 Z M 6.039062 8.738281 "/>
<path style=" stroke:none;fill-rule:nonzero;fill:rgb(100%,100%,100%);fill-opacity:0.25098;" d="M 11.230469 10.570312 C 11.289062 10.507812 11.324219 10.421875 11.324219 10.328125 C 11.324219 10.136719 11.171875 9.980469 10.984375 9.980469 L 6.039062 9.980469 C 5.851562 9.980469 5.699219 10.136719 5.699219 10.328125 C 5.699219 10.421875 5.738281 10.507812 5.796875 10.570312 Z M 11.230469 10.570312 "/>
<path style=" stroke:none;fill-rule:nonzero;fill:rgb(100%,100%,100%);fill-opacity:0.25098;" d="M 14.160156 9.980469 L 14.160156 4.855469 L 20.5 4.855469 C 20.59375 4.617188 20.695312 4.382812 20.8125 4.160156 L 13.480469 4.160156 L 13.480469 10.570312 L 20.761719 10.570312 C 20.667969 10.378906 20.578125 10.179688 20.5 9.980469 Z M 14.160156 9.980469 "/>
</g>
</svg>
