<?xml version="1.0" encoding="UTF-8"?>
<svg xmlns="http://www.w3.org/2000/svg" xmlns:xlink="http://www.w3.org/1999/xlink" width="42pt" height="23pt" viewBox="0 0 42 23" version="1.1">
<g id="surface1">
<path style=" stroke:none;fill-rule:nonzero;fill:rgb(24.705882%,41.960784%,63.921569%);fill-opacity:1;" d="M 35.921875 0 C 32.835938 0 30.230469 2.375 29.886719 5.394531 L 1.59375 5.394531 C 0.714844 5.394531 0 6.109375 0 6.988281 L 0 18.652344 C 0 19.527344 0.714844 20.242188 1.59375 20.242188 L 2.804688 20.242188 L 2.804688 23 L 33.765625 23 L 33.765625 20.242188 L 34.886719 20.242188 C 35.765625 20.242188 36.480469 19.527344 36.480469 18.652344 L 36.480469 12.117188 C 37.523438 12.023438 38.488281 11.65625 39.316406 11.097656 C 39.476562 10.988281 39.628906 10.875 39.773438 10.753906 C 39.777344 10.75 39.78125 10.746094 39.785156 10.742188 C 39.933594 10.621094 40.070312 10.496094 40.207031 10.363281 C 40.207031 10.363281 40.210938 10.359375 40.210938 10.355469 C 41.3125 9.257812 42 7.742188 42 6.070312 C 42 2.722656 39.273438 0 35.921875 0 Z M 35.921875 0 "/>
<path style=" stroke:none;fill-rule:nonzero;fill:rgb(100%,100%,100%);fill-opacity:1;" d="M 35.941406 1.117188 C 33.191406 1.117188 30.957031 3.347656 30.957031 6.09375 C 30.957031 8.839844 33.191406 11.074219 35.941406 11.074219 C 38.6875 11.074219 40.925781 8.839844 40.925781 6.09375 C 40.925781 3.347656 38.6875 1.117188 35.941406 1.117188 Z M 34.082031 7.308594 C 33.992188 7.308594 33.902344 7.273438 33.832031 7.203125 C 33.695312 7.066406 33.695312 6.84375 33.832031 6.703125 L 34.09375 6.441406 L 31.929688 6.441406 C 31.734375 6.441406 31.574219 6.285156 31.574219 6.089844 C 31.574219 5.894531 31.734375 5.734375 31.929688 5.734375 L 34.09375 5.734375 L 33.84375 5.484375 C 33.707031 5.347656 33.707031 5.121094 33.84375 4.984375 C 33.984375 4.847656 34.207031 4.847656 34.34375 4.984375 L 35.199219 5.839844 C 35.234375 5.871094 35.257812 5.910156 35.277344 5.953125 C 35.3125 6.039062 35.3125 6.136719 35.277344 6.222656 C 35.257812 6.265625 35.234375 6.308594 35.199219 6.339844 L 34.332031 7.203125 C 34.261719 7.273438 34.171875 7.308594 34.082031 7.308594 Z M 37.050781 8.925781 L 36.199219 9.777344 C 36.128906 9.847656 36.039062 9.882812 35.949219 9.882812 C 35.945312 9.882812 35.941406 9.878906 35.9375 9.878906 C 35.933594 9.878906 35.933594 9.882812 35.929688 9.882812 C 35.808594 9.882812 35.703125 9.816406 35.640625 9.722656 L 34.832031 8.910156 C 34.691406 8.773438 34.691406 8.546875 34.832031 8.410156 C 34.96875 8.273438 35.191406 8.273438 35.332031 8.410156 L 35.574219 8.65625 L 35.574219 3.207031 L 35.332031 3.453125 C 35.261719 3.523438 35.171875 3.554688 35.082031 3.554688 C 34.988281 3.554688 34.898438 3.519531 34.832031 3.453125 C 34.691406 3.3125 34.691406 3.089844 34.832031 2.953125 L 35.683594 2.097656 C 35.824219 1.960938 36.046875 1.960938 36.183594 2.097656 L 37.050781 2.964844 C 37.191406 3.101562 37.191406 3.328125 37.050781 3.464844 C 36.984375 3.535156 36.894531 3.570312 36.800781 3.570312 C 36.710938 3.570312 36.621094 3.535156 36.550781 3.464844 L 36.285156 3.195312 L 36.285156 8.691406 L 36.550781 8.425781 C 36.691406 8.285156 36.914062 8.285156 37.050781 8.425781 C 37.191406 8.5625 37.191406 8.785156 37.050781 8.925781 Z M 39.953125 6.453125 L 37.789062 6.453125 L 38.035156 6.703125 C 38.175781 6.84375 38.175781 7.066406 38.035156 7.203125 C 37.96875 7.273438 37.878906 7.308594 37.785156 7.308594 C 37.695312 7.308594 37.605469 7.273438 37.535156 7.203125 L 36.683594 6.351562 C 36.648438 6.320312 36.625 6.28125 36.605469 6.238281 C 36.570312 6.148438 36.570312 6.050781 36.605469 5.964844 C 36.625 5.921875 36.648438 5.882812 36.683594 5.851562 L 37.550781 4.984375 C 37.6875 4.847656 37.910156 4.847656 38.050781 4.984375 C 38.1875 5.121094 38.1875 5.347656 38.050781 5.484375 L 37.789062 5.746094 L 39.953125 5.746094 C 40.148438 5.746094 40.304688 5.90625 40.304688 6.101562 C 40.304688 6.296875 40.148438 6.453125 39.953125 6.453125 Z M 39.953125 6.453125 "/>
<path style=" stroke:none;fill-rule:nonzero;fill:rgb(100%,100%,100%);fill-opacity:0.501961;" d="M 28.1875 12.753906 C 28.1875 12.128906 27.679688 11.621094 27.050781 11.621094 C 26.421875 11.617188 25.914062 12.128906 25.914062 12.753906 C 25.914062 13.382812 26.421875 13.890625 27.050781 13.890625 C 27.675781 13.890625 28.1875 13.382812 28.1875 12.753906 Z M 28.1875 12.753906 "/>
<path style=" stroke:none;fill-rule:nonzero;fill:rgb(100%,100%,100%);fill-opacity:0.65098;" d="M 3.246094 12.242188 L 7.136719 12.242188 L 7.136719 8.390625 L 3.246094 8.390625 Z M 3.824219 8.941406 L 6.585938 8.941406 L 6.585938 10.898438 L 5.789062 10.898438 L 5.789062 11.699219 L 4.625 11.699219 L 4.625 10.898438 L 3.824219 10.898438 Z M 3.824219 8.941406 "/>
<path style=" stroke:none;fill-rule:nonzero;fill:rgb(100%,100%,100%);fill-opacity:0.65098;" d="M 8.488281 12.242188 L 12.378906 12.242188 L 12.378906 8.394531 L 8.488281 8.394531 Z M 9.066406 8.941406 L 11.828125 8.941406 L 11.828125 10.902344 L 11.027344 10.902344 L 11.027344 11.703125 L 9.867188 11.703125 L 9.867188 10.902344 L 9.066406 10.902344 Z M 9.066406 8.941406 "/>
<path style=" stroke:none;fill-rule:nonzero;fill:rgb(100%,100%,100%);fill-opacity:0.65098;" d="M 17.605469 8.394531 L 13.714844 8.394531 L 13.714844 12.242188 L 17.605469 12.242188 Z M 17.054688 10.898438 L 16.257812 10.898438 L 16.257812 11.699219 L 15.09375 11.699219 L 15.09375 10.898438 L 14.292969 10.898438 L 14.292969 8.941406 L 17.054688 8.941406 Z M 17.054688 10.898438 "/>
<path style=" stroke:none;fill-rule:nonzero;fill:rgb(100%,100%,100%);fill-opacity:0.65098;" d="M 18.941406 12.246094 L 22.832031 12.246094 L 22.832031 8.398438 L 18.941406 8.398438 Z M 19.519531 8.941406 L 22.28125 8.941406 L 22.28125 10.898438 L 21.484375 10.898438 L 21.484375 11.699219 L 20.320312 11.699219 L 20.320312 10.898438 L 19.519531 10.898438 Z M 19.519531 8.941406 "/>
<path style=" stroke:none;fill-rule:nonzero;fill:rgb(100%,100%,100%);fill-opacity:0.65098;" d="M 3.246094 17.464844 L 7.136719 17.464844 L 7.136719 13.617188 L 3.246094 13.617188 Z M 3.824219 14.164062 L 6.585938 14.164062 L 6.585938 16.121094 L 5.789062 16.121094 L 5.789062 16.921875 L 4.625 16.921875 L 4.625 16.121094 L 3.824219 16.121094 Z M 3.824219 14.164062 "/>
<path style=" stroke:none;fill-rule:nonzero;fill:rgb(100%,100%,100%);fill-opacity:0.65098;" d="M 8.488281 17.46875 L 12.378906 17.46875 L 12.378906 13.621094 L 8.488281 13.621094 Z M 9.066406 14.167969 L 11.828125 14.167969 L 11.828125 16.128906 L 11.027344 16.128906 L 11.027344 16.925781 L 9.867188 16.925781 L 9.867188 16.128906 L 9.066406 16.128906 Z M 9.066406 14.167969 "/>
<path style=" stroke:none;fill-rule:nonzero;fill:rgb(100%,100%,100%);fill-opacity:0.65098;" d="M 13.730469 17.472656 L 17.617188 17.472656 L 17.617188 13.625 L 13.730469 13.625 Z M 14.292969 14.164062 L 17.054688 14.164062 L 17.054688 16.125 L 16.257812 16.125 L 16.257812 16.925781 L 15.09375 16.925781 L 15.09375 16.125 L 14.292969 16.125 Z M 14.292969 14.164062 "/>
<path style=" stroke:none;fill-rule:nonzero;fill:rgb(100%,100%,100%);fill-opacity:0.65098;" d="M 18.941406 17.472656 L 22.832031 17.472656 L 22.832031 13.625 L 18.941406 13.625 Z M 19.519531 14.164062 L 22.28125 14.164062 L 22.28125 16.125 L 21.484375 16.125 L 21.484375 16.925781 L 20.320312 16.925781 L 20.320312 16.125 L 19.519531 16.125 Z M 19.519531 14.164062 "/>
<path style=" stroke:none;fill-rule:nonzero;fill:rgb(100%,100%,100%);fill-opacity:0.701961;" d="M 4.027344 20.246094 L 32.523438 20.246094 L 32.523438 21.921875 L 4.027344 21.921875 Z M 4.027344 20.246094 "/>
<path style=" stroke:none;fill-rule:nonzero;fill:rgb(100%,100%,100%);fill-opacity:0.929412;" d="M 29.933594 6.621094 L 1.777344 6.621094 C 1.488281 6.621094 1.253906 6.855469 1.253906 7.144531 L 1.253906 18.671875 C 1.253906 18.960938 1.488281 19.195312 1.777344 19.195312 L 34.679688 19.195312 C 34.96875 19.195312 35.203125 18.960938 35.203125 18.671875 L 35.203125 12.074219 C 32.394531 11.730469 30.179688 9.453125 29.933594 6.621094 Z M 7.136719 17.464844 L 3.246094 17.464844 L 3.246094 13.617188 L 7.136719 13.617188 Z M 7.136719 12.242188 L 3.246094 12.242188 L 3.246094 8.390625 L 7.136719 8.390625 Z M 12.378906 17.46875 L 8.488281 17.46875 L 8.488281 13.621094 L 12.378906 13.621094 Z M 12.378906 12.242188 L 8.488281 12.242188 L 8.488281 8.394531 L 12.378906 8.394531 Z M 13.714844 8.394531 L 17.605469 8.394531 L 17.605469 12.242188 L 13.714844 12.242188 Z M 17.617188 17.472656 L 13.730469 17.472656 L 13.730469 13.625 L 17.617188 13.625 Z M 22.832031 17.472656 L 18.941406 17.472656 L 18.941406 13.625 L 22.832031 13.625 Z M 22.832031 12.246094 L 18.941406 12.246094 L 18.941406 8.398438 L 22.832031 8.398438 Z M 27.050781 13.890625 C 26.421875 13.890625 25.914062 13.382812 25.914062 12.753906 C 25.914062 12.128906 26.421875 11.621094 27.050781 11.621094 C 27.675781 11.621094 28.1875 12.128906 28.1875 12.753906 C 28.1875 13.382812 27.679688 13.890625 27.050781 13.890625 Z M 31.339844 13.890625 C 30.710938 13.890625 30.203125 13.382812 30.203125 12.753906 C 30.203125 12.128906 30.710938 11.621094 31.339844 11.621094 C 31.96875 11.621094 32.476562 12.128906 32.476562 12.753906 C 32.476562 13.382812 31.96875 13.890625 31.339844 13.890625 Z M 31.339844 13.890625 "/>
</g>
</svg>
