<?xml version="1.0" encoding="UTF-8"?>
<svg xmlns="http://www.w3.org/2000/svg" xmlns:xlink="http://www.w3.org/1999/xlink" width="34pt" height="38pt" viewBox="0 0 34 38" version="1.1">
<g id="surface1">
<path style=" stroke:none;fill-rule:nonzero;fill:rgb(24.705882%,41.960784%,63.921569%);fill-opacity:1;" d="M 34 5.746094 L 34 4.242188 L 21.636719 4.242188 L 17.996094 0.613281 C 17.8125 0.25 17.4375 0 17 0 C 16.59375 0 16.242188 0.214844 16.046875 0.535156 L 12.324219 4.242188 L 0 4.242188 L 0 5.746094 L 1.261719 5.746094 L 1.261719 31.953125 L 0 31.953125 L 0 33.453125 L 16.648438 33.453125 L 16.648438 35.144531 C 16.015625 35.304688 15.542969 35.871094 15.542969 36.546875 C 15.542969 37.347656 16.195312 38 17 38 C 17.800781 38 18.457031 37.347656 18.457031 36.546875 C 18.457031 35.871094 17.984375 35.304688 17.351562 35.144531 L 17.351562 33.453125 L 34 33.453125 L 34 31.953125 L 32.738281 31.953125 L 32.738281 5.746094 Z M 17.75 36.550781 C 17.75 36.960938 17.414062 37.296875 17 37.296875 C 16.585938 37.296875 16.25 36.960938 16.25 36.550781 C 16.25 36.136719 16.585938 35.800781 17 35.800781 C 17.414062 35.800781 17.75 36.136719 17.75 36.550781 Z M 15.984375 1.589844 C 16.164062 1.972656 16.550781 2.238281 17 2.238281 C 17.441406 2.238281 17.820312 1.984375 18.003906 1.613281 L 20.640625 4.242188 L 13.324219 4.242188 Z M 15.984375 1.589844 "/>
<path style=" stroke:none;fill-rule:nonzero;fill:rgb(100%,100%,100%);fill-opacity:0.929412;" d="M 2.363281 5.683594 L 31.636719 5.683594 L 31.636719 32 L 2.363281 32 Z M 2.363281 5.683594 "/>
</g>
</svg>
