<?xml version="1.0" encoding="UTF-8"?>
<svg xmlns="http://www.w3.org/2000/svg" xmlns:xlink="http://www.w3.org/1999/xlink" width="39pt" height="39pt" viewBox="0 0 39 39" version="1.1">
<g id="surface1">
<path style=" stroke:none;fill-rule:nonzero;fill:rgb(24.705882%,41.960784%,63.921569%);fill-opacity:1;" d="M 38.640625 32.289062 L 28.4375 22.085938 C 28.328125 21.976562 28.179688 21.921875 28.027344 21.929688 L 24.238281 22.167969 L 28.132812 18.273438 C 28.363281 18.039062 28.492188 17.730469 28.492188 17.398438 C 28.492188 17.070312 28.363281 16.757812 28.132812 16.527344 L 22.457031 10.851562 C 21.992188 10.382812 21.175781 10.382812 20.710938 10.851562 L 16.757812 14.800781 L 17.089844 10.738281 L 6.710938 0.359375 C 6.480469 0.128906 6.167969 0 5.839844 0 C 5.507812 0 5.199219 0.128906 4.964844 0.359375 L 0.359375 4.964844 C 0.128906 5.199219 0 5.507812 0 5.839844 C 0 6.171875 0.128906 6.480469 0.359375 6.714844 L 10.734375 17.085938 L 14.722656 16.835938 L 10.5625 20.996094 C 10.132812 21.425781 10.085938 22.09375 10.421875 22.574219 L 9.015625 22.921875 C 6.875 21.960938 4.941406 22.007812 3.898438 23.050781 L 3.523438 23.425781 L 3.539062 23.4375 L 3.527344 23.449219 L 6.628906 26.546875 L 5.253906 32.074219 C 4.722656 32.03125 4.207031 32.21875 3.832031 32.59375 C 3.125 33.300781 3.125 34.445312 3.832031 35.152344 C 4.171875 35.492188 4.625 35.679688 5.109375 35.679688 C 5.59375 35.679688 6.046875 35.492188 6.386719 35.152344 C 6.765625 34.773438 6.949219 34.246094 6.90625 33.730469 L 12.433594 32.355469 L 15.558594 35.480469 L 15.933594 35.105469 C 16.207031 34.835938 16.402344 34.503906 16.542969 34.132812 C 16.546875 34.125 16.550781 34.113281 16.554688 34.101562 C 16.605469 33.964844 16.648438 33.824219 16.679688 33.675781 C 16.695312 33.605469 16.710938 33.527344 16.722656 33.453125 C 16.730469 33.390625 16.742188 33.332031 16.746094 33.273438 C 16.761719 33.128906 16.769531 32.980469 16.769531 32.828125 C 16.769531 32.792969 16.765625 32.761719 16.765625 32.730469 C 16.75 31.886719 16.503906 30.925781 16.027344 29.886719 L 16.335938 28.507812 C 16.808594 28.890625 17.550781 28.851562 17.984375 28.417969 L 22.242188 24.160156 L 21.929688 28.019531 C 21.917969 28.171875 21.972656 28.324219 22.082031 28.4375 L 32.285156 38.640625 C 32.519531 38.871094 32.832031 39 33.160156 39 C 33.492188 39 33.800781 38.871094 34.035156 38.640625 L 38.640625 34.035156 C 38.871094 33.804688 39 33.492188 39 33.160156 C 39 32.832031 38.871094 32.519531 38.640625 32.289062 Z M 8.085938 28.003906 L 8.90625 28.828125 L 7.539062 30.195312 Z M 8.789062 31.441406 L 10.15625 30.074219 L 10.976562 30.898438 Z M 8.789062 31.441406 "/>
<path style=" stroke:none;fill-rule:nonzero;fill:rgb(100%,100%,100%);fill-opacity:0.929412;" d="M 5.855469 33.871094 C 5.855469 33.457031 5.519531 33.121094 5.105469 33.121094 C 4.691406 33.117188 4.351562 33.457031 4.351562 33.871094 C 4.351562 34.285156 4.6875 34.621094 5.105469 34.621094 C 5.519531 34.621094 5.855469 34.285156 5.855469 33.871094 Z M 5.855469 33.871094 "/>
<path style=" stroke:none;fill-rule:nonzero;fill:rgb(100%,100%,100%);fill-opacity:0.929412;" d="M 15.722656 26.410156 L 16.988281 27.671875 C 17.03125 27.714844 17.082031 27.722656 17.113281 27.722656 C 17.140625 27.722656 17.191406 27.714844 17.234375 27.671875 L 27.382812 17.523438 C 27.429688 17.480469 27.433594 17.425781 27.433594 17.398438 C 27.433594 17.371094 27.429688 17.316406 27.382812 17.273438 L 21.707031 11.597656 C 21.664062 11.554688 21.609375 11.546875 21.582031 11.546875 C 21.554688 11.546875 21.503906 11.554688 21.457031 11.597656 L 15.46875 17.585938 L 11.3125 21.746094 C 11.242188 21.8125 11.242188 21.929688 11.3125 21.996094 L 11.808594 22.496094 Z M 15.722656 26.410156 "/>
<path style=" stroke:none;fill-rule:nonzero;fill:rgb(100%,100%,100%);fill-opacity:0.929412;" d="M 6.160156 23.296875 C 5.75 23.296875 5.398438 23.367188 5.105469 23.507812 L 15.492188 33.894531 C 15.589844 33.695312 15.648438 33.46875 15.683594 33.21875 C 15.6875 33.191406 15.691406 33.164062 15.691406 33.140625 C 15.703125 33.042969 15.703125 32.941406 15.703125 32.835938 C 15.703125 32.769531 15.703125 32.699219 15.699219 32.632812 C 15.695312 32.542969 15.6875 32.457031 15.679688 32.367188 C 15.667969 32.289062 15.65625 32.210938 15.640625 32.128906 C 15.632812 32.066406 15.621094 32.007812 15.609375 31.949219 C 15.589844 31.859375 15.574219 31.773438 15.550781 31.683594 C 15.535156 31.628906 15.519531 31.570312 15.503906 31.511719 C 15.476562 31.417969 15.449219 31.328125 15.417969 31.230469 C 15.355469 31.039062 15.285156 30.847656 15.207031 30.65625 C 15.203125 30.652344 15.203125 30.644531 15.199219 30.640625 C 14.636719 29.289062 13.65625 27.878906 12.394531 26.617188 C 10.378906 24.601562 7.929688 23.296875 6.160156 23.296875 Z M 6.160156 23.296875 "/>
<path style=" stroke:none;fill-rule:nonzero;fill:rgb(100%,100%,100%);fill-opacity:0.929412;" d="M 10.390625 23.671875 C 11.332031 24.253906 12.269531 24.996094 13.140625 25.867188 C 13.96875 26.695312 14.683594 27.589844 15.257812 28.492188 L 15.449219 27.632812 L 11.273438 23.457031 Z M 10.390625 23.671875 "/>
<path style=" stroke:none;fill-rule:nonzero;fill:rgb(100%,100%,100%);fill-opacity:0.929412;" d="M 37.890625 33.035156 L 27.855469 23 L 23.378906 23.28125 L 23.003906 27.859375 L 33.035156 37.890625 C 33.082031 37.933594 33.132812 37.941406 33.160156 37.941406 C 33.1875 37.941406 33.242188 37.933594 33.285156 37.890625 L 37.890625 33.285156 C 37.933594 33.242188 37.941406 33.191406 37.941406 33.160156 C 37.941406 33.132812 37.933594 33.082031 37.890625 33.035156 Z M 31.050781 30.796875 L 33.003906 28.84375 L 35.019531 30.859375 L 33.066406 32.8125 Z M 30.800781 30.546875 L 28.820312 28.570312 L 30.773438 26.617188 L 32.753906 28.59375 Z M 28.429688 24.269531 L 30.527344 26.367188 L 28.570312 28.320312 L 26.476562 26.222656 Z M 26.226562 26.472656 L 28.320312 28.570312 L 26.320312 30.570312 L 24.222656 28.472656 Z M 26.570312 30.820312 L 28.570312 28.816406 L 30.550781 30.796875 L 28.546875 32.796875 Z M 28.796875 33.050781 L 30.800781 31.046875 L 32.816406 33.0625 L 30.816406 35.066406 Z M 33.125 37.375 L 31.0625 35.316406 L 33.066406 33.3125 L 35.125 35.371094 Z M 35.375 35.121094 L 33.316406 33.0625 L 35.269531 31.109375 L 37.328125 33.167969 Z M 35.375 35.121094 "/>
<path style=" stroke:none;fill-rule:nonzero;fill:rgb(100%,100%,100%);fill-opacity:0.929412;" d="M 5.964844 1.109375 C 5.917969 1.066406 5.867188 1.058594 5.839844 1.058594 C 5.8125 1.058594 5.757812 1.066406 5.714844 1.109375 L 1.109375 5.714844 C 1.066406 5.757812 1.058594 5.8125 1.058594 5.839844 C 1.058594 5.867188 1.066406 5.921875 1.109375 5.964844 L 11.144531 16 L 15.621094 15.71875 L 15.996094 11.140625 Z M 13.058594 8.859375 Z M 12.808594 8.609375 L 10.835938 10.582031 L 8.679688 8.425781 L 10.652344 6.453125 Z M 10.402344 6.203125 L 8.429688 8.175781 L 6.3125 6.058594 L 8.285156 4.085938 Z M 5.800781 1.601562 L 8.035156 3.835938 L 6.0625 5.808594 L 3.828125 3.574219 Z M 3.828125 3.574219 Z M 3.578125 3.824219 L 5.8125 6.058594 L 3.789062 8.078125 L 1.558594 5.847656 Z M 4.039062 8.328125 L 6.0625 6.308594 L 8.179688 8.425781 L 6.15625 10.445312 Z M 6.40625 10.695312 L 8.429688 8.671875 L 10.585938 10.832031 L 8.5625 12.851562 Z M 11.007812 15.296875 L 8.8125 13.101562 L 10.835938 11.082031 L 13.027344 13.273438 Z M 13.277344 13.023438 L 11.085938 10.832031 L 13.058594 8.859375 L 15.25 11.050781 Z M 13.277344 13.023438 "/>
<path style=" stroke:none;fill-rule:nonzero;fill:rgb(100%,100%,100%);fill-opacity:0.501961;" d="M 10.863281 11.082031 L 13.058594 13.273438 L 11.035156 15.296875 L 8.84375 13.101562 Z M 10.863281 11.082031 "/>
<path style=" stroke:none;fill-rule:nonzero;fill:rgb(100%,100%,100%);fill-opacity:0.501961;" d="M 11.113281 10.832031 L 13.308594 13.023438 L 15.28125 11.050781 L 13.085938 8.859375 Z M 11.113281 10.832031 "/>
<path style=" stroke:none;fill-rule:nonzero;fill:rgb(100%,100%,100%);fill-opacity:0.501961;" d="M 10.613281 10.832031 L 8.457031 8.675781 L 6.4375 10.695312 L 8.59375 12.851562 Z M 10.613281 10.832031 "/>
<path style=" stroke:none;fill-rule:nonzero;fill:rgb(100%,100%,100%);fill-opacity:0.501961;" d="M 6.339844 6.058594 L 8.457031 8.175781 L 10.429688 6.203125 L 8.3125 4.085938 Z M 6.339844 6.058594 "/>
<path style=" stroke:none;fill-rule:nonzero;fill:rgb(100%,100%,100%);fill-opacity:0.501961;" d="M 8.207031 8.425781 L 6.09375 6.308594 L 4.070312 8.328125 L 6.1875 10.445312 Z M 8.207031 8.425781 "/>
<path style=" stroke:none;fill-rule:nonzero;fill:rgb(100%,100%,100%);fill-opacity:0.501961;" d="M 8.707031 8.425781 L 10.863281 10.582031 L 12.835938 8.609375 L 10.679688 6.453125 Z M 8.707031 8.425781 "/>
<path style=" stroke:none;fill-rule:nonzero;fill:rgb(100%,100%,100%);fill-opacity:0.501961;" d="M 6.09375 5.808594 L 3.859375 3.574219 L 5.832031 1.601562 L 8.066406 3.835938 Z M 6.09375 5.808594 "/>
<path style=" stroke:none;fill-rule:nonzero;fill:rgb(100%,100%,100%);fill-opacity:0.501961;" d="M 5.84375 6.058594 L 3.609375 3.824219 L 1.589844 5.847656 L 3.820312 8.078125 Z M 5.84375 6.058594 "/>
<path style=" stroke:none;fill-rule:nonzero;fill:rgb(100%,100%,100%);fill-opacity:0.501961;" d="M 28.601562 28.320312 L 26.507812 26.222656 L 28.460938 24.269531 L 30.554688 26.363281 Z M 28.601562 28.320312 "/>
<path style=" stroke:none;fill-rule:nonzero;fill:rgb(100%,100%,100%);fill-opacity:0.501961;" d="M 31.078125 30.796875 L 33.09375 32.8125 L 35.050781 30.859375 L 33.035156 28.84375 Z M 31.078125 30.796875 "/>
<path style=" stroke:none;fill-rule:nonzero;fill:rgb(100%,100%,100%);fill-opacity:0.501961;" d="M 30.582031 30.796875 L 28.601562 28.816406 L 26.597656 30.820312 L 28.578125 32.796875 Z M 30.582031 30.796875 "/>
<path style=" stroke:none;fill-rule:nonzero;fill:rgb(100%,100%,100%);fill-opacity:0.501961;" d="M 32.847656 33.0625 L 30.828125 31.046875 L 28.828125 33.046875 L 30.84375 35.0625 Z M 32.847656 33.0625 "/>
<path style=" stroke:none;fill-rule:nonzero;fill:rgb(100%,100%,100%);fill-opacity:0.501961;" d="M 28.351562 28.570312 L 26.253906 26.472656 L 24.253906 28.472656 L 26.351562 30.570312 Z M 28.351562 28.570312 "/>
<path style=" stroke:none;fill-rule:nonzero;fill:rgb(100%,100%,100%);fill-opacity:0.501961;" d="M 33.34375 33.0625 L 35.40625 35.121094 L 37.359375 33.167969 L 35.300781 31.109375 Z M 33.34375 33.0625 "/>
<path style=" stroke:none;fill-rule:nonzero;fill:rgb(100%,100%,100%);fill-opacity:0.501961;" d="M 33.097656 33.3125 L 35.15625 35.371094 L 33.152344 37.371094 L 31.097656 35.3125 Z M 33.097656 33.3125 "/>
<path style=" stroke:none;fill-rule:nonzero;fill:rgb(100%,100%,100%);fill-opacity:0.501961;" d="M 28.851562 28.570312 L 30.828125 30.546875 L 32.785156 28.59375 L 30.804688 26.613281 Z M 28.851562 28.570312 "/>
</g>
</svg>
