<?xml version="1.0" encoding="UTF-8"?>
<svg xmlns="http://www.w3.org/2000/svg" xmlns:xlink="http://www.w3.org/1999/xlink" width="21pt" height="34pt" viewBox="0 0 21 34" version="1.1">
<g id="surface1">
<path style=" stroke:none;fill-rule:nonzero;fill:rgb(24.705882%,41.960784%,63.921569%);fill-opacity:1;" d="M 1.910156 34 L 19.089844 34 C 20.144531 34 21 33.136719 21 32.074219 L 21 21.554688 C 21 20.996094 20.757812 20.480469 20.359375 20.121094 L 20.359375 19.65625 C 20.757812 19.296875 21 18.78125 21 18.222656 L 21 14.894531 C 21 14.335938 20.757812 13.816406 20.359375 13.460938 L 20.359375 13.152344 C 20.757812 12.792969 21 12.273438 21 11.71875 L 21 8.386719 C 21 7.832031 20.757812 7.3125 20.359375 6.953125 L 20.359375 6.644531 C 20.757812 6.289062 21 5.769531 21 5.210938 L 21 1.882812 C 21 1.070312 20.488281 0.34375 19.722656 0.0703125 L 19.570312 0.015625 L 19.40625 0.015625 L 1.644531 0 L 1.507812 0 L 1.375 0.0390625 C 0.566406 0.277344 0 1.035156 0 1.882812 L 0 5.210938 C 0 5.789062 0.265625 6.328125 0.6875 6.6875 L 0.6875 6.914062 C 0.265625 7.273438 0 7.808594 0 8.386719 L 0 11.71875 C 0 12.296875 0.265625 12.832031 0.6875 13.191406 L 0.6875 13.417969 C 0.265625 13.777344 0 14.316406 0 14.894531 L 0 18.222656 C 0 18.800781 0.265625 19.339844 0.6875 19.695312 L 0.6875 20.082031 C 0.265625 20.4375 0 20.976562 0 21.554688 L 0 32.074219 C 0 33.136719 0.855469 34 1.910156 34 Z M 1.910156 34 "/>
<path style=" stroke:none;fill-rule:nonzero;fill:rgb(100%,100%,100%);fill-opacity:0.501961;" d="M 16.03125 3.492188 C 16.03125 3.050781 15.675781 2.691406 15.234375 2.691406 C 14.796875 2.691406 14.441406 3.046875 14.4375 3.492188 C 14.4375 3.9375 14.796875 4.296875 15.234375 4.296875 C 15.671875 4.296875 16.03125 3.9375 16.03125 3.492188 Z M 16.03125 3.492188 "/>
<path style=" stroke:none;fill-rule:nonzero;fill:rgb(100%,100%,100%);fill-opacity:0.501961;" d="M 16.03125 10.019531 C 16.03125 9.574219 15.675781 9.214844 15.234375 9.214844 C 14.796875 9.214844 14.441406 9.574219 14.4375 10.019531 C 14.4375 10.460938 14.796875 10.820312 15.234375 10.820312 C 15.671875 10.820312 16.03125 10.460938 16.03125 10.019531 Z M 16.03125 10.019531 "/>
<path style=" stroke:none;fill-rule:nonzero;fill:rgb(100%,100%,100%);fill-opacity:0.501961;" d="M 16.03125 16.5625 C 16.03125 16.121094 15.675781 15.761719 15.234375 15.761719 C 14.796875 15.761719 14.441406 16.121094 14.4375 16.5625 C 14.4375 17.007812 14.796875 17.367188 15.234375 17.367188 C 15.671875 17.367188 16.03125 17.007812 16.03125 16.5625 Z M 16.03125 16.5625 "/>
<path style=" stroke:none;fill-rule:nonzero;fill:rgb(100%,100%,100%);fill-opacity:0.25098;" d="M 1.644531 6.171875 L 19.40625 6.171875 L 19.40625 7.421875 L 1.644531 7.421875 Z M 1.644531 6.171875 "/>
<path style=" stroke:none;fill-rule:nonzero;fill:rgb(100%,100%,100%);fill-opacity:0.25098;" d="M 1.644531 12.683594 L 19.40625 12.683594 L 19.40625 13.933594 L 1.644531 13.933594 Z M 1.644531 12.683594 "/>
<path style=" stroke:none;fill-rule:nonzero;fill:rgb(100%,100%,100%);fill-opacity:0.25098;" d="M 1.644531 19.257812 L 19.40625 19.257812 L 19.40625 20.507812 L 1.644531 20.507812 Z M 1.644531 19.257812 "/>
<path style=" stroke:none;fill-rule:nonzero;fill:rgb(100%,100%,100%);fill-opacity:0.8;" d="M 19.40625 7.484375 L 19.40625 7.421875 L 1.644531 7.421875 L 1.644531 7.46875 C 1.246094 7.585938 0.953125 7.953125 0.953125 8.386719 L 0.953125 11.714844 C 0.953125 12.152344 1.25 12.519531 1.644531 12.636719 L 1.644531 12.683594 L 19.40625 12.683594 L 19.40625 12.621094 C 19.777344 12.488281 20.046875 12.136719 20.046875 11.714844 L 20.046875 8.386719 C 20.046875 7.96875 19.777344 7.617188 19.40625 7.484375 Z M 15.234375 10.820312 C 14.796875 10.820312 14.4375 10.460938 14.4375 10.019531 C 14.4375 9.574219 14.796875 9.214844 15.234375 9.214844 C 15.675781 9.214844 16.03125 9.574219 16.03125 10.019531 C 16.03125 10.460938 15.675781 10.820312 15.234375 10.820312 Z M 17.886719 10.820312 C 17.445312 10.820312 17.089844 10.460938 17.089844 10.019531 C 17.089844 9.574219 17.449219 9.214844 17.886719 9.214844 C 18.324219 9.214844 18.679688 9.574219 18.679688 10.019531 C 18.679688 10.460938 18.324219 10.820312 17.886719 10.820312 Z M 17.886719 10.820312 "/>
<path style=" stroke:none;fill-rule:nonzero;fill:rgb(100%,100%,100%);fill-opacity:0.8;" d="M 19.40625 13.988281 L 19.40625 13.933594 L 1.644531 13.933594 L 1.644531 13.972656 C 1.246094 14.089844 0.953125 14.457031 0.953125 14.894531 L 0.953125 18.222656 C 0.953125 18.660156 1.25 19.027344 1.644531 19.144531 L 1.644531 19.257812 L 19.40625 19.257812 L 19.40625 19.128906 C 19.777344 18.996094 20.046875 18.640625 20.046875 18.222656 L 20.046875 14.894531 C 20.046875 14.476562 19.777344 14.121094 19.40625 13.988281 Z M 15.234375 17.367188 C 14.796875 17.367188 14.4375 17.007812 14.4375 16.5625 C 14.4375 16.121094 14.796875 15.761719 15.234375 15.761719 C 15.675781 15.761719 16.03125 16.121094 16.03125 16.5625 C 16.03125 17.007812 15.675781 17.367188 15.234375 17.367188 Z M 17.886719 17.367188 C 17.445312 17.367188 17.089844 17.007812 17.089844 16.5625 C 17.089844 16.121094 17.449219 15.761719 17.886719 15.761719 C 18.324219 15.761719 18.679688 16.121094 18.679688 16.5625 C 18.679688 17.007812 18.324219 17.367188 17.886719 17.367188 Z M 17.886719 17.367188 "/>
<path style=" stroke:none;fill-rule:nonzero;fill:rgb(100%,100%,100%);fill-opacity:0.8;" d="M 19.40625 0.976562 L 1.644531 0.960938 C 1.246094 1.078125 0.953125 1.445312 0.953125 1.882812 L 0.953125 5.210938 C 0.953125 5.648438 1.25 6.015625 1.644531 6.132812 L 1.644531 6.171875 L 19.40625 6.171875 L 19.40625 6.117188 C 19.777344 5.984375 20.046875 5.628906 20.046875 5.210938 L 20.046875 1.882812 C 20.046875 1.464844 19.777344 1.109375 19.40625 0.976562 Z M 15.234375 4.296875 C 14.796875 4.296875 14.4375 3.9375 14.4375 3.492188 C 14.4375 3.050781 14.796875 2.691406 15.234375 2.691406 C 15.675781 2.691406 16.03125 3.050781 16.03125 3.492188 C 16.03125 3.9375 15.675781 4.296875 15.234375 4.296875 Z M 17.886719 4.296875 C 17.445312 4.296875 17.089844 3.9375 17.089844 3.492188 C 17.089844 3.050781 17.449219 2.691406 17.886719 2.691406 C 18.324219 2.691406 18.679688 3.050781 18.679688 3.492188 C 18.679688 3.9375 18.324219 4.296875 17.886719 4.296875 Z M 17.886719 4.296875 "/>
<path style=" stroke:none;fill-rule:nonzero;fill:rgb(100%,100%,100%);fill-opacity:0.8;" d="M 19.40625 20.648438 L 19.40625 20.507812 L 1.644531 20.507812 L 1.644531 20.632812 C 1.246094 20.75 0.953125 21.117188 0.953125 21.554688 L 0.953125 32.074219 C 0.953125 32.601562 1.382812 33.035156 1.910156 33.035156 L 19.089844 33.035156 C 19.617188 33.035156 20.046875 32.601562 20.046875 32.074219 L 20.046875 21.554688 C 20.046875 21.136719 19.777344 20.78125 19.40625 20.648438 Z M 4.066406 30.207031 C 4.011719 30.207031 3.960938 30.195312 3.910156 30.167969 C 3.757812 30.082031 3.703125 29.886719 3.789062 29.730469 L 5.976562 25.734375 C 6.0625 25.578125 6.257812 25.523438 6.410156 25.609375 C 6.5625 25.695312 6.621094 25.890625 6.535156 26.046875 L 4.34375 30.042969 C 4.285156 30.148438 4.175781 30.207031 4.066406 30.207031 Z M 6.660156 30.207031 C 6.605469 30.207031 6.554688 30.195312 6.503906 30.167969 C 6.351562 30.082031 6.296875 29.886719 6.378906 29.730469 L 8.570312 25.734375 C 8.65625 25.578125 8.851562 25.523438 9.003906 25.609375 C 9.15625 25.695312 9.214844 25.890625 9.128906 26.046875 L 6.9375 30.042969 C 6.878906 30.148438 6.769531 30.207031 6.660156 30.207031 Z M 9.253906 30.207031 C 9.199219 30.207031 9.148438 30.195312 9.097656 30.167969 C 8.945312 30.082031 8.890625 29.886719 8.972656 29.730469 L 11.164062 25.734375 C 11.25 25.578125 11.445312 25.523438 11.597656 25.609375 C 11.75 25.695312 11.804688 25.890625 11.722656 26.046875 L 9.53125 30.042969 C 9.472656 30.148438 9.363281 30.207031 9.253906 30.207031 Z M 11.847656 30.207031 C 11.792969 30.207031 11.742188 30.195312 11.691406 30.167969 C 11.539062 30.082031 11.484375 29.886719 11.566406 29.730469 L 13.757812 25.734375 C 13.84375 25.578125 14.039062 25.523438 14.191406 25.609375 C 14.34375 25.695312 14.398438 25.890625 14.316406 26.046875 L 12.125 30.042969 C 12.066406 30.148438 11.957031 30.207031 11.847656 30.207031 Z M 16.90625 26.046875 L 14.71875 30.042969 C 14.660156 30.148438 14.550781 30.207031 14.4375 30.207031 C 14.386719 30.207031 14.335938 30.195312 14.285156 30.167969 C 14.132812 30.082031 14.078125 29.886719 14.160156 29.730469 L 16.351562 25.734375 C 16.4375 25.582031 16.632812 25.523438 16.785156 25.609375 C 16.9375 25.695312 16.992188 25.890625 16.90625 26.046875 Z M 16.90625 26.046875 "/>
</g>
</svg>
