<?xml version="1.0" encoding="UTF-8"?>
<svg xmlns="http://www.w3.org/2000/svg" xmlns:xlink="http://www.w3.org/1999/xlink" width="27pt" height="35pt" viewBox="0 0 27 35" version="1.1">
<g id="surface1">
<path style=" stroke:none;fill-rule:nonzero;fill:rgb(24.705882%,41.960784%,63.921569%);fill-opacity:1;" d="M 21.480469 21.042969 C 24.949219 17.539062 26.890625 13.179688 26.996094 9.222656 C 27 9.128906 26.996094 9.039062 26.996094 8.945312 C 27 8.851562 27 8.757812 27 8.664062 C 26.96875 6.796875 26.519531 5.035156 25.613281 3.515625 C 25.347656 2.753906 24.941406 2.101562 24.402344 1.566406 C 23.367188 0.542969 21.878906 0 20.097656 0 C 16.445312 0 11.746094 2.261719 7.730469 5.925781 L 7.585938 5.78125 C 7.832031 4.910156 7.589844 3.949219 6.9375 3.300781 C 6.453125 2.820312 5.808594 2.558594 5.125 2.558594 C 4.441406 2.558594 3.800781 2.824219 3.316406 3.300781 C 2.316406 4.292969 2.316406 5.902344 3.316406 6.894531 C 3.796875 7.371094 4.4375 7.632812 5.117188 7.632812 C 5.355469 7.632812 5.589844 7.601562 5.816406 7.535156 L 5.960938 7.679688 C 0.265625 13.804688 -1.671875 21 1.5625 24.210938 C 2.09375 24.734375 2.742188 25.132812 3.492188 25.394531 C 5.085938 26.335938 6.953125 26.796875 8.945312 26.796875 C 11.804688 26.796875 14.917969 25.84375 17.8125 24 L 17.8125 27.800781 L 16.878906 27.800781 L 16.878906 35 L 22.414062 35 L 22.414062 27.800781 L 21.480469 27.800781 Z M 21.480469 21.042969 "/>
<path style=" stroke:none;fill-rule:nonzero;fill:rgb(100%,100%,100%);fill-opacity:0.929412;" d="M 20.40625 22.050781 C 19.914062 22.480469 19.40625 22.886719 18.882812 23.269531 L 18.882812 27.800781 L 20.40625 27.800781 Z M 20.40625 22.050781 "/>
<path style=" stroke:none;fill-rule:nonzero;fill:rgb(100%,100%,100%);fill-opacity:0.929412;" d="M 5.785156 25.246094 C 9.480469 25.285156 14.472656 22.871094 18.757812 18.621094 C 23.0625 14.355469 25.5 9.382812 25.441406 5.714844 C 25.242188 5.121094 24.988281 4.554688 24.664062 4.019531 L 24.667969 4.019531 C 24.667969 4.015625 24.664062 4.015625 24.664062 4.011719 L 24.617188 3.910156 C 24.402344 3.285156 24.078125 2.75 23.644531 2.316406 C 22.863281 1.542969 21.769531 1.128906 20.402344 1.074219 C 20.425781 1.078125 20.445312 1.074219 20.46875 1.078125 L 16.738281 13.058594 C 16.742188 13.054688 16.746094 13.054688 16.746094 13.054688 C 17.453125 12.832031 18.078125 12.878906 18.445312 13.246094 C 19.1875 13.980469 18.640625 15.710938 17.226562 17.109375 C 15.816406 18.507812 14.070312 19.050781 13.332031 18.320312 C 12.6875 17.679688 13.023438 16.28125 14.058594 15.003906 L 13.976562 14.921875 L 7.066406 8.066406 C 1.617188 13.75 -0.511719 20.648438 2.324219 23.457031 C 2.757812 23.886719 3.296875 24.210938 3.925781 24.421875 L 4.03125 24.46875 C 4.203125 24.570312 4.378906 24.667969 4.558594 24.757812 C 4.5625 24.757812 4.5625 24.757812 4.5625 24.761719 C 4.949219 24.949219 5.359375 25.113281 5.785156 25.246094 Z M 5.785156 25.246094 "/>
<path style=" stroke:none;fill-rule:nonzero;fill:rgb(100%,100%,100%);fill-opacity:0.929412;" d="M 15.367188 13.769531 L 12.441406 3.683594 C 10.964844 4.597656 9.496094 5.722656 8.113281 7.027344 L 15.027344 13.882812 L 15.109375 13.960938 C 15.175781 13.90625 15.246094 13.855469 15.316406 13.804688 C 15.332031 13.792969 15.347656 13.78125 15.367188 13.769531 Z M 15.367188 13.769531 "/>
<path style=" stroke:none;fill-rule:nonzero;fill:rgb(100%,100%,100%);fill-opacity:0.74902;" d="M 20.40625 20.597656 L 20.5625 20.441406 C 24.0625 16.976562 25.964844 12.632812 25.9375 8.796875 C 25.929688 7.71875 25.765625 6.683594 25.441406 5.714844 C 25.5 9.382812 23.0625 14.355469 18.757812 18.621094 C 14.472656 22.871094 9.480469 25.285156 5.785156 25.25 C 6.757812 25.558594 7.820312 25.722656 8.9375 25.722656 C 11.734375 25.722656 14.738281 24.742188 17.46875 22.949219 C 17.492188 22.933594 17.519531 22.914062 17.542969 22.898438 C 17.707031 22.789062 17.875 22.675781 18.035156 22.5625 L 18.28125 22.390625 C 19.027344 21.84375 19.742188 21.242188 20.40625 20.601562 Z M 20.40625 20.597656 "/>
<path style=" stroke:none;fill-rule:nonzero;fill:rgb(100%,100%,100%);fill-opacity:0.74902;" d="M 18.882812 28.863281 L 17.949219 28.863281 L 17.949219 33.9375 L 21.339844 33.9375 L 21.339844 28.863281 Z M 18.882812 28.863281 "/>
<path style=" stroke:none;fill-rule:nonzero;fill:rgb(100%,100%,100%);fill-opacity:1;" d="M 15.074219 2.285156 C 14.984375 2.324219 14.890625 2.367188 14.800781 2.410156 C 14.699219 2.453125 14.601562 2.5 14.503906 2.550781 C 13.835938 2.871094 13.164062 3.242188 12.492188 3.652344 C 12.472656 3.664062 12.457031 3.675781 12.441406 3.683594 L 15.367188 13.769531 C 15.828125 13.4375 16.300781 13.195312 16.738281 13.058594 L 20.46875 1.078125 C 20.449219 1.074219 20.425781 1.074219 20.402344 1.074219 C 20.300781 1.070312 20.203125 1.0625 20.097656 1.0625 C 18.582031 1.0625 16.855469 1.496094 15.074219 2.285156 Z M 15.074219 2.285156 "/>
<path style=" stroke:none;fill-rule:nonzero;fill:rgb(100%,100%,100%);fill-opacity:0.929412;" d="M 6.390625 5.890625 L 6.476562 5.703125 C 6.734375 5.136719 6.617188 4.488281 6.179688 4.054688 C 5.898438 3.777344 5.523438 3.621094 5.125 3.621094 C 4.730469 3.621094 4.355469 3.777344 4.074219 4.054688 C 3.496094 4.628906 3.496094 5.566406 4.074219 6.140625 C 4.503906 6.566406 5.183594 6.683594 5.734375 6.4375 L 5.929688 6.351562 C 6.015625 6.289062 6.101562 6.226562 6.179688 6.148438 C 6.261719 6.066406 6.328125 5.980469 6.390625 5.890625 Z M 6.390625 5.890625 "/>
<path style=" stroke:none;fill-rule:nonzero;fill:rgb(100%,100%,100%);fill-opacity:0.74902;" d="M 15.371094 13.789062 L 15.367188 13.769531 C 15.347656 13.78125 15.332031 13.792969 15.316406 13.804688 C 15.246094 13.855469 15.175781 13.90625 15.109375 13.960938 L 16.386719 15.230469 C 16.535156 15.378906 16.609375 15.574219 16.601562 15.765625 C 16.609375 15.953125 16.539062 16.140625 16.394531 16.285156 C 16.253906 16.421875 16.074219 16.492188 15.890625 16.492188 C 15.839844 16.492188 15.789062 16.484375 15.738281 16.476562 C 15.589844 16.449219 15.449219 16.382812 15.339844 16.269531 L 14.058594 15 C 13.023438 16.277344 12.6875 17.679688 13.332031 18.316406 C 14.070312 19.050781 15.816406 18.507812 17.226562 17.109375 C 18.640625 15.707031 19.1875 13.980469 18.445312 13.246094 C 18.078125 12.878906 17.453125 12.832031 16.746094 13.054688 C 16.746094 13.054688 16.742188 13.054688 16.738281 13.058594 L 16.734375 13.070312 C 16.296875 13.207031 15.828125 13.453125 15.371094 13.789062 Z M 15.371094 13.789062 "/>
</g>
</svg>
