<?xml version="1.0" encoding="UTF-8"?>
<svg xmlns="http://www.w3.org/2000/svg" xmlns:xlink="http://www.w3.org/1999/xlink" width="36pt" height="27pt" viewBox="0 0 36 27" version="1.1">
<g id="surface1">
<path style=" stroke:none;fill-rule:nonzero;fill:rgb(24.705882%,41.960784%,63.921569%);fill-opacity:1;" d="M 35.992188 15.722656 L 35.988281 14.664062 L 8.039062 14.664062 L 33.050781 4.789062 L 33.933594 4.4375 L 33.683594 3.523438 C 33.675781 3.484375 33.65625 3.414062 33.621094 3.328125 L 32.835938 1.234375 L 32.832031 1.222656 L 32.828125 1.214844 C 32.535156 0.476562 31.832031 0 31.035156 0 C 30.792969 0 30.558594 0.046875 30.332031 0.132812 L 1.761719 11.417969 C 0.78125 11.804688 0.292969 12.917969 0.675781 13.902344 L 0.707031 13.984375 C 0.265625 14.4375 0 15.058594 0 15.714844 C 0 16.710938 0.589844 17.578125 1.441406 17.972656 L 1.433594 25.074219 C 1.433594 26.136719 2.296875 27 3.359375 27 L 34.078125 27 C 35.136719 27 36 26.136719 36 25.078125 Z M 35.992188 15.722656 "/>
<path style=" stroke:none;fill-rule:nonzero;fill:rgb(100%,100%,100%);fill-opacity:0.929412;" d="M 2.5 17.148438 C 3 17.144531 3.4375 16.886719 3.695312 16.496094 L 34.933594 16.496094 L 34.933594 15.722656 L 3.925781 15.722656 C 3.925781 15.71875 3.929688 15.71875 3.929688 15.714844 C 3.929688 15.53125 3.890625 15.355469 3.824219 15.191406 L 32.660156 3.804688 C 32.652344 3.773438 32.648438 3.746094 32.636719 3.71875 L 31.84375 1.605469 C 31.667969 1.164062 31.164062 0.945312 30.71875 1.117188 L 2.152344 12.402344 C 1.710938 12.574219 1.492188 13.082031 1.664062 13.523438 L 1.988281 14.378906 C 1.445312 14.582031 1.058594 15.101562 1.058594 15.714844 C 1.058594 16.507812 1.703125 17.148438 2.492188 17.148438 C 2.492188 17.148438 2.5 17.148438 2.5 17.148438 Z M 2.5 17.148438 "/>
<path style=" stroke:none;fill-rule:nonzero;fill:rgb(100%,100%,100%);fill-opacity:0.929412;" d="M 34.933594 17.800781 L 2.5 17.800781 L 2.492188 25.078125 C 2.492188 25.550781 2.882812 25.941406 3.359375 25.941406 L 34.078125 25.941406 C 34.554688 25.941406 34.941406 25.550781 34.941406 25.078125 Z M 33.914062 21.996094 L 31.894531 21.996094 L 31.894531 20.984375 L 33.914062 20.984375 Z M 33.914062 19.976562 L 31.894531 19.976562 L 31.894531 18.964844 L 33.914062 18.964844 Z M 33.914062 19.976562 "/>
<path style=" stroke:none;fill-rule:nonzero;fill:rgb(100%,100%,100%);fill-opacity:0.74902;" d="M 3.695312 16.496094 C 3.4375 16.886719 2.996094 17.148438 2.492188 17.148438 L 2.492188 17.800781 L 34.941406 17.800781 L 34.941406 16.496094 Z M 3.695312 16.496094 "/>
<path style=" stroke:none;fill-rule:nonzero;fill:rgb(100%,100%,100%);fill-opacity:0.501961;" d="M 31.894531 20.988281 L 33.914062 20.988281 L 33.914062 21.996094 L 31.894531 21.996094 Z M 31.894531 20.988281 "/>
</g>
</svg>
