<?xml version="1.0" encoding="UTF-8"?>
<svg xmlns="http://www.w3.org/2000/svg" xmlns:xlink="http://www.w3.org/1999/xlink" width="20pt" height="36pt" viewBox="0 0 20 36" version="1.1">
<g id="surface1">
<path style=" stroke:none;fill-rule:nonzero;fill:rgb(24.705882%,41.960784%,63.921569%);fill-opacity:1;" d="M 10 0 C 0.28125 0 0 4.023438 0 4.480469 L 0 31.519531 C 0 31.976562 0.28125 36 10 36 C 19.71875 36 20 31.976562 20 31.519531 L 20 4.480469 C 20 4.023438 19.71875 0 10 0 Z M 10 0 "/>
<path style=" stroke:none;fill-rule:nonzero;fill:rgb(100%,100%,100%);fill-opacity:0.929412;" d="M 8.570312 32.296875 L 11.429688 32.296875 L 11.429688 32.652344 L 8.570312 32.652344 Z M 8.570312 32.296875 "/>
<path style=" stroke:none;fill-rule:nonzero;fill:rgb(100%,100%,100%);fill-opacity:0.929412;" d="M 10 1.214844 C 1.070312 1.214844 1.070312 4.632812 1.070312 4.632812 L 1.070312 31.519531 C 1.070312 31.519531 1.070312 34.933594 10 34.933594 C 18.929688 34.933594 18.929688 31.519531 18.929688 31.519531 L 18.929688 4.632812 C 18.929688 4.632812 18.929688 1.214844 10 1.214844 Z M 8.929688 3.109375 L 11.070312 3.109375 C 11.367188 3.109375 11.605469 3.347656 11.605469 3.640625 C 11.605469 3.933594 11.367188 4.171875 11.070312 4.171875 L 8.929688 4.171875 C 8.632812 4.171875 8.394531 3.933594 8.394531 3.640625 C 8.394531 3.347656 8.632812 3.109375 8.929688 3.109375 Z M 12.144531 32.652344 C 12.144531 33.042969 11.824219 33.363281 11.429688 33.363281 L 8.570312 33.363281 C 8.175781 33.363281 7.855469 33.042969 7.855469 32.652344 L 7.855469 32.296875 C 7.855469 31.90625 8.175781 31.585938 8.570312 31.585938 L 11.429688 31.585938 C 11.824219 31.585938 12.144531 31.90625 12.144531 32.296875 Z M 18.035156 30.5 L 1.964844 30.5 L 1.964844 5.652344 L 18.035156 5.652344 Z M 18.035156 30.5 "/>
<path style=" stroke:none;fill-rule:nonzero;fill:rgb(100%,100%,100%);fill-opacity:0.14902;" d="M 1.964844 5.667969 L 1.964844 19.898438 L 10.230469 5.667969 Z M 1.964844 5.667969 "/>
</g>
</svg>
