<?xml version="1.0" encoding="UTF-8"?>
<svg xmlns="http://www.w3.org/2000/svg" xmlns:xlink="http://www.w3.org/1999/xlink" width="42pt" height="23pt" viewBox="0 0 42 23" version="1.1">
<g id="surface1">
<path style=" stroke:none;fill-rule:nonzero;fill:rgb(24.705882%,41.960784%,63.921569%);fill-opacity:1;" d="M 35.921875 0 C 32.835938 0 30.230469 2.375 29.886719 5.394531 L 1.59375 5.394531 C 0.714844 5.394531 0 6.109375 0 6.988281 L 0 18.648438 C 0 19.527344 0.714844 20.242188 1.59375 20.242188 L 2.804688 20.242188 L 2.804688 23 L 33.765625 23 L 33.765625 20.242188 L 34.886719 20.242188 C 35.765625 20.242188 36.480469 19.527344 36.480469 18.648438 L 36.480469 12.117188 C 37.523438 12.023438 38.488281 11.65625 39.316406 11.097656 C 39.476562 10.988281 39.628906 10.875 39.773438 10.753906 C 39.777344 10.75 39.78125 10.746094 39.785156 10.742188 C 39.933594 10.625 40.070312 10.496094 40.207031 10.363281 C 40.207031 10.363281 40.210938 10.359375 40.210938 10.355469 C 41.3125 9.257812 42 7.742188 42 6.070312 C 42 2.722656 39.273438 0 35.921875 0 Z M 35.921875 0 "/>
<path style=" stroke:none;fill-rule:nonzero;fill:rgb(100%,100%,100%);fill-opacity:0.501961;" d="M 28.1875 12.753906 C 28.1875 12.128906 27.679688 11.621094 27.050781 11.617188 C 26.421875 11.617188 25.914062 12.125 25.914062 12.753906 C 25.914062 13.378906 26.421875 13.890625 27.050781 13.890625 C 27.675781 13.890625 28.1875 13.382812 28.1875 12.753906 Z M 28.1875 12.753906 "/>
<path style=" stroke:none;fill-rule:nonzero;fill:rgb(100%,100%,100%);fill-opacity:0.65098;" d="M 3.246094 12.242188 L 7.136719 12.242188 L 7.136719 8.390625 L 3.246094 8.390625 Z M 3.824219 8.941406 L 6.585938 8.941406 L 6.585938 10.898438 L 5.789062 10.898438 L 5.789062 11.699219 L 4.625 11.699219 L 4.625 10.898438 L 3.824219 10.898438 Z M 3.824219 8.941406 "/>
<path style=" stroke:none;fill-rule:nonzero;fill:rgb(100%,100%,100%);fill-opacity:0.65098;" d="M 8.488281 12.242188 L 12.378906 12.242188 L 12.378906 8.394531 L 8.488281 8.394531 Z M 9.066406 8.941406 L 11.828125 8.941406 L 11.828125 10.902344 L 11.027344 10.902344 L 11.027344 11.703125 L 9.867188 11.703125 L 9.867188 10.902344 L 9.066406 10.902344 Z M 9.066406 8.941406 "/>
<path style=" stroke:none;fill-rule:nonzero;fill:rgb(100%,100%,100%);fill-opacity:0.65098;" d="M 17.605469 8.394531 L 13.714844 8.394531 L 13.714844 12.242188 L 17.605469 12.242188 Z M 17.054688 10.898438 L 16.257812 10.898438 L 16.257812 11.699219 L 15.09375 11.699219 L 15.09375 10.898438 L 14.292969 10.898438 L 14.292969 8.941406 L 17.054688 8.941406 Z M 17.054688 10.898438 "/>
<path style=" stroke:none;fill-rule:nonzero;fill:rgb(100%,100%,100%);fill-opacity:0.65098;" d="M 18.941406 12.246094 L 22.832031 12.246094 L 22.832031 8.398438 L 18.941406 8.398438 Z M 19.519531 8.941406 L 22.28125 8.941406 L 22.28125 10.898438 L 21.484375 10.898438 L 21.484375 11.699219 L 20.320312 11.699219 L 20.320312 10.898438 L 19.519531 10.898438 Z M 19.519531 8.941406 "/>
<path style=" stroke:none;fill-rule:nonzero;fill:rgb(100%,100%,100%);fill-opacity:0.65098;" d="M 3.246094 17.464844 L 7.136719 17.464844 L 7.136719 13.617188 L 3.246094 13.617188 Z M 3.824219 14.164062 L 6.585938 14.164062 L 6.585938 16.121094 L 5.789062 16.121094 L 5.789062 16.921875 L 4.625 16.921875 L 4.625 16.121094 L 3.824219 16.121094 Z M 3.824219 14.164062 "/>
<path style=" stroke:none;fill-rule:nonzero;fill:rgb(100%,100%,100%);fill-opacity:0.65098;" d="M 8.488281 17.46875 L 12.378906 17.46875 L 12.378906 13.621094 L 8.488281 13.621094 Z M 9.066406 14.167969 L 11.828125 14.167969 L 11.828125 16.128906 L 11.027344 16.128906 L 11.027344 16.925781 L 9.867188 16.925781 L 9.867188 16.128906 L 9.066406 16.128906 Z M 9.066406 14.167969 "/>
<path style=" stroke:none;fill-rule:nonzero;fill:rgb(100%,100%,100%);fill-opacity:0.65098;" d="M 13.730469 17.472656 L 17.617188 17.472656 L 17.617188 13.625 L 13.730469 13.625 Z M 14.292969 14.164062 L 17.054688 14.164062 L 17.054688 16.125 L 16.257812 16.125 L 16.257812 16.921875 L 15.09375 16.921875 L 15.09375 16.125 L 14.292969 16.125 Z M 14.292969 14.164062 "/>
<path style=" stroke:none;fill-rule:nonzero;fill:rgb(100%,100%,100%);fill-opacity:0.65098;" d="M 18.941406 17.472656 L 22.832031 17.472656 L 22.832031 13.625 L 18.941406 13.625 Z M 19.519531 14.164062 L 22.28125 14.164062 L 22.28125 16.125 L 21.484375 16.125 L 21.484375 16.921875 L 20.320312 16.921875 L 20.320312 16.125 L 19.519531 16.125 Z M 19.519531 14.164062 "/>
<path style=" stroke:none;fill-rule:nonzero;fill:rgb(100%,100%,100%);fill-opacity:0.701961;" d="M 4.027344 20.246094 L 32.523438 20.246094 L 32.523438 21.921875 L 4.027344 21.921875 Z M 4.027344 20.246094 "/>
<path style=" stroke:none;fill-rule:nonzero;fill:rgb(100%,100%,100%);fill-opacity:0.929412;" d="M 29.933594 6.621094 L 1.777344 6.621094 C 1.488281 6.621094 1.253906 6.855469 1.253906 7.144531 L 1.253906 18.671875 C 1.253906 18.960938 1.488281 19.195312 1.777344 19.195312 L 34.679688 19.195312 C 34.96875 19.195312 35.203125 18.960938 35.203125 18.671875 L 35.203125 12.074219 C 32.394531 11.730469 30.179688 9.453125 29.933594 6.621094 Z M 7.136719 17.464844 L 3.246094 17.464844 L 3.246094 13.617188 L 7.136719 13.617188 Z M 7.136719 12.242188 L 3.246094 12.242188 L 3.246094 8.390625 L 7.136719 8.390625 Z M 12.378906 17.46875 L 8.488281 17.46875 L 8.488281 13.621094 L 12.378906 13.621094 Z M 12.378906 12.242188 L 8.488281 12.242188 L 8.488281 8.394531 L 12.378906 8.394531 Z M 13.714844 8.394531 L 17.605469 8.394531 L 17.605469 12.242188 L 13.714844 12.242188 Z M 17.617188 17.472656 L 13.730469 17.472656 L 13.730469 13.625 L 17.617188 13.625 Z M 22.832031 17.472656 L 18.941406 17.472656 L 18.941406 13.625 L 22.832031 13.625 Z M 22.832031 12.246094 L 18.941406 12.246094 L 18.941406 8.398438 L 22.832031 8.398438 Z M 27.050781 13.890625 C 26.421875 13.890625 25.914062 13.382812 25.914062 12.753906 C 25.914062 12.128906 26.421875 11.617188 27.050781 11.617188 C 27.675781 11.617188 28.1875 12.128906 28.1875 12.753906 C 28.1875 13.382812 27.679688 13.890625 27.050781 13.890625 Z M 31.339844 13.890625 C 30.710938 13.890625 30.203125 13.382812 30.203125 12.753906 C 30.203125 12.128906 30.710938 11.617188 31.339844 11.617188 C 31.96875 11.617188 32.476562 12.128906 32.476562 12.753906 C 32.476562 13.382812 31.96875 13.890625 31.339844 13.890625 Z M 31.339844 13.890625 "/>
<path style=" stroke:none;fill-rule:nonzero;fill:rgb(100%,100%,100%);fill-opacity:1;" d="M 35.941406 1.117188 C 33.191406 1.117188 30.957031 3.347656 30.957031 6.09375 C 30.957031 8.839844 33.191406 11.074219 35.941406 11.074219 C 38.6875 11.074219 40.925781 8.839844 40.925781 6.09375 C 40.925781 3.347656 38.6875 1.117188 35.941406 1.117188 Z M 39.523438 8.242188 L 38.558594 9.210938 C 38.492188 9.285156 38.394531 9.332031 38.289062 9.332031 L 38.28125 9.332031 C 38.1875 9.332031 38.09375 9.296875 38.023438 9.226562 L 37.050781 8.253906 C 36.90625 8.109375 36.90625 7.878906 37.050781 7.734375 C 37.195312 7.589844 37.425781 7.589844 37.570312 7.734375 L 37.921875 8.085938 L 37.921875 7.476562 L 35.941406 6.523438 L 33.960938 7.476562 L 33.960938 8.085938 L 34.3125 7.734375 C 34.457031 7.589844 34.6875 7.589844 34.832031 7.734375 C 34.976562 7.878906 34.976562 8.109375 34.832031 8.253906 L 33.859375 9.226562 C 33.789062 9.296875 33.695312 9.332031 33.601562 9.332031 L 33.59375 9.332031 C 33.484375 9.332031 33.390625 9.285156 33.324219 9.210938 L 32.359375 8.242188 C 32.214844 8.101562 32.214844 7.867188 32.359375 7.722656 C 32.5 7.582031 32.734375 7.582031 32.875 7.722656 L 33.226562 8.074219 L 33.226562 7.246094 C 33.226562 7.105469 33.308594 6.976562 33.433594 6.914062 L 35.097656 6.113281 L 33.433594 5.3125 C 33.308594 5.25 33.226562 5.125 33.226562 4.984375 L 33.226562 4.113281 L 32.875 4.464844 C 32.804688 4.535156 32.710938 4.574219 32.617188 4.574219 C 32.523438 4.574219 32.429688 4.535156 32.359375 4.464844 C 32.214844 4.320312 32.214844 4.089844 32.359375 3.945312 L 33.339844 2.964844 C 33.484375 2.820312 33.714844 2.820312 33.859375 2.964844 L 34.832031 3.9375 C 34.976562 4.078125 34.976562 4.3125 34.832031 4.453125 C 34.761719 4.527344 34.667969 4.5625 34.574219 4.5625 C 34.476562 4.5625 34.382812 4.527344 34.3125 4.453125 L 33.960938 4.105469 L 33.960938 4.753906 L 35.941406 5.707031 L 37.921875 4.753906 L 37.921875 4.105469 L 37.570312 4.457031 C 37.5 4.527344 37.40625 4.5625 37.3125 4.5625 C 37.214844 4.5625 37.121094 4.527344 37.050781 4.457031 C 36.90625 4.3125 36.90625 4.078125 37.050781 3.9375 L 38.023438 2.964844 C 38.167969 2.820312 38.398438 2.820312 38.542969 2.964844 L 39.527344 3.945312 C 39.667969 4.089844 39.667969 4.324219 39.527344 4.464844 C 39.453125 4.535156 39.359375 4.574219 39.265625 4.574219 C 39.171875 4.574219 39.078125 4.535156 39.007812 4.464844 L 38.65625 4.113281 L 38.65625 4.984375 C 38.65625 5.125 38.574219 5.25 38.449219 5.3125 L 36.785156 6.113281 L 38.449219 6.914062 C 38.574219 6.976562 38.65625 7.105469 38.65625 7.246094 L 38.65625 8.074219 L 39.007812 7.722656 C 39.148438 7.582031 39.382812 7.582031 39.527344 7.722656 C 39.667969 7.867188 39.667969 8.097656 39.523438 8.242188 Z M 39.523438 8.242188 "/>
</g>
</svg>
