<?xml version="1.0" encoding="UTF-8"?>
<svg xmlns="http://www.w3.org/2000/svg" xmlns:xlink="http://www.w3.org/1999/xlink" width="42pt" height="12pt" viewBox="0 0 42 12" version="1.1">
<g id="surface1">
<path style=" stroke:none;fill-rule:nonzero;fill:rgb(24.705882%,41.960784%,63.921569%);fill-opacity:1;" d="M 40.757812 0 L 1.242188 0 C 0.554688 0 0 0.546875 0 1.222656 L 0 8.953125 C 0 9.625 0.554688 10.171875 1.242188 10.171875 L 1.925781 10.171875 L 1.925781 12 L 40.0625 12 L 40.0625 10.171875 L 40.757812 10.171875 C 41.445312 10.171875 42 9.625 42 8.953125 L 42 1.222656 C 42 0.546875 41.445312 0 40.757812 0 Z M 40.757812 0 "/>
<path style=" stroke:none;fill-rule:nonzero;fill:rgb(100%,100%,100%);fill-opacity:0.701961;" d="M 2.976562 10.171875 L 39.011719 10.171875 L 39.011719 10.964844 L 2.976562 10.964844 Z M 2.976562 10.171875 "/>
<path style=" stroke:none;fill-rule:nonzero;fill:rgb(100%,100%,100%);fill-opacity:0.74902;" d="M 4.78125 2.058594 L 2.132812 2.058594 L 2.132812 4.636719 L 4.78125 4.636719 Z M 4.40625 3.738281 L 3.863281 3.738281 L 3.863281 4.273438 L 3.070312 4.273438 L 3.070312 3.738281 L 2.527344 3.738281 L 2.527344 2.425781 L 4.40625 2.425781 Z M 4.40625 3.738281 "/>
<path style=" stroke:none;fill-rule:nonzero;fill:rgb(100%,100%,100%);fill-opacity:0.74902;" d="M 8.351562 2.058594 L 5.703125 2.058594 L 5.703125 4.640625 L 8.351562 4.640625 Z M 7.976562 3.742188 L 7.433594 3.742188 L 7.433594 4.277344 L 6.640625 4.277344 L 6.640625 3.742188 L 6.097656 3.742188 L 6.097656 2.425781 L 7.976562 2.425781 Z M 7.976562 3.742188 "/>
<path style=" stroke:none;fill-rule:nonzero;fill:rgb(100%,100%,100%);fill-opacity:0.74902;" d="M 11.910156 2.058594 L 9.261719 2.058594 L 9.261719 4.640625 L 11.910156 4.640625 Z M 11.535156 3.738281 L 10.992188 3.738281 L 10.992188 4.273438 L 10.199219 4.273438 L 10.199219 3.738281 L 9.65625 3.738281 L 9.65625 2.425781 L 11.535156 2.425781 Z M 11.535156 3.738281 "/>
<path style=" stroke:none;fill-rule:nonzero;fill:rgb(100%,100%,100%);fill-opacity:0.74902;" d="M 15.46875 2.0625 L 12.820312 2.0625 L 12.820312 4.640625 L 15.46875 4.640625 Z M 15.09375 3.738281 L 14.550781 3.738281 L 14.550781 4.273438 L 13.757812 4.273438 L 13.757812 3.738281 L 13.214844 3.738281 L 13.214844 2.425781 L 15.09375 2.425781 Z M 15.09375 3.738281 "/>
<path style=" stroke:none;fill-rule:nonzero;fill:rgb(100%,100%,100%);fill-opacity:0.74902;" d="M 4.78125 5.5625 L 2.132812 5.5625 L 2.132812 8.140625 L 4.78125 8.140625 Z M 4.40625 7.242188 L 3.863281 7.242188 L 3.863281 7.777344 L 3.070312 7.777344 L 3.070312 7.242188 L 2.527344 7.242188 L 2.527344 5.925781 L 4.40625 5.925781 Z M 4.40625 7.242188 "/>
<path style=" stroke:none;fill-rule:nonzero;fill:rgb(100%,100%,100%);fill-opacity:0.74902;" d="M 8.351562 5.5625 L 5.703125 5.5625 L 5.703125 8.144531 L 8.351562 8.144531 Z M 7.976562 7.246094 L 7.433594 7.246094 L 7.433594 7.78125 L 6.640625 7.78125 L 6.640625 7.246094 L 6.097656 7.246094 L 6.097656 5.929688 L 7.976562 5.929688 Z M 7.976562 7.246094 "/>
<path style=" stroke:none;fill-rule:nonzero;fill:rgb(100%,100%,100%);fill-opacity:0.74902;" d="M 9.269531 8.148438 L 11.917969 8.148438 L 11.917969 5.566406 L 9.269531 5.566406 Z M 9.65625 5.929688 L 11.535156 5.929688 L 11.535156 7.242188 L 10.992188 7.242188 L 10.992188 7.78125 L 10.199219 7.78125 L 10.199219 7.242188 L 9.65625 7.242188 Z M 9.65625 5.929688 "/>
<path style=" stroke:none;fill-rule:nonzero;fill:rgb(100%,100%,100%);fill-opacity:0.74902;" d="M 15.46875 5.566406 L 12.820312 5.566406 L 12.820312 8.148438 L 15.46875 8.148438 Z M 15.09375 5.929688 L 15.09375 7.242188 L 14.550781 7.242188 L 14.550781 7.78125 L 13.757812 7.78125 L 13.757812 7.242188 L 13.214844 7.242188 L 13.214844 5.925781 L 15.09375 5.925781 Z M 15.09375 5.929688 "/>
<path style=" stroke:none;fill-rule:nonzero;fill:rgb(100%,100%,100%);fill-opacity:0.74902;" d="M 19.035156 2.058594 L 16.390625 2.058594 L 16.390625 4.640625 L 19.035156 4.640625 Z M 18.664062 3.742188 L 18.117188 3.742188 L 18.117188 4.277344 L 17.328125 4.277344 L 17.328125 3.742188 L 16.78125 3.742188 L 16.78125 2.425781 L 18.664062 2.425781 Z M 18.664062 3.742188 "/>
<path style=" stroke:none;fill-rule:nonzero;fill:rgb(100%,100%,100%);fill-opacity:0.74902;" d="M 22.597656 2.058594 L 19.949219 2.058594 L 19.949219 4.640625 L 22.597656 4.640625 Z M 22.222656 3.738281 L 21.675781 3.738281 L 21.675781 4.273438 L 20.886719 4.273438 L 20.886719 3.738281 L 20.339844 3.738281 L 20.339844 2.425781 L 22.222656 2.425781 Z M 22.222656 3.738281 "/>
<path style=" stroke:none;fill-rule:nonzero;fill:rgb(100%,100%,100%);fill-opacity:0.74902;" d="M 26.15625 2.0625 L 23.507812 2.0625 L 23.507812 4.640625 L 26.15625 4.640625 Z M 25.78125 3.738281 L 25.238281 3.738281 L 25.238281 4.273438 L 24.445312 4.273438 L 24.445312 3.738281 L 23.902344 3.738281 L 23.902344 2.425781 L 25.78125 2.425781 Z M 25.78125 3.738281 "/>
<path style=" stroke:none;fill-rule:nonzero;fill:rgb(100%,100%,100%);fill-opacity:0.74902;" d="M 19.035156 5.5625 L 16.390625 5.5625 L 16.390625 8.144531 L 19.035156 8.144531 Z M 18.664062 7.246094 L 18.117188 7.246094 L 18.117188 7.78125 L 17.328125 7.78125 L 17.328125 7.246094 L 16.78125 7.246094 L 16.78125 5.929688 L 18.664062 5.929688 Z M 18.664062 7.246094 "/>
<path style=" stroke:none;fill-rule:nonzero;fill:rgb(100%,100%,100%);fill-opacity:0.74902;" d="M 19.957031 8.148438 L 22.605469 8.148438 L 22.605469 5.566406 L 19.957031 5.566406 Z M 20.339844 5.929688 L 22.222656 5.929688 L 22.222656 7.242188 L 21.675781 7.242188 L 21.675781 7.78125 L 20.886719 7.78125 L 20.886719 7.242188 L 20.339844 7.242188 Z M 20.339844 5.929688 "/>
<path style=" stroke:none;fill-rule:nonzero;fill:rgb(100%,100%,100%);fill-opacity:0.74902;" d="M 26.15625 5.566406 L 23.507812 5.566406 L 23.507812 8.148438 L 26.15625 8.148438 Z M 25.78125 7.242188 L 25.238281 7.242188 L 25.238281 7.78125 L 24.445312 7.78125 L 24.445312 7.242188 L 23.902344 7.242188 L 23.902344 5.929688 L 25.78125 5.929688 Z M 25.78125 7.242188 "/>
<path style=" stroke:none;fill-rule:nonzero;fill:rgb(100%,100%,100%);fill-opacity:0.74902;" d="M 29.714844 2.0625 L 27.066406 2.0625 L 27.066406 4.640625 L 29.714844 4.640625 Z M 29.339844 3.738281 L 28.796875 3.738281 L 28.796875 4.273438 L 28.003906 4.273438 L 28.003906 3.738281 L 27.460938 3.738281 L 27.460938 2.425781 L 29.339844 2.425781 Z M 29.339844 3.738281 "/>
<path style=" stroke:none;fill-rule:nonzero;fill:rgb(100%,100%,100%);fill-opacity:0.74902;" d="M 29.714844 5.566406 L 27.066406 5.566406 L 27.066406 8.148438 L 29.714844 8.148438 Z M 29.339844 7.242188 L 28.796875 7.242188 L 28.796875 7.78125 L 28.003906 7.78125 L 28.003906 7.242188 L 27.460938 7.242188 L 27.460938 5.929688 L 29.339844 5.929688 Z M 29.339844 7.242188 "/>
<path style=" stroke:none;fill-rule:nonzero;fill:rgb(100%,100%,100%);fill-opacity:0.929412;" d="M 40.757812 1.035156 L 1.242188 1.035156 C 1.136719 1.035156 1.050781 1.121094 1.050781 1.222656 L 1.050781 8.953125 C 1.050781 9.050781 1.136719 9.136719 1.242188 9.136719 L 40.757812 9.136719 C 40.863281 9.136719 40.949219 9.050781 40.949219 8.953125 L 40.949219 1.222656 C 40.949219 1.121094 40.863281 1.035156 40.757812 1.035156 Z M 4.78125 8.140625 L 2.132812 8.140625 L 2.132812 5.5625 L 4.78125 5.5625 Z M 4.78125 4.636719 L 2.132812 4.636719 L 2.132812 2.058594 L 4.78125 2.058594 Z M 8.351562 8.144531 L 5.703125 8.144531 L 5.703125 5.5625 L 8.351562 5.5625 Z M 8.351562 4.640625 L 5.703125 4.640625 L 5.703125 2.058594 L 8.351562 2.058594 Z M 9.261719 2.058594 L 11.910156 2.058594 L 11.910156 4.640625 L 9.261719 4.640625 Z M 11.917969 8.148438 L 9.269531 8.148438 L 9.269531 5.566406 L 11.917969 5.566406 Z M 15.46875 8.148438 L 12.820312 8.148438 L 12.820312 5.566406 L 15.46875 5.566406 Z M 15.46875 4.640625 L 12.820312 4.640625 L 12.820312 2.0625 L 15.46875 2.0625 Z M 19.035156 8.144531 L 16.390625 8.144531 L 16.390625 5.5625 L 19.035156 5.5625 Z M 19.035156 4.640625 L 16.390625 4.640625 L 16.390625 2.058594 L 19.035156 2.058594 Z M 19.949219 2.058594 L 22.597656 2.058594 L 22.597656 4.640625 L 19.949219 4.640625 Z M 22.605469 8.148438 L 19.957031 8.148438 L 19.957031 5.566406 L 22.605469 5.566406 Z M 26.15625 8.148438 L 23.507812 8.148438 L 23.507812 5.566406 L 26.15625 5.566406 Z M 26.15625 4.640625 L 23.507812 4.640625 L 23.507812 2.0625 L 26.15625 2.0625 Z M 29.714844 8.148438 L 27.066406 8.148438 L 27.066406 5.566406 L 29.714844 5.566406 Z M 29.714844 4.640625 L 27.066406 4.640625 L 27.066406 2.0625 L 29.714844 2.0625 Z M 33.804688 6.121094 C 33.222656 6.121094 32.75 5.660156 32.75 5.085938 C 32.75 4.515625 33.222656 4.050781 33.804688 4.050781 C 34.386719 4.050781 34.855469 4.515625 34.855469 5.085938 C 34.855469 5.660156 34.386719 6.121094 33.804688 6.121094 Z M 37.3125 6.121094 C 36.730469 6.121094 36.261719 5.660156 36.261719 5.085938 C 36.261719 4.515625 36.730469 4.050781 37.3125 4.050781 C 37.894531 4.050781 38.367188 4.515625 38.367188 5.085938 C 38.367188 5.660156 37.894531 6.121094 37.3125 6.121094 Z M 37.3125 6.121094 "/>
<path style=" stroke:none;fill-rule:nonzero;fill:rgb(100%,100%,100%);fill-opacity:0.501961;" d="M 34.855469 5.085938 C 34.855469 4.515625 34.386719 4.050781 33.804688 4.050781 C 33.222656 4.050781 32.75 4.511719 32.75 5.085938 C 32.75 5.65625 33.222656 6.121094 33.804688 6.121094 C 34.382812 6.121094 34.855469 5.660156 34.855469 5.085938 Z M 34.855469 5.085938 "/>
</g>
</svg>
