<?xml version="1.0" encoding="UTF-8"?>
<svg xmlns="http://www.w3.org/2000/svg" xmlns:xlink="http://www.w3.org/1999/xlink" width="39pt" height="20pt" viewBox="0 0 39 20" version="1.1">
<g id="surface1">
<path style=" stroke:none;fill-rule:nonzero;fill:rgb(24.705882%,41.960784%,63.921569%);fill-opacity:1;" d="M 38.527344 0.273438 L 38.527344 0.246094 L 38.492188 0.246094 C 38.285156 0.09375 38.035156 0 37.761719 0 L 1.238281 0 C 0.554688 0 0 0.554688 0 1.238281 L 0 18.761719 C 0 19.445312 0.554688 20 1.238281 20 L 37.761719 20 C 38.445312 20 39 19.445312 39 18.761719 L 39 1.238281 C 39 0.847656 38.8125 0.5 38.527344 0.273438 Z M 38.527344 0.273438 "/>
<path style=" stroke:none;fill-rule:nonzero;fill:rgb(100%,100%,100%);fill-opacity:0.929412;" d="M 1.238281 18.9375 L 37.761719 18.9375 C 37.855469 18.9375 37.9375 18.855469 37.9375 18.761719 L 37.9375 1.238281 C 37.9375 1.144531 37.855469 1.0625 37.761719 1.0625 L 1.238281 1.0625 C 1.144531 1.0625 1.0625 1.144531 1.0625 1.238281 L 1.0625 18.761719 C 1.0625 18.855469 1.144531 18.9375 1.238281 18.9375 Z M 2.347656 2.585938 L 36.652344 2.585938 L 36.652344 17.582031 L 2.347656 17.582031 Z M 2.347656 2.585938 "/>
<path style=" stroke:none;fill-rule:nonzero;fill:rgb(100%,100%,100%);fill-opacity:0.85098;" d="M 36.300781 2.941406 L 2.699219 2.941406 L 2.699219 17.226562 L 36.300781 17.226562 Z M 27.855469 15.402344 C 27.230469 15.402344 26.726562 14.898438 26.726562 14.277344 C 26.726562 13.65625 27.230469 13.152344 27.855469 13.152344 C 28.476562 13.152344 28.980469 13.65625 28.980469 14.277344 C 28.980469 14.898438 28.476562 15.402344 27.855469 15.402344 Z M 32.101562 15.402344 C 31.480469 15.402344 30.976562 14.898438 30.976562 14.277344 C 30.976562 13.65625 31.480469 13.152344 32.101562 13.152344 C 32.726562 13.152344 33.230469 13.65625 33.230469 14.277344 C 33.230469 14.898438 32.726562 15.402344 32.101562 15.402344 Z M 34.589844 10.5 C 34.589844 10.890625 34.273438 11.210938 33.882812 11.210938 L 5.117188 11.210938 C 4.726562 11.210938 4.410156 10.890625 4.410156 10.5 L 4.410156 5.5625 C 4.410156 5.175781 4.726562 4.855469 5.117188 4.855469 L 33.882812 4.855469 C 34.273438 4.855469 34.589844 5.175781 34.589844 5.5625 Z M 34.589844 10.5 "/>
<path style=" stroke:none;fill-rule:nonzero;fill:rgb(100%,100%,100%);fill-opacity:0.501961;" d="M 28.980469 14.277344 C 28.980469 13.65625 28.476562 13.152344 27.855469 13.152344 C 27.234375 13.152344 26.730469 13.65625 26.726562 14.277344 C 26.726562 14.898438 27.230469 15.402344 27.851562 15.402344 C 28.476562 15.402344 28.980469 14.898438 28.980469 14.277344 Z M 28.980469 14.277344 "/>
<path style=" stroke:none;fill-rule:nonzero;fill:rgb(100%,100%,100%);fill-opacity:0.501961;" d="M 33.882812 4.855469 L 5.117188 4.855469 C 4.726562 4.855469 4.410156 5.175781 4.410156 5.5625 L 4.410156 10.5 C 4.410156 10.890625 4.726562 11.210938 5.117188 11.210938 L 33.882812 11.210938 C 34.273438 11.210938 34.589844 10.890625 34.589844 10.5 L 34.589844 5.5625 C 34.589844 5.175781 34.269531 4.855469 33.882812 4.855469 Z M 33.746094 10.355469 L 5.191406 10.355469 L 5.191406 5.664062 L 33.746094 5.664062 Z M 33.746094 10.355469 "/>
</g>
</svg>
