<?xml version="1.0" encoding="UTF-8"?>
<svg xmlns="http://www.w3.org/2000/svg" xmlns:xlink="http://www.w3.org/1999/xlink" width="35pt" height="36pt" viewBox="0 0 35 36" version="1.1">
<g id="surface1">
<path style=" stroke:none;fill-rule:nonzero;fill:rgb(24.705882%,41.960784%,63.921569%);fill-opacity:1;" d="M 34.140625 25.757812 L 20.3125 11.878906 L 19.0625 13.132812 L 14.3125 8.363281 L 7.472656 15.230469 L 12.21875 20 L 10.96875 21.253906 L 24.796875 35.136719 C 25.351562 35.695312 26.09375 36 26.882812 36 C 27.671875 36 28.414062 35.691406 28.96875 35.136719 L 34.140625 29.945312 C 34.695312 29.386719 35 28.644531 35 27.851562 C 35 27.058594 34.695312 26.316406 34.140625 25.757812 Z M 34.140625 25.757812 "/>
<path style=" stroke:none;fill-rule:nonzero;fill:rgb(24.705882%,41.960784%,63.921569%);fill-opacity:1;" d="M 9.339844 0.863281 C 8.785156 0.308594 8.046875 0 7.257812 0 C 6.464844 0 5.726562 0.308594 5.171875 0.863281 L 0 6.054688 C -1.148438 7.210938 -1.148438 9.085938 0 10.242188 L 5.179688 15.441406 L 14.519531 6.0625 Z M 9.339844 0.863281 "/>
<path style=" stroke:none;fill-rule:nonzero;fill:rgb(100%,100%,100%);fill-opacity:0.74902;" d="M 13.324219 20.488281 L 13.265625 20.429688 L 12.441406 21.253906 L 25.535156 34.398438 C 25.890625 34.757812 26.371094 34.957031 26.882812 34.957031 C 27.394531 34.957031 27.875 34.757812 28.234375 34.398438 L 33.40625 29.207031 C 33.761719 28.847656 33.960938 28.367188 33.960938 27.851562 C 33.960938 27.335938 33.761719 26.859375 33.40625 26.496094 L 20.3125 13.355469 L 19.371094 14.296875 L 19.429688 14.355469 Z M 28.675781 27.347656 C 29.867188 27.347656 30.832031 28.320312 30.832031 29.515625 C 30.832031 30.710938 29.867188 31.683594 28.675781 31.683594 C 27.484375 31.683594 26.515625 30.710938 26.515625 29.515625 C 26.515625 28.320312 27.484375 27.347656 28.675781 27.347656 Z M 28.675781 27.347656 "/>
<path style=" stroke:none;fill-rule:nonzero;fill:rgb(100%,100%,100%);fill-opacity:0.74902;" d="M 0.734375 9.503906 L 5.179688 13.964844 L 13.046875 6.0625 L 8.605469 1.601562 C 8.246094 1.242188 7.769531 1.042969 7.257812 1.042969 C 6.746094 1.042969 6.265625 1.242188 5.90625 1.601562 L 0.734375 6.792969 C -0.0078125 7.539062 -0.0078125 8.753906 0.734375 9.503906 Z M 0.734375 9.503906 "/>
<path style=" stroke:none;fill-rule:nonzero;fill:rgb(100%,100%,100%);fill-opacity:0.929412;" d="M 18.386719 13.929688 L 13.015625 19.320312 L 8.941406 15.234375 L 14.3125 9.839844 Z M 18.386719 13.929688 "/>
<path style=" stroke:none;fill-rule:nonzero;fill:rgb(100%,100%,100%);fill-opacity:1;" d="M 28.675781 30.636719 C 29.292969 30.636719 29.792969 30.132812 29.792969 29.515625 C 29.792969 28.894531 29.292969 28.390625 28.675781 28.390625 C 28.058594 28.390625 27.558594 28.894531 27.558594 29.515625 C 27.558594 30.132812 28.058594 30.636719 28.675781 30.636719 Z M 28.675781 30.636719 "/>
</g>
</svg>
