<?xml version="1.0" encoding="UTF-8"?>
<svg xmlns="http://www.w3.org/2000/svg" xmlns:xlink="http://www.w3.org/1999/xlink" width="22pt" height="29pt" viewBox="0 0 22 29" version="1.1">
<g id="surface1">
<path style=" stroke:none;fill-rule:nonzero;fill:rgb(24.705882%,41.960784%,63.921569%);fill-opacity:1;" d="M 21.992188 25.667969 C 21.976562 20.8125 19.519531 17.472656 15.230469 16.203125 C 17.835938 14.714844 19.59375 11.894531 19.59375 8.667969 C 19.59375 3.886719 15.738281 0 11 0 C 6.261719 0 2.40625 3.886719 2.40625 8.667969 C 2.40625 11.90625 4.175781 14.734375 6.796875 16.21875 C 2.539062 17.511719 0.0234375 20.890625 0.0078125 25.667969 C -0.015625 25.859375 -0.015625 26.28125 0.355469 26.761719 C 1.488281 28.246094 5.070312 29 11 29 C 16.929688 29 20.511719 28.246094 21.648438 26.761719 C 22.015625 26.28125 22.015625 25.859375 21.992188 25.667969 Z M 21.992188 25.667969 "/>
<path style=" stroke:none;fill-rule:nonzero;fill:rgb(100%,100%,100%);fill-opacity:0.929412;" d="M 11 1.070312 C 6.847656 1.070312 3.464844 4.476562 3.464844 8.667969 C 3.464844 11.972656 5.578125 14.789062 8.511719 15.828125 C 9.292969 16.105469 10.125 16.261719 11 16.261719 C 11.878906 16.261719 12.71875 16.101562 13.507812 15.820312 C 16.429688 14.777344 18.535156 11.96875 18.535156 8.667969 C 18.535156 4.476562 15.15625 1.070312 11 1.070312 Z M 11 1.070312 "/>
<path style=" stroke:none;fill-rule:nonzero;fill:rgb(100%,100%,100%);fill-opacity:0.929412;" d="M 1.070312 25.714844 L 1.0625 25.835938 C 1.070312 25.890625 1.105469 26.019531 1.265625 26.195312 C 1.75 26.71875 3.664062 27.929688 11 27.929688 C 18.59375 27.929688 20.386719 26.65625 20.804688 26.109375 C 20.902344 25.980469 20.949219 25.851562 20.949219 25.851562 L 20.929688 25.714844 C 20.929688 20.835938 18.300781 17.730469 13.613281 16.921875 C 12.789062 17.1875 11.910156 17.332031 11 17.332031 C 10.09375 17.332031 9.222656 17.191406 8.402344 16.925781 C 3.765625 17.757812 1.070312 20.910156 1.070312 25.714844 Z M 1.070312 25.714844 "/>
</g>
</svg>
