<?xml version="1.0" encoding="UTF-8"?>
<svg xmlns="http://www.w3.org/2000/svg" xmlns:xlink="http://www.w3.org/1999/xlink" width="42pt" height="28pt" viewBox="0 0 42 28" version="1.1">
<g id="surface1">
<path style=" stroke:none;fill-rule:nonzero;fill:rgb(24.705882%,41.960784%,63.921569%);fill-opacity:1;" d="M 24.167969 19.53125 C 25.710938 18.5 26.730469 16.738281 26.730469 14.738281 C 26.730469 11.5625 24.160156 8.980469 21 8.980469 C 17.839844 8.980469 15.269531 11.5625 15.269531 14.738281 C 15.269531 16.746094 16.296875 18.515625 17.851562 19.546875 C 15.261719 20.476562 13.738281 22.644531 13.722656 25.65625 C 13.695312 25.875 13.753906 26.1875 13.984375 26.488281 C 14.753906 27.492188 17.113281 28 21 28 C 24.886719 28 27.246094 27.492188 28.015625 26.488281 C 28.25 26.1875 28.304688 25.875 28.277344 25.65625 C 28.261719 22.59375 26.773438 20.449219 24.167969 19.53125 Z M 24.167969 19.53125 "/>
<path style=" stroke:none;fill-rule:nonzero;fill:rgb(24.705882%,41.960784%,63.921569%);fill-opacity:1;" d="M 14.300781 17.507812 C 14.53125 17.207031 14.585938 16.898438 14.558594 16.675781 C 14.546875 13.613281 13.058594 11.46875 10.453125 10.554688 C 11.996094 9.519531 13.015625 7.757812 13.015625 5.757812 C 13.015625 2.582031 10.441406 0 7.28125 0 C 4.125 0 1.550781 2.582031 1.550781 5.757812 C 1.550781 7.765625 2.582031 9.535156 4.136719 10.566406 C 1.542969 11.496094 0.0195312 13.664062 0.0078125 16.675781 C -0.0195312 16.894531 0.0351562 17.207031 0.265625 17.507812 C 1.035156 18.511719 3.398438 19.019531 7.28125 19.019531 C 11.167969 19.019531 13.53125 18.511719 14.300781 17.507812 Z M 14.300781 17.507812 "/>
<path style=" stroke:none;fill-rule:nonzero;fill:rgb(24.705882%,41.960784%,63.921569%);fill-opacity:1;" d="M 41.992188 16.675781 C 41.980469 13.613281 40.492188 11.46875 37.886719 10.550781 C 39.429688 9.519531 40.449219 7.757812 40.449219 5.757812 C 40.449219 2.582031 37.875 0 34.714844 0 C 31.554688 0 28.984375 2.582031 28.984375 5.757812 C 28.984375 7.765625 30.015625 9.535156 31.570312 10.566406 C 28.976562 11.496094 27.453125 13.664062 27.441406 16.675781 C 27.414062 16.894531 27.46875 17.207031 27.699219 17.507812 C 28.46875 18.511719 30.832031 19.019531 34.714844 19.019531 C 38.601562 19.019531 40.964844 18.511719 41.734375 17.507812 C 41.964844 17.207031 42.019531 16.894531 41.992188 16.675781 Z M 41.992188 16.675781 "/>
<path style=" stroke:none;fill-rule:nonzero;fill:rgb(100%,100%,100%);fill-opacity:0.929412;" d="M 14.777344 25.703125 L 14.777344 25.769531 C 14.839844 25.910156 15.507812 26.941406 21 26.941406 C 25.953125 26.941406 26.984375 26.097656 27.183594 25.839844 C 27.171875 25.851562 27.210938 25.832031 27.230469 25.832031 C 27.238281 25.832031 27.238281 25.832031 27.242188 25.835938 L 27.222656 25.703125 C 27.222656 22.683594 25.589844 20.761719 22.6875 20.242188 C 22.152344 20.40625 21.585938 20.496094 21 20.496094 C 20.417969 20.496094 19.855469 20.410156 19.328125 20.246094 C 16.449219 20.777344 14.777344 22.730469 14.777344 25.703125 Z M 14.777344 25.703125 "/>
<path style=" stroke:none;fill-rule:nonzero;fill:rgb(100%,100%,100%);fill-opacity:0.929412;" d="M 21 10.039062 C 18.421875 10.039062 16.324219 12.148438 16.324219 14.738281 C 16.324219 16.769531 17.613281 18.496094 19.410156 19.152344 C 19.90625 19.332031 20.441406 19.4375 21 19.4375 C 21.5625 19.4375 22.101562 19.332031 22.601562 19.148438 C 24.390625 18.488281 25.675781 16.765625 25.675781 14.738281 C 25.675781 12.148438 23.578125 10.039062 21 10.039062 Z M 21 10.039062 "/>
<path style=" stroke:none;fill-rule:nonzero;fill:rgb(100%,100%,100%);fill-opacity:0.929412;" d="M 1.058594 16.722656 L 1.058594 16.789062 C 1.125 16.929688 1.789062 17.960938 7.28125 17.960938 C 12.238281 17.960938 13.265625 17.117188 13.464844 16.859375 C 13.457031 16.871094 13.496094 16.851562 13.515625 16.851562 C 13.519531 16.851562 13.523438 16.851562 13.523438 16.855469 L 13.507812 16.722656 C 13.507812 13.703125 11.875 11.78125 8.96875 11.261719 C 8.4375 11.425781 7.871094 11.515625 7.28125 11.515625 C 6.703125 11.515625 6.140625 11.429688 5.609375 11.265625 C 2.734375 11.796875 1.058594 13.75 1.058594 16.722656 Z M 1.058594 16.722656 "/>
<path style=" stroke:none;fill-rule:nonzero;fill:rgb(100%,100%,100%);fill-opacity:0.929412;" d="M 7.28125 1.058594 C 4.703125 1.058594 2.605469 3.167969 2.605469 5.757812 C 2.605469 7.789062 3.894531 9.515625 5.691406 10.171875 C 6.191406 10.351562 6.722656 10.457031 7.28125 10.457031 C 7.847656 10.457031 8.382812 10.351562 8.882812 10.167969 C 10.675781 9.507812 11.960938 7.785156 11.960938 5.757812 C 11.960938 3.167969 9.863281 1.058594 7.28125 1.058594 Z M 7.28125 1.058594 "/>
<path style=" stroke:none;fill-rule:nonzero;fill:rgb(100%,100%,100%);fill-opacity:0.929412;" d="M 28.492188 16.722656 L 28.492188 16.789062 C 28.558594 16.929688 29.222656 17.960938 34.714844 17.960938 C 39.671875 17.960938 40.699219 17.117188 40.898438 16.859375 C 40.890625 16.871094 40.929688 16.851562 40.949219 16.851562 C 40.953125 16.851562 40.957031 16.851562 40.957031 16.855469 L 40.941406 16.722656 C 40.941406 13.703125 39.304688 11.78125 36.402344 11.261719 C 35.871094 11.425781 35.304688 11.515625 34.714844 11.515625 C 34.132812 11.515625 33.574219 11.429688 33.042969 11.265625 C 30.167969 11.796875 28.492188 13.75 28.492188 16.722656 Z M 28.492188 16.722656 "/>
<path style=" stroke:none;fill-rule:nonzero;fill:rgb(100%,100%,100%);fill-opacity:0.929412;" d="M 34.714844 1.058594 C 32.136719 1.058594 30.039062 3.167969 30.039062 5.757812 C 30.039062 7.789062 31.328125 9.515625 33.125 10.171875 C 33.625 10.351562 34.15625 10.457031 34.714844 10.457031 C 35.28125 10.457031 35.816406 10.351562 36.316406 10.167969 C 38.109375 9.507812 39.394531 7.785156 39.394531 5.757812 C 39.394531 3.167969 37.296875 1.058594 34.714844 1.058594 Z M 34.714844 1.058594 "/>
</g>
</svg>
