<?xml version="1.0" encoding="UTF-8"?>
<svg xmlns="http://www.w3.org/2000/svg" xmlns:xlink="http://www.w3.org/1999/xlink" width="22pt" height="21pt" viewBox="0 0 22 21" version="1.1">
<g id="surface1">
<path style=" stroke:none;fill-rule:nonzero;fill:rgb(24.705882%,41.960784%,63.921569%);fill-opacity:1;" d="M 10.808594 0 C 10.808594 0 10.8125 0 10.8125 0 C 10.8125 0 10.808594 0 10.808594 0 Z M 10.675781 0.00390625 C 10.675781 0.00390625 10.671875 0.0078125 10.671875 0.0078125 C 10.675781 0.0078125 10.679688 0.0078125 10.6875 0.00390625 C 10.683594 0.00390625 10.683594 0.00390625 10.683594 0.00390625 C 10.679688 0.00390625 10.679688 0.00390625 10.675781 0.00390625 Z M 11.328125 0.0078125 C 11.335938 0.0117188 11.347656 0.0117188 11.355469 0.0117188 C 11.347656 0.0117188 11.335938 0.0117188 11.328125 0.0078125 Z M 11.355469 0.0117188 C 13.769531 0.207031 15.671875 2.253906 15.671875 4.75 C 15.671875 7.289062 13.699219 9.359375 11.222656 9.488281 L 11.222656 10.460938 C 11.898438 10.570312 12.414062 11.164062 12.414062 11.878906 C 12.414062 12.050781 12.382812 12.21875 12.328125 12.375 L 13.207031 12.886719 C 14.5625 10.8125 17.300781 10.132812 19.460938 11.394531 C 21.613281 12.65625 22.40625 15.386719 21.320312 17.609375 C 22.8125 14.675781 21.777344 11.035156 18.921875 9.367188 C 18.207031 8.949219 17.445312 8.695312 16.679688 8.589844 C 16.972656 7.863281 17.136719 7.066406 17.136719 6.230469 C 17.132812 2.921875 14.578125 0.207031 11.355469 0.0117188 Z M 10.570312 0.015625 C 7.363281 0.230469 4.824219 2.933594 4.824219 6.234375 C 4.824219 7.042969 4.976562 7.820312 5.253906 8.527344 C 4.507812 8.640625 3.769531 8.890625 3.078125 9.296875 C 0.242188 10.953125 -0.796875 14.554688 0.648438 17.480469 C -0.394531 15.265625 0.40625 12.570312 2.539062 11.324219 C 4.710938 10.054688 7.46875 10.75 8.816406 12.855469 L 9.664062 12.359375 C 9.609375 12.210938 9.585938 12.046875 9.585938 11.878906 C 9.585938 11.195312 10.058594 10.621094 10.691406 10.480469 L 10.691406 9.484375 C 8.238281 9.332031 6.289062 7.273438 6.289062 4.75 C 6.289062 2.265625 8.171875 0.226562 10.570312 0.015625 Z M 10.84375 5.984375 C 9.605469 6.011719 8.464844 6.4375 7.527344 7.132812 C 7.601562 7.246094 7.683594 7.355469 7.765625 7.457031 C 7.851562 7.5625 7.941406 7.664062 8.035156 7.757812 C 8.128906 7.851562 8.226562 7.945312 8.332031 8.03125 C 8.40625 8.09375 8.488281 8.148438 8.566406 8.207031 C 9.261719 7.75 10.085938 7.476562 10.980469 7.476562 C 11.871094 7.476562 12.699219 7.75 13.390625 8.207031 C 13.472656 8.148438 13.550781 8.09375 13.628906 8.03125 C 13.730469 7.945312 13.828125 7.851562 13.921875 7.757812 C 14.019531 7.664062 14.109375 7.5625 14.191406 7.457031 C 14.277344 7.355469 14.359375 7.246094 14.433594 7.132812 C 13.460938 6.414062 12.269531 5.984375 10.980469 5.984375 C 10.949219 5.984375 10.917969 5.980469 10.890625 5.984375 C 10.875 5.984375 10.859375 5.980469 10.84375 5.984375 Z M 5.199219 11.21875 C 5.066406 12.429688 5.296875 13.6875 5.941406 14.820312 C 6.585938 15.953125 7.550781 16.78125 8.648438 17.273438 C 8.707031 17.152344 8.761719 17.027344 8.808594 16.898438 C 8.855469 16.773438 8.894531 16.644531 8.929688 16.515625 C 8.964844 16.382812 8.992188 16.253906 9.015625 16.121094 C 9.03125 16.019531 9.039062 15.921875 9.050781 15.824219 C 8.3125 15.445312 7.667969 14.855469 7.21875 14.070312 C 6.773438 13.289062 6.589844 12.429688 6.636719 11.59375 C 6.546875 11.550781 6.460938 11.507812 6.367188 11.472656 C 6.242188 11.425781 6.117188 11.386719 5.988281 11.351562 C 5.859375 11.316406 5.726562 11.289062 5.597656 11.265625 C 5.464844 11.242188 5.332031 11.226562 5.199219 11.21875 Z M 16.800781 11.289062 C 16.667969 11.296875 16.535156 11.3125 16.402344 11.335938 C 16.273438 11.359375 16.140625 11.386719 16.011719 11.421875 C 15.882812 11.457031 15.757812 11.5 15.628906 11.546875 C 15.539062 11.582031 15.449219 11.625 15.363281 11.664062 C 15.410156 12.5 15.226562 13.363281 14.78125 14.144531 C 14.332031 14.925781 13.6875 15.519531 12.949219 15.894531 C 12.957031 15.992188 12.96875 16.09375 12.984375 16.191406 C 13.003906 16.324219 13.035156 16.457031 13.066406 16.585938 C 13.101562 16.714844 13.144531 16.847656 13.191406 16.972656 C 13.234375 17.097656 13.289062 17.222656 13.347656 17.34375 C 14.449219 16.851562 15.414062 16.023438 16.058594 14.894531 C 16.703125 13.761719 16.929688 12.5 16.800781 11.289062 Z M 9.933594 12.820312 L 9.082031 13.320312 C 10.175781 15.550781 9.386719 18.289062 7.230469 19.550781 C 5.082031 20.804688 2.359375 20.144531 0.996094 18.09375 C 2.765625 20.855469 6.382812 21.757812 9.230469 20.09375 C 9.921875 19.691406 10.503906 19.171875 10.972656 18.574219 C 11.445312 19.203125 12.050781 19.746094 12.765625 20.164062 C 15.617188 21.832031 19.242188 20.921875 21.007812 18.152344 C 19.648438 20.214844 16.917969 20.882812 14.769531 19.625 C 12.597656 18.355469 11.8125 15.589844 12.941406 13.351562 L 12.054688 12.832031 C 11.792969 13.125 11.417969 13.3125 11 13.3125 C 10.574219 13.3125 10.191406 13.121094 9.933594 12.820312 Z M 9.933594 12.820312 "/>
</g>
</svg>
