<?xml version="1.0" encoding="UTF-8"?>
<svg xmlns="http://www.w3.org/2000/svg" xmlns:xlink="http://www.w3.org/1999/xlink" width="21pt" height="34pt" viewBox="0 0 21 34" version="1.1">
<g id="surface1">
<path style=" stroke:none;fill-rule:nonzero;fill:rgb(24.705882%,41.960784%,63.921569%);fill-opacity:1;" d="M 20.984375 5.453125 C 20.992188 5.375 21 5.296875 21 5.214844 L 21 1.886719 C 21 1.074219 20.488281 0.34375 19.726562 0.0703125 L 19.570312 0.015625 L 17.789062 0.015625 L 15.714844 0.0117188 L 15.714844 0.015625 L 14.328125 0.0117188 L 12.253906 0.0078125 L 12.253906 0.0117188 L 10.871094 0.0117188 L 10.871094 0.0078125 L 7.410156 0.0078125 L 7.410156 0.00390625 L 3.953125 0.00390625 L 3.953125 0 L 1.546875 0 L 1.414062 0.0390625 C 0.605469 0.28125 0.0429688 1.039062 0.0429688 1.886719 L 0.0429688 5.214844 C 0.0429688 5.296875 0.046875 5.375 0.0585938 5.457031 C 0.105469 5.972656 0.347656 6.449219 0.730469 6.785156 L 0.730469 6.914062 C 0.304688 7.273438 0.0429688 7.8125 0.0429688 8.390625 L 0.0429688 11.71875 C 0.0429688 11.867188 0.0585938 12.011719 0.0898438 12.152344 C 0.179688 12.578125 0.402344 12.964844 0.730469 13.253906 L 0.730469 13.398438 C 0.527344 13.578125 0.359375 13.796875 0.242188 14.046875 C 0.113281 14.304688 0.0429688 14.59375 0.0429688 14.894531 L 0.0429688 18.222656 C 0.0429688 18.46875 0.0898438 18.703125 0.175781 18.921875 C 0.179688 18.929688 0.183594 18.9375 0.1875 18.945312 C 0.207031 18.992188 0.226562 19.039062 0.25 19.085938 C 0.363281 19.328125 0.527344 19.546875 0.730469 19.722656 L 0.730469 20.015625 C 0.40625 20.300781 0.183594 20.6875 0.09375 21.117188 C 0.0859375 21.148438 0.0820312 21.183594 0.0742188 21.214844 C 0.0703125 21.238281 0.0664062 21.261719 0.0625 21.285156 C 0.0507812 21.375 0.0429688 21.464844 0.0429688 21.554688 L 0.0429688 32.074219 C 0.0429688 33.136719 0.894531 34 1.945312 34 L 19.09375 34 C 20.144531 34 21 33.136719 21 32.074219 L 21 21.554688 C 21 21.464844 20.992188 21.375 20.976562 21.285156 C 20.976562 21.269531 20.972656 21.253906 20.96875 21.238281 C 20.964844 21.199219 20.957031 21.160156 20.949219 21.121094 C 20.863281 20.710938 20.660156 20.34375 20.359375 20.0625 L 20.359375 19.679688 C 20.542969 19.507812 20.6875 19.304688 20.796875 19.082031 C 20.816406 19.035156 20.839844 18.988281 20.859375 18.941406 C 20.859375 18.9375 20.863281 18.929688 20.863281 18.925781 C 20.949219 18.703125 21 18.46875 21 18.222656 L 21 14.894531 C 21 14.597656 20.929688 14.308594 20.804688 14.050781 C 20.785156 14.015625 20.765625 13.980469 20.75 13.945312 C 20.742188 13.9375 20.738281 13.925781 20.730469 13.914062 C 20.632812 13.738281 20.507812 13.578125 20.359375 13.4375 L 20.359375 13.210938 C 20.664062 12.925781 20.871094 12.554688 20.953125 12.140625 C 20.984375 12.003906 21 11.863281 21 11.71875 L 21 8.390625 C 21 7.832031 20.757812 7.3125 20.359375 6.957031 L 20.359375 6.742188 C 20.71875 6.40625 20.941406 5.953125 20.984375 5.453125 Z M 20.984375 5.453125 "/>
<path style=" stroke:none;fill-rule:nonzero;fill:rgb(100%,100%,100%);fill-opacity:0.929412;" d="M 19.953125 1.96875 C 19.953125 1.554688 19.6875 1.199219 19.320312 1.070312 L 19.171875 1.070312 L 19.171875 0.015625 L 17.789062 0.015625 L 17.789062 1.066406 L 15.710938 1.066406 L 15.714844 0.0117188 L 14.328125 0.0117188 L 14.328125 1.066406 C 14.328125 1.066406 14.003906 1.0625 13.613281 1.0625 C 13.59375 1.0625 13.578125 1.0625 13.558594 1.0625 C 13.554688 1.0625 13.554688 1.0625 13.554688 1.0625 L 13.535156 1.0625 C 13.53125 1.0625 13.53125 1.0625 13.53125 1.0625 L 12.253906 1.0625 L 12.253906 0.0078125 L 10.871094 0.0078125 L 10.871094 1.0625 L 10.0625 1.0625 C 10.0625 1.0625 10.0625 1.0625 10.058594 1.0625 L 10.054688 1.0625 C 10.050781 1.0625 10.050781 1.0625 10.050781 1.0625 C 10.050781 1.0625 10.046875 1.0625 10.046875 1.0625 L 10.042969 1.0625 C 9.464844 1.0625 8.792969 1.058594 8.792969 1.058594 L 8.796875 0.0078125 L 7.410156 0.00390625 L 7.410156 1.058594 L 5.335938 1.058594 L 5.335938 0.00390625 L 3.953125 0.00390625 L 3.953125 1.054688 L 1.875 1.054688 L 1.875 0 L 1.550781 0 L 1.417969 0.0390625 C 0.613281 0.28125 0.046875 1.039062 0.046875 1.882812 L 0.046875 1.96875 C 0.046875 1.085938 0.636719 0.292969 1.476562 0.0429688 L 1.769531 1.054688 C 1.375 1.171875 1.085938 1.535156 1.085938 1.96875 L 1.085938 2.847656 L 0.046875 2.847656 L 0.046875 4.25 L 1.085938 4.25 L 1.085938 5.277344 C 1.085938 5.277344 1.085938 5.28125 1.085938 5.28125 C 1.085938 5.285156 1.085938 5.285156 1.085938 5.285156 C 1.085938 5.289062 1.085938 5.289062 1.085938 5.289062 L 1.085938 5.292969 C 1.085938 5.292969 1.085938 5.292969 1.085938 5.296875 C 1.085938 5.296875 1.085938 5.300781 1.085938 5.300781 C 1.085938 5.300781 1.085938 5.304688 1.085938 5.304688 C 1.085938 5.308594 1.085938 5.308594 1.085938 5.308594 C 1.085938 5.3125 1.085938 5.3125 1.085938 5.3125 C 1.085938 5.316406 1.085938 5.316406 1.085938 5.316406 C 1.085938 5.316406 1.085938 5.316406 1.085938 5.320312 C 1.085938 5.324219 1.085938 5.324219 1.085938 5.324219 C 1.085938 5.328125 1.085938 5.328125 1.085938 5.328125 C 1.085938 5.328125 1.085938 5.328125 1.085938 5.332031 C 1.085938 5.332031 1.085938 5.335938 1.085938 5.335938 C 1.085938 5.339844 1.085938 5.339844 1.085938 5.339844 C 1.085938 5.339844 1.085938 5.339844 1.085938 5.34375 C 1.085938 5.34375 1.085938 5.347656 1.085938 5.347656 C 1.085938 5.347656 1.085938 5.351562 1.085938 5.351562 C 1.085938 5.355469 1.085938 5.355469 1.085938 5.355469 C 1.085938 5.355469 1.085938 5.355469 1.085938 5.359375 C 1.085938 5.359375 1.085938 5.359375 1.085938 5.363281 C 1.085938 5.363281 1.085938 5.367188 1.085938 5.367188 C 1.085938 5.367188 1.085938 5.371094 1.085938 5.371094 C 1.085938 5.375 1.085938 5.375 1.085938 5.375 C 1.085938 5.375 1.085938 5.378906 1.085938 5.378906 C 1.085938 5.378906 1.085938 5.378906 1.085938 5.382812 C 1.085938 5.382812 1.085938 5.386719 1.085938 5.386719 C 1.085938 5.386719 1.085938 5.390625 1.089844 5.390625 C 1.089844 5.394531 1.089844 5.394531 1.089844 5.394531 C 1.089844 5.394531 1.089844 5.398438 1.089844 5.398438 C 1.089844 5.402344 1.089844 5.402344 1.089844 5.402344 C 1.089844 5.402344 1.089844 5.402344 1.089844 5.40625 C 1.089844 5.40625 1.089844 5.40625 1.089844 5.410156 C 1.089844 5.410156 1.089844 5.410156 1.089844 5.414062 C 1.089844 5.414062 1.089844 5.417969 1.089844 5.417969 C 1.089844 5.417969 1.089844 5.421875 1.089844 5.421875 C 1.089844 5.425781 1.089844 5.425781 1.089844 5.425781 C 1.089844 5.429688 1.089844 5.429688 1.089844 5.429688 C 1.089844 5.429688 1.089844 5.429688 1.089844 5.433594 C 1.089844 5.433594 1.09375 5.433594 1.09375 5.433594 C 1.09375 5.433594 1.09375 5.4375 1.09375 5.4375 C 1.09375 5.4375 1.09375 5.4375 1.09375 5.441406 C 1.09375 5.441406 1.09375 5.445312 1.09375 5.445312 C 1.09375 5.445312 1.09375 5.445312 1.09375 5.449219 C 1.09375 5.453125 1.09375 5.453125 1.09375 5.453125 C 1.09375 5.457031 1.09375 5.457031 1.097656 5.457031 C 1.097656 5.457031 1.097656 5.457031 1.097656 5.460938 C 1.097656 5.460938 1.097656 5.464844 1.097656 5.464844 C 1.097656 5.464844 1.097656 5.46875 1.097656 5.46875 C 1.097656 5.46875 1.097656 5.472656 1.097656 5.472656 C 1.097656 5.472656 1.097656 5.476562 1.097656 5.476562 C 1.097656 5.480469 1.097656 5.480469 1.101562 5.480469 C 1.101562 5.484375 1.101562 5.484375 1.101562 5.484375 C 1.101562 5.484375 1.101562 5.484375 1.101562 5.488281 C 1.101562 5.488281 1.101562 5.488281 1.101562 5.492188 C 1.101562 5.492188 1.101562 5.492188 1.101562 5.496094 C 1.101562 5.496094 1.101562 5.5 1.101562 5.5 C 1.101562 5.5 1.101562 5.5 1.105469 5.503906 C 1.105469 5.503906 1.105469 5.507812 1.105469 5.507812 C 1.105469 5.507812 1.105469 5.511719 1.105469 5.511719 C 1.105469 5.515625 1.105469 5.515625 1.105469 5.515625 C 1.105469 5.515625 1.105469 5.519531 1.105469 5.519531 C 1.105469 5.523438 1.109375 5.523438 1.109375 5.523438 C 1.109375 5.523438 1.109375 5.527344 1.109375 5.527344 C 1.109375 5.53125 1.109375 5.53125 1.109375 5.53125 C 1.109375 5.53125 1.109375 5.535156 1.109375 5.535156 C 1.109375 5.539062 1.109375 5.539062 1.113281 5.539062 C 1.113281 5.542969 1.113281 5.542969 1.113281 5.542969 C 1.113281 5.546875 1.113281 5.546875 1.113281 5.546875 C 1.113281 5.550781 1.113281 5.550781 1.113281 5.550781 C 1.113281 5.550781 1.113281 5.550781 1.113281 5.554688 C 1.113281 5.554688 1.117188 5.554688 1.117188 5.554688 C 1.117188 5.554688 1.117188 5.554688 1.117188 5.558594 C 1.117188 5.558594 1.117188 5.558594 1.117188 5.5625 C 1.117188 5.5625 1.117188 5.5625 1.117188 5.566406 C 1.117188 5.566406 1.117188 5.566406 1.121094 5.566406 C 1.121094 5.570312 1.121094 5.570312 1.121094 5.574219 C 1.121094 5.578125 1.121094 5.578125 1.121094 5.578125 C 1.121094 5.578125 1.121094 5.582031 1.125 5.582031 C 1.125 5.585938 1.125 5.585938 1.125 5.585938 C 1.125 5.585938 1.125 5.585938 1.125 5.589844 C 1.125 5.589844 1.125 5.59375 1.128906 5.59375 C 1.128906 5.59375 1.128906 5.59375 1.128906 5.597656 C 1.128906 5.597656 1.128906 5.597656 1.128906 5.601562 C 1.128906 5.601562 1.132812 5.601562 1.132812 5.605469 C 1.132812 5.605469 1.132812 5.605469 1.132812 5.609375 C 1.132812 5.609375 1.132812 5.609375 1.132812 5.613281 C 1.132812 5.613281 1.136719 5.613281 1.136719 5.617188 C 1.136719 5.617188 1.136719 5.621094 1.136719 5.621094 C 1.140625 5.625 1.140625 5.625 1.140625 5.625 C 1.140625 5.625 1.140625 5.628906 1.140625 5.628906 C 1.140625 5.628906 1.140625 5.632812 1.140625 5.632812 C 1.140625 5.632812 1.144531 5.632812 1.144531 5.636719 C 1.144531 5.636719 1.144531 5.640625 1.144531 5.640625 C 1.144531 5.640625 1.144531 5.640625 1.144531 5.644531 C 1.144531 5.644531 1.144531 5.644531 1.148438 5.644531 C 1.148438 5.644531 1.148438 5.648438 1.148438 5.648438 C 1.148438 5.648438 1.148438 5.648438 1.148438 5.652344 C 1.148438 5.652344 1.148438 5.65625 1.152344 5.65625 C 1.152344 5.65625 1.152344 5.65625 1.152344 5.660156 C 1.152344 5.660156 1.152344 5.660156 1.152344 5.664062 C 1.15625 5.664062 1.15625 5.664062 1.15625 5.664062 C 1.15625 5.667969 1.15625 5.667969 1.15625 5.667969 C 1.15625 5.667969 1.15625 5.667969 1.15625 5.671875 C 1.15625 5.671875 1.15625 5.671875 1.160156 5.671875 C 1.160156 5.675781 1.160156 5.675781 1.160156 5.675781 C 1.160156 5.675781 1.160156 5.675781 1.160156 5.679688 C 1.160156 5.683594 1.164062 5.683594 1.164062 5.683594 C 1.179688 5.691406 1.179688 5.691406 1.179688 5.691406 C 1.179688 5.695312 1.179688 5.695312 1.183594 5.695312 C 1.183594 5.695312 1.183594 5.699219 1.183594 5.699219 C 1.183594 5.703125 1.183594 5.703125 1.183594 5.703125 C 1.183594 5.703125 1.183594 5.707031 1.183594 5.707031 C 1.183594 5.707031 1.1875 5.707031 1.1875 5.707031 C 1.1875 5.710938 1.1875 5.710938 1.1875 5.710938 C 1.1875 5.710938 1.1875 5.714844 1.1875 5.714844 C 1.1875 5.71875 1.1875 5.71875 1.191406 5.71875 C 1.191406 5.71875 1.191406 5.722656 1.191406 5.722656 C 1.191406 5.726562 1.191406 5.726562 1.191406 5.726562 C 1.191406 5.726562 1.195312 5.726562 1.195312 5.726562 C 1.195312 5.726562 1.195312 5.730469 1.195312 5.730469 C 1.195312 5.734375 1.195312 5.734375 1.195312 5.734375 C 1.195312 5.734375 1.195312 5.734375 1.199219 5.738281 C 1.199219 5.738281 1.199219 5.742188 1.199219 5.742188 C 1.199219 5.742188 1.199219 5.746094 1.199219 5.746094 C 1.203125 5.746094 1.203125 5.746094 1.203125 5.746094 C 1.203125 5.746094 1.203125 5.75 1.203125 5.75 C 1.203125 5.75 1.203125 5.75 1.203125 5.753906 C 1.203125 5.753906 1.203125 5.753906 1.207031 5.753906 L 1.207031 5.757812 C 1.207031 5.757812 1.207031 5.761719 1.207031 5.761719 C 1.207031 5.761719 1.207031 5.761719 1.210938 5.761719 C 1.210938 5.761719 1.210938 5.761719 1.210938 5.765625 L 1.210938 5.769531 C 1.214844 5.773438 1.214844 5.773438 1.214844 5.773438 C 1.214844 5.773438 1.214844 5.777344 1.214844 5.777344 C 1.214844 5.777344 1.21875 5.777344 1.21875 5.78125 L 1.21875 5.785156 C 1.21875 5.785156 1.21875 5.785156 1.222656 5.785156 C 1.222656 5.789062 1.222656 5.789062 1.222656 5.789062 C 1.222656 5.789062 1.222656 5.792969 1.222656 5.792969 C 1.226562 5.792969 1.226562 5.792969 1.226562 5.796875 C 1.226562 5.796875 1.226562 5.800781 1.226562 5.800781 C 1.226562 5.800781 1.230469 5.800781 1.230469 5.800781 C 1.230469 5.804688 1.230469 5.804688 1.230469 5.804688 C 1.230469 5.804688 1.230469 5.808594 1.230469 5.808594 C 1.230469 5.808594 1.234375 5.808594 1.234375 5.808594 C 1.234375 5.808594 1.234375 5.808594 1.234375 5.8125 C 1.234375 5.8125 1.234375 5.8125 1.234375 5.816406 C 1.234375 5.816406 1.238281 5.816406 1.238281 5.816406 C 1.238281 5.820312 1.238281 5.820312 1.238281 5.820312 C 1.238281 5.820312 1.242188 5.820312 1.242188 5.824219 C 1.242188 5.824219 1.242188 5.828125 1.242188 5.828125 C 1.242188 5.828125 1.242188 5.828125 1.246094 5.828125 C 1.246094 5.832031 1.246094 5.832031 1.246094 5.832031 C 1.246094 5.832031 1.25 5.835938 1.25 5.835938 C 1.25 5.835938 1.25 5.835938 1.25 5.839844 C 1.25 5.839844 1.25 5.839844 1.253906 5.839844 C 1.253906 5.839844 1.253906 5.84375 1.253906 5.84375 C 1.253906 5.84375 1.253906 5.847656 1.257812 5.847656 C 1.257812 5.847656 1.257812 5.847656 1.257812 5.851562 C 1.261719 5.851562 1.261719 5.851562 1.261719 5.851562 C 1.261719 5.855469 1.261719 5.855469 1.261719 5.855469 C 1.265625 5.855469 1.265625 5.855469 1.265625 5.859375 C 1.265625 5.863281 1.265625 5.863281 1.265625 5.863281 C 1.265625 5.863281 1.269531 5.863281 1.269531 5.863281 C 1.269531 5.863281 1.269531 5.863281 1.269531 5.867188 C 1.269531 5.871094 1.273438 5.871094 1.273438 5.871094 C 1.273438 5.871094 1.273438 5.875 1.273438 5.875 C 1.273438 5.875 1.273438 5.875 1.277344 5.875 L 1.277344 5.878906 L 1.28125 5.878906 C 1.28125 5.878906 1.28125 5.882812 1.28125 5.882812 C 1.28125 5.886719 1.28125 5.886719 1.28125 5.886719 C 1.28125 5.886719 1.285156 5.886719 1.285156 5.886719 C 1.285156 5.886719 1.285156 5.890625 1.285156 5.890625 C 1.285156 5.890625 1.285156 5.890625 1.289062 5.890625 C 1.289062 5.894531 1.289062 5.894531 1.289062 5.894531 C 1.289062 5.894531 1.289062 5.894531 1.292969 5.894531 C 1.292969 5.898438 1.292969 5.898438 1.292969 5.898438 C 1.292969 5.902344 1.292969 5.902344 1.292969 5.902344 C 1.292969 5.902344 1.296875 5.902344 1.296875 5.902344 C 1.296875 5.90625 1.296875 5.90625 1.296875 5.90625 C 1.296875 5.90625 1.300781 5.90625 1.300781 5.90625 C 1.300781 5.90625 1.300781 5.90625 1.300781 5.910156 C 1.300781 5.910156 1.304688 5.910156 1.304688 5.910156 C 1.304688 5.914062 1.304688 5.914062 1.304688 5.914062 C 1.304688 5.914062 1.304688 5.914062 1.304688 5.917969 C 1.308594 5.917969 1.308594 5.917969 1.308594 5.917969 C 1.308594 5.917969 1.308594 5.921875 1.308594 5.921875 C 1.308594 5.921875 1.3125 5.921875 1.3125 5.921875 C 1.3125 5.921875 1.3125 5.921875 1.3125 5.925781 C 1.3125 5.925781 1.316406 5.925781 1.316406 5.925781 C 1.316406 5.925781 1.316406 5.929688 1.316406 5.929688 C 1.316406 5.929688 1.320312 5.929688 1.320312 5.929688 C 1.320312 5.929688 1.320312 5.933594 1.320312 5.933594 C 1.320312 5.933594 1.324219 5.933594 1.324219 5.933594 C 1.324219 5.9375 1.324219 5.9375 1.324219 5.9375 C 1.324219 5.9375 1.328125 5.9375 1.328125 5.9375 C 1.328125 5.941406 1.328125 5.941406 1.328125 5.941406 C 1.328125 5.941406 1.332031 5.941406 1.332031 5.945312 C 1.332031 5.945312 1.332031 5.949219 1.332031 5.949219 C 1.335938 5.949219 1.335938 5.949219 1.335938 5.949219 C 1.335938 5.949219 1.335938 5.949219 1.335938 5.953125 C 1.335938 5.953125 1.335938 5.953125 1.339844 5.953125 C 1.339844 5.953125 1.339844 5.957031 1.34375 5.957031 C 1.34375 5.957031 1.34375 5.957031 1.34375 5.960938 C 1.34375 5.960938 1.347656 5.960938 1.347656 5.960938 C 1.347656 5.960938 1.347656 5.960938 1.347656 5.964844 C 1.347656 5.964844 1.351562 5.964844 1.351562 5.964844 C 1.351562 5.964844 1.351562 5.96875 1.355469 5.96875 C 1.359375 5.972656 1.359375 5.972656 1.359375 5.972656 C 1.359375 5.976562 1.359375 5.976562 1.363281 5.976562 C 1.363281 5.976562 1.363281 5.976562 1.367188 5.980469 C 1.4375 6.042969 1.515625 6.097656 1.601562 6.140625 L 1.425781 6.515625 C 1.433594 6.511719 1.441406 6.511719 1.449219 6.507812 L 1.71875 7.449219 L 1.742188 7.449219 L 1.742188 7.519531 C 1.347656 7.636719 1.058594 8 1.058594 8.433594 L 1.058594 9.238281 L 0.0195312 9.238281 L 0.0195312 10.644531 L 1.058594 10.644531 L 1.058594 11.746094 C 1.058594 11.746094 1.058594 11.746094 1.058594 11.75 C 1.058594 11.75 1.058594 11.753906 1.058594 11.753906 C 1.058594 11.753906 1.058594 11.757812 1.058594 11.757812 C 1.058594 11.761719 1.058594 11.761719 1.058594 11.761719 C 1.058594 11.765625 1.058594 11.765625 1.058594 11.765625 C 1.058594 11.769531 1.058594 11.769531 1.058594 11.769531 L 1.058594 11.78125 C 1.058594 11.78125 1.058594 11.78125 1.058594 11.785156 C 1.058594 11.785156 1.058594 11.785156 1.058594 11.789062 C 1.058594 11.789062 1.058594 11.789062 1.058594 11.792969 C 1.058594 11.792969 1.058594 11.792969 1.058594 11.796875 C 1.058594 11.796875 1.058594 11.796875 1.058594 11.800781 C 1.058594 11.800781 1.058594 11.804688 1.058594 11.804688 C 1.058594 11.804688 1.058594 11.808594 1.058594 11.808594 C 1.058594 11.808594 1.058594 11.808594 1.058594 11.8125 C 1.058594 11.8125 1.058594 11.8125 1.058594 11.816406 C 1.058594 11.816406 1.058594 11.816406 1.058594 11.820312 C 1.058594 11.820312 1.058594 11.820312 1.058594 11.824219 C 1.058594 11.824219 1.058594 11.828125 1.058594 11.828125 C 1.058594 11.828125 1.058594 11.832031 1.058594 11.832031 C 1.058594 11.835938 1.058594 11.835938 1.058594 11.835938 C 1.058594 11.839844 1.058594 11.839844 1.058594 11.839844 L 1.058594 11.84375 C 1.058594 11.84375 1.058594 11.84375 1.058594 11.847656 C 1.058594 11.847656 1.058594 11.847656 1.058594 11.851562 L 1.058594 11.855469 C 1.058594 11.855469 1.058594 11.855469 1.058594 11.859375 C 1.058594 11.859375 1.058594 11.859375 1.058594 11.863281 C 1.058594 11.863281 1.058594 11.863281 1.058594 11.867188 C 1.058594 11.867188 1.058594 11.871094 1.058594 11.871094 C 1.058594 11.875 1.058594 11.875 1.058594 11.875 C 1.058594 11.878906 1.058594 11.878906 1.058594 11.878906 C 1.058594 11.882812 1.058594 11.882812 1.058594 11.882812 C 1.058594 11.886719 1.058594 11.886719 1.058594 11.886719 C 1.058594 11.886719 1.058594 11.886719 1.058594 11.890625 C 1.058594 11.890625 1.058594 11.890625 1.0625 11.890625 L 1.0625 11.894531 C 1.0625 11.894531 1.0625 11.894531 1.0625 11.898438 C 1.0625 11.898438 1.0625 11.898438 1.0625 11.902344 C 1.0625 11.902344 1.0625 11.90625 1.0625 11.90625 C 1.0625 11.90625 1.0625 11.910156 1.0625 11.910156 C 1.0625 11.914062 1.0625 11.914062 1.0625 11.914062 C 1.0625 11.917969 1.0625 11.917969 1.0625 11.917969 C 1.0625 11.921875 1.0625 11.921875 1.0625 11.921875 C 1.0625 11.925781 1.0625 11.925781 1.0625 11.925781 C 1.0625 11.925781 1.0625 11.925781 1.066406 11.925781 C 1.066406 11.929688 1.066406 11.929688 1.066406 11.929688 C 1.066406 11.929688 1.066406 11.929688 1.066406 11.933594 C 1.066406 11.933594 1.066406 11.933594 1.066406 11.9375 C 1.066406 11.941406 1.066406 11.941406 1.066406 11.941406 C 1.066406 11.945312 1.066406 11.945312 1.066406 11.945312 C 1.066406 11.945312 1.066406 11.945312 1.066406 11.949219 C 1.066406 11.953125 1.066406 11.953125 1.066406 11.953125 C 1.066406 11.957031 1.066406 11.957031 1.066406 11.957031 C 1.066406 11.960938 1.066406 11.960938 1.066406 11.960938 C 1.066406 11.960938 1.066406 11.964844 1.066406 11.964844 C 1.066406 11.964844 1.070312 11.964844 1.070312 11.964844 C 1.070312 11.96875 1.070312 11.96875 1.070312 11.96875 C 1.070312 11.96875 1.070312 11.972656 1.070312 11.972656 C 1.070312 11.976562 1.070312 11.976562 1.070312 11.976562 C 1.070312 11.980469 1.070312 11.980469 1.070312 11.980469 C 1.070312 11.980469 1.070312 11.984375 1.070312 11.984375 C 1.070312 11.984375 1.074219 11.988281 1.074219 11.988281 C 1.074219 11.988281 1.074219 11.992188 1.074219 11.992188 C 1.074219 11.992188 1.074219 11.996094 1.074219 11.996094 C 1.074219 11.996094 1.074219 12 1.074219 12 C 1.074219 12 1.074219 12 1.074219 12.003906 C 1.074219 12.003906 1.074219 12.003906 1.074219 12.007812 C 1.074219 12.007812 1.078125 12.007812 1.078125 12.007812 C 1.078125 12.007812 1.078125 12.011719 1.078125 12.011719 C 1.078125 12.011719 1.078125 12.011719 1.078125 12.015625 C 1.078125 12.015625 1.078125 12.015625 1.078125 12.019531 C 1.078125 12.019531 1.078125 12.019531 1.078125 12.023438 C 1.078125 12.023438 1.078125 12.027344 1.078125 12.027344 C 1.078125 12.027344 1.082031 12.027344 1.082031 12.027344 C 1.082031 12.027344 1.082031 12.03125 1.082031 12.03125 C 1.082031 12.03125 1.082031 12.035156 1.082031 12.035156 C 1.082031 12.035156 1.082031 12.039062 1.082031 12.039062 C 1.082031 12.039062 1.082031 12.042969 1.082031 12.042969 C 1.082031 12.042969 1.082031 12.042969 1.085938 12.042969 C 1.085938 12.042969 1.085938 12.046875 1.085938 12.046875 C 1.085938 12.046875 1.085938 12.050781 1.085938 12.050781 C 1.085938 12.050781 1.085938 12.054688 1.085938 12.054688 C 1.085938 12.054688 1.085938 12.054688 1.089844 12.054688 C 1.089844 12.054688 1.089844 12.058594 1.089844 12.058594 C 1.089844 12.058594 1.089844 12.0625 1.089844 12.0625 C 1.089844 12.0625 1.089844 12.066406 1.089844 12.066406 C 1.089844 12.066406 1.089844 12.070312 1.089844 12.070312 C 1.089844 12.074219 1.09375 12.074219 1.09375 12.074219 C 1.09375 12.078125 1.09375 12.078125 1.09375 12.078125 C 1.09375 12.078125 1.09375 12.082031 1.09375 12.082031 C 1.09375 12.082031 1.097656 12.085938 1.097656 12.085938 C 1.097656 12.085938 1.097656 12.085938 1.097656 12.089844 C 1.097656 12.089844 1.097656 12.09375 1.097656 12.09375 C 1.097656 12.09375 1.101562 12.09375 1.101562 12.09375 C 1.101562 12.09375 1.101562 12.09375 1.101562 12.097656 C 1.101562 12.101562 1.101562 12.101562 1.101562 12.101562 C 1.101562 12.105469 1.101562 12.105469 1.101562 12.105469 C 1.101562 12.109375 1.101562 12.109375 1.105469 12.109375 C 1.105469 12.113281 1.105469 12.113281 1.105469 12.113281 C 1.105469 12.113281 1.105469 12.113281 1.105469 12.117188 C 1.105469 12.117188 1.105469 12.117188 1.109375 12.117188 C 1.109375 12.117188 1.109375 12.117188 1.109375 12.121094 C 1.109375 12.121094 1.109375 12.121094 1.109375 12.125 C 1.109375 12.125 1.109375 12.125 1.109375 12.128906 C 1.109375 12.128906 1.113281 12.128906 1.113281 12.128906 C 1.113281 12.128906 1.113281 12.132812 1.113281 12.132812 C 1.113281 12.132812 1.113281 12.132812 1.113281 12.136719 C 1.113281 12.136719 1.117188 12.136719 1.117188 12.136719 C 1.117188 12.136719 1.117188 12.140625 1.117188 12.140625 C 1.117188 12.144531 1.117188 12.144531 1.117188 12.144531 C 1.117188 12.144531 1.117188 12.144531 1.117188 12.148438 C 1.117188 12.148438 1.121094 12.148438 1.121094 12.148438 C 1.121094 12.152344 1.121094 12.152344 1.121094 12.152344 C 1.121094 12.15625 1.121094 12.15625 1.121094 12.15625 C 1.121094 12.15625 1.125 12.15625 1.125 12.15625 C 1.125 12.15625 1.125 12.15625 1.125 12.160156 C 1.179688 12.160156 1.179688 12.160156 1.179688 12.160156 C 1.179688 12.164062 1.179688 12.164062 1.179688 12.164062 C 1.179688 12.164062 1.183594 12.164062 1.183594 12.164062 C 1.183594 12.164062 1.183594 12.164062 1.183594 12.167969 C 1.183594 12.171875 1.183594 12.171875 1.183594 12.171875 C 1.183594 12.171875 1.183594 12.171875 1.1875 12.171875 C 1.1875 12.175781 1.1875 12.175781 1.1875 12.175781 C 1.1875 12.175781 1.1875 12.175781 1.1875 12.179688 C 1.1875 12.179688 1.1875 12.179688 1.191406 12.179688 C 1.191406 12.179688 1.191406 12.183594 1.191406 12.183594 C 1.191406 12.1875 1.191406 12.1875 1.191406 12.1875 C 1.191406 12.1875 1.191406 12.1875 1.195312 12.1875 C 1.195312 12.191406 1.195312 12.191406 1.195312 12.191406 C 1.195312 12.191406 1.195312 12.191406 1.195312 12.195312 C 1.195312 12.195312 1.199219 12.195312 1.199219 12.195312 C 1.199219 12.195312 1.199219 12.199219 1.199219 12.199219 C 1.199219 12.199219 1.199219 12.199219 1.199219 12.203125 C 1.199219 12.203125 1.199219 12.203125 1.203125 12.203125 C 1.203125 12.207031 1.203125 12.207031 1.203125 12.207031 C 1.203125 12.207031 1.203125 12.207031 1.203125 12.210938 C 1.203125 12.210938 1.207031 12.210938 1.207031 12.210938 C 1.207031 12.210938 1.207031 12.214844 1.207031 12.214844 C 1.207031 12.21875 1.207031 12.21875 1.207031 12.21875 C 1.207031 12.21875 1.207031 12.21875 1.210938 12.21875 C 1.210938 12.222656 1.210938 12.222656 1.210938 12.222656 C 1.210938 12.222656 1.210938 12.222656 1.210938 12.226562 C 1.210938 12.226562 1.214844 12.226562 1.214844 12.226562 C 1.214844 12.226562 1.214844 12.230469 1.214844 12.230469 C 1.214844 12.234375 1.214844 12.234375 1.214844 12.234375 C 1.214844 12.234375 1.21875 12.234375 1.21875 12.234375 C 1.21875 12.238281 1.21875 12.238281 1.21875 12.238281 C 1.21875 12.238281 1.21875 12.238281 1.21875 12.242188 C 1.21875 12.242188 1.222656 12.242188 1.222656 12.242188 C 1.222656 12.242188 1.222656 12.246094 1.222656 12.246094 C 1.222656 12.25 1.222656 12.25 1.222656 12.25 C 1.222656 12.25 1.222656 12.25 1.226562 12.25 C 1.226562 12.25 1.226562 12.25 1.226562 12.253906 C 1.226562 12.253906 1.226562 12.253906 1.226562 12.257812 C 1.226562 12.257812 1.230469 12.257812 1.230469 12.257812 C 1.230469 12.257812 1.230469 12.261719 1.230469 12.261719 C 1.230469 12.265625 1.230469 12.265625 1.230469 12.265625 C 1.230469 12.265625 1.230469 12.265625 1.234375 12.265625 C 1.234375 12.265625 1.234375 12.265625 1.234375 12.269531 C 1.234375 12.273438 1.238281 12.273438 1.238281 12.273438 C 1.238281 12.273438 1.238281 12.273438 1.238281 12.277344 C 1.238281 12.277344 1.238281 12.28125 1.242188 12.28125 C 1.242188 12.285156 1.242188 12.285156 1.242188 12.285156 C 1.242188 12.285156 1.242188 12.285156 1.246094 12.285156 C 1.246094 12.285156 1.246094 12.289062 1.246094 12.289062 C 1.246094 12.289062 1.246094 12.289062 1.246094 12.292969 C 1.246094 12.292969 1.246094 12.292969 1.25 12.292969 C 1.25 12.292969 1.25 12.296875 1.25 12.296875 C 1.25 12.296875 1.25 12.300781 1.25 12.300781 C 1.25 12.300781 1.253906 12.300781 1.253906 12.300781 C 1.253906 12.304688 1.253906 12.304688 1.253906 12.304688 C 1.253906 12.304688 1.253906 12.304688 1.257812 12.308594 C 1.257812 12.308594 1.257812 12.3125 1.257812 12.3125 C 1.261719 12.3125 1.261719 12.3125 1.261719 12.3125 C 1.261719 12.3125 1.261719 12.316406 1.261719 12.316406 C 1.261719 12.316406 1.265625 12.316406 1.265625 12.320312 C 1.265625 12.320312 1.265625 12.320312 1.265625 12.324219 C 1.265625 12.324219 1.269531 12.324219 1.269531 12.324219 C 1.269531 12.324219 1.269531 12.324219 1.269531 12.328125 C 1.269531 12.328125 1.269531 12.328125 1.273438 12.332031 L 1.273438 12.335938 C 1.273438 12.335938 1.277344 12.335938 1.277344 12.335938 C 1.277344 12.335938 1.277344 12.335938 1.277344 12.339844 C 1.28125 12.339844 1.28125 12.339844 1.28125 12.339844 C 1.28125 12.34375 1.28125 12.34375 1.28125 12.34375 L 1.285156 12.34375 C 1.285156 12.347656 1.285156 12.347656 1.285156 12.347656 C 1.285156 12.351562 1.285156 12.351562 1.289062 12.351562 C 1.289062 12.355469 1.289062 12.355469 1.289062 12.355469 C 1.292969 12.355469 1.292969 12.355469 1.292969 12.355469 C 1.292969 12.355469 1.292969 12.355469 1.292969 12.359375 C 1.296875 12.359375 1.296875 12.363281 1.296875 12.363281 C 1.296875 12.363281 1.300781 12.363281 1.300781 12.367188 C 1.300781 12.367188 1.300781 12.371094 1.304688 12.371094 L 1.304688 12.375 C 1.304688 12.375 1.304688 12.375 1.308594 12.375 C 1.308594 12.375 1.308594 12.375 1.308594 12.378906 C 1.308594 12.378906 1.308594 12.378906 1.3125 12.378906 C 1.3125 12.378906 1.3125 12.378906 1.3125 12.382812 C 1.3125 12.382812 1.3125 12.382812 1.316406 12.382812 C 1.316406 12.382812 1.316406 12.382812 1.316406 12.386719 L 1.320312 12.386719 C 1.320312 12.390625 1.320312 12.390625 1.320312 12.390625 C 1.324219 12.394531 1.324219 12.394531 1.324219 12.394531 C 1.324219 12.398438 1.328125 12.398438 1.328125 12.398438 C 1.328125 12.398438 1.328125 12.402344 1.332031 12.402344 C 1.332031 12.402344 1.332031 12.40625 1.332031 12.40625 C 1.332031 12.40625 1.332031 12.40625 1.335938 12.40625 C 1.335938 12.40625 1.335938 12.410156 1.335938 12.410156 C 1.335938 12.410156 1.335938 12.410156 1.339844 12.410156 C 1.339844 12.410156 1.339844 12.414062 1.339844 12.414062 C 1.339844 12.414062 1.339844 12.414062 1.34375 12.414062 C 1.34375 12.414062 1.34375 12.417969 1.34375 12.417969 L 1.347656 12.417969 C 1.347656 12.417969 1.347656 12.421875 1.347656 12.421875 L 1.351562 12.421875 C 1.351562 12.425781 1.351562 12.425781 1.351562 12.425781 C 1.355469 12.425781 1.355469 12.425781 1.355469 12.425781 C 1.355469 12.429688 1.355469 12.429688 1.355469 12.429688 C 1.359375 12.429688 1.359375 12.429688 1.359375 12.429688 C 1.359375 12.429688 1.359375 12.429688 1.359375 12.433594 C 1.359375 12.433594 1.363281 12.433594 1.363281 12.433594 C 1.363281 12.4375 1.363281 12.4375 1.363281 12.4375 C 1.363281 12.4375 1.367188 12.4375 1.367188 12.4375 C 1.367188 12.441406 1.367188 12.441406 1.367188 12.441406 C 1.367188 12.441406 1.367188 12.441406 1.371094 12.441406 C 1.371094 12.441406 1.371094 12.441406 1.371094 12.445312 C 1.371094 12.445312 1.371094 12.445312 1.375 12.445312 C 1.375 12.445312 1.375 12.445312 1.375 12.449219 C 1.375 12.449219 1.375 12.449219 1.378906 12.449219 C 1.378906 12.449219 1.378906 12.449219 1.378906 12.453125 C 1.382812 12.453125 1.382812 12.453125 1.382812 12.453125 C 1.382812 12.453125 1.382812 12.453125 1.382812 12.457031 C 1.382812 12.457031 1.386719 12.457031 1.386719 12.457031 C 1.386719 12.457031 1.386719 12.460938 1.386719 12.460938 C 1.386719 12.460938 1.386719 12.460938 1.390625 12.460938 L 1.390625 12.464844 C 1.394531 12.464844 1.394531 12.464844 1.394531 12.464844 C 1.394531 12.464844 1.394531 12.464844 1.394531 12.46875 C 1.394531 12.46875 1.394531 12.46875 1.398438 12.46875 C 1.398438 12.46875 1.398438 12.46875 1.398438 12.472656 C 1.402344 12.472656 1.402344 12.472656 1.402344 12.472656 C 1.402344 12.472656 1.402344 12.476562 1.402344 12.476562 C 1.402344 12.476562 1.402344 12.476562 1.40625 12.476562 C 1.40625 12.476562 1.40625 12.476562 1.40625 12.480469 C 1.40625 12.480469 1.40625 12.480469 1.410156 12.480469 C 1.410156 12.480469 1.410156 12.484375 1.410156 12.484375 C 1.414062 12.484375 1.414062 12.484375 1.414062 12.484375 C 1.414062 12.488281 1.417969 12.488281 1.417969 12.488281 C 1.417969 12.488281 1.417969 12.488281 1.421875 12.488281 C 1.421875 12.488281 1.421875 12.492188 1.421875 12.492188 C 1.425781 12.492188 1.425781 12.492188 1.425781 12.492188 C 1.425781 12.492188 1.425781 12.496094 1.425781 12.496094 C 1.425781 12.496094 1.425781 12.496094 1.429688 12.496094 C 1.429688 12.496094 1.429688 12.496094 1.429688 12.5 C 1.429688 12.5 1.429688 12.5 1.433594 12.5 C 1.433594 12.5 1.433594 12.5 1.433594 12.503906 C 1.433594 12.503906 1.433594 12.503906 1.4375 12.503906 C 1.4375 12.503906 1.441406 12.507812 1.441406 12.507812 C 1.445312 12.507812 1.445312 12.507812 1.445312 12.511719 C 1.449219 12.511719 1.449219 12.511719 1.449219 12.511719 C 1.449219 12.515625 1.449219 12.515625 1.453125 12.515625 C 1.453125 12.519531 1.453125 12.519531 1.457031 12.519531 C 1.457031 12.519531 1.460938 12.519531 1.460938 12.523438 C 1.460938 12.523438 1.464844 12.523438 1.464844 12.527344 C 1.46875 12.527344 1.46875 12.527344 1.46875 12.527344 C 1.472656 12.527344 1.472656 12.53125 1.472656 12.53125 C 1.476562 12.53125 1.476562 12.53125 1.476562 12.535156 C 1.496094 12.546875 1.511719 12.554688 1.53125 12.566406 L 1.308594 13.035156 C 1.363281 13.011719 1.417969 12.992188 1.476562 12.976562 L 1.726562 13.84375 L 1.765625 13.84375 L 1.765625 13.988281 C 1.375 14.105469 1.085938 14.46875 1.085938 14.902344 L 1.085938 15.636719 L 0.046875 15.636719 L 0.046875 17.039062 L 1.085938 17.039062 L 1.085938 18.210938 C 1.085938 18.210938 1.085938 18.214844 1.085938 18.214844 C 1.085938 18.214844 1.085938 18.21875 1.085938 18.21875 C 1.085938 18.21875 1.085938 18.222656 1.085938 18.222656 C 1.085938 18.226562 1.085938 18.226562 1.085938 18.226562 C 1.085938 18.230469 1.085938 18.230469 1.085938 18.230469 C 1.085938 18.234375 1.085938 18.234375 1.085938 18.234375 C 1.085938 18.238281 1.085938 18.238281 1.085938 18.238281 C 1.085938 18.242188 1.085938 18.242188 1.085938 18.242188 C 1.085938 18.246094 1.085938 18.246094 1.085938 18.246094 C 1.085938 18.25 1.085938 18.25 1.085938 18.25 L 1.085938 18.265625 C 1.085938 18.269531 1.085938 18.269531 1.085938 18.269531 L 1.085938 18.273438 C 1.085938 18.277344 1.085938 18.277344 1.085938 18.277344 L 1.085938 18.28125 C 1.085938 18.285156 1.085938 18.285156 1.085938 18.285156 L 1.085938 18.289062 C 1.085938 18.289062 1.085938 18.289062 1.085938 18.292969 C 1.085938 18.292969 1.085938 18.292969 1.085938 18.296875 C 1.085938 18.296875 1.085938 18.296875 1.085938 18.300781 C 1.085938 18.300781 1.085938 18.300781 1.085938 18.304688 C 1.085938 18.304688 1.085938 18.304688 1.085938 18.308594 C 1.085938 18.308594 1.085938 18.3125 1.085938 18.3125 C 1.085938 18.316406 1.085938 18.316406 1.085938 18.316406 C 1.085938 18.320312 1.085938 18.320312 1.085938 18.320312 C 1.085938 18.320312 1.085938 18.324219 1.085938 18.324219 C 1.085938 18.324219 1.085938 18.328125 1.085938 18.328125 C 1.085938 18.332031 1.085938 18.332031 1.085938 18.332031 C 1.085938 18.332031 1.085938 18.335938 1.085938 18.335938 C 1.085938 18.335938 1.085938 18.335938 1.085938 18.339844 C 1.085938 18.34375 1.085938 18.34375 1.085938 18.34375 C 1.085938 18.34375 1.085938 18.347656 1.085938 18.347656 C 1.085938 18.347656 1.089844 18.347656 1.089844 18.351562 C 1.089844 18.351562 1.089844 18.351562 1.089844 18.355469 C 1.089844 18.355469 1.089844 18.355469 1.089844 18.359375 C 1.089844 18.363281 1.089844 18.363281 1.089844 18.363281 C 1.089844 18.367188 1.089844 18.367188 1.089844 18.367188 C 1.089844 18.371094 1.089844 18.371094 1.089844 18.371094 C 1.089844 18.375 1.089844 18.378906 1.09375 18.382812 C 1.09375 18.386719 1.09375 18.394531 1.09375 18.398438 C 1.097656 18.402344 1.097656 18.40625 1.097656 18.410156 C 1.140625 18.617188 1.25 18.796875 1.402344 18.933594 C 1.40625 18.9375 1.40625 18.9375 1.40625 18.9375 C 1.40625 18.9375 1.40625 18.9375 1.410156 18.941406 C 1.410156 18.941406 1.414062 18.941406 1.414062 18.945312 C 1.417969 18.945312 1.417969 18.949219 1.421875 18.949219 C 1.425781 18.953125 1.429688 18.957031 1.4375 18.960938 C 1.4375 18.964844 1.4375 18.964844 1.441406 18.964844 C 1.441406 18.964844 1.441406 18.964844 1.441406 18.96875 C 1.441406 18.96875 1.445312 18.96875 1.445312 18.96875 C 1.445312 18.964844 1.445312 18.96875 1.449219 18.96875 C 1.449219 18.96875 1.453125 18.972656 1.453125 18.972656 C 1.453125 18.972656 1.453125 18.972656 1.457031 18.972656 C 1.457031 18.972656 1.457031 18.976562 1.457031 18.976562 C 1.457031 18.976562 1.460938 18.976562 1.460938 18.976562 C 1.460938 18.976562 1.460938 18.980469 1.460938 18.980469 C 1.460938 18.980469 1.464844 18.980469 1.464844 18.980469 C 1.464844 18.984375 1.46875 18.984375 1.46875 18.984375 C 1.46875 18.984375 1.46875 18.984375 1.472656 18.984375 C 1.472656 18.988281 1.472656 18.988281 1.472656 18.988281 C 1.476562 18.988281 1.476562 18.988281 1.476562 18.988281 C 1.476562 18.992188 1.476562 18.992188 1.480469 18.992188 C 1.480469 18.992188 1.480469 18.992188 1.480469 18.996094 C 1.484375 18.996094 1.484375 18.996094 1.484375 18.996094 C 1.484375 18.996094 1.488281 18.996094 1.488281 19 C 1.488281 19 1.488281 19 1.492188 19 C 1.492188 19 1.492188 19 1.492188 19.003906 L 0.9375 19.84375 C 1.097656 19.738281 1.273438 19.652344 1.460938 19.597656 L 1.648438 20.234375 L 1.753906 20.234375 L 1.753906 20.609375 C 1.363281 20.726562 1.074219 21.089844 1.074219 21.523438 L 1.074219 22.027344 L 0.0351562 22.027344 L 0.0351562 23.433594 L 1.074219 23.433594 L 1.074219 25.539062 L 0.0351562 25.539062 L 0.0351562 26.945312 L 1.074219 26.945312 L 1.074219 29.054688 L 0.0351562 29.054688 L 0.0351562 30.457031 L 1.074219 30.457031 L 1.074219 31.984375 C 1.074219 31.988281 1.074219 31.988281 1.074219 31.988281 C 1.074219 31.992188 1.074219 31.992188 1.074219 31.992188 C 1.074219 31.992188 1.074219 31.992188 1.074219 31.996094 C 1.074219 31.996094 1.074219 31.996094 1.074219 32 C 1.074219 32.003906 1.074219 32.003906 1.074219 32.003906 C 1.074219 32.003906 1.074219 32.003906 1.074219 32.007812 C 1.074219 32.011719 1.074219 32.011719 1.074219 32.011719 L 1.074219 32.015625 C 1.074219 32.015625 1.074219 32.019531 1.074219 32.019531 C 1.074219 32.023438 1.074219 32.023438 1.074219 32.023438 C 1.074219 32.023438 1.074219 32.023438 1.074219 32.027344 C 1.074219 32.027344 1.074219 32.03125 1.074219 32.03125 C 1.074219 32.03125 1.074219 32.035156 1.074219 32.035156 C 1.074219 32.035156 1.074219 32.035156 1.074219 32.039062 C 1.074219 32.039062 1.074219 32.039062 1.074219 32.042969 C 1.074219 32.046875 1.074219 32.046875 1.074219 32.046875 C 1.074219 32.046875 1.074219 32.046875 1.074219 32.050781 C 1.074219 32.050781 1.074219 32.054688 1.074219 32.054688 C 1.074219 32.058594 1.074219 32.058594 1.074219 32.058594 L 1.074219 32.0625 C 1.074219 32.0625 1.074219 32.066406 1.074219 32.066406 C 1.074219 32.070312 1.074219 32.070312 1.074219 32.070312 C 1.074219 32.070312 1.074219 32.070312 1.074219 32.074219 C 1.074219 32.074219 1.074219 32.078125 1.074219 32.078125 C 1.074219 32.082031 1.074219 32.082031 1.074219 32.082031 C 1.074219 32.082031 1.074219 32.082031 1.074219 32.085938 C 1.074219 32.085938 1.074219 32.089844 1.074219 32.089844 C 1.074219 32.09375 1.074219 32.09375 1.074219 32.09375 L 1.074219 32.097656 C 1.074219 32.097656 1.074219 32.101562 1.074219 32.101562 C 1.074219 32.105469 1.074219 32.105469 1.074219 32.105469 C 1.074219 32.105469 1.074219 32.105469 1.074219 32.109375 C 1.074219 32.109375 1.074219 32.113281 1.074219 32.113281 C 1.074219 32.113281 1.074219 32.113281 1.078125 32.113281 C 1.078125 32.113281 1.078125 32.113281 1.078125 32.117188 C 1.078125 32.117188 1.078125 32.117188 1.078125 32.121094 C 1.078125 32.125 1.078125 32.125 1.078125 32.125 C 1.078125 32.128906 1.078125 32.128906 1.078125 32.128906 C 1.078125 32.128906 1.078125 32.128906 1.078125 32.132812 C 1.078125 32.132812 1.078125 32.136719 1.078125 32.136719 C 1.078125 32.140625 1.078125 32.140625 1.078125 32.140625 C 1.078125 32.140625 1.078125 32.140625 1.078125 32.144531 C 1.078125 32.144531 1.078125 32.148438 1.078125 32.148438 L 1.078125 32.152344 C 1.078125 32.152344 1.078125 32.152344 1.078125 32.15625 C 1.078125 32.15625 1.078125 32.160156 1.078125 32.160156 C 1.078125 32.160156 1.078125 32.160156 1.082031 32.160156 C 1.082031 32.164062 1.082031 32.164062 1.082031 32.164062 C 1.082031 32.164062 1.082031 32.164062 1.082031 32.167969 C 1.082031 32.171875 1.082031 32.171875 1.082031 32.171875 C 1.082031 32.175781 1.082031 32.175781 1.082031 32.175781 L 1.082031 32.171875 C 1.082031 32.175781 1.082031 32.175781 1.082031 32.175781 C 1.082031 32.175781 1.082031 32.179688 1.082031 32.179688 C 1.082031 32.183594 1.085938 32.183594 1.085938 32.183594 L 1.085938 32.1875 C 1.085938 32.1875 1.085938 32.1875 1.085938 32.191406 C 1.085938 32.191406 1.085938 32.195312 1.085938 32.195312 L 1.085938 32.199219 C 1.085938 32.203125 1.085938 32.203125 1.085938 32.203125 C 1.085938 32.203125 1.085938 32.207031 1.085938 32.207031 C 1.085938 32.207031 1.089844 32.207031 1.089844 32.207031 C 1.089844 32.210938 1.089844 32.210938 1.089844 32.210938 C 1.089844 32.210938 1.089844 32.210938 1.089844 32.214844 C 1.089844 32.214844 1.089844 32.214844 1.089844 32.21875 C 1.089844 32.21875 1.089844 32.21875 1.089844 32.222656 C 1.089844 32.226562 1.089844 32.226562 1.089844 32.226562 C 1.089844 32.230469 1.089844 32.230469 1.089844 32.230469 C 1.089844 32.230469 1.089844 32.234375 1.089844 32.234375 C 1.089844 32.234375 1.089844 32.234375 1.09375 32.234375 C 1.09375 32.234375 1.09375 32.234375 1.09375 32.238281 C 1.09375 32.238281 1.09375 32.238281 1.09375 32.242188 C 1.09375 32.246094 1.09375 32.246094 1.09375 32.246094 C 1.09375 32.246094 1.09375 32.246094 1.09375 32.25 C 1.09375 32.25 1.09375 32.25 1.09375 32.253906 C 1.09375 32.257812 1.097656 32.257812 1.097656 32.257812 C 1.097656 32.257812 1.097656 32.257812 1.097656 32.261719 C 1.097656 32.261719 1.097656 32.261719 1.097656 32.265625 C 1.097656 32.265625 1.097656 32.265625 1.097656 32.269531 C 1.097656 32.273438 1.097656 32.273438 1.097656 32.273438 C 1.097656 32.277344 1.097656 32.277344 1.097656 32.277344 C 1.097656 32.277344 1.097656 32.277344 1.101562 32.28125 C 1.101562 32.28125 1.101562 32.285156 1.101562 32.285156 C 1.101562 32.285156 1.101562 32.285156 1.101562 32.289062 C 1.101562 32.292969 1.101562 32.292969 1.101562 32.292969 C 1.101562 32.292969 1.105469 32.292969 1.105469 32.296875 C 1.105469 32.296875 1.105469 32.300781 1.105469 32.300781 C 1.105469 32.300781 1.105469 32.300781 1.105469 32.304688 C 1.105469 32.304688 1.105469 32.304688 1.105469 32.308594 L 1.105469 32.304688 C 1.105469 32.304688 1.109375 32.308594 1.109375 32.308594 C 1.109375 32.308594 1.109375 32.3125 1.109375 32.3125 C 1.109375 32.3125 1.109375 32.316406 1.109375 32.316406 C 1.109375 32.316406 1.113281 32.320312 1.113281 32.320312 C 1.113281 32.324219 1.113281 32.324219 1.113281 32.324219 C 1.113281 32.328125 1.113281 32.328125 1.113281 32.328125 C 1.113281 32.332031 1.117188 32.332031 1.117188 32.332031 C 1.117188 32.332031 1.117188 32.335938 1.117188 32.335938 C 1.117188 32.339844 1.117188 32.339844 1.117188 32.339844 L 1.121094 32.339844 C 1.121094 32.34375 1.121094 32.34375 1.121094 32.34375 C 1.121094 32.347656 1.121094 32.347656 1.121094 32.347656 C 1.121094 32.351562 1.121094 32.351562 1.121094 32.351562 C 1.121094 32.351562 1.121094 32.351562 1.125 32.351562 C 1.125 32.351562 1.125 32.355469 1.125 32.355469 C 1.125 32.355469 1.125 32.359375 1.125 32.359375 C 1.125 32.363281 1.125 32.363281 1.125 32.363281 C 1.128906 32.363281 1.128906 32.363281 1.128906 32.363281 L 1.128906 32.367188 C 1.128906 32.371094 1.128906 32.371094 1.128906 32.371094 C 1.128906 32.371094 1.128906 32.371094 1.132812 32.371094 C 1.132812 32.375 1.132812 32.375 1.132812 32.375 C 1.132812 32.375 1.132812 32.375 1.132812 32.378906 C 1.132812 32.378906 1.132812 32.378906 1.132812 32.382812 C 1.132812 32.382812 1.132812 32.382812 1.136719 32.382812 L 1.136719 32.386719 C 1.136719 32.390625 1.136719 32.390625 1.136719 32.390625 C 1.136719 32.394531 1.136719 32.394531 1.136719 32.394531 C 1.136719 32.394531 1.140625 32.394531 1.140625 32.394531 C 1.140625 32.398438 1.140625 32.398438 1.140625 32.398438 C 1.140625 32.398438 1.140625 32.398438 1.140625 32.402344 C 1.144531 32.402344 1.144531 32.402344 1.144531 32.40625 C 1.144531 32.40625 1.144531 32.40625 1.144531 32.410156 L 1.148438 32.414062 L 1.148438 32.417969 C 1.148438 32.417969 1.148438 32.421875 1.148438 32.421875 C 1.148438 32.421875 1.152344 32.421875 1.152344 32.421875 C 1.152344 32.425781 1.152344 32.425781 1.152344 32.425781 C 1.152344 32.425781 1.152344 32.429688 1.152344 32.429688 C 1.152344 32.429688 1.15625 32.429688 1.15625 32.429688 C 1.15625 32.429688 1.15625 32.429688 1.15625 32.433594 L 1.15625 32.4375 C 1.15625 32.4375 1.15625 32.4375 1.160156 32.4375 C 1.160156 32.4375 1.160156 32.4375 1.160156 32.441406 C 1.160156 32.445312 1.160156 32.445312 1.160156 32.445312 C 1.164062 32.449219 1.164062 32.449219 1.164062 32.449219 C 1.164062 32.453125 1.164062 32.453125 1.164062 32.453125 C 1.167969 32.457031 1.167969 32.457031 1.167969 32.457031 C 1.167969 32.460938 1.167969 32.460938 1.167969 32.460938 C 1.171875 32.464844 1.171875 32.464844 1.171875 32.464844 C 1.171875 32.464844 1.171875 32.46875 1.171875 32.46875 C 1.171875 32.46875 1.175781 32.472656 1.175781 32.472656 C 1.175781 32.476562 1.175781 32.476562 1.175781 32.476562 C 1.175781 32.476562 1.179688 32.476562 1.179688 32.476562 C 1.179688 32.476562 1.179688 32.480469 1.179688 32.480469 C 1.179688 32.484375 1.179688 32.484375 1.179688 32.484375 C 1.179688 32.484375 1.179688 32.484375 1.183594 32.484375 C 1.183594 32.488281 1.183594 32.488281 1.183594 32.488281 C 1.183594 32.488281 1.183594 32.492188 1.183594 32.492188 C 1.183594 32.492188 1.1875 32.492188 1.1875 32.492188 C 1.1875 32.492188 1.1875 32.492188 1.1875 32.496094 C 1.1875 32.496094 1.1875 32.5 1.1875 32.5 C 1.1875 32.5 1.191406 32.5 1.191406 32.5 C 1.191406 32.5 1.191406 32.5 1.191406 32.503906 C 1.195312 32.503906 1.195312 32.507812 1.195312 32.507812 C 1.195312 32.507812 1.195312 32.511719 1.195312 32.511719 C 1.195312 32.511719 1.195312 32.511719 1.199219 32.511719 C 1.199219 32.515625 1.199219 32.515625 1.199219 32.515625 L 1.199219 32.519531 C 1.199219 32.519531 1.199219 32.519531 1.203125 32.519531 C 1.203125 32.519531 1.203125 32.519531 1.203125 32.523438 C 1.203125 32.523438 1.207031 32.523438 1.207031 32.527344 L 1.207031 32.523438 C 1.207031 32.523438 1.207031 32.527344 1.207031 32.527344 C 1.207031 32.527344 1.207031 32.527344 1.210938 32.527344 L 0.359375 33.132812 C 0.125 32.792969 0 32.394531 0 31.976562 L 0 32.0625 C 0 33.125 0.855469 33.988281 1.902344 33.988281 L 2.460938 33.988281 L 2.460938 32.933594 L 4.535156 32.933594 L 4.535156 33.988281 L 5.917969 33.988281 L 5.917969 32.933594 L 7.996094 32.933594 L 7.996094 33.988281 L 9.378906 33.988281 L 9.378906 32.933594 L 11.453125 32.933594 L 11.453125 33.988281 L 12.835938 33.988281 L 12.835938 32.933594 L 14.914062 32.933594 L 14.914062 33.988281 L 16.296875 33.988281 L 16.296875 32.933594 L 18.371094 32.933594 L 18.371094 33.988281 L 19.039062 33.988281 C 20.089844 33.988281 20.945312 33.125 20.945312 32.0625 L 20.945312 31.976562 C 20.945312 32.472656 20.765625 32.949219 20.4375 33.320312 L 19.667969 32.617188 C 19.78125 32.484375 19.863281 32.324219 19.894531 32.144531 C 19.894531 32.144531 19.894531 32.144531 19.894531 32.140625 C 19.894531 32.136719 19.894531 32.132812 19.894531 32.128906 C 19.894531 32.128906 19.894531 32.125 19.894531 32.125 C 19.894531 32.121094 19.894531 32.121094 19.894531 32.121094 C 19.894531 32.117188 19.898438 32.113281 19.898438 32.109375 C 19.898438 32.109375 19.898438 32.105469 19.898438 32.105469 C 19.898438 32.101562 19.898438 32.101562 19.898438 32.101562 C 19.898438 32.101562 19.898438 32.097656 19.898438 32.097656 C 19.898438 32.097656 19.898438 32.09375 19.898438 32.089844 L 19.898438 32.082031 C 19.898438 32.078125 19.898438 32.078125 19.898438 32.078125 C 19.898438 32.078125 19.898438 32.074219 19.898438 32.074219 L 19.898438 32.066406 C 19.898438 32.0625 19.898438 32.0625 19.898438 32.0625 C 19.898438 32.0625 19.898438 32.0625 19.898438 32.058594 C 19.898438 32.058594 19.898438 32.054688 19.898438 32.054688 C 19.898438 32.050781 19.898438 32.050781 19.898438 32.050781 L 19.898438 32.039062 C 19.898438 32.039062 19.898438 32.035156 19.898438 32.035156 C 19.898438 32.03125 19.898438 32.03125 19.898438 32.03125 C 19.898438 32.03125 19.898438 32.03125 19.898438 32.027344 C 19.898438 32.027344 19.898438 32.027344 19.898438 32.023438 C 19.898438 32.019531 19.898438 32.019531 19.898438 32.019531 C 19.898438 32.019531 19.898438 32.019531 19.898438 32.015625 L 19.898438 32.011719 C 19.898438 32.011719 19.898438 32.011719 19.898438 32.007812 C 19.898438 32.007812 19.898438 32.007812 19.898438 32.003906 L 19.898438 32 C 19.898438 32 19.898438 31.996094 19.898438 31.996094 C 19.898438 31.992188 19.898438 31.992188 19.898438 31.992188 C 19.898438 31.988281 19.898438 31.988281 19.898438 31.988281 C 19.898438 31.988281 19.898438 31.988281 19.898438 31.984375 C 19.898438 31.980469 19.898438 31.980469 19.898438 31.980469 C 19.898438 31.980469 19.898438 31.976562 19.898438 31.976562 L 19.898438 30.570312 L 20.9375 30.570312 L 20.9375 29.164062 L 19.898438 29.164062 L 19.898438 27.058594 L 20.9375 27.058594 L 20.9375 25.652344 L 19.898438 25.652344 L 19.898438 23.542969 L 20.9375 23.542969 L 20.9375 22.140625 L 19.898438 22.140625 L 19.898438 21.519531 C 19.898438 21.105469 19.632812 20.753906 19.265625 20.621094 L 19.265625 20.425781 L 1.765625 20.425781 L 1.765625 19.183594 L 19.320312 19.183594 L 19.320312 20.3125 L 19.429688 20.3125 L 19.667969 19.625 C 19.761719 19.660156 19.851562 19.699219 19.9375 19.746094 L 19.5 19.023438 C 19.722656 18.886719 19.882812 18.660156 19.9375 18.398438 C 19.9375 18.394531 19.9375 18.390625 19.9375 18.386719 C 19.9375 18.386719 19.9375 18.386719 19.9375 18.382812 C 19.941406 18.382812 19.941406 18.378906 19.941406 18.375 C 19.941406 18.375 19.941406 18.371094 19.941406 18.371094 C 19.941406 18.371094 19.941406 18.367188 19.941406 18.363281 C 19.941406 18.363281 19.941406 18.359375 19.945312 18.359375 C 19.945312 18.359375 19.945312 18.355469 19.945312 18.355469 C 19.945312 18.355469 19.945312 18.355469 19.945312 18.351562 C 19.945312 18.347656 19.945312 18.347656 19.945312 18.347656 C 19.945312 18.347656 19.945312 18.34375 19.945312 18.34375 C 19.945312 18.34375 19.945312 18.339844 19.945312 18.339844 C 19.945312 18.335938 19.945312 18.335938 19.945312 18.335938 C 19.945312 18.335938 19.945312 18.332031 19.945312 18.332031 C 19.945312 18.332031 19.945312 18.328125 19.945312 18.328125 C 19.945312 18.328125 19.945312 18.328125 19.949219 18.328125 C 19.949219 18.324219 19.949219 18.324219 19.949219 18.324219 C 19.949219 18.324219 19.949219 18.320312 19.949219 18.320312 C 19.949219 18.320312 19.949219 18.316406 19.949219 18.316406 L 19.949219 18.3125 C 19.949219 18.3125 19.949219 18.308594 19.949219 18.308594 L 19.949219 18.304688 C 19.949219 18.304688 19.949219 18.304688 19.949219 18.300781 C 19.949219 18.300781 19.949219 18.296875 19.949219 18.296875 C 19.949219 18.296875 19.949219 18.296875 19.949219 18.292969 C 19.949219 18.292969 19.949219 18.292969 19.949219 18.289062 C 19.949219 18.285156 19.949219 18.285156 19.949219 18.285156 C 19.949219 18.285156 19.949219 18.285156 19.949219 18.28125 C 19.949219 18.277344 19.949219 18.277344 19.949219 18.277344 C 19.949219 18.277344 19.949219 18.273438 19.949219 18.273438 C 19.949219 18.269531 19.949219 18.269531 19.949219 18.269531 C 19.949219 18.269531 19.949219 18.269531 19.949219 18.265625 C 19.949219 18.265625 19.949219 18.261719 19.949219 18.261719 C 19.949219 18.257812 19.949219 18.257812 19.949219 18.257812 C 19.949219 18.257812 19.949219 18.257812 19.949219 18.253906 C 19.949219 18.25 19.949219 18.25 19.949219 18.25 C 19.949219 18.25 19.949219 18.25 19.949219 18.246094 C 19.949219 18.242188 19.949219 18.242188 19.949219 18.242188 C 19.949219 18.242188 19.949219 18.238281 19.949219 18.238281 C 19.949219 18.234375 19.949219 18.234375 19.949219 18.234375 C 19.949219 18.234375 19.949219 18.234375 19.949219 18.230469 C 19.949219 18.230469 19.949219 18.230469 19.949219 18.226562 C 19.949219 18.222656 19.949219 18.222656 19.949219 18.222656 C 19.949219 18.21875 19.949219 18.21875 19.949219 18.21875 C 19.949219 18.21875 19.949219 18.214844 19.949219 18.214844 C 19.949219 18.210938 19.949219 18.210938 19.949219 18.210938 L 19.949219 18.214844 C 19.949219 18.210938 19.949219 18.210938 19.949219 18.210938 C 19.949219 18.210938 19.949219 18.207031 19.949219 18.207031 L 19.949219 17.078125 L 20.988281 17.078125 L 20.988281 15.671875 L 19.949219 15.671875 L 19.949219 14.902344 C 19.949219 14.488281 19.683594 14.136719 19.316406 14.003906 L 19.316406 13.96875 L 1.765625 13.96875 L 1.765625 12.726562 L 19.320312 12.726562 L 19.320312 13.847656 L 19.375 13.847656 L 19.667969 13.007812 C 19.714844 13.027344 19.757812 13.042969 19.800781 13.0625 L 19.5 12.558594 C 19.6875 12.441406 19.835938 12.261719 19.90625 12.046875 C 19.90625 12.042969 19.90625 12.042969 19.90625 12.042969 C 19.910156 12.039062 19.910156 12.039062 19.910156 12.035156 C 19.910156 12.035156 19.910156 12.03125 19.910156 12.03125 C 19.910156 12.03125 19.914062 12.027344 19.914062 12.023438 C 19.914062 12.019531 19.917969 12.015625 19.917969 12.011719 C 19.917969 12.011719 19.917969 12.007812 19.917969 12.003906 C 19.917969 12.003906 19.921875 12.003906 19.921875 12 C 19.921875 12 19.921875 11.996094 19.921875 11.992188 C 19.921875 11.992188 19.921875 11.992188 19.921875 11.988281 C 19.921875 11.988281 19.925781 11.984375 19.925781 11.980469 C 19.925781 11.976562 19.925781 11.972656 19.925781 11.972656 C 19.925781 11.972656 19.925781 11.96875 19.925781 11.96875 C 19.925781 11.96875 19.929688 11.96875 19.929688 11.96875 C 19.929688 11.964844 19.929688 11.960938 19.929688 11.960938 C 19.929688 11.960938 19.929688 11.957031 19.929688 11.957031 C 19.929688 11.953125 19.929688 11.949219 19.933594 11.949219 C 19.933594 11.949219 19.933594 11.949219 19.933594 11.945312 C 19.933594 11.941406 19.933594 11.941406 19.933594 11.9375 L 19.933594 11.933594 C 19.933594 11.933594 19.933594 11.929688 19.933594 11.929688 C 19.933594 11.929688 19.933594 11.925781 19.933594 11.925781 C 19.933594 11.925781 19.9375 11.925781 19.9375 11.925781 C 19.9375 11.921875 19.9375 11.921875 19.9375 11.921875 C 19.9375 11.921875 19.9375 11.917969 19.9375 11.917969 C 19.9375 11.917969 19.9375 11.914062 19.9375 11.914062 C 19.9375 11.910156 19.9375 11.910156 19.9375 11.910156 C 19.9375 11.910156 19.9375 11.90625 19.9375 11.90625 C 19.9375 11.90625 19.9375 11.902344 19.9375 11.902344 C 19.9375 11.898438 19.9375 11.898438 19.9375 11.898438 C 19.941406 11.898438 19.941406 11.894531 19.941406 11.894531 C 19.941406 11.894531 19.941406 11.890625 19.941406 11.890625 C 19.941406 11.890625 19.941406 11.890625 19.941406 11.886719 C 19.941406 11.886719 19.941406 11.882812 19.941406 11.882812 C 19.941406 11.882812 19.941406 11.878906 19.941406 11.878906 C 19.941406 11.875 19.941406 11.875 19.941406 11.875 C 19.941406 11.875 19.941406 11.871094 19.941406 11.871094 C 19.941406 11.871094 19.941406 11.867188 19.941406 11.867188 C 19.941406 11.867188 19.941406 11.867188 19.941406 11.863281 C 19.941406 11.863281 19.941406 11.863281 19.941406 11.859375 C 19.941406 11.855469 19.941406 11.855469 19.941406 11.855469 C 19.941406 11.855469 19.941406 11.851562 19.941406 11.851562 C 19.941406 11.851562 19.941406 11.847656 19.941406 11.847656 C 19.941406 11.84375 19.941406 11.84375 19.941406 11.84375 C 19.941406 11.84375 19.941406 11.84375 19.941406 11.839844 C 19.941406 11.839844 19.941406 11.839844 19.945312 11.835938 C 19.945312 11.832031 19.945312 11.832031 19.945312 11.832031 C 19.945312 11.832031 19.945312 11.832031 19.945312 11.828125 C 19.945312 11.828125 19.945312 11.824219 19.945312 11.824219 C 19.945312 11.824219 19.945312 11.824219 19.945312 11.820312 C 19.945312 11.820312 19.945312 11.816406 19.945312 11.816406 C 19.945312 11.816406 19.945312 11.816406 19.945312 11.8125 C 19.945312 11.8125 19.945312 11.808594 19.945312 11.808594 C 19.945312 11.804688 19.945312 11.804688 19.945312 11.804688 C 19.945312 11.804688 19.945312 11.804688 19.945312 11.800781 C 19.945312 11.800781 19.945312 11.796875 19.945312 11.796875 C 19.945312 11.792969 19.945312 11.792969 19.945312 11.792969 C 19.945312 11.792969 19.945312 11.792969 19.945312 11.789062 C 19.945312 11.789062 19.945312 11.789062 19.945312 11.785156 C 19.945312 11.785156 19.945312 11.78125 19.945312 11.78125 C 19.945312 11.78125 19.945312 11.78125 19.945312 11.777344 C 19.945312 11.777344 19.945312 11.777344 19.945312 11.773438 C 19.945312 11.773438 19.945312 11.769531 19.945312 11.769531 C 19.945312 11.765625 19.945312 11.765625 19.945312 11.765625 C 19.945312 11.765625 19.945312 11.765625 19.945312 11.761719 C 19.945312 11.761719 19.945312 11.757812 19.945312 11.757812 C 19.945312 11.757812 19.945312 11.757812 19.945312 11.753906 C 19.945312 11.75 19.945312 11.75 19.945312 11.75 C 19.945312 11.75 19.945312 11.746094 19.945312 11.746094 L 19.945312 10.617188 L 20.980469 10.617188 L 20.980469 9.214844 L 19.945312 9.214844 L 19.945312 8.4375 C 19.945312 8.023438 19.675781 7.667969 19.3125 7.539062 L 19.3125 7.480469 L 1.765625 7.480469 L 1.765625 6.238281 L 19.320312 6.238281 L 19.320312 7.382812 L 19.375 7.382812 L 19.667969 6.542969 C 19.710938 6.558594 19.757812 6.578125 19.800781 6.597656 L 19.5 6.09375 C 19.65625 5.996094 19.785156 5.851562 19.867188 5.683594 C 19.867188 5.679688 19.867188 5.675781 19.871094 5.671875 C 19.871094 5.671875 19.871094 5.667969 19.875 5.664062 C 19.875 5.660156 19.878906 5.65625 19.878906 5.652344 C 19.878906 5.648438 19.882812 5.644531 19.882812 5.644531 C 19.882812 5.644531 19.882812 5.640625 19.882812 5.640625 C 19.882812 5.640625 19.886719 5.636719 19.886719 5.636719 C 19.886719 5.632812 19.886719 5.632812 19.886719 5.632812 C 19.886719 5.632812 19.886719 5.632812 19.886719 5.628906 C 19.886719 5.628906 19.890625 5.625 19.890625 5.625 C 19.890625 5.625 19.890625 5.625 19.890625 5.621094 C 19.890625 5.617188 19.894531 5.617188 19.894531 5.613281 L 19.894531 5.609375 C 19.894531 5.605469 19.898438 5.605469 19.898438 5.601562 C 19.898438 5.601562 19.898438 5.597656 19.898438 5.597656 C 19.898438 5.597656 19.898438 5.597656 19.898438 5.59375 C 19.898438 5.59375 19.898438 5.59375 19.902344 5.59375 C 19.902344 5.589844 19.902344 5.589844 19.902344 5.589844 C 19.902344 5.589844 19.902344 5.589844 19.902344 5.585938 C 19.902344 5.585938 19.902344 5.585938 19.902344 5.582031 C 19.902344 5.582031 19.90625 5.578125 19.90625 5.578125 C 19.90625 5.574219 19.90625 5.574219 19.90625 5.574219 C 19.90625 5.574219 19.90625 5.574219 19.90625 5.570312 C 19.90625 5.570312 19.90625 5.570312 19.90625 5.566406 C 19.90625 5.566406 19.90625 5.5625 19.910156 5.5625 C 19.910156 5.5625 19.910156 5.558594 19.910156 5.558594 C 19.910156 5.554688 19.910156 5.554688 19.910156 5.554688 C 19.910156 5.554688 19.910156 5.550781 19.910156 5.550781 C 19.910156 5.550781 19.910156 5.550781 19.910156 5.546875 C 19.910156 5.546875 19.910156 5.542969 19.910156 5.542969 C 19.910156 5.542969 19.914062 5.542969 19.914062 5.539062 C 19.914062 5.539062 19.914062 5.539062 19.914062 5.535156 C 19.914062 5.535156 19.914062 5.535156 19.914062 5.53125 C 19.914062 5.53125 19.914062 5.53125 19.914062 5.527344 C 19.914062 5.527344 19.914062 5.527344 19.917969 5.527344 C 19.917969 5.523438 19.917969 5.523438 19.917969 5.523438 C 19.917969 5.523438 19.917969 5.523438 19.917969 5.519531 C 19.917969 5.519531 19.917969 5.519531 19.917969 5.515625 C 19.917969 5.515625 19.917969 5.511719 19.917969 5.511719 C 19.917969 5.507812 19.917969 5.507812 19.917969 5.507812 C 19.917969 5.507812 19.917969 5.507812 19.917969 5.503906 C 19.917969 5.503906 19.917969 5.5 19.921875 5.5 C 19.921875 5.5 19.921875 5.496094 19.921875 5.496094 C 19.921875 5.492188 19.921875 5.492188 19.921875 5.492188 C 19.921875 5.492188 19.921875 5.492188 19.921875 5.488281 C 19.921875 5.488281 19.921875 5.484375 19.921875 5.484375 C 19.921875 5.480469 19.921875 5.480469 19.921875 5.480469 C 19.921875 5.480469 19.921875 5.480469 19.921875 5.476562 C 19.921875 5.476562 19.921875 5.476562 19.925781 5.472656 C 19.925781 5.46875 19.925781 5.46875 19.925781 5.46875 C 19.925781 5.46875 19.925781 5.46875 19.925781 5.464844 C 19.925781 5.464844 19.925781 5.460938 19.925781 5.460938 C 19.925781 5.460938 19.925781 5.460938 19.925781 5.457031 C 19.925781 5.453125 19.925781 5.453125 19.925781 5.453125 C 19.925781 5.453125 19.925781 5.449219 19.929688 5.449219 C 19.929688 5.445312 19.929688 5.445312 19.929688 5.445312 C 19.929688 5.445312 19.929688 5.445312 19.929688 5.441406 C 19.929688 5.441406 19.929688 5.441406 19.929688 5.4375 C 19.929688 5.4375 19.929688 5.433594 19.929688 5.433594 C 19.929688 5.429688 19.929688 5.429688 19.929688 5.429688 C 19.929688 5.425781 19.929688 5.425781 19.929688 5.425781 C 19.929688 5.425781 19.929688 5.425781 19.929688 5.421875 C 19.929688 5.421875 19.929688 5.417969 19.929688 5.417969 C 19.929688 5.417969 19.929688 5.417969 19.929688 5.414062 C 19.929688 5.410156 19.929688 5.410156 19.929688 5.410156 C 19.929688 5.410156 19.929688 5.40625 19.929688 5.40625 C 19.929688 5.40625 19.929688 5.402344 19.929688 5.402344 C 19.929688 5.398438 19.929688 5.398438 19.929688 5.398438 C 19.929688 5.398438 19.929688 5.398438 19.929688 5.394531 C 19.929688 5.394531 19.929688 5.390625 19.929688 5.390625 C 19.929688 5.386719 19.929688 5.386719 19.929688 5.386719 C 19.929688 5.382812 19.929688 5.382812 19.929688 5.382812 C 19.929688 5.382812 19.929688 5.382812 19.929688 5.378906 C 19.929688 5.378906 19.929688 5.375 19.929688 5.375 C 19.929688 5.375 19.929688 5.375 19.929688 5.371094 C 19.929688 5.371094 19.929688 5.367188 19.929688 5.367188 C 19.929688 5.367188 19.929688 5.367188 19.929688 5.363281 C 19.929688 5.363281 19.929688 5.359375 19.929688 5.359375 C 19.929688 5.355469 19.929688 5.355469 19.929688 5.355469 C 19.929688 5.355469 19.929688 5.355469 19.929688 5.351562 C 19.929688 5.351562 19.929688 5.347656 19.929688 5.347656 C 19.929688 5.34375 19.929688 5.34375 19.929688 5.34375 C 19.929688 5.34375 19.929688 5.34375 19.929688 5.339844 C 19.929688 5.339844 19.929688 5.339844 19.929688 5.335938 C 19.929688 5.335938 19.929688 5.332031 19.929688 5.332031 C 19.929688 5.328125 19.929688 5.328125 19.929688 5.328125 C 19.929688 5.328125 19.929688 5.324219 19.929688 5.324219 C 19.929688 5.320312 19.929688 5.320312 19.929688 5.320312 C 19.929688 5.316406 19.929688 5.316406 19.929688 5.316406 C 19.929688 5.316406 19.929688 5.3125 19.929688 5.3125 C 19.929688 5.308594 19.929688 5.308594 19.929688 5.308594 C 19.929688 5.304688 19.929688 5.304688 19.929688 5.304688 C 19.929688 5.304688 19.929688 5.300781 19.929688 5.300781 C 19.929688 5.296875 19.929688 5.296875 19.929688 5.296875 C 19.929688 5.296875 19.929688 5.296875 19.929688 5.292969 C 19.929688 5.289062 19.929688 5.289062 19.929688 5.289062 C 19.929688 5.285156 19.929688 5.285156 19.929688 5.285156 L 19.929688 4.15625 L 20.96875 4.15625 L 20.96875 2.75 L 19.929688 2.75 L 19.929688 1.96875 Z M 16.746094 25.664062 C 16.914062 25.757812 16.972656 25.96875 16.882812 26.140625 L 14.71875 30.113281 C 14.652344 30.226562 14.535156 30.292969 14.414062 30.292969 C 14.355469 30.292969 14.300781 30.28125 14.246094 30.25 C 14.082031 30.15625 14.019531 29.941406 14.113281 29.773438 L 16.277344 25.800781 C 16.367188 25.628906 16.582031 25.570312 16.746094 25.664062 Z M 14.183594 25.664062 C 14.351562 25.757812 14.410156 25.96875 14.320312 26.140625 L 12.152344 30.113281 C 12.089844 30.226562 11.972656 30.292969 11.851562 30.292969 C 11.792969 30.292969 11.738281 30.28125 11.683594 30.25 C 11.515625 30.15625 11.457031 29.941406 11.546875 29.773438 L 13.714844 25.800781 C 13.804688 25.628906 14.015625 25.570312 14.183594 25.664062 Z M 11.621094 25.664062 C 11.785156 25.757812 11.847656 25.96875 11.753906 26.140625 L 9.589844 30.113281 C 9.527344 30.226562 9.410156 30.292969 9.289062 30.292969 C 9.230469 30.292969 9.171875 30.28125 9.121094 30.25 C 8.953125 30.15625 8.894531 29.941406 8.984375 29.773438 L 11.148438 25.800781 C 11.242188 25.628906 11.453125 25.570312 11.621094 25.664062 Z M 9.058594 25.664062 C 9.222656 25.757812 9.285156 25.96875 9.191406 26.140625 L 7.027344 30.113281 C 6.964844 30.226562 6.847656 30.292969 6.722656 30.292969 C 6.667969 30.292969 6.609375 30.28125 6.558594 30.25 C 6.390625 30.15625 6.328125 29.941406 6.421875 29.773438 L 8.585938 25.800781 C 8.679688 25.628906 8.890625 25.570312 9.058594 25.664062 Z M 3.859375 29.773438 L 6.023438 25.800781 C 6.117188 25.628906 6.328125 25.570312 6.492188 25.664062 C 6.660156 25.757812 6.71875 25.96875 6.628906 26.140625 L 4.464844 30.113281 C 4.398438 30.226562 4.28125 30.292969 4.160156 30.292969 C 4.105469 30.292969 4.046875 30.277344 3.992188 30.25 C 3.824219 30.15625 3.765625 29.941406 3.859375 29.773438 Z M 17.820312 15.761719 C 18.253906 15.761719 18.605469 16.117188 18.605469 16.558594 C 18.605469 17 18.253906 17.355469 17.820312 17.355469 C 17.386719 17.355469 17.035156 17 17.035156 16.558594 C 17.035156 16.117188 17.386719 15.761719 17.820312 15.761719 Z M 15.199219 15.761719 C 15.636719 15.761719 15.984375 16.117188 15.984375 16.558594 C 15.984375 17 15.632812 17.355469 15.199219 17.355469 C 14.765625 17.355469 14.414062 17 14.414062 16.558594 C 14.414062 16.117188 14.765625 15.761719 15.199219 15.761719 Z M 17.820312 9.292969 C 18.253906 9.292969 18.605469 9.648438 18.605469 10.089844 C 18.605469 10.53125 18.253906 10.890625 17.820312 10.890625 C 17.386719 10.890625 17.035156 10.53125 17.035156 10.089844 C 17.035156 9.648438 17.386719 9.292969 17.820312 9.292969 Z M 15.199219 9.292969 C 15.636719 9.292969 15.984375 9.648438 15.984375 10.089844 C 15.984375 10.53125 15.632812 10.890625 15.199219 10.890625 C 14.765625 10.890625 14.414062 10.53125 14.414062 10.089844 C 14.414062 9.648438 14.765625 9.292969 15.199219 9.292969 Z M 15.199219 4.421875 C 14.765625 4.421875 14.414062 4.0625 14.414062 3.625 C 14.414062 3.183594 14.765625 2.824219 15.199219 2.824219 C 15.636719 2.824219 15.984375 3.183594 15.984375 3.625 C 15.984375 4.0625 15.636719 4.421875 15.199219 4.421875 Z M 17.820312 4.421875 C 17.386719 4.421875 17.035156 4.0625 17.035156 3.625 C 17.035156 3.183594 17.386719 2.824219 17.820312 2.824219 C 18.253906 2.824219 18.605469 3.183594 18.605469 3.625 C 18.605469 4.0625 18.253906 4.421875 17.820312 4.421875 Z M 17.820312 4.421875 "/>
<path style=" stroke:none;fill-rule:nonzero;fill:rgb(100%,100%,100%);fill-opacity:0.501961;" d="M 15.988281 3.625 C 15.988281 3.183594 15.636719 2.824219 15.199219 2.824219 C 14.765625 2.824219 14.414062 3.183594 14.414062 3.621094 C 14.414062 4.0625 14.765625 4.421875 15.199219 4.421875 C 15.632812 4.421875 15.988281 4.066406 15.988281 3.625 Z M 15.988281 3.625 "/>
<path style=" stroke:none;fill-rule:nonzero;fill:rgb(100%,100%,100%);fill-opacity:0.501961;" d="M 15.988281 10.089844 C 15.988281 9.648438 15.636719 9.292969 15.199219 9.292969 C 14.765625 9.292969 14.414062 9.648438 14.414062 10.089844 C 14.414062 10.53125 14.765625 10.890625 15.199219 10.890625 C 15.632812 10.890625 15.988281 10.53125 15.988281 10.089844 Z M 15.988281 10.089844 "/>
<path style=" stroke:none;fill-rule:nonzero;fill:rgb(100%,100%,100%);fill-opacity:0.501961;" d="M 15.988281 16.558594 C 15.988281 16.117188 15.636719 15.761719 15.199219 15.761719 C 14.765625 15.757812 14.414062 16.117188 14.414062 16.558594 C 14.414062 17 14.765625 17.355469 15.199219 17.355469 C 15.632812 17.355469 15.988281 17 15.988281 16.558594 Z M 15.988281 16.558594 "/>
<path style=" stroke:none;fill-rule:nonzero;fill:rgb(100%,100%,100%);fill-opacity:0.25098;" d="M 19.320312 7.382812 L 19.320312 6.234375 L 1.765625 6.234375 L 1.765625 7.476562 L 19.320312 7.476562 Z M 19.320312 7.382812 "/>
<path style=" stroke:none;fill-rule:nonzero;fill:rgb(100%,100%,100%);fill-opacity:0.25098;" d="M 19.320312 13.847656 L 19.320312 12.726562 L 1.765625 12.726562 L 1.765625 13.96875 L 19.320312 13.96875 Z M 19.320312 13.847656 "/>
<path style=" stroke:none;fill-rule:nonzero;fill:rgb(100%,100%,100%);fill-opacity:0.25098;" d="M 19.320312 20.316406 L 19.320312 19.1875 L 1.765625 19.1875 L 1.765625 20.429688 L 19.320312 20.429688 Z M 19.320312 20.316406 "/>
</g>
</svg>
