<?xml version="1.0" encoding="UTF-8"?>
<svg xmlns="http://www.w3.org/2000/svg" xmlns:xlink="http://www.w3.org/1999/xlink" width="36pt" height="20pt" viewBox="0 0 36 20" version="1.1">
<g id="surface1">
<path style=" stroke:none;fill-rule:nonzero;fill:rgb(24.705882%,41.960784%,63.921569%);fill-opacity:1;" d="M 34.425781 7.304688 L 31.621094 7.304688 L 31.621094 1.429688 C 31.621094 0.640625 30.996094 0 30.226562 0 C 29.453125 0 28.828125 0.640625 28.828125 1.429688 L 28.828125 7.304688 L 7.148438 7.304688 L 7.148438 1.429688 C 7.148438 0.640625 6.519531 0 5.75 0 C 4.976562 0 4.351562 0.640625 4.351562 1.429688 L 4.351562 7.304688 L 1.574219 7.304688 C 0.707031 7.304688 0 8.027344 0 8.914062 L 0 16.0625 C 0 16.867188 0.582031 17.539062 1.339844 17.652344 L 1.710938 17.675781 L 1.710938 19.992188 L 9.765625 19.992188 L 9.765625 17.671875 L 26.183594 17.671875 L 26.183594 19.992188 L 34.238281 20 L 34.238281 17.667969 L 34.425781 17.667969 C 35.292969 17.667969 36 16.945312 36 16.058594 L 36 8.914062 C 36 8.027344 35.292969 7.304688 34.425781 7.304688 Z M 34.425781 7.304688 "/>
<path style=" stroke:none;fill-rule:nonzero;fill:rgb(100%,100%,100%);fill-opacity:0.701961;" d="M 5.398438 1.429688 L 5.398438 7.304688 L 6.097656 7.304688 L 6.097656 1.429688 C 6.097656 1.230469 5.941406 1.070312 5.75 1.070312 C 5.554688 1.070312 5.398438 1.230469 5.398438 1.429688 Z M 5.398438 1.429688 "/>
<path style=" stroke:none;fill-rule:nonzero;fill:rgb(100%,100%,100%);fill-opacity:0.701961;" d="M 30.574219 1.429688 C 30.574219 1.230469 30.417969 1.070312 30.226562 1.070312 C 30.03125 1.070312 29.875 1.230469 29.875 1.429688 L 29.875 7.304688 L 30.574219 7.304688 Z M 30.574219 1.429688 "/>
<path style=" stroke:none;fill-rule:nonzero;fill:rgb(100%,100%,100%);fill-opacity:0.929412;" d="M 1.574219 16.585938 L 34.425781 16.585938 C 34.714844 16.585938 34.953125 16.347656 34.953125 16.050781 L 34.953125 8.90625 C 34.953125 8.609375 34.714844 8.367188 34.425781 8.367188 L 1.574219 8.367188 C 1.285156 8.367188 1.046875 8.609375 1.046875 8.90625 L 1.046875 16.050781 C 1.046875 16.347656 1.285156 16.585938 1.574219 16.585938 Z M 31.527344 11.316406 C 32.15625 11.316406 32.664062 11.835938 32.664062 12.476562 C 32.664062 13.121094 32.15625 13.640625 31.527344 13.640625 C 30.902344 13.640625 30.394531 13.121094 30.394531 12.476562 C 30.394531 11.835938 30.902344 11.316406 31.527344 11.316406 Z M 26.890625 11.316406 C 27.515625 11.316406 28.023438 11.835938 28.023438 12.476562 C 28.023438 13.121094 27.515625 13.640625 26.890625 13.640625 C 26.261719 13.640625 25.753906 13.121094 25.753906 12.476562 C 25.753906 11.835938 26.261719 11.316406 26.890625 11.316406 Z M 22.25 11.316406 C 22.875 11.316406 23.382812 11.835938 23.382812 12.476562 C 23.382812 13.121094 22.875 13.640625 22.25 13.640625 C 21.621094 13.640625 21.113281 13.121094 21.113281 12.476562 C 21.113281 11.835938 21.621094 11.316406 22.25 11.316406 Z M 17.609375 11.316406 C 18.234375 11.316406 18.742188 11.835938 18.742188 12.476562 C 18.742188 13.121094 18.234375 13.640625 17.609375 13.640625 C 16.980469 13.640625 16.472656 13.121094 16.472656 12.476562 C 16.472656 11.835938 16.980469 11.316406 17.609375 11.316406 Z M 9.84375 10.28125 L 10.890625 10.28125 L 10.890625 14.675781 L 9.84375 14.675781 Z M 7.585938 10.28125 L 8.632812 10.28125 L 8.632812 14.675781 L 7.585938 14.675781 Z M 5.328125 10.28125 L 6.375 10.28125 L 6.375 14.675781 L 5.328125 14.675781 Z M 3.070312 10.28125 L 4.121094 10.28125 L 4.121094 14.675781 L 3.070312 14.675781 Z M 3.070312 10.28125 "/>
<path style=" stroke:none;fill-rule:nonzero;fill:rgb(100%,100%,100%);fill-opacity:0.701961;" d="M 2.757812 17.660156 L 8.714844 17.660156 L 8.714844 18.910156 L 2.757812 18.910156 Z M 2.757812 17.660156 "/>
<path style=" stroke:none;fill-rule:nonzero;fill:rgb(100%,100%,100%);fill-opacity:0.701961;" d="M 27.234375 17.660156 L 33.191406 17.660156 L 33.191406 18.910156 L 27.234375 18.910156 Z M 27.234375 17.660156 "/>
<path style=" stroke:none;fill-rule:nonzero;fill:rgb(100%,100%,100%);fill-opacity:0.501961;" d="M 28.023438 12.476562 C 28.023438 11.835938 27.515625 11.316406 26.890625 11.316406 C 26.261719 11.316406 25.753906 11.835938 25.753906 12.476562 C 25.753906 13.117188 26.261719 13.640625 26.886719 13.640625 C 27.515625 13.640625 28.023438 13.121094 28.023438 12.480469 Z M 28.023438 12.476562 "/>
<path style=" stroke:none;fill-rule:nonzero;fill:rgb(100%,100%,100%);fill-opacity:0.501961;" d="M 23.382812 12.476562 C 23.382812 11.835938 22.875 11.316406 22.25 11.316406 C 21.621094 11.316406 21.113281 11.835938 21.113281 12.476562 C 21.113281 13.117188 21.621094 13.640625 22.246094 13.640625 C 22.875 13.640625 23.382812 13.121094 23.382812 12.480469 Z M 23.382812 12.476562 "/>
<path style=" stroke:none;fill-rule:nonzero;fill:rgb(100%,100%,100%);fill-opacity:0.501961;" d="M 18.742188 12.476562 C 18.742188 11.835938 18.234375 11.316406 17.609375 11.316406 C 16.984375 11.316406 16.472656 11.835938 16.472656 12.476562 C 16.472656 13.117188 16.980469 13.640625 17.609375 13.640625 C 18.234375 13.640625 18.742188 13.121094 18.742188 12.480469 Z M 18.742188 12.476562 "/>
</g>
</svg>
