<?xml version="1.0" encoding="UTF-8"?>
<svg xmlns="http://www.w3.org/2000/svg" xmlns:xlink="http://www.w3.org/1999/xlink" width="27pt" height="40pt" viewBox="0 0 27 40" version="1.1">
<g id="surface1">
<path style=" stroke:none;fill-rule:nonzero;fill:rgb(24.705882%,41.960784%,63.921569%);fill-opacity:1;" d="M 21.175781 0 C 17.964844 0 15.351562 2.625 15.351562 5.855469 C 15.351562 5.859375 15.351562 5.863281 15.351562 5.867188 L 1.660156 5.855469 L 1.519531 5.855469 L 1.386719 5.894531 C 0.570312 6.132812 0 6.894531 0 7.746094 L 0 11.089844 C 0 11.671875 0.265625 12.210938 0.695312 12.570312 L 0.695312 12.796875 C 0.265625 13.160156 0 13.699219 0 14.28125 L 0 17.621094 C 0 18.203125 0.265625 18.742188 0.695312 19.101562 L 0.695312 19.332031 C 0.265625 19.691406 0 20.230469 0 20.8125 L 0 24.15625 C 0 24.734375 0.265625 25.277344 0.695312 25.636719 L 0.695312 26.019531 C 0.265625 26.378906 0 26.921875 0 27.5 L 0 38.066406 C 0 39.132812 0.863281 40 1.925781 40 L 19.25 40 C 20.3125 40 21.175781 39.132812 21.175781 38.066406 L 21.175781 27.503906 C 21.175781 26.941406 20.933594 26.421875 20.53125 26.0625 L 20.53125 25.597656 C 20.933594 25.234375 21.175781 24.714844 21.175781 24.15625 L 21.175781 20.8125 C 21.175781 20.25 20.933594 19.730469 20.53125 19.371094 L 20.53125 19.0625 C 20.933594 18.703125 21.175781 18.183594 21.175781 17.621094 L 21.175781 14.28125 C 21.175781 13.71875 20.933594 13.199219 20.53125 12.839844 L 20.53125 12.53125 C 20.78125 12.308594 20.96875 12.019531 21.074219 11.703125 C 21.109375 11.703125 21.140625 11.707031 21.175781 11.707031 C 24.386719 11.707031 27 9.082031 27 5.855469 C 27 2.625 24.386719 0 21.175781 0 Z M 21.175781 0 "/>
<path style=" stroke:none;fill-rule:nonzero;fill:rgb(100%,100%,100%);fill-opacity:0.501961;" d="M 16.164062 9.363281 C 16.164062 8.917969 15.804688 8.554688 15.363281 8.554688 C 14.921875 8.554688 14.5625 8.917969 14.5625 9.363281 C 14.558594 9.808594 14.917969 10.167969 15.363281 10.167969 C 15.804688 10.167969 16.164062 9.808594 16.164062 9.363281 Z M 16.164062 9.363281 "/>
<path style=" stroke:none;fill-rule:nonzero;fill:rgb(100%,100%,100%);fill-opacity:0.501961;" d="M 16.164062 15.914062 C 16.164062 15.46875 15.804688 15.109375 15.363281 15.109375 C 14.921875 15.109375 14.5625 15.46875 14.5625 15.914062 C 14.558594 16.359375 14.917969 16.722656 15.363281 16.722656 C 15.804688 16.722656 16.164062 16.363281 16.164062 15.917969 Z M 16.164062 15.914062 "/>
<path style=" stroke:none;fill-rule:nonzero;fill:rgb(100%,100%,100%);fill-opacity:0.501961;" d="M 16.164062 22.488281 C 16.164062 22.042969 15.804688 21.683594 15.363281 21.683594 C 14.921875 21.683594 14.5625 22.042969 14.5625 22.488281 C 14.558594 22.933594 14.917969 23.296875 15.363281 23.296875 C 15.804688 23.296875 16.164062 22.933594 16.164062 22.488281 Z M 16.164062 22.488281 "/>
<path style=" stroke:none;fill-rule:nonzero;fill:rgb(100%,100%,100%);fill-opacity:0.25098;" d="M 1.65625 12.050781 L 19.566406 12.050781 L 19.566406 13.308594 L 1.65625 13.308594 Z M 1.65625 12.050781 "/>
<path style=" stroke:none;fill-rule:nonzero;fill:rgb(100%,100%,100%);fill-opacity:0.25098;" d="M 1.65625 18.59375 L 19.566406 18.59375 L 19.566406 19.847656 L 1.65625 19.847656 Z M 1.65625 18.59375 "/>
<path style=" stroke:none;fill-rule:nonzero;fill:rgb(100%,100%,100%);fill-opacity:0.25098;" d="M 1.65625 25.195312 L 19.566406 25.195312 L 19.566406 26.449219 L 1.65625 26.449219 Z M 1.65625 25.195312 "/>
<path style=" stroke:none;fill-rule:nonzero;fill:rgb(100%,100%,100%);fill-opacity:0.8;" d="M 19.566406 13.371094 L 19.566406 13.308594 L 1.65625 13.308594 L 1.65625 13.355469 C 1.257812 13.472656 0.960938 13.839844 0.960938 14.277344 L 0.960938 17.621094 C 0.960938 18.058594 1.257812 18.429688 1.65625 18.546875 L 1.65625 18.59375 L 19.566406 18.59375 L 19.566406 18.53125 C 19.941406 18.398438 20.214844 18.042969 20.214844 17.621094 L 20.214844 14.277344 C 20.214844 13.859375 19.941406 13.503906 19.566406 13.371094 Z M 15.363281 16.722656 C 14.917969 16.722656 14.5625 16.359375 14.5625 15.914062 C 14.5625 15.46875 14.921875 15.109375 15.363281 15.109375 C 15.804688 15.109375 16.164062 15.46875 16.164062 15.914062 C 16.164062 16.359375 15.804688 16.722656 15.363281 16.722656 Z M 18.035156 16.722656 C 17.59375 16.722656 17.234375 16.359375 17.234375 15.914062 C 17.234375 15.46875 17.59375 15.109375 18.035156 15.109375 C 18.480469 15.109375 18.839844 15.46875 18.839844 15.914062 C 18.839844 16.359375 18.480469 16.722656 18.035156 16.722656 Z M 18.035156 16.722656 "/>
<path style=" stroke:none;fill-rule:nonzero;fill:rgb(100%,100%,100%);fill-opacity:0.8;" d="M 19.566406 19.902344 L 19.566406 19.847656 L 1.65625 19.847656 L 1.65625 19.886719 C 1.257812 20.003906 0.960938 20.375 0.960938 20.8125 L 0.960938 24.15625 C 0.960938 24.59375 1.257812 24.960938 1.65625 25.078125 L 1.65625 25.195312 L 19.566406 25.195312 L 19.566406 25.066406 C 19.941406 24.929688 20.214844 24.574219 20.214844 24.15625 L 20.214844 20.8125 C 20.214844 20.390625 19.941406 20.035156 19.566406 19.902344 Z M 15.363281 23.296875 C 14.917969 23.296875 14.5625 22.933594 14.5625 22.488281 C 14.5625 22.042969 14.921875 21.683594 15.363281 21.683594 C 15.804688 21.683594 16.164062 22.042969 16.164062 22.488281 C 16.164062 22.933594 15.804688 23.296875 15.363281 23.296875 Z M 18.035156 23.296875 C 17.59375 23.296875 17.234375 22.933594 17.234375 22.488281 C 17.234375 22.042969 17.59375 21.683594 18.035156 21.683594 C 18.480469 21.683594 18.839844 22.042969 18.839844 22.488281 C 18.839844 22.933594 18.480469 23.296875 18.035156 23.296875 Z M 18.035156 23.296875 "/>
<path style=" stroke:none;fill-rule:nonzero;fill:rgb(100%,100%,100%);fill-opacity:0.8;" d="M 19.566406 26.59375 L 19.566406 26.449219 L 1.65625 26.449219 L 1.65625 26.578125 C 1.257812 26.695312 0.960938 27.0625 0.960938 27.5 L 0.960938 38.066406 C 0.960938 38.597656 1.394531 39.03125 1.925781 39.03125 L 19.25 39.03125 C 19.78125 39.03125 20.214844 38.597656 20.214844 38.066406 L 20.214844 27.503906 C 20.214844 27.082031 19.941406 26.726562 19.566406 26.59375 Z M 4.097656 36.191406 C 4.046875 36.191406 3.992188 36.179688 3.945312 36.148438 C 3.789062 36.0625 3.734375 35.867188 3.820312 35.710938 L 6.027344 31.699219 C 6.113281 31.542969 6.308594 31.488281 6.464844 31.574219 C 6.617188 31.660156 6.675781 31.855469 6.589844 32.011719 L 4.378906 36.023438 C 4.320312 36.128906 4.210938 36.191406 4.097656 36.191406 Z M 6.714844 36.191406 C 6.660156 36.191406 6.609375 36.179688 6.558594 36.148438 C 6.40625 36.0625 6.347656 35.867188 6.433594 35.710938 L 8.644531 31.699219 C 8.730469 31.542969 8.925781 31.488281 9.078125 31.574219 C 9.234375 31.660156 9.289062 31.855469 9.203125 32.011719 L 6.996094 36.023438 C 6.9375 36.128906 6.828125 36.191406 6.714844 36.191406 Z M 9.328125 36.191406 C 9.277344 36.191406 9.222656 36.179688 9.175781 36.148438 C 9.019531 36.0625 8.964844 35.867188 9.050781 35.710938 L 11.257812 31.699219 C 11.34375 31.542969 11.539062 31.488281 11.695312 31.574219 C 11.847656 31.660156 11.90625 31.855469 11.820312 32.011719 L 9.609375 36.023438 C 9.550781 36.128906 9.441406 36.191406 9.328125 36.191406 Z M 11.945312 36.191406 C 11.890625 36.191406 11.839844 36.179688 11.789062 36.148438 C 11.636719 36.0625 11.578125 35.867188 11.664062 35.710938 L 13.875 31.699219 C 13.960938 31.542969 14.15625 31.488281 14.308594 31.574219 C 14.464844 31.660156 14.519531 31.855469 14.433594 32.011719 L 12.226562 36.023438 C 12.167969 36.128906 12.058594 36.191406 11.945312 36.191406 Z M 17.050781 32.011719 L 14.839844 36.023438 C 14.785156 36.128906 14.671875 36.191406 14.5625 36.191406 C 14.507812 36.191406 14.453125 36.179688 14.40625 36.152344 C 14.25 36.066406 14.195312 35.867188 14.28125 35.710938 L 16.488281 31.699219 C 16.574219 31.542969 16.769531 31.488281 16.925781 31.574219 C 17.078125 31.660156 17.136719 31.855469 17.050781 32.011719 Z M 17.050781 32.011719 "/>
<path style=" stroke:none;fill-rule:nonzero;fill:rgb(100%,100%,100%);fill-opacity:0.8;" d="M 15.441406 6.832031 L 1.65625 6.820312 C 1.257812 6.9375 0.960938 7.308594 0.960938 7.746094 L 0.960938 11.089844 C 0.960938 11.527344 1.257812 11.894531 1.65625 12.015625 L 1.65625 12.050781 L 19.566406 12.050781 L 19.566406 12 C 19.773438 11.925781 19.949219 11.78125 20.0625 11.597656 C 17.699219 11.136719 15.84375 9.230469 15.441406 6.832031 Z M 15.363281 10.167969 C 14.917969 10.167969 14.5625 9.808594 14.5625 9.363281 C 14.5625 8.917969 14.921875 8.554688 15.363281 8.554688 C 15.804688 8.554688 16.164062 8.917969 16.164062 9.363281 C 16.164062 9.808594 15.804688 10.167969 15.363281 10.167969 Z M 15.363281 10.167969 "/>
<path style=" stroke:none;fill-rule:nonzero;fill:rgb(100%,100%,100%);fill-opacity:1;" d="M 21.175781 0.832031 C 18.449219 0.832031 16.234375 3.054688 16.234375 5.796875 C 16.234375 8.542969 18.449219 10.765625 21.175781 10.765625 C 23.90625 10.765625 26.117188 8.542969 26.117188 5.796875 C 26.117188 3.054688 23.90625 0.832031 21.175781 0.832031 Z M 21.175781 2.4375 C 22.675781 2.4375 23.894531 2.820312 23.894531 3.289062 C 23.894531 3.757812 22.675781 4.140625 21.175781 4.140625 C 19.675781 4.140625 18.457031 3.757812 18.457031 3.289062 C 18.457031 2.820312 19.675781 2.4375 21.175781 2.4375 Z M 23.894531 8.550781 C 23.894531 9.019531 22.675781 9.402344 21.175781 9.402344 C 19.675781 9.402344 18.457031 9.019531 18.457031 8.550781 L 18.457031 7.617188 C 19.089844 8.019531 20.1875 8.179688 21.175781 8.179688 C 22.164062 8.179688 23.261719 8.019531 23.894531 7.617188 Z M 23.894531 6.796875 C 23.894531 7.265625 22.675781 7.648438 21.175781 7.648438 C 19.675781 7.648438 18.457031 7.265625 18.457031 6.796875 L 18.457031 5.863281 C 19.089844 6.265625 20.1875 6.425781 21.175781 6.425781 C 22.164062 6.425781 23.261719 6.265625 23.894531 5.863281 Z M 23.894531 5.042969 C 23.894531 5.511719 22.675781 5.894531 21.175781 5.894531 C 19.675781 5.894531 18.457031 5.511719 18.457031 5.042969 L 18.457031 4.113281 C 19.089844 4.511719 20.1875 4.671875 21.175781 4.671875 C 22.164062 4.671875 23.261719 4.511719 23.894531 4.113281 Z M 23.894531 5.042969 "/>
</g>
</svg>
