<?xml version="1.0" encoding="UTF-8"?>
<svg xmlns="http://www.w3.org/2000/svg" xmlns:xlink="http://www.w3.org/1999/xlink" width="33pt" height="29pt" viewBox="0 0 33 29" version="1.1">
<g id="surface1">
<path style=" stroke:none;fill-rule:nonzero;fill:rgb(24.705882%,41.960784%,63.921569%);fill-opacity:1;" d="M 32.792969 0.535156 C 32.574219 0.210938 32.203125 0 31.78125 0 L 1.214844 0 C 0.546875 0 0 0.542969 0 1.214844 L 0 23.753906 C 0 24.003906 0.078125 24.238281 0.207031 24.429688 C 0.214844 24.441406 0.226562 24.453125 0.234375 24.464844 C 0.386719 24.671875 0.605469 24.828125 0.855469 24.90625 C 0.972656 24.941406 1.089844 24.964844 1.214844 24.964844 L 12.972656 24.964844 L 12.972656 25.945312 L 9.25 25.945312 C 8.578125 25.945312 8.035156 26.492188 8.035156 27.160156 L 8.035156 27.785156 C 8.035156 28.457031 8.578125 29 9.25 29 L 23.851562 29 C 24.015625 29 24.179688 28.964844 24.324219 28.90625 C 24.757812 28.71875 25.066406 28.289062 25.066406 27.785156 L 25.066406 27.160156 C 25.066406 26.65625 24.757812 26.226562 24.324219 26.039062 C 24.179688 25.980469 24.019531 25.945312 23.851562 25.945312 L 20.027344 25.945312 L 20.027344 24.964844 L 31.785156 24.964844 C 32.453125 24.964844 33 24.421875 33 23.753906 L 33 1.214844 C 33 0.964844 32.921875 0.730469 32.792969 0.535156 Z M 32.792969 0.535156 "/>
<path style=" stroke:none;fill-rule:nonzero;fill:rgb(100%,100%,100%);fill-opacity:0.929412;" d="M 31.78125 1.085938 L 1.214844 1.085938 C 1.132812 1.085938 1.066406 1.152344 1.066406 1.234375 L 1.066406 23.777344 C 1.066406 23.859375 1.132812 23.925781 1.214844 23.925781 L 31.785156 23.925781 C 31.867188 23.925781 31.933594 23.859375 31.933594 23.777344 L 31.933594 1.234375 C 31.933594 1.152344 31.867188 1.085938 31.78125 1.085938 Z M 30.472656 20.429688 L 2.527344 20.429688 L 2.527344 2.5 L 30.472656 2.5 Z M 30.472656 20.429688 "/>
<path style=" stroke:none;fill-rule:nonzero;fill:rgb(100%,100%,100%);fill-opacity:0.929412;" d="M 23.851562 27.039062 L 9.25 27.039062 C 9.167969 27.039062 9.097656 27.105469 9.097656 27.1875 L 9.097656 27.816406 C 9.097656 27.898438 9.167969 27.96875 9.25 27.96875 L 23.847656 27.96875 C 23.929688 27.96875 24 27.898438 24 27.816406 L 24 27.1875 C 24 27.105469 23.929688 27.039062 23.851562 27.039062 Z M 23.851562 27.039062 "/>
<path style=" stroke:none;fill-rule:nonzero;fill:rgb(100%,100%,100%);fill-opacity:0.101961;" d="M 2.527344 2.5 L 2.527344 20.429688 L 6.292969 20.429688 L 16.664062 2.5 Z M 2.527344 2.5 "/>
<path style=" stroke:none;fill-rule:nonzero;fill:rgb(100%,100%,100%);fill-opacity:0.701961;" d="M 17.9375 25.949219 L 18.960938 25.949219 L 18.960938 24.972656 L 15.0625 24.972656 "/>
<path style=" stroke:none;fill-rule:nonzero;fill:rgb(100%,100%,100%);fill-opacity:0.85098;" d="M 15.058594 24.972656 L 14.039062 24.972656 L 14.039062 25.949219 L 17.917969 25.949219 "/>
</g>
</svg>
