<?xml version="1.0" encoding="UTF-8"?>
<svg xmlns="http://www.w3.org/2000/svg" xmlns:xlink="http://www.w3.org/1999/xlink" width="18pt" height="32pt" viewBox="0 0 18 32" version="1.1">
<g id="surface1">
<path style=" stroke:none;fill-rule:nonzero;fill:rgb(24.705882%,41.960784%,63.921569%);fill-opacity:1;" d="M 15.175781 0 L 2.824219 0 C 1.265625 0 0 1.261719 0 2.8125 L 0 29.1875 C 0 30.738281 1.265625 32 2.824219 32 L 15.175781 32 C 16.734375 32 18 30.738281 18 29.1875 L 18 2.8125 C 18 1.261719 16.734375 0 15.175781 0 Z M 15.175781 0 "/>
<path style=" stroke:none;fill-rule:nonzero;fill:rgb(100%,100%,100%);fill-opacity:0.929412;" d="M 15.175781 1.054688 L 2.824219 1.054688 C 1.851562 1.054688 1.058594 1.847656 1.058594 2.8125 L 1.058594 29.1875 C 1.058594 30.152344 1.851562 30.945312 2.824219 30.945312 L 15.175781 30.945312 C 16.148438 30.945312 16.941406 30.152344 16.941406 29.1875 L 16.941406 2.8125 C 16.941406 1.847656 16.148438 1.054688 15.175781 1.054688 Z M 8.292969 2.652344 L 9.707031 2.652344 C 10 2.652344 10.234375 2.886719 10.234375 3.179688 C 10.234375 3.46875 10 3.707031 9.707031 3.707031 L 8.292969 3.707031 C 8 3.707031 7.765625 3.46875 7.765625 3.179688 C 7.765625 2.886719 8 2.652344 8.292969 2.652344 Z M 9 29.992188 C 8.414062 29.992188 7.941406 29.519531 7.941406 28.9375 C 7.941406 28.351562 8.414062 27.882812 9 27.882812 C 9.585938 27.882812 10.058594 28.351562 10.058594 28.9375 C 10.058594 29.519531 9.585938 29.992188 9 29.992188 Z M 16.066406 26.976562 L 1.933594 26.976562 L 1.933594 5.023438 L 16.066406 5.023438 Z M 16.066406 26.976562 "/>
<path style=" stroke:none;fill-rule:nonzero;fill:rgb(100%,100%,100%);fill-opacity:0.14902;" d="M 1.933594 5.023438 L 1.933594 17.214844 L 9 5.023438 Z M 1.933594 5.023438 "/>
</g>
</svg>
