<?xml version="1.0" encoding="UTF-8"?>
<svg xmlns="http://www.w3.org/2000/svg" xmlns:xlink="http://www.w3.org/1999/xlink" width="29pt" height="31pt" viewBox="0 0 29 31" version="1.1">
<g id="surface1">
<path style=" stroke:none;fill-rule:nonzero;fill:rgb(24.705882%,41.960784%,63.921569%);fill-opacity:1;" d="M 27.425781 0 L 1.574219 0 C 0.707031 0 0 0.710938 0 1.585938 L 0 29.414062 C 0 30.289062 0.707031 31 1.574219 31 L 27.425781 31 C 28.292969 31 29 30.289062 29 29.414062 L 29 1.585938 C 29 0.710938 28.292969 0 27.425781 0 Z M 27.425781 0 "/>
<path style=" stroke:none;fill-rule:nonzero;fill:rgb(100%,100%,100%);fill-opacity:0.74902;" d="M 1.046875 22.597656 L 27.953125 22.597656 L 27.953125 24.125 L 1.046875 24.125 Z M 1.046875 22.597656 "/>
<path style=" stroke:none;fill-rule:nonzero;fill:rgb(100%,100%,100%);fill-opacity:0.74902;" d="M 1.046875 24.476562 L 27.953125 24.476562 L 27.953125 26.003906 L 1.046875 26.003906 Z M 1.046875 24.476562 "/>
<path style=" stroke:none;fill-rule:nonzero;fill:rgb(100%,100%,100%);fill-opacity:0.74902;" d="M 27.953125 1.585938 C 27.953125 1.292969 27.714844 1.058594 27.425781 1.058594 L 1.574219 1.058594 C 1.285156 1.058594 1.046875 1.292969 1.046875 1.585938 L 1.046875 22.246094 L 27.953125 22.246094 Z M 24.457031 17.460938 L 4.835938 17.460938 L 4.835938 4.957031 L 24.457031 4.957031 Z M 24.457031 17.460938 "/>
<path style=" stroke:none;fill-rule:nonzero;fill:rgb(100%,100%,100%);fill-opacity:0.74902;" d="M 1.046875 29.414062 C 1.046875 29.707031 1.285156 29.941406 1.574219 29.941406 L 27.425781 29.941406 C 27.714844 29.941406 27.953125 29.707031 27.953125 29.414062 L 27.953125 28.234375 L 1.046875 28.234375 Z M 1.046875 29.414062 "/>
<path style=" stroke:none;fill-rule:nonzero;fill:rgb(100%,100%,100%);fill-opacity:0.74902;" d="M 1.046875 26.355469 L 27.953125 26.355469 L 27.953125 27.882812 L 1.046875 27.882812 Z M 1.046875 26.355469 "/>
<path style=" stroke:none;fill-rule:nonzero;fill:rgb(100%,100%,100%);fill-opacity:0.501961;" d="M 4.835938 17.460938 L 24.457031 17.460938 L 24.457031 4.957031 L 4.835938 4.957031 Z M 18.328125 15.914062 C 17.746094 15.914062 17.277344 15.4375 17.277344 14.855469 C 17.277344 14.269531 17.746094 13.796875 18.328125 13.796875 C 18.90625 13.796875 19.375 14.269531 19.375 14.855469 C 19.375 15.4375 18.90625 15.914062 18.328125 15.914062 Z M 22.875 14.855469 C 22.875 15.4375 22.40625 15.914062 21.824219 15.914062 C 21.753906 15.914062 21.683594 15.90625 21.613281 15.890625 C 21.507812 15.867188 21.410156 15.828125 21.320312 15.777344 C 21.144531 15.675781 21 15.527344 20.902344 15.347656 C 20.824219 15.199219 20.777344 15.035156 20.777344 14.855469 C 20.777344 14.269531 21.246094 13.796875 21.824219 13.796875 C 22.003906 13.796875 22.167969 13.84375 22.316406 13.921875 C 22.375 13.957031 22.429688 13.992188 22.484375 14.035156 C 22.554688 14.09375 22.621094 14.160156 22.671875 14.234375 C 22.699219 14.269531 22.71875 14.308594 22.738281 14.34375 C 22.792969 14.4375 22.832031 14.535156 22.855469 14.640625 C 22.867188 14.710938 22.875 14.78125 22.875 14.855469 Z M 6.417969 6.671875 L 22.875 6.671875 L 22.875 12.242188 L 6.417969 12.242188 Z M 6.417969 6.671875 "/>
<path style=" stroke:none;fill-rule:nonzero;fill:rgb(100%,100%,100%);fill-opacity:0.25098;" d="M 6.417969 6.671875 L 22.875 6.671875 L 22.875 12.242188 L 6.417969 12.242188 Z M 6.417969 6.671875 "/>
<path style=" stroke:none;fill-rule:nonzero;fill:rgb(100%,100%,100%);fill-opacity:1;" d="M 19.238281 14.34375 C 19.21875 14.308594 19.199219 14.269531 19.171875 14.234375 C 19.121094 14.160156 19.054688 14.09375 18.980469 14.035156 C 18.929688 13.992188 18.875 13.957031 18.816406 13.921875 C 18.667969 13.84375 18.503906 13.796875 18.324219 13.796875 C 17.746094 13.796875 17.277344 14.269531 17.277344 14.855469 C 17.277344 15.035156 17.324219 15.199219 17.402344 15.347656 C 17.496094 15.527344 17.640625 15.675781 17.820312 15.777344 C 17.910156 15.828125 18.007812 15.871094 18.113281 15.890625 C 18.179688 15.90625 18.253906 15.914062 18.324219 15.914062 C 18.90625 15.914062 19.375 15.4375 19.375 14.855469 C 19.375 14.78125 19.367188 14.710938 19.351562 14.640625 C 19.332031 14.535156 19.289062 14.4375 19.238281 14.34375 Z M 19.238281 14.34375 "/>
<path style=" stroke:none;fill-rule:nonzero;fill:rgb(100%,100%,100%);fill-opacity:0.501961;" d="M 1.046875 27.882812 L 27.953125 27.882812 L 27.953125 28.234375 L 1.046875 28.234375 Z M 1.046875 27.882812 "/>
<path style=" stroke:none;fill-rule:nonzero;fill:rgb(100%,100%,100%);fill-opacity:0.501961;" d="M 1.046875 26.003906 L 27.953125 26.003906 L 27.953125 26.355469 L 1.046875 26.355469 Z M 1.046875 26.003906 "/>
<path style=" stroke:none;fill-rule:nonzero;fill:rgb(100%,100%,100%);fill-opacity:0.501961;" d="M 1.046875 24.125 L 27.953125 24.125 L 27.953125 24.476562 L 1.046875 24.476562 Z M 1.046875 24.125 "/>
<path style=" stroke:none;fill-rule:nonzero;fill:rgb(100%,100%,100%);fill-opacity:0.501961;" d="M 1.046875 22.246094 L 27.953125 22.246094 L 27.953125 22.597656 L 1.046875 22.597656 Z M 1.046875 22.246094 "/>
</g>
</svg>
