<?xml version="1.0" encoding="UTF-8"?>
<svg xmlns="http://www.w3.org/2000/svg" xmlns:xlink="http://www.w3.org/1999/xlink" width="21pt" height="28pt" viewBox="0 0 21 28" version="1.1">
<g id="surface1">
<path style=" stroke:none;fill-rule:nonzero;fill:rgb(24.705882%,41.960784%,63.921569%);fill-opacity:1;" d="M 19.441406 11.910156 L 18.777344 11.910156 L 18.777344 8.480469 C 18.777344 3.804688 15.066406 0 10.5 0 C 5.933594 0 2.222656 3.804688 2.222656 8.480469 L 2.222656 11.910156 L 1.558594 11.910156 C 0.699219 11.910156 0 12.625 0 13.507812 L 0 26.402344 C 0 26.78125 0.132812 27.121094 0.347656 27.394531 L 0.347656 27.644531 L 0.589844 27.644531 C 0.859375 27.863281 1.191406 28 1.558594 28 L 19.441406 28 C 20.300781 28 21 27.285156 21 26.402344 L 21 13.507812 C 21 12.625 20.300781 11.910156 19.441406 11.910156 Z M 14.855469 11.910156 L 6.144531 11.910156 L 6.144531 8.480469 C 6.144531 6.019531 8.097656 4.019531 10.5 4.019531 C 12.902344 4.019531 14.855469 6.019531 14.855469 8.480469 Z M 14.855469 11.910156 "/>
<path style=" stroke:none;fill-rule:nonzero;fill:rgb(100%,100%,100%);fill-opacity:0.929412;" d="M 10.5 1.066406 C 6.507812 1.066406 3.261719 4.390625 3.261719 8.480469 L 3.261719 11.910156 L 5.105469 11.910156 L 5.105469 8.445312 C 5.125 5.414062 7.539062 2.953125 10.5 2.953125 C 13.460938 2.953125 15.875 5.414062 15.890625 8.445312 L 15.894531 8.445312 L 15.894531 11.910156 L 17.738281 11.910156 L 17.738281 8.480469 C 17.738281 4.390625 14.492188 1.066406 10.5 1.066406 Z M 10.5 1.066406 "/>
<path style=" stroke:none;fill-rule:nonzero;fill:rgb(100%,100%,100%);fill-opacity:0.929412;" d="M 19.960938 13.507812 C 19.960938 13.210938 19.726562 12.972656 19.441406 12.972656 L 1.558594 12.972656 C 1.273438 12.972656 1.039062 13.210938 1.039062 13.507812 L 1.039062 23.777344 L 19.960938 23.777344 Z M 19.960938 13.507812 "/>
<path style=" stroke:none;fill-rule:nonzero;fill:rgb(100%,100%,100%);fill-opacity:0.74902;" d="M 1.039062 24.132812 L 1.039062 26.402344 C 1.039062 26.695312 1.273438 26.933594 1.558594 26.933594 L 19.441406 26.933594 C 19.671875 26.933594 19.863281 26.78125 19.933594 26.566406 L 19.933594 24.132812 Z M 1.039062 24.132812 "/>
<path style=" stroke:none;fill-rule:nonzero;fill:rgb(100%,100%,100%);fill-opacity:0.25098;" d="M 1.039062 23.777344 L 1.039062 24.132812 L 19.960938 24.132812 L 19.960938 23.777344 Z M 1.039062 23.777344 "/>
</g>
</svg>
