<?xml version="1.0" encoding="UTF-8"?>
<svg xmlns="http://www.w3.org/2000/svg" xmlns:xlink="http://www.w3.org/1999/xlink" width="35pt" height="27pt" viewBox="0 0 35 27" version="1.1">
<g id="surface1">
<path style=" stroke:none;fill-rule:nonzero;fill:rgb(24.705882%,41.960784%,63.921569%);fill-opacity:1;" d="M 34.625 8.621094 C 34.613281 8.554688 34.585938 8.492188 34.550781 8.4375 C 34.335938 7.945312 34.046875 7.488281 33.691406 7.085938 C 31.738281 4.429688 27.046875 0 17.5 0 C 7.953125 0 3.261719 4.429688 1.308594 7.085938 C 0.941406 7.503906 0.640625 7.980469 0.4375 8.464844 C 0.433594 8.46875 0.421875 8.496094 0.417969 8.503906 C 0.410156 8.523438 0.398438 8.546875 0.394531 8.570312 C 0.117188 9.246094 -0.0117188 9.953125 0 10.660156 C 0.00390625 11.097656 0.0625 11.535156 0.175781 11.964844 C 0.335938 12.574219 0.605469 13.144531 0.976562 13.667969 C 1.101562 13.84375 1.324219 13.925781 1.535156 13.867188 L 9.792969 11.605469 L 4.519531 18.429688 C 4.496094 18.460938 4.476562 18.492188 4.460938 18.527344 C 4.203125 18.910156 4.070312 19.355469 4.070312 19.8125 L 4.070312 24.695312 C 4.070312 25.964844 5.085938 27 6.332031 27 L 28.835938 27 C 30.082031 27 31.097656 25.964844 31.097656 24.695312 L 31.097656 19.8125 C 31.097656 19.363281 30.96875 18.929688 30.722656 18.550781 C 30.691406 18.484375 30.652344 18.421875 30.601562 18.375 L 25.414062 11.660156 L 33.464844 13.867188 C 33.511719 13.878906 33.554688 13.886719 33.601562 13.886719 C 33.765625 13.886719 33.925781 13.804688 34.023438 13.667969 C 34.394531 13.144531 34.664062 12.574219 34.824219 11.964844 C 34.9375 11.539062 34.992188 11.109375 35 10.683594 C 35.015625 9.984375 34.890625 9.285156 34.625 8.621094 Z M 24.785156 10.335938 C 24.78125 10.382812 24.78125 10.429688 24.777344 10.472656 C 24.777344 10.597656 24.777344 10.71875 24.785156 10.84375 L 24.199219 10.089844 L 24.199219 8.066406 C 24.199219 7.773438 23.96875 7.535156 23.679688 7.535156 L 20.011719 7.535156 C 19.722656 7.535156 19.488281 7.773438 19.488281 8.066406 L 19.488281 9.714844 L 15.691406 9.714844 L 15.691406 8.066406 C 15.691406 7.773438 15.460938 7.535156 15.171875 7.535156 L 11.503906 7.535156 C 11.214844 7.535156 10.980469 7.773438 10.980469 8.066406 L 10.980469 10.0625 L 10.203125 11.070312 C 10.214844 10.921875 10.222656 10.769531 10.226562 10.617188 C 10.230469 10.140625 10.175781 9.667969 10.054688 9.207031 C 9.960938 8.851562 9.828125 8.507812 9.664062 8.183594 C 9.652344 8.160156 9.640625 8.136719 9.628906 8.117188 C 9.386719 7.65625 9.082031 7.234375 8.722656 6.867188 C 11.777344 5.136719 17.234375 5.113281 17.480469 5.113281 L 17.519531 5.113281 C 17.765625 5.113281 23.222656 5.136719 26.277344 6.867188 C 25.644531 7.511719 25.179688 8.320312 24.945312 9.207031 C 24.867188 9.507812 24.820312 9.820312 24.796875 10.132812 C 24.789062 10.199219 24.785156 10.269531 24.785156 10.335938 Z M 24.785156 10.335938 "/>
<path style=" stroke:none;fill-rule:nonzero;fill:rgb(100%,100%,100%);fill-opacity:0.929412;" d="M 1.097656 11.265625 C 1.121094 11.40625 1.148438 11.546875 1.183594 11.6875 C 1.28125 12.058594 1.429688 12.410156 1.625 12.742188 L 9.183594 10.671875 C 9.191406 10.28125 9.144531 9.902344 9.046875 9.535156 C 9.003906 9.378906 8.953125 9.230469 8.894531 9.082031 Z M 1.097656 11.265625 "/>
<path style=" stroke:none;fill-rule:nonzero;fill:rgb(100%,100%,100%);fill-opacity:0.929412;" d="M 25.953125 9.535156 C 25.855469 9.902344 25.8125 10.28125 25.816406 10.671875 L 33.375 12.742188 C 33.570312 12.410156 33.71875 12.058594 33.816406 11.6875 C 33.851562 11.546875 33.878906 11.40625 33.902344 11.265625 L 26.105469 9.082031 C 26.046875 9.230469 25.992188 9.378906 25.953125 9.535156 Z M 25.953125 9.535156 "/>
<path style=" stroke:none;fill-rule:nonzero;fill:rgb(100%,100%,100%);fill-opacity:0.929412;" d="M 33.625 8.988281 C 33.625 8.980469 33.621094 8.972656 33.617188 8.964844 C 33.441406 8.546875 33.199219 8.167969 32.902344 7.828125 C 32.890625 7.816406 32.878906 7.804688 32.871094 7.792969 C 31.042969 5.296875 26.613281 1.113281 17.5 1.113281 C 8.386719 1.113281 3.957031 5.296875 2.128906 7.792969 C 2.121094 7.804688 2.109375 7.816406 2.097656 7.828125 C 1.800781 8.167969 1.558594 8.550781 1.382812 8.96875 C 1.378906 8.976562 1.375 8.984375 1.371094 8.988281 C 1.214844 9.371094 1.113281 9.769531 1.070312 10.167969 L 8.371094 8.128906 C 8.121094 7.789062 7.828125 7.488281 7.488281 7.242188 C 7.328125 7.125 7.246094 6.917969 7.28125 6.71875 C 7.3125 6.523438 7.449219 6.363281 7.632812 6.304688 C 10.761719 4.117188 16.796875 4.050781 17.480469 4.050781 L 17.519531 4.050781 C 18.203125 4.050781 24.238281 4.117188 27.367188 6.304688 C 27.550781 6.363281 27.6875 6.523438 27.71875 6.71875 C 27.753906 6.917969 27.671875 7.125 27.511719 7.242188 C 27.171875 7.488281 26.878906 7.792969 26.628906 8.128906 L 33.929688 10.167969 C 33.882812 9.765625 33.785156 9.371094 33.625 8.988281 Z M 33.625 8.988281 "/>
<path style=" stroke:none;fill-rule:nonzero;fill:rgb(100%,100%,100%);fill-opacity:0.929412;" d="M 30.050781 21.792969 L 30.050781 19.863281 C 30.050781 19.601562 29.96875 19.347656 29.808594 19.128906 C 29.796875 19.113281 29.789062 19.097656 29.777344 19.078125 L 23.25 10.628906 C 23.144531 10.492188 23.113281 10.316406 23.15625 10.15625 L 23.15625 8.648438 L 20.53125 8.648438 L 20.53125 10.300781 C 20.53125 10.59375 20.296875 10.832031 20.011719 10.832031 L 15.171875 10.832031 C 14.882812 10.832031 14.648438 10.59375 14.648438 10.300781 L 14.648438 8.648438 L 12.023438 8.648438 L 12.023438 10.300781 C 12.023438 10.417969 11.984375 10.535156 11.914062 10.628906 L 5.394531 19.066406 C 5.382812 19.089844 5.371094 19.109375 5.355469 19.128906 C 5.195312 19.347656 5.113281 19.601562 5.113281 19.863281 L 5.113281 21.796875 L 30.050781 21.796875 Z M 19.835938 12.289062 L 21.96875 12.289062 L 21.96875 13.339844 L 19.835938 13.339844 Z M 19.835938 14.542969 L 21.96875 14.542969 L 21.96875 15.59375 L 19.835938 15.59375 Z M 19.824219 16.800781 L 21.957031 16.800781 L 21.957031 17.847656 L 19.824219 17.847656 Z M 19.824219 19.035156 L 21.957031 19.035156 L 21.957031 20.085938 L 19.824219 20.085938 Z M 16.515625 12.289062 L 18.648438 12.289062 L 18.648438 13.339844 L 16.515625 13.339844 Z M 16.503906 14.542969 L 18.636719 14.542969 L 18.636719 15.59375 L 16.503906 15.59375 Z M 16.503906 16.800781 L 18.636719 16.800781 L 18.636719 17.847656 L 16.503906 17.847656 Z M 16.503906 19.035156 L 18.636719 19.035156 L 18.636719 20.085938 L 16.503906 20.085938 Z M 13.195312 12.289062 L 15.328125 12.289062 L 15.328125 13.339844 L 13.195312 13.339844 Z M 13.195312 14.542969 L 15.328125 14.542969 L 15.328125 15.59375 L 13.195312 15.59375 Z M 13.195312 16.800781 L 15.328125 16.800781 L 15.328125 17.847656 L 13.195312 17.847656 Z M 13.195312 19.054688 L 15.328125 19.054688 L 15.328125 20.105469 L 13.195312 20.105469 Z M 13.195312 19.054688 "/>
<path style=" stroke:none;fill-rule:nonzero;fill:rgb(100%,100%,100%);fill-opacity:0.701961;" d="M 28.835938 25.9375 C 29.507812 25.9375 30.050781 25.378906 30.050781 24.695312 L 30.050781 21.796875 L 5.113281 21.796875 L 5.113281 24.695312 C 5.113281 25.378906 5.660156 25.9375 6.332031 25.9375 Z M 28.835938 25.9375 "/>
<path style=" stroke:none;fill-rule:nonzero;fill:rgb(100%,100%,100%);fill-opacity:0.74902;" d="M 16.515625 12.289062 L 18.648438 12.289062 L 18.648438 13.339844 L 16.515625 13.339844 Z M 16.515625 12.289062 "/>
<path style=" stroke:none;fill-rule:nonzero;fill:rgb(100%,100%,100%);fill-opacity:0.74902;" d="M 19.835938 12.289062 L 21.96875 12.289062 L 21.96875 13.339844 L 19.835938 13.339844 Z M 19.835938 12.289062 "/>
<path style=" stroke:none;fill-rule:nonzero;fill:rgb(100%,100%,100%);fill-opacity:0.74902;" d="M 13.195312 12.289062 L 15.328125 12.289062 L 15.328125 13.339844 L 13.195312 13.339844 Z M 13.195312 12.289062 "/>
<path style=" stroke:none;fill-rule:nonzero;fill:rgb(100%,100%,100%);fill-opacity:0.74902;" d="M 16.503906 14.542969 L 18.636719 14.542969 L 18.636719 15.59375 L 16.503906 15.59375 Z M 16.503906 14.542969 "/>
<path style=" stroke:none;fill-rule:nonzero;fill:rgb(100%,100%,100%);fill-opacity:0.74902;" d="M 19.835938 14.542969 L 21.96875 14.542969 L 21.96875 15.59375 L 19.835938 15.59375 Z M 19.835938 14.542969 "/>
<path style=" stroke:none;fill-rule:nonzero;fill:rgb(100%,100%,100%);fill-opacity:0.74902;" d="M 13.195312 14.542969 L 15.328125 14.542969 L 15.328125 15.59375 L 13.195312 15.59375 Z M 13.195312 14.542969 "/>
<path style=" stroke:none;fill-rule:nonzero;fill:rgb(100%,100%,100%);fill-opacity:0.74902;" d="M 16.503906 16.800781 L 18.636719 16.800781 L 18.636719 17.847656 L 16.503906 17.847656 Z M 16.503906 16.800781 "/>
<path style=" stroke:none;fill-rule:nonzero;fill:rgb(100%,100%,100%);fill-opacity:0.74902;" d="M 19.824219 16.800781 L 21.957031 16.800781 L 21.957031 17.847656 L 19.824219 17.847656 Z M 19.824219 16.800781 "/>
<path style=" stroke:none;fill-rule:nonzero;fill:rgb(100%,100%,100%);fill-opacity:0.74902;" d="M 13.195312 16.800781 L 15.328125 16.800781 L 15.328125 17.847656 L 13.195312 17.847656 Z M 13.195312 16.800781 "/>
<path style=" stroke:none;fill-rule:nonzero;fill:rgb(100%,100%,100%);fill-opacity:0.74902;" d="M 16.503906 19.035156 L 18.636719 19.035156 L 18.636719 20.085938 L 16.503906 20.085938 Z M 16.503906 19.035156 "/>
<path style=" stroke:none;fill-rule:nonzero;fill:rgb(100%,100%,100%);fill-opacity:0.74902;" d="M 19.824219 19.035156 L 21.957031 19.035156 L 21.957031 20.085938 L 19.824219 20.085938 Z M 19.824219 19.035156 "/>
<path style=" stroke:none;fill-rule:nonzero;fill:rgb(100%,100%,100%);fill-opacity:0.74902;" d="M 13.195312 19.054688 L 15.328125 19.054688 L 15.328125 20.105469 L 13.195312 20.105469 Z M 13.195312 19.054688 "/>
</g>
</svg>
