<?xml version="1.0" encoding="UTF-8"?>
<svg xmlns="http://www.w3.org/2000/svg" xmlns:xlink="http://www.w3.org/1999/xlink" width="29pt" height="37pt" viewBox="0 0 29 37" version="1.1">
<g id="surface1">
<path style=" stroke:none;fill-rule:nonzero;fill:rgb(24.705882%,41.960784%,63.921569%);fill-opacity:1;" d="M 26.195312 0 L 2.804688 0 C 1.257812 0 0 1.273438 0 2.835938 L 0 34.164062 C 0 35.726562 1.257812 37 2.804688 37 L 26.195312 37 C 27.742188 37 29 35.726562 29 34.164062 L 29 2.835938 C 29 1.273438 27.742188 0 26.195312 0 Z M 26.195312 0 "/>
<path style=" stroke:none;fill-rule:nonzero;fill:rgb(100%,100%,100%);fill-opacity:0.929412;" d="M 26.195312 1.082031 L 2.804688 1.082031 C 1.839844 1.082031 1.050781 1.878906 1.050781 2.855469 L 1.050781 34.183594 C 1.050781 35.15625 1.839844 35.957031 2.804688 35.957031 L 26.195312 35.957031 C 27.160156 35.957031 27.949219 35.15625 27.949219 34.183594 L 27.949219 2.855469 C 27.949219 1.878906 27.160156 1.082031 26.195312 1.082031 Z M 14.5 34.992188 C 13.917969 34.992188 13.449219 34.515625 13.449219 33.929688 C 13.449219 33.34375 13.917969 32.867188 14.5 32.867188 C 15.082031 32.867188 15.550781 33.34375 15.550781 33.929688 C 15.550781 34.519531 15.082031 34.992188 14.5 34.992188 Z M 26.542969 31.953125 L 2.578125 31.953125 L 2.578125 5.453125 L 26.542969 5.453125 Z M 26.542969 31.953125 "/>
<path style=" stroke:none;fill-rule:nonzero;fill:rgb(100%,100%,100%);fill-opacity:0.101961;" d="M 2.578125 5.453125 L 2.578125 26.316406 L 14.5 5.453125 Z M 2.578125 5.453125 "/>
</g>
</svg>
