<?xml version="1.0" encoding="UTF-8"?>
<svg xmlns="http://www.w3.org/2000/svg" xmlns:xlink="http://www.w3.org/1999/xlink" width="42pt" height="19pt" viewBox="0 0 42 19" version="1.1">
<g id="surface1">
<path style=" stroke:none;fill-rule:nonzero;fill:rgb(24.705882%,41.960784%,63.921569%);fill-opacity:1;" d="M 40.273438 6.898438 C 41.226562 6.898438 42 6.109375 42 5.136719 L 42 1.761719 C 42 0.789062 41.226562 0 40.273438 0 L 1.726562 0 C 0.773438 0 0 0.789062 0 1.761719 L 0 5.136719 C 0 6.109375 0.773438 6.898438 1.726562 6.898438 L 2.8125 6.898438 L 2.8125 12.101562 L 1.726562 12.101562 C 0.773438 12.101562 0 12.890625 0 13.863281 L 0 17.238281 C 0 18.210938 0.773438 19 1.726562 19 L 40.273438 19 C 41.226562 19 42 18.210938 42 17.238281 L 42 13.863281 C 42 12.890625 41.226562 12.101562 40.273438 12.101562 L 39.050781 12.101562 L 39.050781 6.898438 Z M 40.273438 6.898438 "/>
<path style=" stroke:none;fill-rule:nonzero;fill:rgb(100%,100%,100%);fill-opacity:0.929412;" d="M 1.726562 1.082031 C 1.359375 1.082031 1.058594 1.390625 1.058594 1.761719 L 1.058594 5.136719 C 1.058594 5.511719 1.359375 5.816406 1.726562 5.816406 L 2.871094 5.816406 L 2.871094 1.082031 Z M 1.726562 1.082031 "/>
<path style=" stroke:none;fill-rule:nonzero;fill:rgb(100%,100%,100%);fill-opacity:0.929412;" d="M 40.941406 5.136719 L 40.941406 1.761719 C 40.941406 1.390625 40.640625 1.082031 40.277344 1.082031 L 38.992188 1.082031 L 38.992188 5.816406 L 40.277344 5.816406 C 40.640625 5.816406 40.941406 5.511719 40.941406 5.136719 Z M 40.941406 5.136719 "/>
<path style=" stroke:none;fill-rule:nonzero;fill:rgb(100%,100%,100%);fill-opacity:0.929412;" d="M 1.726562 13.183594 C 1.359375 13.183594 1.058594 13.488281 1.058594 13.863281 L 1.058594 17.238281 C 1.058594 17.609375 1.359375 17.917969 1.726562 17.917969 L 2.871094 17.917969 L 2.871094 13.183594 Z M 1.726562 13.183594 "/>
<path style=" stroke:none;fill-rule:nonzero;fill:rgb(100%,100%,100%);fill-opacity:0.929412;" d="M 40.273438 17.917969 C 40.640625 17.917969 40.941406 17.609375 40.941406 17.238281 L 40.941406 13.863281 C 40.941406 13.488281 40.640625 13.183594 40.273438 13.183594 L 38.992188 13.183594 L 38.992188 17.917969 Z M 40.273438 17.917969 "/>
<path style=" stroke:none;fill-rule:nonzero;fill:rgb(100%,100%,100%);fill-opacity:0.501961;" d="M 22.371094 1.082031 L 22.371094 2.082031 C 22.371094 2.894531 21.726562 3.554688 20.929688 3.554688 C 20.136719 3.554688 19.492188 2.894531 19.492188 2.082031 L 19.492188 1.082031 L 3.871094 1.082031 L 3.871094 17.917969 L 37.992188 17.917969 L 37.992188 1.082031 Z M 10.839844 3.597656 L 11.503906 3.597656 L 11.503906 14.589844 L 10.839844 14.589844 Z M 7.71875 15.507812 L 5.476562 15.507812 L 5.476562 2.660156 L 7.71875 2.660156 Z M 8.75 16.824219 C 8.457031 16.824219 8.222656 16.585938 8.222656 16.289062 C 8.222656 15.992188 8.457031 15.75 8.75 15.75 C 9.039062 15.75 9.273438 15.992188 9.273438 16.289062 C 9.273438 16.585938 9.039062 16.824219 8.75 16.824219 Z M 9.757812 14.589844 L 9.089844 14.589844 L 9.089844 3.597656 L 9.757812 3.597656 Z M 10.367188 16.824219 C 10.078125 16.824219 9.839844 16.585938 9.839844 16.289062 C 9.839844 15.992188 10.078125 15.75 10.367188 15.75 C 10.65625 15.75 10.894531 15.992188 10.894531 16.289062 C 10.894531 16.585938 10.65625 16.824219 10.367188 16.824219 Z M 11.988281 16.824219 C 11.695312 16.824219 11.460938 16.585938 11.460938 16.289062 C 11.460938 15.992188 11.695312 15.75 11.988281 15.75 C 12.277344 15.75 12.511719 15.992188 12.511719 16.289062 C 12.511719 16.585938 12.277344 16.824219 11.988281 16.824219 Z M 12.585938 3.597656 L 13.25 3.597656 L 13.25 14.589844 L 12.585938 14.589844 Z M 13.605469 16.824219 C 13.316406 16.824219 13.078125 16.585938 13.078125 16.289062 C 13.078125 15.992188 13.316406 15.75 13.605469 15.75 C 13.894531 15.75 14.132812 15.992188 14.132812 16.289062 C 14.132812 16.585938 13.894531 16.824219 13.605469 16.824219 Z M 14.335938 3.597656 L 15 3.597656 L 15 14.589844 L 14.335938 14.589844 Z M 15.226562 16.824219 C 14.933594 16.824219 14.699219 16.585938 14.699219 16.289062 C 14.699219 15.992188 14.933594 15.75 15.226562 15.75 C 15.515625 15.75 15.75 15.992188 15.75 16.289062 C 15.75 16.585938 15.515625 16.824219 15.226562 16.824219 Z M 16.082031 3.597656 L 16.746094 3.597656 L 16.746094 14.589844 L 16.082031 14.589844 Z M 16.84375 16.824219 C 16.554688 16.824219 16.316406 16.585938 16.316406 16.289062 C 16.316406 15.992188 16.554688 15.75 16.84375 15.75 C 17.132812 15.75 17.371094 15.992188 17.371094 16.289062 C 17.371094 16.585938 17.132812 16.824219 16.84375 16.824219 Z M 17.828125 3.597656 L 18.492188 3.597656 L 18.492188 14.589844 L 17.828125 14.589844 Z M 18.464844 16.824219 C 18.171875 16.824219 17.9375 16.585938 17.9375 16.289062 C 17.9375 15.992188 18.171875 15.75 18.464844 15.75 C 18.753906 15.75 18.988281 15.992188 18.988281 16.289062 C 18.988281 16.585938 18.753906 16.824219 18.464844 16.824219 Z M 19.878906 4.019531 L 22.121094 4.019531 L 22.121094 13.105469 L 19.878906 13.105469 Z M 21 16.828125 C 20.3125 16.828125 19.75 16.253906 19.75 15.550781 C 19.75 14.847656 20.3125 14.273438 21 14.273438 C 21.6875 14.273438 22.25 14.847656 22.25 15.550781 C 22.25 16.253906 21.6875 16.828125 21 16.828125 Z M 32.121094 3.597656 L 32.785156 3.597656 L 32.785156 14.589844 L 32.121094 14.589844 Z M 23.382812 3.597656 L 24.046875 3.597656 L 24.046875 14.589844 L 23.382812 14.589844 Z M 23.546875 16.824219 C 23.257812 16.824219 23.019531 16.585938 23.019531 16.289062 C 23.019531 15.992188 23.257812 15.75 23.546875 15.75 C 23.839844 15.75 24.074219 15.992188 24.074219 16.289062 C 24.074219 16.585938 23.839844 16.824219 23.546875 16.824219 Z M 25.167969 16.824219 C 24.875 16.824219 24.640625 16.585938 24.640625 16.289062 C 24.640625 15.992188 24.875 15.75 25.167969 15.75 C 25.457031 15.75 25.691406 15.992188 25.691406 16.289062 C 25.691406 16.585938 25.457031 16.824219 25.167969 16.824219 Z M 25.792969 14.589844 L 25.128906 14.589844 L 25.128906 3.597656 L 25.792969 3.597656 Z M 26.785156 16.824219 C 26.496094 16.824219 26.261719 16.585938 26.261719 16.289062 C 26.261719 15.992188 26.496094 15.75 26.785156 15.75 C 27.078125 15.75 27.3125 15.992188 27.3125 16.289062 C 27.3125 16.585938 27.078125 16.824219 26.785156 16.824219 Z M 27.542969 14.589844 L 26.875 14.589844 L 26.875 3.597656 L 27.542969 3.597656 Z M 28.40625 16.824219 C 28.113281 16.824219 27.878906 16.585938 27.878906 16.289062 C 27.878906 15.992188 28.113281 15.75 28.40625 15.75 C 28.695312 15.75 28.933594 15.992188 28.933594 16.289062 C 28.933594 16.585938 28.695312 16.824219 28.40625 16.824219 Z M 29.289062 14.589844 L 28.625 14.589844 L 28.625 3.597656 L 29.289062 3.597656 Z M 30.023438 16.824219 C 29.734375 16.824219 29.5 16.585938 29.5 16.289062 C 29.5 15.992188 29.734375 15.75 30.023438 15.75 C 30.316406 15.75 30.550781 15.992188 30.550781 16.289062 C 30.550781 16.585938 30.316406 16.824219 30.023438 16.824219 Z M 31.035156 14.589844 L 30.371094 14.589844 L 30.371094 3.597656 L 31.035156 3.597656 Z M 31.644531 16.824219 C 31.351562 16.824219 31.117188 16.585938 31.117188 16.289062 C 31.117188 15.992188 31.351562 15.75 31.644531 15.75 C 31.933594 15.75 32.167969 15.992188 32.167969 16.289062 C 32.171875 16.585938 31.933594 16.824219 31.644531 16.824219 Z M 33.261719 16.824219 C 32.972656 16.824219 32.738281 16.585938 32.738281 16.289062 C 32.738281 15.992188 32.972656 15.75 33.261719 15.75 C 33.554688 15.75 33.789062 15.992188 33.789062 16.289062 C 33.789062 16.585938 33.554688 16.824219 33.261719 16.824219 Z M 36.21875 15.507812 L 33.972656 15.507812 L 33.972656 2.660156 L 36.21875 2.660156 Z M 36.21875 15.507812 "/>
<path style=" stroke:none;fill-rule:nonzero;fill:rgb(100%,100%,100%);fill-opacity:0.25098;" d="M 5.476562 2.660156 L 7.71875 2.660156 L 7.71875 15.507812 L 5.476562 15.507812 Z M 5.476562 2.660156 "/>
<path style=" stroke:none;fill-rule:nonzero;fill:rgb(100%,100%,100%);fill-opacity:0.25098;" d="M 33.972656 2.660156 L 36.21875 2.660156 L 36.21875 15.507812 L 33.972656 15.507812 Z M 33.972656 2.660156 "/>
<path style=" stroke:none;fill-rule:nonzero;fill:rgb(100%,100%,100%);fill-opacity:0.25098;" d="M 19.878906 4.019531 L 22.121094 4.019531 L 22.121094 13.105469 L 19.878906 13.105469 Z M 19.878906 4.019531 "/>
<path style=" stroke:none;fill-rule:nonzero;fill:rgb(100%,100%,100%);fill-opacity:0.74902;" d="M 9.089844 3.597656 L 9.757812 3.597656 L 9.757812 14.589844 L 9.089844 14.589844 Z M 9.089844 3.597656 "/>
<path style=" stroke:none;fill-rule:nonzero;fill:rgb(100%,100%,100%);fill-opacity:0.74902;" d="M 10.839844 3.597656 L 11.503906 3.597656 L 11.503906 14.589844 L 10.839844 14.589844 Z M 10.839844 3.597656 "/>
<path style=" stroke:none;fill-rule:nonzero;fill:rgb(100%,100%,100%);fill-opacity:0.74902;" d="M 12.585938 3.597656 L 13.25 3.597656 L 13.25 14.589844 L 12.585938 14.589844 Z M 12.585938 3.597656 "/>
<path style=" stroke:none;fill-rule:nonzero;fill:rgb(100%,100%,100%);fill-opacity:0.74902;" d="M 14.335938 3.597656 L 15 3.597656 L 15 14.589844 L 14.335938 14.589844 Z M 14.335938 3.597656 "/>
<path style=" stroke:none;fill-rule:nonzero;fill:rgb(100%,100%,100%);fill-opacity:0.74902;" d="M 16.082031 3.597656 L 16.746094 3.597656 L 16.746094 14.589844 L 16.082031 14.589844 Z M 16.082031 3.597656 "/>
<path style=" stroke:none;fill-rule:nonzero;fill:rgb(100%,100%,100%);fill-opacity:0.74902;" d="M 17.828125 3.597656 L 18.492188 3.597656 L 18.492188 14.589844 L 17.828125 14.589844 Z M 17.828125 3.597656 "/>
<path style=" stroke:none;fill-rule:nonzero;fill:rgb(100%,100%,100%);fill-opacity:0.74902;" d="M 23.382812 3.597656 L 24.046875 3.597656 L 24.046875 14.589844 L 23.382812 14.589844 Z M 23.382812 3.597656 "/>
<path style=" stroke:none;fill-rule:nonzero;fill:rgb(100%,100%,100%);fill-opacity:0.74902;" d="M 25.128906 3.597656 L 25.792969 3.597656 L 25.792969 14.589844 L 25.128906 14.589844 Z M 25.128906 3.597656 "/>
<path style=" stroke:none;fill-rule:nonzero;fill:rgb(100%,100%,100%);fill-opacity:0.74902;" d="M 26.875 3.597656 L 27.542969 3.597656 L 27.542969 14.589844 L 26.875 14.589844 Z M 26.875 3.597656 "/>
<path style=" stroke:none;fill-rule:nonzero;fill:rgb(100%,100%,100%);fill-opacity:0.74902;" d="M 28.625 3.597656 L 29.289062 3.597656 L 29.289062 14.589844 L 28.625 14.589844 Z M 28.625 3.597656 "/>
<path style=" stroke:none;fill-rule:nonzero;fill:rgb(100%,100%,100%);fill-opacity:0.74902;" d="M 30.371094 3.597656 L 31.035156 3.597656 L 31.035156 14.589844 L 30.371094 14.589844 Z M 30.371094 3.597656 "/>
<path style=" stroke:none;fill-rule:nonzero;fill:rgb(100%,100%,100%);fill-opacity:0.74902;" d="M 32.121094 3.597656 L 32.785156 3.597656 L 32.785156 14.589844 L 32.121094 14.589844 Z M 32.121094 3.597656 "/>
<path style=" stroke:none;fill-rule:nonzero;fill:rgb(100%,100%,100%);fill-opacity:1;" d="M 21.949219 15.550781 C 21.949219 15.011719 21.523438 14.578125 21 14.578125 C 20.476562 14.578125 20.050781 15.011719 20.050781 15.550781 C 20.046875 16.085938 20.472656 16.519531 21 16.523438 C 21.523438 16.523438 21.949219 16.085938 21.949219 15.550781 Z M 21.949219 15.550781 "/>
<path style=" stroke:none;fill-rule:nonzero;fill:rgb(100%,100%,100%);fill-opacity:0.74902;" d="M 21 14.273438 C 20.3125 14.273438 19.75 14.847656 19.75 15.550781 C 19.75 16.253906 20.3125 16.828125 21 16.828125 C 21.6875 16.828125 22.25 16.253906 22.25 15.550781 C 22.25 14.847656 21.6875 14.273438 21 14.273438 Z M 21 16.824219 C 20.308594 16.824219 19.75 16.253906 19.75 15.550781 C 19.75 14.847656 20.3125 14.273438 21 14.273438 C 21.6875 14.273438 22.25 14.847656 22.25 15.550781 C 22.25 16.253906 21.691406 16.824219 21 16.824219 Z M 21 16.824219 "/>
<path style=" stroke:none;fill-rule:nonzero;fill:rgb(100%,100%,100%);fill-opacity:0.25098;" d="M 9.273438 16.289062 C 9.273438 15.992188 9.039062 15.75 8.75 15.75 C 8.457031 15.75 8.222656 15.992188 8.222656 16.289062 C 8.222656 16.585938 8.457031 16.824219 8.746094 16.824219 C 9.039062 16.824219 9.273438 16.585938 9.273438 16.289062 Z M 9.273438 16.289062 "/>
<path style=" stroke:none;fill-rule:nonzero;fill:rgb(100%,100%,100%);fill-opacity:0.25098;" d="M 10.894531 16.289062 C 10.894531 15.992188 10.65625 15.75 10.367188 15.75 C 10.078125 15.75 9.839844 15.992188 9.839844 16.289062 C 9.839844 16.585938 10.078125 16.824219 10.367188 16.824219 C 10.65625 16.824219 10.894531 16.585938 10.894531 16.289062 Z M 10.894531 16.289062 "/>
<path style=" stroke:none;fill-rule:nonzero;fill:rgb(100%,100%,100%);fill-opacity:0.25098;" d="M 12.511719 16.289062 C 12.511719 15.992188 12.277344 15.75 11.988281 15.75 C 11.695312 15.75 11.460938 15.992188 11.460938 16.289062 C 11.460938 16.585938 11.695312 16.824219 11.984375 16.824219 C 12.277344 16.824219 12.511719 16.585938 12.511719 16.289062 Z M 12.511719 16.289062 "/>
<path style=" stroke:none;fill-rule:nonzero;fill:rgb(100%,100%,100%);fill-opacity:0.25098;" d="M 14.132812 16.289062 C 14.132812 15.992188 13.898438 15.75 13.605469 15.75 C 13.316406 15.75 13.078125 15.992188 13.078125 16.289062 C 13.078125 16.585938 13.316406 16.824219 13.605469 16.824219 C 13.894531 16.824219 14.132812 16.585938 14.132812 16.289062 Z M 14.132812 16.289062 "/>
<path style=" stroke:none;fill-rule:nonzero;fill:rgb(100%,100%,100%);fill-opacity:0.25098;" d="M 15.75 16.289062 C 15.75 15.992188 15.515625 15.75 15.226562 15.75 C 14.933594 15.75 14.699219 15.992188 14.699219 16.289062 C 14.699219 16.585938 14.933594 16.824219 15.222656 16.824219 C 15.515625 16.824219 15.75 16.585938 15.75 16.289062 Z M 15.75 16.289062 "/>
<path style=" stroke:none;fill-rule:nonzero;fill:rgb(100%,100%,100%);fill-opacity:0.25098;" d="M 17.371094 16.289062 C 17.371094 15.992188 17.132812 15.75 16.84375 15.75 C 16.554688 15.75 16.316406 15.992188 16.316406 16.289062 C 16.316406 16.585938 16.554688 16.824219 16.84375 16.824219 C 17.132812 16.824219 17.371094 16.585938 17.371094 16.289062 Z M 17.371094 16.289062 "/>
<path style=" stroke:none;fill-rule:nonzero;fill:rgb(100%,100%,100%);fill-opacity:0.25098;" d="M 18.988281 16.289062 C 18.988281 15.992188 18.753906 15.75 18.464844 15.75 C 18.171875 15.75 17.9375 15.992188 17.9375 16.289062 C 17.9375 16.585938 18.171875 16.824219 18.460938 16.824219 C 18.753906 16.824219 18.988281 16.585938 18.988281 16.289062 Z M 18.988281 16.289062 "/>
<path style=" stroke:none;fill-rule:nonzero;fill:rgb(100%,100%,100%);fill-opacity:0.25098;" d="M 24.074219 16.289062 C 24.074219 15.992188 23.839844 15.75 23.546875 15.75 C 23.257812 15.75 23.023438 15.992188 23.023438 16.289062 C 23.019531 16.585938 23.257812 16.824219 23.546875 16.824219 C 23.835938 16.824219 24.074219 16.585938 24.074219 16.289062 Z M 24.074219 16.289062 "/>
<path style=" stroke:none;fill-rule:nonzero;fill:rgb(100%,100%,100%);fill-opacity:0.25098;" d="M 25.691406 16.289062 C 25.691406 15.992188 25.457031 15.75 25.167969 15.75 C 24.875 15.75 24.640625 15.992188 24.640625 16.289062 C 24.640625 16.585938 24.875 16.824219 25.167969 16.824219 C 25.457031 16.824219 25.691406 16.585938 25.691406 16.289062 Z M 25.691406 16.289062 "/>
<path style=" stroke:none;fill-rule:nonzero;fill:rgb(100%,100%,100%);fill-opacity:0.25098;" d="M 27.3125 16.289062 C 27.3125 15.992188 27.078125 15.75 26.785156 15.75 C 26.496094 15.75 26.261719 15.992188 26.261719 16.289062 C 26.261719 16.585938 26.496094 16.824219 26.785156 16.824219 C 27.078125 16.824219 27.3125 16.585938 27.3125 16.289062 Z M 27.3125 16.289062 "/>
<path style=" stroke:none;fill-rule:nonzero;fill:rgb(100%,100%,100%);fill-opacity:0.25098;" d="M 28.933594 16.289062 C 28.933594 15.992188 28.695312 15.75 28.40625 15.75 C 28.117188 15.75 27.878906 15.992188 27.878906 16.289062 C 27.878906 16.585938 28.113281 16.824219 28.40625 16.824219 C 28.695312 16.824219 28.929688 16.585938 28.933594 16.289062 Z M 28.933594 16.289062 "/>
<path style=" stroke:none;fill-rule:nonzero;fill:rgb(100%,100%,100%);fill-opacity:0.25098;" d="M 30.550781 16.289062 C 30.550781 15.992188 30.316406 15.75 30.023438 15.75 C 29.734375 15.75 29.5 15.992188 29.5 16.289062 C 29.5 16.585938 29.734375 16.824219 30.023438 16.824219 C 30.316406 16.824219 30.550781 16.585938 30.550781 16.289062 Z M 30.550781 16.289062 "/>
<path style=" stroke:none;fill-rule:nonzero;fill:rgb(100%,100%,100%);fill-opacity:0.25098;" d="M 32.167969 16.289062 C 32.167969 15.992188 31.933594 15.75 31.644531 15.75 C 31.351562 15.75 31.117188 15.992188 31.117188 16.289062 C 31.117188 16.585938 31.351562 16.824219 31.644531 16.824219 C 31.933594 16.824219 32.167969 16.585938 32.167969 16.289062 Z M 32.167969 16.289062 "/>
<path style=" stroke:none;fill-rule:nonzero;fill:rgb(100%,100%,100%);fill-opacity:0.25098;" d="M 33.789062 16.289062 C 33.789062 15.992188 33.554688 15.75 33.261719 15.75 C 32.972656 15.75 32.738281 15.992188 32.738281 16.289062 C 32.738281 16.585938 32.972656 16.824219 33.261719 16.824219 C 33.554688 16.824219 33.789062 16.585938 33.789062 16.289062 Z M 33.789062 16.289062 "/>
<path style=" stroke:none;fill-rule:nonzero;fill:rgb(100%,100%,100%);fill-opacity:0.25098;" d="M 20.929688 3.554688 C 21.726562 3.554688 22.371094 2.894531 22.371094 2.082031 L 22.371094 1.082031 L 19.492188 1.082031 L 19.492188 2.082031 C 19.492188 2.894531 20.136719 3.554688 20.929688 3.554688 Z M 20.929688 1.46875 C 21.375 1.46875 21.738281 1.835938 21.738281 2.292969 C 21.738281 2.746094 21.375 3.113281 20.929688 3.113281 C 20.484375 3.113281 20.125 2.746094 20.125 2.292969 C 20.125 1.835938 20.484375 1.46875 20.929688 1.46875 Z M 20.929688 1.46875 "/>
<path style=" stroke:none;fill-rule:nonzero;fill:rgb(100%,100%,100%);fill-opacity:1;" d="M 20.929688 3.113281 C 21.375 3.113281 21.738281 2.746094 21.738281 2.292969 C 21.738281 1.835938 21.375 1.46875 20.929688 1.46875 C 20.484375 1.46875 20.125 1.835938 20.125 2.292969 C 20.125 2.746094 20.484375 3.113281 20.929688 3.113281 Z M 20.765625 1.875 L 21.097656 1.875 L 21.097656 2.761719 L 20.765625 2.761719 Z M 20.765625 1.875 "/>
<path style=" stroke:none;fill-rule:nonzero;fill:rgb(100%,100%,100%);fill-opacity:0.25098;" d="M 21 14.273438 C 20.308594 14.273438 19.75 14.847656 19.75 15.550781 C 19.75 16.253906 20.3125 16.824219 21 16.824219 C 21.6875 16.824219 22.25 16.253906 22.25 15.550781 C 22.25 14.847656 21.691406 14.273438 21 14.273438 Z M 21 16.527344 C 20.472656 16.527344 20.042969 16.089844 20.042969 15.550781 C 20.042969 15.011719 20.472656 14.574219 21 14.574219 C 21.527344 14.574219 21.957031 15.011719 21.957031 15.550781 C 21.957031 16.089844 21.527344 16.527344 21 16.527344 Z M 21 16.527344 "/>
</g>
</svg>
