<?xml version="1.0" encoding="UTF-8"?>
<svg xmlns="http://www.w3.org/2000/svg" xmlns:xlink="http://www.w3.org/1999/xlink" width="42pt" height="42pt" viewBox="0 0 42 42" version="1.1">
<g id="surface1">
<path style=" stroke:none;fill-rule:nonzero;fill:rgb(24.705882%,41.960784%,63.921569%);fill-opacity:1;" d="M 39.898438 1.484375 L 36.824219 1.484375 L 36.824219 0 L 25.171875 0 L 25.171875 1.484375 L 16.828125 1.484375 L 16.828125 0 L 5.175781 0 L 5.175781 1.484375 L 2.101562 1.484375 C 0.941406 1.484375 0 2.410156 0 3.546875 L 0 39.9375 C 0 41.074219 0.941406 42 2.101562 42 L 39.898438 42 C 41.058594 42 42 41.074219 42 39.9375 L 42 3.546875 C 42 2.410156 41.058594 1.484375 39.898438 1.484375 Z M 15.761719 1.835938 L 15.761719 1.0625 Z M 15.761719 1.835938 "/>
<path style=" stroke:none;fill-rule:nonzero;fill:rgb(100%,100%,100%);fill-opacity:0.901961;" d="M 21 2.550781 L 16.835938 2.550781 L 16.835938 40.9375 L 25.164062 40.9375 L 25.164062 2.550781 Z M 20.59375 18.875 L 17.195312 18.875 L 17.195312 7.78125 L 20.59375 7.78125 Z M 21.40625 18.875 L 21.40625 7.78125 L 24.800781 7.78125 L 24.800781 18.875 Z M 21.40625 18.875 "/>
<path style=" stroke:none;fill-rule:nonzero;fill:rgb(100%,100%,100%);fill-opacity:0.901961;" d="M 37.757812 40.9375 L 37.757812 4.222656 C 37.757812 4.039062 37.914062 3.890625 38.105469 3.890625 C 38.296875 3.890625 38.449219 4.039062 38.449219 4.222656 L 38.449219 40.9375 L 39.355469 40.9375 L 39.355469 4.222656 C 39.355469 4.039062 39.511719 3.890625 39.703125 3.890625 C 39.890625 3.890625 40.046875 4.039062 40.046875 4.222656 L 40.046875 40.921875 C 40.546875 40.851562 40.933594 40.4375 40.933594 39.9375 L 40.933594 3.546875 C 40.933594 3 40.46875 2.550781 39.898438 2.550781 L 36.832031 2.550781 L 36.832031 40.9375 Z M 37.757812 40.9375 "/>
<path style=" stroke:none;fill-rule:nonzero;fill:rgb(100%,100%,100%);fill-opacity:0.901961;" d="M 2.101562 2.550781 C 1.53125 2.550781 1.066406 3 1.066406 3.546875 L 1.066406 39.9375 C 1.066406 40.453125 1.472656 40.871094 1.992188 40.925781 L 1.992188 4.222656 C 1.992188 4.039062 2.148438 3.890625 2.335938 3.890625 C 2.527344 3.890625 2.683594 4.039062 2.683594 4.222656 L 2.683594 40.9375 L 3.589844 40.9375 L 3.589844 4.222656 C 3.589844 4.039062 3.742188 3.890625 3.933594 3.890625 C 4.125 3.890625 4.28125 4.039062 4.28125 4.222656 L 4.28125 40.9375 L 5.167969 40.9375 L 5.167969 2.550781 Z M 2.101562 2.550781 "/>
<path style=" stroke:none;fill-rule:nonzero;fill:rgb(100%,100%,100%);fill-opacity:0.65098;" d="M 6.238281 2.550781 L 6.238281 40.9375 L 15.761719 40.9375 L 15.761719 1.0625 L 6.238281 1.0625 Z M 9.960938 7.203125 L 12.042969 7.203125 L 12.042969 35.960938 L 9.960938 35.960938 Z M 9.960938 7.203125 "/>
<path style=" stroke:none;fill-rule:nonzero;fill:rgb(100%,100%,100%);fill-opacity:0.901961;" d="M 9.960938 7.203125 L 12.042969 7.203125 L 12.042969 35.960938 L 9.960938 35.960938 Z M 9.960938 7.203125 "/>
<path style=" stroke:none;fill-rule:nonzero;fill:rgb(100%,100%,100%);fill-opacity:0.65098;" d="M 26.238281 1.835938 L 26.238281 40.9375 L 35.761719 40.9375 L 35.761719 1.0625 L 26.269531 1.0625 L 26.269531 1.835938 Z M 29.957031 7.203125 L 32.039062 7.203125 L 32.039062 35.960938 L 29.957031 35.960938 Z M 29.957031 7.203125 "/>
<path style=" stroke:none;fill-rule:nonzero;fill:rgb(100%,100%,100%);fill-opacity:0.901961;" d="M 29.957031 7.203125 L 32.039062 7.203125 L 32.039062 35.960938 L 29.957031 35.960938 Z M 29.957031 7.203125 "/>
<path style=" stroke:none;fill-rule:nonzero;fill:rgb(100%,100%,100%);fill-opacity:0.501961;" d="M 2.683594 27.558594 L 2.683594 4.222656 C 2.683594 4.039062 2.527344 3.890625 2.335938 3.890625 C 2.144531 3.890625 1.992188 4.039062 1.992188 4.222656 L 1.992188 40.925781 C 2.027344 40.929688 2.0625 40.9375 2.101562 40.9375 L 2.683594 40.9375 Z M 2.683594 27.558594 "/>
<path style=" stroke:none;fill-rule:nonzero;fill:rgb(100%,100%,100%);fill-opacity:0.501961;" d="M 4.277344 28.898438 L 4.277344 4.222656 C 4.277344 4.039062 4.125 3.890625 3.933594 3.890625 C 3.742188 3.890625 3.589844 4.039062 3.589844 4.222656 L 3.589844 40.9375 L 4.277344 40.9375 Z M 4.277344 28.898438 "/>
<path style=" stroke:none;fill-rule:nonzero;fill:rgb(100%,100%,100%);fill-opacity:0.501961;" d="M 38.449219 27.558594 L 38.449219 4.222656 C 38.449219 4.039062 38.292969 3.890625 38.105469 3.890625 C 37.914062 3.890625 37.757812 4.039062 37.757812 4.222656 L 37.757812 40.9375 L 38.449219 40.9375 Z M 38.449219 27.558594 "/>
<path style=" stroke:none;fill-rule:nonzero;fill:rgb(100%,100%,100%);fill-opacity:0.501961;" d="M 40.046875 28.898438 L 40.046875 4.222656 C 40.046875 4.039062 39.890625 3.890625 39.699219 3.890625 C 39.511719 3.890625 39.355469 4.039062 39.355469 4.222656 L 39.355469 40.9375 L 39.898438 40.9375 C 39.949219 40.9375 39.996094 40.929688 40.046875 40.921875 Z M 40.046875 28.898438 "/>
<path style=" stroke:none;fill-rule:nonzero;fill:rgb(100%,100%,100%);fill-opacity:0.74902;" d="M 17.195312 18.875 L 20.59375 18.875 L 20.59375 7.78125 L 17.195312 7.78125 Z M 18.265625 8.789062 L 19.527344 8.789062 L 19.527344 15.226562 L 18.265625 15.226562 Z M 18.265625 16.445312 L 19.527344 16.445312 L 19.527344 17.660156 L 18.265625 17.660156 Z M 18.265625 16.445312 "/>
<path style=" stroke:none;fill-rule:nonzero;fill:rgb(100%,100%,100%);fill-opacity:0.501961;" d="M 18.265625 8.789062 L 19.527344 8.789062 L 19.527344 15.226562 L 18.265625 15.226562 Z M 18.265625 8.789062 "/>
<path style=" stroke:none;fill-rule:nonzero;fill:rgb(100%,100%,100%);fill-opacity:0.74902;" d="M 21.40625 7.78125 L 21.40625 18.875 L 24.800781 18.875 L 24.800781 7.78125 Z M 23.734375 17.660156 L 22.472656 17.660156 L 22.472656 16.445312 L 23.734375 16.445312 Z M 23.734375 17.660156 "/>
</g>
</svg>
