<?xml version="1.0" encoding="UTF-8"?>
<svg xmlns="http://www.w3.org/2000/svg" xmlns:xlink="http://www.w3.org/1999/xlink" width="34pt" height="33pt" viewBox="0 0 34 33" version="1.1">
<g id="surface1">
<path style=" stroke:none;fill-rule:nonzero;fill:rgb(24.705882%,41.960784%,63.921569%);fill-opacity:1;" d="M 32.785156 7.367188 L 29.292969 7.367188 L 29.292969 0 L 4.707031 0 L 4.707031 7.367188 L 1.214844 7.367188 C 0.542969 7.367188 0 7.929688 0 8.621094 L 0 31.746094 C 0 32.4375 0.542969 33 1.214844 33 L 32.785156 33 C 33.457031 33 34 32.4375 34 31.746094 L 34 8.621094 C 34 7.929688 33.457031 7.367188 32.785156 7.367188 Z M 32.785156 7.367188 "/>
<path style=" stroke:none;fill-rule:nonzero;fill:rgb(100%,100%,100%);fill-opacity:0.929412;" d="M 19.453125 21.757812 L 14.546875 21.757812 L 13.601562 19.851562 L 1.039062 19.851562 L 1.039062 25.953125 L 32.960938 25.953125 L 32.960938 19.851562 L 20.398438 19.851562 Z M 19.453125 21.757812 "/>
<path style=" stroke:none;fill-rule:nonzero;fill:rgb(100%,100%,100%);fill-opacity:0.501961;" d="M 27.128906 11.472656 C 27.128906 10.882812 26.667969 10.40625 26.097656 10.40625 C 25.53125 10.40625 25.070312 10.882812 25.070312 11.46875 C 25.066406 12.058594 25.527344 12.535156 26.097656 12.535156 C 26.667969 12.535156 27.128906 12.058594 27.128906 11.472656 Z M 27.128906 11.472656 "/>
<path style=" stroke:none;fill-rule:nonzero;fill:rgb(100%,100%,100%);fill-opacity:0.25098;" d="M 1.039062 25.957031 L 1.039062 26.316406 L 17 26.316406 L 16.226562 28.222656 L 19.453125 28.222656 L 20.398438 26.316406 L 32.960938 26.316406 L 32.960938 25.957031 Z M 1.039062 25.957031 "/>
<path style=" stroke:none;fill-rule:nonzero;fill:rgb(100%,100%,100%);fill-opacity:0.25098;" d="M 1.039062 19.5 L 1.039062 19.859375 L 17 19.859375 L 16.226562 21.765625 L 19.453125 21.765625 L 20.398438 19.859375 L 32.960938 19.859375 L 32.960938 19.5 Z M 1.039062 19.5 "/>
<path style=" stroke:none;fill-rule:nonzero;fill:rgb(100%,100%,100%);fill-opacity:0.929412;" d="M 32.785156 8.464844 L 29.167969 8.464844 L 29.167969 8.472656 L 5.230469 8.472656 L 5.230469 8.464844 L 1.214844 8.464844 C 1.121094 8.464844 1.039062 8.546875 1.039062 8.644531 L 1.039062 19.5 L 32.960938 19.5 L 32.960938 8.644531 C 32.960938 8.546875 32.878906 8.464844 32.785156 8.464844 Z M 26.097656 12.53125 C 25.527344 12.53125 25.066406 12.054688 25.066406 11.46875 C 25.066406 10.878906 25.527344 10.402344 26.097656 10.402344 C 26.667969 10.402344 27.128906 10.878906 27.128906 11.46875 C 27.128906 12.054688 26.667969 12.53125 26.097656 12.53125 Z M 29.53125 12.53125 C 28.960938 12.53125 28.5 12.054688 28.5 11.46875 C 28.5 10.878906 28.960938 10.402344 29.53125 10.402344 C 30.101562 10.402344 30.5625 10.878906 30.5625 11.46875 C 30.5625 12.054688 30.101562 12.53125 29.53125 12.53125 Z M 29.53125 12.53125 "/>
<path style=" stroke:none;fill-rule:nonzero;fill:rgb(100%,100%,100%);fill-opacity:0.929412;" d="M 19.453125 28.21875 L 14.546875 28.21875 L 13.601562 26.3125 L 1.039062 26.3125 L 1.039062 31.761719 C 1.039062 31.859375 1.121094 31.941406 1.214844 31.941406 L 32.785156 31.941406 C 32.878906 31.941406 32.960938 31.859375 32.960938 31.761719 L 32.960938 26.3125 L 20.398438 26.3125 Z M 19.453125 28.21875 "/>
<path style=" stroke:none;fill-rule:nonzero;fill:rgb(100%,100%,100%);fill-opacity:0.501961;" d="M 14.546875 21.765625 L 13.601562 19.859375 L 17 19.859375 L 16.226562 21.765625 Z M 14.546875 21.765625 "/>
<path style=" stroke:none;fill-rule:nonzero;fill:rgb(100%,100%,100%);fill-opacity:0.501961;" d="M 14.546875 28.21875 L 13.601562 26.3125 L 17 26.3125 L 16.226562 28.21875 Z M 14.546875 28.21875 "/>
<path style=" stroke:none;fill-rule:nonzero;fill:rgb(100%,100%,100%);fill-opacity:0.929412;" d="M 5.75 1.066406 L 5.75 7.367188 L 7.582031 7.367188 L 7.582031 2.324219 L 26.417969 2.324219 L 26.417969 7.367188 L 28.25 7.367188 L 28.25 1.066406 Z M 5.75 1.066406 "/>
<path style=" stroke:none;fill-rule:nonzero;fill:rgb(100%,100%,100%);fill-opacity:0.74902;" d="M 7.582031 2.324219 L 7.582031 7.367188 L 26.417969 7.367188 L 26.417969 2.324219 Z M 9.191406 3.949219 L 20.398438 3.949219 L 20.398438 4.304688 L 9.191406 4.304688 Z M 9.191406 6.253906 L 9.191406 5.894531 L 24.808594 5.894531 L 24.808594 6.253906 Z M 9.191406 6.253906 "/>
</g>
</svg>
