<?xml version="1.0" encoding="UTF-8"?>
<svg xmlns="http://www.w3.org/2000/svg" xmlns:xlink="http://www.w3.org/1999/xlink" width="50pt" height="50pt" viewBox="0 0 50 50" version="1.1">
<g id="surface1">
<path style=" stroke:none;fill-rule:nonzero;fill:rgb(100%,100%,100%);fill-opacity:1;" d="M 49.28125 25 C 49.28125 38.410156 38.410156 49.28125 25 49.28125 C 11.589844 49.28125 0.71875 38.410156 0.71875 25 C 0.71875 11.589844 11.589844 0.71875 25 0.71875 C 38.410156 0.71875 49.28125 11.589844 49.28125 25 Z M 49.28125 25 "/>
<path style=" stroke:none;fill-rule:nonzero;fill:rgb(0%,0%,0%);fill-opacity:1;" d="M 25 0 C 11.199219 0 0 11.199219 0 25 C 0 38.800781 11.199219 50 25 50 C 38.800781 50 50 38.800781 50 25 C 50 11.199219 38.800781 0 25 0 Z M 25 3.203125 C 37.03125 3.203125 46.796875 12.96875 46.796875 25 C 46.796875 37.03125 37.03125 46.796875 25 46.796875 C 12.96875 46.796875 3.203125 37.03125 3.203125 25 C 3.203125 12.96875 12.96875 3.203125 25 3.203125 Z M 25.367188 8.515625 C 24.003906 8.523438 22.703125 8.699219 21.546875 9.03125 C 20.371094 9.367188 19.265625 9.902344 18.328125 10.585938 C 17.519531 11.175781 16.746094 11.933594 16.15625 12.71875 C 15.117188 14.105469 14.539062 15.632812 14.390625 17.390625 C 14.378906 17.507812 14.371094 17.609375 14.375 17.609375 C 14.378906 17.613281 19.800781 18.28125 19.828125 18.28125 C 19.839844 18.28125 19.855469 18.222656 19.898438 18.046875 C 20.382812 16.027344 21.269531 14.667969 22.640625 13.84375 C 23.71875 13.195312 25.09375 12.941406 26.585938 13.101562 C 27.269531 13.175781 27.886719 13.339844 28.429688 13.601562 C 29.109375 13.925781 29.726562 14.441406 30.164062 15.054688 C 30.550781 15.59375 30.78125 16.199219 30.851562 16.882812 C 30.871094 17.074219 30.863281 17.503906 30.84375 17.6875 C 30.789062 18.144531 30.671875 18.53125 30.46875 18.929688 C 30.265625 19.328125 30.101562 19.558594 29.78125 19.882812 C 29.273438 20.402344 28.484375 21.089844 27.085938 22.234375 C 26.183594 22.96875 25.574219 23.523438 25.054688 24.070312 C 23.820312 25.363281 23.257812 26.335938 22.914062 27.75 C 22.6875 28.679688 22.601562 29.636719 22.625 31.046875 C 22.632812 31.398438 22.640625 31.730469 22.640625 31.789062 L 22.640625 31.898438 L 28.039062 31.898438 L 28.046875 31.296875 C 28.054688 30.480469 28.101562 29.953125 28.1875 29.445312 C 28.328125 28.628906 28.546875 28.195312 29.171875 27.492188 C 29.574219 27.042969 30.097656 26.550781 30.90625 25.875 C 32.097656 24.878906 32.933594 24.128906 33.71875 23.34375 C 34.949219 22.117188 35.585938 21.277344 36.039062 20.296875 C 36.398438 19.523438 36.59375 18.753906 36.65625 17.914062 C 36.671875 17.710938 36.671875 17.15625 36.65625 16.921875 C 36.542969 15.160156 35.878906 13.609375 34.617188 12.164062 C 34.417969 11.9375 33.921875 11.441406 33.6875 11.234375 C 32.449219 10.136719 31.015625 9.394531 29.296875 8.960938 C 28.25 8.695312 27.238281 8.5625 25.960938 8.523438 C 25.765625 8.519531 25.5625 8.515625 25.367188 8.515625 Z M 22.640625 34.414062 L 22.640625 39.914062 L 28.140625 39.914062 L 28.140625 34.414062 Z M 22.640625 34.414062 "/>
</g>
</svg>
